<svg version="1.1" viewBox="0.0 0.0 445.0 171.0" fill="none" stroke="none" stroke-linecap="square" stroke-miterlimit="10" xmlns:xlink="http://www.w3.org/1999/xlink" xmlns="http://www.w3.org/2000/svg"><clipPath id="p.0"><path d="m0 0l445.0 0l0 171.0l-445.0 0l0 -171.0z" clip-rule="nonzero"/></clipPath><g clip-path="url(#p.0)"><path fill="#ffffff" d="m0 0l445.0 0l0 171.0l-445.0 0z" fill-rule="evenodd"/><path fill="#000000" fill-opacity="0.0" d="m9.629921 9.065617l156.7244 0l0 39.11811l-156.7244 0z" fill-rule="evenodd"/><path stroke="#000000" stroke-width="3.0" stroke-linejoin="round" stroke-linecap="butt" d="m9.629921 9.065617l156.7244 0l0 39.11811l-156.7244 0z" fill-rule="evenodd"/><path fill="#000000" d="m69.7632 30.955921q0 0.25 -0.109375 0.46875q-0.09375 0.203125 -0.28125 0.359375q-0.203125 0.140625 -0.484375 0.234375q-0.28125 0.078125 -0.640625 0.078125q-0.421875 0 -0.765625 -0.09375q-0.328125 -0.09375 -0.578125 -0.28125q-0.25 -0.203125 -0.390625 -0.5q-0.125 -0.3125 -0.140625 -0.734375l-1.796875 0q0 0.734375 0.28125 1.28125q0.28125 0.546875 0.78125 0.953125q0.5 0.40625 1.1875 0.625q0.703125 0.203125 1.421875 0.203125q0.71875 0 1.328125 -0.171875q0.609375 -0.171875 1.046875 -0.515625q0.453125 -0.328125 0.703125 -0.8125q0.25 -0.484375 0.25 -1.109375q0 -0.71875 -0.34375 -1.265625q-0.328125 -0.5625 -0.875 -0.984375q-0.375 -0.25 -0.828125 -0.4375q-0.4375 -0.203125 -0.921875 -0.34375q-0.453125 -0.125 -0.828125 -0.265625q-0.359375 -0.140625 -0.609375 -0.3125q-0.25 -0.171875 -0.390625 -0.390625q-0.125 -0.21875 -0.125 -0.484375q0 -0.25 0.09375 -0.46875q0.109375 -0.21875 0.296875 -0.375q0.203125 -0.15625 0.484375 -0.234375q0.28125 -0.09375 0.640625 -0.09375q0.40625 0 0.703125 0.109375q0.296875 0.09375 0.5 0.28125q0.1875 0.203125 0.28125 0.46875q0.109375 0.265625 0.125 0.578125l1.78125 0q0 -0.625 -0.25 -1.15625q-0.25 -0.546875 -0.6875 -0.9375q-0.4375 -0.375 -1.0625 -0.59375q-0.609375 -0.21875 -1.359375 -0.21875q-0.703125 0 -1.328125 0.1875q-0.609375 0.1875 -1.046875 0.53125q-0.453125 0.34375 -0.71875 0.84375q-0.25 0.484375 -0.25 1.078125q0 0.515625 0.1875 0.96875q0.203125 0.4375 0.578125 0.796875q0.375 0.375 0.96875 0.6875q0.609375 0.296875 1.390625 0.5q0.5 0.140625 0.84375 0.3125q0.34375 0.15625 0.5625 0.34375q0.203125 0.1875 0.28125 0.40625q0.09375 0.21875 0.09375 0.484375zm3.6700592 2.46875l1.59375 0l0.75 -3.765625l0.140625 -0.71875l0.140625 0.71875l0.78125 3.765625l1.59375 0l1.25 -7.046875l-1.65625 0l-0.515625 4.15625l-0.09375 0.6875l-0.125 -0.671875l-0.765625 -4.171875l-1.203125 0l-0.765625 4.1875l-0.125 0.671875l-0.078125 -0.671875l-0.53125 -4.1875l-1.65625 0l1.265625 7.046875zm7.966934 -7.046875l0 1.484375l2.0 0l0 4.09375l-2.0 0l0 1.46875l5.734375 0l0 -1.46875l-1.90625 0l0 -5.578125l-3.828125 0zm1.875 -1.796875q0 0.203125 0.0625 0.390625q0.078125 0.171875 0.21875 0.296875q0.140625 0.125 0.328125 0.203125q0.1875 0.078125 0.421875 0.078125q0.484375 0 0.765625 -0.265625q0.28125 -0.28125 0.28125 -0.703125q0 -0.421875 -0.28125 -0.6875q-0.28125 -0.28125 -0.765625 -0.28125q-0.234375 0 -0.421875 0.078125q-0.1875 0.0625 -0.328125 0.1875q-0.140625 0.140625 -0.21875 0.328125q-0.0625 0.171875 -0.0625 0.375zm8.951309 0.078125l-1.8125 0l0 1.71875l-1.609375 0l0 1.34375l1.609375 0l0 3.203125q0 0.6875 0.1875 1.1875q0.1875 0.5 0.515625 0.8125q0.34375 0.328125 0.8125 0.484375q0.46875 0.15625 1.046875 0.15625q0.296875 0 0.609375 -0.03125q0.3125 -0.03125 0.59375 -0.078125q0.28125 -0.0625 0.53125 -0.140625q0.265625 -0.078125 0.453125 -0.1875l-0.171875 -1.25q-0.125 0.03125 -0.296875 0.078125q-0.171875 0.03125 -0.375 0.046875q-0.203125 0.03125 -0.421875 0.0625q-0.21875 0.015625 -0.421875 0.015625q-0.28125 0 -0.515625 -0.0625q-0.234375 -0.078125 -0.390625 -0.234375q-0.171875 -0.140625 -0.265625 -0.390625q-0.078125 -0.265625 -0.078125 -0.65625l0 -3.015625l2.625 0l0 -1.34375l-2.625 0l0 -1.71875zm7.795059 7.453125q-0.4375 0 -0.71875 -0.171875q-0.28125 -0.1875 -0.4375 -0.46875q-0.171875 -0.296875 -0.234375 -0.671875q-0.0625 -0.375 -0.0625 -0.796875l0 -0.1875q0 -0.40625 0.0625 -0.78125q0.0625 -0.375 0.234375 -0.671875q0.171875 -0.296875 0.4375 -0.46875q0.28125 -0.171875 0.71875 -0.171875q0.296875 0 0.53125 0.109375q0.25 0.09375 0.421875 0.25q0.1875 0.171875 0.265625 0.40625q0.09375 0.234375 0.09375 0.5l1.703125 0q0 -0.625 -0.21875 -1.125q-0.21875 -0.515625 -0.609375 -0.875q-0.40625 -0.34375 -0.96875 -0.53125q-0.546875 -0.203125 -1.203125 -0.203125q-0.8125 0 -1.421875 0.28125q-0.609375 0.28125 -1.03125 0.765625q-0.421875 0.46875 -0.625 1.125q-0.203125 0.640625 -0.203125 1.390625l0 0.1875q0 0.75 0.203125 1.40625q0.21875 0.640625 0.625 1.125q0.421875 0.46875 1.03125 0.75q0.625 0.28125 1.4375 0.28125q0.609375 0 1.15625 -0.1875q0.546875 -0.203125 0.953125 -0.53125q0.40625 -0.34375 0.640625 -0.8125q0.234375 -0.46875 0.234375 -1.015625l-1.703125 0q0 0.25 -0.109375 0.453125q-0.09375 0.203125 -0.265625 0.34375q-0.1875 0.140625 -0.4375 0.21875q-0.234375 0.078125 -0.5 0.078125zm6.701309 -4.765625l0 -3.921875l-1.8125 0l0 10.0l1.8125 0l0 -5.078125q0.09375 -0.140625 0.21875 -0.25q0.125 -0.109375 0.28125 -0.1875q0.171875 -0.09375 0.375 -0.140625q0.21875 -0.046875 0.453125 -0.046875q0.3125 0 0.5625 0.09375q0.25 0.078125 0.421875 0.234375q0.171875 0.171875 0.265625 0.453125q0.109375 0.265625 0.109375 0.640625l0 4.28125l1.796875 0l0 -4.265625q0 -0.765625 -0.1875 -1.3125q-0.171875 -0.5625 -0.515625 -0.90625q-0.328125 -0.359375 -0.796875 -0.515625q-0.453125 -0.171875 -1.0 -0.171875q-0.390625 0 -0.734375 0.109375q-0.328125 0.109375 -0.609375 0.3125q-0.171875 0.125 -0.34375 0.296875q-0.171875 0.171875 -0.296875 0.375z" fill-rule="nonzero"/><path fill="#000000" fill-opacity="0.0" d="m9.629921 102.51565l156.7244 0l0 55.999992l-156.7244 0z" fill-rule="evenodd"/><path stroke="#000000" stroke-width="2.0" stroke-linejoin="round" stroke-linecap="butt" d="m9.629921 102.51565l156.7244 0l0 55.999992l-156.7244 0z" fill-rule="evenodd"/><path fill="#000000" d="m20.114296 128.4119l4.484375 -8.234375l-0.875 0l-4.5 8.234375l0.890625 0zm6.254303 0l4.484375 -8.234375l-0.875 0l-4.5 8.234375l0.890625 0zm11.602356 -3.484375l-0.015625 0.109375q-0.046875 0.390625 -0.015625 0.765625q0.046875 0.359375 0.171875 0.6875q0.078125 0.21875 0.203125 0.421875q0.140625 0.203125 0.296875 0.390625q0.25 0.25 0.609375 0.40625q0.359375 0.140625 0.8125 0.15625q0.609375 0.015625 1.109375 -0.21875q0.5 -0.234375 0.875 -0.640625q0.359375 -0.390625 0.59375 -0.921875q0.234375 -0.53125 0.3125 -1.09375l0 -0.109375q0.046875 -0.375 0 -0.75q-0.03125 -0.375 -0.140625 -0.703125q-0.09375 -0.265625 -0.25 -0.5q-0.15625 -0.234375 -0.34375 -0.40625q-0.234375 -0.21875 -0.578125 -0.34375q-0.34375 -0.140625 -0.765625 -0.15625q-0.59375 -0.015625 -1.078125 0.21875q-0.484375 0.21875 -0.859375 0.59375q-0.390625 0.40625 -0.640625 0.953125q-0.234375 0.546875 -0.296875 1.140625zm0.921875 0.109375l0.015625 -0.109375q0.046875 -0.375 0.1875 -0.75q0.140625 -0.390625 0.375 -0.703125q0.234375 -0.296875 0.5625 -0.484375q0.34375 -0.203125 0.78125 -0.1875q0.40625 0.015625 0.65625 0.21875q0.25 0.203125 0.375 0.5q0.125 0.3125 0.140625 0.671875q0.03125 0.359375 0 0.6875l-0.015625 0.109375q-0.015625 0.296875 -0.171875 0.71875q-0.15625 0.40625 -0.390625 0.71875q-0.25 0.296875 -0.578125 0.484375q-0.328125 0.1875 -0.765625 0.171875q-0.359375 -0.015625 -0.609375 -0.171875q-0.25 -0.171875 -0.375 -0.4375q-0.15625 -0.3125 -0.203125 -0.6875q-0.03125 -0.390625 0.015625 -0.75zm10.176178 -0.0625l0.015625 -0.109375q0.03125 -0.328125 0.015625 -0.65625q0 -0.328125 -0.0625 -0.640625q-0.0625 -0.3125 -0.203125 -0.578125q-0.125 -0.28125 -0.328125 -0.5q-0.203125 -0.203125 -0.5 -0.328125q-0.28125 -0.125 -0.65625 -0.140625q-0.3125 0 -0.578125 0.0625q-0.265625 0.0625 -0.5 0.203125q-0.15625 0.078125 -0.296875 0.203125q-0.140625 0.109375 -0.265625 0.25l0.09375 -0.625l-0.84375 0.015625l-1.359375 7.796875l0.9375 0l0.515625 -2.71875q0.09375 0.125 0.21875 0.234375q0.125 0.09375 0.25 0.171875q0.21875 0.125 0.46875 0.1875q0.25 0.0625 0.515625 0.0625q0.359375 0 0.65625 -0.09375q0.3125 -0.078125 0.5625 -0.25q0.328125 -0.21875 0.578125 -0.546875q0.265625 -0.34375 0.421875 -0.734375q0.140625 -0.296875 0.21875 -0.625q0.09375 -0.328125 0.125 -0.640625zm-0.921875 -0.109375l-0.015625 0.109375q-0.03125 0.21875 -0.09375 0.46875q-0.0625 0.234375 -0.171875 0.46875q-0.109375 0.25 -0.28125 0.484375q-0.15625 0.234375 -0.375 0.390625q-0.1875 0.140625 -0.421875 0.21875q-0.234375 0.078125 -0.515625 0.078125q-0.1875 -0.015625 -0.359375 -0.0625q-0.171875 -0.046875 -0.3125 -0.140625q-0.140625 -0.09375 -0.25 -0.234375q-0.109375 -0.140625 -0.1875 -0.328125l0.484375 -2.71875q0.109375 -0.140625 0.234375 -0.265625q0.125 -0.140625 0.28125 -0.234375q0.171875 -0.125 0.390625 -0.1875q0.21875 -0.078125 0.46875 -0.078125q0.265625 0.015625 0.453125 0.109375q0.1875 0.078125 0.328125 0.21875q0.09375 0.125 0.15625 0.265625q0.078125 0.140625 0.125 0.328125q0.078125 0.25 0.078125 0.546875q0.015625 0.296875 -0.015625 0.5625zm4.566803 3.0q0.65625 0 1.265625 -0.265625q0.625 -0.28125 1.0 -0.8125l-0.53125 -0.46875q-0.34375 0.34375 -0.765625 0.5625q-0.40625 0.203125 -0.890625 0.1875q-0.375 -0.015625 -0.65625 -0.171875q-0.265625 -0.15625 -0.4375 -0.421875q-0.171875 -0.265625 -0.234375 -0.59375q-0.0625 -0.328125 -0.015625 -0.671875l3.875 0l0.0625 -0.421875q0.0625 -0.515625 -0.015625 -1.0q-0.078125 -0.5 -0.3125 -0.890625q-0.234375 -0.390625 -0.640625 -0.625q-0.390625 -0.234375 -0.96875 -0.25q-0.40625 -0.015625 -0.765625 0.09375q-0.359375 0.109375 -0.671875 0.3125q-0.3125 0.203125 -0.5625 0.484375q-0.25 0.265625 -0.4375 0.59375q-0.1875 0.328125 -0.3125 0.703125q-0.125 0.359375 -0.15625 0.71875l-0.03125 0.21875q-0.046875 0.546875 0.078125 1.03125q0.125 0.484375 0.40625 0.859375q0.28125 0.359375 0.703125 0.59375q0.4375 0.21875 1.015625 0.234375zm0.6875 -5.046875q0.296875 0 0.53125 0.140625q0.234375 0.125 0.375 0.34375q0.140625 0.21875 0.1875 0.484375q0.0625 0.265625 0.015625 0.5625l-0.015625 0.09375l-2.9375 -0.015625q0.109375 -0.296875 0.265625 -0.59375q0.171875 -0.296875 0.40625 -0.53125q0.21875 -0.234375 0.5 -0.359375q0.296875 -0.140625 0.671875 -0.125zm7.598053 -0.8125q-0.3125 0 -0.59375 0.078125q-0.28125 0.0625 -0.53125 0.203125q-0.25 0.125 -0.46875 0.3125q-0.21875 0.1875 -0.421875 0.421875l0.03125 -0.171875l0.125 -0.71875l-0.890625 0l-0.96875 5.625l0.9375 0l0.625 -3.609375q0.171875 -0.3125 0.390625 -0.546875q0.21875 -0.25 0.484375 -0.390625q0.21875 -0.125 0.46875 -0.1875q0.265625 -0.0625 0.5625 -0.0625q0.25 0.015625 0.5 0.046875q0.25 0.03125 0.5 0.09375l0.234375 -0.9375q-0.234375 -0.09375 -0.484375 -0.109375q-0.25 -0.03125 -0.5 -0.046875zm5.379303 5.75l0.953125 0l0.015625 -0.09375q-0.0625 -0.28125 -0.0625 -0.5625q0 -0.28125 0.046875 -0.578125l0.4375 -2.609375q0.046875 -0.453125 -0.09375 -0.796875q-0.125 -0.359375 -0.390625 -0.59375q-0.265625 -0.25 -0.640625 -0.375q-0.359375 -0.125 -0.796875 -0.125q-0.375 -0.015625 -0.78125 0.09375q-0.390625 0.09375 -0.734375 0.3125q-0.328125 0.203125 -0.5625 0.515625q-0.234375 0.3125 -0.28125 0.75l0.953125 -0.015625q0.046875 -0.234375 0.171875 -0.390625q0.140625 -0.171875 0.3125 -0.28125q0.171875 -0.109375 0.390625 -0.15625q0.21875 -0.0625 0.4375 -0.0625q0.265625 0.015625 0.46875 0.09375q0.21875 0.0625 0.359375 0.203125q0.140625 0.140625 0.203125 0.34375q0.078125 0.203125 0.046875 0.46875l-0.0625 0.453125l-1.078125 -0.015625q-0.3125 0 -0.625 0.046875q-0.3125 0.03125 -0.609375 0.125q-0.3125 0.09375 -0.578125 0.25q-0.265625 0.140625 -0.46875 0.34375q-0.203125 0.203125 -0.328125 0.484375q-0.125 0.28125 -0.140625 0.65625q-0.03125 0.375 0.09375 0.671875q0.140625 0.296875 0.375 0.5q0.21875 0.203125 0.53125 0.328125q0.328125 0.109375 0.671875 0.109375q0.34375 0.015625 0.640625 -0.078125q0.296875 -0.078125 0.578125 -0.234375q0.140625 -0.09375 0.265625 -0.1875q0.140625 -0.09375 0.265625 -0.203125q-0.015625 0.15625 -0.015625 0.3125q0 0.140625 0.03125 0.296875zm-1.578125 -0.734375q-0.21875 0 -0.390625 -0.0625q-0.171875 -0.0625 -0.296875 -0.1875q-0.125 -0.109375 -0.1875 -0.28125q-0.0625 -0.171875 -0.03125 -0.390625q0.015625 -0.203125 0.09375 -0.34375q0.078125 -0.15625 0.1875 -0.265625q0.09375 -0.09375 0.203125 -0.15625q0.125 -0.078125 0.25 -0.125q0.28125 -0.125 0.609375 -0.15625q0.328125 -0.03125 0.609375 -0.03125l0.8125 0l-0.203125 1.140625q-0.140625 0.203125 -0.328125 0.359375q-0.171875 0.15625 -0.375 0.265625q-0.21875 0.125 -0.46875 0.1875q-0.234375 0.0625 -0.484375 0.046875zm7.629303 -6.265625l-0.953125 0l-0.234375 1.375l-1.421875 0l-0.140625 0.734375l1.4375 0l-0.5 3.0625q-0.046875 0.390625 0.015625 0.734375q0.078125 0.34375 0.25 0.609375q0.171875 0.265625 0.453125 0.421875q0.296875 0.15625 0.71875 0.15625q0.375 0.015625 0.765625 -0.046875q0.40625 -0.046875 0.734375 -0.234375l-0.078125 -0.6875q-0.28125 0.0625 -0.578125 0.109375q-0.28125 0.046875 -0.5625 0.046875q-0.25 -0.015625 -0.421875 -0.09375q-0.15625 -0.09375 -0.25 -0.234375q-0.078125 -0.15625 -0.109375 -0.34375q-0.03125 -0.203125 0 -0.4375l0.5 -3.0625l2.09375 0l0.125 -0.734375l-2.078125 0l0.234375 -1.375zm3.941803 1.375l-0.140625 0.828125l1.859375 0l-0.6875 3.96875l-1.859375 0l-0.140625 0.828125l4.578125 0l0.140625 -0.828125l-1.78125 0l0.828125 -4.796875l-2.796875 0zm2.0 -1.46875q0 0.25 0.15625 0.40625q0.15625 0.140625 0.40625 0.125q0.25 0 0.40625 -0.15625q0.15625 -0.15625 0.15625 -0.40625q0 -0.25 -0.15625 -0.40625q-0.15625 -0.15625 -0.40625 -0.15625q-0.25 0.015625 -0.40625 0.1875q-0.15625 0.15625 -0.15625 0.40625zm3.379303 4.265625l-0.015625 0.109375q-0.046875 0.390625 -0.015625 0.765625q0.046875 0.359375 0.171875 0.6875q0.078125 0.21875 0.203125 0.421875q0.140625 0.203125 0.296875 0.390625q0.25 0.25 0.609375 0.40625q0.359375 0.140625 0.8125 0.15625q0.609375 0.015625 1.109375 -0.21875q0.5 -0.234375 0.875 -0.640625q0.359375 -0.390625 0.59375 -0.921875q0.234375 -0.53125 0.3125 -1.09375l0 -0.109375q0.046875 -0.375 0 -0.75q-0.03125 -0.375 -0.140625 -0.703125q-0.09375 -0.265625 -0.25 -0.5q-0.15625 -0.234375 -0.34375 -0.40625q-0.234375 -0.21875 -0.578125 -0.34375q-0.34375 -0.140625 -0.765625 -0.15625q-0.59375 -0.015625 -1.078125 0.21875q-0.484375 0.21875 -0.859375 0.59375q-0.390625 0.40625 -0.640625 0.953125q-0.234375 0.546875 -0.296875 1.140625zm0.921875 0.109375l0.015625 -0.109375q0.046875 -0.375 0.1875 -0.75q0.140625 -0.390625 0.375 -0.703125q0.234375 -0.296875 0.5625 -0.484375q0.34375 -0.203125 0.78125 -0.1875q0.40625 0.015625 0.65625 0.21875q0.25 0.203125 0.375 0.5q0.125 0.3125 0.140625 0.671875q0.03125 0.359375 0 0.6875l-0.015625 0.109375q-0.015625 0.296875 -0.171875 0.71875q-0.15625 0.40625 -0.390625 0.71875q-0.25 0.296875 -0.578125 0.484375q-0.328125 0.1875 -0.765625 0.171875q-0.359375 -0.015625 -0.609375 -0.171875q-0.25 -0.171875 -0.375 -0.4375q-0.15625 -0.3125 -0.203125 -0.6875q-0.03125 -0.390625 0.015625 -0.75zm5.082428 2.71875l0.953125 0l0.703125 -4.046875q0.140625 -0.1875 0.296875 -0.34375q0.171875 -0.171875 0.375 -0.28125q0.1875 -0.125 0.40625 -0.1875q0.21875 -0.0625 0.46875 -0.0625q0.3125 0.015625 0.515625 0.125q0.203125 0.09375 0.3125 0.28125q0.109375 0.1875 0.140625 0.4375q0.03125 0.234375 0 0.515625l-0.609375 3.5625l0.953125 0l0.578125 -3.515625q0.0625 -0.421875 0 -0.84375q-0.0625 -0.421875 -0.25 -0.71875q-0.203125 -0.296875 -0.53125 -0.46875q-0.3125 -0.171875 -0.78125 -0.1875q-0.28125 0 -0.546875 0.0625q-0.25 0.0625 -0.484375 0.1875q-0.21875 0.125 -0.421875 0.3125q-0.203125 0.171875 -0.375 0.375l0.125 -0.84375l-0.84375 0.015625l-0.984375 5.625zm10.176178 -1.53125q-0.03125 0.25 -0.1875 0.421875q-0.140625 0.15625 -0.34375 0.25q-0.21875 0.09375 -0.453125 0.140625q-0.234375 0.046875 -0.4375 0.03125q-0.25 0 -0.484375 -0.0625q-0.21875 -0.0625 -0.375 -0.1875q-0.171875 -0.125 -0.28125 -0.328125q-0.09375 -0.203125 -0.09375 -0.46875l-0.9375 0q-0.015625 0.453125 0.15625 0.796875q0.1875 0.328125 0.5 0.5625q0.296875 0.234375 0.6875 0.359375q0.390625 0.109375 0.796875 0.125q0.390625 0 0.8125 -0.09375q0.421875 -0.09375 0.765625 -0.296875q0.34375 -0.203125 0.5625 -0.53125q0.234375 -0.328125 0.25 -0.78125q0.015625 -0.265625 -0.0625 -0.484375q-0.078125 -0.21875 -0.21875 -0.375q-0.140625 -0.171875 -0.34375 -0.28125q-0.1875 -0.125 -0.40625 -0.21875q-0.21875 -0.09375 -0.453125 -0.15625q-0.21875 -0.078125 -0.4375 -0.125q-0.171875 -0.03125 -0.375 -0.078125q-0.203125 -0.0625 -0.375 -0.15625q-0.171875 -0.078125 -0.28125 -0.21875q-0.109375 -0.15625 -0.078125 -0.390625q0.03125 -0.234375 0.171875 -0.390625q0.140625 -0.171875 0.328125 -0.28125q0.1875 -0.09375 0.40625 -0.140625q0.21875 -0.046875 0.4375 -0.046875q0.21875 0 0.40625 0.0625q0.203125 0.0625 0.359375 0.1875q0.15625 0.125 0.234375 0.3125q0.09375 0.171875 0.09375 0.40625l0.9375 0q0 -0.4375 -0.15625 -0.75q-0.15625 -0.328125 -0.4375 -0.5625q-0.28125 -0.21875 -0.65625 -0.328125q-0.359375 -0.109375 -0.75 -0.125q-0.34375 0 -0.6875 0.078125q-0.328125 0.078125 -0.65625 0.234375q-0.375 0.1875 -0.65625 0.546875q-0.28125 0.359375 -0.296875 0.828125q-0.015625 0.390625 0.15625 0.671875q0.171875 0.265625 0.453125 0.453125q0.25 0.15625 0.53125 0.265625q0.296875 0.09375 0.578125 0.171875q0.171875 0.046875 0.359375 0.09375q0.1875 0.046875 0.375 0.125q0.125 0.046875 0.234375 0.109375q0.109375 0.0625 0.1875 0.140625q0.078125 0.09375 0.125 0.21875q0.046875 0.109375 0.015625 0.265625z" fill-rule="nonzero"/><path fill="#000000" d="m22.317421 136.69315l0 -2.21875l-0.953125 0l0 2.21875l-2.109375 0l0 0.953125l2.109375 0l0 2.34375l0.953125 0l0 -2.34375l2.125 0l0 -0.953125l-2.125 0zm12.289581 -2.9375l-0.96875 0l0 1.375l-1.484375 0l0 0.734375l1.484375 0l0 3.0625q0 0.515625 0.140625 0.890625q0.140625 0.359375 0.375 0.59375q0.234375 0.234375 0.5625 0.34375q0.328125 0.109375 0.703125 0.109375q0.21875 0 0.4375 -0.03125q0.234375 -0.015625 0.4375 -0.0625q0.203125 -0.03125 0.375 -0.078125q0.171875 -0.0625 0.296875 -0.140625l-0.140625 -0.671875q-0.09375 0.015625 -0.234375 0.046875q-0.125 0.03125 -0.28125 0.046875q-0.171875 0.03125 -0.34375 0.046875q-0.15625 0.015625 -0.3125 0.015625q-0.21875 0 -0.40625 -0.046875q-0.1875 -0.046875 -0.328125 -0.1875q-0.15625 -0.125 -0.234375 -0.328125q-0.078125 -0.21875 -0.078125 -0.546875l0 -3.0625l2.140625 0l0 -0.734375l-2.140625 0l0 -1.375zm3.8479156 4.140625l0 0.109375q0 0.609375 0.171875 1.125q0.171875 0.515625 0.515625 0.90625q0.328125 0.390625 0.796875 0.609375q0.484375 0.21875 1.078125 0.21875q0.59375 0 1.0625 -0.21875q0.46875 -0.21875 0.8125 -0.609375q0.328125 -0.390625 0.5 -0.90625q0.171875 -0.515625 0.171875 -1.125l0 -0.109375q0 -0.609375 -0.171875 -1.125q-0.171875 -0.53125 -0.5 -0.921875q-0.34375 -0.390625 -0.828125 -0.609375q-0.46875 -0.21875 -1.0625 -0.21875q-0.59375 0 -1.0625 0.21875q-0.46875 0.21875 -0.796875 0.609375q-0.34375 0.390625 -0.515625 0.921875q-0.171875 0.515625 -0.171875 1.125zm0.953125 0.109375l0 -0.109375q0 -0.421875 0.09375 -0.796875q0.109375 -0.375 0.3125 -0.65625q0.203125 -0.296875 0.484375 -0.453125q0.296875 -0.171875 0.703125 -0.171875q0.40625 0 0.703125 0.171875q0.296875 0.15625 0.5 0.453125q0.203125 0.28125 0.296875 0.65625q0.109375 0.375 0.109375 0.796875l0 0.109375q0 0.40625 -0.109375 0.796875q-0.09375 0.375 -0.296875 0.65625q-0.203125 0.28125 -0.5 0.453125q-0.296875 0.171875 -0.6875 0.171875q-0.40625 0 -0.703125 -0.171875q-0.296875 -0.171875 -0.5 -0.453125q-0.203125 -0.28125 -0.3125 -0.65625q-0.09375 -0.390625 -0.09375 -0.796875zm5.5354156 -0.109375l0 0.109375q0 0.59375 0.15625 1.125q0.15625 0.515625 0.4375 0.90625q0.296875 0.390625 0.703125 0.609375q0.421875 0.21875 0.9375 0.21875q0.296875 0 0.5625 -0.078125q0.265625 -0.0625 0.484375 -0.171875q0.140625 -0.078125 0.265625 -0.1875q0.125 -0.109375 0.234375 -0.234375l0 0.484375q0 0.375 -0.109375 0.65625q-0.09375 0.28125 -0.296875 0.46875q-0.1875 0.1875 -0.46875 0.28125q-0.28125 0.109375 -0.625 0.109375q-0.1875 0 -0.375 -0.046875q-0.1875 -0.03125 -0.390625 -0.125q-0.1875 -0.09375 -0.375 -0.25q-0.1875 -0.140625 -0.359375 -0.34375l-0.5 0.578125q0.1875 0.265625 0.453125 0.453125q0.265625 0.1875 0.5625 0.296875q0.28125 0.125 0.5625 0.171875q0.28125 0.046875 0.5 0.046875q0.53125 0 0.96875 -0.15625q0.4375 -0.15625 0.75 -0.453125q0.3125 -0.3125 0.484375 -0.75q0.1875 -0.421875 0.1875 -0.984375l0 -5.5l-0.875 0l-0.046875 0.609375q-0.109375 -0.125 -0.21875 -0.21875q-0.109375 -0.109375 -0.234375 -0.1875q-0.234375 -0.15625 -0.515625 -0.234375q-0.28125 -0.078125 -0.625 -0.078125q-0.515625 0 -0.9375 0.21875q-0.40625 0.203125 -0.703125 0.59375q-0.296875 0.375 -0.453125 0.90625q-0.140625 0.53125 -0.140625 1.15625zm0.953125 0.109375l0 -0.109375q0 -0.40625 0.078125 -0.78125q0.09375 -0.375 0.28125 -0.65625q0.1875 -0.28125 0.46875 -0.453125q0.296875 -0.171875 0.703125 -0.171875q0.234375 0 0.421875 0.0625q0.203125 0.0625 0.375 0.171875q0.15625 0.109375 0.28125 0.25q0.125 0.140625 0.21875 0.328125l0 2.578125q-0.09375 0.171875 -0.21875 0.328125q-0.125 0.15625 -0.28125 0.265625q-0.15625 0.109375 -0.359375 0.171875q-0.203125 0.046875 -0.453125 0.046875q-0.40625 0 -0.6875 -0.15625q-0.28125 -0.171875 -0.46875 -0.453125q-0.1875 -0.28125 -0.28125 -0.640625q-0.078125 -0.375 -0.078125 -0.78125zm5.4416656 -0.109375l0 0.109375q0 0.59375 0.15625 1.125q0.15625 0.515625 0.4375 0.90625q0.296875 0.390625 0.703125 0.609375q0.421875 0.21875 0.9375 0.21875q0.296875 0 0.5625 -0.078125q0.265625 -0.0625 0.484375 -0.171875q0.140625 -0.078125 0.265625 -0.1875q0.125 -0.109375 0.234375 -0.234375l0 0.484375q0 0.375 -0.109375 0.65625q-0.09375 0.28125 -0.296875 0.46875q-0.1875 0.1875 -0.46875 0.28125q-0.28125 0.109375 -0.625 0.109375q-0.1875 0 -0.375 -0.046875q-0.1875 -0.03125 -0.390625 -0.125q-0.1875 -0.09375 -0.375 -0.25q-0.1875 -0.140625 -0.359375 -0.34375l-0.5 0.578125q0.1875 0.265625 0.453125 0.453125q0.265625 0.1875 0.5625 0.296875q0.28125 0.125 0.5625 0.171875q0.28125 0.046875 0.5 0.046875q0.53125 0 0.96875 -0.15625q0.4375 -0.15625 0.75 -0.453125q0.3125 -0.3125 0.484375 -0.75q0.1875 -0.421875 0.1875 -0.984375l0 -5.5l-0.875 0l-0.046875 0.609375q-0.109375 -0.125 -0.21875 -0.21875q-0.109375 -0.109375 -0.234375 -0.1875q-0.234375 -0.15625 -0.515625 -0.234375q-0.28125 -0.078125 -0.625 -0.078125q-0.515625 0 -0.9375 0.21875q-0.40625 0.203125 -0.703125 0.59375q-0.296875 0.375 -0.453125 0.90625q-0.140625 0.53125 -0.140625 1.15625zm0.953125 0.109375l0 -0.109375q0 -0.40625 0.078125 -0.78125q0.09375 -0.375 0.28125 -0.65625q0.1875 -0.28125 0.46875 -0.453125q0.296875 -0.171875 0.703125 -0.171875q0.234375 0 0.421875 0.0625q0.203125 0.0625 0.375 0.171875q0.15625 0.109375 0.28125 0.25q0.125 0.140625 0.21875 0.328125l0 2.578125q-0.09375 0.171875 -0.21875 0.328125q-0.125 0.15625 -0.28125 0.265625q-0.15625 0.109375 -0.359375 0.171875q-0.203125 0.046875 -0.453125 0.046875q-0.40625 0 -0.6875 -0.15625q-0.28125 -0.171875 -0.46875 -0.453125q-0.1875 -0.28125 -0.28125 -0.640625q-0.078125 -0.375 -0.078125 -0.78125zm5.7697906 -5.25l0 0.84375l1.90625 0l0 6.328125l-1.90625 0l0 0.828125l4.703125 0l0 -0.828125l-1.828125 0l0 -7.171875l-2.875 0zm8.722916 8.109375q0.828125 0 1.375 -0.328125q0.5625 -0.34375 0.84375 -0.765625l-0.578125 -0.453125q-0.265625 0.34375 -0.671875 0.546875q-0.40625 0.203125 -0.921875 0.203125q-0.390625 0 -0.71875 -0.140625q-0.3125 -0.140625 -0.53125 -0.40625q-0.234375 -0.234375 -0.359375 -0.546875q-0.125 -0.3125 -0.15625 -0.71875l0 -0.046875l4.015625 0l0 -0.421875q0 -0.59375 -0.15625 -1.09375q-0.140625 -0.5 -0.4375 -0.875q-0.3125 -0.375 -0.765625 -0.578125q-0.453125 -0.21875 -1.0625 -0.21875q-0.484375 0 -0.953125 0.203125q-0.453125 0.1875 -0.8125 0.5625q-0.359375 0.375 -0.578125 0.921875q-0.21875 0.53125 -0.21875 1.21875l0 0.203125q0 0.59375 0.1875 1.09375q0.203125 0.5 0.5625 0.859375q0.359375 0.375 0.84375 0.578125q0.5 0.203125 1.09375 0.203125zm-0.125 -5.046875q0.375 0 0.640625 0.140625q0.265625 0.125 0.4375 0.34375q0.1875 0.21875 0.28125 0.515625q0.09375 0.296875 0.09375 0.5625l0 0.046875l-3.015625 0q0.046875 -0.390625 0.1875 -0.6875q0.15625 -0.296875 0.359375 -0.515625q0.203125 -0.203125 0.453125 -0.296875q0.265625 -0.109375 0.5625 -0.109375zm4.9885406 1.859375l0 0.0625q0 0.734375 0.109375 1.390625q0.125 0.65625 0.328125 1.21875q0.1875 0.5625 0.4375 1.015625q0.265625 0.46875 0.546875 0.828125q0.28125 0.359375 0.5625 0.609375q0.296875 0.25 0.5625 0.40625l0.203125 -0.59375q-0.21875 -0.171875 -0.4375 -0.421875q-0.203125 -0.234375 -0.40625 -0.546875q-0.1875 -0.328125 -0.375 -0.75q-0.171875 -0.40625 -0.296875 -0.890625q-0.125 -0.484375 -0.203125 -1.046875q-0.078125 -0.5625 -0.078125 -1.21875l0 -0.0625q0 -0.6875 0.078125 -1.265625q0.078125 -0.59375 0.21875 -1.078125q0.15625 -0.546875 0.375 -1.0q0.21875 -0.453125 0.453125 -0.796875q0.15625 -0.21875 0.328125 -0.390625q0.171875 -0.1875 0.34375 -0.3125l-0.203125 -0.625q-0.265625 0.140625 -0.5625 0.40625q-0.28125 0.25 -0.5625 0.609375q-0.28125 0.359375 -0.546875 0.828125q-0.25 0.453125 -0.4375 1.015625q-0.203125 0.5625 -0.328125 1.21875q-0.109375 0.65625 -0.109375 1.390625zm8.957291 0.0625l0 -0.0625q0 -0.796875 -0.125 -1.421875q-0.125 -0.640625 -0.3125 -1.1875q-0.1875 -0.578125 -0.453125 -1.03125q-0.25 -0.453125 -0.546875 -0.8125q-0.28125 -0.359375 -0.578125 -0.609375q-0.28125 -0.265625 -0.53125 -0.40625l-0.203125 0.578125q0.171875 0.140625 0.34375 0.34375q0.1875 0.203125 0.359375 0.46875q0.21875 0.34375 0.421875 0.796875q0.21875 0.453125 0.375 1.03125q0.109375 0.390625 0.1875 0.96875q0.09375 0.578125 0.09375 1.28125l0 0.0625q0 0.625 -0.078125 1.171875q-0.0625 0.53125 -0.171875 1.0q-0.125 0.515625 -0.3125 0.9375q-0.171875 0.421875 -0.359375 0.765625q-0.203125 0.328125 -0.421875 0.578125q-0.21875 0.265625 -0.4375 0.421875l0.203125 0.59375q0.25 -0.15625 0.53125 -0.40625q0.296875 -0.25 0.578125 -0.609375q0.28125 -0.359375 0.53125 -0.828125q0.265625 -0.453125 0.46875 -1.015625q0.203125 -0.5625 0.3125 -1.21875q0.125 -0.65625 0.125 -1.390625zm4.8166656 2.390625q0 0.296875 0.1875 0.515625q0.1875 0.203125 0.5625 0.203125q0.375 0 0.5625 -0.203125q0.203125 -0.203125 0.203125 -0.515625q0 -0.3125 -0.203125 -0.53125q-0.1875 -0.21875 -0.5625 -0.21875q-0.375 0 -0.5625 0.21875q-0.1875 0.21875 -0.1875 0.53125zm0 -4.5625q0 0.296875 0.1875 0.515625q0.1875 0.203125 0.5625 0.203125q0.375 0 0.5625 -0.203125q0.203125 -0.203125 0.203125 -0.515625q0 -0.3125 -0.203125 -0.53125q-0.1875 -0.21875 -0.5625 -0.21875q-0.375 0 -0.5625 0.21875q-0.1875 0.21875 -0.1875 0.53125zm12.773956 5.1875l0.734375 0l2.296875 -5.625l-0.984375 0l-1.578125 4.234375l-0.09375 0.359375l-0.09375 -0.359375l-1.609375 -4.234375l-0.984375 0l2.3125 5.625zm4.2072906 -2.859375l0 0.109375q0 0.609375 0.171875 1.125q0.171875 0.515625 0.515625 0.90625q0.328125 0.390625 0.796875 0.609375q0.484375 0.21875 1.078125 0.21875q0.59375 0 1.0625 -0.21875q0.46875 -0.21875 0.8125 -0.609375q0.328125 -0.390625 0.5 -0.90625q0.171875 -0.515625 0.171875 -1.125l0 -0.109375q0 -0.609375 -0.171875 -1.125q-0.171875 -0.53125 -0.5 -0.921875q-0.34375 -0.390625 -0.828125 -0.609375q-0.46875 -0.21875 -1.0625 -0.21875q-0.59375 0 -1.0625 0.21875q-0.46875 0.21875 -0.796875 0.609375q-0.34375 0.390625 -0.515625 0.921875q-0.171875 0.515625 -0.171875 1.125zm0.953125 0.109375l0 -0.109375q0 -0.421875 0.09375 -0.796875q0.109375 -0.375 0.3125 -0.65625q0.203125 -0.296875 0.484375 -0.453125q0.296875 -0.171875 0.703125 -0.171875q0.40625 0 0.703125 0.171875q0.296875 0.15625 0.5 0.453125q0.203125 0.28125 0.296875 0.65625q0.109375 0.375 0.109375 0.796875l0 0.109375q0 0.40625 -0.109375 0.796875q-0.09375 0.375 -0.296875 0.65625q-0.203125 0.28125 -0.5 0.453125q-0.296875 0.171875 -0.6875 0.171875q-0.40625 0 -0.703125 -0.171875q-0.296875 -0.171875 -0.5 -0.453125q-0.203125 -0.28125 -0.3125 -0.65625q-0.09375 -0.390625 -0.09375 -0.796875zm5.8635406 -2.875l0 0.828125l1.90625 0l0 3.96875l-1.90625 0l0 0.828125l4.703125 0l0 -0.828125l-1.828125 0l0 -4.796875l-2.875 0zm1.78125 -1.484375q0 0.234375 0.140625 0.390625q0.140625 0.15625 0.4375 0.15625q0.28125 0 0.421875 -0.15625q0.15625 -0.15625 0.15625 -0.390625q0 -0.125 -0.046875 -0.234375q-0.03125 -0.109375 -0.125 -0.1875q-0.0625 -0.0625 -0.171875 -0.09375q-0.09375 -0.046875 -0.234375 -0.046875q-0.140625 0 -0.25 0.046875q-0.09375 0.03125 -0.171875 0.09375q-0.078125 0.078125 -0.125 0.1875q-0.03125 0.109375 -0.03125 0.234375zm4.2697906 4.25l0 0.109375q0 0.59375 0.15625 1.125q0.171875 0.515625 0.46875 0.90625q0.28125 0.390625 0.6875 0.609375q0.421875 0.21875 0.9375 0.21875q0.515625 0 0.90625 -0.171875q0.390625 -0.1875 0.671875 -0.53125l0.046875 0.59375l0.875 0l0 -8.0l-0.953125 0l0 2.921875q-0.28125 -0.3125 -0.65625 -0.484375q-0.375 -0.171875 -0.890625 -0.171875q-0.5 0 -0.921875 0.21875q-0.421875 0.203125 -0.703125 0.59375q-0.296875 0.375 -0.46875 0.90625q-0.15625 0.53125 -0.15625 1.15625zm0.96875 0.109375l0 -0.109375q0 -0.40625 0.078125 -0.78125q0.09375 -0.375 0.28125 -0.65625q0.1875 -0.28125 0.46875 -0.453125q0.296875 -0.171875 0.703125 -0.171875q0.46875 0 0.78125 0.234375q0.328125 0.21875 0.515625 0.5625l0 2.609375q-0.1875 0.359375 -0.515625 0.578125q-0.3125 0.21875 -0.796875 0.21875q-0.40625 0 -0.6875 -0.15625q-0.28125 -0.171875 -0.46875 -0.453125q-0.1875 -0.28125 -0.28125 -0.640625q-0.078125 -0.375 -0.078125 -0.78125z" fill-rule="nonzero"/><path fill="#000000" fill-opacity="0.0" d="m253.4462 9.065617l183.93701 0l0 39.11811l-183.93701 0z" fill-rule="evenodd"/><path stroke="#000000" stroke-width="3.0" stroke-linejoin="round" stroke-linecap="butt" d="m253.4462 9.065617l183.93701 0l0 39.11811l-183.93701 0z" fill-rule="evenodd"/><path fill="#000000" d="m332.23083 31.940296l0 -7.984375l-1.84375 0l0 9.46875l6.28125 0l0 -1.484375l-4.4375 0zm10.498169 1.484375l1.84375 0l0 -0.109375q-0.140625 -0.265625 -0.21875 -0.640625q-0.0625 -0.375 -0.0625 -0.9375l0 -3.015625q0 -0.609375 -0.234375 -1.078125q-0.21875 -0.46875 -0.625 -0.765625q-0.40625 -0.3125 -0.953125 -0.46875q-0.546875 -0.15625 -1.1875 -0.15625q-0.71875 0 -1.265625 0.1875q-0.546875 0.171875 -0.921875 0.46875q-0.390625 0.3125 -0.59375 0.71875q-0.1875 0.40625 -0.1875 0.84375l1.8125 0q0 -0.1875 0.046875 -0.34375q0.0625 -0.15625 0.171875 -0.265625q0.140625 -0.125 0.34375 -0.1875q0.203125 -0.0625 0.5 -0.0625q0.3125 0 0.5625 0.078125q0.25 0.078125 0.40625 0.234375q0.15625 0.140625 0.234375 0.34375q0.078125 0.1875 0.078125 0.4375l0 0.421875l-1.015625 0q-0.765625 0 -1.375 0.140625q-0.609375 0.140625 -1.015625 0.40625q-0.453125 0.28125 -0.6875 0.734375q-0.21875 0.453125 -0.21875 1.046875q0 0.453125 0.171875 0.84375q0.1875 0.390625 0.515625 0.65625q0.328125 0.28125 0.78125 0.4375q0.453125 0.15625 0.984375 0.15625q0.34375 0 0.625 -0.0625q0.28125 -0.0625 0.53125 -0.171875q0.234375 -0.09375 0.421875 -0.234375q0.203125 -0.15625 0.34375 -0.3125q0.03125 0.1875 0.078125 0.359375q0.046875 0.171875 0.109375 0.296875zm-1.71875 -1.265625q-0.25 0 -0.453125 -0.0625q-0.1875 -0.0625 -0.3125 -0.171875q-0.140625 -0.109375 -0.203125 -0.265625q-0.0625 -0.15625 -0.0625 -0.34375q0 -0.25 0.078125 -0.453125q0.09375 -0.203125 0.28125 -0.359375q0.203125 -0.140625 0.5 -0.21875q0.296875 -0.078125 0.71875 -0.078125l0.921875 0l0 1.203125q-0.078125 0.140625 -0.21875 0.28125q-0.125 0.125 -0.328125 0.234375q-0.1875 0.09375 -0.421875 0.171875q-0.234375 0.0625 -0.5 0.0625zm6.4513245 -5.78125l-1.5625 0l0 7.046875l1.65625 0l0 -5.265625q0.03125 -0.09375 0.0625 -0.15625q0.046875 -0.078125 0.09375 -0.125q0.078125 -0.078125 0.15625 -0.109375q0.09375 -0.046875 0.21875 -0.046875q0.09375 0 0.1875 0.03125q0.09375 0.03125 0.171875 0.09375q0.0625 0.078125 0.09375 0.21875q0.046875 0.125 0.046875 0.328125l0 5.03125l1.59375 0l0 -5.1875q0 -0.078125 0 -0.125q0 -0.046875 0 -0.0625q0.03125 -0.078125 0.078125 -0.125q0.046875 -0.0625 0.109375 -0.109375q0.0625 -0.046875 0.140625 -0.0625q0.09375 -0.03125 0.1875 -0.03125q0.09375 0 0.1875 0.03125q0.109375 0.03125 0.171875 0.09375q0.078125 0.078125 0.109375 0.21875q0.046875 0.125 0.046875 0.328125l0 5.03125l1.640625 0l0 -5.03125q0 -0.578125 -0.109375 -0.984375q-0.109375 -0.40625 -0.3125 -0.671875q-0.203125 -0.25 -0.484375 -0.359375q-0.28125 -0.125 -0.59375 -0.125q-0.25 0 -0.46875 0.0625q-0.21875 0.0625 -0.390625 0.1875q-0.125 0.09375 -0.25 0.21875q-0.109375 0.125 -0.203125 0.28125q-0.0625 -0.171875 -0.140625 -0.296875q-0.078125 -0.125 -0.1875 -0.21875q-0.140625 -0.109375 -0.34375 -0.171875q-0.1875 -0.0625 -0.4375 -0.0625q-0.515625 0 -0.875 0.265625q-0.34375 0.265625 -0.546875 0.71875l-0.046875 -0.859375zm6.888794 9.75l1.8125 0l0 -3.3125q0.125 0.140625 0.265625 0.25q0.140625 0.109375 0.28125 0.203125q0.25 0.140625 0.546875 0.203125q0.296875 0.078125 0.65625 0.078125q0.65625 0 1.171875 -0.265625q0.515625 -0.28125 0.875 -0.75q0.34375 -0.484375 0.515625 -1.140625q0.1875 -0.65625 0.1875 -1.421875l0 -0.140625q0 -0.796875 -0.1875 -1.453125q-0.171875 -0.671875 -0.53125 -1.140625q-0.34375 -0.46875 -0.859375 -0.71875q-0.515625 -0.265625 -1.1875 -0.265625q-0.328125 0 -0.609375 0.078125q-0.28125 0.0625 -0.515625 0.1875q-0.203125 0.09375 -0.375 0.234375q-0.15625 0.140625 -0.296875 0.3125l-0.078125 -0.6875l-1.671875 0l0 9.75zm4.5 -6.296875l0 0.140625q0 0.4375 -0.078125 0.828125q-0.078125 0.375 -0.25 0.671875q-0.171875 0.296875 -0.4375 0.46875q-0.265625 0.15625 -0.65625 0.15625q-0.234375 0 -0.4375 -0.046875q-0.1875 -0.046875 -0.34375 -0.140625q-0.15625 -0.09375 -0.28125 -0.21875q-0.109375 -0.140625 -0.203125 -0.3125l0 -2.9375q0.09375 -0.1875 0.21875 -0.328125q0.125 -0.140625 0.296875 -0.21875q0.15625 -0.078125 0.328125 -0.125q0.1875 -0.046875 0.40625 -0.046875q0.390625 0 0.65625 0.171875q0.265625 0.15625 0.453125 0.4375q0.15625 0.28125 0.234375 0.671875q0.09375 0.390625 0.09375 0.828125z" fill-rule="nonzero"/><path fill="#000000" fill-opacity="0.0" d="m253.4462 102.24672l183.93701 0l0 56.53543l-183.93701 0z" fill-rule="evenodd"/><path stroke="#000000" stroke-width="2.0" stroke-linejoin="round" stroke-linecap="butt" d="m253.4462 102.24672l183.93701 0l0 56.53543l-183.93701 0z" fill-rule="evenodd"/><path fill="#000000" d="m263.93057 121.91068l4.484375 -8.234375l-0.875 0l-4.5 8.234375l0.890625 0zm6.254303 0l4.484375 -8.234375l-0.875 0l-4.5 8.234375l0.890625 0zm11.602356 -3.484375l-0.015625 0.109375q-0.046875 0.390625 -0.015625 0.765625q0.046875 0.359375 0.171875 0.6875q0.078125 0.21875 0.203125 0.421875q0.140625 0.203125 0.296875 0.390625q0.25 0.25 0.609375 0.40625q0.359375 0.140625 0.8125 0.15625q0.609375 0.015625 1.109375 -0.21875q0.5 -0.234375 0.875 -0.640625q0.359375 -0.390625 0.59375 -0.921875q0.234375 -0.53125 0.3125 -1.09375l0 -0.109375q0.046875 -0.375 0 -0.75q-0.03125 -0.375 -0.140625 -0.703125q-0.09375 -0.265625 -0.25 -0.5q-0.15625 -0.234375 -0.34375 -0.40625q-0.234375 -0.21875 -0.578125 -0.34375q-0.34375 -0.140625 -0.765625 -0.15625q-0.59375 -0.015625 -1.078125 0.21875q-0.484375 0.21875 -0.859375 0.59375q-0.390625 0.40625 -0.640625 0.953125q-0.234375 0.546875 -0.296875 1.140625zm0.921875 0.109375l0.015625 -0.109375q0.046875 -0.375 0.1875 -0.75q0.140625 -0.390625 0.375 -0.703125q0.234375 -0.296875 0.5625 -0.484375q0.34375 -0.203125 0.78125 -0.1875q0.40625 0.015625 0.65625 0.21875q0.25 0.203125 0.375 0.5q0.125 0.3125 0.140625 0.671875q0.03125 0.359375 0 0.6875l-0.015625 0.109375q-0.015625 0.296875 -0.171875 0.71875q-0.15625 0.40625 -0.390625 0.71875q-0.25 0.296875 -0.578125 0.484375q-0.328125 0.1875 -0.765625 0.171875q-0.359375 -0.015625 -0.609375 -0.171875q-0.25 -0.171875 -0.375 -0.4375q-0.15625 -0.3125 -0.203125 -0.6875q-0.03125 -0.390625 0.015625 -0.75zm10.176178 -0.0625l0.015625 -0.109375q0.03125 -0.328125 0.015625 -0.65625q0 -0.328125 -0.0625 -0.640625q-0.0625 -0.3125 -0.203125 -0.578125q-0.125 -0.28125 -0.328125 -0.5q-0.203125 -0.203125 -0.5 -0.328125q-0.28125 -0.125 -0.65625 -0.140625q-0.3125 0 -0.578125 0.0625q-0.265625 0.0625 -0.5 0.203125q-0.15625 0.078125 -0.296875 0.203125q-0.140625 0.109375 -0.265625 0.25l0.09375 -0.625l-0.84375 0.015625l-1.359375 7.796875l0.9375 0l0.515625 -2.71875q0.09375 0.125 0.21875 0.234375q0.125 0.09375 0.25 0.171875q0.21875 0.125 0.46875 0.1875q0.25 0.0625 0.515625 0.0625q0.359375 0 0.65625 -0.09375q0.3125 -0.078125 0.5625 -0.25q0.328125 -0.21875 0.578125 -0.546875q0.265625 -0.34375 0.421875 -0.734375q0.140625 -0.296875 0.21875 -0.625q0.09375 -0.328125 0.125 -0.640625zm-0.921875 -0.109375l-0.015625 0.109375q-0.03125 0.21875 -0.09375 0.46875q-0.0625 0.234375 -0.171875 0.46875q-0.109375 0.25 -0.28125 0.484375q-0.15625 0.234375 -0.375 0.390625q-0.1875 0.140625 -0.421875 0.21875q-0.234375 0.078125 -0.515625 0.078125q-0.1875 -0.015625 -0.359375 -0.0625q-0.171875 -0.046875 -0.3125 -0.140625q-0.140625 -0.09375 -0.25 -0.234375q-0.109375 -0.140625 -0.1875 -0.328125l0.484375 -2.71875q0.109375 -0.140625 0.234375 -0.265625q0.125 -0.140625 0.28125 -0.234375q0.171875 -0.125 0.390625 -0.1875q0.21875 -0.078125 0.46875 -0.078125q0.265625 0.015625 0.453125 0.109375q0.1875 0.078125 0.328125 0.21875q0.09375 0.125 0.15625 0.265625q0.078125 0.140625 0.125 0.328125q0.078125 0.25 0.078125 0.546875q0.015625 0.296875 -0.015625 0.5625zm4.566803 3.0q0.65625 0 1.265625 -0.265625q0.625 -0.28125 1.0 -0.8125l-0.53125 -0.46875q-0.34375 0.34375 -0.765625 0.5625q-0.40625 0.203125 -0.890625 0.1875q-0.375 -0.015625 -0.65625 -0.171875q-0.265625 -0.15625 -0.4375 -0.421875q-0.171875 -0.265625 -0.234375 -0.59375q-0.0625 -0.328125 -0.015625 -0.671875l3.875 0l0.0625 -0.421875q0.0625 -0.515625 -0.015625 -1.0q-0.078125 -0.5 -0.3125 -0.890625q-0.234375 -0.390625 -0.640625 -0.625q-0.390625 -0.234375 -0.96875 -0.25q-0.40625 -0.015625 -0.765625 0.09375q-0.359375 0.109375 -0.671875 0.3125q-0.3125 0.203125 -0.5625 0.484375q-0.25 0.265625 -0.4375 0.59375q-0.1875 0.328125 -0.3125 0.703125q-0.125 0.359375 -0.15625 0.71875l-0.03125 0.21875q-0.046875 0.546875 0.078125 1.03125q0.125 0.484375 0.40625 0.859375q0.28125 0.359375 0.703125 0.59375q0.4375 0.21875 1.015625 0.234375zm0.6875 -5.046875q0.296875 0 0.53125 0.140625q0.234375 0.125 0.375 0.34375q0.140625 0.21875 0.1875 0.484375q0.0625 0.265625 0.015625 0.5625l-0.015625 0.09375l-2.9375 -0.015625q0.109375 -0.296875 0.265625 -0.59375q0.171875 -0.296875 0.40625 -0.53125q0.21875 -0.234375 0.5 -0.359375q0.296875 -0.140625 0.671875 -0.125zm7.598053 -0.8125q-0.3125 0 -0.59375 0.078125q-0.28125 0.0625 -0.53125 0.203125q-0.25 0.125 -0.46875 0.3125q-0.21875 0.1875 -0.421875 0.421875l0.03125 -0.171875l0.125 -0.71875l-0.890625 0l-0.96875 5.625l0.9375 0l0.625 -3.609375q0.171875 -0.3125 0.390625 -0.546875q0.21875 -0.25 0.484375 -0.390625q0.21875 -0.125 0.46875 -0.1875q0.265625 -0.0625 0.5625 -0.0625q0.25 0.015625 0.5 0.046875q0.25 0.03125 0.5 0.09375l0.234375 -0.9375q-0.234375 -0.09375 -0.484375 -0.109375q-0.25 -0.03125 -0.5 -0.046875zm5.379303 5.75l0.953125 0l0.015625 -0.09375q-0.0625 -0.28125 -0.0625 -0.5625q0 -0.28125 0.046875 -0.578125l0.4375 -2.609375q0.046875 -0.453125 -0.09375 -0.796875q-0.125 -0.359375 -0.390625 -0.59375q-0.265625 -0.25 -0.640625 -0.375q-0.359375 -0.125 -0.796875 -0.125q-0.375 -0.015625 -0.78125 0.09375q-0.390625 0.09375 -0.734375 0.3125q-0.328125 0.203125 -0.5625 0.515625q-0.234375 0.3125 -0.28125 0.75l0.953125 -0.015625q0.046875 -0.234375 0.171875 -0.390625q0.140625 -0.171875 0.3125 -0.28125q0.171875 -0.109375 0.390625 -0.15625q0.21875 -0.0625 0.4375 -0.0625q0.265625 0.015625 0.46875 0.09375q0.21875 0.0625 0.359375 0.203125q0.140625 0.140625 0.203125 0.34375q0.078125 0.203125 0.046875 0.46875l-0.0625 0.453125l-1.078125 -0.015625q-0.3125 0 -0.625 0.046875q-0.3125 0.03125 -0.609375 0.125q-0.3125 0.09375 -0.578125 0.25q-0.265625 0.140625 -0.46875 0.34375q-0.203125 0.203125 -0.328125 0.484375q-0.125 0.28125 -0.140625 0.65625q-0.03125 0.375 0.09375 0.671875q0.140625 0.296875 0.375 0.5q0.21875 0.203125 0.53125 0.328125q0.328125 0.109375 0.671875 0.109375q0.34375 0.015625 0.640625 -0.078125q0.296875 -0.078125 0.578125 -0.234375q0.140625 -0.09375 0.265625 -0.1875q0.140625 -0.09375 0.265625 -0.203125q-0.015625 0.15625 -0.015625 0.3125q0 0.140625 0.03125 0.296875zm-1.578125 -0.734375q-0.21875 0 -0.390625 -0.0625q-0.171875 -0.0625 -0.296875 -0.1875q-0.125 -0.109375 -0.1875 -0.28125q-0.0625 -0.171875 -0.03125 -0.390625q0.015625 -0.203125 0.09375 -0.34375q0.078125 -0.15625 0.1875 -0.265625q0.09375 -0.09375 0.203125 -0.15625q0.125 -0.078125 0.25 -0.125q0.28125 -0.125 0.609375 -0.15625q0.328125 -0.03125 0.609375 -0.03125l0.8125 0l-0.203125 1.140625q-0.140625 0.203125 -0.328125 0.359375q-0.171875 0.15625 -0.375 0.265625q-0.21875 0.125 -0.46875 0.1875q-0.234375 0.0625 -0.484375 0.046875zm7.629303 -6.265625l-0.953125 0l-0.234375 1.375l-1.421875 0l-0.140625 0.734375l1.4375 0l-0.5 3.0625q-0.046875 0.390625 0.015625 0.734375q0.078125 0.34375 0.25 0.609375q0.171875 0.265625 0.453125 0.421875q0.296875 0.15625 0.71875 0.15625q0.375 0.015625 0.765625 -0.046875q0.40625 -0.046875 0.734375 -0.234375l-0.078125 -0.6875q-0.28125 0.0625 -0.578125 0.109375q-0.28125 0.046875 -0.5625 0.046875q-0.25 -0.015625 -0.421875 -0.09375q-0.15625 -0.09375 -0.25 -0.234375q-0.078125 -0.15625 -0.109375 -0.34375q-0.03125 -0.203125 0 -0.4375l0.5 -3.0625l2.09375 0l0.125 -0.734375l-2.078125 0l0.234375 -1.375zm3.941803 1.375l-0.140625 0.828125l1.859375 0l-0.6875 3.96875l-1.859375 0l-0.140625 0.828125l4.578125 0l0.140625 -0.828125l-1.78125 0l0.828125 -4.796875l-2.796875 0zm2.0 -1.46875q0 0.25 0.15625 0.40625q0.15625 0.140625 0.40625 0.125q0.25 0 0.40625 -0.15625q0.15625 -0.15625 0.15625 -0.40625q0 -0.25 -0.15625 -0.40625q-0.15625 -0.15625 -0.40625 -0.15625q-0.25 0.015625 -0.40625 0.1875q-0.15625 0.15625 -0.15625 0.40625zm3.379303 4.265625l-0.015625 0.109375q-0.046875 0.390625 -0.015625 0.765625q0.046875 0.359375 0.171875 0.6875q0.078125 0.21875 0.203125 0.421875q0.140625 0.203125 0.296875 0.390625q0.25 0.25 0.609375 0.40625q0.359375 0.140625 0.8125 0.15625q0.609375 0.015625 1.109375 -0.21875q0.5 -0.234375 0.875 -0.640625q0.359375 -0.390625 0.59375 -0.921875q0.234375 -0.53125 0.3125 -1.09375l0 -0.109375q0.046875 -0.375 0 -0.75q-0.03125 -0.375 -0.140625 -0.703125q-0.09375 -0.265625 -0.25 -0.5q-0.15625 -0.234375 -0.34375 -0.40625q-0.234375 -0.21875 -0.578125 -0.34375q-0.34375 -0.140625 -0.765625 -0.15625q-0.59375 -0.015625 -1.078125 0.21875q-0.484375 0.21875 -0.859375 0.59375q-0.390625 0.40625 -0.640625 0.953125q-0.234375 0.546875 -0.296875 1.140625zm0.921875 0.109375l0.015625 -0.109375q0.046875 -0.375 0.1875 -0.75q0.140625 -0.390625 0.375 -0.703125q0.234375 -0.296875 0.5625 -0.484375q0.34375 -0.203125 0.78125 -0.1875q0.40625 0.015625 0.65625 0.21875q0.25 0.203125 0.375 0.5q0.125 0.3125 0.140625 0.671875q0.03125 0.359375 0 0.6875l-0.015625 0.109375q-0.015625 0.296875 -0.171875 0.71875q-0.15625 0.40625 -0.390625 0.71875q-0.25 0.296875 -0.578125 0.484375q-0.328125 0.1875 -0.765625 0.171875q-0.359375 -0.015625 -0.609375 -0.171875q-0.25 -0.171875 -0.375 -0.4375q-0.15625 -0.3125 -0.203125 -0.6875q-0.03125 -0.390625 0.015625 -0.75zm5.082428 2.71875l0.953125 0l0.703125 -4.046875q0.140625 -0.1875 0.296875 -0.34375q0.171875 -0.171875 0.375 -0.28125q0.1875 -0.125 0.40625 -0.1875q0.21875 -0.0625 0.46875 -0.0625q0.3125 0.015625 0.515625 0.125q0.203125 0.09375 0.3125 0.28125q0.109375 0.1875 0.140625 0.4375q0.03125 0.234375 0 0.515625l-0.609375 3.5625l0.953125 0l0.578125 -3.515625q0.0625 -0.421875 0 -0.84375q-0.0625 -0.421875 -0.25 -0.71875q-0.203125 -0.296875 -0.53125 -0.46875q-0.3125 -0.171875 -0.78125 -0.1875q-0.28125 0 -0.546875 0.0625q-0.25 0.0625 -0.484375 0.1875q-0.21875 0.125 -0.421875 0.3125q-0.203125 0.171875 -0.375 0.375l0.125 -0.84375l-0.84375 0.015625l-0.984375 5.625zm10.176178 -1.53125q-0.03125 0.25 -0.1875 0.421875q-0.140625 0.15625 -0.34375 0.25q-0.21875 0.09375 -0.453125 0.140625q-0.234375 0.046875 -0.4375 0.03125q-0.25 0 -0.484375 -0.0625q-0.21875 -0.0625 -0.375 -0.1875q-0.171875 -0.125 -0.28125 -0.328125q-0.09375 -0.203125 -0.09375 -0.46875l-0.9375 0q-0.015625 0.453125 0.15625 0.796875q0.1875 0.328125 0.5 0.5625q0.296875 0.234375 0.6875 0.359375q0.390625 0.109375 0.796875 0.125q0.390625 0 0.8125 -0.09375q0.421875 -0.09375 0.765625 -0.296875q0.34375 -0.203125 0.5625 -0.53125q0.234375 -0.328125 0.25 -0.78125q0.015625 -0.265625 -0.0625 -0.484375q-0.078125 -0.21875 -0.21875 -0.375q-0.140625 -0.171875 -0.34375 -0.28125q-0.1875 -0.125 -0.40625 -0.21875q-0.21875 -0.09375 -0.453125 -0.15625q-0.21875 -0.078125 -0.4375 -0.125q-0.171875 -0.03125 -0.375 -0.078125q-0.203125 -0.0625 -0.375 -0.15625q-0.171875 -0.078125 -0.28125 -0.21875q-0.109375 -0.15625 -0.078125 -0.390625q0.03125 -0.234375 0.171875 -0.390625q0.140625 -0.171875 0.328125 -0.28125q0.1875 -0.09375 0.40625 -0.140625q0.21875 -0.046875 0.4375 -0.046875q0.21875 0 0.40625 0.0625q0.203125 0.0625 0.359375 0.1875q0.15625 0.125 0.234375 0.3125q0.09375 0.171875 0.09375 0.40625l0.9375 0q0 -0.4375 -0.15625 -0.75q-0.15625 -0.328125 -0.4375 -0.5625q-0.28125 -0.21875 -0.65625 -0.328125q-0.359375 -0.109375 -0.75 -0.125q-0.34375 0 -0.6875 0.078125q-0.328125 0.078125 -0.65625 0.234375q-0.375 0.1875 -0.65625 0.546875q-0.28125 0.359375 -0.296875 0.828125q-0.015625 0.390625 0.15625 0.671875q0.171875 0.265625 0.453125 0.453125q0.25 0.15625 0.53125 0.265625q0.296875 0.09375 0.578125 0.171875q0.171875 0.046875 0.359375 0.09375q0.1875 0.046875 0.375 0.125q0.125 0.046875 0.234375 0.109375q0.109375 0.0625 0.1875 0.140625q0.078125 0.09375 0.125 0.21875q0.046875 0.109375 0.015625 0.265625z" fill-rule="nonzero"/><path fill="#000000" d="m266.1337 130.19194l0 -2.2187576l-0.953125 0l0 2.2187576l-2.109375 0l0 0.953125l2.109375 0l0 2.34375l0.953125 0l0 -2.34375l2.125 0l0 -0.953125l-2.125 0zm9.742706 1.203125l0 0.109375q0 0.609375 0.171875 1.125q0.171875 0.515625 0.515625 0.90625q0.328125 0.390625 0.796875 0.609375q0.484375 0.21875 1.078125 0.21875q0.59375 0 1.0625 -0.21875q0.46875 -0.21875 0.8125 -0.609375q0.328125 -0.390625 0.5 -0.90625q0.171875 -0.515625 0.171875 -1.125l0 -0.109375q0 -0.609375 -0.171875 -1.125q-0.171875 -0.53125 -0.5 -0.921875q-0.34375 -0.390625 -0.828125 -0.609375q-0.46875 -0.21875 -1.0625 -0.21875q-0.59375 0 -1.0625 0.21875q-0.46875 0.21875 -0.796875 0.609375q-0.34375 0.390625 -0.515625 0.921875q-0.171875 0.515625 -0.171875 1.125zm0.953125 0.109375l0 -0.109375q0 -0.421875 0.09375 -0.796875q0.109375 -0.375 0.3125 -0.65625q0.203125 -0.296875 0.484375 -0.453125q0.296875 -0.171875 0.703125 -0.171875q0.40625 0 0.703125 0.171875q0.296875 0.15625 0.5 0.453125q0.203125 0.28125 0.296875 0.65625q0.109375 0.375 0.109375 0.796875l0 0.109375q0 0.40625 -0.109375 0.796875q-0.09375 0.375 -0.296875 0.65625q-0.203125 0.28125 -0.5 0.453125q-0.296875 0.171875 -0.6875 0.171875q-0.40625 0 -0.703125 -0.171875q-0.296875 -0.171875 -0.5 -0.453125q-0.203125 -0.28125 -0.3125 -0.65625q-0.09375 -0.390625 -0.09375 -0.796875zm5.7072754 2.75l0.96875 0l0 -4.03125q0.09375 -0.1875 0.21875 -0.328125q0.140625 -0.15625 0.296875 -0.28125q0.1875 -0.125 0.40625 -0.203125q0.234375 -0.078125 0.5 -0.078125q0.3125 0 0.546875 0.078125q0.234375 0.078125 0.40625 0.234375q0.15625 0.15625 0.234375 0.421875q0.09375 0.265625 0.09375 0.640625l0 3.546875l0.96875 0l0 -3.578125q0 -0.5625 -0.140625 -0.96875q-0.140625 -0.40625 -0.390625 -0.671875q-0.265625 -0.265625 -0.625 -0.390625q-0.359375 -0.125 -0.796875 -0.125q-0.328125 0 -0.625 0.09375q-0.296875 0.09375 -0.546875 0.265625q-0.15625 0.109375 -0.3125 0.265625q-0.140625 0.140625 -0.265625 0.3125l-0.078125 -0.828125l-0.859375 0l0 5.625zm7.347931 -3.078125l0 0.0625q0 0.734375 0.109375 1.390625q0.125 0.65625 0.328125 1.21875q0.1875 0.5625 0.4375 1.015625q0.265625 0.46875 0.546875 0.828125q0.28125 0.359375 0.5625 0.609375q0.296875 0.25 0.5625 0.40625l0.203125 -0.59375q-0.21875 -0.171875 -0.4375 -0.421875q-0.203125 -0.234375 -0.40625 -0.546875q-0.1875 -0.328125 -0.375 -0.75q-0.171875 -0.40625 -0.296875 -0.890625q-0.125 -0.484375 -0.203125 -1.046875q-0.078125 -0.5625 -0.078125 -1.21875l0 -0.0625q0 -0.6875 0.078125 -1.265625q0.078125 -0.59375 0.21875 -1.078125q0.15625 -0.546875 0.375 -1.0000076q0.21875 -0.453125 0.453125 -0.796875q0.15625 -0.21875 0.328125 -0.390625q0.171875 -0.1875 0.34375 -0.3125l-0.203125 -0.625q-0.265625 0.140625 -0.5625 0.40625q-0.28125 0.25 -0.5625 0.609375q-0.28125 0.359375 -0.546875 0.828125q-0.25 0.45313263 -0.4375 1.0156326q-0.203125 0.5625 -0.328125 1.21875q-0.109375 0.65625 -0.109375 1.390625zm8.957275 0.0625l0 -0.0625q0 -0.796875 -0.125 -1.421875q-0.125 -0.640625 -0.3125 -1.1875q-0.1875 -0.5781326 -0.453125 -1.0312576q-0.25 -0.453125 -0.546875 -0.8125q-0.28125 -0.359375 -0.578125 -0.609375q-0.28125 -0.265625 -0.53125 -0.40625l-0.203125 0.578125q0.171875 0.140625 0.34375 0.34375q0.1875 0.203125 0.359375 0.46875q0.21875 0.34375 0.421875 0.796875q0.21875 0.45313263 0.375 1.0312576q0.109375 0.390625 0.1875 0.96875q0.09375 0.578125 0.09375 1.28125l0 0.0625q0 0.625 -0.078125 1.171875q-0.0625 0.53125 -0.171875 1.0q-0.125 0.515625 -0.3125 0.9375q-0.171875 0.421875 -0.359375 0.765625q-0.203125 0.328125 -0.421875 0.578125q-0.21875 0.265625 -0.4375 0.421875l0.203125 0.59375q0.25 -0.15625 0.53125 -0.40625q0.296875 -0.25 0.578125 -0.609375q0.28125 -0.359375 0.53125 -0.828125q0.265625 -0.453125 0.46875 -1.015625q0.203125 -0.5625 0.3125 -1.21875q0.125 -0.65625 0.125 -1.390625zm4.816681 2.390625q0 0.296875 0.1875 0.515625q0.1875 0.203125 0.5625 0.203125q0.375 0 0.5625 -0.203125q0.203125 -0.203125 0.203125 -0.515625q0 -0.3125 -0.203125 -0.53125q-0.1875 -0.21875 -0.5625 -0.21875q-0.375 0 -0.5625 0.21875q-0.1875 0.21875 -0.1875 0.53125zm0 -4.5625q0 0.296875 0.1875 0.515625q0.1875 0.203125 0.5625 0.203125q0.375 0 0.5625 -0.203125q0.203125 -0.203125 0.203125 -0.515625q0 -0.3125 -0.203125 -0.53125q-0.1875 -0.21875 -0.5625 -0.21875q-0.375 0 -0.5625 0.21875q-0.1875 0.21875 -0.1875 0.53125zm12.773956 5.1875l0.734375 0l2.296875 -5.625l-0.984375 0l-1.578125 4.234375l-0.09375 0.359375l-0.09375 -0.359375l-1.609375 -4.234375l-0.984375 0l2.3125 5.625zm4.2072754 -2.859375l0 0.109375q0 0.609375 0.171875 1.125q0.171875 0.515625 0.515625 0.90625q0.328125 0.390625 0.796875 0.609375q0.484375 0.21875 1.078125 0.21875q0.59375 0 1.0625 -0.21875q0.46875 -0.21875 0.8125 -0.609375q0.328125 -0.390625 0.5 -0.90625q0.171875 -0.515625 0.171875 -1.125l0 -0.109375q0 -0.609375 -0.171875 -1.125q-0.171875 -0.53125 -0.5 -0.921875q-0.34375 -0.390625 -0.828125 -0.609375q-0.46875 -0.21875 -1.0625 -0.21875q-0.59375 0 -1.0625 0.21875q-0.46875 0.21875 -0.796875 0.609375q-0.34375 0.390625 -0.515625 0.921875q-0.171875 0.515625 -0.171875 1.125zm0.953125 0.109375l0 -0.109375q0 -0.421875 0.09375 -0.796875q0.109375 -0.375 0.3125 -0.65625q0.203125 -0.296875 0.484375 -0.453125q0.296875 -0.171875 0.703125 -0.171875q0.40625 0 0.703125 0.171875q0.296875 0.15625 0.5 0.453125q0.203125 0.28125 0.296875 0.65625q0.109375 0.375 0.109375 0.796875l0 0.109375q0 0.40625 -0.109375 0.796875q-0.09375 0.375 -0.296875 0.65625q-0.203125 0.28125 -0.5 0.453125q-0.296875 0.171875 -0.6875 0.171875q-0.40625 0 -0.703125 -0.171875q-0.296875 -0.171875 -0.5 -0.453125q-0.203125 -0.28125 -0.3125 -0.65625q-0.09375 -0.390625 -0.09375 -0.796875zm5.863556 -2.875l0 0.828125l1.90625 0l0 3.96875l-1.90625 0l0 0.828125l4.703125 0l0 -0.828125l-1.828125 0l0 -4.796875l-2.875 0zm1.78125 -1.4843826q0 0.234375 0.140625 0.390625q0.140625 0.15625 0.4375 0.15625q0.28125 0 0.421875 -0.15625q0.15625 -0.15625 0.15625 -0.390625q0 -0.125 -0.046875 -0.234375q-0.03125 -0.109375 -0.125 -0.1875q-0.0625 -0.0625 -0.171875 -0.09375q-0.09375 -0.046875 -0.234375 -0.046875q-0.140625 0 -0.25 0.046875q-0.09375 0.03125 -0.171875 0.09375q-0.078125 0.078125 -0.125 0.1875q-0.03125 0.109375 -0.03125 0.234375zm4.2697754 4.2500076l0 0.109375q0 0.59375 0.15625 1.125q0.171875 0.515625 0.46875 0.90625q0.28125 0.390625 0.6875 0.609375q0.421875 0.21875 0.9375 0.21875q0.515625 0 0.90625 -0.171875q0.390625 -0.1875 0.671875 -0.53125l0.046875 0.59375l0.875 0l0 -8.000008l-0.953125 0l0 2.9218826q-0.28125 -0.3125 -0.65625 -0.484375q-0.375 -0.171875 -0.890625 -0.171875q-0.5 0 -0.921875 0.21875q-0.421875 0.203125 -0.703125 0.59375q-0.296875 0.375 -0.46875 0.90625q-0.15625 0.53125 -0.15625 1.15625zm0.96875 0.109375l0 -0.109375q0 -0.40625 0.078125 -0.78125q0.09375 -0.375 0.28125 -0.65625q0.1875 -0.28125 0.46875 -0.453125q0.296875 -0.171875 0.703125 -0.171875q0.46875 0 0.78125 0.234375q0.328125 0.21875 0.515625 0.5625l0 2.609375q-0.1875 0.359375 -0.515625 0.578125q-0.3125 0.21875 -0.796875 0.21875q-0.40625 0 -0.6875 -0.15625q-0.28125 -0.171875 -0.46875 -0.453125q-0.1875 -0.28125 -0.28125 -0.640625q-0.078125 -0.375 -0.078125 -0.78125z" fill-rule="nonzero"/><path fill="#000000" d="m266.1337 143.19193l0 -2.21875l-0.953125 0l0 2.21875l-2.109375 0l0 0.953125l2.109375 0l0 2.34375l0.953125 0l0 -2.34375l2.125 0l0 -0.953125l-2.125 0zm9.742706 1.203125l0 0.109375q0 0.609375 0.171875 1.125q0.171875 0.515625 0.515625 0.90625q0.328125 0.390625 0.796875 0.609375q0.484375 0.21875 1.078125 0.21875q0.59375 0 1.0625 -0.21875q0.46875 -0.21875 0.8125 -0.609375q0.328125 -0.390625 0.5 -0.90625q0.171875 -0.515625 0.171875 -1.125l0 -0.109375q0 -0.609375 -0.171875 -1.125q-0.171875 -0.53125 -0.5 -0.921875q-0.34375 -0.390625 -0.828125 -0.609375q-0.46875 -0.21875 -1.0625 -0.21875q-0.59375 0 -1.0625 0.21875q-0.46875 0.21875 -0.796875 0.609375q-0.34375 0.390625 -0.515625 0.921875q-0.171875 0.515625 -0.171875 1.125zm0.953125 0.109375l0 -0.109375q0 -0.421875 0.09375 -0.796875q0.109375 -0.375 0.3125 -0.65625q0.203125 -0.296875 0.484375 -0.453125q0.296875 -0.171875 0.703125 -0.171875q0.40625 0 0.703125 0.171875q0.296875 0.15625 0.5 0.453125q0.203125 0.28125 0.296875 0.65625q0.109375 0.375 0.109375 0.796875l0 0.109375q0 0.40625 -0.109375 0.796875q-0.09375 0.375 -0.296875 0.65625q-0.203125 0.28125 -0.5 0.453125q-0.296875 0.171875 -0.6875 0.171875q-0.40625 0 -0.703125 -0.171875q-0.296875 -0.171875 -0.5 -0.453125q-0.203125 -0.28125 -0.3125 -0.65625q-0.09375 -0.390625 -0.09375 -0.796875zm7.1447754 2.75l0.96875 0l0 -4.890625l2.171875 0l0 -0.734375l-2.171875 0l0 -0.40625q0 -0.34375 0.078125 -0.609375q0.09375 -0.265625 0.28125 -0.4375q0.15625 -0.15625 0.40625 -0.234375q0.265625 -0.09375 0.59375 -0.09375q0.3125 0 0.59375 0.0625q0.296875 0.046875 0.5 0.125l0.125 -0.796875q-0.140625 -0.03125 -0.28125 -0.0625q-0.125 -0.03125 -0.25 -0.046875q-0.203125 -0.046875 -0.40625 -0.0625q-0.203125 -0.03125 -0.40625 -0.03125q-0.5 0 -0.90625 0.140625q-0.40625 0.140625 -0.6875 0.421875q-0.296875 0.265625 -0.453125 0.6875q-0.15625 0.40625 -0.15625 0.9375l0 0.40625l-1.546875 0l0 0.734375l1.546875 0l0 4.890625zm6.394806 0l0.96875 0l0 -4.890625l2.171875 0l0 -0.734375l-2.171875 0l0 -0.40625q0 -0.34375 0.078125 -0.609375q0.09375 -0.265625 0.28125 -0.4375q0.15625 -0.15625 0.40625 -0.234375q0.265625 -0.09375 0.59375 -0.09375q0.3125 0 0.59375 0.0625q0.296875 0.046875 0.5 0.125l0.125 -0.796875q-0.140625 -0.03125 -0.28125 -0.0625q-0.125 -0.03125 -0.25 -0.046875q-0.203125 -0.046875 -0.40625 -0.0625q-0.203125 -0.03125 -0.40625 -0.03125q-0.5 0 -0.90625 0.140625q-0.40625 0.140625 -0.6875 0.421875q-0.296875 0.265625 -0.453125 0.6875q-0.15625 0.40625 -0.15625 0.9375l0 0.40625l-1.546875 0l0 0.734375l1.546875 0l0 4.890625zm5.9104004 -3.078125l0 0.0625q0 0.734375 0.109375 1.390625q0.125 0.65625 0.328125 1.21875q0.1875 0.5625 0.4375 1.015625q0.265625 0.46875 0.546875 0.828125q0.28125 0.359375 0.5625 0.609375q0.296875 0.25 0.5625 0.40625l0.203125 -0.59375q-0.21875 -0.171875 -0.4375 -0.421875q-0.203125 -0.234375 -0.40625 -0.546875q-0.1875 -0.328125 -0.375 -0.75q-0.171875 -0.40625 -0.296875 -0.890625q-0.125 -0.484375 -0.203125 -1.046875q-0.078125 -0.5625 -0.078125 -1.21875l0 -0.0625q0 -0.6875 0.078125 -1.265625q0.078125 -0.59375 0.21875 -1.078125q0.15625 -0.546875 0.375 -1.0q0.21875 -0.453125 0.453125 -0.796875q0.15625 -0.21875 0.328125 -0.390625q0.171875 -0.1875 0.34375 -0.3125l-0.203125 -0.625q-0.265625 0.140625 -0.5625 0.40625q-0.28125 0.25 -0.5625 0.609375q-0.28125 0.359375 -0.546875 0.828125q-0.25 0.453125 -0.4375 1.015625q-0.203125 0.5625 -0.328125 1.21875q-0.109375 0.65625 -0.109375 1.390625zm8.957306 0.0625l0 -0.0625q0 -0.796875 -0.125 -1.421875q-0.125 -0.640625 -0.3125 -1.1875q-0.1875 -0.578125 -0.453125 -1.03125q-0.25 -0.453125 -0.546875 -0.8125q-0.28125 -0.359375 -0.578125 -0.609375q-0.28125 -0.265625 -0.53125 -0.40625l-0.203125 0.578125q0.171875 0.140625 0.34375 0.34375q0.1875 0.203125 0.359375 0.46875q0.21875 0.34375 0.421875 0.796875q0.21875 0.453125 0.375 1.03125q0.109375 0.390625 0.1875 0.96875q0.09375 0.578125 0.09375 1.28125l0 0.0625q0 0.625 -0.078125 1.171875q-0.0625 0.53125 -0.171875 1.0q-0.125 0.515625 -0.3125 0.9375q-0.171875 0.421875 -0.359375 0.765625q-0.203125 0.328125 -0.421875 0.578125q-0.21875 0.265625 -0.4375 0.421875l0.203125 0.59375q0.25 -0.15625 0.53125 -0.40625q0.296875 -0.25 0.578125 -0.609375q0.28125 -0.359375 0.53125 -0.828125q0.265625 -0.453125 0.46875 -1.015625q0.203125 -0.5625 0.3125 -1.21875q0.125 -0.65625 0.125 -1.390625zm4.8166504 2.390625q0 0.296875 0.1875 0.515625q0.1875 0.203125 0.5625 0.203125q0.375 0 0.5625 -0.203125q0.203125 -0.203125 0.203125 -0.515625q0 -0.3125 -0.203125 -0.53125q-0.1875 -0.21875 -0.5625 -0.21875q-0.375 0 -0.5625 0.21875q-0.1875 0.21875 -0.1875 0.53125zm0 -4.5625q0 0.296875 0.1875 0.515625q0.1875 0.203125 0.5625 0.203125q0.375 0 0.5625 -0.203125q0.203125 -0.203125 0.203125 -0.515625q0 -0.3125 -0.203125 -0.53125q-0.1875 -0.21875 -0.5625 -0.21875q-0.375 0 -0.5625 0.21875q-0.1875 0.21875 -0.1875 0.53125zm12.773956 5.1875l0.734375 0l2.296875 -5.625l-0.984375 0l-1.578125 4.234375l-0.09375 0.359375l-0.09375 -0.359375l-1.609375 -4.234375l-0.984375 0l2.3125 5.625zm4.207306 -2.859375l0 0.109375q0 0.609375 0.171875 1.125q0.171875 0.515625 0.515625 0.90625q0.328125 0.390625 0.796875 0.609375q0.484375 0.21875 1.078125 0.21875q0.59375 0 1.0625 -0.21875q0.46875 -0.21875 0.8125 -0.609375q0.328125 -0.390625 0.5 -0.90625q0.171875 -0.515625 0.171875 -1.125l0 -0.109375q0 -0.609375 -0.171875 -1.125q-0.171875 -0.53125 -0.5 -0.921875q-0.34375 -0.390625 -0.828125 -0.609375q-0.46875 -0.21875 -1.0625 -0.21875q-0.59375 0 -1.0625 0.21875q-0.46875 0.21875 -0.796875 0.609375q-0.34375 0.390625 -0.515625 0.921875q-0.171875 0.515625 -0.171875 1.125zm0.953125 0.109375l0 -0.109375q0 -0.421875 0.09375 -0.796875q0.109375 -0.375 0.3125 -0.65625q0.203125 -0.296875 0.484375 -0.453125q0.296875 -0.171875 0.703125 -0.171875q0.40625 0 0.703125 0.171875q0.296875 0.15625 0.5 0.453125q0.203125 0.28125 0.296875 0.65625q0.109375 0.375 0.109375 0.796875l0 0.109375q0 0.40625 -0.109375 0.796875q-0.09375 0.375 -0.296875 0.65625q-0.203125 0.28125 -0.5 0.453125q-0.296875 0.171875 -0.6875 0.171875q-0.40625 0 -0.703125 -0.171875q-0.296875 -0.171875 -0.5 -0.453125q-0.203125 -0.28125 -0.3125 -0.65625q-0.09375 -0.390625 -0.09375 -0.796875zm5.8635254 -2.875l0 0.828125l1.90625 0l0 3.96875l-1.90625 0l0 0.828125l4.703125 0l0 -0.828125l-1.828125 0l0 -4.796875l-2.875 0zm1.78125 -1.484375q0 0.234375 0.140625 0.390625q0.140625 0.15625 0.4375 0.15625q0.28125 0 0.421875 -0.15625q0.15625 -0.15625 0.15625 -0.390625q0 -0.125 -0.046875 -0.234375q-0.03125 -0.109375 -0.125 -0.1875q-0.0625 -0.0625 -0.171875 -0.09375q-0.09375 -0.046875 -0.234375 -0.046875q-0.140625 0 -0.25 0.046875q-0.09375 0.03125 -0.171875 0.09375q-0.078125 0.078125 -0.125 0.1875q-0.03125 0.109375 -0.03125 0.234375zm4.269806 4.25l0 0.109375q0 0.59375 0.15625 1.125q0.171875 0.515625 0.46875 0.90625q0.28125 0.390625 0.6875 0.609375q0.421875 0.21875 0.9375 0.21875q0.515625 0 0.90625 -0.171875q0.390625 -0.1875 0.671875 -0.53125l0.046875 0.59375l0.875 0l0 -8.0l-0.953125 0l0 2.921875q-0.28125 -0.3125 -0.65625 -0.484375q-0.375 -0.171875 -0.890625 -0.171875q-0.5 0 -0.921875 0.21875q-0.421875 0.203125 -0.703125 0.59375q-0.296875 0.375 -0.46875 0.90625q-0.15625 0.53125 -0.15625 1.15625zm0.96875 0.109375l0 -0.109375q0 -0.40625 0.078125 -0.78125q0.09375 -0.375 0.28125 -0.65625q0.1875 -0.28125 0.46875 -0.453125q0.296875 -0.171875 0.703125 -0.171875q0.46875 0 0.78125 0.234375q0.328125 0.21875 0.515625 0.5625l0 2.609375q-0.1875 0.359375 -0.515625 0.578125q-0.3125 0.21875 -0.796875 0.21875q-0.40625 0 -0.6875 -0.15625q-0.28125 -0.171875 -0.46875 -0.453125q-0.1875 -0.28125 -0.28125 -0.640625q-0.078125 -0.375 -0.078125 -0.78125z" fill-rule="nonzero"/><path fill="#000000" fill-opacity="0.0" d="m253.4462 48.127617l183.93701 0l0 53.5748l-183.93701 0z" fill-rule="evenodd"/><path stroke="#000000" stroke-width="2.0" stroke-linejoin="round" stroke-linecap="butt" d="m253.4462 48.127617l183.93701 0l0 53.5748l-183.93701 0z" fill-rule="evenodd"/><path fill="#000000" d="m263.74307 79.71502l0 -1.609375l1.609375 0l0 1.609375l-1.609375 0zm4.217102 0l0 -1.609375l1.609375 0l0 1.609375l-1.609375 0zm4.217102 0l0 -1.609375l1.609375 0l0 1.609375l-1.609375 0zm4.217102 0l0 -1.609375l1.609375 0l0 1.609375l-1.609375 0z" fill-rule="nonzero"/><path fill="#000000" fill-opacity="0.0" d="m253.4462 74.915016l-87.086624 0.3149643" fill-rule="evenodd"/><path stroke="#000000" stroke-width="2.0" stroke-linejoin="round" stroke-linecap="butt" d="m246.59207 74.939804l-68.97601 0.24946594" fill-rule="evenodd"/><path fill="#000000" stroke="#000000" stroke-width="2.0" stroke-linecap="butt" d="m246.59207 74.939804l-2.2410278 2.257286l6.1713715 -2.2714996l-6.1876373 -2.2268066z" fill-rule="evenodd"/><path stroke="#000000" stroke-width="2.0" stroke-linecap="butt" d="m177.61606 75.18926l-4.76857 -3.3133469l-4.7444763 3.3477554l4.76857 3.3133469z" fill-rule="evenodd"/><path fill="#000000" fill-opacity="0.0" d="m9.629921 48.427822l156.7244 0l0 53.574802l-156.7244 0z" fill-rule="evenodd"/><path stroke="#000000" stroke-width="2.0" stroke-linejoin="round" stroke-linecap="butt" d="m9.629921 48.427822l156.7244 0l0 53.574802l-156.7244 0z" fill-rule="evenodd"/><path fill="#000000" d="m20.114296 66.61147l4.484375 -8.234375l-0.875 0l-4.5 8.234375l0.890625 0zm6.254303 0l4.484375 -8.234375l-0.875 0l-4.5 8.234375l0.890625 0zm14.992981 -0.65625l0.953125 0l0.015625 -0.09375q-0.0625 -0.28125 -0.0625 -0.5625q0 -0.28125 0.046875 -0.578125l0.4375 -2.609375q0.046875 -0.453125 -0.09375 -0.796875q-0.125 -0.359375 -0.390625 -0.59375q-0.265625 -0.25 -0.640625 -0.375q-0.359375 -0.125 -0.796875 -0.125q-0.375 -0.015625 -0.78125 0.09375q-0.390625 0.09375 -0.734375 0.3125q-0.328125 0.203125 -0.5625 0.515625q-0.234375 0.3125 -0.28125 0.75l0.953125 -0.015625q0.046875 -0.234375 0.171875 -0.390625q0.140625 -0.171875 0.3125 -0.28125q0.171875 -0.109375 0.390625 -0.15625q0.21875 -0.0625 0.4375 -0.0625q0.265625 0.015625 0.46875 0.09375q0.21875 0.0625 0.359375 0.203125q0.140625 0.140625 0.203125 0.34375q0.078125 0.203125 0.046875 0.46875l-0.0625 0.453125l-1.078125 -0.015625q-0.3125 0 -0.625 0.046875q-0.3125 0.03125 -0.609375 0.125q-0.3125 0.09375 -0.578125 0.25q-0.265625 0.140625 -0.46875 0.34375q-0.203125 0.203125 -0.328125 0.484375q-0.125 0.28125 -0.140625 0.65625q-0.03125 0.375 0.09375 0.671875q0.140625 0.296875 0.375 0.5q0.21875 0.203125 0.53125 0.328125q0.328125 0.109375 0.671875 0.109375q0.34375 0.015625 0.640625 -0.078125q0.296875 -0.078125 0.578125 -0.234375q0.140625 -0.09375 0.265625 -0.1875q0.140625 -0.09375 0.265625 -0.203125q-0.015625 0.15625 -0.015625 0.3125q0 0.140625 0.03125 0.296875zm-1.578125 -0.734375q-0.21875 0 -0.390625 -0.0625q-0.171875 -0.0625 -0.296875 -0.1875q-0.125 -0.109375 -0.1875 -0.28125q-0.0625 -0.171875 -0.03125 -0.390625q0.015625 -0.203125 0.09375 -0.34375q0.078125 -0.15625 0.1875 -0.265625q0.09375 -0.09375 0.203125 -0.15625q0.125 -0.078125 0.25 -0.125q0.28125 -0.125 0.609375 -0.15625q0.328125 -0.03125 0.609375 -0.03125l0.8125 0l-0.203125 1.140625q-0.140625 0.203125 -0.328125 0.359375q-0.171875 0.15625 -0.375 0.265625q-0.21875 0.125 -0.46875 0.1875q-0.234375 0.0625 -0.484375 0.046875zm7.629303 -6.265625l-0.953125 0l-0.234375 1.375l-1.421875 0l-0.140625 0.734375l1.4375 0l-0.5 3.0625q-0.046875 0.390625 0.015625 0.734375q0.078125 0.34375 0.25 0.609375q0.171875 0.265625 0.453125 0.421875q0.296875 0.15625 0.71875 0.15625q0.375 0.015625 0.765625 -0.046875q0.40625 -0.046875 0.734375 -0.234375l-0.078125 -0.6875q-0.28125 0.0625 -0.578125 0.109375q-0.28125 0.046875 -0.5625 0.046875q-0.25 -0.015625 -0.421875 -0.09375q-0.15625 -0.09375 -0.25 -0.234375q-0.078125 -0.15625 -0.109375 -0.34375q-0.03125 -0.203125 0 -0.4375l0.5 -3.0625l2.09375 0l0.125 -0.734375l-2.078125 0l0.234375 -1.375zm6.254303 0l-0.953125 0l-0.234375 1.375l-1.421875 0l-0.140625 0.734375l1.4375 0l-0.5 3.0625q-0.046875 0.390625 0.015625 0.734375q0.078125 0.34375 0.25 0.609375q0.171875 0.265625 0.453125 0.421875q0.296875 0.15625 0.71875 0.15625q0.375 0.015625 0.765625 -0.046875q0.40625 -0.046875 0.734375 -0.234375l-0.078125 -0.6875q-0.28125 0.0625 -0.578125 0.109375q-0.28125 0.046875 -0.5625 0.046875q-0.25 -0.015625 -0.421875 -0.09375q-0.15625 -0.09375 -0.25 -0.234375q-0.078125 -0.15625 -0.109375 -0.34375q-0.03125 -0.203125 0 -0.4375l0.5 -3.0625l2.09375 0l0.125 -0.734375l-2.078125 0l0.234375 -1.375zm7.332428 1.25q-0.3125 0 -0.59375 0.078125q-0.28125 0.0625 -0.53125 0.203125q-0.25 0.125 -0.46875 0.3125q-0.21875 0.1875 -0.421875 0.421875l0.03125 -0.171875l0.125 -0.71875l-0.890625 0l-0.96875 5.625l0.9375 0l0.625 -3.609375q0.171875 -0.3125 0.390625 -0.546875q0.21875 -0.25 0.484375 -0.390625q0.21875 -0.125 0.46875 -0.1875q0.265625 -0.0625 0.5625 -0.0625q0.25 0.015625 0.5 0.046875q0.25 0.03125 0.5 0.09375l0.234375 -0.9375q-0.234375 -0.09375 -0.484375 -0.109375q-0.25 -0.03125 -0.5 -0.046875zm2.863678 0.125l-0.140625 0.828125l1.859375 0l-0.6875 3.96875l-1.859375 0l-0.140625 0.828125l4.578125 0l0.140625 -0.828125l-1.78125 0l0.828125 -4.796875l-2.796875 0zm2.0 -1.46875q0 0.25 0.15625 0.40625q0.15625 0.140625 0.40625 0.125q0.25 0 0.40625 -0.15625q0.15625 -0.15625 0.15625 -0.40625q0 -0.25 -0.15625 -0.40625q-0.15625 -0.15625 -0.40625 -0.15625q-0.25 0.015625 -0.40625 0.1875q-0.15625 0.15625 -0.15625 0.40625zm8.254303 4.3125l0 -0.109375q0.046875 -0.3125 0.03125 -0.640625q-0.015625 -0.34375 -0.078125 -0.65625q-0.0625 -0.3125 -0.1875 -0.578125q-0.125 -0.28125 -0.328125 -0.5q-0.21875 -0.203125 -0.515625 -0.328125q-0.28125 -0.125 -0.65625 -0.140625q-0.3125 0 -0.59375 0.078125q-0.265625 0.0625 -0.5 0.203125q-0.140625 0.078125 -0.265625 0.1875q-0.125 0.109375 -0.25 0.25l0.5625 -2.984375l-0.9375 0l-1.390625 8.0l0.875 0l0.1875 -0.640625q0.09375 0.140625 0.203125 0.25q0.109375 0.109375 0.234375 0.1875q0.21875 0.15625 0.484375 0.234375q0.265625 0.078125 0.546875 0.078125q0.40625 0.015625 0.734375 -0.109375q0.34375 -0.109375 0.609375 -0.3125q0.265625 -0.21875 0.46875 -0.5q0.21875 -0.28125 0.375 -0.59375q0.140625 -0.328125 0.234375 -0.671875q0.109375 -0.359375 0.15625 -0.703125zm-0.9375 -0.109375l-0.015625 0.109375q-0.03125 0.28125 -0.125 0.59375q-0.09375 0.296875 -0.234375 0.5625q-0.109375 0.203125 -0.25 0.375q-0.140625 0.171875 -0.3125 0.28125q-0.1875 0.125 -0.40625 0.203125q-0.21875 0.0625 -0.46875 0.0625q-0.234375 -0.015625 -0.421875 -0.078125q-0.1875 -0.078125 -0.328125 -0.203125q-0.125 -0.109375 -0.234375 -0.25q-0.09375 -0.15625 -0.15625 -0.34375l0.421875 -2.46875q0.125 -0.1875 0.28125 -0.34375q0.15625 -0.171875 0.34375 -0.296875q0.171875 -0.109375 0.375 -0.171875q0.203125 -0.0625 0.453125 -0.0625q0.234375 0.015625 0.421875 0.09375q0.1875 0.0625 0.296875 0.1875q0.125 0.140625 0.203125 0.296875q0.09375 0.15625 0.125 0.34375q0.0625 0.265625 0.0625 0.5625q0 0.28125 -0.03125 0.546875zm4.051178 3.0q0.546875 0 0.96875 -0.234375q0.4375 -0.234375 0.78125 -0.65625l-0.125 0.78125l0.84375 0l0.984375 -5.625l-0.953125 0l-0.703125 4.03125q-0.125 0.21875 -0.296875 0.375q-0.15625 0.15625 -0.34375 0.28125q-0.203125 0.109375 -0.453125 0.171875q-0.234375 0.0625 -0.5 0.046875q-0.328125 0 -0.5 -0.140625q-0.171875 -0.15625 -0.25 -0.375q-0.078125 -0.234375 -0.078125 -0.5q0.015625 -0.28125 0.046875 -0.53125l0.546875 -3.359375l-0.9375 0l-0.5625 3.34375q-0.046875 0.421875 0 0.859375q0.046875 0.421875 0.21875 0.75q0.171875 0.34375 0.484375 0.5625q0.328125 0.203125 0.828125 0.21875zm7.707428 -7.109375l-0.953125 0l-0.234375 1.375l-1.421875 0l-0.140625 0.734375l1.4375 0l-0.5 3.0625q-0.046875 0.390625 0.015625 0.734375q0.078125 0.34375 0.25 0.609375q0.171875 0.265625 0.453125 0.421875q0.296875 0.15625 0.71875 0.15625q0.375 0.015625 0.765625 -0.046875q0.40625 -0.046875 0.734375 -0.234375l-0.078125 -0.6875q-0.28125 0.0625 -0.578125 0.109375q-0.28125 0.046875 -0.5625 0.046875q-0.25 -0.015625 -0.421875 -0.09375q-0.15625 -0.09375 -0.25 -0.234375q-0.078125 -0.15625 -0.109375 -0.34375q-0.03125 -0.203125 0 -0.4375l0.5 -3.0625l2.09375 0l0.125 -0.734375l-2.078125 0l0.234375 -1.375zm5.301178 7.109375q0.65625 0 1.265625 -0.265625q0.625 -0.28125 1.0 -0.8125l-0.53125 -0.46875q-0.34375 0.34375 -0.765625 0.5625q-0.40625 0.203125 -0.890625 0.1875q-0.375 -0.015625 -0.65625 -0.171875q-0.265625 -0.15625 -0.4375 -0.421875q-0.171875 -0.265625 -0.234375 -0.59375q-0.0625 -0.328125 -0.015625 -0.671875l3.875 0l0.0625 -0.421875q0.0625 -0.515625 -0.015625 -1.0q-0.078125 -0.5 -0.3125 -0.890625q-0.234375 -0.390625 -0.640625 -0.625q-0.390625 -0.234375 -0.96875 -0.25q-0.40625 -0.015625 -0.765625 0.09375q-0.359375 0.109375 -0.671875 0.3125q-0.3125 0.203125 -0.5625 0.484375q-0.25 0.265625 -0.4375 0.59375q-0.1875 0.328125 -0.3125 0.703125q-0.125 0.359375 -0.15625 0.71875l-0.03125 0.21875q-0.046875 0.546875 0.078125 1.03125q0.125 0.484375 0.40625 0.859375q0.28125 0.359375 0.703125 0.59375q0.4375 0.21875 1.015625 0.234375zm0.6875 -5.046875q0.296875 0 0.53125 0.140625q0.234375 0.125 0.375 0.34375q0.140625 0.21875 0.1875 0.484375q0.0625 0.265625 0.015625 0.5625l-0.015625 0.09375l-2.9375 -0.015625q0.109375 -0.296875 0.265625 -0.59375q0.171875 -0.296875 0.40625 -0.53125q0.21875 -0.234375 0.5 -0.359375q0.296875 -0.140625 0.671875 -0.125zm7.004303 3.40625q-0.03125 0.25 -0.1875 0.421875q-0.140625 0.15625 -0.34375 0.25q-0.21875 0.09375 -0.453125 0.140625q-0.234375 0.046875 -0.4375 0.03125q-0.25 0 -0.484375 -0.0625q-0.21875 -0.0625 -0.375 -0.1875q-0.171875 -0.125 -0.28125 -0.328125q-0.09375 -0.203125 -0.09375 -0.46875l-0.9375 0q-0.015625 0.453125 0.15625 0.796875q0.1875 0.328125 0.5 0.5625q0.296875 0.234375 0.6875 0.359375q0.390625 0.109375 0.796875 0.125q0.390625 0 0.8125 -0.09375q0.421875 -0.09375 0.765625 -0.296875q0.34375 -0.203125 0.5625 -0.53125q0.234375 -0.328125 0.25 -0.78125q0.015625 -0.265625 -0.0625 -0.484375q-0.078125 -0.21875 -0.21875 -0.375q-0.140625 -0.171875 -0.34375 -0.28125q-0.1875 -0.125 -0.40625 -0.21875q-0.21875 -0.09375 -0.453125 -0.15625q-0.21875 -0.078125 -0.4375 -0.125q-0.171875 -0.03125 -0.375 -0.078125q-0.203125 -0.0625 -0.375 -0.15625q-0.171875 -0.078125 -0.28125 -0.21875q-0.109375 -0.15625 -0.078125 -0.390625q0.03125 -0.234375 0.171875 -0.390625q0.140625 -0.171875 0.328125 -0.28125q0.1875 -0.09375 0.40625 -0.140625q0.21875 -0.046875 0.4375 -0.046875q0.21875 0 0.40625 0.0625q0.203125 0.0625 0.359375 0.1875q0.15625 0.125 0.234375 0.3125q0.09375 0.171875 0.09375 0.40625l0.9375 0q0 -0.4375 -0.15625 -0.75q-0.15625 -0.328125 -0.4375 -0.5625q-0.28125 -0.21875 -0.65625 -0.328125q-0.359375 -0.109375 -0.75 -0.125q-0.34375 0 -0.6875 0.078125q-0.328125 0.078125 -0.65625 0.234375q-0.375 0.1875 -0.65625 0.546875q-0.28125 0.359375 -0.296875 0.828125q-0.015625 0.390625 0.15625 0.671875q0.171875 0.265625 0.453125 0.453125q0.25 0.15625 0.53125 0.265625q0.296875 0.09375 0.578125 0.171875q0.171875 0.046875 0.359375 0.09375q0.1875 0.046875 0.375 0.125q0.125 0.046875 0.234375 0.109375q0.109375 0.0625 0.1875 0.140625q0.078125 0.09375 0.125 0.21875q0.046875 0.109375 0.015625 0.265625z" fill-rule="nonzero"/><path fill="#000000" d="m23.013838 76.03335l0 -0.78125l-3.96875 0l0 0.78125l3.96875 0z" fill-rule="nonzero"/><path fill="#000000" d="m32.037796 73.33022l-0.8593769 0l0 5.625l0.9218769 0l0 -4.484375q0.03125 -0.078125 0.078125 -0.140625q0.046875 -0.078125 0.109375 -0.140625q0.09375 -0.078125 0.21875 -0.109375q0.125 -0.046875 0.296875 -0.046875q0.15625 0 0.265625 0.046875q0.125 0.03125 0.203125 0.125q0.09375 0.078125 0.125 0.21875q0.03125 0.140625 0.03125 0.3125l0 4.21875l0.921875 0l0 -4.21875q0 -0.03125 0 -0.046875q0 -0.03125 0 -0.046875q0.015625 -0.140625 0.0625 -0.234375q0.046875 -0.109375 0.125 -0.203125q0.09375 -0.078125 0.21875 -0.125q0.125 -0.046875 0.296875 -0.046875q0.15625 0 0.28125 0.046875q0.125 0.046875 0.203125 0.125q0.078125 0.09375 0.109375 0.234375q0.046875 0.125 0.046875 0.296875l0 4.21875l0.921875 0l0 -4.203125q0 -0.40625 -0.09375 -0.703125q-0.09375 -0.296875 -0.265625 -0.484375q-0.171875 -0.171875 -0.40625 -0.25q-0.234375 -0.09375 -0.515625 -0.09375q-0.21875 0 -0.40625 0.0625q-0.171875 0.046875 -0.3125 0.140625q-0.125 0.078125 -0.21875 0.1875q-0.09375 0.09375 -0.171875 0.21875q-0.0625 -0.140625 -0.140625 -0.234375q-0.078125 -0.109375 -0.171875 -0.1875q-0.140625 -0.09375 -0.328125 -0.140625q-0.171875 -0.046875 -0.390625 -0.046875q-0.390625 0 -0.671875 0.171875q-0.28125 0.171875 -0.453125 0.46875l-0.03125 -0.53125zm10.629166 6.40625l0 -0.78125l-4.765625 0l0 0.78125l4.765625 0zm5.4572906 -2.28125q0 0.140625 -0.046875 0.265625q-0.046875 0.109375 -0.15625 0.21875q-0.15625 0.15625 -0.453125 0.25q-0.28125 0.09375 -0.65625 0.09375q-0.25 0 -0.5 -0.046875q-0.25 -0.0625 -0.453125 -0.1875q-0.203125 -0.125 -0.34375 -0.328125q-0.140625 -0.203125 -0.15625 -0.5l-0.96875 0q0 0.359375 0.15625 0.703125q0.171875 0.328125 0.484375 0.578125q0.3125 0.25 0.75 0.40625q0.453125 0.15625 1.03125 0.15625q0.5 0 0.921875 -0.125q0.421875 -0.125 0.71875 -0.34375q0.296875 -0.21875 0.46875 -0.515625q0.171875 -0.3125 0.171875 -0.6875q0 -0.34375 -0.15625 -0.609375q-0.140625 -0.265625 -0.421875 -0.46875q-0.28125 -0.203125 -0.703125 -0.34375q-0.40625 -0.140625 -0.921875 -0.25q-0.390625 -0.078125 -0.65625 -0.15625q-0.25 -0.09375 -0.40625 -0.1875q-0.15625 -0.109375 -0.21875 -0.234375q-0.0625 -0.140625 -0.0625 -0.296875q0 -0.171875 0.078125 -0.3125q0.078125 -0.15625 0.234375 -0.265625q0.15625 -0.125 0.375 -0.1875q0.234375 -0.0625 0.546875 -0.0625q0.296875 0 0.53125 0.078125q0.234375 0.078125 0.40625 0.21875q0.171875 0.140625 0.265625 0.3125q0.09375 0.171875 0.09375 0.359375l0.953125 0q0 -0.375 -0.15625 -0.6875q-0.15625 -0.328125 -0.453125 -0.5625q-0.28125 -0.25 -0.703125 -0.375q-0.421875 -0.140625 -0.9375 -0.140625q-0.484375 0 -0.890625 0.140625q-0.390625 0.125 -0.6875 0.34375q-0.296875 0.21875 -0.453125 0.53125q-0.15625 0.296875 -0.15625 0.640625q0 0.34375 0.15625 0.609375q0.15625 0.265625 0.4375 0.453125q0.28125 0.203125 0.671875 0.34375q0.40625 0.125 0.890625 0.234375q0.390625 0.078125 0.65625 0.171875q0.265625 0.09375 0.421875 0.203125q0.171875 0.125 0.234375 0.265625q0.0625 0.125 0.0625 0.296875zm4.9416656 -5.5l-0.96875 0l0 1.375l-1.484375 0l0 0.734375l1.484375 0l0 3.0625q0 0.515625 0.140625 0.890625q0.140625 0.359375 0.375 0.59375q0.234375 0.234375 0.5625 0.34375q0.328125 0.109375 0.703125 0.109375q0.21875 0 0.4375 -0.03125q0.234375 -0.015625 0.4375 -0.0625q0.203125 -0.03125 0.375 -0.078125q0.171875 -0.0625 0.296875 -0.140625l-0.140625 -0.671875q-0.09375 0.015625 -0.234375 0.046875q-0.125 0.03125 -0.28125 0.046875q-0.171875 0.03125 -0.34375 0.046875q-0.15625 0.015625 -0.3125 0.015625q-0.21875 0 -0.40625 -0.046875q-0.1875 -0.046875 -0.328125 -0.1875q-0.15625 -0.125 -0.234375 -0.328125q-0.078125 -0.21875 -0.078125 -0.546875l0 -3.0625l2.140625 0l0 -0.734375l-2.140625 0l0 -1.375zm7.8166656 7.0l1.0 0l0 -0.078125q-0.09375 -0.234375 -0.15625 -0.546875q-0.046875 -0.328125 -0.046875 -0.609375l0 -2.609375q0 -0.46875 -0.171875 -0.828125q-0.171875 -0.359375 -0.46875 -0.59375q-0.296875 -0.234375 -0.71875 -0.34375q-0.40625 -0.125 -0.875 -0.125q-0.53125 0 -0.953125 0.15625q-0.40625 0.140625 -0.6875 0.375q-0.296875 0.234375 -0.453125 0.53125q-0.140625 0.296875 -0.15625 0.609375l0.96875 0q0 -0.1875 0.078125 -0.34375q0.09375 -0.171875 0.25 -0.28125q0.15625 -0.125 0.375 -0.1875q0.234375 -0.078125 0.515625 -0.078125q0.3125 0 0.5625 0.078125q0.25 0.078125 0.421875 0.21875q0.171875 0.140625 0.265625 0.34375q0.09375 0.203125 0.09375 0.453125l0 0.453125l-1.0625 0q-0.578125 0 -1.0625 0.109375q-0.46875 0.109375 -0.8125 0.34375q-0.328125 0.234375 -0.515625 0.578125q-0.1875 0.34375 -0.1875 0.8125q0 0.359375 0.140625 0.671875q0.140625 0.296875 0.390625 0.515625q0.25 0.21875 0.609375 0.359375q0.359375 0.125 0.8125 0.125q0.265625 0 0.515625 -0.0625q0.25 -0.0625 0.46875 -0.15625q0.203125 -0.09375 0.375 -0.21875q0.1875 -0.140625 0.34375 -0.28125q0.015625 0.171875 0.046875 0.34375q0.03125 0.15625 0.09375 0.265625zm-1.703125 -0.734375q-0.28125 0 -0.5 -0.0625q-0.203125 -0.078125 -0.34375 -0.21875q-0.140625 -0.125 -0.21875 -0.296875q-0.0625 -0.171875 -0.0625 -0.390625q0 -0.21875 0.078125 -0.390625q0.078125 -0.171875 0.234375 -0.296875q0.21875 -0.171875 0.578125 -0.25q0.375 -0.09375 0.875 -0.09375l0.90625 0l0 1.140625q-0.09375 0.171875 -0.234375 0.328125q-0.140625 0.140625 -0.34375 0.265625q-0.203125 0.125 -0.453125 0.203125q-0.234375 0.0625 -0.515625 0.0625zm6.6760406 -6.265625l-0.96875 0l0 1.375l-1.484375 0l0 0.734375l1.484375 0l0 3.0625q0 0.515625 0.140625 0.890625q0.140625 0.359375 0.375 0.59375q0.234375 0.234375 0.5625 0.34375q0.328125 0.109375 0.703125 0.109375q0.21875 0 0.4375 -0.03125q0.234375 -0.015625 0.4375 -0.0625q0.203125 -0.03125 0.375 -0.078125q0.171875 -0.0625 0.296875 -0.140625l-0.140625 -0.671875q-0.09375 0.015625 -0.234375 0.046875q-0.125 0.03125 -0.28125 0.046875q-0.171875 0.03125 -0.34375 0.046875q-0.15625 0.015625 -0.3125 0.015625q-0.21875 0 -0.40625 -0.046875q-0.1875 -0.046875 -0.328125 -0.1875q-0.15625 -0.125 -0.234375 -0.328125q-0.078125 -0.21875 -0.078125 -0.546875l0 -3.0625l2.140625 0l0 -0.734375l-2.140625 0l0 -1.375zm6.5979156 7.109375q0.828125 0 1.375 -0.328125q0.5625 -0.34375 0.84375 -0.765625l-0.578125 -0.453125q-0.265625 0.34375 -0.671875 0.546875q-0.40625 0.203125 -0.921875 0.203125q-0.390625 0 -0.71875 -0.140625q-0.3125 -0.140625 -0.53125 -0.40625q-0.234375 -0.234375 -0.359375 -0.546875q-0.125 -0.3125 -0.15625 -0.71875l0 -0.046875l4.015625 0l0 -0.421875q0 -0.59375 -0.15625 -1.09375q-0.140625 -0.5 -0.4375 -0.875q-0.3125 -0.375 -0.765625 -0.578125q-0.453125 -0.21875 -1.0625 -0.21875q-0.484375 0 -0.953125 0.203125q-0.453125 0.1875 -0.8125 0.5625q-0.359375 0.375 -0.578125 0.921875q-0.21875 0.53125 -0.21875 1.21875l0 0.203125q0 0.59375 0.1875 1.09375q0.203125 0.5 0.5625 0.859375q0.359375 0.375 0.84375 0.578125q0.5 0.203125 1.09375 0.203125zm-0.125 -5.046875q0.375 0 0.640625 0.140625q0.265625 0.125 0.4375 0.34375q0.1875 0.21875 0.28125 0.515625q0.09375 0.296875 0.09375 0.5625l0 0.046875l-3.015625 0q0.046875 -0.390625 0.1875 -0.6875q0.15625 -0.296875 0.359375 -0.515625q0.203125 -0.203125 0.453125 -0.296875q0.265625 -0.109375 0.5625 -0.109375zm5.9729156 4.3125q0 0.296875 0.1875 0.515625q0.1875 0.203125 0.5625 0.203125q0.375 0 0.5625 -0.203125q0.203125 -0.203125 0.203125 -0.515625q0 -0.3125 -0.203125 -0.53125q-0.1875 -0.21875 -0.5625 -0.21875q-0.375 0 -0.5625 0.21875q-0.1875 0.21875 -0.1875 0.53125zm0 -4.5625q0 0.296875 0.1875 0.515625q0.1875 0.203125 0.5625 0.203125q0.375 0 0.5625 -0.203125q0.203125 -0.203125 0.203125 -0.515625q0 -0.3125 -0.203125 -0.53125q-0.1875 -0.21875 -0.5625 -0.21875q-0.375 0 -0.5625 0.21875q-0.1875 0.21875 -0.1875 0.53125zm15.617706 2.4375l0 -0.109375q0 -0.4375 -0.078125 -0.828125q-0.0625 -0.40625 -0.203125 -0.734375q-0.140625 -0.296875 -0.3125 -0.53125q-0.171875 -0.234375 -0.40625 -0.40625q-0.25 -0.171875 -0.5625 -0.265625q-0.296875 -0.109375 -0.65625 -0.109375q-0.296875 0 -0.546875 0.0625q-0.25 0.046875 -0.453125 0.15625q-0.171875 0.09375 -0.3125 0.21875q-0.140625 0.125 -0.265625 0.265625l0 -2.96875l-0.96875 0l0 8.0l0.890625 0l0.046875 -0.640625q0.09375 0.125 0.1875 0.21875q0.109375 0.09375 0.234375 0.1875q0.234375 0.15625 0.53125 0.25q0.296875 0.09375 0.65625 0.09375q0.328125 0 0.59375 -0.078125q0.28125 -0.078125 0.5 -0.21875q0.328125 -0.203125 0.546875 -0.515625q0.234375 -0.3125 0.375 -0.703125q0.09375 -0.296875 0.140625 -0.640625q0.0625 -0.34375 0.0625 -0.703125zm-0.953125 -0.109375l0 0.109375q0 0.25 -0.03125 0.484375q-0.03125 0.234375 -0.109375 0.453125q-0.078125 0.265625 -0.21875 0.5q-0.140625 0.21875 -0.34375 0.359375q-0.15625 0.125 -0.359375 0.1875q-0.203125 0.046875 -0.4375 0.046875q-0.25 0 -0.453125 -0.0625q-0.203125 -0.0625 -0.375 -0.1875q-0.171875 -0.109375 -0.296875 -0.265625q-0.125 -0.171875 -0.21875 -0.359375l0 -2.453125q0.09375 -0.1875 0.21875 -0.34375q0.125 -0.15625 0.296875 -0.28125q0.15625 -0.109375 0.359375 -0.171875q0.203125 -0.078125 0.453125 -0.078125q0.234375 0 0.421875 0.0625q0.1875 0.046875 0.34375 0.140625q0.21875 0.125 0.359375 0.359375q0.15625 0.234375 0.25 0.5q0.0625 0.234375 0.09375 0.484375q0.046875 0.25 0.046875 0.515625zm2.3166656 0l0 0.109375q0 0.609375 0.171875 1.125q0.171875 0.515625 0.515625 0.90625q0.328125 0.390625 0.796875 0.609375q0.484375 0.21875 1.078125 0.21875q0.59375 0 1.0625 -0.21875q0.46875 -0.21875 0.8125 -0.609375q0.328125 -0.390625 0.5 -0.90625q0.171875 -0.515625 0.171875 -1.125l0 -0.109375q0 -0.609375 -0.171875 -1.125q-0.171875 -0.53125 -0.5 -0.921875q-0.34375 -0.390625 -0.828125 -0.609375q-0.46875 -0.21875 -1.0625 -0.21875q-0.59375 0 -1.0625 0.21875q-0.46875 0.21875 -0.796875 0.609375q-0.34375 0.390625 -0.515625 0.921875q-0.171875 0.515625 -0.171875 1.125zm0.953125 0.109375l0 -0.109375q0 -0.421875 0.09375 -0.796875q0.109375 -0.375 0.3125 -0.65625q0.203125 -0.296875 0.484375 -0.453125q0.296875 -0.171875 0.703125 -0.171875q0.40625 0 0.703125 0.171875q0.296875 0.15625 0.5 0.453125q0.203125 0.28125 0.296875 0.65625q0.109375 0.375 0.109375 0.796875l0 0.109375q0 0.40625 -0.109375 0.796875q-0.09375 0.375 -0.296875 0.65625q-0.203125 0.28125 -0.5 0.453125q-0.296875 0.171875 -0.6875 0.171875q-0.40625 0 -0.703125 -0.171875q-0.296875 -0.171875 -0.5 -0.453125q-0.203125 -0.28125 -0.3125 -0.65625q-0.09375 -0.390625 -0.09375 -0.796875zm5.4416656 -0.109375l0 0.109375q0 0.609375 0.171875 1.125q0.171875 0.515625 0.515625 0.90625q0.328125 0.390625 0.796875 0.609375q0.484375 0.21875 1.078125 0.21875q0.59375 0 1.0625 -0.21875q0.46875 -0.21875 0.8125 -0.609375q0.328125 -0.390625 0.5 -0.90625q0.171875 -0.515625 0.171875 -1.125l0 -0.109375q0 -0.609375 -0.171875 -1.125q-0.171875 -0.53125 -0.5 -0.921875q-0.34375 -0.390625 -0.828125 -0.609375q-0.46875 -0.21875 -1.0625 -0.21875q-0.59375 0 -1.0625 0.21875q-0.46875 0.21875 -0.796875 0.609375q-0.34375 0.390625 -0.515625 0.921875q-0.171875 0.515625 -0.171875 1.125zm0.953125 0.109375l0 -0.109375q0 -0.421875 0.09375 -0.796875q0.109375 -0.375 0.3125 -0.65625q0.203125 -0.296875 0.484375 -0.453125q0.296875 -0.171875 0.703125 -0.171875q0.40625 0 0.703125 0.171875q0.296875 0.15625 0.5 0.453125q0.203125 0.28125 0.296875 0.65625q0.109375 0.375 0.109375 0.796875l0 0.109375q0 0.40625 -0.109375 0.796875q-0.09375 0.375 -0.296875 0.65625q-0.203125 0.28125 -0.5 0.453125q-0.296875 0.171875 -0.6875 0.171875q-0.40625 0 -0.703125 -0.171875q-0.296875 -0.171875 -0.5 -0.453125q-0.203125 -0.28125 -0.3125 -0.65625q-0.09375 -0.390625 -0.09375 -0.796875zm5.8635406 -5.25l0 0.84375l1.90625 0l0 6.328125l-1.90625 0l0 0.828125l4.703125 0l0 -0.828125l-1.828125 0l0 -7.171875l-2.875 0z" fill-rule="nonzero"/><path fill="#000000" d="m23.013838 89.03334l0 -0.78125l-3.96875 0l0 0.78125l3.96875 0z" fill-rule="nonzero"/><path fill="#000000" d="m32.037796 86.330215l-0.8593769 0l0 5.625l0.9218769 0l0 -4.484375q0.03125 -0.078125 0.078125 -0.140625q0.046875 -0.078125 0.109375 -0.140625q0.09375 -0.078125 0.21875 -0.109375q0.125 -0.046875 0.296875 -0.046875q0.15625 0 0.265625 0.046875q0.125 0.03125 0.203125 0.125q0.09375 0.078125 0.125 0.21875q0.03125 0.140625 0.03125 0.3125l0 4.21875l0.921875 0l0 -4.21875q0 -0.03125 0 -0.046875q0 -0.03125 0 -0.046875q0.015625 -0.140625 0.0625 -0.234375q0.046875 -0.109375 0.125 -0.203125q0.09375 -0.078125 0.21875 -0.125q0.125 -0.046875 0.296875 -0.046875q0.15625 0 0.28125 0.046875q0.125 0.046875 0.203125 0.125q0.078125 0.09375 0.109375 0.234375q0.046875 0.125 0.046875 0.296875l0 4.21875l0.921875 0l0 -4.203125q0 -0.40625 -0.09375 -0.703125q-0.09375 -0.296875 -0.265625 -0.484375q-0.171875 -0.171875 -0.40625 -0.25q-0.234375 -0.09375 -0.515625 -0.09375q-0.21875 0 -0.40625 0.0625q-0.171875 0.046875 -0.3125 0.140625q-0.125 0.078125 -0.21875 0.1875q-0.09375 0.09375 -0.171875 0.21875q-0.0625 -0.140625 -0.140625 -0.234375q-0.078125 -0.109375 -0.171875 -0.1875q-0.140625 -0.09375 -0.328125 -0.140625q-0.171875 -0.046875 -0.390625 -0.046875q-0.390625 0 -0.671875 0.171875q-0.28125 0.171875 -0.453125 0.46875l-0.03125 -0.53125zm10.629166 6.40625l0 -0.78125l-4.765625 0l0 0.78125l4.765625 0zm1.8791656 -8.78125l0 0.84375l1.90625 0l0 6.328125l-1.90625 0l0 0.828125l4.703125 0l0 -0.828125l-1.828125 0l0 -7.171875l-2.875 0zm9.941666 8.0l1.0 0l0 -0.078125q-0.09375 -0.234375 -0.15625 -0.546875q-0.046875 -0.328125 -0.046875 -0.609375l0 -2.609375q0 -0.46875 -0.171875 -0.828125q-0.171875 -0.359375 -0.46875 -0.59375q-0.296875 -0.234375 -0.71875 -0.34375q-0.40625 -0.125 -0.875 -0.125q-0.53125 0 -0.953125 0.15625q-0.40625 0.140625 -0.6875 0.375q-0.296875 0.234375 -0.453125 0.53125q-0.140625 0.296875 -0.15625 0.609375l0.96875 0q0 -0.1875 0.078125 -0.34375q0.09375 -0.171875 0.25 -0.28125q0.15625 -0.125 0.375 -0.1875q0.234375 -0.078125 0.515625 -0.078125q0.3125 0 0.5625 0.078125q0.25 0.078125 0.421875 0.21875q0.171875 0.140625 0.265625 0.34375q0.09375 0.203125 0.09375 0.453125l0 0.453125l-1.0625 0q-0.578125 0 -1.0625 0.109375q-0.46875 0.109375 -0.8125 0.34375q-0.328125 0.234375 -0.515625 0.578125q-0.1875 0.34375 -0.1875 0.8125q0 0.359375 0.140625 0.671875q0.140625 0.296875 0.390625 0.515625q0.25 0.21875 0.609375 0.359375q0.359375 0.125 0.8125 0.125q0.265625 0 0.515625 -0.0625q0.25 -0.0625 0.46875 -0.15625q0.203125 -0.09375 0.375 -0.21875q0.1875 -0.140625 0.34375 -0.28125q0.015625 0.171875 0.046875 0.34375q0.03125 0.15625 0.09375 0.265625zm-1.703125 -0.734375q-0.28125 0 -0.5 -0.0625q-0.203125 -0.078125 -0.34375 -0.21875q-0.140625 -0.125 -0.21875 -0.296875q-0.0625 -0.171875 -0.0625 -0.390625q0 -0.21875 0.078125 -0.390625q0.078125 -0.171875 0.234375 -0.296875q0.21875 -0.171875 0.578125 -0.25q0.375 -0.09375 0.875 -0.09375l0.90625 0l0 1.140625q-0.09375 0.171875 -0.234375 0.328125q-0.140625 0.140625 -0.34375 0.265625q-0.203125 0.125 -0.453125 0.203125q-0.234375 0.0625 -0.515625 0.0625zm4.8322906 -4.890625l-0.859375 0l0 5.625l0.921875 0l0 -4.484375q0.03125 -0.078125 0.078125 -0.140625q0.046875 -0.078125 0.109375 -0.140625q0.09375 -0.078125 0.21875 -0.109375q0.125 -0.046875 0.296875 -0.046875q0.15625 0 0.265625 0.046875q0.125 0.03125 0.203125 0.125q0.09375 0.078125 0.125 0.21875q0.03125 0.140625 0.03125 0.3125l0 4.21875l0.921875 0l0 -4.21875q0 -0.03125 0 -0.046875q0 -0.03125 0 -0.046875q0.015625 -0.140625 0.0625 -0.234375q0.046875 -0.109375 0.125 -0.203125q0.09375 -0.078125 0.21875 -0.125q0.125 -0.046875 0.296875 -0.046875q0.15625 0 0.28125 0.046875q0.125 0.046875 0.203125 0.125q0.078125 0.09375 0.109375 0.234375q0.046875 0.125 0.046875 0.296875l0 4.21875l0.921875 0l0 -4.203125q0 -0.40625 -0.09375 -0.703125q-0.09375 -0.296875 -0.265625 -0.484375q-0.171875 -0.171875 -0.40625 -0.25q-0.234375 -0.09375 -0.515625 -0.09375q-0.21875 0 -0.40625 0.0625q-0.171875 0.046875 -0.3125 0.140625q-0.125 0.078125 -0.21875 0.1875q-0.09375 0.09375 -0.171875 0.21875q-0.0625 -0.140625 -0.140625 -0.234375q-0.078125 -0.109375 -0.171875 -0.1875q-0.140625 -0.09375 -0.328125 -0.140625q-0.171875 -0.046875 -0.390625 -0.046875q-0.390625 0 -0.671875 0.171875q-0.28125 0.171875 -0.453125 0.46875l-0.03125 -0.53125zm5.9572906 7.796875l0.953125 0l0 -2.71875q0.109375 0.125 0.21875 0.21875q0.125 0.09375 0.265625 0.171875q0.21875 0.125 0.5 0.1875q0.28125 0.078125 0.59375 0.078125q0.53125 0 0.9375 -0.21875q0.421875 -0.21875 0.703125 -0.609375q0.28125 -0.390625 0.421875 -0.90625q0.15625 -0.53125 0.15625 -1.125l0 -0.109375q0 -0.625 -0.15625 -1.15625q-0.140625 -0.53125 -0.421875 -0.90625q-0.28125 -0.390625 -0.703125 -0.59375q-0.40625 -0.21875 -0.953125 -0.21875q-0.296875 0 -0.5625 0.0625q-0.265625 0.0625 -0.484375 0.1875q-0.15625 0.09375 -0.296875 0.21875q-0.140625 0.109375 -0.25 0.25l-0.046875 -0.609375l-0.875 0l0 7.796875zm3.78125 -5.03125l0 0.109375q0 0.40625 -0.09375 0.78125q-0.078125 0.375 -0.265625 0.65625q-0.1875 0.296875 -0.484375 0.46875q-0.296875 0.15625 -0.6875 0.15625q-0.25 0 -0.453125 -0.0625q-0.203125 -0.0625 -0.375 -0.171875q-0.140625 -0.09375 -0.265625 -0.21875q-0.109375 -0.140625 -0.203125 -0.296875l0 -2.703125q0.109375 -0.1875 0.234375 -0.328125q0.125 -0.140625 0.296875 -0.25q0.15625 -0.09375 0.34375 -0.140625q0.1875 -0.0625 0.40625 -0.0625q0.40625 0 0.6875 0.171875q0.296875 0.171875 0.5 0.453125q0.1875 0.28125 0.265625 0.65625q0.09375 0.375 0.09375 0.78125zm4.5510406 2.234375q0 0.296875 0.1875 0.515625q0.1875 0.203125 0.5625 0.203125q0.375 0 0.5625 -0.203125q0.203125 -0.203125 0.203125 -0.515625q0 -0.3125 -0.203125 -0.53125q-0.1875 -0.21875 -0.5625 -0.21875q-0.375 0 -0.5625 0.21875q-0.1875 0.21875 -0.1875 0.53125zm0 -4.5625q0 0.296875 0.1875 0.515625q0.1875 0.203125 0.5625 0.203125q0.375 0 0.5625 -0.203125q0.203125 -0.203125 0.203125 -0.515625q0 -0.3125 -0.203125 -0.53125q-0.1875 -0.21875 -0.5625 -0.21875q-0.375 0 -0.5625 0.21875q-0.1875 0.21875 -0.1875 0.53125zm18.340622 4.375l0 -6.765625l-0.96875 0l0 7.578125l4.671875 0l0 -0.8125l-3.703125 0zm9.004166 0.8125l1.0 0l0 -0.078125q-0.09375 -0.234375 -0.15625 -0.546875q-0.046875 -0.328125 -0.046875 -0.609375l0 -2.609375q0 -0.46875 -0.171875 -0.828125q-0.171875 -0.359375 -0.46875 -0.59375q-0.296875 -0.234375 -0.71875 -0.34375q-0.40625 -0.125 -0.875 -0.125q-0.53125 0 -0.953125 0.15625q-0.40625 0.140625 -0.6875 0.375q-0.296875 0.234375 -0.453125 0.53125q-0.140625 0.296875 -0.15625 0.609375l0.96875 0q0 -0.1875 0.078125 -0.34375q0.09375 -0.171875 0.25 -0.28125q0.15625 -0.125 0.375 -0.1875q0.234375 -0.078125 0.515625 -0.078125q0.3125 0 0.5625 0.078125q0.25 0.078125 0.421875 0.21875q0.171875 0.140625 0.265625 0.34375q0.09375 0.203125 0.09375 0.453125l0 0.453125l-1.0625 0q-0.578125 0 -1.0625 0.109375q-0.46875 0.109375 -0.8125 0.34375q-0.328125 0.234375 -0.515625 0.578125q-0.1875 0.34375 -0.1875 0.8125q0 0.359375 0.140625 0.671875q0.140625 0.296875 0.390625 0.515625q0.25 0.21875 0.609375 0.359375q0.359375 0.125 0.8125 0.125q0.265625 0 0.515625 -0.0625q0.25 -0.0625 0.46875 -0.15625q0.203125 -0.09375 0.375 -0.21875q0.1875 -0.140625 0.34375 -0.28125q0.015625 0.171875 0.046875 0.34375q0.03125 0.15625 0.09375 0.265625zm-1.703125 -0.734375q-0.28125 0 -0.5 -0.0625q-0.203125 -0.078125 -0.34375 -0.21875q-0.140625 -0.125 -0.21875 -0.296875q-0.0625 -0.171875 -0.0625 -0.390625q0 -0.21875 0.078125 -0.390625q0.078125 -0.171875 0.234375 -0.296875q0.21875 -0.171875 0.578125 -0.25q0.375 -0.09375 0.875 -0.09375l0.90625 0l0 1.140625q-0.09375 0.171875 -0.234375 0.328125q-0.140625 0.140625 -0.34375 0.265625q-0.203125 0.125 -0.453125 0.203125q-0.234375 0.0625 -0.515625 0.0625zm4.8322906 -4.890625l-0.859375 0l0 5.625l0.921875 0l0 -4.484375q0.03125 -0.078125 0.078125 -0.140625q0.046875 -0.078125 0.109375 -0.140625q0.09375 -0.078125 0.21875 -0.109375q0.125 -0.046875 0.296875 -0.046875q0.15625 0 0.265625 0.046875q0.125 0.03125 0.203125 0.125q0.09375 0.078125 0.125 0.21875q0.03125 0.140625 0.03125 0.3125l0 4.21875l0.921875 0l0 -4.21875q0 -0.03125 0 -0.046875q0 -0.03125 0 -0.046875q0.015625 -0.140625 0.0625 -0.234375q0.046875 -0.109375 0.125 -0.203125q0.09375 -0.078125 0.21875 -0.125q0.125 -0.046875 0.296875 -0.046875q0.15625 0 0.28125 0.046875q0.125 0.046875 0.203125 0.125q0.078125 0.09375 0.109375 0.234375q0.046875 0.125 0.046875 0.296875l0 4.21875l0.921875 0l0 -4.203125q0 -0.40625 -0.09375 -0.703125q-0.09375 -0.296875 -0.265625 -0.484375q-0.171875 -0.171875 -0.40625 -0.25q-0.234375 -0.09375 -0.515625 -0.09375q-0.21875 0 -0.40625 0.0625q-0.171875 0.046875 -0.3125 0.140625q-0.125 0.078125 -0.21875 0.1875q-0.09375 0.09375 -0.171875 0.21875q-0.0625 -0.140625 -0.140625 -0.234375q-0.078125 -0.109375 -0.171875 -0.1875q-0.140625 -0.09375 -0.328125 -0.140625q-0.171875 -0.046875 -0.390625 -0.046875q-0.390625 0 -0.671875 0.171875q-0.28125 0.171875 -0.453125 0.46875l-0.03125 -0.53125zm5.9572906 7.796875l0.953125 0l0 -2.71875q0.109375 0.125 0.21875 0.21875q0.125 0.09375 0.265625 0.171875q0.21875 0.125 0.5 0.1875q0.28125 0.078125 0.59375 0.078125q0.53125 0 0.9375 -0.21875q0.421875 -0.21875 0.703125 -0.609375q0.28125 -0.390625 0.421875 -0.90625q0.15625 -0.53125 0.15625 -1.125l0 -0.109375q0 -0.625 -0.15625 -1.15625q-0.140625 -0.53125 -0.421875 -0.90625q-0.28125 -0.390625 -0.703125 -0.59375q-0.40625 -0.21875 -0.953125 -0.21875q-0.296875 0 -0.5625 0.0625q-0.265625 0.0625 -0.484375 0.1875q-0.15625 0.09375 -0.296875 0.21875q-0.140625 0.109375 -0.25 0.25l-0.046875 -0.609375l-0.875 0l0 7.796875zm3.78125 -5.03125l0 0.109375q0 0.40625 -0.09375 0.78125q-0.078125 0.375 -0.265625 0.65625q-0.1875 0.296875 -0.484375 0.46875q-0.296875 0.15625 -0.6875 0.15625q-0.25 0 -0.453125 -0.0625q-0.203125 -0.0625 -0.375 -0.171875q-0.140625 -0.09375 -0.265625 -0.21875q-0.109375 -0.140625 -0.203125 -0.296875l0 -2.703125q0.109375 -0.1875 0.234375 -0.328125q0.125 -0.140625 0.296875 -0.25q0.15625 -0.09375 0.34375 -0.140625q0.1875 -0.0625 0.40625 -0.0625q0.40625 0 0.6875 0.171875q0.296875 0.171875 0.5 0.453125q0.1875 0.28125 0.265625 0.65625q0.09375 0.375 0.09375 0.78125zm2.2697906 0.921875q0 0.4375 0.15625 0.828125q0.15625 0.375 0.453125 0.640625q0.28125 0.265625 0.703125 0.421875q0.421875 0.15625 0.921875 0.15625q0.328125 0 0.625 -0.078125q0.296875 -0.0625 0.578125 -0.1875q0.15625 -0.078125 0.3125 -0.1875q0.171875 -0.109375 0.3125 -0.234375l0.4375 0.578125l1.140625 0l-0.9375 -1.234375q0.359375 -0.453125 0.546875 -1.015625q0.203125 -0.578125 0.203125 -1.25l-0.875 0q0 0.46875 -0.109375 0.859375q-0.109375 0.390625 -0.28125 0.71875l-1.609375 -2.09375l0.5 -0.40625q0.21875 -0.171875 0.421875 -0.34375q0.203125 -0.1875 0.34375 -0.390625q0.140625 -0.1875 0.21875 -0.40625q0.078125 -0.234375 0.078125 -0.515625q0 -0.328125 -0.109375 -0.609375q-0.109375 -0.296875 -0.328125 -0.515625q-0.203125 -0.21875 -0.515625 -0.34375q-0.296875 -0.140625 -0.671875 -0.140625q-0.421875 0 -0.765625 0.125q-0.34375 0.109375 -0.578125 0.34375q-0.25 0.234375 -0.390625 0.578125q-0.125 0.34375 -0.125 0.78125q0 0.203125 0.046875 0.40625q0.046875 0.203125 0.125 0.390625q0.09375 0.234375 0.234375 0.484375q0.15625 0.234375 0.359375 0.5l-0.1875 0.125q-0.265625 0.203125 -0.484375 0.40625q-0.203125 0.1875 -0.359375 0.40625q-0.1875 0.265625 -0.296875 0.5625q-0.09375 0.28125 -0.09375 0.640625zm2.234375 1.265625q-0.3125 0 -0.546875 -0.09375q-0.234375 -0.109375 -0.40625 -0.28125q-0.15625 -0.171875 -0.25 -0.390625q-0.078125 -0.234375 -0.078125 -0.5q0 -0.109375 0.03125 -0.25q0.03125 -0.15625 0.125 -0.328125q0.078125 -0.171875 0.234375 -0.375q0.171875 -0.203125 0.421875 -0.421875l0.15625 -0.125l1.671875 2.234375q-0.125 0.109375 -0.265625 0.203125q-0.125 0.078125 -0.265625 0.140625q-0.1875 0.09375 -0.40625 0.140625q-0.203125 0.046875 -0.421875 0.046875zm-0.609375 -5.203125q0 -0.203125 0.046875 -0.390625q0.0625 -0.1875 0.1875 -0.328125q0.109375 -0.140625 0.265625 -0.21875q0.171875 -0.078125 0.390625 -0.078125q0.171875 0 0.3125 0.078125q0.140625 0.0625 0.234375 0.171875q0.09375 0.109375 0.140625 0.265625q0.046875 0.140625 0.046875 0.296875q0 0.125 -0.03125 0.25q-0.015625 0.125 -0.0625 0.234375q-0.0625 0.125 -0.171875 0.25q-0.09375 0.125 -0.265625 0.234375l-0.609375 0.484375q-0.125 -0.1875 -0.21875 -0.359375q-0.09375 -0.1875 -0.15625 -0.359375q-0.0625 -0.125 -0.09375 -0.25q-0.015625 -0.140625 -0.015625 -0.28125z" fill-rule="nonzero"/><path fill="#000000" fill-opacity="0.0" d="m175.55872 37.979004l71.30708 0l0 27.46457l-71.30708 0z" fill-rule="evenodd"/><path fill="#000000" d="m202.54198 56.511288l0 -1.015625q-0.8125 1.171875 -2.1875 1.171875q-0.609375 0 -1.140625 -0.234375q-0.53125 -0.234375 -0.796875 -0.578125q-0.25 -0.359375 -0.359375 -0.875q-0.0625 -0.34375 -0.0625 -1.09375l0 -4.28125l1.171875 0l0 3.828125q0 0.921875 0.0625 1.234375q0.109375 0.46875 0.46875 0.734375q0.359375 0.25 0.890625 0.25q0.515625 0 0.984375 -0.265625q0.46875 -0.265625 0.65625 -0.734375q0.1875 -0.46875 0.1875 -1.34375l0 -3.703125l1.171875 0l0 6.90625l-1.046875 0zm2.4124756 -2.0625l1.15625 -0.1875q0.109375 0.703125 0.546875 1.078125q0.453125 0.359375 1.25 0.359375q0.8125 0 1.203125 -0.328125q0.390625 -0.328125 0.390625 -0.765625q0 -0.390625 -0.359375 -0.625q-0.234375 -0.15625 -1.1875 -0.390625q-1.296875 -0.328125 -1.796875 -0.5625q-0.484375 -0.25 -0.75 -0.65625q-0.25 -0.421875 -0.25 -0.9375q0 -0.453125 0.203125 -0.84375q0.21875 -0.40625 0.578125 -0.671875q0.28125 -0.1875 0.75 -0.328125q0.46875 -0.140625 1.015625 -0.140625q0.8125 0 1.421875 0.234375q0.609375 0.234375 0.90625 0.640625q0.296875 0.390625 0.40625 1.0625l-1.140625 0.15625q-0.078125 -0.53125 -0.453125 -0.828125q-0.375 -0.3125 -1.0625 -0.3125q-0.8125 0 -1.15625 0.265625q-0.34375 0.265625 -0.34375 0.625q0 0.234375 0.140625 0.421875q0.15625 0.1875 0.453125 0.3125q0.171875 0.0625 1.03125 0.296875q1.25 0.328125 1.734375 0.546875q0.5 0.203125 0.78125 0.609375q0.28125 0.40625 0.28125 1.0q0 0.59375 -0.34375 1.109375q-0.34375 0.515625 -1.0 0.796875q-0.640625 0.28125 -1.453125 0.28125q-1.34375 0 -2.046875 -0.5625q-0.703125 -0.5625 -0.90625 -1.65625zm11.8671875 -0.15625l1.203125 0.140625q-0.28125 1.0625 -1.0625 1.65625q-0.765625 0.578125 -1.96875 0.578125q-1.515625 0 -2.40625 -0.9375q-0.890625 -0.9375 -0.890625 -2.609375q0 -1.75 0.890625 -2.703125q0.90625 -0.96875 2.34375 -0.96875q1.390625 0 2.265625 0.9375q0.875 0.9375 0.875 2.65625q0 0.109375 0 0.3125l-5.15625 0q0.0625 1.140625 0.640625 1.75q0.578125 0.59375 1.4375 0.59375q0.65625 0 1.109375 -0.328125q0.453125 -0.34375 0.71875 -1.078125zm-3.84375 -1.90625l3.859375 0q-0.078125 -0.859375 -0.4375 -1.296875q-0.5625 -0.6875 -1.453125 -0.6875q-0.8125 0 -1.359375 0.546875q-0.546875 0.53125 -0.609375 1.4375zm6.0531006 2.0625l1.15625 -0.1875q0.109375 0.703125 0.546875 1.078125q0.453125 0.359375 1.25 0.359375q0.8125 0 1.203125 -0.328125q0.390625 -0.328125 0.390625 -0.765625q0 -0.390625 -0.359375 -0.625q-0.234375 -0.15625 -1.1875 -0.390625q-1.296875 -0.328125 -1.796875 -0.5625q-0.484375 -0.25 -0.75 -0.65625q-0.25 -0.421875 -0.25 -0.9375q0 -0.453125 0.203125 -0.84375q0.21875 -0.40625 0.578125 -0.671875q0.28125 -0.1875 0.75 -0.328125q0.46875 -0.140625 1.015625 -0.140625q0.8125 0 1.421875 0.234375q0.609375 0.234375 0.90625 0.640625q0.296875 0.390625 0.40625 1.0625l-1.140625 0.15625q-0.078125 -0.53125 -0.453125 -0.828125q-0.375 -0.3125 -1.0625 -0.3125q-0.8125 0 -1.15625 0.265625q-0.34375 0.265625 -0.34375 0.625q0 0.234375 0.140625 0.421875q0.15625 0.1875 0.453125 0.3125q0.171875 0.0625 1.03125 0.296875q1.25 0.328125 1.734375 0.546875q0.5 0.203125 0.78125 0.609375q0.28125 0.40625 0.28125 1.0q0 0.59375 -0.34375 1.109375q-0.34375 0.515625 -1.0 0.796875q-0.640625 0.28125 -1.453125 0.28125q-1.34375 0 -2.046875 -0.5625q-0.703125 -0.5625 -0.90625 -1.65625z" fill-rule="nonzero"/></g></svg>