<svg version="1.1" viewBox="0.0 0.0 499.0 100.0" fill="none" stroke="none" stroke-linecap="square" stroke-miterlimit="10" xmlns:xlink="http://www.w3.org/1999/xlink" xmlns="http://www.w3.org/2000/svg"><clipPath id="p.0"><path d="m0 0l499.0 0l0 100.0l-499.0 0l0 -100.0z" clip-rule="nonzero"/></clipPath><g clip-path="url(#p.0)"><path fill="#000000" fill-opacity="0.0" d="m0 0l499.0 0l0 100.0l-499.0 0z" fill-rule="evenodd"/><path fill="#b6d7a8" d="m97.22835 31.102362l37.795273 0l0 37.795273l-37.795273 0z" fill-rule="evenodd"/><path stroke="#000000" stroke-width="2.0" stroke-linejoin="round" stroke-linecap="butt" d="m97.22835 31.102362l37.795273 0l0 37.795273l-37.795273 0z" fill-rule="evenodd"/><path fill="#b6d7a8" d="m9.645669 31.102362l37.795277 0l0 37.795273l-37.795277 0z" fill-rule="evenodd"/><path stroke="#000000" stroke-width="2.0" stroke-linejoin="round" stroke-linecap="butt" d="m9.645669 31.102362l37.795277 0l0 37.795273l-37.795277 0z" fill-rule="evenodd"/><path fill="#b6d7a8" d="m272.3937 31.102362l37.795258 0l0 37.795273l-37.795258 0z" fill-rule="evenodd"/><path stroke="#000000" stroke-width="2.0" stroke-linejoin="round" stroke-linecap="butt" d="m272.3937 31.102362l37.795258 0l0 37.795273l-37.795258 0z" fill-rule="evenodd"/><path fill="#b6d7a8" d="m184.81102 31.102362l37.795273 0l0 37.795273l-37.795273 0z" fill-rule="evenodd"/><path stroke="#000000" stroke-width="2.0" stroke-linejoin="round" stroke-linecap="butt" d="m184.81102 31.102362l37.795273 0l0 37.795273l-37.795273 0z" fill-rule="evenodd"/><path fill="#b6d7a8" d="m447.55905 31.102362l37.795288 0l0 37.795273l-37.795288 0z" fill-rule="evenodd"/><path stroke="#000000" stroke-width="2.0" stroke-linejoin="round" stroke-linecap="butt" d="m447.55905 31.102362l37.795288 0l0 37.795273l-37.795288 0z" fill-rule="evenodd"/><path fill="#b6d7a8" d="m359.97638 31.102362l37.795288 0l0 37.795273l-37.795288 0z" fill-rule="evenodd"/><path stroke="#000000" stroke-width="2.0" stroke-linejoin="round" stroke-linecap="butt" d="m359.97638 31.102362l37.795288 0l0 37.795273l-37.795288 0z" fill-rule="evenodd"/><path fill="#000000" fill-opacity="0.0" d="m47.440945 50.0l49.795277 0" fill-rule="evenodd"/><path stroke="#000000" stroke-width="2.0" stroke-linejoin="round" stroke-linecap="butt" d="m47.440945 50.0l37.795277 0" fill-rule="evenodd"/><path fill="#000000" stroke="#000000" stroke-width="2.0" stroke-linecap="butt" d="m85.23622 53.303463l9.076195 -3.303463l-9.076195 -3.303463z" fill-rule="evenodd"/><path fill="#000000" fill-opacity="0.0" d="m135.02362 50.0l49.795273 0" fill-rule="evenodd"/><path stroke="#000000" stroke-width="2.0" stroke-linejoin="round" stroke-linecap="butt" d="m135.02362 50.0l37.795273 0" fill-rule="evenodd"/><path fill="#000000" stroke="#000000" stroke-width="2.0" stroke-linecap="butt" d="m172.8189 53.303463l9.076202 -3.303463l-9.076202 -3.303463z" fill-rule="evenodd"/><path fill="#000000" fill-opacity="0.0" d="m222.6063 50.0l49.795288 0" fill-rule="evenodd"/><path stroke="#000000" stroke-width="2.0" stroke-linejoin="round" stroke-linecap="butt" d="m222.6063 50.0l37.795288 0" fill-rule="evenodd"/><path fill="#000000" stroke="#000000" stroke-width="2.0" stroke-linecap="butt" d="m260.40158 53.303463l9.076202 -3.303463l-9.076202 -3.303463z" fill-rule="evenodd"/><path fill="#000000" fill-opacity="0.0" d="m310.18896 50.0l49.795288 0" fill-rule="evenodd"/><path stroke="#000000" stroke-width="2.0" stroke-linejoin="round" stroke-linecap="butt" d="m310.18896 50.0l37.795288 0" fill-rule="evenodd"/><path fill="#000000" stroke="#000000" stroke-width="2.0" stroke-linecap="butt" d="m347.98425 53.303463l9.076202 -3.303463l-9.076202 -3.303463z" fill-rule="evenodd"/><path fill="#000000" fill-opacity="0.0" d="m397.77167 50.0l49.795258 0" fill-rule="evenodd"/><path stroke="#000000" stroke-width="2.0" stroke-linejoin="round" stroke-linecap="butt" d="m397.77167 50.0l37.795258 0" fill-rule="evenodd"/><path fill="#000000" stroke="#000000" stroke-width="2.0" stroke-linecap="butt" d="m435.56693 53.303463l9.076202 -3.303463l-9.076202 -3.303463z" fill-rule="evenodd"/></g></svg>