<svg version="1.1" viewBox="0.0 0.0 286.73753280839895 123.79002624671917" fill="none" stroke="none" stroke-linecap="square" stroke-miterlimit="10" xmlns:xlink="http://www.w3.org/1999/xlink" xmlns="http://www.w3.org/2000/svg"><clipPath id="p.0"><path d="m0 0l286.73752 0l0 123.79002l-286.73752 0l0 -123.79002z" clip-rule="nonzero"/></clipPath><g clip-path="url(#p.0)"><path fill="#000000" fill-opacity="0.0" d="m0 0l286.73752 0l0 123.79002l-286.73752 0z" fill-rule="evenodd"/><path fill="#b6d7a8" d="m7.6614175 67.97638l37.795273 0l0 37.795273l-37.795273 0z" fill-rule="evenodd"/><path stroke="#000000" stroke-width="2.0" stroke-linejoin="round" stroke-linecap="butt" d="m7.6614175 67.97638l37.795273 0l0 37.795273l-37.795273 0z" fill-rule="evenodd"/><path fill="#000000" fill-opacity="0.0" d="m7.6614175 6.086614l264.25198 0l0 38.771656l-264.25198 0z" fill-rule="evenodd"/><path fill="#000000" d="m127.896774 27.571615q0 0.46875 -0.203125 0.8125q-0.203125 0.328125 -0.515625 0.546875q-0.328125 0.234375 -0.734375 0.34375q-0.40625 0.09375 -0.828125 0.09375q-0.53125 0 -0.984375 -0.140625q-0.453125 -0.140625 -0.796875 -0.4375q-0.34375 -0.28125 -0.5625 -0.6875q-0.21875 -0.40625 -0.28125 -0.9375l-1.484375 0q0.03125 0.734375 0.328125 1.328125q0.296875 0.59375 0.8125 1.046875q0.578125 0.515625 1.359375 0.796875q0.796875 0.265625 1.609375 0.265625q0.671875 0 1.34375 -0.1875q0.6875 -0.203125 1.234375 -0.578125q0.53125 -0.375 0.875 -0.9375q0.34375 -0.578125 0.34375 -1.34375q0 -0.765625 -0.328125 -1.34375q-0.3125 -0.578125 -0.828125 -0.96875q-0.515625 -0.4375 -1.15625 -0.703125q-0.625 -0.28125 -1.265625 -0.484375q-0.375 -0.109375 -0.8125 -0.265625q-0.4375 -0.15625 -0.796875 -0.390625q-0.375 -0.234375 -0.625 -0.578125q-0.234375 -0.34375 -0.25 -0.828125q0 -0.453125 0.1875 -0.796875q0.1875 -0.34375 0.5 -0.578125q0.296875 -0.234375 0.6875 -0.34375q0.40625 -0.125 0.8125 -0.125q0.515625 0 0.921875 0.15625q0.421875 0.15625 0.71875 0.453125q0.296875 0.28125 0.46875 0.6875q0.1875 0.40625 0.25 0.890625l1.484375 0q-0.015625 -0.78125 -0.34375 -1.40625q-0.3125 -0.640625 -0.84375 -1.078125q-0.53125 -0.453125 -1.21875 -0.6875q-0.6875 -0.25 -1.4375 -0.25q-0.671875 0 -1.34375 0.203125q-0.65625 0.203125 -1.171875 0.609375q-0.53125 0.390625 -0.859375 0.96875q-0.3125 0.578125 -0.3125 1.3125q0 0.734375 0.3125 1.28125q0.328125 0.546875 0.84375 0.9375q0.515625 0.390625 1.125 0.671875q0.625 0.28125 1.234375 0.46875q0.40625 0.140625 0.859375 0.3125q0.453125 0.15625 0.828125 0.390625q0.375 0.25 0.609375 0.609375q0.234375 0.359375 0.234375 0.890625zm3.8828125 -5.578125l0 1.25l2.875 0l0 5.953125l-2.875 0l0 1.25l7.078125 0l0 -1.25l-2.765625 0l0 -7.203125l-4.3125 0zm2.6875 -2.21875q0 0.34375 0.203125 0.578125q0.21875 0.234375 0.65625 0.234375q0.4375 0 0.65625 -0.234375q0.21875 -0.234375 0.21875 -0.578125q0 -0.203125 -0.0625 -0.359375q-0.0625 -0.171875 -0.1875 -0.28125q-0.109375 -0.09375 -0.265625 -0.15625q-0.15625 -0.0625 -0.359375 -0.0625q-0.203125 0 -0.359375 0.0625q-0.15625 0.0625 -0.265625 0.15625q-0.125 0.125 -0.1875 0.296875q-0.046875 0.15625 -0.046875 0.34375zm8.4140625 9.484375l5.109375 -6.25l0 -1.015625l-6.875 0l0 1.1875l4.96875 0l-5.046875 6.203125l0 1.0625l7.234375 0l0 -1.1875l-5.390625 0zm11.6015625 1.34375q1.234375 0 2.078125 -0.5q0.84375 -0.5 1.265625 -1.140625l-0.890625 -0.6875q-0.390625 0.515625 -1.0 0.828125q-0.59375 0.3125 -1.375 0.3125q-0.578125 0 -1.0625 -0.21875q-0.484375 -0.21875 -0.828125 -0.59375q-0.34375 -0.359375 -0.53125 -0.828125q-0.1875 -0.46875 -0.25 -1.09375l0 -0.046875l6.046875 0l0 -0.65625q0 -0.875 -0.234375 -1.625q-0.21875 -0.765625 -0.671875 -1.328125q-0.453125 -0.5625 -1.140625 -0.875q-0.671875 -0.3125 -1.59375 -0.3125q-0.71875 0 -1.421875 0.296875q-0.6875 0.296875 -1.21875 0.84375q-0.546875 0.5625 -0.875 1.375q-0.328125 0.8125 -0.328125 1.828125l0 0.328125q0 0.890625 0.296875 1.640625q0.296875 0.75 0.828125 1.296875q0.53125 0.546875 1.265625 0.859375q0.75 0.296875 1.640625 0.296875zm-0.1875 -7.578125q0.5625 0 0.953125 0.203125q0.40625 0.203125 0.671875 0.53125q0.265625 0.328125 0.40625 0.78125q0.15625 0.4375 0.15625 0.828125l0 0.078125l-4.546875 0q0.09375 -0.59375 0.296875 -1.03125q0.21875 -0.453125 0.53125 -0.765625q0.3125 -0.3125 0.703125 -0.46875q0.390625 -0.15625 0.828125 -0.15625z" fill-rule="nonzero"/><path fill="#b6d7a8" d="m83.25197 67.97638l37.795273 0l0 37.795273l-37.795273 0z" fill-rule="evenodd"/><path stroke="#000000" stroke-width="2.0" stroke-linejoin="round" stroke-linecap="butt" d="m83.25197 67.97638l37.795273 0l0 37.795273l-37.795273 0z" fill-rule="evenodd"/><path fill="#b6d7a8" d="m45.45669 67.97638l37.795277 0l0 37.795273l-37.795277 0z" fill-rule="evenodd"/><path stroke="#000000" stroke-width="2.0" stroke-linejoin="round" stroke-linecap="butt" d="m45.45669 67.97638l37.795277 0l0 37.795273l-37.795277 0z" fill-rule="evenodd"/><path fill="#b6d7a8" d="m121.04724 67.97638l37.795273 0l0 37.795273l-37.795273 0z" fill-rule="evenodd"/><path stroke="#000000" stroke-width="2.0" stroke-linejoin="round" stroke-linecap="butt" d="m121.04724 67.97638l37.795273 0l0 37.795273l-37.795273 0z" fill-rule="evenodd"/><path fill="#b6d7a8" d="m158.84251 67.97638l37.795288 0l0 37.795273l-37.795288 0z" fill-rule="evenodd"/><path stroke="#000000" stroke-width="2.0" stroke-linejoin="round" stroke-linecap="butt" d="m158.84251 67.97638l37.795288 0l0 37.795273l-37.795288 0z" fill-rule="evenodd"/><path fill="#b6d7a8" d="m234.43307 67.97638l37.795258 0l0 37.795273l-37.795258 0z" fill-rule="evenodd"/><path stroke="#000000" stroke-width="2.0" stroke-linejoin="round" stroke-linecap="butt" d="m234.43307 67.97638l37.795258 0l0 37.795273l-37.795258 0z" fill-rule="evenodd"/><path fill="#b6d7a8" d="m196.6378 67.97638l37.795273 0l0 37.795273l-37.795273 0z" fill-rule="evenodd"/><path stroke="#000000" stroke-width="2.0" stroke-linejoin="round" stroke-linecap="butt" d="m196.6378 67.97638l37.795273 0l0 37.795273l-37.795273 0z" fill-rule="evenodd"/><path fill="#000000" fill-opacity="0.0" d="m7.6614175 48.102364l264.25198 0.37795258" fill-rule="evenodd"/><path stroke="#000000" stroke-width="2.0" stroke-linejoin="round" stroke-linecap="butt" d="m14.515584 48.112164l250.54362 0.35834885" fill-rule="evenodd"/><path fill="#000000" stroke="#000000" stroke-width="2.0" stroke-linecap="butt" d="m14.515583 48.112167l2.2523823 -2.2459488l-6.182747 2.240326l6.1763134 2.2580032z" fill-rule="evenodd"/><path fill="#000000" stroke="#000000" stroke-width="2.0" stroke-linecap="butt" d="m265.05923 48.470512l-2.252411 2.2459488l6.18277 -2.2403297l-6.1763306 -2.2580032z" fill-rule="evenodd"/></g></svg>