<svg version="1.1" viewBox="0.0 0.0 567.0 165.501312335958" fill="none" stroke="none" stroke-linecap="square" stroke-miterlimit="10" xmlns:xlink="http://www.w3.org/1999/xlink" xmlns="http://www.w3.org/2000/svg"><clipPath id="p.0"><path d="m0 0l567.0 0l0 165.50131l-567.0 0l0 -165.50131z" clip-rule="nonzero"/></clipPath><g clip-path="url(#p.0)"><path fill="#000000" fill-opacity="0.0" d="m0 0l567.0 0l0 165.50131l-567.0 0z" fill-rule="evenodd"/><path fill="#b6d7a8" d="m106.50131 6.8412075l37.795273 0l0 37.795273l-37.795273 0z" fill-rule="evenodd"/><path stroke="#000000" stroke-width="2.0" stroke-linejoin="round" stroke-linecap="butt" d="m106.50131 6.8412075l37.795273 0l0 37.795273l-37.795273 0z" fill-rule="evenodd"/><path fill="#000000" d="m126.91848 31.598845l-1.40625 0l0 -8.96875q-0.515625 0.484375 -1.34375 0.96875q-0.8125 0.484375 -1.46875 0.734375l0 -1.359375q1.171875 -0.5625 2.046875 -1.34375q0.890625 -0.796875 1.265625 -1.53125l0.90625 0l0 11.5z" fill-rule="nonzero"/><path fill="#b6d7a8" d="m182.09186 6.8412075l37.795288 0l0 37.795273l-37.795288 0z" fill-rule="evenodd"/><path stroke="#000000" stroke-width="2.0" stroke-linejoin="round" stroke-linecap="butt" d="m182.09186 6.8412075l37.795288 0l0 37.795273l-37.795288 0z" fill-rule="evenodd"/><path fill="#000000" d="m197.21216 28.567595l1.40625 -0.1875q0.25 1.203125 0.828125 1.734375q0.578125 0.515625 1.421875 0.515625q0.984375 0 1.671875 -0.6875q0.6875 -0.6875 0.6875 -1.703125q0 -0.96875 -0.640625 -1.59375q-0.625 -0.625 -1.609375 -0.625q-0.390625 0 -0.984375 0.15625l0.15625 -1.234375q0.140625 0.015625 0.21875 0.015625q0.90625 0 1.625 -0.46875q0.71875 -0.46875 0.71875 -1.453125q0 -0.765625 -0.53125 -1.265625q-0.515625 -0.515625 -1.34375 -0.515625q-0.828125 0 -1.375 0.515625q-0.546875 0.515625 -0.703125 1.546875l-1.40625 -0.25q0.265625 -1.421875 1.171875 -2.1875q0.921875 -0.78125 2.28125 -0.78125q0.9375 0 1.71875 0.40625q0.796875 0.390625 1.203125 1.09375q0.421875 0.6875 0.421875 1.46875q0 0.75 -0.40625 1.359375q-0.390625 0.609375 -1.171875 0.96875q1.015625 0.234375 1.578125 0.96875q0.5625 0.734375 0.5625 1.84375q0 1.5 -1.09375 2.546875q-1.09375 1.046875 -2.765625 1.046875q-1.5 0 -2.5 -0.890625q-1.0 -0.90625 -1.140625 -2.34375z" fill-rule="nonzero"/><path fill="#b6d7a8" d="m144.29659 6.8412075l37.795273 0l0 37.795273l-37.795273 0z" fill-rule="evenodd"/><path stroke="#000000" stroke-width="2.0" stroke-linejoin="round" stroke-linecap="butt" d="m144.29659 6.8412075l37.795273 0l0 37.795273l-37.795273 0z" fill-rule="evenodd"/><path fill="#000000" d="m166.80751 30.23947l0 1.359375l-7.578125 0q-0.015625 -0.515625 0.171875 -0.984375q0.28125 -0.765625 0.921875 -1.515625q0.640625 -0.75 1.84375 -1.734375q1.859375 -1.53125 2.515625 -2.421875q0.65625 -0.90625 0.65625 -1.703125q0 -0.828125 -0.59375 -1.40625q-0.59375 -0.578125 -1.5625 -0.578125q-1.015625 0 -1.625 0.609375q-0.609375 0.609375 -0.609375 1.6875l-1.453125 -0.140625q0.15625 -1.625 1.125 -2.46875q0.96875 -0.84375 2.59375 -0.84375q1.65625 0 2.609375 0.921875q0.96875 0.90625 0.96875 2.25q0 0.6875 -0.28125 1.359375q-0.28125 0.65625 -0.9375 1.390625q-0.65625 0.734375 -2.171875 2.015625q-1.265625 1.0625 -1.625 1.453125q-0.359375 0.375 -0.59375 0.75l5.625 0z" fill-rule="nonzero"/><path fill="#b6d7a8" d="m219.88715 6.8412075l37.795258 0l0 37.795273l-37.795258 0z" fill-rule="evenodd"/><path stroke="#000000" stroke-width="2.0" stroke-linejoin="round" stroke-linecap="butt" d="m219.88715 6.8412075l37.795258 0l0 37.795273l-37.795258 0z" fill-rule="evenodd"/><path fill="#000000" d="m239.50743 31.598845l0 -2.75l-4.96875 0l0 -1.28125l5.234375 -7.421875l1.140625 0l0 7.421875l1.546875 0l0 1.28125l-1.546875 0l0 2.75l-1.40625 0zm0 -4.03125l0 -5.171875l-3.578125 5.171875l3.578125 0z" fill-rule="nonzero"/><path fill="#b6d7a8" d="m257.6824 6.8412075l37.795288 0l0 37.795273l-37.795288 0z" fill-rule="evenodd"/><path stroke="#000000" stroke-width="2.0" stroke-linejoin="round" stroke-linecap="butt" d="m257.6824 6.8412075l37.795288 0l0 37.795273l-37.795288 0z" fill-rule="evenodd"/><path fill="#000000" d="m272.8027 28.598845l1.46875 -0.125q0.171875 1.078125 0.765625 1.625q0.59375 0.53125 1.4375 0.53125q1.015625 0 1.71875 -0.765625q0.703125 -0.765625 0.703125 -2.03125q0 -1.203125 -0.671875 -1.890625q-0.671875 -0.703125 -1.765625 -0.703125q-0.6875 0 -1.234375 0.3125q-0.546875 0.3125 -0.859375 0.796875l-1.3125 -0.171875l1.109375 -5.875l5.6875 0l0 1.34375l-4.5625 0l-0.625 3.078125q1.03125 -0.71875 2.171875 -0.71875q1.5 0 2.53125 1.046875q1.03125 1.03125 1.03125 2.65625q0 1.5625 -0.90625 2.6875q-1.109375 1.40625 -3.015625 1.40625q-1.5625 0 -2.546875 -0.875q-0.984375 -0.890625 -1.125 -2.328125z" fill-rule="nonzero"/><path fill="#b6d7a8" d="m333.27298 6.8412075l37.795258 0l0 37.795273l-37.795258 0z" fill-rule="evenodd"/><path stroke="#000000" stroke-width="2.0" stroke-linejoin="round" stroke-linecap="butt" d="m333.27298 6.8412075l37.795258 0l0 37.795273l-37.795258 0z" fill-rule="evenodd"/><path fill="#000000" d="m348.487 21.64572l0 -1.359375l7.40625 0l0 1.09375q-1.09375 1.171875 -2.171875 3.109375q-1.0625 1.921875 -1.65625 3.953125q-0.421875 1.4375 -0.53125 3.15625l-1.453125 0q0.03125 -1.359375 0.53125 -3.265625q0.515625 -1.921875 1.453125 -3.6875q0.953125 -1.78125 2.03125 -3.0l-5.609375 0z" fill-rule="nonzero"/><path fill="#b6d7a8" d="m295.4777 6.8412075l37.795288 0l0 37.795273l-37.795288 0z" fill-rule="evenodd"/><path stroke="#000000" stroke-width="2.0" stroke-linejoin="round" stroke-linecap="butt" d="m295.4777 6.8412075l37.795288 0l0 37.795273l-37.795288 0z" fill-rule="evenodd"/><path fill="#000000" d="m317.89487 22.942595l-1.40625 0.109375q-0.1875 -0.828125 -0.53125 -1.203125q-0.5625 -0.59375 -1.40625 -0.59375q-0.671875 0 -1.171875 0.375q-0.671875 0.484375 -1.0625 1.421875q-0.375 0.921875 -0.390625 2.640625q0.515625 -0.78125 1.25 -1.15625q0.734375 -0.375 1.53125 -0.375q1.40625 0 2.390625 1.046875q1.0 1.03125 1.0 2.671875q0 1.078125 -0.46875 2.0q-0.46875 0.921875 -1.28125 1.421875q-0.8125 0.5 -1.84375 0.5q-1.75 0 -2.859375 -1.296875q-1.109375 -1.296875 -1.109375 -4.265625q0 -3.328125 1.21875 -4.828125q1.078125 -1.3125 2.890625 -1.3125q1.34375 0 2.203125 0.765625q0.875 0.75 1.046875 2.078125zm-5.75 4.9375q0 0.734375 0.3125 1.40625q0.3125 0.65625 0.859375 1.0q0.5625 0.34375 1.171875 0.34375q0.890625 0 1.53125 -0.71875q0.640625 -0.71875 0.640625 -1.953125q0 -1.1875 -0.640625 -1.859375q-0.625 -0.6875 -1.59375 -0.6875q-0.953125 0 -1.625 0.6875q-0.65625 0.671875 -0.65625 1.78125z" fill-rule="nonzero"/><path fill="#b6d7a8" d="m408.86353 6.8412075l37.795258 0l0 37.795273l-37.795258 0z" fill-rule="evenodd"/><path stroke="#000000" stroke-width="2.0" stroke-linejoin="round" stroke-linecap="butt" d="m408.86353 6.8412075l37.795258 0l0 37.795273l-37.795258 0z" fill-rule="evenodd"/><path fill="#000000" d="m424.18695 28.942595l1.3593445 -0.125q0.171875 0.953125 0.65625 1.390625q0.484375 0.421875 1.234375 0.421875q0.65625 0 1.140625 -0.296875q0.484375 -0.296875 0.796875 -0.78125q0.3125 -0.5 0.515625 -1.34375q0.21875 -0.84375 0.21875 -1.71875q0 -0.09375 0 -0.28125q-0.421875 0.671875 -1.15625 1.09375q-0.734375 0.40625 -1.578125 0.40625q-1.421875 0 -2.40625 -1.03125q-0.9843445 -1.03125 -0.9843445 -2.71875q0 -1.734375 1.0155945 -2.796875q1.03125 -1.0625 2.578125 -1.0625q1.125 0 2.046875 0.609375q0.921875 0.59375 1.40625 1.703125q0.484375 1.109375 0.484375 3.21875q0 2.203125 -0.484375 3.5q-0.46875 1.296875 -1.421875 1.984375q-0.9375 0.6875 -2.203125 0.6875q-1.34375 0 -2.203125 -0.75q-0.8437195 -0.75 -1.0155945 -2.109375zm5.7655945 -5.046875q0 -1.21875 -0.65625 -1.921875q-0.640625 -0.71875 -1.546875 -0.71875q-0.9375 0 -1.640625 0.765625q-0.6875 0.765625 -0.6875 1.984375q0 1.09375 0.65625 1.78125q0.671875 0.6875 1.640625 0.6875q0.96875 0 1.59375 -0.6875q0.640625 -0.6875 0.640625 -1.890625z" fill-rule="nonzero"/><path fill="#b6d7a8" d="m371.06824 6.8412075l37.795288 0l0 37.795273l-37.795288 0z" fill-rule="evenodd"/><path stroke="#000000" stroke-width="2.0" stroke-linejoin="round" stroke-linecap="butt" d="m371.06824 6.8412075l37.795288 0l0 37.795273l-37.795288 0z" fill-rule="evenodd"/><path fill="#000000" d="m388.3448 25.380095q-0.875 -0.3125 -1.296875 -0.90625q-0.421875 -0.59375 -0.421875 -1.421875q0 -1.25 0.890625 -2.09375q0.90625 -0.859375 2.40625 -0.859375q1.5 0 2.40625 0.875q0.921875 0.859375 0.921875 2.109375q0 0.796875 -0.421875 1.390625q-0.421875 0.59375 -1.265625 0.90625q1.046875 0.34375 1.59375 1.109375q0.5625 0.765625 0.5625 1.828125q0 1.46875 -1.046875 2.484375q-1.03125 1.0 -2.734375 1.0q-1.6875 0 -2.734375 -1.0q-1.03125 -1.015625 -1.03125 -2.515625q0 -1.125 0.5625 -1.875q0.5625 -0.75 1.609375 -1.03125zm-0.28125 -2.375q0 0.8125 0.515625 1.328125q0.53125 0.515625 1.375 0.515625q0.8125 0 1.328125 -0.515625q0.515625 -0.515625 0.515625 -1.25q0 -0.78125 -0.53125 -1.296875q-0.53125 -0.53125 -1.328125 -0.53125q-0.8125 0 -1.34375 0.515625q-0.53125 0.515625 -0.53125 1.234375zm-0.453125 5.28125q0 0.609375 0.28125 1.171875q0.296875 0.5625 0.859375 0.875q0.5625 0.296875 1.203125 0.296875q1.015625 0 1.671875 -0.640625q0.65625 -0.65625 0.65625 -1.65625q0 -1.015625 -0.6875 -1.671875q-0.671875 -0.671875 -1.6875 -0.671875q-0.984375 0 -1.640625 0.65625q-0.65625 0.65625 -0.65625 1.640625z" fill-rule="nonzero"/><path fill="#b6d7a8" d="m446.65878 6.8412075l37.795288 0l0 37.795273l-37.795288 0z" fill-rule="evenodd"/><path stroke="#000000" stroke-width="2.0" stroke-linejoin="round" stroke-linecap="butt" d="m446.65878 6.8412075l37.795288 0l0 37.795273l-37.795288 0z" fill-rule="evenodd"/><path fill="#000000" d="m462.62674 31.598845l-1.40625 0l0 -8.96875q-0.515625 0.484375 -1.34375 0.96875q-0.8125 0.484375 -1.46875 0.734375l0 -1.359375q1.171875 -0.5625 2.046875 -1.34375q0.890625 -0.796875 1.265625 -1.53125l0.90625 0l0 11.5zm3.6015625 -5.65625q0 -2.03125 0.40625 -3.265625q0.421875 -1.234375 1.25 -1.90625q0.828125 -0.671875 2.078125 -0.671875q0.921875 0 1.609375 0.375q0.703125 0.359375 1.15625 1.0625q0.453125 0.703125 0.703125 1.703125q0.265625 1.0 0.265625 2.703125q0 2.015625 -0.421875 3.265625q-0.40625 1.234375 -1.234375 1.921875q-0.828125 0.671875 -2.078125 0.671875q-1.65625 0 -2.609375 -1.203125q-1.125 -1.421875 -1.125 -4.65625zm1.4375 0q0 2.828125 0.65625 3.765625q0.671875 0.921875 1.640625 0.921875q0.96875 0 1.625 -0.9375q0.65625 -0.9375 0.65625 -3.75q0 -2.828125 -0.65625 -3.75q-0.65625 -0.9375 -1.640625 -0.9375q-0.96875 0 -1.546875 0.828125q-0.734375 1.046875 -0.734375 3.859375z" fill-rule="nonzero"/><path fill="#efefef" d="m522.2493 6.8412075l37.795288 0l0 37.795273l-37.795288 0z" fill-rule="evenodd"/><path stroke="#000000" stroke-width="2.0" stroke-linejoin="round" stroke-linecap="butt" stroke-dasharray="2.0,6.0" d="m522.2493 6.8412075l37.795288 0l0 37.795273l-37.795288 0z" fill-rule="evenodd"/><path fill="#efefef" d="m484.45407 6.8412075l37.795258 0l0 37.795273l-37.795258 0z" fill-rule="evenodd"/><path stroke="#000000" stroke-width="2.0" stroke-linejoin="round" stroke-linecap="butt" stroke-dasharray="2.0,6.0" d="m484.45407 6.8412075l37.795258 0l0 37.795273l-37.795258 0z" fill-rule="evenodd"/><path fill="#b6d7a8" d="m371.23227 122.84121l37.795288 0l0 37.79528l-37.795288 0z" fill-rule="evenodd"/><path stroke="#000000" stroke-width="2.0" stroke-linejoin="round" stroke-linecap="butt" d="m371.23227 122.84121l37.795288 0l0 37.79528l-37.795288 0z" fill-rule="evenodd"/><path fill="#000000" d="m391.64944 147.59885l-1.40625 0l0 -8.96875q-0.515625 0.484375 -1.34375 0.96875q-0.8125 0.484375 -1.46875 0.734375l0 -1.359375q1.171875 -0.5625 2.046875 -1.34375q0.890625 -0.796875 1.265625 -1.53125l0.90625 0l0 11.5z" fill-rule="nonzero"/><path fill="#b6d7a8" d="m446.82285 122.84121l37.795258 0l0 37.79528l-37.795258 0z" fill-rule="evenodd"/><path stroke="#000000" stroke-width="2.0" stroke-linejoin="round" stroke-linecap="butt" d="m446.82285 122.84121l37.795258 0l0 37.79528l-37.795258 0z" fill-rule="evenodd"/><path fill="#000000" d="m461.9431 144.5676l1.40625 -0.1875q0.25 1.203125 0.828125 1.734375q0.578125 0.515625 1.421875 0.515625q0.984375 0 1.671875 -0.6875q0.6875 -0.6875 0.6875 -1.703125q0 -0.96875 -0.640625 -1.59375q-0.625 -0.625 -1.609375 -0.625q-0.390625 0 -0.984375 0.15625l0.15625 -1.234375q0.140625 0.015625 0.21875 0.015625q0.90625 0 1.625 -0.46875q0.71875 -0.46875 0.71875 -1.453125q0 -0.765625 -0.53125 -1.265625q-0.515625 -0.515625 -1.34375 -0.515625q-0.828125 0 -1.375 0.515625q-0.546875 0.515625 -0.703125 1.546875l-1.40625 -0.25q0.265625 -1.421875 1.171875 -2.1875q0.921875 -0.78125 2.28125 -0.78125q0.9375 0 1.71875 0.40625q0.796875 0.390625 1.203125 1.09375q0.421875 0.6875 0.421875 1.46875q0 0.75 -0.40625 1.359375q-0.390625 0.609375 -1.171875 0.96875q1.015625 0.234375 1.578125 0.96875q0.5625 0.734375 0.5625 1.84375q0 1.5 -1.09375 2.546875q-1.09375 1.046875 -2.765625 1.046875q-1.5 0 -2.5 -0.890625q-1.0 -0.90625 -1.140625 -2.34375z" fill-rule="nonzero"/><path fill="#b6d7a8" d="m409.02756 122.84121l37.795288 0l0 37.79528l-37.795288 0z" fill-rule="evenodd"/><path stroke="#000000" stroke-width="2.0" stroke-linejoin="round" stroke-linecap="butt" d="m409.02756 122.84121l37.795288 0l0 37.79528l-37.795288 0z" fill-rule="evenodd"/><path fill="#000000" d="m431.53848 146.23947l0 1.359375l-7.578125 0q-0.015625 -0.515625 0.171875 -0.984375q0.28125 -0.765625 0.921875 -1.515625q0.640625 -0.75 1.84375 -1.734375q1.859375 -1.53125 2.515625 -2.421875q0.65625 -0.90625 0.65625 -1.703125q0 -0.828125 -0.59375 -1.40625q-0.59375 -0.578125 -1.5625 -0.578125q-1.015625 0 -1.625 0.609375q-0.609375 0.609375 -0.609375 1.6875l-1.453125 -0.140625q0.15625 -1.625 1.125 -2.46875q0.96875 -0.84375 2.59375 -0.84375q1.65625 0 2.609375 0.921875q0.96875 0.90625 0.96875 2.25q0 0.6875 -0.28125 1.359375q-0.28125 0.65625 -0.9375 1.390625q-0.65625 0.734375 -2.171875 2.015625q-1.265625 1.0625 -1.625 1.453125q-0.359375 0.375 -0.59375 0.75l5.625 0z" fill-rule="nonzero"/><path fill="#b6d7a8" d="m106.50131 122.84121l37.795273 0l0 37.79528l-37.795273 0z" fill-rule="evenodd"/><path stroke="#000000" stroke-width="2.0" stroke-linejoin="round" stroke-linecap="butt" d="m106.50131 122.84121l37.795273 0l0 37.79528l-37.795273 0z" fill-rule="evenodd"/><path fill="#000000" d="m126.121605 147.59885l0 -2.75l-4.96875 0l0 -1.28125l5.234375 -7.421875l1.140625 0l0 7.421875l1.5468826 0l0 1.28125l-1.5468826 0l0 2.75l-1.40625 0zm0 -4.03125l0 -5.171875l-3.578125 5.171875l3.578125 0z" fill-rule="nonzero"/><path fill="#b6d7a8" d="m144.29659 122.84121l37.795273 0l0 37.79528l-37.795273 0z" fill-rule="evenodd"/><path stroke="#000000" stroke-width="2.0" stroke-linejoin="round" stroke-linecap="butt" d="m144.29659 122.84121l37.795273 0l0 37.79528l-37.795273 0z" fill-rule="evenodd"/><path fill="#000000" d="m159.41689 144.59885l1.46875 -0.125q0.171875 1.078125 0.765625 1.625q0.59375 0.53125 1.4375 0.53125q1.015625 0 1.71875 -0.765625q0.703125 -0.765625 0.703125 -2.03125q0 -1.203125 -0.671875 -1.890625q-0.671875 -0.703125 -1.765625 -0.703125q-0.6875 0 -1.234375 0.3125q-0.546875 0.3125 -0.859375 0.796875l-1.3125 -0.171875l1.109375 -5.875l5.6875 0l0 1.34375l-4.5625 0l-0.625 3.078125q1.03125 -0.71875 2.171875 -0.71875q1.5 0 2.53125 1.046875q1.03125 1.03125 1.03125 2.65625q0 1.5625 -0.90625 2.6875q-1.109375 1.40625 -3.015625 1.40625q-1.5625 0 -2.546875 -0.875q-0.984375 -0.890625 -1.125 -2.328125z" fill-rule="nonzero"/><path fill="#b6d7a8" d="m219.88715 122.84121l37.795258 0l0 37.79528l-37.795258 0z" fill-rule="evenodd"/><path stroke="#000000" stroke-width="2.0" stroke-linejoin="round" stroke-linecap="butt" d="m219.88715 122.84121l37.795258 0l0 37.79528l-37.795258 0z" fill-rule="evenodd"/><path fill="#000000" d="m235.10118 137.64572l0 -1.359375l7.40625 0l0 1.09375q-1.09375 1.171875 -2.171875 3.109375q-1.0625 1.921875 -1.65625 3.953125q-0.421875 1.4375 -0.53125 3.15625l-1.453125 0q0.03125 -1.359375 0.53125 -3.265625q0.515625 -1.921875 1.453125 -3.6875q0.953125 -1.78125 2.03125 -3.0l-5.609375 0z" fill-rule="nonzero"/><path fill="#b6d7a8" d="m182.09186 122.84121l37.795288 0l0 37.79528l-37.795288 0z" fill-rule="evenodd"/><path stroke="#000000" stroke-width="2.0" stroke-linejoin="round" stroke-linecap="butt" d="m182.09186 122.84121l37.795288 0l0 37.79528l-37.795288 0z" fill-rule="evenodd"/><path fill="#000000" d="m204.50903 138.9426l-1.40625 0.109375q-0.1875 -0.828125 -0.53125 -1.203125q-0.5625 -0.59375 -1.40625 -0.59375q-0.671875 0 -1.171875 0.375q-0.671875 0.484375 -1.0625 1.421875q-0.375 0.921875 -0.390625 2.640625q0.515625 -0.78125 1.25 -1.15625q0.734375 -0.375 1.53125 -0.375q1.40625 0 2.390625 1.046875q1.0 1.03125 1.0 2.671875q0 1.078125 -0.46875 2.0q-0.46875 0.921875 -1.28125 1.421875q-0.8125 0.5 -1.84375 0.5q-1.75 0 -2.859375 -1.296875q-1.109375 -1.296875 -1.109375 -4.265625q0 -3.328125 1.21875 -4.828125q1.078125 -1.3125 2.890625 -1.3125q1.34375 0 2.203125 0.765625q0.875 0.75 1.046875 2.078125zm-5.75 4.9375q0 0.734375 0.3125 1.40625q0.3125 0.65625 0.859375 1.0q0.5625 0.34375 1.171875 0.34375q0.890625 0 1.53125 -0.71875q0.640625 -0.71875 0.640625 -1.953125q0 -1.1875 -0.640625 -1.859375q-0.625 -0.6875 -1.59375 -0.6875q-0.953125 0 -1.625 0.6875q-0.65625 0.671875 -0.65625 1.78125z" fill-rule="nonzero"/><path fill="#b6d7a8" d="m295.4777 122.84121l37.795288 0l0 37.79528l-37.795288 0z" fill-rule="evenodd"/><path stroke="#000000" stroke-width="2.0" stroke-linejoin="round" stroke-linecap="butt" d="m295.4777 122.84121l37.795288 0l0 37.79528l-37.795288 0z" fill-rule="evenodd"/><path fill="#000000" d="m310.80112 144.9426l1.359375 -0.125q0.171875 0.953125 0.65625 1.390625q0.484375 0.421875 1.234375 0.421875q0.65625 0 1.140625 -0.296875q0.484375 -0.296875 0.796875 -0.78125q0.3125 -0.5 0.515625 -1.34375q0.21875 -0.84375 0.21875 -1.71875q0 -0.09375 0 -0.28125q-0.421875 0.671875 -1.15625 1.09375q-0.734375 0.40625 -1.578125 0.40625q-1.421875 0 -2.40625 -1.03125q-0.984375 -1.03125 -0.984375 -2.71875q0 -1.734375 1.015625 -2.796875q1.03125 -1.0625 2.578125 -1.0625q1.125 0 2.046875 0.609375q0.921875 0.59375 1.40625 1.703125q0.484375 1.109375 0.484375 3.21875q0 2.203125 -0.484375 3.5q-0.46875 1.296875 -1.421875 1.984375q-0.9375 0.6875 -2.203125 0.6875q-1.34375 0 -2.203125 -0.75q-0.84375 -0.75 -1.015625 -2.109375zm5.765625 -5.046875q0 -1.21875 -0.65625 -1.921875q-0.640625 -0.71875 -1.546875 -0.71875q-0.9375 0 -1.640625 0.765625q-0.6875 0.765625 -0.6875 1.984375q0 1.09375 0.65625 1.78125q0.671875 0.6875 1.640625 0.6875q0.96875 0 1.59375 -0.6875q0.640625 -0.6875 0.640625 -1.890625z" fill-rule="nonzero"/><path fill="#b6d7a8" d="m257.6824 122.84121l37.795288 0l0 37.79528l-37.795288 0z" fill-rule="evenodd"/><path stroke="#000000" stroke-width="2.0" stroke-linejoin="round" stroke-linecap="butt" d="m257.6824 122.84121l37.795288 0l0 37.79528l-37.795288 0z" fill-rule="evenodd"/><path fill="#000000" d="m274.95895 141.3801q-0.875 -0.3125 -1.296875 -0.90625q-0.421875 -0.59375 -0.421875 -1.421875q0 -1.25 0.890625 -2.09375q0.90625 -0.859375 2.40625 -0.859375q1.5 0 2.40625 0.875q0.921875 0.859375 0.921875 2.109375q0 0.796875 -0.421875 1.390625q-0.421875 0.59375 -1.265625 0.90625q1.046875 0.34375 1.59375 1.109375q0.5625 0.765625 0.5625 1.828125q0 1.46875 -1.046875 2.484375q-1.03125 1.0 -2.734375 1.0q-1.6875 0 -2.734375 -1.0q-1.03125 -1.015625 -1.03125 -2.515625q0 -1.125 0.5625 -1.875q0.5625 -0.75 1.609375 -1.03125zm-0.28125 -2.375q0 0.8125 0.515625 1.328125q0.53125 0.515625 1.375 0.515625q0.8125 0 1.328125 -0.515625q0.515625 -0.515625 0.515625 -1.25q0 -0.78125 -0.53125 -1.296875q-0.53125 -0.53125 -1.328125 -0.53125q-0.8125 0 -1.34375 0.515625q-0.53125 0.515625 -0.53125 1.234375zm-0.453125 5.28125q0 0.609375 0.28125 1.171875q0.296875 0.5625 0.859375 0.875q0.5625 0.296875 1.203125 0.296875q1.015625 0 1.671875 -0.640625q0.65625 -0.65625 0.65625 -1.65625q0 -1.015625 -0.6875 -1.671875q-0.671875 -0.671875 -1.6875 -0.671875q-0.984375 0 -1.640625 0.65625q-0.65625 0.65625 -0.65625 1.640625z" fill-rule="nonzero"/><path fill="#b6d7a8" d="m333.27298 122.84121l37.795258 0l0 37.79528l-37.795258 0z" fill-rule="evenodd"/><path stroke="#000000" stroke-width="2.0" stroke-linejoin="round" stroke-linecap="butt" d="m333.27298 122.84121l37.795258 0l0 37.79528l-37.795258 0z" fill-rule="evenodd"/><path fill="#000000" d="m349.2409 147.59885l-1.40625 0l0 -8.96875q-0.515625 0.484375 -1.34375 0.96875q-0.8125 0.484375 -1.46875 0.734375l0 -1.359375q1.171875 -0.5625 2.046875 -1.34375q0.890625 -0.796875 1.265625 -1.53125l0.90625 0l0 11.5zm3.6015625 -5.65625q0 -2.03125 0.40625 -3.265625q0.421875 -1.234375 1.25 -1.90625q0.828125 -0.671875 2.078125 -0.671875q0.921875 0 1.609375 0.375q0.703125 0.359375 1.15625 1.0625q0.453125 0.703125 0.703125 1.703125q0.265625 1.0 0.265625 2.703125q0 2.015625 -0.421875 3.265625q-0.40625 1.234375 -1.234375 1.921875q-0.828125 0.671875 -2.078125 0.671875q-1.65625 0 -2.609375 -1.203125q-1.125 -1.421875 -1.125 -4.65625zm1.4375 0q0 2.828125 0.65625 3.765625q0.671875 0.921875 1.640625 0.921875q0.96875 0 1.625 -0.9375q0.65625 -0.9375 0.65625 -3.75q0 -2.828125 -0.65625 -3.75q-0.65625 -0.9375 -1.640625 -0.9375q-0.96875 0 -1.546875 0.828125q-0.734375 1.046875 -0.734375 3.859375z" fill-rule="nonzero"/><path fill="#efefef" d="m522.5801 122.84121l37.795227 0l0 37.79528l-37.795227 0z" fill-rule="evenodd"/><path stroke="#000000" stroke-width="2.0" stroke-linejoin="round" stroke-linecap="butt" stroke-dasharray="2.0,6.0" d="m522.5801 122.84121l37.795227 0l0 37.79528l-37.795227 0z" fill-rule="evenodd"/><path fill="#efefef" d="m484.7848 122.84121l37.795288 0l0 37.79528l-37.795288 0z" fill-rule="evenodd"/><path stroke="#000000" stroke-width="2.0" stroke-linejoin="round" stroke-linecap="butt" stroke-dasharray="2.0,6.0" d="m484.7848 122.84121l37.795288 0l0 37.79528l-37.795288 0z" fill-rule="evenodd"/><path fill="#000000" fill-opacity="0.0" d="m106.51452 64.35302l377.95276 0l0 38.771652l-377.95276 0z" fill-rule="evenodd"/><path fill="#000000" d="m172.70184 80.259895l-1.296875 0l0 8.453125l1.375 0l0 -6.734375q0.046875 -0.125 0.109375 -0.234375q0.078125 -0.109375 0.1875 -0.1875q0.125 -0.109375 0.3125 -0.171875q0.203125 -0.0625 0.453125 -0.0625q0.234375 0 0.40625 0.0625q0.1875 0.0625 0.296875 0.1875q0.125 0.125 0.1875 0.328125q0.0625 0.203125 0.0625 0.46875l0 6.34375l1.375 0l0 -6.328125q0 -0.046875 0 -0.078125q0 -0.046875 0 -0.078125q0.015625 -0.203125 0.078125 -0.359375q0.078125 -0.15625 0.203125 -0.28125q0.125 -0.125 0.3125 -0.1875q0.1875 -0.078125 0.453125 -0.078125q0.234375 0 0.421875 0.0625q0.1875 0.0625 0.3125 0.1875q0.109375 0.140625 0.171875 0.34375q0.0625 0.203125 0.0625 0.46875l0 6.328125l1.375 0l0 -6.3125q0 -0.609375 -0.140625 -1.0625q-0.140625 -0.453125 -0.40625 -0.734375q-0.234375 -0.25 -0.59375 -0.375q-0.34375 -0.125 -0.78125 -0.125q-0.328125 0 -0.59375 0.078125q-0.265625 0.078125 -0.484375 0.21875q-0.171875 0.109375 -0.328125 0.265625q-0.140625 0.15625 -0.25 0.34375q-0.09375 -0.203125 -0.21875 -0.359375q-0.109375 -0.15625 -0.265625 -0.265625q-0.203125 -0.140625 -0.46875 -0.203125q-0.265625 -0.078125 -0.609375 -0.078125q-0.59375 0 -1.015625 0.25q-0.40625 0.25 -0.671875 0.703125l-0.03125 -0.796875zm8.5234375 4.140625l0 0.171875q0 0.921875 0.265625 1.703125q0.265625 0.78125 0.765625 1.359375q0.5 0.578125 1.203125 0.90625q0.71875 0.328125 1.625 0.328125q0.890625 0 1.59375 -0.328125q0.71875 -0.328125 1.21875 -0.90625q0.484375 -0.578125 0.75 -1.359375q0.265625 -0.78125 0.265625 -1.703125l0 -0.171875q0 -0.90625 -0.265625 -1.6875q-0.265625 -0.796875 -0.75 -1.375q-0.5 -0.578125 -1.21875 -0.90625q-0.71875 -0.328125 -1.609375 -0.328125q-0.890625 0 -1.609375 0.328125q-0.703125 0.328125 -1.203125 0.90625q-0.5 0.578125 -0.765625 1.375q-0.265625 0.78125 -0.265625 1.6875zm1.453125 0.171875l0 -0.171875q0 -0.609375 0.140625 -1.171875q0.15625 -0.578125 0.453125 -1.0q0.296875 -0.4375 0.734375 -0.6875q0.453125 -0.25 1.0625 -0.25q0.59375 0 1.046875 0.25q0.453125 0.25 0.75 0.6875q0.296875 0.421875 0.453125 1.0q0.15625 0.5625 0.15625 1.171875l0 0.171875q0 0.625 -0.15625 1.203125q-0.140625 0.5625 -0.4375 0.984375q-0.3125 0.4375 -0.765625 0.6875q-0.4375 0.25 -1.03125 0.25q-0.609375 0 -1.0625 -0.25q-0.453125 -0.25 -0.75 -0.6875q-0.296875 -0.421875 -0.453125 -0.984375q-0.140625 -0.578125 -0.140625 -1.203125zm11.4453125 4.140625l1.09375 0l3.453125 -8.453125l-1.484375 0l-2.359375 6.375l-0.140625 0.515625l-0.140625 -0.515625l-2.421875 -6.375l-1.484375 0l3.484375 8.453125zm10.4453125 0.15625q1.234375 0 2.078125 -0.5q0.84375 -0.5 1.265625 -1.140625l-0.890625 -0.6875q-0.390625 0.515625 -1.0 0.828125q-0.59375 0.3125 -1.375 0.3125q-0.578125 0 -1.0625 -0.21875q-0.484375 -0.21875 -0.828125 -0.59375q-0.34375 -0.359375 -0.53125 -0.828125q-0.1875 -0.46875 -0.25 -1.09375l0 -0.046875l6.046875 0l0 -0.65625q0 -0.875 -0.234375 -1.625q-0.21875 -0.765625 -0.671875 -1.328125q-0.453125 -0.5625 -1.140625 -0.875q-0.671875 -0.3125 -1.59375 -0.3125q-0.71875 0 -1.421875 0.296875q-0.6875 0.296875 -1.21875 0.84375q-0.546875 0.5625 -0.875 1.375q-0.328125 0.8125 -0.328125 1.828125l0 0.328125q0 0.890625 0.296875 1.640625q0.296875 0.75 0.828125 1.296875q0.53125 0.546875 1.265625 0.859375q0.75 0.296875 1.640625 0.296875zm-0.1875 -7.578125q0.5625 0 0.953125 0.203125q0.40625 0.203125 0.671875 0.53125q0.265625 0.328125 0.40625 0.78125q0.15625 0.4375 0.15625 0.828125l0 0.078125l-4.546875 0q0.09375 -0.59375 0.296875 -1.03125q0.21875 -0.453125 0.53125 -0.765625q0.3125 -0.3125 0.703125 -0.46875q0.390625 -0.15625 0.828125 -0.15625zm13.0703125 8.609375l0 -1.1875l-7.15625 0l0 1.1875l7.15625 0zm2.5859375 -1.1875l1.453125 0l0 -6.0625q0.140625 -0.28125 0.34375 -0.5q0.203125 -0.234375 0.4375 -0.40625q0.28125 -0.1875 0.625 -0.296875q0.34375 -0.125 0.75 -0.125q0.453125 0 0.8125 0.109375q0.359375 0.109375 0.609375 0.359375q0.234375 0.234375 0.359375 0.625q0.125 0.390625 0.125 0.953125l0 5.34375l1.453125 0l0 -5.375q0 -0.84375 -0.21875 -1.453125q-0.203125 -0.609375 -0.578125 -1.015625q-0.390625 -0.390625 -0.9375 -0.578125q-0.53125 -0.1875 -1.203125 -0.1875q-0.484375 0 -0.9375 0.140625q-0.4375 0.140625 -0.8125 0.390625q-0.25 0.15625 -0.46875 0.390625q-0.21875 0.21875 -0.40625 0.484375l-0.109375 -1.25l-1.296875 0l0 8.453125zm16.617188 1.1875l0 -1.1875l-7.15625 0l0 1.1875l7.15625 0zm6.3203125 -1.03125q1.234375 0 2.078125 -0.5q0.84375 -0.5 1.265625 -1.140625l-0.890625 -0.6875q-0.390625 0.515625 -1.0 0.828125q-0.59375 0.3125 -1.375 0.3125q-0.578125 0 -1.0625 -0.21875q-0.484375 -0.21875 -0.828125 -0.59375q-0.34375 -0.359375 -0.53125 -0.828125q-0.1875 -0.46875 -0.25 -1.09375l0 -0.046875l6.046875 0l0 -0.65625q0 -0.875 -0.234375 -1.625q-0.21875 -0.765625 -0.671875 -1.328125q-0.453125 -0.5625 -1.140625 -0.875q-0.671875 -0.3125 -1.59375 -0.3125q-0.71875 0 -1.421875 0.296875q-0.6875 0.296875 -1.21875 0.84375q-0.546875 0.5625 -0.875 1.375q-0.328125 0.8125 -0.328125 1.828125l0 0.328125q0 0.890625 0.296875 1.640625q0.296875 0.75 0.828125 1.296875q0.53125 0.546875 1.265625 0.859375q0.75 0.296875 1.640625 0.296875zm-0.1875 -7.578125q0.5625 0 0.953125 0.203125q0.40625 0.203125 0.671875 0.53125q0.265625 0.328125 0.40625 0.78125q0.15625 0.4375 0.15625 0.828125l0 0.078125l-4.546875 0q0.09375 -0.59375 0.296875 -1.03125q0.21875 -0.453125 0.53125 -0.765625q0.3125 -0.3125 0.703125 -0.46875q0.390625 -0.15625 0.828125 -0.15625zm6.2890625 -4.578125l0 1.25l2.875 0l0 9.5l-2.875 0l0 1.25l7.078125 0l0 -1.25l-2.765625 0l0 -10.75l-4.3125 0zm13.1015625 12.15625q1.234375 0 2.078125 -0.5q0.84375 -0.5 1.265625 -1.140625l-0.890625 -0.6875q-0.390625 0.515625 -1.0 0.828125q-0.59375 0.3125 -1.375 0.3125q-0.578125 0 -1.0625 -0.21875q-0.484375 -0.21875 -0.828125 -0.59375q-0.34375 -0.359375 -0.53125 -0.828125q-0.1875 -0.46875 -0.25 -1.09375l0 -0.046875l6.046875 0l0 -0.65625q0 -0.875 -0.234375 -1.625q-0.21875 -0.765625 -0.671875 -1.328125q-0.453125 -0.5625 -1.140625 -0.875q-0.671875 -0.3125 -1.59375 -0.3125q-0.71875 0 -1.421875 0.296875q-0.6875 0.296875 -1.21875 0.84375q-0.546875 0.5625 -0.875 1.375q-0.328125 0.8125 -0.328125 1.828125l0 0.328125q0 0.890625 0.296875 1.640625q0.296875 0.75 0.828125 1.296875q0.53125 0.546875 1.265625 0.859375q0.75 0.296875 1.640625 0.296875zm-0.1875 -7.578125q0.5625 0 0.953125 0.203125q0.40625 0.203125 0.671875 0.53125q0.265625 0.328125 0.40625 0.78125q0.15625 0.4375 0.15625 0.828125l0 0.078125l-4.546875 0q0.09375 -0.59375 0.296875 -1.03125q0.21875 -0.453125 0.53125 -0.765625q0.3125 -0.3125 0.703125 -0.46875q0.390625 -0.15625 0.828125 -0.15625zm6.7265625 -1.03125l-1.296875 0l0 8.453125l1.375 0l0 -6.734375q0.046875 -0.125 0.109375 -0.234375q0.078125 -0.109375 0.1875 -0.1875q0.125 -0.109375 0.3125 -0.171875q0.203125 -0.0625 0.453125 -0.0625q0.234375 0 0.40625 0.0625q0.1875 0.0625 0.296875 0.1875q0.125 0.125 0.1875 0.328125q0.0625 0.203125 0.0625 0.46875l0 6.34375l1.375 0l0 -6.328125q0 -0.046875 0 -0.078125q0 -0.046875 0 -0.078125q0.015625 -0.203125 0.078125 -0.359375q0.078125 -0.15625 0.203125 -0.28125q0.125 -0.125 0.3125 -0.1875q0.1875 -0.078125 0.453125 -0.078125q0.234375 0 0.421875 0.0625q0.1875 0.0625 0.3125 0.1875q0.109375 0.140625 0.171875 0.34375q0.0625 0.203125 0.0625 0.46875l0 6.328125l1.375 0l0 -6.3125q0 -0.609375 -0.140625 -1.0625q-0.140625 -0.453125 -0.40625 -0.734375q-0.234375 -0.25 -0.59375 -0.375q-0.34375 -0.125 -0.78125 -0.125q-0.328125 0 -0.59375 0.078125q-0.265625 0.078125 -0.484375 0.21875q-0.171875 0.109375 -0.328125 0.265625q-0.140625 0.15625 -0.25 0.34375q-0.09375 -0.203125 -0.21875 -0.359375q-0.109375 -0.15625 -0.265625 -0.265625q-0.203125 -0.140625 -0.46875 -0.203125q-0.265625 -0.078125 -0.609375 -0.078125q-0.59375 0 -1.015625 0.25q-0.40625 0.25 -0.671875 0.703125l-0.03125 -0.796875zm12.6640625 8.609375q1.234375 0 2.078125 -0.5q0.84375 -0.5 1.265625 -1.140625l-0.890625 -0.6875q-0.390625 0.515625 -1.0 0.828125q-0.59375 0.3125 -1.375 0.3125q-0.578125 0 -1.0625 -0.21875q-0.484375 -0.21875 -0.828125 -0.59375q-0.34375 -0.359375 -0.53125 -0.828125q-0.1875 -0.46875 -0.25 -1.09375l0 -0.046875l6.046875 0l0 -0.65625q0 -0.875 -0.234375 -1.625q-0.21875 -0.765625 -0.671875 -1.328125q-0.453125 -0.5625 -1.140625 -0.875q-0.671875 -0.3125 -1.59375 -0.3125q-0.71875 0 -1.421875 0.296875q-0.6875 0.296875 -1.21875 0.84375q-0.546875 0.5625 -0.875 1.375q-0.328125 0.8125 -0.328125 1.828125l0 0.328125q0 0.890625 0.296875 1.640625q0.296875 0.75 0.828125 1.296875q0.53125 0.546875 1.265625 0.859375q0.75 0.296875 1.640625 0.296875zm-0.1875 -7.578125q0.5625 0 0.953125 0.203125q0.40625 0.203125 0.671875 0.53125q0.265625 0.328125 0.40625 0.78125q0.15625 0.4375 0.15625 0.828125l0 0.078125l-4.546875 0q0.09375 -0.59375 0.296875 -1.03125q0.21875 -0.453125 0.53125 -0.765625q0.3125 -0.3125 0.703125 -0.46875q0.390625 -0.15625 0.828125 -0.15625zm6.0546875 7.421875l1.453125 0l0 -6.0625q0.140625 -0.28125 0.34375 -0.5q0.203125 -0.234375 0.4375 -0.40625q0.28125 -0.1875 0.625 -0.296875q0.34375 -0.125 0.75 -0.125q0.453125 0 0.8125 0.109375q0.359375 0.109375 0.609375 0.359375q0.234375 0.234375 0.359375 0.625q0.125 0.390625 0.125 0.953125l0 5.34375l1.453125 0l0 -5.375q0 -0.84375 -0.21875 -1.453125q-0.203125 -0.609375 -0.578125 -1.015625q-0.390625 -0.390625 -0.9375 -0.578125q-0.53125 -0.1875 -1.203125 -0.1875q-0.484375 0 -0.9375 0.140625q-0.4375 0.140625 -0.8125 0.390625q-0.25 0.15625 -0.46875 0.390625q-0.21875 0.21875 -0.40625 0.484375l-0.109375 -1.25l-1.296875 0l0 8.453125zm13.0234375 -10.5l-1.453125 0l0 2.046875l-2.21875 0l0 1.109375l2.21875 0l0 4.59375q0 0.78125 0.203125 1.34375q0.21875 0.546875 0.578125 0.890625q0.359375 0.34375 0.84375 0.515625q0.484375 0.15625 1.046875 0.15625q0.34375 0 0.671875 -0.03125q0.34375 -0.03125 0.65625 -0.09375q0.296875 -0.0625 0.546875 -0.140625q0.265625 -0.078125 0.453125 -0.1875l-0.203125 -1.03125q-0.140625 0.03125 -0.34375 0.078125q-0.203125 0.046875 -0.4375 0.078125q-0.25 0.046875 -0.5 0.078125q-0.25 0.015625 -0.484375 0.015625q-0.3125 0 -0.609375 -0.078125q-0.28125 -0.078125 -0.5 -0.265625q-0.21875 -0.1875 -0.34375 -0.5q-0.125 -0.328125 -0.125 -0.828125l0 -4.59375l3.21875 0l0 -1.109375l-3.21875 0l0 -2.046875zm11.8046875 8.25q0 0.203125 -0.078125 0.390625q-0.078125 0.171875 -0.234375 0.328125q-0.234375 0.234375 -0.671875 0.375q-0.421875 0.140625 -1.0 0.140625q-0.375 0 -0.75 -0.078125q-0.375 -0.078125 -0.671875 -0.265625q-0.3125 -0.1875 -0.53125 -0.484375q-0.203125 -0.3125 -0.234375 -0.765625l-1.4375 0q0 0.546875 0.234375 1.046875q0.25 0.5 0.71875 0.875q0.46875 0.375 1.140625 0.609375q0.671875 0.234375 1.53125 0.234375q0.75 0 1.375 -0.171875q0.640625 -0.1875 1.09375 -0.515625q0.453125 -0.328125 0.703125 -0.78125q0.25 -0.46875 0.25 -1.03125q0 -0.53125 -0.21875 -0.921875q-0.21875 -0.40625 -0.640625 -0.703125q-0.421875 -0.296875 -1.046875 -0.515625q-0.609375 -0.21875 -1.390625 -0.375q-0.59375 -0.125 -0.984375 -0.25q-0.390625 -0.125 -0.609375 -0.28125q-0.234375 -0.15625 -0.328125 -0.34375q-0.09375 -0.203125 -0.09375 -0.453125q0 -0.234375 0.109375 -0.453125q0.125 -0.234375 0.359375 -0.40625q0.21875 -0.171875 0.5625 -0.265625q0.359375 -0.109375 0.8125 -0.109375q0.453125 0 0.796875 0.125q0.359375 0.125 0.609375 0.328125q0.25 0.203125 0.390625 0.46875q0.140625 0.25 0.140625 0.53125l1.453125 0q0 -0.5625 -0.25 -1.03125q-0.234375 -0.484375 -0.671875 -0.84375q-0.4375 -0.359375 -1.0625 -0.5625q-0.625 -0.203125 -1.40625 -0.203125q-0.71875 0 -1.328125 0.203125q-0.609375 0.1875 -1.046875 0.515625q-0.4375 0.34375 -0.6875 0.796875q-0.234375 0.4375 -0.234375 0.953125q0 0.53125 0.234375 0.921875q0.234375 0.390625 0.671875 0.6875q0.421875 0.296875 1.015625 0.515625q0.59375 0.203125 1.328125 0.34375q0.59375 0.125 0.984375 0.265625q0.40625 0.140625 0.640625 0.3125q0.25 0.171875 0.34375 0.390625q0.109375 0.203125 0.109375 0.453125zm10.9921875 3.4375l0 -1.1875l-7.15625 0l0 1.1875l7.15625 0zm6.0078125 -11.6875l-1.453125 0l0 2.046875l-2.21875 0l0 1.109375l2.21875 0l0 4.59375q0 0.78125 0.203125 1.34375q0.21875 0.546875 0.578125 0.890625q0.359375 0.34375 0.84375 0.515625q0.484375 0.15625 1.046875 0.15625q0.34375 0 0.671875 -0.03125q0.34375 -0.03125 0.65625 -0.09375q0.296875 -0.0625 0.546875 -0.140625q0.265625 -0.078125 0.453125 -0.1875l-0.203125 -1.03125q-0.140625 0.03125 -0.34375 0.078125q-0.203125 0.046875 -0.4375 0.078125q-0.25 0.046875 -0.5 0.078125q-0.25 0.015625 -0.484375 0.015625q-0.3125 0 -0.609375 -0.078125q-0.28125 -0.078125 -0.5 -0.265625q-0.21875 -0.1875 -0.34375 -0.5q-0.125 -0.328125 -0.125 -0.828125l0 -4.59375l3.21875 0l0 -1.109375l-3.21875 0l0 -2.046875zm5.7734375 6.1875l0 0.171875q0 0.921875 0.265625 1.703125q0.265625 0.78125 0.765625 1.359375q0.5 0.578125 1.203125 0.90625q0.71875 0.328125 1.625 0.328125q0.890625 0 1.59375 -0.328125q0.71875 -0.328125 1.21875 -0.90625q0.484375 -0.578125 0.75 -1.359375q0.265625 -0.78125 0.265625 -1.703125l0 -0.171875q0 -0.90625 -0.265625 -1.6875q-0.265625 -0.796875 -0.75 -1.375q-0.5 -0.578125 -1.21875 -0.90625q-0.71875 -0.328125 -1.609375 -0.328125q-0.890625 0 -1.609375 0.328125q-0.703125 0.328125 -1.203125 0.90625q-0.5 0.578125 -0.765625 1.375q-0.265625 0.78125 -0.265625 1.6875zm1.453125 0.171875l0 -0.171875q0 -0.609375 0.140625 -1.171875q0.15625 -0.578125 0.453125 -1.0q0.296875 -0.4375 0.734375 -0.6875q0.453125 -0.25 1.0625 -0.25q0.59375 0 1.046875 0.25q0.453125 0.25 0.75 0.6875q0.296875 0.421875 0.453125 1.0q0.15625 0.5625 0.15625 1.171875l0 0.171875q0 0.625 -0.15625 1.203125q-0.140625 0.5625 -0.4375 0.984375q-0.3125 0.4375 -0.765625 0.6875q-0.4375 0.25 -1.03125 0.25q-0.609375 0 -1.0625 -0.25q-0.453125 -0.25 -0.75 -0.6875q-0.296875 -0.421875 -0.453125 -0.984375q-0.140625 -0.578125 -0.140625 -1.203125zm15.5703125 5.328125l0 -1.1875l-7.15625 0l0 1.1875l7.15625 0zm9.7578125 -5.328125l0 -0.15625q0 -0.671875 -0.109375 -1.265625q-0.109375 -0.59375 -0.328125 -1.09375q-0.203125 -0.4375 -0.46875 -0.78125q-0.265625 -0.359375 -0.59375 -0.609375q-0.375 -0.265625 -0.84375 -0.40625q-0.453125 -0.15625 -1.0 -0.15625q-0.4375 0 -0.8125 0.09375q-0.375 0.078125 -0.6875 0.234375q-0.25 0.140625 -0.46875 0.328125q-0.21875 0.171875 -0.40625 0.40625l0 -4.453125l-1.4375 0l0 12.0l1.328125 0l0.0625 -0.96875q0.140625 0.1875 0.296875 0.34375q0.15625 0.140625 0.328125 0.265625q0.359375 0.25 0.8125 0.375q0.453125 0.140625 1.0 0.140625q0.46875 0 0.875 -0.125q0.421875 -0.109375 0.765625 -0.328125q0.46875 -0.296875 0.8125 -0.765625q0.34375 -0.46875 0.546875 -1.046875q0.15625 -0.453125 0.234375 -0.953125q0.09375 -0.515625 0.09375 -1.078125zm-1.453125 -0.15625l0 0.15625q0 0.375 -0.046875 0.734375q-0.046875 0.359375 -0.140625 0.671875q-0.125 0.421875 -0.34375 0.765625q-0.203125 0.328125 -0.515625 0.546875q-0.234375 0.171875 -0.53125 0.265625q-0.296875 0.078125 -0.65625 0.078125q-0.375 0 -0.6875 -0.09375q-0.3125 -0.09375 -0.5625 -0.28125q-0.25 -0.171875 -0.453125 -0.40625q-0.1875 -0.25 -0.328125 -0.53125l0 -3.6875q0.140625 -0.28125 0.328125 -0.515625q0.1875 -0.25 0.4375 -0.421875q0.25 -0.171875 0.5625 -0.265625q0.3125 -0.109375 0.6875 -0.109375q0.34375 0 0.625 0.078125q0.28125 0.078125 0.5 0.21875q0.328125 0.203125 0.546875 0.546875q0.234375 0.34375 0.375 0.75q0.109375 0.34375 0.15625 0.71875q0.046875 0.375 0.046875 0.78125zm9.4453125 4.296875l1.5 0l0 -0.125q-0.140625 -0.359375 -0.21875 -0.828125q-0.078125 -0.46875 -0.078125 -0.890625l0 -3.9375q0 -0.703125 -0.265625 -1.234375q-0.25 -0.53125 -0.6875 -0.890625q-0.453125 -0.359375 -1.078125 -0.53125q-0.609375 -0.171875 -1.328125 -0.171875q-0.796875 0 -1.421875 0.21875q-0.609375 0.21875 -1.046875 0.5625q-0.4375 0.359375 -0.671875 0.8125q-0.21875 0.4375 -0.234375 0.90625l1.453125 0q0 -0.265625 0.125 -0.515625q0.140625 -0.25 0.375 -0.421875q0.234375 -0.1875 0.5625 -0.296875q0.34375 -0.109375 0.78125 -0.109375q0.453125 0 0.828125 0.125q0.375 0.109375 0.625 0.328125q0.265625 0.21875 0.40625 0.53125q0.140625 0.296875 0.140625 0.671875l0 0.671875l-1.578125 0q-0.890625 0 -1.609375 0.171875q-0.703125 0.171875 -1.21875 0.515625q-0.5 0.34375 -0.78125 0.875q-0.28125 0.515625 -0.28125 1.21875q0 0.53125 0.203125 0.984375q0.21875 0.453125 0.59375 0.78125q0.375 0.34375 0.921875 0.546875q0.546875 0.1875 1.21875 0.1875q0.40625 0 0.765625 -0.09375q0.375 -0.078125 0.703125 -0.234375q0.328125 -0.140625 0.59375 -0.328125q0.265625 -0.203125 0.484375 -0.421875q0.03125 0.265625 0.078125 0.515625q0.046875 0.234375 0.140625 0.40625zm-2.5625 -1.109375q-0.421875 0 -0.75 -0.109375q-0.3125 -0.109375 -0.515625 -0.296875q-0.21875 -0.1875 -0.328125 -0.453125q-0.09375 -0.265625 -0.09375 -0.578125q0 -0.328125 0.109375 -0.578125q0.125 -0.265625 0.359375 -0.453125q0.328125 -0.265625 0.890625 -0.390625q0.5625 -0.140625 1.3125 -0.140625l1.34375 0l0 1.71875q-0.125 0.25 -0.34375 0.484375q-0.21875 0.21875 -0.515625 0.40625q-0.3125 0.171875 -0.6875 0.28125q-0.359375 0.109375 -0.78125 0.109375zm10.2109375 0.09375q-0.6875 0 -1.140625 -0.265625q-0.453125 -0.28125 -0.734375 -0.71875q-0.28125 -0.421875 -0.40625 -0.96875q-0.109375 -0.546875 -0.109375 -1.09375l0 -0.328125q0 -0.546875 0.109375 -1.078125q0.125 -0.546875 0.40625 -0.984375q0.28125 -0.4375 0.734375 -0.703125q0.46875 -0.265625 1.140625 -0.265625q0.4375 0 0.8125 0.15625q0.375 0.140625 0.65625 0.390625q0.265625 0.265625 0.421875 0.609375q0.171875 0.328125 0.171875 0.71875l1.375 0q0 -0.640625 -0.265625 -1.203125q-0.25 -0.5625 -0.703125 -0.984375q-0.46875 -0.40625 -1.09375 -0.640625q-0.625 -0.234375 -1.375 -0.234375q-0.96875 0 -1.6875 0.34375q-0.71875 0.34375 -1.1875 0.921875q-0.484375 0.578125 -0.734375 1.34375q-0.234375 0.765625 -0.234375 1.609375l0 0.328125q0 0.84375 0.234375 1.609375q0.25 0.75 0.734375 1.328125q0.46875 0.59375 1.1875 0.9375q0.71875 0.34375 1.6875 0.34375q0.671875 0 1.28125 -0.234375q0.625 -0.234375 1.09375 -0.625q0.484375 -0.375 0.765625 -0.890625q0.28125 -0.515625 0.296875 -1.078125l-1.375 0q0 0.359375 -0.1875 0.65625q-0.171875 0.296875 -0.453125 0.515625q-0.296875 0.234375 -0.671875 0.359375q-0.359375 0.125 -0.75 0.125zm8.5234375 -2.9375l3.109375 3.953125l1.828125 0l-3.9375 -4.9375l3.421875 -3.515625l-1.765625 0l-2.765625 2.78125l-0.953125 1.015625l0 -7.34375l-1.453125 0l0 12.0l1.453125 0l0 -2.921875l1.0625 -1.03125zm8.5078125 -0.671875l0 0.078125q0 1.125 0.171875 2.109375q0.171875 0.984375 0.46875 1.8125q0.296875 0.859375 0.671875 1.546875q0.390625 0.6875 0.828125 1.234375q0.421875 0.546875 0.84375 0.921875q0.4375 0.375 0.828125 0.59375l0.3125 -0.875q-0.328125 -0.265625 -0.640625 -0.625q-0.3125 -0.359375 -0.609375 -0.828125q-0.296875 -0.5 -0.5625 -1.125q-0.265625 -0.625 -0.46875 -1.34375q-0.1875 -0.71875 -0.296875 -1.5625q-0.109375 -0.859375 -0.109375 -1.84375l0 -0.109375q0 -1.015625 0.109375 -1.890625q0.125 -0.890625 0.34375 -1.625q0.21875 -0.8125 0.546875 -1.484375q0.328125 -0.6875 0.6875 -1.203125q0.234375 -0.328125 0.484375 -0.59375q0.265625 -0.265625 0.515625 -0.453125l-0.3125 -0.953125q-0.390625 0.21875 -0.828125 0.609375q-0.421875 0.375 -0.84375 0.921875q-0.421875 0.53125 -0.8125 1.234375q-0.390625 0.6875 -0.6875 1.53125q-0.296875 0.84375 -0.46875 1.828125q-0.171875 0.984375 -0.171875 2.09375zm9.8515625 -1.765625l0 1.171875l1.03125 0q0.546875 0 0.984375 0.125q0.453125 0.125 0.78125 0.390625q0.3125 0.25 0.484375 0.640625q0.171875 0.390625 0.171875 0.921875q0 0.53125 -0.15625 0.9375q-0.140625 0.390625 -0.421875 0.65625q-0.28125 0.265625 -0.6875 0.390625q-0.390625 0.125 -0.890625 0.125q-0.484375 0 -0.890625 -0.140625q-0.40625 -0.140625 -0.6875 -0.390625q-0.28125 -0.265625 -0.4375 -0.625q-0.140625 -0.375 -0.140625 -0.8125l-1.453125 0q0 0.75 0.28125 1.34375q0.296875 0.578125 0.78125 0.984375q0.484375 0.40625 1.140625 0.625q0.65625 0.203125 1.40625 0.203125q0.765625 0 1.421875 -0.21875q0.671875 -0.234375 1.15625 -0.65625q0.484375 -0.421875 0.75 -1.03125q0.28125 -0.625 0.28125 -1.421875q0 -0.390625 -0.09375 -0.78125q-0.09375 -0.40625 -0.3125 -0.765625q-0.21875 -0.359375 -0.59375 -0.640625q-0.375 -0.296875 -0.921875 -0.484375q0.453125 -0.1875 0.78125 -0.484375q0.34375 -0.296875 0.546875 -0.625q0.21875 -0.328125 0.3125 -0.671875q0.109375 -0.359375 0.109375 -0.6875q0 -0.796875 -0.25 -1.390625q-0.25 -0.609375 -0.703125 -1.015625q-0.453125 -0.40625 -1.09375 -0.609375q-0.625 -0.203125 -1.390625 -0.203125q-0.796875 0 -1.4375 0.25q-0.640625 0.234375 -1.109375 0.65625q-0.453125 0.4375 -0.71875 1.015625q-0.25 0.5625 -0.25 1.21875l1.453125 0q0 -0.453125 0.140625 -0.8125q0.15625 -0.359375 0.4375 -0.609375q0.265625 -0.265625 0.640625 -0.390625q0.375 -0.140625 0.84375 -0.140625q0.46875 0 0.84375 0.125q0.375 0.109375 0.625 0.359375q0.25 0.25 0.375 0.625q0.140625 0.375 0.140625 0.890625q0 0.421875 -0.15625 0.78125q-0.140625 0.359375 -0.421875 0.625q-0.28125 0.25 -0.703125 0.40625q-0.421875 0.140625 -0.96875 0.140625l-1.03125 0zm13.1953125 1.84375l0 -0.078125q0 -1.1875 -0.1875 -2.140625q-0.1875 -0.96875 -0.46875 -1.78125q-0.28125 -0.859375 -0.671875 -1.53125q-0.375 -0.6875 -0.8125 -1.234375q-0.421875 -0.546875 -0.859375 -0.921875q-0.4375 -0.390625 -0.828125 -0.609375l-0.3125 0.890625q0.265625 0.203125 0.53125 0.515625q0.28125 0.296875 0.53125 0.6875q0.34375 0.515625 0.65625 1.203125q0.328125 0.671875 0.546875 1.53125q0.15625 0.609375 0.28125 1.46875q0.140625 0.859375 0.140625 1.90625l0 0.109375q0 0.9375 -0.109375 1.75q-0.09375 0.8125 -0.265625 1.515625q-0.171875 0.765625 -0.453125 1.40625q-0.265625 0.640625 -0.546875 1.140625q-0.3125 0.5 -0.65625 0.875q-0.328125 0.390625 -0.65625 0.640625l0.3125 0.875q0.390625 -0.21875 0.8125 -0.59375q0.4375 -0.375 0.875 -0.921875q0.421875 -0.546875 0.796875 -1.234375q0.390625 -0.6875 0.6875 -1.546875q0.296875 -0.828125 0.46875 -1.8125q0.1875 -0.984375 0.1875 -2.109375z" fill-rule="nonzero"/><path fill="#000000" fill-opacity="0.0" d="m5.3034964 6.3530183l101.196846 0l0 38.771652l-101.196846 0z" fill-rule="evenodd"/><path fill="#000000" d="m54.87535 30.713018l-4.4375 -11.453125l1.640625 0l2.96875 8.3125q0.359375 1.0 0.609375 1.875q0.265625 -0.9375 0.609375 -1.875l3.09375 -8.3125l1.546875 0l-4.484375 11.453125l-1.546875 0zm5.8046875 -4.15625q0 -2.296875 1.28125 -3.40625q1.078125 -0.921875 2.609375 -0.921875q1.71875 0 2.796875 1.125q1.09375 1.109375 1.09375 3.09375q0 1.59375 -0.484375 2.515625q-0.484375 0.921875 -1.40625 1.4375q-0.90625 0.5 -2.0 0.5q-1.734375 0 -2.8125 -1.109375q-1.078125 -1.125 -1.078125 -3.234375zm1.453125 0q0 1.59375 0.6875 2.390625q0.703125 0.796875 1.75 0.796875q1.046875 0 1.734375 -0.796875q0.703125 -0.796875 0.703125 -2.4375q0 -1.53125 -0.703125 -2.328125q-0.6875 -0.796875 -1.734375 -0.796875q-1.046875 0 -1.75 0.796875q-0.6875 0.78125 -0.6875 2.375zm7.9609375 4.15625l0 -8.296875l1.265625 0l0 1.25q0.484375 -0.875 0.890625 -1.15625q0.40625 -0.28125 0.90625 -0.28125q0.703125 0 1.4375 0.453125l-0.484375 1.296875q-0.515625 -0.296875 -1.03125 -0.296875q-0.453125 0 -0.828125 0.28125q-0.359375 0.265625 -0.515625 0.765625q-0.234375 0.75 -0.234375 1.640625l0 4.34375l-1.40625 0zm5.34375 0l0 -11.453125l1.40625 0l0 4.109375q0.984375 -1.140625 2.484375 -1.140625q0.921875 0 1.59375 0.359375q0.6875 0.359375 0.96875 1.0q0.296875 0.640625 0.296875 1.859375l0 5.265625l-1.40625 0l0 -5.265625q0 -1.046875 -0.453125 -1.53125q-0.453125 -0.484375 -1.296875 -0.484375q-0.625 0 -1.171875 0.328125q-0.546875 0.328125 -0.78125 0.890625q-0.234375 0.546875 -0.234375 1.515625l0 4.546875l-1.40625 0zm14.5703125 -2.671875l1.453125 0.171875q-0.34375 1.28125 -1.28125 1.984375q-0.921875 0.703125 -2.359375 0.703125q-1.828125 0 -2.890625 -1.125q-1.0625 -1.125 -1.0625 -3.140625q0 -2.09375 1.078125 -3.25q1.078125 -1.15625 2.796875 -1.15625q1.65625 0 2.703125 1.140625q1.0625 1.125 1.0625 3.171875q0 0.125 0 0.375l-6.1875 0q0.078125 1.375 0.765625 2.109375q0.703125 0.71875 1.734375 0.71875q0.78125 0 1.328125 -0.40625q0.546875 -0.40625 0.859375 -1.296875zm-4.609375 -2.28125l4.625 0q-0.09375 -1.046875 -0.53125 -1.5625q-0.671875 -0.8125 -1.734375 -0.8125q-0.96875 0 -1.640625 0.65625q-0.65625 0.640625 -0.71875 1.71875zm7.8203125 4.953125l0 -8.296875l1.265625 0l0 1.25q0.484375 -0.875 0.890625 -1.15625q0.40625 -0.28125 0.90625 -0.28125q0.703125 0 1.4375 0.453125l-0.484375 1.296875q-0.515625 -0.296875 -1.03125 -0.296875q-0.453125 0 -0.828125 0.28125q-0.359375 0.265625 -0.515625 0.765625q-0.234375 0.75 -0.234375 1.640625l0 4.34375l-1.40625 0z" fill-rule="nonzero"/><path fill="#000000" fill-opacity="0.0" d="m5.3034964 122.87533l101.196846 0l0 38.77166l-101.196846 0z" fill-rule="evenodd"/><path fill="#000000" d="m43.58629 147.23534l0 -11.453125l3.953125 0q1.328125 0 2.03125 0.15625q0.984375 0.234375 1.6875 0.828125q0.90625 0.765625 1.34375 1.953125q0.453125 1.1875 0.453125 2.71875q0 1.3125 -0.3125 2.328125q-0.296875 1.0 -0.78125 1.65625q-0.46875 0.65625 -1.03125 1.046875q-0.5625 0.375 -1.375 0.578125q-0.796875 0.1875 -1.828125 0.1875l-4.140625 0zm1.515625 -1.359375l2.453125 0q1.125 0 1.765625 -0.203125q0.65625 -0.21875 1.03125 -0.59375q0.546875 -0.546875 0.84375 -1.453125q0.296875 -0.90625 0.296875 -2.203125q0 -1.796875 -0.59375 -2.765625q-0.578125 -0.96875 -1.421875 -1.296875q-0.609375 -0.234375 -1.96875 -0.234375l-2.40625 0l0 8.75zm15.2734375 0.328125q-0.78125 0.671875 -1.5 0.953125q-0.71875 0.265625 -1.546875 0.265625q-1.375 0 -2.109375 -0.671875q-0.734375 -0.671875 -0.734375 -1.703125q0 -0.609375 0.28125 -1.109375q0.28125 -0.515625 0.71875 -0.8125q0.453125 -0.3125 1.015625 -0.46875q0.421875 -0.109375 1.25 -0.203125q1.703125 -0.203125 2.515625 -0.484375q0 -0.296875 0 -0.375q0 -0.859375 -0.390625 -1.203125q-0.546875 -0.484375 -1.609375 -0.484375q-0.984375 0 -1.46875 0.359375q-0.46875 0.34375 -0.6875 1.21875l-1.375 -0.1875q0.1875 -0.875 0.609375 -1.421875q0.4375 -0.546875 1.25 -0.828125q0.8125 -0.296875 1.875 -0.296875q1.0625 0 1.71875 0.25q0.671875 0.25 0.984375 0.625q0.3125 0.375 0.4375 0.953125q0.078125 0.359375 0.078125 1.296875l0 1.875q0 1.96875 0.078125 2.484375q0.09375 0.515625 0.359375 1.0l-1.46875 0q-0.21875 -0.4375 -0.28125 -1.03125zm-0.109375 -3.140625q-0.765625 0.3125 -2.296875 0.53125q-0.875 0.125 -1.234375 0.28125q-0.359375 0.15625 -0.5625 0.46875q-0.1875 0.296875 -0.1875 0.65625q0 0.5625 0.421875 0.9375q0.4375 0.375 1.25 0.375q0.8125 0 1.4375 -0.34375q0.640625 -0.359375 0.9375 -0.984375q0.234375 -0.46875 0.234375 -1.40625l0 -0.515625zm3.6015625 4.171875l0 -8.296875l1.265625 0l0 1.171875q0.90625 -1.359375 2.640625 -1.359375q0.75 0 1.375 0.265625q0.625 0.265625 0.9375 0.703125q0.3125 0.4375 0.4375 1.046875q0.078125 0.390625 0.078125 1.359375l0 5.109375l-1.40625 0l0 -5.046875q0 -0.859375 -0.171875 -1.28125q-0.15625 -0.4375 -0.578125 -0.6875q-0.40625 -0.25 -0.96875 -0.25q-0.90625 0 -1.5625 0.578125q-0.640625 0.5625 -0.640625 2.15625l0 4.53125l-1.40625 0zm14.3046875 -1.03125q-0.78125 0.671875 -1.5 0.953125q-0.71875 0.265625 -1.546875 0.265625q-1.375 0 -2.109375 -0.671875q-0.734375 -0.671875 -0.734375 -1.703125q0 -0.609375 0.28125 -1.109375q0.28125 -0.515625 0.71875 -0.8125q0.453125 -0.3125 1.015625 -0.46875q0.421875 -0.109375 1.25 -0.203125q1.703125 -0.203125 2.515625 -0.484375q0 -0.296875 0 -0.375q0 -0.859375 -0.390625 -1.203125q-0.546875 -0.484375 -1.609375 -0.484375q-0.984375 0 -1.46875 0.359375q-0.46875 0.34375 -0.6875 1.21875l-1.375 -0.1875q0.1875 -0.875 0.609375 -1.421875q0.4375 -0.546875 1.25 -0.828125q0.8125 -0.296875 1.875 -0.296875q1.0625 0 1.71875 0.25q0.671875 0.25 0.984375 0.625q0.3125 0.375 0.4375 0.953125q0.078125 0.359375 0.078125 1.296875l0 1.875q0 1.96875 0.078125 2.484375q0.09375 0.515625 0.359375 1.0l-1.46875 0q-0.21875 -0.4375 -0.28125 -1.03125zm-0.109375 -3.140625q-0.765625 0.3125 -2.296875 0.53125q-0.875 0.125 -1.234375 0.28125q-0.359375 0.15625 -0.5625 0.46875q-0.1875 0.296875 -0.1875 0.65625q0 0.5625 0.421875 0.9375q0.4375 0.375 1.25 0.375q0.8125 0 1.4375 -0.34375q0.640625 -0.359375 0.9375 -0.984375q0.234375 -0.46875 0.234375 -1.40625l0 -0.515625zm9.0078125 1.125l1.390625 0.1875q-0.234375 1.421875 -1.171875 2.234375q-0.921875 0.8125 -2.28125 0.8125q-1.703125 0 -2.75 -1.109375q-1.03125 -1.125 -1.03125 -3.203125q0 -1.34375 0.4375 -2.34375q0.453125 -1.015625 1.359375 -1.515625q0.921875 -0.5 1.984375 -0.5q1.359375 0 2.21875 0.6875q0.859375 0.671875 1.09375 1.9375l-1.359375 0.203125q-0.203125 -0.828125 -0.703125 -1.25q-0.484375 -0.421875 -1.1875 -0.421875q-1.0625 0 -1.734375 0.765625q-0.65625 0.75 -0.65625 2.40625q0 1.671875 0.640625 2.4375q0.640625 0.75 1.671875 0.75q0.828125 0 1.375 -0.5q0.5625 -0.515625 0.703125 -1.578125zm2.59375 3.046875l0 -11.453125l1.40625 0l0 4.109375q0.984375 -1.140625 2.484375 -1.140625q0.921875 0 1.59375 0.359375q0.6875 0.359375 0.96875 1.0q0.296875 0.640625 0.296875 1.859375l0 5.265625l-1.40625 0l0 -5.265625q0 -1.046875 -0.453125 -1.53125q-0.453125 -0.484375 -1.296875 -0.484375q-0.625 0 -1.171875 0.328125q-0.546875 0.328125 -0.78125 0.890625q-0.234375 0.546875 -0.234375 1.515625l0 4.546875l-1.40625 0z" fill-rule="nonzero"/></g></svg>