<svg version="1.1" viewBox="0.0 0.0 661.5958005249344 430.8503937007874" fill="none" stroke="none" stroke-linecap="square" stroke-miterlimit="10" xmlns:xlink="http://www.w3.org/1999/xlink" xmlns="http://www.w3.org/2000/svg"><clipPath id="p.0"><path d="m0 0l661.5958 0l0 430.8504l-661.5958 0l0 -430.8504z" clip-rule="nonzero"/></clipPath><g clip-path="url(#p.0)"><path fill="#000000" fill-opacity="0.0" d="m0 0l661.5958 0l0 430.8504l-661.5958 0z" fill-rule="evenodd"/><path fill="#000000" fill-opacity="0.0" d="m4.6456695 5.7454066l649.16534 0l0 269.0394l-649.16534 0z" fill-rule="evenodd"/><path stroke="#000000" stroke-width="1.0" stroke-linejoin="round" stroke-linecap="butt" d="m4.6456695 5.7454066l649.16534 0l0 269.0394l-649.16534 0z" fill-rule="evenodd"/><path fill="#000000" d="m321.65488 30.662907l-1.921875 0q-0.09375 0.6875 -0.328125 1.28125q-0.21875 0.578125 -0.609375 1.015625q-0.375 0.4375 -0.9375 0.671875q-0.5625 0.234375 -1.3125 0.234375q-0.703125 0 -1.234375 -0.21875q-0.515625 -0.21875 -0.890625 -0.625q-0.390625 -0.375 -0.640625 -0.890625q-0.25 -0.515625 -0.40625 -1.09375q-0.15625 -0.578125 -0.234375 -1.171875q-0.0625 -0.59375 -0.0625 -1.15625l0 -2.140625q0 -0.5625 0.0625 -1.15625q0.078125 -0.609375 0.234375 -1.171875q0.15625 -0.578125 0.40625 -1.078125q0.265625 -0.515625 0.640625 -0.90625q0.375 -0.375 0.90625 -0.59375q0.53125 -0.234375 1.21875 -0.234375q0.75 0 1.3125 0.265625q0.5625 0.25 0.9375 0.6875q0.390625 0.453125 0.609375 1.046875q0.234375 0.59375 0.328125 1.28125l1.921875 0q-0.125 -1.078125 -0.515625 -1.96875q-0.390625 -0.90625 -1.03125 -1.546875q-0.640625 -0.640625 -1.546875 -0.984375q-0.890625 -0.359375 -2.015625 -0.359375q-0.953125 0 -1.71875 0.265625q-0.75 0.265625 -1.34375 0.734375q-0.609375 0.46875 -1.046875 1.109375q-0.421875 0.640625 -0.703125 1.390625q-0.296875 0.75 -0.4375 1.578125q-0.140625 0.8125 -0.15625 1.65625l0 2.125q0.015625 0.84375 0.15625 1.671875q0.140625 0.8125 0.4375 1.5625q0.28125 0.75 0.703125 1.390625q0.4375 0.625 1.046875 1.09375q0.59375 0.46875 1.359375 0.734375q0.765625 0.265625 1.703125 0.265625q1.09375 0 1.984375 -0.34375q0.890625 -0.34375 1.546875 -0.984375q0.640625 -0.625 1.046875 -1.5q0.40625 -0.890625 0.53125 -1.9375zm5.095825 -1.515625l2.984375 0q1.015625 -0.015625 1.921875 -0.3125q0.921875 -0.3125 1.609375 -0.875q0.6875 -0.578125 1.078125 -1.40625q0.40625 -0.84375 0.40625 -1.9375q0 -1.09375 -0.40625 -1.9375q-0.390625 -0.84375 -1.078125 -1.421875q-0.6875 -0.5625 -1.609375 -0.859375q-0.90625 -0.3125 -1.921875 -0.328125l-4.921875 0l0 15.15625l1.9375 0l0 -6.078125zm0 -1.59375l0 -5.90625l2.984375 0q0.671875 0.015625 1.234375 0.21875q0.5625 0.203125 0.984375 0.59375q0.40625 0.390625 0.640625 0.9375q0.234375 0.546875 0.234375 1.234375q0 0.6875 -0.234375 1.234375q-0.234375 0.53125 -0.65625 0.90625q-0.40625 0.375 -0.96875 0.578125q-0.5625 0.203125 -1.234375 0.203125l-2.984375 0zm20.20523 -7.484375l-1.859375 0l-0.03125 10.265625q-0.015625 0.671875 -0.21875 1.296875q-0.203125 0.625 -0.578125 1.109375q-0.375 0.484375 -0.9375 0.78125q-0.5625 0.28125 -1.3125 0.28125q-0.734375 0 -1.3125 -0.296875q-0.5625 -0.296875 -0.9375 -0.765625q-0.375 -0.484375 -0.578125 -1.109375q-0.203125 -0.625 -0.21875 -1.296875l-0.046875 -10.265625l-1.828125 0l-0.015625 10.265625q0 1.0625 0.359375 2.0q0.375 0.921875 1.015625 1.609375q0.65625 0.703125 1.5625 1.09375q0.90625 0.390625 2.0 0.390625q1.09375 0 2.0 -0.390625q0.90625 -0.40625 1.5625 -1.109375q0.65625 -0.6875 1.015625 -1.609375q0.375 -0.921875 0.375 -1.984375l-0.015625 -10.265625z" fill-rule="nonzero"/><path fill="#d9d9d9" d="m19.149607 57.44882l144.18896 0l0 45.007877l-144.18896 0z" fill-rule="evenodd"/><path stroke="#000000" stroke-width="2.0" stroke-linejoin="round" stroke-linecap="butt" d="m19.149607 57.44882l144.18896 0l0 45.007877l-144.18896 0z" fill-rule="evenodd"/><path fill="#000000" d="m68.12962 82.54775l-2.28125 0.015625q-0.109375 0.515625 -0.328125 0.96875q-0.203125 0.4375 -0.53125 0.765625q-0.328125 0.3125 -0.78125 0.484375q-0.4375 0.171875 -1.015625 0.15625q-0.5 -0.03125 -0.828125 -0.21875q-0.328125 -0.203125 -0.53125 -0.53125q-0.1875 -0.328125 -0.28125 -0.734375q-0.078125 -0.421875 -0.09375 -0.859375q-0.015625 -0.421875 0.015625 -0.84375q0.03125 -0.4375 0.09375 -0.796875l0.265625 -1.828125q0.0625 -0.421875 0.171875 -0.890625q0.109375 -0.46875 0.265625 -0.90625q0.171875 -0.453125 0.40625 -0.859375q0.234375 -0.40625 0.5625 -0.703125q0.328125 -0.296875 0.734375 -0.46875q0.421875 -0.171875 0.96875 -0.15625q0.5625 0.03125 0.921875 0.234375q0.359375 0.203125 0.5625 0.53125q0.21875 0.34375 0.296875 0.796875q0.078125 0.4375 0.078125 0.9375l2.296875 0q-0.03125 -0.9375 -0.28125 -1.734375q-0.25 -0.8125 -0.734375 -1.390625q-0.5 -0.59375 -1.25 -0.9375q-0.734375 -0.34375 -1.734375 -0.359375q-0.84375 -0.015625 -1.546875 0.21875q-0.703125 0.21875 -1.296875 0.625q-0.59375 0.421875 -1.0625 1.0q-0.453125 0.5625 -0.796875 1.21875q-0.34375 0.65625 -0.578125 1.40625q-0.234375 0.734375 -0.34375 1.453125l-0.265625 1.8125q-0.09375 0.6875 -0.078125 1.390625q0.03125 0.703125 0.1875 1.34375q0.15625 0.65625 0.453125 1.234375q0.296875 0.5625 0.765625 0.984375q0.453125 0.421875 1.0625 0.6875q0.625 0.25 1.4375 0.265625q0.984375 0.03125 1.859375 -0.28125q0.875 -0.3125 1.546875 -0.875q0.65625 -0.578125 1.09375 -1.375q0.453125 -0.8125 0.59375 -1.78125zm2.0746155 -0.828125l-0.015625 0.1875q-0.0625 0.671875 0 1.3125q0.0625 0.640625 0.28125 1.203125q0.15625 0.4375 0.390625 0.796875q0.25 0.359375 0.59375 0.703125q0.40625 0.40625 1.0625 0.671875q0.65625 0.25 1.453125 0.265625q1.09375 0.03125 2.0 -0.359375q0.90625 -0.40625 1.5625 -1.109375q0.65625 -0.6875 1.0625 -1.609375q0.421875 -0.921875 0.546875 -1.953125l0.015625 -0.203125q0.078125 -0.671875 0 -1.3125q-0.0625 -0.65625 -0.25 -1.234375q-0.1875 -0.46875 -0.453125 -0.859375q-0.265625 -0.40625 -0.625 -0.734375q-0.453125 -0.390625 -1.0625 -0.609375q-0.609375 -0.234375 -1.375 -0.234375q-1.09375 -0.03125 -2.0 0.375q-0.890625 0.390625 -1.546875 1.078125q-0.671875 0.703125 -1.09375 1.640625q-0.40625 0.9375 -0.546875 1.984375zm2.28125 0.1875l0.015625 -0.1875q0.078125 -0.5625 0.265625 -1.125q0.1875 -0.578125 0.515625 -1.046875q0.328125 -0.46875 0.8125 -0.75q0.484375 -0.28125 1.140625 -0.265625q0.546875 0.03125 0.890625 0.28125q0.34375 0.25 0.515625 0.65625q0.234375 0.515625 0.25 1.09375q0.015625 0.5625 -0.03125 1.078125l-0.015625 0.1875q-0.078125 0.515625 -0.265625 1.109375q-0.1875 0.578125 -0.515625 1.03125q-0.328125 0.46875 -0.8125 0.75q-0.484375 0.28125 -1.125 0.265625q-0.59375 -0.015625 -0.953125 -0.3125q-0.359375 -0.296875 -0.515625 -0.734375q-0.171875 -0.453125 -0.203125 -0.984375q-0.015625 -0.546875 0.03125 -1.046875zm16.512115 -5.296875q-0.546875 0 -1.03125 0.140625q-0.46875 0.125 -0.890625 0.359375q-0.4375 0.25 -0.8125 0.59375q-0.375 0.328125 -0.71875 0.71875l0.0625 -0.375l0.203125 -1.234375l-2.140625 0l-1.703125 9.859375l2.296875 0l1.03125 -6.015625q0.25 -0.40625 0.546875 -0.71875q0.3125 -0.3125 0.671875 -0.53125q0.390625 -0.21875 0.828125 -0.328125q0.453125 -0.125 0.984375 -0.125q0.484375 0.015625 0.953125 0.09375q0.46875 0.0625 0.921875 0.171875l0.640625 -2.34375q-0.46875 -0.125 -0.921875 -0.1875q-0.453125 -0.0625 -0.921875 -0.078125zm7.2777405 10.25q1.171875 0 2.28125 -0.4375q1.109375 -0.453125 1.765625 -1.375l-1.078125 -1.25q-0.546875 0.5625 -1.25 0.875q-0.6875 0.3125 -1.46875 0.28125q-0.53125 -0.015625 -0.9375 -0.203125q-0.40625 -0.203125 -0.671875 -0.53125q-0.265625 -0.34375 -0.40625 -0.78125q-0.125 -0.453125 -0.09375 -0.953125l6.515625 0l0.15625 -1.0q0.109375 -0.9375 -0.046875 -1.796875q-0.15625 -0.875 -0.609375 -1.546875q-0.453125 -0.671875 -1.1875 -1.078125q-0.734375 -0.40625 -1.765625 -0.421875q-0.734375 -0.03125 -1.390625 0.15625q-0.65625 0.1875 -1.21875 0.53125q-0.46875 0.28125 -0.875 0.6875q-0.40625 0.390625 -0.734375 0.84375q-0.4375 0.625 -0.71875 1.359375q-0.265625 0.734375 -0.34375 1.53125l-0.046875 0.359375q-0.09375 1.0 0.15625 1.859375q0.265625 0.84375 0.8125 1.484375q0.53125 0.640625 1.34375 1.015625q0.8125 0.375 1.8125 0.390625zm1.03125 -8.328125q0.4375 0.03125 0.765625 0.203125q0.34375 0.15625 0.5625 0.4375q0.21875 0.28125 0.296875 0.65625q0.078125 0.359375 0.015625 0.78125l-0.046875 0.21875l-4.25 0q0.1875 -0.4375 0.421875 -0.84375q0.234375 -0.421875 0.578125 -0.75q0.3125 -0.328125 0.71875 -0.515625q0.421875 -0.203125 0.9375 -0.1875zm25.414856 3.078125l0.5 -3.140625q0.078125 -0.578125 0.0625 -1.15625q-0.015625 -0.578125 -0.125 -1.09375q-0.109375 -0.59375 -0.359375 -1.109375q-0.25 -0.53125 -0.640625 -0.9375q-0.390625 -0.421875 -0.984375 -0.671875q-0.59375 -0.265625 -1.375 -0.28125q-0.71875 -0.015625 -1.328125 0.15625q-0.59375 0.15625 -1.09375 0.46875q-0.359375 0.234375 -0.671875 0.53125q-0.296875 0.296875 -0.53125 0.640625q-0.546875 0.703125 -0.875 1.609375q-0.3125 0.890625 -0.453125 1.84375l-0.484375 3.140625q-0.078125 0.484375 -0.078125 0.96875q0 0.484375 0.078125 0.921875q0.046875 0.5 0.203125 0.984375q0.15625 0.46875 0.421875 0.859375q0.390625 0.65625 1.078125 1.078125q0.6875 0.40625 1.71875 0.4375q0.703125 0.015625 1.296875 -0.15625q0.609375 -0.15625 1.09375 -0.453125q0.5625 -0.359375 0.984375 -0.859375q0.4375 -0.5 0.75 -1.109375q0.3125 -0.59375 0.5 -1.28125q0.203125 -0.6875 0.3125 -1.390625zm-3.109375 -6.484375q0.53125 0.015625 0.828125 0.28125q0.296875 0.25 0.4375 0.625q0.140625 0.390625 0.15625 0.84375q0.015625 0.453125 -0.03125 0.875l-4.1875 2.84375q0.015625 -0.0625 0.015625 -0.140625q0.015625 -0.078125 0.0625 -0.390625l0.328125 -2.0q0.0625 -0.453125 0.1875 -0.9375q0.125 -0.484375 0.359375 -0.90625q0.109375 -0.203125 0.25 -0.375q0.140625 -0.1875 0.3125 -0.328125q0.25 -0.1875 0.5625 -0.296875q0.3125 -0.109375 0.71875 -0.09375zm-1.65625 9.84375q-0.515625 -0.015625 -0.828125 -0.265625q-0.296875 -0.25 -0.4375 -0.625q-0.140625 -0.359375 -0.171875 -0.796875q-0.015625 -0.453125 0.015625 -0.859375l4.21875 -2.859375q-0.046875 0.21875 -0.0625 0.34375q-0.015625 0.125 -0.046875 0.328125l-0.28125 1.765625q-0.0625 0.359375 -0.15625 0.734375q-0.078125 0.359375 -0.21875 0.703125q-0.125 0.359375 -0.34375 0.671875q-0.21875 0.3125 -0.5 0.546875q-0.25 0.171875 -0.546875 0.25q-0.28125 0.078125 -0.640625 0.0625z" fill-rule="nonzero"/><path fill="#cfe2f3" d="m19.150244 102.456696l72.09449 0l0 45.007874l-72.09449 0z" fill-rule="evenodd"/><path stroke="#000000" stroke-width="2.0" stroke-linejoin="round" stroke-linecap="butt" d="m19.150244 102.456696l72.09449 0l0 45.007874l-72.09449 0z" fill-rule="evenodd"/><path fill="#000000" d="m36.556347 129.88376l0 -11.468758l-2.203125 0l0 13.265633l8.53125 0l0 -1.796875l-6.328125 0zm14.758072 1.796875l0 -13.265633l-0.140625 0l-5.453125 2.03125l0 1.921875l3.390625 -1.25l0 10.562508l2.203125 0zm13.539318 -4.9531326l0 -1.765625l-7.328121 0l0 1.765625l7.328121 0zm2.789322 4.9531326l3.359375 0q0.90625 0 1.703125 -0.21875q0.796875 -0.21875 1.453125 -0.625q0.59375 -0.375 1.0625 -0.90625q0.484375 -0.53125 0.8125 -1.171875q0.359375 -0.671875 0.53125 -1.4687576q0.1875 -0.8125 0.1875 -1.71875l0 -1.03125q0 -0.9375 -0.203125 -1.765625q-0.1875 -0.828125 -0.5625 -1.53125q-0.34375 -0.65625 -0.875 -1.1875q-0.515625 -0.546875 -1.1875 -0.90625q-0.625 -0.34375 -1.390625 -0.53125q-0.75 -0.203125 -1.609375 -0.203125l-3.28125 0l0 13.265633zm2.21875 -11.484383l1.0625 0q0.53125 0.015625 0.984375 0.140625q0.453125 0.109375 0.828125 0.3125q0.5 0.28125 0.859375 0.734375q0.359375 0.453125 0.578125 1.0q0.1875 0.453125 0.265625 1.0q0.09375 0.53125 0.09375 1.140625l0 1.046875q0 0.609375 -0.09375 1.15625q-0.078125 0.53125 -0.265625 0.984375q-0.1875 0.5468826 -0.515625 0.9687576q-0.3125 0.40625 -0.703125 0.671875q-0.390625 0.265625 -0.890625 0.40625q-0.484375 0.140625 -1.0625 0.140625l-1.140625 0l0 -9.703133z" fill-rule="nonzero"/><path fill="#cfe2f3" d="m91.244095 102.456696l72.09448 0l0 45.007874l-72.09448 0z" fill-rule="evenodd"/><path stroke="#000000" stroke-width="2.0" stroke-linejoin="round" stroke-linecap="butt" d="m91.244095 102.456696l72.09448 0l0 45.007874l-72.09448 0z" fill-rule="evenodd"/><path fill="#000000" d="m108.65019 129.88376l0 -11.468758l-2.203125 0l0 13.265633l8.53125 0l0 -1.796875l-6.328125 0zm14.758072 1.796875l0 -13.265633l-0.140625 0l-5.453125 2.03125l0 1.921875l3.390625 -1.25l0 10.562508l2.203125 0zm13.539322 -4.9531326l0 -1.765625l-7.328125 0l0 1.765625l7.328125 0zm3.226822 -8.3125l0 1.8125l2.765625 0l0 9.656258l-2.765625 0l0 1.796875l7.8125 0l0 -1.796875l-2.828125 0l0 -9.656258l2.828125 0l0 -1.8125l-7.8125 0z" fill-rule="nonzero"/><path fill="#cfe2f3" d="m19.149607 147.46457l144.18896 0l0 45.007874l-144.18896 0z" fill-rule="evenodd"/><path stroke="#000000" stroke-width="2.0" stroke-linejoin="round" stroke-linecap="butt" d="m19.149607 147.46457l144.18896 0l0 45.007874l-144.18896 0z" fill-rule="evenodd"/><path fill="#000000" d="m83.79852 174.89163l0 -11.46875l-2.203125 0l0 13.265625l8.53125 0l0 -1.796875l-6.328125 0zm17.304947 1.796875l0 -1.765625l-6.171875 0l2.9375 -3.140625q0.59375 -0.625 1.078125 -1.203125q0.5 -0.59375 0.875 -1.15625q0.34375 -0.578125 0.546875 -1.15625q0.21875 -0.59375 0.21875 -1.21875q0 -0.84375 -0.28125 -1.53125q-0.265625 -0.703125 -0.796875 -1.203125q-0.515625 -0.5 -1.296875 -0.78125q-0.765625 -0.296875 -1.734375 -0.296875q-1.046875 0 -1.890625 0.34375q-0.84375 0.34375 -1.421875 0.90625q-0.59375 0.578125 -0.921875 1.359375q-0.3125 0.765625 -0.3125 1.625l2.1875 0q0 -0.578125 0.140625 -1.015625q0.15625 -0.453125 0.453125 -0.78125q0.28125 -0.296875 0.703125 -0.453125q0.421875 -0.171875 1.015625 -0.171875q0.453125 0 0.8125 0.15625q0.375 0.15625 0.640625 0.421875q0.265625 0.28125 0.390625 0.671875q0.140625 0.375 0.140625 0.828125q0 0.359375 -0.09375 0.703125q-0.09375 0.328125 -0.3125 0.71875q-0.21875 0.390625 -0.59375 0.859375q-0.359375 0.46875 -0.890625 1.0625l-4.328125 4.703125l0 1.515625l8.90625 0z" fill-rule="nonzero"/><path fill="#d9d9d9" d="m177.81102 57.44882l144.18898 0l0 45.007877l-144.18898 0z" fill-rule="evenodd"/><path stroke="#000000" stroke-width="2.0" stroke-linejoin="round" stroke-linecap="butt" d="m177.81102 57.44882l144.18898 0l0 45.007877l-144.18898 0z" fill-rule="evenodd"/><path fill="#000000" d="m226.79105 82.54775l-2.28125 0.015625q-0.109375 0.515625 -0.328125 0.96875q-0.203125 0.4375 -0.53125 0.765625q-0.328125 0.3125 -0.78125 0.484375q-0.4375 0.171875 -1.015625 0.15625q-0.5 -0.03125 -0.828125 -0.21875q-0.328125 -0.203125 -0.53125 -0.53125q-0.1875 -0.328125 -0.28125 -0.734375q-0.078125 -0.421875 -0.09375 -0.859375q-0.015625 -0.421875 0.015625 -0.84375q0.03125 -0.4375 0.09375 -0.796875l0.265625 -1.828125q0.0625 -0.421875 0.171875 -0.890625q0.109375 -0.46875 0.265625 -0.90625q0.171875 -0.453125 0.40625 -0.859375q0.234375 -0.40625 0.5625 -0.703125q0.328125 -0.296875 0.734375 -0.46875q0.421875 -0.171875 0.96875 -0.15625q0.5625 0.03125 0.921875 0.234375q0.359375 0.203125 0.5625 0.53125q0.21875 0.34375 0.296875 0.796875q0.078125 0.4375 0.078125 0.9375l2.296875 0q-0.03125 -0.9375 -0.28125 -1.734375q-0.25 -0.8125 -0.734375 -1.390625q-0.5 -0.59375 -1.25 -0.9375q-0.734375 -0.34375 -1.734375 -0.359375q-0.84375 -0.015625 -1.546875 0.21875q-0.703125 0.21875 -1.296875 0.625q-0.59375 0.421875 -1.0625 1.0q-0.453125 0.5625 -0.796875 1.21875q-0.34375 0.65625 -0.578125 1.40625q-0.234375 0.734375 -0.34375 1.453125l-0.265625 1.8125q-0.09375 0.6875 -0.078125 1.390625q0.03125 0.703125 0.1875 1.34375q0.15625 0.65625 0.453125 1.234375q0.296875 0.5625 0.765625 0.984375q0.453125 0.421875 1.0625 0.6875q0.625 0.25 1.4375 0.265625q0.984375 0.03125 1.859375 -0.28125q0.875 -0.3125 1.546875 -0.875q0.65625 -0.578125 1.09375 -1.375q0.453125 -0.8125 0.59375 -1.78125zm2.0746155 -0.828125l-0.015625 0.1875q-0.0625 0.671875 0 1.3125q0.0625 0.640625 0.28125 1.203125q0.15625 0.4375 0.390625 0.796875q0.25 0.359375 0.59375 0.703125q0.40625 0.40625 1.0625 0.671875q0.65625 0.25 1.453125 0.265625q1.09375 0.03125 2.0 -0.359375q0.90625 -0.40625 1.5625 -1.109375q0.65625 -0.6875 1.0625 -1.609375q0.421875 -0.921875 0.546875 -1.953125l0.015625 -0.203125q0.078125 -0.671875 0 -1.3125q-0.0625 -0.65625 -0.25 -1.234375q-0.1875 -0.46875 -0.453125 -0.859375q-0.265625 -0.40625 -0.625 -0.734375q-0.453125 -0.390625 -1.0625 -0.609375q-0.609375 -0.234375 -1.375 -0.234375q-1.09375 -0.03125 -2.0 0.375q-0.890625 0.390625 -1.546875 1.078125q-0.671875 0.703125 -1.09375 1.640625q-0.40625 0.9375 -0.546875 1.984375zm2.28125 0.1875l0.015625 -0.1875q0.078125 -0.5625 0.265625 -1.125q0.1875 -0.578125 0.515625 -1.046875q0.328125 -0.46875 0.8125 -0.75q0.484375 -0.28125 1.140625 -0.265625q0.546875 0.03125 0.890625 0.28125q0.34375 0.25 0.515625 0.65625q0.234375 0.515625 0.25 1.09375q0.015625 0.5625 -0.03125 1.078125l-0.015625 0.1875q-0.078125 0.515625 -0.265625 1.109375q-0.1875 0.578125 -0.515625 1.03125q-0.328125 0.46875 -0.8125 0.75q-0.484375 0.28125 -1.125 0.265625q-0.59375 -0.015625 -0.953125 -0.3125q-0.359375 -0.296875 -0.515625 -0.734375q-0.171875 -0.453125 -0.203125 -0.984375q-0.015625 -0.546875 0.03125 -1.046875zm16.512115 -5.296875q-0.546875 0 -1.03125 0.140625q-0.46875 0.125 -0.890625 0.359375q-0.4375 0.25 -0.8125 0.59375q-0.375 0.328125 -0.71875 0.71875l0.0625 -0.375l0.203125 -1.234375l-2.140625 0l-1.703125 9.859375l2.296875 0l1.03125 -6.015625q0.25 -0.40625 0.546875 -0.71875q0.3125 -0.3125 0.671875 -0.53125q0.390625 -0.21875 0.828125 -0.328125q0.453125 -0.125 0.984375 -0.125q0.484375 0.015625 0.953125 0.09375q0.46875 0.0625 0.921875 0.171875l0.640625 -2.34375q-0.46875 -0.125 -0.921875 -0.1875q-0.453125 -0.0625 -0.921875 -0.078125zm7.2777405 10.25q1.171875 0 2.28125 -0.4375q1.109375 -0.453125 1.765625 -1.375l-1.078125 -1.25q-0.546875 0.5625 -1.25 0.875q-0.6875 0.3125 -1.46875 0.28125q-0.53125 -0.015625 -0.9375 -0.203125q-0.40625 -0.203125 -0.671875 -0.53125q-0.265625 -0.34375 -0.40625 -0.78125q-0.125 -0.453125 -0.09375 -0.953125l6.515625 0l0.15625 -1.0q0.109375 -0.9375 -0.046875 -1.796875q-0.15625 -0.875 -0.609375 -1.546875q-0.453125 -0.671875 -1.1875 -1.078125q-0.734375 -0.40625 -1.765625 -0.421875q-0.734375 -0.03125 -1.390625 0.15625q-0.65625 0.1875 -1.21875 0.53125q-0.46875 0.28125 -0.875 0.6875q-0.40625 0.390625 -0.734375 0.84375q-0.4375 0.625 -0.71875 1.359375q-0.265625 0.734375 -0.34375 1.53125l-0.046875 0.359375q-0.09375 1.0 0.15625 1.859375q0.265625 0.84375 0.8125 1.484375q0.53125 0.640625 1.34375 1.015625q0.8125 0.375 1.8125 0.390625zm1.03125 -8.328125q0.4375 0.03125 0.765625 0.203125q0.34375 0.15625 0.5625 0.4375q0.21875 0.28125 0.296875 0.65625q0.078125 0.359375 0.015625 0.78125l-0.046875 0.21875l-4.25 0q0.1875 -0.4375 0.421875 -0.84375q0.234375 -0.421875 0.578125 -0.75q0.3125 -0.328125 0.71875 -0.515625q0.421875 -0.203125 0.9375 -0.1875zm22.071106 8.140625l2.25 -13.265625l-0.1875 0l-5.703125 2.015625l-0.375 2.15625l3.5 -1.234375l-1.796875 10.328125l2.3125 0z" fill-rule="nonzero"/><path fill="#cfe2f3" d="m177.81166 102.456696l72.09448 0l0 45.007874l-72.09448 0z" fill-rule="evenodd"/><path stroke="#000000" stroke-width="2.0" stroke-linejoin="round" stroke-linecap="butt" d="m177.81166 102.456696l72.09448 0l0 45.007874l-72.09448 0z" fill-rule="evenodd"/><path fill="#000000" d="m195.21776 129.88376l0 -11.468758l-2.203125 0l0 13.265633l8.53125 0l0 -1.796875l-6.328125 0zm14.758072 1.796875l0 -13.265633l-0.140625 0l-5.453125 2.03125l0 1.921875l3.390625 -1.25l0 10.562508l2.203125 0zm13.539322 -4.9531326l0 -1.765625l-7.328125 0l0 1.765625l7.328125 0zm2.789322 4.9531326l3.359375 0q0.90625 0 1.703125 -0.21875q0.796875 -0.21875 1.453125 -0.625q0.59375 -0.375 1.0625 -0.90625q0.484375 -0.53125 0.8125 -1.171875q0.359375 -0.671875 0.53125 -1.4687576q0.1875 -0.8125 0.1875 -1.71875l0 -1.03125q0 -0.9375 -0.203125 -1.765625q-0.1875 -0.828125 -0.5625 -1.53125q-0.34375 -0.65625 -0.875 -1.1875q-0.515625 -0.546875 -1.1875 -0.90625q-0.625 -0.34375 -1.390625 -0.53125q-0.75 -0.203125 -1.609375 -0.203125l-3.28125 0l0 13.265633zm2.21875 -11.484383l1.0625 0q0.53125 0.015625 0.984375 0.140625q0.453125 0.109375 0.828125 0.3125q0.5 0.28125 0.859375 0.734375q0.359375 0.453125 0.578125 1.0q0.1875 0.453125 0.265625 1.0q0.09375 0.53125 0.09375 1.140625l0 1.046875q0 0.609375 -0.09375 1.15625q-0.078125 0.53125 -0.265625 0.984375q-0.1875 0.5468826 -0.515625 0.9687576q-0.3125 0.40625 -0.703125 0.671875q-0.390625 0.265625 -0.890625 0.40625q-0.484375 0.140625 -1.0625 0.140625l-1.140625 0l0 -9.703133z" fill-rule="nonzero"/><path fill="#cfe2f3" d="m249.90552 102.456696l72.09448 0l0 45.007874l-72.09448 0z" fill-rule="evenodd"/><path stroke="#000000" stroke-width="2.0" stroke-linejoin="round" stroke-linecap="butt" d="m249.90552 102.456696l72.09448 0l0 45.007874l-72.09448 0z" fill-rule="evenodd"/><path fill="#000000" d="m267.3116 129.88376l0 -11.468758l-2.203125 0l0 13.265633l8.53125 0l0 -1.796875l-6.328125 0zm14.758057 1.796875l0 -13.265633l-0.140625 0l-5.453125 2.03125l0 1.921875l3.390625 -1.25l0 10.562508l2.203125 0zm13.539337 -4.9531326l0 -1.765625l-7.328125 0l0 1.765625l7.328125 0zm3.2268066 -8.3125l0 1.8125l2.765625 0l0 9.656258l-2.765625 0l0 1.796875l7.8125 0l0 -1.796875l-2.828125 0l0 -9.656258l2.828125 0l0 -1.8125l-7.8125 0z" fill-rule="nonzero"/><path fill="#cfe2f3" d="m177.81102 147.46457l144.18898 0l0 45.007874l-144.18898 0z" fill-rule="evenodd"/><path stroke="#000000" stroke-width="2.0" stroke-linejoin="round" stroke-linecap="butt" d="m177.81102 147.46457l144.18898 0l0 45.007874l-144.18898 0z" fill-rule="evenodd"/><path fill="#000000" d="m242.45995 174.89163l0 -11.46875l-2.203125 0l0 13.265625l8.53125 0l0 -1.796875l-6.328125 0zm17.304947 1.796875l0 -1.765625l-6.171875 0l2.9375 -3.140625q0.59375 -0.625 1.078125 -1.203125q0.5 -0.59375 0.875 -1.15625q0.34375 -0.578125 0.546875 -1.15625q0.21875 -0.59375 0.21875 -1.21875q0 -0.84375 -0.28125 -1.53125q-0.265625 -0.703125 -0.796875 -1.203125q-0.515625 -0.5 -1.296875 -0.78125q-0.765625 -0.296875 -1.734375 -0.296875q-1.046875 0 -1.890625 0.34375q-0.84375 0.34375 -1.421875 0.90625q-0.59375 0.578125 -0.921875 1.359375q-0.3125 0.765625 -0.3125 1.625l2.1875 0q0 -0.578125 0.140625 -1.015625q0.15625 -0.453125 0.453125 -0.78125q0.28125 -0.296875 0.703125 -0.453125q0.421875 -0.171875 1.015625 -0.171875q0.453125 0 0.8125 0.15625q0.375 0.15625 0.640625 0.421875q0.265625 0.28125 0.390625 0.671875q0.140625 0.375 0.140625 0.828125q0 0.359375 -0.09375 0.703125q-0.09375 0.328125 -0.3125 0.71875q-0.21875 0.390625 -0.59375 0.859375q-0.359375 0.46875 -0.890625 1.0625l-4.328125 4.703125l0 1.515625l8.90625 0z" fill-rule="nonzero"/><path fill="#d9d9d9" d="m336.47244 57.44882l144.18896 0l0 45.007877l-144.18896 0z" fill-rule="evenodd"/><path stroke="#000000" stroke-width="2.0" stroke-linejoin="round" stroke-linecap="butt" d="m336.47244 57.44882l144.18896 0l0 45.007877l-144.18896 0z" fill-rule="evenodd"/><path fill="#000000" d="m385.45245 82.54775l-2.28125 0.015625q-0.109375 0.515625 -0.328125 0.96875q-0.203125 0.4375 -0.53125 0.765625q-0.328125 0.3125 -0.78125 0.484375q-0.4375 0.171875 -1.015625 0.15625q-0.5 -0.03125 -0.828125 -0.21875q-0.328125 -0.203125 -0.53125 -0.53125q-0.1875 -0.328125 -0.28125 -0.734375q-0.078125 -0.421875 -0.09375 -0.859375q-0.015625 -0.421875 0.015625 -0.84375q0.03125 -0.4375 0.09375 -0.796875l0.265625 -1.828125q0.0625 -0.421875 0.171875 -0.890625q0.109375 -0.46875 0.265625 -0.90625q0.171875 -0.453125 0.40625 -0.859375q0.234375 -0.40625 0.5625 -0.703125q0.328125 -0.296875 0.734375 -0.46875q0.421875 -0.171875 0.96875 -0.15625q0.5625 0.03125 0.921875 0.234375q0.359375 0.203125 0.5625 0.53125q0.21875 0.34375 0.296875 0.796875q0.078125 0.4375 0.078125 0.9375l2.296875 0q-0.03125 -0.9375 -0.28125 -1.734375q-0.25 -0.8125 -0.734375 -1.390625q-0.5 -0.59375 -1.25 -0.9375q-0.734375 -0.34375 -1.734375 -0.359375q-0.84375 -0.015625 -1.546875 0.21875q-0.703125 0.21875 -1.296875 0.625q-0.59375 0.421875 -1.0625 1.0q-0.453125 0.5625 -0.796875 1.21875q-0.34375 0.65625 -0.578125 1.40625q-0.234375 0.734375 -0.34375 1.453125l-0.265625 1.8125q-0.09375 0.6875 -0.078125 1.390625q0.03125 0.703125 0.1875 1.34375q0.15625 0.65625 0.453125 1.234375q0.296875 0.5625 0.765625 0.984375q0.453125 0.421875 1.0625 0.6875q0.625 0.25 1.4375 0.265625q0.984375 0.03125 1.859375 -0.28125q0.875 -0.3125 1.546875 -0.875q0.65625 -0.578125 1.09375 -1.375q0.453125 -0.8125 0.59375 -1.78125zm2.0746155 -0.828125l-0.015625 0.1875q-0.0625 0.671875 0 1.3125q0.0625 0.640625 0.28125 1.203125q0.15625 0.4375 0.390625 0.796875q0.25 0.359375 0.59375 0.703125q0.40625 0.40625 1.0625 0.671875q0.65625 0.25 1.453125 0.265625q1.09375 0.03125 2.0 -0.359375q0.90625 -0.40625 1.5625 -1.109375q0.65625 -0.6875 1.0625 -1.609375q0.421875 -0.921875 0.546875 -1.953125l0.015625 -0.203125q0.078125 -0.671875 0 -1.3125q-0.0625 -0.65625 -0.25 -1.234375q-0.1875 -0.46875 -0.453125 -0.859375q-0.265625 -0.40625 -0.625 -0.734375q-0.453125 -0.390625 -1.0625 -0.609375q-0.609375 -0.234375 -1.375 -0.234375q-1.09375 -0.03125 -2.0 0.375q-0.890625 0.390625 -1.546875 1.078125q-0.671875 0.703125 -1.09375 1.640625q-0.40625 0.9375 -0.546875 1.984375zm2.28125 0.1875l0.015625 -0.1875q0.078125 -0.5625 0.265625 -1.125q0.1875 -0.578125 0.515625 -1.046875q0.328125 -0.46875 0.8125 -0.75q0.484375 -0.28125 1.140625 -0.265625q0.546875 0.03125 0.890625 0.28125q0.34375 0.25 0.515625 0.65625q0.234375 0.515625 0.25 1.09375q0.015625 0.5625 -0.03125 1.078125l-0.015625 0.1875q-0.078125 0.515625 -0.265625 1.109375q-0.1875 0.578125 -0.515625 1.03125q-0.328125 0.46875 -0.8125 0.75q-0.484375 0.28125 -1.125 0.265625q-0.59375 -0.015625 -0.953125 -0.3125q-0.359375 -0.296875 -0.515625 -0.734375q-0.171875 -0.453125 -0.203125 -0.984375q-0.015625 -0.546875 0.03125 -1.046875zm16.512115 -5.296875q-0.546875 0 -1.03125 0.140625q-0.46875 0.125 -0.890625 0.359375q-0.4375 0.25 -0.8125 0.59375q-0.375 0.328125 -0.71875 0.71875l0.0625 -0.375l0.203125 -1.234375l-2.140625 0l-1.703125 9.859375l2.296875 0l1.03125 -6.015625q0.25 -0.40625 0.546875 -0.71875q0.3125 -0.3125 0.671875 -0.53125q0.390625 -0.21875 0.828125 -0.328125q0.453125 -0.125 0.984375 -0.125q0.484375 0.015625 0.953125 0.09375q0.46875 0.0625 0.921875 0.171875l0.640625 -2.34375q-0.46875 -0.125 -0.921875 -0.1875q-0.453125 -0.0625 -0.921875 -0.078125zm7.2777405 10.25q1.171875 0 2.28125 -0.4375q1.109375 -0.453125 1.765625 -1.375l-1.078125 -1.25q-0.546875 0.5625 -1.25 0.875q-0.6875 0.3125 -1.46875 0.28125q-0.53125 -0.015625 -0.9375 -0.203125q-0.40625 -0.203125 -0.671875 -0.53125q-0.265625 -0.34375 -0.40625 -0.78125q-0.125 -0.453125 -0.09375 -0.953125l6.515625 0l0.15625 -1.0q0.109375 -0.9375 -0.046875 -1.796875q-0.15625 -0.875 -0.609375 -1.546875q-0.453125 -0.671875 -1.1875 -1.078125q-0.734375 -0.40625 -1.765625 -0.421875q-0.734375 -0.03125 -1.390625 0.15625q-0.65625 0.1875 -1.21875 0.53125q-0.46875 0.28125 -0.875 0.6875q-0.40625 0.390625 -0.734375 0.84375q-0.4375 0.625 -0.71875 1.359375q-0.265625 0.734375 -0.34375 1.53125l-0.046875 0.359375q-0.09375 1.0 0.15625 1.859375q0.265625 0.84375 0.8125 1.484375q0.53125 0.640625 1.34375 1.015625q0.8125 0.375 1.8125 0.390625zm1.03125 -8.328125q0.4375 0.03125 0.765625 0.203125q0.34375 0.15625 0.5625 0.4375q0.21875 0.28125 0.296875 0.65625q0.078125 0.359375 0.015625 0.78125l-0.046875 0.21875l-4.25 0q0.1875 -0.4375 0.421875 -0.84375q0.234375 -0.421875 0.578125 -0.75q0.3125 -0.328125 0.71875 -0.515625q0.421875 -0.203125 0.9375 -0.1875zm24.602356 8.140625l0.296875 -1.890625l-5.75 0l3.09375 -2.90625q0.53125 -0.484375 1.09375 -1.015625q0.578125 -0.53125 1.0625 -1.140625q0.484375 -0.59375 0.8125 -1.265625q0.34375 -0.6875 0.40625 -1.453125q0.078125 -0.84375 -0.171875 -1.53125q-0.234375 -0.703125 -0.6875 -1.1875q-0.484375 -0.5 -1.171875 -0.765625q-0.6875 -0.265625 -1.515625 -0.296875q-0.953125 -0.015625 -1.8125 0.296875q-0.859375 0.296875 -1.53125 0.875q-0.671875 0.5625 -1.109375 1.359375q-0.4375 0.796875 -0.5 1.75l2.28125 0q0.078125 -0.515625 0.25 -0.9375q0.1875 -0.4375 0.5 -0.75q0.296875 -0.3125 0.71875 -0.484375q0.4375 -0.171875 0.984375 -0.15625q0.40625 0.015625 0.703125 0.171875q0.296875 0.15625 0.484375 0.421875q0.1875 0.25 0.25 0.59375q0.0625 0.34375 0.015625 0.734375q-0.0625 0.5 -0.3125 0.953125q-0.234375 0.4375 -0.578125 0.859375q-0.34375 0.421875 -0.734375 0.796875q-0.390625 0.359375 -0.71875 0.6875l-4.8125 4.5625l-0.265625 1.71875l8.71875 0z" fill-rule="nonzero"/><path fill="#cfe2f3" d="m336.47308 102.456696l72.09448 0l0 45.007874l-72.09448 0z" fill-rule="evenodd"/><path stroke="#000000" stroke-width="2.0" stroke-linejoin="round" stroke-linecap="butt" d="m336.47308 102.456696l72.09448 0l0 45.007874l-72.09448 0z" fill-rule="evenodd"/><path fill="#000000" d="m353.87918 129.88376l0 -11.468758l-2.203125 0l0 13.265633l8.53125 0l0 -1.796875l-6.328125 0zm14.758057 1.796875l0 -13.265633l-0.140625 0l-5.453125 2.03125l0 1.921875l3.390625 -1.25l0 10.562508l2.203125 0zm13.539337 -4.9531326l0 -1.765625l-7.328125 0l0 1.765625l7.328125 0zm2.7893066 4.9531326l3.359375 0q0.90625 0 1.703125 -0.21875q0.796875 -0.21875 1.453125 -0.625q0.59375 -0.375 1.0625 -0.90625q0.484375 -0.53125 0.8125 -1.171875q0.359375 -0.671875 0.53125 -1.4687576q0.1875 -0.8125 0.1875 -1.71875l0 -1.03125q0 -0.9375 -0.203125 -1.765625q-0.1875 -0.828125 -0.5625 -1.53125q-0.34375 -0.65625 -0.875 -1.1875q-0.515625 -0.546875 -1.1875 -0.90625q-0.625 -0.34375 -1.390625 -0.53125q-0.75 -0.203125 -1.609375 -0.203125l-3.28125 0l0 13.265633zm2.21875 -11.484383l1.0625 0q0.53125 0.015625 0.984375 0.140625q0.453125 0.109375 0.828125 0.3125q0.5 0.28125 0.859375 0.734375q0.359375 0.453125 0.578125 1.0q0.1875 0.453125 0.265625 1.0q0.09375 0.53125 0.09375 1.140625l0 1.046875q0 0.609375 -0.09375 1.15625q-0.078125 0.53125 -0.265625 0.984375q-0.1875 0.5468826 -0.515625 0.9687576q-0.3125 0.40625 -0.703125 0.671875q-0.390625 0.265625 -0.890625 0.40625q-0.484375 0.140625 -1.0625 0.140625l-1.140625 0l0 -9.703133z" fill-rule="nonzero"/><path fill="#cfe2f3" d="m408.56693 102.456696l72.09448 0l0 45.007874l-72.09448 0z" fill-rule="evenodd"/><path stroke="#000000" stroke-width="2.0" stroke-linejoin="round" stroke-linecap="butt" d="m408.56693 102.456696l72.09448 0l0 45.007874l-72.09448 0z" fill-rule="evenodd"/><path fill="#000000" d="m425.97302 129.88376l0 -11.468758l-2.203125 0l0 13.265633l8.53125 0l0 -1.796875l-6.328125 0zm14.758087 1.796875l0 -13.265633l-0.140625 0l-5.453125 2.03125l0 1.921875l3.390625 -1.25l0 10.562508l2.203125 0zm13.539307 -4.9531326l0 -1.765625l-7.328125 0l0 1.765625l7.328125 0zm3.2268372 -8.3125l0 1.8125l2.765625 0l0 9.656258l-2.765625 0l0 1.796875l7.8125 0l0 -1.796875l-2.828125 0l0 -9.656258l2.828125 0l0 -1.8125l-7.8125 0z" fill-rule="nonzero"/><path fill="#cfe2f3" d="m336.47244 147.46457l144.18896 0l0 45.007874l-144.18896 0z" fill-rule="evenodd"/><path stroke="#000000" stroke-width="2.0" stroke-linejoin="round" stroke-linecap="butt" d="m336.47244 147.46457l144.18896 0l0 45.007874l-144.18896 0z" fill-rule="evenodd"/><path fill="#000000" d="m401.12137 174.89163l0 -11.46875l-2.203125 0l0 13.265625l8.53125 0l0 -1.796875l-6.328125 0zm17.304932 1.796875l0 -1.765625l-6.171875 0l2.9375 -3.140625q0.59375 -0.625 1.078125 -1.203125q0.5 -0.59375 0.875 -1.15625q0.34375 -0.578125 0.546875 -1.15625q0.21875 -0.59375 0.21875 -1.21875q0 -0.84375 -0.28125 -1.53125q-0.265625 -0.703125 -0.796875 -1.203125q-0.515625 -0.5 -1.296875 -0.78125q-0.765625 -0.296875 -1.734375 -0.296875q-1.046875 0 -1.890625 0.34375q-0.84375 0.34375 -1.421875 0.90625q-0.59375 0.578125 -0.921875 1.359375q-0.3125 0.765625 -0.3125 1.625l2.1875 0q0 -0.578125 0.140625 -1.015625q0.15625 -0.453125 0.453125 -0.78125q0.28125 -0.296875 0.703125 -0.453125q0.421875 -0.171875 1.015625 -0.171875q0.453125 0 0.8125 0.15625q0.375 0.15625 0.640625 0.421875q0.265625 0.28125 0.390625 0.671875q0.140625 0.375 0.140625 0.828125q0 0.359375 -0.09375 0.703125q-0.09375 0.328125 -0.3125 0.71875q-0.21875 0.390625 -0.59375 0.859375q-0.359375 0.46875 -0.890625 1.0625l-4.328125 4.703125l0 1.515625l8.90625 0z" fill-rule="nonzero"/><path fill="#d9d9d9" d="m495.13385 57.44882l144.18896 0l0 45.007877l-144.18896 0z" fill-rule="evenodd"/><path stroke="#000000" stroke-width="2.0" stroke-linejoin="round" stroke-linecap="butt" d="m495.13385 57.44882l144.18896 0l0 45.007877l-144.18896 0z" fill-rule="evenodd"/><path fill="#000000" d="m544.1139 82.54775l-2.28125 0.015625q-0.109375 0.515625 -0.328125 0.96875q-0.203125 0.4375 -0.53125 0.765625q-0.328125 0.3125 -0.78125 0.484375q-0.4375 0.171875 -1.015625 0.15625q-0.5 -0.03125 -0.828125 -0.21875q-0.328125 -0.203125 -0.53125 -0.53125q-0.1875 -0.328125 -0.28125 -0.734375q-0.078125 -0.421875 -0.09375 -0.859375q-0.015625 -0.421875 0.015625 -0.84375q0.03125 -0.4375 0.09375 -0.796875l0.265625 -1.828125q0.0625 -0.421875 0.171875 -0.890625q0.109375 -0.46875 0.265625 -0.90625q0.171875 -0.453125 0.40625 -0.859375q0.234375 -0.40625 0.5625 -0.703125q0.328125 -0.296875 0.734375 -0.46875q0.421875 -0.171875 0.96875 -0.15625q0.5625 0.03125 0.921875 0.234375q0.359375 0.203125 0.5625 0.53125q0.21875 0.34375 0.296875 0.796875q0.078125 0.4375 0.078125 0.9375l2.296875 0q-0.03125 -0.9375 -0.28125 -1.734375q-0.25 -0.8125 -0.734375 -1.390625q-0.5 -0.59375 -1.25 -0.9375q-0.734375 -0.34375 -1.734375 -0.359375q-0.84375 -0.015625 -1.546875 0.21875q-0.703125 0.21875 -1.296875 0.625q-0.59375 0.421875 -1.0625 1.0q-0.453125 0.5625 -0.796875 1.21875q-0.34375 0.65625 -0.578125 1.40625q-0.234375 0.734375 -0.34375 1.453125l-0.265625 1.8125q-0.09375 0.6875 -0.078125 1.390625q0.03125 0.703125 0.1875 1.34375q0.15625 0.65625 0.453125 1.234375q0.296875 0.5625 0.765625 0.984375q0.453125 0.421875 1.0625 0.6875q0.625 0.25 1.4375 0.265625q0.984375 0.03125 1.859375 -0.28125q0.875 -0.3125 1.546875 -0.875q0.65625 -0.578125 1.09375 -1.375q0.453125 -0.8125 0.59375 -1.78125zm2.074585 -0.828125l-0.015625 0.1875q-0.0625 0.671875 0 1.3125q0.0625 0.640625 0.28125 1.203125q0.15625 0.4375 0.390625 0.796875q0.25 0.359375 0.59375 0.703125q0.40625 0.40625 1.0625 0.671875q0.65625 0.25 1.453125 0.265625q1.09375 0.03125 2.0 -0.359375q0.90625 -0.40625 1.5625 -1.109375q0.65625 -0.6875 1.0625 -1.609375q0.421875 -0.921875 0.546875 -1.953125l0.015625 -0.203125q0.078125 -0.671875 0 -1.3125q-0.0625 -0.65625 -0.25 -1.234375q-0.1875 -0.46875 -0.453125 -0.859375q-0.265625 -0.40625 -0.625 -0.734375q-0.453125 -0.390625 -1.0625 -0.609375q-0.609375 -0.234375 -1.375 -0.234375q-1.09375 -0.03125 -2.0 0.375q-0.890625 0.390625 -1.546875 1.078125q-0.671875 0.703125 -1.09375 1.640625q-0.40625 0.9375 -0.546875 1.984375zm2.28125 0.1875l0.015625 -0.1875q0.078125 -0.5625 0.265625 -1.125q0.1875 -0.578125 0.515625 -1.046875q0.328125 -0.46875 0.8125 -0.75q0.484375 -0.28125 1.140625 -0.265625q0.546875 0.03125 0.890625 0.28125q0.34375 0.25 0.515625 0.65625q0.234375 0.515625 0.25 1.09375q0.015625 0.5625 -0.03125 1.078125l-0.015625 0.1875q-0.078125 0.515625 -0.265625 1.109375q-0.1875 0.578125 -0.515625 1.03125q-0.328125 0.46875 -0.8125 0.75q-0.484375 0.28125 -1.125 0.265625q-0.59375 -0.015625 -0.953125 -0.3125q-0.359375 -0.296875 -0.515625 -0.734375q-0.171875 -0.453125 -0.203125 -0.984375q-0.015625 -0.546875 0.03125 -1.046875zm16.512146 -5.296875q-0.546875 0 -1.03125 0.140625q-0.46875 0.125 -0.890625 0.359375q-0.4375 0.25 -0.8125 0.59375q-0.375 0.328125 -0.71875 0.71875l0.0625 -0.375l0.203125 -1.234375l-2.140625 0l-1.703125 9.859375l2.296875 0l1.03125 -6.015625q0.25 -0.40625 0.546875 -0.71875q0.3125 -0.3125 0.671875 -0.53125q0.390625 -0.21875 0.828125 -0.328125q0.453125 -0.125 0.984375 -0.125q0.484375 0.015625 0.953125 0.09375q0.46875 0.0625 0.921875 0.171875l0.640625 -2.34375q-0.46875 -0.125 -0.921875 -0.1875q-0.453125 -0.0625 -0.921875 -0.078125zm7.27771 10.25q1.171875 0 2.28125 -0.4375q1.109375 -0.453125 1.765625 -1.375l-1.078125 -1.25q-0.546875 0.5625 -1.25 0.875q-0.6875 0.3125 -1.46875 0.28125q-0.53125 -0.015625 -0.9375 -0.203125q-0.40625 -0.203125 -0.671875 -0.53125q-0.265625 -0.34375 -0.40625 -0.78125q-0.125 -0.453125 -0.09375 -0.953125l6.515625 0l0.15625 -1.0q0.109375 -0.9375 -0.046875 -1.796875q-0.15625 -0.875 -0.609375 -1.546875q-0.453125 -0.671875 -1.1875 -1.078125q-0.734375 -0.40625 -1.765625 -0.421875q-0.734375 -0.03125 -1.390625 0.15625q-0.65625 0.1875 -1.21875 0.53125q-0.46875 0.28125 -0.875 0.6875q-0.40625 0.390625 -0.734375 0.84375q-0.4375 0.625 -0.71875 1.359375q-0.265625 0.734375 -0.34375 1.53125l-0.046875 0.359375q-0.09375 1.0 0.15625 1.859375q0.265625 0.84375 0.8125 1.484375q0.53125 0.640625 1.34375 1.015625q0.8125 0.375 1.8125 0.390625zm1.03125 -8.328125q0.4375 0.03125 0.765625 0.203125q0.34375 0.15625 0.5625 0.4375q0.21875 0.28125 0.296875 0.65625q0.078125 0.359375 0.015625 0.78125l-0.046875 0.21875l-4.25 0q0.1875 -0.4375 0.421875 -0.84375q0.234375 -0.421875 0.578125 -0.75q0.3125 -0.328125 0.71875 -0.515625q0.421875 -0.203125 0.9375 -0.1875zm19.883606 0.46875l-0.328125 1.828125l1.421875 0.015625q0.5 0.015625 0.875 0.171875q0.375 0.140625 0.609375 0.40625q0.21875 0.265625 0.296875 0.625q0.09375 0.359375 0.03125 0.828125q-0.046875 0.484375 -0.265625 0.875q-0.203125 0.390625 -0.53125 0.65625q-0.328125 0.265625 -0.75 0.421875q-0.421875 0.140625 -0.90625 0.125q-0.421875 -0.015625 -0.765625 -0.15625q-0.34375 -0.140625 -0.5625 -0.390625q-0.203125 -0.25 -0.3125 -0.578125q-0.09375 -0.328125 -0.078125 -0.734375l-2.296875 -0.015625q-0.015625 0.875 0.25 1.5625q0.28125 0.6875 0.796875 1.171875q0.515625 0.5 1.21875 0.765625q0.71875 0.25 1.5625 0.28125q0.921875 0.015625 1.765625 -0.234375q0.859375 -0.265625 1.53125 -0.765625q0.6875 -0.515625 1.109375 -1.25q0.4375 -0.75 0.515625 -1.734375q0.03125 -0.46875 -0.046875 -0.90625q-0.0625 -0.4375 -0.265625 -0.828125q-0.1875 -0.40625 -0.5 -0.703125q-0.3125 -0.3125 -0.75 -0.515625q0.46875 -0.21875 0.875 -0.5q0.421875 -0.296875 0.75 -0.671875q0.328125 -0.375 0.53125 -0.828125q0.203125 -0.453125 0.25 -1.0q0.078125 -0.875 -0.1875 -1.5625q-0.25 -0.6875 -0.765625 -1.15625q-0.515625 -0.46875 -1.234375 -0.703125q-0.71875 -0.25 -1.546875 -0.28125q-0.828125 -0.015625 -1.625 0.234375q-0.78125 0.234375 -1.40625 0.703125q-0.640625 0.46875 -1.046875 1.15625q-0.390625 0.671875 -0.46875 1.5625l2.28125 -0.015625q0.078125 -0.421875 0.265625 -0.734375q0.203125 -0.328125 0.484375 -0.546875q0.28125 -0.234375 0.640625 -0.34375q0.359375 -0.125 0.78125 -0.109375q0.375 0 0.65625 0.109375q0.296875 0.109375 0.484375 0.328125q0.234375 0.234375 0.328125 0.59375q0.109375 0.34375 0.046875 0.78125q-0.0625 0.5 -0.28125 0.890625q-0.21875 0.390625 -0.5625 0.640625q-0.328125 0.265625 -0.765625 0.40625q-0.4375 0.125 -0.921875 0.125l-1.1875 0z" fill-rule="nonzero"/><path fill="#cfe2f3" d="m495.1345 102.456696l72.09451 0l0 45.007874l-72.09451 0z" fill-rule="evenodd"/><path stroke="#000000" stroke-width="2.0" stroke-linejoin="round" stroke-linecap="butt" d="m495.1345 102.456696l72.09451 0l0 45.007874l-72.09451 0z" fill-rule="evenodd"/><path fill="#000000" d="m512.5406 129.88376l0 -11.468758l-2.203125 0l0 13.265633l8.53125 0l0 -1.796875l-6.328125 0zm14.758057 1.796875l0 -13.265633l-0.140625 0l-5.453125 2.03125l0 1.921875l3.390625 -1.25l0 10.562508l2.203125 0zm13.539368 -4.9531326l0 -1.765625l-7.328125 0l0 1.765625l7.328125 0zm2.7893066 4.9531326l3.359375 0q0.90625 0 1.703125 -0.21875q0.796875 -0.21875 1.453125 -0.625q0.59375 -0.375 1.0625 -0.90625q0.484375 -0.53125 0.8125 -1.171875q0.359375 -0.671875 0.53125 -1.4687576q0.1875 -0.8125 0.1875 -1.71875l0 -1.03125q0 -0.9375 -0.203125 -1.765625q-0.1875 -0.828125 -0.5625 -1.53125q-0.34375 -0.65625 -0.875 -1.1875q-0.515625 -0.546875 -1.1875 -0.90625q-0.625 -0.34375 -1.390625 -0.53125q-0.75 -0.203125 -1.609375 -0.203125l-3.28125 0l0 13.265633zm2.21875 -11.484383l1.0625 0q0.53125 0.015625 0.984375 0.140625q0.453125 0.109375 0.828125 0.3125q0.5 0.28125 0.859375 0.734375q0.359375 0.453125 0.578125 1.0q0.1875 0.453125 0.265625 1.0q0.09375 0.53125 0.09375 1.140625l0 1.046875q0 0.609375 -0.09375 1.15625q-0.078125 0.53125 -0.265625 0.984375q-0.1875 0.5468826 -0.515625 0.9687576q-0.3125 0.40625 -0.703125 0.671875q-0.390625 0.265625 -0.890625 0.40625q-0.484375 0.140625 -1.0625 0.140625l-1.140625 0l0 -9.703133z" fill-rule="nonzero"/><path fill="#cfe2f3" d="m567.22833 102.456696l72.09448 0l0 45.007874l-72.09448 0z" fill-rule="evenodd"/><path stroke="#000000" stroke-width="2.0" stroke-linejoin="round" stroke-linecap="butt" d="m567.22833 102.456696l72.09448 0l0 45.007874l-72.09448 0z" fill-rule="evenodd"/><path fill="#000000" d="m584.63446 129.88376l0 -11.468758l-2.203125 0l0 13.265633l8.53125 0l0 -1.796875l-6.328125 0zm14.758057 1.796875l0 -13.265633l-0.140625 0l-5.453125 2.03125l0 1.921875l3.390625 -1.25l0 10.562508l2.203125 0zm13.539307 -4.9531326l0 -1.765625l-7.328125 0l0 1.765625l7.328125 0zm3.2268677 -8.3125l0 1.8125l2.765625 0l0 9.656258l-2.765625 0l0 1.796875l7.8125 0l0 -1.796875l-2.828125 0l0 -9.656258l2.828125 0l0 -1.8125l-7.8125 0z" fill-rule="nonzero"/><path fill="#cfe2f3" d="m495.13385 147.46457l144.18896 0l0 45.007874l-144.18896 0z" fill-rule="evenodd"/><path stroke="#000000" stroke-width="2.0" stroke-linejoin="round" stroke-linecap="butt" d="m495.13385 147.46457l144.18896 0l0 45.007874l-144.18896 0z" fill-rule="evenodd"/><path fill="#000000" d="m559.7828 174.89163l0 -11.46875l-2.203125 0l0 13.265625l8.53125 0l0 -1.796875l-6.328125 0zm17.304932 1.796875l0 -1.765625l-6.171875 0l2.9375 -3.140625q0.59375 -0.625 1.078125 -1.203125q0.5 -0.59375 0.875 -1.15625q0.34375 -0.578125 0.546875 -1.15625q0.21875 -0.59375 0.21875 -1.21875q0 -0.84375 -0.28125 -1.53125q-0.265625 -0.703125 -0.796875 -1.203125q-0.515625 -0.5 -1.296875 -0.78125q-0.765625 -0.296875 -1.734375 -0.296875q-1.046875 0 -1.890625 0.34375q-0.84375 0.34375 -1.421875 0.90625q-0.59375 0.578125 -0.921875 1.359375q-0.3125 0.765625 -0.3125 1.625l2.1875 0q0 -0.578125 0.140625 -1.015625q0.15625 -0.453125 0.453125 -0.78125q0.28125 -0.296875 0.703125 -0.453125q0.421875 -0.171875 1.015625 -0.171875q0.453125 0 0.8125 0.15625q0.375 0.15625 0.640625 0.421875q0.265625 0.28125 0.390625 0.671875q0.140625 0.375 0.140625 0.828125q0 0.359375 -0.09375 0.703125q-0.09375 0.328125 -0.3125 0.71875q-0.21875 0.390625 -0.59375 0.859375q-0.359375 0.46875 -0.890625 1.0625l-4.328125 4.703125l0 1.515625l8.90625 0z" fill-rule="nonzero"/><path fill="#b6d7a8" d="m19.149607 210.37796l620.1575 0l0 45.007874l-620.1575 0z" fill-rule="evenodd"/><path stroke="#000000" stroke-width="2.0" stroke-linejoin="round" stroke-linecap="butt" d="m19.149607 210.37796l620.1575 0l0 45.007874l-620.1575 0z" fill-rule="evenodd"/><path fill="#000000" d="m321.78278 237.80501l0 -11.46875l-2.203125 0l0 13.265625l8.53125 0l0 -1.796875l-6.328125 0zm11.164307 -5.8125l0 1.703125l1.296875 0q0.5625 0 1.015625 0.140625q0.46875 0.125 0.796875 0.390625q0.328125 0.28125 0.5 0.6875q0.171875 0.40625 0.171875 0.984375q0 0.5 -0.15625 0.90625q-0.140625 0.390625 -0.421875 0.65625q-0.296875 0.28125 -0.71875 0.421875q-0.421875 0.140625 -0.953125 0.140625q-0.484375 0 -0.890625 -0.140625q-0.40625 -0.15625 -0.703125 -0.40625q-0.296875 -0.265625 -0.453125 -0.625q-0.15625 -0.375 -0.15625 -0.8125l-2.1875 0q0 0.9375 0.359375 1.640625q0.359375 0.6875 0.96875 1.15625q0.59375 0.46875 1.390625 0.71875q0.796875 0.234375 1.65625 0.234375q0.9375 0 1.75 -0.265625q0.828125 -0.265625 1.421875 -0.765625q0.59375 -0.484375 0.9375 -1.203125q0.34375 -0.734375 0.34375 -1.65625q0 -0.5 -0.125 -0.96875q-0.109375 -0.46875 -0.375 -0.890625q-0.265625 -0.390625 -0.6875 -0.71875q-0.40625 -0.328125 -1.0 -0.53125q0.5 -0.21875 0.875 -0.546875q0.375 -0.328125 0.609375 -0.703125q0.25 -0.375 0.375 -0.78125q0.125 -0.421875 0.125 -0.828125q0 -0.9375 -0.3125 -1.625q-0.3125 -0.703125 -0.875 -1.1875q-0.546875 -0.484375 -1.34375 -0.71875q-0.78125 -0.25 -1.71875 -0.25q-0.921875 0 -1.703125 0.28125q-0.765625 0.265625 -1.328125 0.75q-0.5625 0.5 -0.890625 1.171875q-0.3125 0.65625 -0.3125 1.453125l2.171875 0q0 -0.4375 0.15625 -0.78125q0.171875 -0.34375 0.453125 -0.59375q0.265625 -0.25 0.640625 -0.375q0.390625 -0.125 0.828125 -0.125q0.5 0 0.890625 0.140625q0.390625 0.125 0.640625 0.375q0.265625 0.265625 0.390625 0.640625q0.140625 0.375 0.140625 0.84375q0 0.4375 -0.15625 0.8125q-0.140625 0.375 -0.390625 0.640625q-0.28125 0.28125 -0.71875 0.453125q-0.4375 0.15625 -1.03125 0.15625l-1.296875 0z" fill-rule="nonzero"/><path fill="#b6d7a8" d="m4.6456695 376.45407l649.16534 0l0 45.007874l-649.16534 0z" fill-rule="evenodd"/><path stroke="#000000" stroke-width="2.0" stroke-linejoin="round" stroke-linecap="butt" d="m4.6456695 376.45407l649.16534 0l0 45.007874l-649.16534 0z" fill-rule="evenodd"/><path fill="#000000" d="m271.6058 392.41238l-2.71875 0l0 13.265625l2.046875 0l0 -4.5l-0.109375 -5.703125l1.84375 6.109375l1.140625 0l2.046875 -6.328125l-0.125 5.921875l0 4.5l2.046875 0l0 -13.265625l-2.71875 0l-1.8125 5.671875l-1.640625 -5.671875zm14.945557 13.265625l2.21875 0l0 -0.15625q-0.171875 -0.375 -0.265625 -0.90625q-0.09375 -0.546875 -0.09375 -1.203125l0 -4.390625q0 -0.828125 -0.3125 -1.46875q-0.3125 -0.640625 -0.859375 -1.0625q-0.546875 -0.421875 -1.296875 -0.625q-0.75 -0.21875 -1.625 -0.21875q-0.953125 0 -1.71875 0.25q-0.75 0.25 -1.25 0.671875q-0.53125 0.421875 -0.8125 0.96875q-0.265625 0.546875 -0.28125 1.140625l2.1875 0q0 -0.28125 0.109375 -0.53125q0.109375 -0.25 0.328125 -0.4375q0.21875 -0.1875 0.546875 -0.296875q0.328125 -0.109375 0.78125 -0.109375q0.484375 0 0.859375 0.125q0.390625 0.125 0.65625 0.359375q0.234375 0.21875 0.359375 0.53125q0.140625 0.3125 0.140625 0.6875l0 0.671875l-1.578125 0q-1.0625 0 -1.90625 0.203125q-0.84375 0.1875 -1.421875 0.578125q-0.625 0.40625 -0.953125 1.03125q-0.3125 0.625 -0.3125 1.4375q0 0.625 0.25 1.171875q0.25 0.546875 0.703125 0.921875q0.453125 0.390625 1.078125 0.625q0.640625 0.21875 1.40625 0.21875q0.46875 0 0.875 -0.09375q0.421875 -0.09375 0.765625 -0.25q0.359375 -0.15625 0.640625 -0.375q0.296875 -0.21875 0.515625 -0.453125q0.046875 0.28125 0.109375 0.546875q0.0625 0.25 0.15625 0.4375zm-2.640625 -1.5625q-0.421875 0 -0.734375 -0.109375q-0.3125 -0.109375 -0.515625 -0.28125q-0.21875 -0.1875 -0.328125 -0.4375q-0.109375 -0.265625 -0.109375 -0.5625q0 -0.375 0.125 -0.65625q0.140625 -0.296875 0.421875 -0.515625q0.3125 -0.234375 0.828125 -0.359375q0.515625 -0.140625 1.21875 -0.140625l1.40625 0l0 1.8125q-0.109375 0.25 -0.328125 0.46875q-0.21875 0.21875 -0.53125 0.390625q-0.296875 0.171875 -0.671875 0.28125q-0.359375 0.109375 -0.78125 0.109375zm8.039337 -8.296875l0 1.8125l3.046875 0l0 6.25l-3.046875 0l0 1.796875l8.125 0l0 -1.796875l-2.890625 0l0 -8.0625l-5.234375 0zm2.84375 -2.546875q0 0.34375 0.15625 0.609375q0.171875 0.25 0.5 0.359375q0.328125 0.09375 0.59375 0.046875q0.265625 -0.0625 0.453125 -0.234375q0.375 -0.09375 0.578125 -0.390625q0.203125 -0.296875 0.140625 -0.703125q-0.046875 -0.390625 -0.359375 -0.640625q-0.296875 -0.25 -0.796875 -0.25q-0.28125 0 -0.515625 0.09375q-0.234375 0.078125 -0.40625 0.234375q-0.171875 0.15625 -0.265625 0.390625q-0.078125 0.21875 -0.078125 0.484375zm7.851837 12.40625l2.1875 0l0 -7.03125q0.140625 -0.25 0.328125 -0.453125q0.203125 -0.21875 0.421875 -0.359375q0.28125 -0.1875 0.625 -0.296875q0.34375 -0.109375 0.75 -0.109375q0.46875 0 0.84375 0.109375q0.375 0.109375 0.640625 0.359375q0.265625 0.234375 0.40625 0.65625q0.140625 0.40625 0.140625 1.015625l0 6.109375l2.171875 0l0 -6.15625q0 -1.03125 -0.25 -1.765625q-0.25 -0.734375 -0.6875 -1.203125q-0.453125 -0.46875 -1.078125 -0.6875q-0.625 -0.21875 -1.390625 -0.21875q-0.5625 0 -1.09375 0.171875q-0.515625 0.15625 -0.953125 0.453125q-0.265625 0.1875 -0.515625 0.4375q-0.234375 0.234375 -0.4375 0.515625l-0.140625 -1.40625l-1.96875 0l0 9.859375zm24.937988 -13.265625l-2.71875 0l0 13.265625l2.046875 0l0 -4.5l-0.109375 -5.703125l1.84375 6.109375l1.140625 0l2.046875 -6.328125l-0.125 5.921875l0 4.5l2.046875 0l0 -13.265625l-2.71875 0l-1.8125 5.671875l-1.640625 -5.671875zm13.258087 13.453125q1.4375 0 2.453125 -0.5625q1.015625 -0.578125 1.5 -1.28125l-1.15625 -1.125q-0.453125 0.578125 -1.15625 0.890625q-0.703125 0.3125 -1.515625 0.3125q-0.59375 0 -1.09375 -0.203125q-0.484375 -0.203125 -0.859375 -0.5625q-0.359375 -0.34375 -0.578125 -0.78125q-0.203125 -0.4375 -0.296875 -1.078125l0 -0.046875l6.828125 0l0 -0.9375q0 -1.0625 -0.28125 -1.953125q-0.28125 -0.890625 -0.84375 -1.546875q-0.546875 -0.625 -1.375 -0.984375q-0.8125 -0.359375 -1.890625 -0.359375q-0.953125 0 -1.796875 0.359375q-0.84375 0.359375 -1.46875 1.015625q-0.640625 0.671875 -1.015625 1.609375q-0.359375 0.9375 -0.359375 2.09375l0 0.375q0 1.0 0.34375 1.875q0.359375 0.875 1.0 1.515625q0.65625 0.640625 1.5625 1.015625q0.90625 0.359375 2.0 0.359375zm-0.265625 -8.453125q0.546875 0 0.953125 0.1875q0.421875 0.1875 0.6875 0.484375q0.28125 0.328125 0.4375 0.75q0.15625 0.421875 0.15625 0.84375l0 0.15625l-4.625 0q0.09375 -0.5625 0.296875 -1.015625q0.21875 -0.453125 0.53125 -0.765625q0.296875 -0.3125 0.6875 -0.46875q0.40625 -0.171875 0.875 -0.171875zm8.101837 -1.59375l-1.90625 0l0 9.859375l2.015625 0l0 -7.5625q0.046875 -0.140625 0.109375 -0.25q0.078125 -0.109375 0.171875 -0.1875q0.109375 -0.125 0.28125 -0.1875q0.171875 -0.0625 0.390625 -0.0625q0.203125 0 0.359375 0.0625q0.15625 0.046875 0.28125 0.171875q0.109375 0.125 0.171875 0.328125q0.0625 0.203125 0.0625 0.484375l0 7.203125l1.96875 0l0 -7.3125q0 -0.09375 0 -0.140625q0 -0.046875 0 -0.09375q0.03125 -0.15625 0.09375 -0.265625q0.078125 -0.125 0.1875 -0.21875q0.125 -0.109375 0.28125 -0.15625q0.15625 -0.0625 0.359375 -0.0625q0.203125 0 0.375 0.0625q0.171875 0.046875 0.28125 0.171875q0.125 0.125 0.1875 0.328125q0.0625 0.203125 0.0625 0.5l0 7.1875l2.0 0l0 -7.171875q0 -0.765625 -0.15625 -1.3125q-0.15625 -0.5625 -0.453125 -0.90625q-0.296875 -0.328125 -0.6875 -0.484375q-0.390625 -0.15625 -0.875 -0.15625q-0.359375 0 -0.671875 0.09375q-0.296875 0.078125 -0.546875 0.25q-0.1875 0.125 -0.359375 0.3125q-0.15625 0.171875 -0.28125 0.390625q-0.09375 -0.234375 -0.21875 -0.40625q-0.125 -0.1875 -0.296875 -0.3125q-0.203125 -0.171875 -0.5 -0.25q-0.28125 -0.078125 -0.65625 -0.078125q-0.703125 0 -1.203125 0.34375q-0.484375 0.328125 -0.765625 0.921875l-0.0625 -1.09375zm9.554932 4.84375l0 0.1875q0 1.078125 0.296875 2.0q0.3125 0.90625 0.90625 1.578125q0.59375 0.671875 1.4375 1.0625q0.859375 0.375 1.953125 0.375q1.0625 0 1.90625 -0.375q0.859375 -0.390625 1.453125 -1.0625q0.578125 -0.671875 0.890625 -1.578125q0.3125 -0.921875 0.3125 -2.0l0 -0.1875q0 -1.078125 -0.3125 -1.984375q-0.3125 -0.921875 -0.890625 -1.59375q-0.59375 -0.6875 -1.453125 -1.0625q-0.84375 -0.375 -1.9375 -0.375q-1.078125 0 -1.921875 0.375q-0.84375 0.375 -1.4375 1.0625q-0.59375 0.671875 -0.90625 1.59375q-0.296875 0.90625 -0.296875 1.984375zm2.171875 0.1875l0 -0.1875q0 -0.65625 0.140625 -1.234375q0.140625 -0.59375 0.4375 -1.046875q0.296875 -0.453125 0.75 -0.703125q0.453125 -0.265625 1.0625 -0.265625q0.640625 0 1.078125 0.265625q0.453125 0.25 0.765625 0.703125q0.28125 0.453125 0.421875 1.046875q0.140625 0.578125 0.140625 1.234375l0 0.1875q0 0.671875 -0.140625 1.265625q-0.140625 0.578125 -0.421875 1.03125q-0.296875 0.4375 -0.75 0.703125q-0.453125 0.265625 -1.0625 0.265625q-0.640625 0 -1.09375 -0.265625q-0.453125 -0.265625 -0.75 -0.703125q-0.296875 -0.453125 -0.4375 -1.03125q-0.140625 -0.59375 -0.140625 -1.265625zm16.226807 -5.203125q-1.015625 0 -1.859375 0.46875q-0.84375 0.46875 -1.4375 1.296875l-0.015625 -0.21875l-0.09375 -1.375l-2.03125 0l0 9.859375l2.171875 0l0 -6.078125q0.171875 -0.4375 0.421875 -0.78125q0.265625 -0.34375 0.625 -0.5625q0.34375 -0.21875 0.78125 -0.328125q0.4375 -0.109375 0.984375 -0.109375q0.484375 0 0.96875 0.0625q0.484375 0.046875 0.984375 0.15625l0.3125 -2.15625q-0.28125 -0.09375 -0.78125 -0.15625q-0.5 -0.078125 -1.03125 -0.078125zm5.633087 14.015625q0.71875 0 1.25 -0.25q0.546875 -0.25 0.9375 -0.625q0.390625 -0.375 0.640625 -0.8125q0.265625 -0.421875 0.4375 -0.796875l5.0 -11.359375l-2.40625 0l-2.390625 6.046875l-0.40625 1.0625l-0.328125 -1.078125l-2.453125 -6.03125l-2.40625 0l4.203125 9.421875l-0.609375 1.171875q-0.109375 0.203125 -0.21875 0.375q-0.109375 0.1875 -0.296875 0.4375q-0.1875 0.234375 -0.453125 0.421875q-0.25 0.1875 -0.5625 0.1875q-0.15625 0 -0.390625 -0.015625q-0.21875 -0.015625 -0.40625 -0.03125l-0.296875 1.703125q0.265625 0.0625 0.546875 0.109375q0.28125 0.0625 0.609375 0.0625z" fill-rule="nonzero"/><path fill="#000000" fill-opacity="0.0" d="m329.22833 279.03674l23.13388 23.13385l-11.566925 0l0 46.897644l11.566925 0l-23.13388 23.13385l-23.13385 -23.13385l11.566925 0l0 -46.897644l-11.566925 0z" fill-rule="evenodd"/><path stroke="#000000" stroke-width="3.0" stroke-linejoin="round" stroke-linecap="butt" d="m329.22833 279.03674l23.13388 23.13385l-11.566925 0l0 46.897644l11.566925 0l-23.13388 23.13385l-23.13385 -23.13385l11.566925 0l0 -46.897644l-11.566925 0z" fill-rule="evenodd"/></g></svg>