<svg version="1.1" viewBox="0.0 0.0 605.0 266.0" fill="none" stroke="none" stroke-linecap="square" stroke-miterlimit="10" xmlns:xlink="http://www.w3.org/1999/xlink" xmlns="http://www.w3.org/2000/svg"><clipPath id="p.0"><path d="m0 0l605.0 0l0 266.0l-605.0 0l0 -266.0z" clip-rule="nonzero"/></clipPath><g clip-path="url(#p.0)"><path fill="#000000" fill-opacity="0.0" d="m0 0l605.0 0l0 266.0l-605.0 0z" fill-rule="evenodd"/><path fill="#b6d7a8" d="m107.115486 6.5800524l37.79528 0l0 37.795277l-37.79528 0z" fill-rule="evenodd"/><path stroke="#000000" stroke-width="2.0" stroke-linejoin="round" stroke-linecap="butt" d="m107.115486 6.5800524l37.79528 0l0 37.795277l-37.79528 0z" fill-rule="evenodd"/><path fill="#000000" d="m127.53265 31.33769l-1.40625 0l0 -8.96875q-0.515625 0.484375 -1.34375 0.96875q-0.8125 0.484375 -1.46875 0.734375l0 -1.359375q1.171875 -0.5625 2.046875 -1.34375q0.890625 -0.796875 1.265625 -1.53125l0.90625 0l0 11.5z" fill-rule="nonzero"/><path fill="#000000" fill-opacity="0.0" d="m5.91767 5.6036744l101.196846 0l0 38.771652l-101.196846 0z" fill-rule="evenodd"/><path fill="#000000" d="m55.489525 29.963675l-4.4375 -11.453125l1.640625 0l2.96875 8.3125q0.359375 1.0 0.609375 1.875q0.265625 -0.9375 0.609375 -1.875l3.09375 -8.3125l1.546875 0l-4.484375 11.453125l-1.546875 0zm5.8046875 -4.15625q0 -2.296875 1.28125 -3.40625q1.078125 -0.921875 2.609375 -0.921875q1.71875 0 2.796875 1.125q1.09375 1.109375 1.09375 3.09375q0 1.59375 -0.484375 2.515625q-0.484375 0.921875 -1.40625 1.4375q-0.90625 0.5 -2.0 0.5q-1.734375 0 -2.8125 -1.109375q-1.078125 -1.125 -1.078125 -3.234375zm1.453125 0q0 1.59375 0.6875 2.390625q0.703125 0.796875 1.75 0.796875q1.046875 0 1.734375 -0.796875q0.703125 -0.796875 0.703125 -2.4375q0 -1.53125 -0.703125 -2.328125q-0.6875 -0.796875 -1.734375 -0.796875q-1.046875 0 -1.75 0.796875q-0.6875 0.78125 -0.6875 2.375zm7.9609375 4.15625l0 -8.296875l1.265625 0l0 1.25q0.484375 -0.875 0.890625 -1.15625q0.40625 -0.28125 0.90625 -0.28125q0.703125 0 1.4375 0.453125l-0.484375 1.296875q-0.515625 -0.296875 -1.03125 -0.296875q-0.453125 0 -0.828125 0.28125q-0.359375 0.265625 -0.515625 0.765625q-0.234375 0.75 -0.234375 1.640625l0 4.34375l-1.40625 0zm5.34375 0l0 -11.453125l1.40625 0l0 4.109375q0.984375 -1.140625 2.484375 -1.140625q0.921875 0 1.59375 0.359375q0.6875 0.359375 0.96875 1.0q0.296875 0.640625 0.296875 1.859375l0 5.265625l-1.40625 0l0 -5.265625q0 -1.046875 -0.453125 -1.53125q-0.453125 -0.484375 -1.296875 -0.484375q-0.625 0 -1.171875 0.328125q-0.546875 0.328125 -0.78125 0.890625q-0.234375 0.546875 -0.234375 1.515625l0 4.546875l-1.40625 0zm14.5703125 -2.671875l1.453125 0.171875q-0.34375 1.28125 -1.28125 1.984375q-0.921875 0.703125 -2.359375 0.703125q-1.828125 0 -2.890625 -1.125q-1.0625 -1.125 -1.0625 -3.140625q0 -2.09375 1.078125 -3.25q1.078125 -1.15625 2.796875 -1.15625q1.65625 0 2.703125 1.140625q1.0625 1.125 1.0625 3.171875q0 0.125 0 0.375l-6.1875 0q0.078125 1.375 0.765625 2.109375q0.703125 0.71875 1.734375 0.71875q0.78125 0 1.328125 -0.40625q0.546875 -0.40625 0.859375 -1.296875zm-4.609375 -2.28125l4.625 0q-0.09375 -1.046875 -0.53125 -1.5625q-0.671875 -0.8125 -1.734375 -0.8125q-0.96875 0 -1.640625 0.65625q-0.65625 0.640625 -0.71875 1.71875zm7.8203125 4.953125l0 -8.296875l1.265625 0l0 1.25q0.484375 -0.875 0.890625 -1.15625q0.40625 -0.28125 0.90625 -0.28125q0.703125 0 1.4375 0.453125l-0.484375 1.296875q-0.515625 -0.296875 -1.03125 -0.296875q-0.453125 0 -0.828125 0.28125q-0.359375 0.265625 -0.515625 0.765625q-0.234375 0.75 -0.234375 1.640625l0 4.34375l-1.40625 0z" fill-rule="nonzero"/><path fill="#000000" fill-opacity="0.0" d="m5.9186497 219.09186l101.19685 0l0 38.771667l-101.19685 0z" fill-rule="evenodd"/><path fill="#000000" d="m44.201443 243.45186l0 -11.453125l3.953125 0q1.328125 0 2.03125 0.15625q0.984375 0.234375 1.6875 0.828125q0.90625 0.765625 1.34375 1.953125q0.453125 1.1875 0.453125 2.71875q0 1.3125 -0.3125 2.328125q-0.296875 1.0 -0.78125 1.65625q-0.46875 0.65625 -1.03125 1.046875q-0.5625 0.375 -1.375 0.578125q-0.796875 0.1875 -1.828125 0.1875l-4.140625 0zm1.515625 -1.359375l2.453125 0q1.125 0 1.765625 -0.203125q0.65625 -0.21875 1.03125 -0.59375q0.546875 -0.546875 0.84375 -1.453125q0.296875 -0.90625 0.296875 -2.203125q0 -1.796875 -0.59375 -2.765625q-0.578125 -0.96875 -1.421875 -1.296875q-0.609375 -0.234375 -1.96875 -0.234375l-2.40625 0l0 8.75zm15.2734375 0.328125q-0.78125 0.671875 -1.5 0.953125q-0.71875 0.265625 -1.546875 0.265625q-1.375 0 -2.109375 -0.671875q-0.734375 -0.671875 -0.734375 -1.703125q0 -0.609375 0.28125 -1.109375q0.28125 -0.515625 0.71875 -0.8125q0.453125 -0.3125 1.015625 -0.46875q0.421875 -0.109375 1.25 -0.203125q1.703125 -0.203125 2.515625 -0.484375q0 -0.296875 0 -0.375q0 -0.859375 -0.390625 -1.203125q-0.546875 -0.484375 -1.609375 -0.484375q-0.984375 0 -1.46875 0.359375q-0.46875 0.34375 -0.6875 1.21875l-1.375 -0.1875q0.1875 -0.875 0.609375 -1.421875q0.4375 -0.546875 1.25 -0.828125q0.8125 -0.296875 1.875 -0.296875q1.0625 0 1.71875 0.25q0.671875 0.25 0.984375 0.625q0.3125 0.375 0.4375 0.953125q0.078125 0.359375 0.078125 1.296875l0 1.875q0 1.96875 0.078125 2.484375q0.09375 0.515625 0.359375 1.0l-1.46875 0q-0.21875 -0.4375 -0.28125 -1.03125zm-0.109375 -3.140625q-0.765625 0.3125 -2.296875 0.53125q-0.875 0.125 -1.234375 0.28125q-0.359375 0.15625 -0.5625 0.46875q-0.1875 0.296875 -0.1875 0.65625q0 0.5625 0.421875 0.9375q0.4375 0.375 1.25 0.375q0.8125 0 1.4375 -0.34375q0.640625 -0.359375 0.9375 -0.984375q0.234375 -0.46875 0.234375 -1.40625l0 -0.515625zm3.6015587 4.171875l0 -8.296875l1.265625 0l0 1.171875q0.90625 -1.359375 2.640625 -1.359375q0.75 0 1.375 0.265625q0.625 0.265625 0.9375 0.703125q0.3125 0.4375 0.4375 1.046875q0.078125 0.390625 0.078125 1.359375l0 5.109375l-1.40625 0l0 -5.046875q0 -0.859375 -0.171875 -1.28125q-0.15625 -0.4375 -0.578125 -0.6875q-0.40625 -0.25 -0.96875 -0.25q-0.90625 0 -1.5625 0.578125q-0.640625 0.5625 -0.640625 2.15625l0 4.53125l-1.40625 0zm14.3046875 -1.03125q-0.78125 0.671875 -1.5 0.953125q-0.71875 0.265625 -1.546875 0.265625q-1.375 0 -2.109375 -0.671875q-0.734375 -0.671875 -0.734375 -1.703125q0 -0.609375 0.28125 -1.109375q0.28125 -0.515625 0.71875 -0.8125q0.453125 -0.3125 1.015625 -0.46875q0.421875 -0.109375 1.25 -0.203125q1.703125 -0.203125 2.515625 -0.484375q0 -0.296875 0 -0.375q0 -0.859375 -0.390625 -1.203125q-0.546875 -0.484375 -1.609375 -0.484375q-0.984375 0 -1.46875 0.359375q-0.46875 0.34375 -0.6875 1.21875l-1.375 -0.1875q0.1875 -0.875 0.609375 -1.421875q0.4375 -0.546875 1.25 -0.828125q0.8125 -0.296875 1.875 -0.296875q1.0625 0 1.71875 0.25q0.671875 0.25 0.984375 0.625q0.3125 0.375 0.4375 0.953125q0.078125 0.359375 0.078125 1.296875l0 1.875q0 1.96875 0.078125 2.484375q0.09375 0.515625 0.359375 1.0l-1.46875 0q-0.21875 -0.4375 -0.28125 -1.03125zm-0.109375 -3.140625q-0.765625 0.3125 -2.296875 0.53125q-0.875 0.125 -1.234375 0.28125q-0.359375 0.15625 -0.5625 0.46875q-0.1875 0.296875 -0.1875 0.65625q0 0.5625 0.421875 0.9375q0.4375 0.375 1.25 0.375q0.8125 0 1.4375 -0.34375q0.640625 -0.359375 0.9375 -0.984375q0.234375 -0.46875 0.234375 -1.40625l0 -0.515625zm9.0078125 1.125l1.390625 0.1875q-0.234375 1.421875 -1.171875 2.234375q-0.921875 0.8125 -2.28125 0.8125q-1.703125 0 -2.75 -1.109375q-1.03125 -1.125 -1.03125 -3.203125q0 -1.34375 0.4375 -2.34375q0.453125 -1.015625 1.359375 -1.515625q0.921875 -0.5 1.984375 -0.5q1.359375 0 2.21875 0.6875q0.859375 0.671875 1.09375 1.9375l-1.359375 0.203125q-0.203125 -0.828125 -0.703125 -1.25q-0.484375 -0.421875 -1.1875 -0.421875q-1.0625 0 -1.734375 0.765625q-0.65625 0.75 -0.65625 2.40625q0 1.671875 0.640625 2.4375q0.640625 0.75 1.671875 0.75q0.828125 0 1.375 -0.5q0.5625 -0.515625 0.703125 -1.578125zm2.59375 3.046875l0 -11.453125l1.40625 0l0 4.109375q0.984375 -1.140625 2.484375 -1.140625q0.921875 0 1.59375 0.359375q0.6875 0.359375 0.96875 1.0q0.296875 0.640625 0.296875 1.859375l0 5.265625l-1.40625 0l0 -5.265625q0 -1.046875 -0.453125 -1.53125q-0.453125 -0.484375 -1.296875 -0.484375q-0.625 0 -1.171875 0.328125q-0.546875 0.328125 -0.78125 0.890625q-0.234375 0.546875 -0.234375 1.515625l0 4.546875l-1.40625 0z" fill-rule="nonzero"/><path fill="#b6d7a8" d="m182.70604 6.5800524l37.795273 0l0 37.795277l-37.795273 0z" fill-rule="evenodd"/><path stroke="#000000" stroke-width="2.0" stroke-linejoin="round" stroke-linecap="butt" d="m182.70604 6.5800524l37.795273 0l0 37.795277l-37.795273 0z" fill-rule="evenodd"/><path fill="#000000" d="m197.82632 28.30644l1.40625 -0.1875q0.25 1.203125 0.828125 1.734375q0.578125 0.515625 1.421875 0.515625q0.984375 0 1.671875 -0.6875q0.6875 -0.6875 0.6875 -1.703125q0 -0.96875 -0.640625 -1.59375q-0.625 -0.625 -1.609375 -0.625q-0.390625 0 -0.984375 0.15625l0.15625 -1.234375q0.140625 0.015625 0.21875 0.015625q0.90625 0 1.625 -0.46875q0.71875 -0.46875 0.71875 -1.453125q0 -0.765625 -0.53125 -1.265625q-0.515625 -0.515625 -1.34375 -0.515625q-0.828125 0 -1.375 0.515625q-0.546875 0.515625 -0.703125 1.546875l-1.40625 -0.25q0.265625 -1.421875 1.171875 -2.1875q0.921875 -0.78125 2.28125 -0.78125q0.9375 0 1.71875 0.40625q0.796875 0.390625 1.203125 1.09375q0.421875 0.6875 0.421875 1.46875q0 0.75 -0.40625 1.359375q-0.390625 0.609375 -1.171875 0.96875q1.015625 0.234375 1.578125 0.96875q0.5625 0.734375 0.5625 1.84375q0 1.5 -1.09375 2.546875q-1.09375 1.046875 -2.765625 1.046875q-1.5 0 -2.5 -0.890625q-1.0 -0.90625 -1.140625 -2.34375z" fill-rule="nonzero"/><path fill="#b6d7a8" d="m144.91077 6.5800524l37.795273 0l0 37.795277l-37.795273 0z" fill-rule="evenodd"/><path stroke="#000000" stroke-width="2.0" stroke-linejoin="round" stroke-linecap="butt" d="m144.91077 6.5800524l37.795273 0l0 37.795277l-37.795273 0z" fill-rule="evenodd"/><path fill="#000000" d="m167.42168 29.978315l0 1.359375l-7.578125 0q-0.015625 -0.515625 0.171875 -0.984375q0.28125 -0.765625 0.921875 -1.515625q0.640625 -0.75 1.84375 -1.734375q1.859375 -1.53125 2.515625 -2.421875q0.65625 -0.90625 0.65625 -1.703125q0 -0.828125 -0.59375 -1.40625q-0.59375 -0.578125 -1.5625 -0.578125q-1.015625 0 -1.625 0.609375q-0.609375 0.609375 -0.609375 1.6875l-1.453125 -0.140625q0.15625 -1.625 1.125 -2.46875q0.96875 -0.84375 2.59375 -0.84375q1.65625 0 2.609375 0.921875q0.96875 0.90625 0.96875 2.25q0 0.6875 -0.28125 1.359375q-0.28125 0.65625 -0.9375 1.390625q-0.65625 0.734375 -2.171875 2.015625q-1.265625 1.0625 -1.625 1.453125q-0.359375 0.375 -0.59375 0.75l5.625 0z" fill-rule="nonzero"/><path fill="#b6d7a8" d="m220.50131 6.5800524l37.795288 0l0 37.795277l-37.795288 0z" fill-rule="evenodd"/><path stroke="#000000" stroke-width="2.0" stroke-linejoin="round" stroke-linecap="butt" d="m220.50131 6.5800524l37.795288 0l0 37.795277l-37.795288 0z" fill-rule="evenodd"/><path fill="#000000" d="m240.12161 31.33769l0 -2.75l-4.96875 0l0 -1.28125l5.234375 -7.421875l1.140625 0l0 7.421875l1.546875 0l0 1.28125l-1.546875 0l0 2.75l-1.40625 0zm0 -4.03125l0 -5.171875l-3.578125 5.171875l3.578125 0z" fill-rule="nonzero"/><path fill="#b6d7a8" d="m258.2966 6.5800524l37.795258 0l0 37.795277l-37.795258 0z" fill-rule="evenodd"/><path stroke="#000000" stroke-width="2.0" stroke-linejoin="round" stroke-linecap="butt" d="m258.2966 6.5800524l37.795258 0l0 37.795277l-37.795258 0z" fill-rule="evenodd"/><path fill="#000000" d="m273.41687 28.33769l1.46875 -0.125q0.171875 1.078125 0.765625 1.625q0.59375 0.53125 1.4375 0.53125q1.015625 0 1.71875 -0.765625q0.703125 -0.765625 0.703125 -2.03125q0 -1.203125 -0.671875 -1.890625q-0.671875 -0.703125 -1.765625 -0.703125q-0.6875 0 -1.234375 0.3125q-0.546875 0.3125 -0.859375 0.796875l-1.3125 -0.171875l1.109375 -5.875l5.6875 0l0 1.34375l-4.5625 0l-0.625 3.078125q1.03125 -0.71875 2.171875 -0.71875q1.5 0 2.53125 1.046875q1.03125 1.03125 1.03125 2.65625q0 1.5625 -0.90625 2.6875q-1.109375 1.40625 -3.015625 1.40625q-1.5625 0 -2.546875 -0.875q-0.984375 -0.890625 -1.125 -2.328125z" fill-rule="nonzero"/><path fill="#b6d7a8" d="m333.88715 6.5800524l37.795258 0l0 37.795277l-37.795258 0z" fill-rule="evenodd"/><path stroke="#000000" stroke-width="2.0" stroke-linejoin="round" stroke-linecap="butt" d="m333.88715 6.5800524l37.795258 0l0 37.795277l-37.795258 0z" fill-rule="evenodd"/><path fill="#000000" d="m349.1012 21.384565l0 -1.359375l7.40625 0l0 1.09375q-1.09375 1.171875 -2.171875 3.109375q-1.0625 1.921875 -1.65625 3.953125q-0.421875 1.4375 -0.53125 3.15625l-1.453125 0q0.03125 -1.359375 0.53125 -3.265625q0.515625 -1.921875 1.453125 -3.6875q0.953125 -1.78125 2.03125 -3.0l-5.609375 0z" fill-rule="nonzero"/><path fill="#b6d7a8" d="m296.09186 6.5800524l37.795288 0l0 37.795277l-37.795288 0z" fill-rule="evenodd"/><path stroke="#000000" stroke-width="2.0" stroke-linejoin="round" stroke-linecap="butt" d="m296.09186 6.5800524l37.795288 0l0 37.795277l-37.795288 0z" fill-rule="evenodd"/><path fill="#000000" d="m318.50903 22.68144l-1.40625 0.109375q-0.1875 -0.828125 -0.53125 -1.203125q-0.5625 -0.59375 -1.40625 -0.59375q-0.671875 0 -1.171875 0.375q-0.671875 0.484375 -1.0625 1.421875q-0.375 0.921875 -0.390625 2.640625q0.515625 -0.78125 1.25 -1.15625q0.734375 -0.375 1.53125 -0.375q1.40625 0 2.390625 1.046875q1.0 1.03125 1.0 2.671875q0 1.078125 -0.46875 2.0q-0.46875 0.921875 -1.28125 1.421875q-0.8125 0.5 -1.84375 0.5q-1.75 0 -2.859375 -1.296875q-1.109375 -1.296875 -1.109375 -4.265625q0 -3.328125 1.21875 -4.828125q1.078125 -1.3125 2.890625 -1.3125q1.34375 0 2.203125 0.765625q0.875 0.75 1.046875 2.078125zm-5.75 4.9375q0 0.734375 0.3125 1.40625q0.3125 0.65625 0.859375 1.0q0.5625 0.34375 1.171875 0.34375q0.890625 0 1.53125 -0.71875q0.640625 -0.71875 0.640625 -1.953125q0 -1.1875 -0.640625 -1.859375q-0.625 -0.6875 -1.59375 -0.6875q-0.953125 0 -1.625 0.6875q-0.65625 0.671875 -0.65625 1.78125z" fill-rule="nonzero"/><path fill="#b6d7a8" d="m409.4777 6.5800524l37.795288 0l0 37.795277l-37.795288 0z" fill-rule="evenodd"/><path stroke="#000000" stroke-width="2.0" stroke-linejoin="round" stroke-linecap="butt" d="m409.4777 6.5800524l37.795288 0l0 37.795277l-37.795288 0z" fill-rule="evenodd"/><path fill="#000000" d="m424.80112 28.68144l1.359375 -0.125q0.171875 0.953125 0.65625 1.390625q0.484375 0.421875 1.234375 0.421875q0.65625 0 1.140625 -0.296875q0.484375 -0.296875 0.796875 -0.78125q0.3125 -0.5 0.515625 -1.34375q0.21875 -0.84375 0.21875 -1.71875q0 -0.09375 0 -0.28125q-0.421875 0.671875 -1.15625 1.09375q-0.734375 0.40625 -1.578125 0.40625q-1.421875 0 -2.40625 -1.03125q-0.984375 -1.03125 -0.984375 -2.71875q0 -1.734375 1.015625 -2.796875q1.03125 -1.0625 2.578125 -1.0625q1.125 0 2.046875 0.609375q0.921875 0.59375 1.40625 1.703125q0.484375 1.109375 0.484375 3.21875q0 2.203125 -0.484375 3.5q-0.46875 1.296875 -1.421875 1.984375q-0.9375 0.6875 -2.203125 0.6875q-1.34375 0 -2.203125 -0.75q-0.84375 -0.75 -1.015625 -2.109375zm5.765625 -5.046875q0 -1.21875 -0.65625 -1.921875q-0.640625 -0.71875 -1.546875 -0.71875q-0.9375 0 -1.640625 0.765625q-0.6875 0.765625 -0.6875 1.984375q0 1.09375 0.65625 1.78125q0.671875 0.6875 1.640625 0.6875q0.96875 0 1.59375 -0.6875q0.640625 -0.6875 0.640625 -1.890625z" fill-rule="nonzero"/><path fill="#b6d7a8" d="m371.6824 6.5800524l37.795288 0l0 37.795277l-37.795288 0z" fill-rule="evenodd"/><path stroke="#000000" stroke-width="2.0" stroke-linejoin="round" stroke-linecap="butt" d="m371.6824 6.5800524l37.795288 0l0 37.795277l-37.795288 0z" fill-rule="evenodd"/><path fill="#000000" d="m388.95895 25.11894q-0.875 -0.3125 -1.296875 -0.90625q-0.421875 -0.59375 -0.421875 -1.421875q0 -1.25 0.890625 -2.09375q0.90625 -0.859375 2.40625 -0.859375q1.5 0 2.40625 0.875q0.921875 0.859375 0.921875 2.109375q0 0.796875 -0.421875 1.390625q-0.421875 0.59375 -1.265625 0.90625q1.046875 0.34375 1.59375 1.109375q0.5625 0.765625 0.5625 1.828125q0 1.46875 -1.046875 2.484375q-1.03125 1.0 -2.734375 1.0q-1.6875 0 -2.734375 -1.0q-1.03125 -1.015625 -1.03125 -2.515625q0 -1.125 0.5625 -1.875q0.5625 -0.75 1.609375 -1.03125zm-0.28125 -2.375q0 0.8125 0.515625 1.328125q0.53125 0.515625 1.375 0.515625q0.8125 0 1.328125 -0.515625q0.515625 -0.515625 0.515625 -1.25q0 -0.78125 -0.53125 -1.296875q-0.53125 -0.53125 -1.328125 -0.53125q-0.8125 0 -1.34375 0.515625q-0.53125 0.515625 -0.53125 1.234375zm-0.453125 5.28125q0 0.609375 0.28125 1.171875q0.296875 0.5625 0.859375 0.875q0.5625 0.296875 1.203125 0.296875q1.015625 0 1.671875 -0.640625q0.65625 -0.65625 0.65625 -1.65625q0 -1.015625 -0.6875 -1.671875q-0.671875 -0.671875 -1.6875 -0.671875q-0.984375 0 -1.640625 0.65625q-0.65625 0.65625 -0.65625 1.640625z" fill-rule="nonzero"/><path fill="#b6d7a8" d="m447.27298 6.5800524l37.795258 0l0 37.795277l-37.795258 0z" fill-rule="evenodd"/><path stroke="#000000" stroke-width="2.0" stroke-linejoin="round" stroke-linecap="butt" d="m447.27298 6.5800524l37.795258 0l0 37.795277l-37.795258 0z" fill-rule="evenodd"/><path fill="#000000" d="m463.2409 31.33769l-1.40625 0l0 -8.96875q-0.515625 0.484375 -1.34375 0.96875q-0.8125 0.484375 -1.46875 0.734375l0 -1.359375q1.171875 -0.5625 2.046875 -1.34375q0.890625 -0.796875 1.265625 -1.53125l0.90625 0l0 11.5zm3.6015625 -5.65625q0 -2.03125 0.40625 -3.265625q0.421875 -1.234375 1.25 -1.90625q0.828125 -0.671875 2.078125 -0.671875q0.921875 0 1.609375 0.375q0.703125 0.359375 1.15625 1.0625q0.453125 0.703125 0.703125 1.703125q0.265625 1.0 0.265625 2.703125q0 2.015625 -0.421875 3.265625q-0.40625 1.234375 -1.234375 1.921875q-0.828125 0.671875 -2.078125 0.671875q-1.65625 0 -2.609375 -1.203125q-1.125 -1.421875 -1.125 -4.65625zm1.4375 0q0 2.828125 0.65625 3.765625q0.671875 0.921875 1.640625 0.921875q0.96875 0 1.625 -0.9375q0.65625 -0.9375 0.65625 -3.75q0 -2.828125 -0.65625 -3.75q-0.65625 -0.9375 -1.640625 -0.9375q-0.96875 0 -1.546875 0.828125q-0.734375 1.046875 -0.734375 3.859375z" fill-rule="nonzero"/><path fill="#b6d7a8" d="m107.115486 77.580055l37.79528 0l0 37.795273l-37.79528 0z" fill-rule="evenodd"/><path stroke="#000000" stroke-width="2.0" stroke-linejoin="round" stroke-linecap="butt" d="m107.115486 77.580055l37.79528 0l0 37.795273l-37.79528 0z" fill-rule="evenodd"/><path fill="#000000" d="m127.53265 102.33769l-1.40625 0l0 -8.96875q-0.515625 0.484375 -1.34375 0.96875q-0.8125 0.484375 -1.46875 0.734375l0 -1.359375q1.171875 -0.5625 2.046875 -1.34375q0.890625 -0.796875 1.265625 -1.53125l0.90625 0l0 11.5z" fill-rule="nonzero"/><path fill="#000000" fill-opacity="0.0" d="m5.9185114 77.091866l101.19685 0l0 38.771652l-101.19685 0z" fill-rule="evenodd"/><path fill="#000000" d="m58.365364 101.451866l0 -11.453125l1.515625 0l0 5.671875l5.6875 -5.671875l2.0625 0l-4.8125 4.640625l5.015625 6.8125l-2.0 0l-4.078125 -5.796875l-1.875 1.828125l0 3.96875l-1.515625 0zm10.03125 -4.15625q0 -2.296875 1.28125 -3.40625q1.078125 -0.921875 2.609375 -0.921875q1.71875 0 2.796875 1.125q1.09375 1.109375 1.09375 3.09375q0 1.59375 -0.484375 2.515625q-0.484375 0.921875 -1.40625 1.4375q-0.90625 0.5 -2.0 0.5q-1.734375 0 -2.8125 -1.109375q-1.078125 -1.125 -1.078125 -3.234375zm1.453125 0q0 1.59375 0.6875 2.390625q0.703125 0.796875 1.75 0.796875q1.046875 0 1.734375 -0.796875q0.703125 -0.796875 0.703125 -2.4375q0 -1.53125 -0.703125 -2.328125q-0.6875 -0.796875 -1.734375 -0.796875q-1.046875 0 -1.75 0.796875q-0.6875 0.78125 -0.6875 2.375zm7.9765625 7.34375l0 -11.484375l1.28125 0l0 1.078125q0.453125 -0.640625 1.015625 -0.953125q0.578125 -0.3125 1.390625 -0.3125q1.0625 0 1.875 0.546875q0.8125 0.546875 1.21875 1.546875q0.421875 0.984375 0.421875 2.171875q0 1.28125 -0.46875 2.296875q-0.453125 1.015625 -1.328125 1.5625q-0.859375 0.546875 -1.828125 0.546875q-0.703125 0 -1.265625 -0.296875q-0.546875 -0.296875 -0.90625 -0.75l0 4.046875l-1.40625 0zm1.265625 -7.296875q0 1.609375 0.640625 2.375q0.65625 0.765625 1.578125 0.765625q0.9375 0 1.609375 -0.796875q0.671875 -0.796875 0.671875 -2.453125q0 -1.59375 -0.65625 -2.375q-0.65625 -0.796875 -1.5625 -0.796875q-0.890625 0 -1.59375 0.84375q-0.6875 0.84375 -0.6875 2.4375zm7.6328125 -5.734375l0 -1.609375l1.40625 0l0 1.609375l-1.40625 0zm0 9.84375l0 -8.296875l1.40625 0l0 8.296875l-1.40625 0zm9.2265625 -2.671875l1.453125 0.171875q-0.34375 1.28125 -1.28125 1.984375q-0.921875 0.703125 -2.359375 0.703125q-1.828125 0 -2.890625 -1.125q-1.0625 -1.125 -1.0625 -3.140625q0 -2.09375 1.078125 -3.25q1.078125 -1.15625 2.796875 -1.15625q1.65625 0 2.703125 1.140625q1.0625 1.125 1.0625 3.171875q0 0.125 0 0.375l-6.1875 0q0.078125 1.375 0.765625 2.109375q0.703125 0.71875 1.734375 0.71875q0.78125 0 1.328125 -0.40625q0.546875 -0.40625 0.859375 -1.296875zm-4.609375 -2.28125l4.625 0q-0.09375 -1.046875 -0.53125 -1.5625q-0.671875 -0.8125 -1.734375 -0.8125q-0.96875 0 -1.640625 0.65625q-0.65625 0.640625 -0.71875 1.71875z" fill-rule="nonzero"/><path fill="#b6d7a8" d="m182.70604 77.580055l37.795273 0l0 37.795273l-37.795273 0z" fill-rule="evenodd"/><path stroke="#000000" stroke-width="2.0" stroke-linejoin="round" stroke-linecap="butt" d="m182.70604 77.580055l37.795273 0l0 37.795273l-37.795273 0z" fill-rule="evenodd"/><path fill="#000000" d="m197.82632 99.30644l1.40625 -0.1875q0.25 1.203125 0.828125 1.734375q0.578125 0.515625 1.421875 0.515625q0.984375 0 1.671875 -0.6875q0.6875 -0.6875 0.6875 -1.703125q0 -0.96875 -0.640625 -1.59375q-0.625 -0.625 -1.609375 -0.625q-0.390625 0 -0.984375 0.15625l0.15625 -1.234375q0.140625 0.015625 0.21875 0.015625q0.90625 0 1.625 -0.46875q0.71875 -0.46875 0.71875 -1.453125q0 -0.765625 -0.53125 -1.265625q-0.515625 -0.515625 -1.34375 -0.515625q-0.828125 0 -1.375 0.515625q-0.546875 0.515625 -0.703125 1.546875l-1.40625 -0.25q0.265625 -1.421875 1.171875 -2.1875q0.921875 -0.78125 2.28125 -0.78125q0.9375 0 1.71875 0.40625q0.796875 0.390625 1.203125 1.09375q0.421875 0.6875 0.421875 1.46875q0 0.75 -0.40625 1.359375q-0.390625 0.609375 -1.171875 0.96875q1.015625 0.234375 1.578125 0.96875q0.5625 0.734375 0.5625 1.84375q0 1.5 -1.09375 2.546875q-1.09375 1.046875 -2.765625 1.046875q-1.5 0 -2.5 -0.890625q-1.0 -0.90625 -1.140625 -2.34375z" fill-rule="nonzero"/><path fill="#b6d7a8" d="m144.91077 77.580055l37.795273 0l0 37.795273l-37.795273 0z" fill-rule="evenodd"/><path stroke="#000000" stroke-width="2.0" stroke-linejoin="round" stroke-linecap="butt" d="m144.91077 77.580055l37.795273 0l0 37.795273l-37.795273 0z" fill-rule="evenodd"/><path fill="#000000" d="m167.42168 100.97832l0 1.359375l-7.578125 0q-0.015625 -0.515625 0.171875 -0.984375q0.28125 -0.765625 0.921875 -1.515625q0.640625 -0.75 1.84375 -1.734375q1.859375 -1.53125 2.515625 -2.421875q0.65625 -0.90625 0.65625 -1.703125q0 -0.828125 -0.59375 -1.40625q-0.59375 -0.578125 -1.5625 -0.578125q-1.015625 0 -1.625 0.609375q-0.609375 0.609375 -0.609375 1.6875l-1.453125 -0.140625q0.15625 -1.625 1.125 -2.46875q0.96875 -0.84375 2.59375 -0.84375q1.65625 0 2.609375 0.921875q0.96875 0.90625 0.96875 2.25q0 0.6875 -0.28125 1.359375q-0.28125 0.65625 -0.9375 1.390625q-0.65625 0.734375 -2.171875 2.015625q-1.265625 1.0625 -1.625 1.453125q-0.359375 0.375 -0.59375 0.75l5.625 0z" fill-rule="nonzero"/><path fill="#b6d7a8" d="m220.50131 77.580055l37.795288 0l0 37.795273l-37.795288 0z" fill-rule="evenodd"/><path stroke="#000000" stroke-width="2.0" stroke-linejoin="round" stroke-linecap="butt" d="m220.50131 77.580055l37.795288 0l0 37.795273l-37.795288 0z" fill-rule="evenodd"/><path fill="#000000" d="m240.12161 102.33769l0 -2.75l-4.96875 0l0 -1.28125l5.234375 -7.421875l1.140625 0l0 7.421875l1.546875 0l0 1.28125l-1.546875 0l0 2.75l-1.40625 0zm0 -4.03125l0 -5.171875l-3.578125 5.171875l3.578125 0z" fill-rule="nonzero"/><path fill="#b6d7a8" d="m258.2966 77.580055l37.795258 0l0 37.795273l-37.795258 0z" fill-rule="evenodd"/><path stroke="#000000" stroke-width="2.0" stroke-linejoin="round" stroke-linecap="butt" d="m258.2966 77.580055l37.795258 0l0 37.795273l-37.795258 0z" fill-rule="evenodd"/><path fill="#000000" d="m273.41687 99.33769l1.46875 -0.125q0.171875 1.078125 0.765625 1.625q0.59375 0.53125 1.4375 0.53125q1.015625 0 1.71875 -0.765625q0.703125 -0.765625 0.703125 -2.03125q0 -1.203125 -0.671875 -1.890625q-0.671875 -0.703125 -1.765625 -0.703125q-0.6875 0 -1.234375 0.3125q-0.546875 0.3125 -0.859375 0.796875l-1.3125 -0.171875l1.109375 -5.875l5.6875 0l0 1.34375l-4.5625 0l-0.625 3.078125q1.03125 -0.71875 2.171875 -0.71875q1.5 0 2.53125 1.046875q1.03125 1.03125 1.03125 2.65625q0 1.5625 -0.90625 2.6875q-1.109375 1.40625 -3.015625 1.40625q-1.5625 0 -2.546875 -0.875q-0.984375 -0.890625 -1.125 -2.328125z" fill-rule="nonzero"/><path fill="#b6d7a8" d="m333.88715 77.580055l37.795258 0l0 37.795273l-37.795258 0z" fill-rule="evenodd"/><path stroke="#000000" stroke-width="2.0" stroke-linejoin="round" stroke-linecap="butt" d="m333.88715 77.580055l37.795258 0l0 37.795273l-37.795258 0z" fill-rule="evenodd"/><path fill="#000000" d="m349.1012 92.38457l0 -1.359375l7.40625 0l0 1.09375q-1.09375 1.171875 -2.171875 3.109375q-1.0625 1.921875 -1.65625 3.953125q-0.421875 1.4375 -0.53125 3.15625l-1.453125 0q0.03125 -1.359375 0.53125 -3.265625q0.515625 -1.921875 1.453125 -3.6875q0.953125 -1.78125 2.03125 -3.0l-5.609375 0z" fill-rule="nonzero"/><path fill="#b6d7a8" d="m296.09186 77.580055l37.795288 0l0 37.795273l-37.795288 0z" fill-rule="evenodd"/><path stroke="#000000" stroke-width="2.0" stroke-linejoin="round" stroke-linecap="butt" d="m296.09186 77.580055l37.795288 0l0 37.795273l-37.795288 0z" fill-rule="evenodd"/><path fill="#000000" d="m318.50903 93.68144l-1.40625 0.109375q-0.1875 -0.828125 -0.53125 -1.203125q-0.5625 -0.59375 -1.40625 -0.59375q-0.671875 0 -1.171875 0.375q-0.671875 0.484375 -1.0625 1.421875q-0.375 0.921875 -0.390625 2.640625q0.515625 -0.78125 1.25 -1.15625q0.734375 -0.375 1.53125 -0.375q1.40625 0 2.390625 1.046875q1.0 1.03125 1.0 2.671875q0 1.078125 -0.46875 2.0q-0.46875 0.921875 -1.28125 1.421875q-0.8125 0.5 -1.84375 0.5q-1.75 0 -2.859375 -1.296875q-1.109375 -1.296875 -1.109375 -4.265625q0 -3.328125 1.21875 -4.828125q1.078125 -1.3125 2.890625 -1.3125q1.34375 0 2.203125 0.765625q0.875 0.75 1.046875 2.078125zm-5.75 4.9375q0 0.734375 0.3125 1.40625q0.3125 0.65625 0.859375 1.0q0.5625 0.34375 1.171875 0.34375q0.890625 0 1.53125 -0.71875q0.640625 -0.71875 0.640625 -1.953125q0 -1.1875 -0.640625 -1.859375q-0.625 -0.6875 -1.59375 -0.6875q-0.953125 0 -1.625 0.6875q-0.65625 0.671875 -0.65625 1.78125z" fill-rule="nonzero"/><path fill="#b6d7a8" d="m409.4777 77.580055l37.795288 0l0 37.795273l-37.795288 0z" fill-rule="evenodd"/><path stroke="#000000" stroke-width="2.0" stroke-linejoin="round" stroke-linecap="butt" d="m409.4777 77.580055l37.795288 0l0 37.795273l-37.795288 0z" fill-rule="evenodd"/><path fill="#000000" d="m424.80112 99.68144l1.359375 -0.125q0.171875 0.953125 0.65625 1.390625q0.484375 0.421875 1.234375 0.421875q0.65625 0 1.140625 -0.296875q0.484375 -0.296875 0.796875 -0.78125q0.3125 -0.5 0.515625 -1.34375q0.21875 -0.84375 0.21875 -1.71875q0 -0.09375 0 -0.28125q-0.421875 0.671875 -1.15625 1.09375q-0.734375 0.40625 -1.578125 0.40625q-1.421875 0 -2.40625 -1.03125q-0.984375 -1.03125 -0.984375 -2.71875q0 -1.734375 1.015625 -2.796875q1.03125 -1.0625 2.578125 -1.0625q1.125 0 2.046875 0.609375q0.921875 0.59375 1.40625 1.703125q0.484375 1.109375 0.484375 3.21875q0 2.203125 -0.484375 3.5q-0.46875 1.296875 -1.421875 1.984375q-0.9375 0.6875 -2.203125 0.6875q-1.34375 0 -2.203125 -0.75q-0.84375 -0.75 -1.015625 -2.109375zm5.765625 -5.046875q0 -1.21875 -0.65625 -1.921875q-0.640625 -0.71875 -1.546875 -0.71875q-0.9375 0 -1.640625 0.765625q-0.6875 0.765625 -0.6875 1.984375q0 1.09375 0.65625 1.78125q0.671875 0.6875 1.640625 0.6875q0.96875 0 1.59375 -0.6875q0.640625 -0.6875 0.640625 -1.890625z" fill-rule="nonzero"/><path fill="#b6d7a8" d="m371.6824 77.580055l37.795288 0l0 37.795273l-37.795288 0z" fill-rule="evenodd"/><path stroke="#000000" stroke-width="2.0" stroke-linejoin="round" stroke-linecap="butt" d="m371.6824 77.580055l37.795288 0l0 37.795273l-37.795288 0z" fill-rule="evenodd"/><path fill="#000000" d="m388.95895 96.11894q-0.875 -0.3125 -1.296875 -0.90625q-0.421875 -0.59375 -0.421875 -1.421875q0 -1.25 0.890625 -2.09375q0.90625 -0.859375 2.40625 -0.859375q1.5 0 2.40625 0.875q0.921875 0.859375 0.921875 2.109375q0 0.796875 -0.421875 1.390625q-0.421875 0.59375 -1.265625 0.90625q1.046875 0.34375 1.59375 1.109375q0.5625 0.765625 0.5625 1.828125q0 1.46875 -1.046875 2.484375q-1.03125 1.0 -2.734375 1.0q-1.6875 0 -2.734375 -1.0q-1.03125 -1.015625 -1.03125 -2.515625q0 -1.125 0.5625 -1.875q0.5625 -0.75 1.609375 -1.03125zm-0.28125 -2.375q0 0.8125 0.515625 1.328125q0.53125 0.515625 1.375 0.515625q0.8125 0 1.328125 -0.515625q0.515625 -0.515625 0.515625 -1.25q0 -0.78125 -0.53125 -1.296875q-0.53125 -0.53125 -1.328125 -0.53125q-0.8125 0 -1.34375 0.515625q-0.53125 0.515625 -0.53125 1.234375zm-0.453125 5.28125q0 0.609375 0.28125 1.171875q0.296875 0.5625 0.859375 0.875q0.5625 0.296875 1.203125 0.296875q1.015625 0 1.671875 -0.640625q0.65625 -0.65625 0.65625 -1.65625q0 -1.015625 -0.6875 -1.671875q-0.671875 -0.671875 -1.6875 -0.671875q-0.984375 0 -1.640625 0.65625q-0.65625 0.65625 -0.65625 1.640625z" fill-rule="nonzero"/><path fill="#b6d7a8" d="m447.27298 77.580055l37.795258 0l0 37.795273l-37.795258 0z" fill-rule="evenodd"/><path stroke="#000000" stroke-width="2.0" stroke-linejoin="round" stroke-linecap="butt" d="m447.27298 77.580055l37.795258 0l0 37.795273l-37.795258 0z" fill-rule="evenodd"/><path fill="#000000" d="m463.2409 102.33769l-1.40625 0l0 -8.96875q-0.515625 0.484375 -1.34375 0.96875q-0.8125 0.484375 -1.46875 0.734375l0 -1.359375q1.171875 -0.5625 2.046875 -1.34375q0.890625 -0.796875 1.265625 -1.53125l0.90625 0l0 11.5zm3.6015625 -5.65625q0 -2.03125 0.40625 -3.265625q0.421875 -1.234375 1.25 -1.90625q0.828125 -0.671875 2.078125 -0.671875q0.921875 0 1.609375 0.375q0.703125 0.359375 1.15625 1.0625q0.453125 0.703125 0.703125 1.703125q0.265625 1.0 0.265625 2.703125q0 2.015625 -0.421875 3.265625q-0.40625 1.234375 -1.234375 1.921875q-0.828125 0.671875 -2.078125 0.671875q-1.65625 0 -2.609375 -1.203125q-1.125 -1.421875 -1.125 -4.65625zm1.4375 0q0 2.828125 0.65625 3.765625q0.671875 0.921875 1.640625 0.921875q0.96875 0 1.625 -0.9375q0.65625 -0.9375 0.65625 -3.75q0 -2.828125 -0.65625 -3.75q-0.65625 -0.9375 -1.640625 -0.9375q-0.96875 0 -1.546875 0.828125q-0.734375 1.046875 -0.734375 3.859375z" fill-rule="nonzero"/><path fill="#6aa84f" d="m485.06824 77.580055l37.795288 0l0 37.795273l-37.795288 0z" fill-rule="evenodd"/><path stroke="#000000" stroke-width="2.0" stroke-linejoin="round" stroke-linecap="butt" d="m485.06824 77.580055l37.795288 0l0 37.795273l-37.795288 0z" fill-rule="evenodd"/><path fill="#000000" d="m505.4854 102.33769l-1.40625 0l0 -8.96875q-0.515625 0.484375 -1.34375 0.96875q-0.8125 0.484375 -1.46875 0.734375l0 -1.359375q1.171875 -0.5625 2.046875 -1.34375q0.890625 -0.796875 1.265625 -1.53125l0.90625 0l0 11.5z" fill-rule="nonzero"/><path fill="#6aa84f" d="m560.6588 77.580055l37.795227 0l0 37.795273l-37.795227 0z" fill-rule="evenodd"/><path stroke="#000000" stroke-width="2.0" stroke-linejoin="round" stroke-linecap="butt" d="m560.6588 77.580055l37.795227 0l0 37.795273l-37.795227 0z" fill-rule="evenodd"/><path fill="#000000" d="m575.7791 99.30644l1.40625 -0.1875q0.25 1.203125 0.828125 1.734375q0.578125 0.515625 1.421875 0.515625q0.984375 0 1.671875 -0.6875q0.6875 -0.6875 0.6875 -1.703125q0 -0.96875 -0.640625 -1.59375q-0.625 -0.625 -1.609375 -0.625q-0.390625 0 -0.984375 0.15625l0.15625 -1.234375q0.140625 0.015625 0.21875 0.015625q0.90625 0 1.625 -0.46875q0.71875 -0.46875 0.71875 -1.453125q0 -0.765625 -0.53125 -1.265625q-0.515625 -0.515625 -1.34375 -0.515625q-0.828125 0 -1.375 0.515625q-0.546875 0.515625 -0.703125 1.546875l-1.40625 -0.25q0.265625 -1.421875 1.171875 -2.1875q0.921875 -0.78125 2.28125 -0.78125q0.9375 0 1.71875 0.40625q0.796875 0.390625 1.203125 1.09375q0.421875 0.6875 0.421875 1.46875q0 0.75 -0.40625 1.359375q-0.390625 0.609375 -1.171875 0.96875q1.015625 0.234375 1.578125 0.96875q0.5625 0.734375 0.5625 1.84375q0 1.5 -1.09375 2.546875q-1.09375 1.046875 -2.765625 1.046875q-1.5 0 -2.5 -0.890625q-1.0 -0.90625 -1.140625 -2.34375z" fill-rule="nonzero"/><path fill="#6aa84f" d="m522.8635 77.580055l37.795288 0l0 37.795273l-37.795288 0z" fill-rule="evenodd"/><path stroke="#000000" stroke-width="2.0" stroke-linejoin="round" stroke-linecap="butt" d="m522.8635 77.580055l37.795288 0l0 37.795273l-37.795288 0z" fill-rule="evenodd"/><path fill="#000000" d="m545.37445 100.97832l0 1.359375l-7.578125 0q-0.015625 -0.515625 0.171875 -0.984375q0.28125 -0.765625 0.921875 -1.515625q0.640625 -0.75 1.84375 -1.734375q1.859375 -1.53125 2.515625 -2.421875q0.65625 -0.90625 0.65625 -1.703125q0 -0.828125 -0.59375 -1.40625q-0.59375 -0.578125 -1.5625 -0.578125q-1.015625 0 -1.625 0.609375q-0.609375 0.609375 -0.609375 1.6875l-1.453125 -0.140625q0.15625 -1.625 1.125 -2.46875q0.96875 -0.84375 2.59375 -0.84375q1.65625 0 2.609375 0.921875q0.96875 0.90625 0.96875 2.25q0 0.6875 -0.28125 1.359375q-0.28125 0.65625 -0.9375 1.390625q-0.65625 0.734375 -2.171875 2.015625q-1.265625 1.0625 -1.625 1.453125q-0.359375 0.375 -0.59375 0.75l5.625 0z" fill-rule="nonzero"/><path fill="#efefef" d="m107.115486 148.58005l37.79528 0l0 37.795288l-37.79528 0z" fill-rule="evenodd"/><path stroke="#000000" stroke-width="2.0" stroke-linejoin="round" stroke-linecap="butt" stroke-dasharray="2.0,6.0" d="m107.115486 148.58005l37.79528 0l0 37.795288l-37.79528 0z" fill-rule="evenodd"/><path fill="#000000" d="m127.53265 173.33769l-1.40625 0l0 -8.96875q-0.515625 0.484375 -1.34375 0.96875q-0.8125 0.484375 -1.46875 0.734375l0 -1.359375q1.171875 -0.5625 2.046875 -1.34375q0.890625 -0.796875 1.265625 -1.53125l0.90625 0l0 11.5z" fill-rule="nonzero"/><path fill="#000000" fill-opacity="0.0" d="m5.918586 148.58005l101.196846 0l0 38.771652l-101.196846 0z" fill-rule="evenodd"/><path fill="#000000" d="m38.795128 172.94005l0 -11.453125l1.515625 0l0 10.09375l5.640625 0l0 1.359375l-7.15625 0zm8.2578125 -4.15625q0 -2.296875 1.28125 -3.40625q1.078125 -0.921875 2.609375 -0.921875q1.71875 0 2.796875 1.125q1.09375 1.109375 1.09375 3.09375q0 1.59375 -0.484375 2.515625q-0.484375 0.921875 -1.40625 1.4375q-0.90625 0.5 -2.0 0.5q-1.734375 0 -2.8125 -1.109375q-1.078125 -1.125 -1.078125 -3.234375zm1.453125 0q0 1.59375 0.6875 2.390625q0.703125 0.796875 1.75 0.796875q1.046875 0 1.734375 -0.796875q0.703125 -0.796875 0.703125 -2.4375q0 -1.53125 -0.703125 -2.328125q-0.6875 -0.796875 -1.734375 -0.796875q-1.046875 0 -1.75 0.796875q-0.6875 0.78125 -0.6875 2.375zm0.25 -5.765625l0 -1.609375l1.46875 0l0 1.609375l-1.46875 0zm2.90625 0l0 -1.609375l1.46875 0l0 1.609375l-1.46875 0zm4.2578125 7.4375l1.390625 -0.21875q0.109375 0.84375 0.640625 1.296875q0.546875 0.4375 1.5 0.4375q0.96875 0 1.4375 -0.390625q0.46875 -0.40625 0.46875 -0.9375q0 -0.46875 -0.40625 -0.75q-0.296875 -0.1875 -1.4375 -0.46875q-1.546875 -0.390625 -2.15625 -0.671875q-0.59375 -0.296875 -0.90625 -0.796875q-0.296875 -0.5 -0.296875 -1.109375q0 -0.5625 0.25 -1.03125q0.25 -0.46875 0.6875 -0.78125q0.328125 -0.25 0.890625 -0.40625q0.578125 -0.171875 1.21875 -0.171875q0.984375 0 1.71875 0.28125q0.734375 0.28125 1.078125 0.765625q0.359375 0.46875 0.5 1.28125l-1.375 0.1875q-0.09375 -0.640625 -0.546875 -1.0q-0.453125 -0.359375 -1.265625 -0.359375q-0.96875 0 -1.390625 0.328125q-0.40625 0.3125 -0.40625 0.734375q0 0.28125 0.171875 0.5q0.171875 0.21875 0.53125 0.375q0.21875 0.078125 1.25 0.359375q1.484375 0.390625 2.078125 0.65625q0.59375 0.25 0.921875 0.734375q0.34375 0.484375 0.34375 1.203125q0 0.703125 -0.421875 1.328125q-0.40625 0.609375 -1.1875 0.953125q-0.765625 0.34375 -1.734375 0.34375q-1.625 0 -2.46875 -0.671875q-0.84375 -0.671875 -1.078125 -2.0zm13.96875 -0.5625l1.390625 0.1875q-0.234375 1.421875 -1.171875 2.234375q-0.921875 0.8125 -2.28125 0.8125q-1.703125 0 -2.75 -1.109375q-1.03125 -1.125 -1.03125 -3.203125q0 -1.34375 0.4375 -2.34375q0.453125 -1.015625 1.359375 -1.515625q0.921875 -0.5 1.984375 -0.5q1.359375 0 2.21875 0.6875q0.859375 0.671875 1.09375 1.9375l-1.359375 0.203125q-0.203125 -0.828125 -0.703125 -1.25q-0.484375 -0.421875 -1.1875 -0.421875q-1.0625 0 -1.734375 0.765625q-0.65625 0.75 -0.65625 2.40625q0 1.671875 0.640625 2.4375q0.640625 0.75 1.671875 0.75q0.828125 0 1.375 -0.5q0.5625 -0.515625 0.703125 -1.578125zm2.59375 3.046875l0 -11.453125l1.40625 0l0 4.109375q0.984375 -1.140625 2.484375 -1.140625q0.921875 0 1.59375 0.359375q0.6875 0.359375 0.96875 1.0q0.296875 0.640625 0.296875 1.859375l0 5.265625l-1.40625 0l0 -5.265625q0 -1.046875 -0.453125 -1.53125q-0.453125 -0.484375 -1.296875 -0.484375q-0.625 0 -1.171875 0.328125q-0.546875 0.328125 -0.78125 0.890625q-0.234375 0.546875 -0.234375 1.515625l0 4.546875l-1.40625 0zm14.5703125 -2.671875l1.453125 0.171875q-0.34375 1.28125 -1.28125 1.984375q-0.921875 0.703125 -2.359375 0.703125q-1.828125 0 -2.890625 -1.125q-1.0625 -1.125 -1.0625 -3.140625q0 -2.09375 1.078125 -3.25q1.078125 -1.15625 2.796875 -1.15625q1.65625 0 2.703125 1.140625q1.0625 1.125 1.0625 3.171875q0 0.125 0 0.375l-6.1875 0q0.078125 1.375 0.765625 2.109375q0.703125 0.71875 1.734375 0.71875q0.78125 0 1.328125 -0.40625q0.546875 -0.40625 0.859375 -1.296875zm-4.609375 -2.28125l4.625 0q-0.09375 -1.046875 -0.53125 -1.5625q-0.671875 -0.8125 -1.734375 -0.8125q-0.96875 0 -1.640625 0.65625q-0.65625 0.640625 -0.71875 1.71875zm7.8359375 4.953125l0 -8.296875l1.265625 0l0 1.171875q0.90625 -1.359375 2.640625 -1.359375q0.75 0 1.375 0.265625q0.625 0.265625 0.9375 0.703125q0.3125 0.4375 0.4375 1.046875q0.078125 0.390625 0.078125 1.359375l0 5.109375l-1.40625 0l0 -5.046875q0 -0.859375 -0.171875 -1.28125q-0.15625 -0.4375 -0.578125 -0.6875q-0.40625 -0.25 -0.96875 -0.25q-0.90625 0 -1.5625 0.578125q-0.640625 0.5625 -0.640625 2.15625l0 4.53125l-1.40625 0z" fill-rule="nonzero"/><path fill="#efefef" d="m182.70604 148.58005l37.795273 0l0 37.795288l-37.795273 0z" fill-rule="evenodd"/><path stroke="#000000" stroke-width="2.0" stroke-linejoin="round" stroke-linecap="butt" stroke-dasharray="2.0,6.0" d="m182.70604 148.58005l37.795273 0l0 37.795288l-37.795273 0z" fill-rule="evenodd"/><path fill="#000000" d="m197.82632 170.30644l1.40625 -0.1875q0.25 1.203125 0.828125 1.734375q0.578125 0.515625 1.421875 0.515625q0.984375 0 1.671875 -0.6875q0.6875 -0.6875 0.6875 -1.703125q0 -0.96875 -0.640625 -1.59375q-0.625 -0.625 -1.609375 -0.625q-0.390625 0 -0.984375 0.15625l0.15625 -1.234375q0.140625 0.015625 0.21875 0.015625q0.90625 0 1.625 -0.46875q0.71875 -0.46875 0.71875 -1.453125q0 -0.765625 -0.53125 -1.265625q-0.515625 -0.515625 -1.34375 -0.515625q-0.828125 0 -1.375 0.515625q-0.546875 0.515625 -0.703125 1.546875l-1.40625 -0.25q0.265625 -1.421875 1.171875 -2.1875q0.921875 -0.78125 2.28125 -0.78125q0.9375 0 1.71875 0.40625q0.796875 0.390625 1.203125 1.09375q0.421875 0.6875 0.421875 1.46875q0 0.75 -0.40625 1.359375q-0.390625 0.609375 -1.171875 0.96875q1.015625 0.234375 1.578125 0.96875q0.5625 0.734375 0.5625 1.84375q0 1.5 -1.09375 2.546875q-1.09375 1.046875 -2.765625 1.046875q-1.5 0 -2.5 -0.890625q-1.0 -0.90625 -1.140625 -2.34375z" fill-rule="nonzero"/><path fill="#efefef" d="m144.91077 148.58005l37.795273 0l0 37.795288l-37.795273 0z" fill-rule="evenodd"/><path stroke="#000000" stroke-width="2.0" stroke-linejoin="round" stroke-linecap="butt" stroke-dasharray="2.0,6.0" d="m144.91077 148.58005l37.795273 0l0 37.795288l-37.795273 0z" fill-rule="evenodd"/><path fill="#000000" d="m167.42168 171.97832l0 1.359375l-7.578125 0q-0.015625 -0.515625 0.171875 -0.984375q0.28125 -0.765625 0.921875 -1.515625q0.640625 -0.75 1.84375 -1.734375q1.859375 -1.53125 2.515625 -2.421875q0.65625 -0.90625 0.65625 -1.703125q0 -0.828125 -0.59375 -1.40625q-0.59375 -0.578125 -1.5625 -0.578125q-1.015625 0 -1.625 0.609375q-0.609375 0.609375 -0.609375 1.6875l-1.453125 -0.140625q0.15625 -1.625 1.125 -2.46875q0.96875 -0.84375 2.59375 -0.84375q1.65625 0 2.609375 0.921875q0.96875 0.90625 0.96875 2.25q0 0.6875 -0.28125 1.359375q-0.28125 0.65625 -0.9375 1.390625q-0.65625 0.734375 -2.171875 2.015625q-1.265625 1.0625 -1.625 1.453125q-0.359375 0.375 -0.59375 0.75l5.625 0z" fill-rule="nonzero"/><path fill="#b6d7a8" d="m220.50131 148.58005l37.795288 0l0 37.795288l-37.795288 0z" fill-rule="evenodd"/><path stroke="#000000" stroke-width="2.0" stroke-linejoin="round" stroke-linecap="butt" d="m220.50131 148.58005l37.795288 0l0 37.795288l-37.795288 0z" fill-rule="evenodd"/><path fill="#000000" d="m240.12161 173.33769l0 -2.75l-4.96875 0l0 -1.28125l5.234375 -7.421875l1.140625 0l0 7.421875l1.546875 0l0 1.28125l-1.546875 0l0 2.75l-1.40625 0zm0 -4.03125l0 -5.171875l-3.578125 5.171875l3.578125 0z" fill-rule="nonzero"/><path fill="#b6d7a8" d="m258.2966 148.58005l37.795258 0l0 37.795288l-37.795258 0z" fill-rule="evenodd"/><path stroke="#000000" stroke-width="2.0" stroke-linejoin="round" stroke-linecap="butt" d="m258.2966 148.58005l37.795258 0l0 37.795288l-37.795258 0z" fill-rule="evenodd"/><path fill="#000000" d="m273.41687 170.33769l1.46875 -0.125q0.171875 1.078125 0.765625 1.625q0.59375 0.53125 1.4375 0.53125q1.015625 0 1.71875 -0.765625q0.703125 -0.765625 0.703125 -2.03125q0 -1.203125 -0.671875 -1.890625q-0.671875 -0.703125 -1.765625 -0.703125q-0.6875 0 -1.234375 0.3125q-0.546875 0.3125 -0.859375 0.796875l-1.3125 -0.171875l1.109375 -5.875l5.6875 0l0 1.34375l-4.5625 0l-0.625 3.078125q1.03125 -0.71875 2.171875 -0.71875q1.5 0 2.53125 1.046875q1.03125 1.03125 1.03125 2.65625q0 1.5625 -0.90625 2.6875q-1.109375 1.40625 -3.015625 1.40625q-1.5625 0 -2.546875 -0.875q-0.984375 -0.890625 -1.125 -2.328125z" fill-rule="nonzero"/><path fill="#b6d7a8" d="m333.88715 148.58005l37.795258 0l0 37.795288l-37.795258 0z" fill-rule="evenodd"/><path stroke="#000000" stroke-width="2.0" stroke-linejoin="round" stroke-linecap="butt" d="m333.88715 148.58005l37.795258 0l0 37.795288l-37.795258 0z" fill-rule="evenodd"/><path fill="#000000" d="m349.1012 163.38457l0 -1.359375l7.40625 0l0 1.09375q-1.09375 1.171875 -2.171875 3.109375q-1.0625 1.921875 -1.65625 3.953125q-0.421875 1.4375 -0.53125 3.15625l-1.453125 0q0.03125 -1.359375 0.53125 -3.265625q0.515625 -1.921875 1.453125 -3.6875q0.953125 -1.78125 2.03125 -3.0l-5.609375 0z" fill-rule="nonzero"/><path fill="#b6d7a8" d="m296.09186 148.58005l37.795288 0l0 37.795288l-37.795288 0z" fill-rule="evenodd"/><path stroke="#000000" stroke-width="2.0" stroke-linejoin="round" stroke-linecap="butt" d="m296.09186 148.58005l37.795288 0l0 37.795288l-37.795288 0z" fill-rule="evenodd"/><path fill="#000000" d="m318.50903 164.68144l-1.40625 0.109375q-0.1875 -0.828125 -0.53125 -1.203125q-0.5625 -0.59375 -1.40625 -0.59375q-0.671875 0 -1.171875 0.375q-0.671875 0.484375 -1.0625 1.421875q-0.375 0.921875 -0.390625 2.640625q0.515625 -0.78125 1.25 -1.15625q0.734375 -0.375 1.53125 -0.375q1.40625 0 2.390625 1.046875q1.0 1.03125 1.0 2.671875q0 1.078125 -0.46875 2.0q-0.46875 0.921875 -1.28125 1.421875q-0.8125 0.5 -1.84375 0.5q-1.75 0 -2.859375 -1.296875q-1.109375 -1.296875 -1.109375 -4.265625q0 -3.328125 1.21875 -4.828125q1.078125 -1.3125 2.890625 -1.3125q1.34375 0 2.203125 0.765625q0.875 0.75 1.046875 2.078125zm-5.75 4.9375q0 0.734375 0.3125 1.40625q0.3125 0.65625 0.859375 1.0q0.5625 0.34375 1.171875 0.34375q0.890625 0 1.53125 -0.71875q0.640625 -0.71875 0.640625 -1.953125q0 -1.1875 -0.640625 -1.859375q-0.625 -0.6875 -1.59375 -0.6875q-0.953125 0 -1.625 0.6875q-0.65625 0.671875 -0.65625 1.78125z" fill-rule="nonzero"/><path fill="#b6d7a8" d="m409.4777 148.58005l37.795288 0l0 37.795288l-37.795288 0z" fill-rule="evenodd"/><path stroke="#000000" stroke-width="2.0" stroke-linejoin="round" stroke-linecap="butt" d="m409.4777 148.58005l37.795288 0l0 37.795288l-37.795288 0z" fill-rule="evenodd"/><path fill="#000000" d="m424.80112 170.68144l1.359375 -0.125q0.171875 0.953125 0.65625 1.390625q0.484375 0.421875 1.234375 0.421875q0.65625 0 1.140625 -0.296875q0.484375 -0.296875 0.796875 -0.78125q0.3125 -0.5 0.515625 -1.34375q0.21875 -0.84375 0.21875 -1.71875q0 -0.09375 0 -0.28125q-0.421875 0.671875 -1.15625 1.09375q-0.734375 0.40625 -1.578125 0.40625q-1.421875 0 -2.40625 -1.03125q-0.984375 -1.03125 -0.984375 -2.71875q0 -1.734375 1.015625 -2.796875q1.03125 -1.0625 2.578125 -1.0625q1.125 0 2.046875 0.609375q0.921875 0.59375 1.40625 1.703125q0.484375 1.109375 0.484375 3.21875q0 2.203125 -0.484375 3.5q-0.46875 1.296875 -1.421875 1.984375q-0.9375 0.6875 -2.203125 0.6875q-1.34375 0 -2.203125 -0.75q-0.84375 -0.75 -1.015625 -2.109375zm5.765625 -5.046875q0 -1.21875 -0.65625 -1.921875q-0.640625 -0.71875 -1.546875 -0.71875q-0.9375 0 -1.640625 0.765625q-0.6875 0.765625 -0.6875 1.984375q0 1.09375 0.65625 1.78125q0.671875 0.6875 1.640625 0.6875q0.96875 0 1.59375 -0.6875q0.640625 -0.6875 0.640625 -1.890625z" fill-rule="nonzero"/><path fill="#b6d7a8" d="m371.6824 148.58005l37.795288 0l0 37.795288l-37.795288 0z" fill-rule="evenodd"/><path stroke="#000000" stroke-width="2.0" stroke-linejoin="round" stroke-linecap="butt" d="m371.6824 148.58005l37.795288 0l0 37.795288l-37.795288 0z" fill-rule="evenodd"/><path fill="#000000" d="m388.95895 167.11894q-0.875 -0.3125 -1.296875 -0.90625q-0.421875 -0.59375 -0.421875 -1.421875q0 -1.25 0.890625 -2.09375q0.90625 -0.859375 2.40625 -0.859375q1.5 0 2.40625 0.875q0.921875 0.859375 0.921875 2.109375q0 0.796875 -0.421875 1.390625q-0.421875 0.59375 -1.265625 0.90625q1.046875 0.34375 1.59375 1.109375q0.5625 0.765625 0.5625 1.828125q0 1.46875 -1.046875 2.484375q-1.03125 1.0 -2.734375 1.0q-1.6875 0 -2.734375 -1.0q-1.03125 -1.015625 -1.03125 -2.515625q0 -1.125 0.5625 -1.875q0.5625 -0.75 1.609375 -1.03125zm-0.28125 -2.375q0 0.8125 0.515625 1.328125q0.53125 0.515625 1.375 0.515625q0.8125 0 1.328125 -0.515625q0.515625 -0.515625 0.515625 -1.25q0 -0.78125 -0.53125 -1.296875q-0.53125 -0.53125 -1.328125 -0.53125q-0.8125 0 -1.34375 0.515625q-0.53125 0.515625 -0.53125 1.234375zm-0.453125 5.28125q0 0.609375 0.28125 1.171875q0.296875 0.5625 0.859375 0.875q0.5625 0.296875 1.203125 0.296875q1.015625 0 1.671875 -0.640625q0.65625 -0.65625 0.65625 -1.65625q0 -1.015625 -0.6875 -1.671875q-0.671875 -0.671875 -1.6875 -0.671875q-0.984375 0 -1.640625 0.65625q-0.65625 0.65625 -0.65625 1.640625z" fill-rule="nonzero"/><path fill="#b6d7a8" d="m447.27298 148.58005l37.795258 0l0 37.795288l-37.795258 0z" fill-rule="evenodd"/><path stroke="#000000" stroke-width="2.0" stroke-linejoin="round" stroke-linecap="butt" d="m447.27298 148.58005l37.795258 0l0 37.795288l-37.795258 0z" fill-rule="evenodd"/><path fill="#000000" d="m463.2409 173.33769l-1.40625 0l0 -8.96875q-0.515625 0.484375 -1.34375 0.96875q-0.8125 0.484375 -1.46875 0.734375l0 -1.359375q1.171875 -0.5625 2.046875 -1.34375q0.890625 -0.796875 1.265625 -1.53125l0.90625 0l0 11.5zm3.6015625 -5.65625q0 -2.03125 0.40625 -3.265625q0.421875 -1.234375 1.25 -1.90625q0.828125 -0.671875 2.078125 -0.671875q0.921875 0 1.609375 0.375q0.703125 0.359375 1.15625 1.0625q0.453125 0.703125 0.703125 1.703125q0.265625 1.0 0.265625 2.703125q0 2.015625 -0.421875 3.265625q-0.40625 1.234375 -1.234375 1.921875q-0.828125 0.671875 -2.078125 0.671875q-1.65625 0 -2.609375 -1.203125q-1.125 -1.421875 -1.125 -4.65625zm1.4375 0q0 2.828125 0.65625 3.765625q0.671875 0.921875 1.640625 0.921875q0.96875 0 1.625 -0.9375q0.65625 -0.9375 0.65625 -3.75q0 -2.828125 -0.65625 -3.75q-0.65625 -0.9375 -1.640625 -0.9375q-0.96875 0 -1.546875 0.828125q-0.734375 1.046875 -0.734375 3.859375z" fill-rule="nonzero"/><path fill="#6aa84f" d="m485.06824 148.58005l37.795288 0l0 37.795288l-37.795288 0z" fill-rule="evenodd"/><path stroke="#000000" stroke-width="2.0" stroke-linejoin="round" stroke-linecap="butt" d="m485.06824 148.58005l37.795288 0l0 37.795288l-37.795288 0z" fill-rule="evenodd"/><path fill="#000000" d="m505.4854 173.33769l-1.40625 0l0 -8.96875q-0.515625 0.484375 -1.34375 0.96875q-0.8125 0.484375 -1.46875 0.734375l0 -1.359375q1.171875 -0.5625 2.046875 -1.34375q0.890625 -0.796875 1.265625 -1.53125l0.90625 0l0 11.5z" fill-rule="nonzero"/><path fill="#6aa84f" d="m560.6588 148.58005l37.795227 0l0 37.795288l-37.795227 0z" fill-rule="evenodd"/><path stroke="#000000" stroke-width="2.0" stroke-linejoin="round" stroke-linecap="butt" d="m560.6588 148.58005l37.795227 0l0 37.795288l-37.795227 0z" fill-rule="evenodd"/><path fill="#000000" d="m575.7791 170.30644l1.40625 -0.1875q0.25 1.203125 0.828125 1.734375q0.578125 0.515625 1.421875 0.515625q0.984375 0 1.671875 -0.6875q0.6875 -0.6875 0.6875 -1.703125q0 -0.96875 -0.640625 -1.59375q-0.625 -0.625 -1.609375 -0.625q-0.390625 0 -0.984375 0.15625l0.15625 -1.234375q0.140625 0.015625 0.21875 0.015625q0.90625 0 1.625 -0.46875q0.71875 -0.46875 0.71875 -1.453125q0 -0.765625 -0.53125 -1.265625q-0.515625 -0.515625 -1.34375 -0.515625q-0.828125 0 -1.375 0.515625q-0.546875 0.515625 -0.703125 1.546875l-1.40625 -0.25q0.265625 -1.421875 1.171875 -2.1875q0.921875 -0.78125 2.28125 -0.78125q0.9375 0 1.71875 0.40625q0.796875 0.390625 1.203125 1.09375q0.421875 0.6875 0.421875 1.46875q0 0.75 -0.40625 1.359375q-0.390625 0.609375 -1.171875 0.96875q1.015625 0.234375 1.578125 0.96875q0.5625 0.734375 0.5625 1.84375q0 1.5 -1.09375 2.546875q-1.09375 1.046875 -2.765625 1.046875q-1.5 0 -2.5 -0.890625q-1.0 -0.90625 -1.140625 -2.34375z" fill-rule="nonzero"/><path fill="#6aa84f" d="m522.8635 148.58005l37.795288 0l0 37.795288l-37.795288 0z" fill-rule="evenodd"/><path stroke="#000000" stroke-width="2.0" stroke-linejoin="round" stroke-linecap="butt" d="m522.8635 148.58005l37.795288 0l0 37.795288l-37.795288 0z" fill-rule="evenodd"/><path fill="#000000" d="m545.37445 171.97832l0 1.359375l-7.578125 0q-0.015625 -0.515625 0.171875 -0.984375q0.28125 -0.765625 0.921875 -1.515625q0.640625 -0.75 1.84375 -1.734375q1.859375 -1.53125 2.515625 -2.421875q0.65625 -0.90625 0.65625 -1.703125q0 -0.828125 -0.59375 -1.40625q-0.59375 -0.578125 -1.5625 -0.578125q-1.015625 0 -1.625 0.609375q-0.609375 0.609375 -0.609375 1.6875l-1.453125 -0.140625q0.15625 -1.625 1.125 -2.46875q0.96875 -0.84375 2.59375 -0.84375q1.65625 0 2.609375 0.921875q0.96875 0.90625 0.96875 2.25q0 0.6875 -0.28125 1.359375q-0.28125 0.65625 -0.9375 1.390625q-0.65625 0.734375 -2.171875 2.015625q-1.265625 1.0625 -1.625 1.453125q-0.359375 0.375 -0.59375 0.75l5.625 0z" fill-rule="nonzero"/><path fill="#b6d7a8" d="m220.50131 219.58005l37.795288 0l0 37.795288l-37.795288 0z" fill-rule="evenodd"/><path stroke="#000000" stroke-width="2.0" stroke-linejoin="round" stroke-linecap="butt" d="m220.50131 219.58005l37.795288 0l0 37.795288l-37.795288 0z" fill-rule="evenodd"/><path fill="#000000" d="m240.12161 244.33769l0 -2.75l-4.96875 0l0 -1.28125l5.234375 -7.421875l1.140625 0l0 7.421875l1.546875 0l0 1.28125l-1.546875 0l0 2.75l-1.40625 0zm0 -4.03125l0 -5.171875l-3.578125 5.171875l3.578125 0z" fill-rule="nonzero"/><path fill="#b6d7a8" d="m258.2966 219.58005l37.795258 0l0 37.795288l-37.795258 0z" fill-rule="evenodd"/><path stroke="#000000" stroke-width="2.0" stroke-linejoin="round" stroke-linecap="butt" d="m258.2966 219.58005l37.795258 0l0 37.795288l-37.795258 0z" fill-rule="evenodd"/><path fill="#000000" d="m273.41687 241.33769l1.46875 -0.125q0.171875 1.078125 0.765625 1.625q0.59375 0.53125 1.4375 0.53125q1.015625 0 1.71875 -0.765625q0.703125 -0.765625 0.703125 -2.03125q0 -1.203125 -0.671875 -1.890625q-0.671875 -0.703125 -1.765625 -0.703125q-0.6875 0 -1.234375 0.3125q-0.546875 0.3125 -0.859375 0.796875l-1.3125 -0.171875l1.109375 -5.875l5.6875 0l0 1.34375l-4.5625 0l-0.625 3.078125q1.03125 -0.71875 2.171875 -0.71875q1.5 0 2.53125 1.046875q1.03125 1.03125 1.03125 2.65625q0 1.5625 -0.90625 2.6875q-1.109375 1.40625 -3.015625 1.40625q-1.5625 0 -2.546875 -0.875q-0.984375 -0.890625 -1.125 -2.328125z" fill-rule="nonzero"/><path fill="#b6d7a8" d="m333.88715 219.58005l37.795258 0l0 37.795288l-37.795258 0z" fill-rule="evenodd"/><path stroke="#000000" stroke-width="2.0" stroke-linejoin="round" stroke-linecap="butt" d="m333.88715 219.58005l37.795258 0l0 37.795288l-37.795258 0z" fill-rule="evenodd"/><path fill="#000000" d="m349.1012 234.38457l0 -1.359375l7.40625 0l0 1.09375q-1.09375 1.171875 -2.171875 3.109375q-1.0625 1.921875 -1.65625 3.953125q-0.421875 1.4375 -0.53125 3.15625l-1.453125 0q0.03125 -1.359375 0.53125 -3.265625q0.515625 -1.921875 1.453125 -3.6875q0.953125 -1.78125 2.03125 -3.0l-5.609375 0z" fill-rule="nonzero"/><path fill="#b6d7a8" d="m296.09186 219.58005l37.795288 0l0 37.795288l-37.795288 0z" fill-rule="evenodd"/><path stroke="#000000" stroke-width="2.0" stroke-linejoin="round" stroke-linecap="butt" d="m296.09186 219.58005l37.795288 0l0 37.795288l-37.795288 0z" fill-rule="evenodd"/><path fill="#000000" d="m318.50903 235.68144l-1.40625 0.109375q-0.1875 -0.828125 -0.53125 -1.203125q-0.5625 -0.59375 -1.40625 -0.59375q-0.671875 0 -1.171875 0.375q-0.671875 0.484375 -1.0625 1.421875q-0.375 0.921875 -0.390625 2.640625q0.515625 -0.78125 1.25 -1.15625q0.734375 -0.375 1.53125 -0.375q1.40625 0 2.390625 1.046875q1.0 1.03125 1.0 2.671875q0 1.078125 -0.46875 2.0q-0.46875 0.921875 -1.28125 1.421875q-0.8125 0.5 -1.84375 0.5q-1.75 0 -2.859375 -1.296875q-1.109375 -1.296875 -1.109375 -4.265625q0 -3.328125 1.21875 -4.828125q1.078125 -1.3125 2.890625 -1.3125q1.34375 0 2.203125 0.765625q0.875 0.75 1.046875 2.078125zm-5.75 4.9375q0 0.734375 0.3125 1.40625q0.3125 0.65625 0.859375 1.0q0.5625 0.34375 1.171875 0.34375q0.890625 0 1.53125 -0.71875q0.640625 -0.71875 0.640625 -1.953125q0 -1.1875 -0.640625 -1.859375q-0.625 -0.6875 -1.59375 -0.6875q-0.953125 0 -1.625 0.6875q-0.65625 0.671875 -0.65625 1.78125z" fill-rule="nonzero"/><path fill="#b6d7a8" d="m409.4777 219.58005l37.795288 0l0 37.795288l-37.795288 0z" fill-rule="evenodd"/><path stroke="#000000" stroke-width="2.0" stroke-linejoin="round" stroke-linecap="butt" d="m409.4777 219.58005l37.795288 0l0 37.795288l-37.795288 0z" fill-rule="evenodd"/><path fill="#000000" d="m424.80112 241.68144l1.359375 -0.125q0.171875 0.953125 0.65625 1.390625q0.484375 0.421875 1.234375 0.421875q0.65625 0 1.140625 -0.296875q0.484375 -0.296875 0.796875 -0.78125q0.3125 -0.5 0.515625 -1.34375q0.21875 -0.84375 0.21875 -1.71875q0 -0.09375 0 -0.28125q-0.421875 0.671875 -1.15625 1.09375q-0.734375 0.40625 -1.578125 0.40625q-1.421875 0 -2.40625 -1.03125q-0.984375 -1.03125 -0.984375 -2.71875q0 -1.734375 1.015625 -2.796875q1.03125 -1.0625 2.578125 -1.0625q1.125 0 2.046875 0.609375q0.921875 0.59375 1.40625 1.703125q0.484375 1.109375 0.484375 3.21875q0 2.203125 -0.484375 3.5q-0.46875 1.296875 -1.421875 1.984375q-0.9375 0.6875 -2.203125 0.6875q-1.34375 0 -2.203125 -0.75q-0.84375 -0.75 -1.015625 -2.109375zm5.765625 -5.046875q0 -1.21875 -0.65625 -1.921875q-0.640625 -0.71875 -1.546875 -0.71875q-0.9375 0 -1.640625 0.765625q-0.6875 0.765625 -0.6875 1.984375q0 1.09375 0.65625 1.78125q0.671875 0.6875 1.640625 0.6875q0.96875 0 1.59375 -0.6875q0.640625 -0.6875 0.640625 -1.890625z" fill-rule="nonzero"/><path fill="#b6d7a8" d="m371.6824 219.58005l37.795288 0l0 37.795288l-37.795288 0z" fill-rule="evenodd"/><path stroke="#000000" stroke-width="2.0" stroke-linejoin="round" stroke-linecap="butt" d="m371.6824 219.58005l37.795288 0l0 37.795288l-37.795288 0z" fill-rule="evenodd"/><path fill="#000000" d="m388.95895 238.11894q-0.875 -0.3125 -1.296875 -0.90625q-0.421875 -0.59375 -0.421875 -1.421875q0 -1.25 0.890625 -2.09375q0.90625 -0.859375 2.40625 -0.859375q1.5 0 2.40625 0.875q0.921875 0.859375 0.921875 2.109375q0 0.796875 -0.421875 1.390625q-0.421875 0.59375 -1.265625 0.90625q1.046875 0.34375 1.59375 1.109375q0.5625 0.765625 0.5625 1.828125q0 1.46875 -1.046875 2.484375q-1.03125 1.0 -2.734375 1.0q-1.6875 0 -2.734375 -1.0q-1.03125 -1.015625 -1.03125 -2.515625q0 -1.125 0.5625 -1.875q0.5625 -0.75 1.609375 -1.03125zm-0.28125 -2.375q0 0.8125 0.515625 1.328125q0.53125 0.515625 1.375 0.515625q0.8125 0 1.328125 -0.515625q0.515625 -0.515625 0.515625 -1.25q0 -0.78125 -0.53125 -1.296875q-0.53125 -0.53125 -1.328125 -0.53125q-0.8125 0 -1.34375 0.515625q-0.53125 0.515625 -0.53125 1.234375zm-0.453125 5.28125q0 0.609375 0.28125 1.171875q0.296875 0.5625 0.859375 0.875q0.5625 0.296875 1.203125 0.296875q1.015625 0 1.671875 -0.640625q0.65625 -0.65625 0.65625 -1.65625q0 -1.015625 -0.6875 -1.671875q-0.671875 -0.671875 -1.6875 -0.671875q-0.984375 0 -1.640625 0.65625q-0.65625 0.65625 -0.65625 1.640625z" fill-rule="nonzero"/><path fill="#b6d7a8" d="m447.27298 219.58005l37.795258 0l0 37.795288l-37.795258 0z" fill-rule="evenodd"/><path stroke="#000000" stroke-width="2.0" stroke-linejoin="round" stroke-linecap="butt" d="m447.27298 219.58005l37.795258 0l0 37.795288l-37.795258 0z" fill-rule="evenodd"/><path fill="#000000" d="m463.2409 244.33769l-1.40625 0l0 -8.96875q-0.515625 0.484375 -1.34375 0.96875q-0.8125 0.484375 -1.46875 0.734375l0 -1.359375q1.171875 -0.5625 2.046875 -1.34375q0.890625 -0.796875 1.265625 -1.53125l0.90625 0l0 11.5zm3.6015625 -5.65625q0 -2.03125 0.40625 -3.265625q0.421875 -1.234375 1.25 -1.90625q0.828125 -0.671875 2.078125 -0.671875q0.921875 0 1.609375 0.375q0.703125 0.359375 1.15625 1.0625q0.453125 0.703125 0.703125 1.703125q0.265625 1.0 0.265625 2.703125q0 2.015625 -0.421875 3.265625q-0.40625 1.234375 -1.234375 1.921875q-0.828125 0.671875 -2.078125 0.671875q-1.65625 0 -2.609375 -1.203125q-1.125 -1.421875 -1.125 -4.65625zm1.4375 0q0 2.828125 0.65625 3.765625q0.671875 0.921875 1.640625 0.921875q0.96875 0 1.625 -0.9375q0.65625 -0.9375 0.65625 -3.75q0 -2.828125 -0.65625 -3.75q-0.65625 -0.9375 -1.640625 -0.9375q-0.96875 0 -1.546875 0.828125q-0.734375 1.046875 -0.734375 3.859375z" fill-rule="nonzero"/><path fill="#6aa84f" d="m485.06824 219.58005l37.795288 0l0 37.795288l-37.795288 0z" fill-rule="evenodd"/><path stroke="#000000" stroke-width="2.0" stroke-linejoin="round" stroke-linecap="butt" d="m485.06824 219.58005l37.795288 0l0 37.795288l-37.795288 0z" fill-rule="evenodd"/><path fill="#000000" d="m505.4854 244.33769l-1.40625 0l0 -8.96875q-0.515625 0.484375 -1.34375 0.96875q-0.8125 0.484375 -1.46875 0.734375l0 -1.359375q1.171875 -0.5625 2.046875 -1.34375q0.890625 -0.796875 1.265625 -1.53125l0.90625 0l0 11.5z" fill-rule="nonzero"/><path fill="#6aa84f" d="m560.6588 219.58005l37.795227 0l0 37.795288l-37.795227 0z" fill-rule="evenodd"/><path stroke="#000000" stroke-width="2.0" stroke-linejoin="round" stroke-linecap="butt" d="m560.6588 219.58005l37.795227 0l0 37.795288l-37.795227 0z" fill-rule="evenodd"/><path fill="#000000" d="m575.7791 241.30644l1.40625 -0.1875q0.25 1.203125 0.828125 1.734375q0.578125 0.515625 1.421875 0.515625q0.984375 0 1.671875 -0.6875q0.6875 -0.6875 0.6875 -1.703125q0 -0.96875 -0.640625 -1.59375q-0.625 -0.625 -1.609375 -0.625q-0.390625 0 -0.984375 0.15625l0.15625 -1.234375q0.140625 0.015625 0.21875 0.015625q0.90625 0 1.625 -0.46875q0.71875 -0.46875 0.71875 -1.453125q0 -0.765625 -0.53125 -1.265625q-0.515625 -0.515625 -1.34375 -0.515625q-0.828125 0 -1.375 0.515625q-0.546875 0.515625 -0.703125 1.546875l-1.40625 -0.25q0.265625 -1.421875 1.171875 -2.1875q0.921875 -0.78125 2.28125 -0.78125q0.9375 0 1.71875 0.40625q0.796875 0.390625 1.203125 1.09375q0.421875 0.6875 0.421875 1.46875q0 0.75 -0.40625 1.359375q-0.390625 0.609375 -1.171875 0.96875q1.015625 0.234375 1.578125 0.96875q0.5625 0.734375 0.5625 1.84375q0 1.5 -1.09375 2.546875q-1.09375 1.046875 -2.765625 1.046875q-1.5 0 -2.5 -0.890625q-1.0 -0.90625 -1.140625 -2.34375z" fill-rule="nonzero"/><path fill="#6aa84f" d="m522.8635 219.58005l37.795288 0l0 37.795288l-37.795288 0z" fill-rule="evenodd"/><path stroke="#000000" stroke-width="2.0" stroke-linejoin="round" stroke-linecap="butt" d="m522.8635 219.58005l37.795288 0l0 37.795288l-37.795288 0z" fill-rule="evenodd"/><path fill="#000000" d="m545.37445 242.97832l0 1.359375l-7.578125 0q-0.015625 -0.515625 0.171875 -0.984375q0.28125 -0.765625 0.921875 -1.515625q0.640625 -0.75 1.84375 -1.734375q1.859375 -1.53125 2.515625 -2.421875q0.65625 -0.90625 0.65625 -1.703125q0 -0.828125 -0.59375 -1.40625q-0.59375 -0.578125 -1.5625 -0.578125q-1.015625 0 -1.625 0.609375q-0.609375 0.609375 -0.609375 1.6875l-1.453125 -0.140625q0.15625 -1.625 1.125 -2.46875q0.96875 -0.84375 2.59375 -0.84375q1.65625 0 2.609375 0.921875q0.96875 0.90625 0.96875 2.25q0 0.6875 -0.28125 1.359375q-0.28125 0.65625 -0.9375 1.390625q-0.65625 0.734375 -2.171875 2.015625q-1.265625 1.0625 -1.625 1.453125q-0.359375 0.375 -0.59375 0.75l5.625 0z" fill-rule="nonzero"/></g></svg>