<svg version="1.1" viewBox="0.0 0.0 536.0 359.0" fill="none" stroke="none" stroke-linecap="square" stroke-miterlimit="10" xmlns:xlink="http://www.w3.org/1999/xlink" xmlns="http://www.w3.org/2000/svg"><clipPath id="p.0"><path d="m0 0l536.0 0l0 359.0l-536.0 0l0 -359.0z" clip-rule="nonzero"/></clipPath><g clip-path="url(#p.0)"><path fill="#000000" fill-opacity="0.0" d="m0 0l536.0 0l0 359.0l-536.0 0z" fill-rule="evenodd"/><path fill="#efefef" d="m113.51181 44.48294l37.795273 0l0 37.795273l-37.795273 0z" fill-rule="evenodd"/><path stroke="#000000" stroke-width="2.0" stroke-linejoin="round" stroke-linecap="butt" d="m113.51181 44.48294l37.795273 0l0 37.795273l-37.795273 0z" fill-rule="evenodd"/><path fill="#000000" fill-opacity="0.0" d="m340.44095 285.6168l188.50394 0l0 38.771667l-188.50394 0z" fill-rule="evenodd"/><path fill="#000000" d="m354.5347 310.13306q1.234375 0 2.078125 -0.5q0.84375 -0.5 1.265625 -1.140625l-0.890625 -0.6875q-0.390625 0.515625 -1.0 0.828125q-0.59375 0.3125 -1.375 0.3125q-0.578125 0 -1.0625 -0.21875q-0.484375 -0.21875 -0.828125 -0.59375q-0.34375 -0.359375 -0.53125 -0.828125q-0.1875 -0.46875 -0.25 -1.09375l0 -0.046875l6.046875 0l0 -0.65625q0 -0.875 -0.234375 -1.625q-0.21875 -0.765625 -0.671875 -1.328125q-0.453125 -0.5625 -1.140625 -0.875q-0.671875 -0.3125 -1.59375 -0.3125q-0.71875 0 -1.421875 0.296875q-0.6875 0.296875 -1.21875 0.84375q-0.546875 0.5625 -0.875 1.375q-0.328125 0.8125 -0.328125 1.828125l0 0.328125q0 0.890625 0.296875 1.640625q0.296875 0.75 0.828125 1.296875q0.53125 0.546875 1.265625 0.859375q0.75 0.296875 1.640625 0.296875zm-0.1875 -7.578125q0.5625 0 0.953125 0.203125q0.40625 0.203125 0.671875 0.53125q0.265625 0.328125 0.40625 0.78125q0.15625 0.4375 0.15625 0.828125l0 0.078125l-4.546875 0q0.09375 -0.59375 0.296875 -1.03125q0.21875 -0.453125 0.53125 -0.765625q0.3125 -0.3125 0.703125 -0.46875q0.390625 -0.15625 0.828125 -0.15625zm6.0546875 7.421875l1.453125 0l0 -6.0625q0.140625 -0.28125 0.34375 -0.5q0.203125 -0.234375 0.4375 -0.40625q0.28125 -0.1875 0.625 -0.296875q0.34375 -0.125 0.75 -0.125q0.453125 0 0.8125 0.109375q0.359375 0.109375 0.609375 0.359375q0.234375 0.234375 0.359375 0.625q0.125 0.390625 0.125 0.953125l0 5.34375l1.453125 0l0 -5.375q0 -0.84375 -0.21875 -1.453125q-0.203125 -0.609375 -0.578125 -1.015625q-0.390625 -0.390625 -0.9375 -0.578125q-0.53125 -0.1875 -1.203125 -0.1875q-0.484375 0 -0.9375 0.140625q-0.4375 0.140625 -0.8125 0.390625q-0.25 0.15625 -0.46875 0.390625q-0.21875 0.21875 -0.40625 0.484375l-0.109375 -1.25l-1.296875 0l0 8.453125zm9.3359375 -4.296875l0 0.15625q0 0.90625 0.234375 1.703125q0.25 0.78125 0.6875 1.359375q0.4375 0.578125 1.046875 0.90625q0.625 0.328125 1.390625 0.328125q0.78125 0 1.359375 -0.265625q0.59375 -0.265625 1.015625 -0.78125l0.0625 0.890625l1.328125 0l0 -12.0l-1.4375 0l0 4.375q-0.421875 -0.484375 -0.984375 -0.734375q-0.5625 -0.25 -1.328125 -0.25q-0.765625 0 -1.390625 0.328125q-0.625 0.3125 -1.0625 0.875q-0.453125 0.578125 -0.6875 1.375q-0.234375 0.78125 -0.234375 1.734375zm1.4375 0.15625l0 -0.15625q0 -0.625 0.125 -1.171875q0.140625 -0.5625 0.421875 -1.0q0.28125 -0.421875 0.703125 -0.671875q0.4375 -0.25 1.046875 -0.25q0.71875 0 1.1875 0.34375q0.484375 0.328125 0.765625 0.84375l0 3.921875q-0.28125 0.546875 -0.765625 0.875q-0.46875 0.328125 -1.203125 0.328125q-0.59375 0 -1.03125 -0.234375q-0.421875 -0.25 -0.703125 -0.671875q-0.28125 -0.421875 -0.421875 -0.96875q-0.125 -0.5625 -0.125 -1.1875zm9.8671875 -0.484375l0 0.078125q0 1.125 0.171875 2.109375q0.171875 0.984375 0.46875 1.8125q0.296875 0.859375 0.671875 1.546875q0.390625 0.6875 0.828125 1.234375q0.421875 0.546875 0.84375 0.921875q0.4375 0.375 0.828125 0.59375l0.3125 -0.875q-0.328125 -0.265625 -0.640625 -0.625q-0.3125 -0.359375 -0.609375 -0.828125q-0.296875 -0.5 -0.5625 -1.125q-0.265625 -0.625 -0.46875 -1.34375q-0.1875 -0.71875 -0.296875 -1.5625q-0.109375 -0.859375 -0.109375 -1.84375l0 -0.109375q0 -1.015625 0.109375 -1.890625q0.125 -0.890625 0.34375 -1.625q0.21875 -0.8125 0.546875 -1.484375q0.328125 -0.6875 0.6875 -1.203125q0.234375 -0.328125 0.484375 -0.59375q0.265625 -0.265625 0.515625 -0.453125l-0.3125 -0.953125q-0.390625 0.21875 -0.828125 0.609375q-0.421875 0.375 -0.84375 0.921875q-0.421875 0.53125 -0.8125 1.234375q-0.390625 0.6875 -0.6875 1.53125q-0.296875 0.84375 -0.46875 1.828125q-0.171875 0.984375 -0.171875 2.09375zm13.4453125 0.078125l0 -0.078125q0 -1.1875 -0.1875 -2.140625q-0.1875 -0.96875 -0.46875 -1.78125q-0.28125 -0.859375 -0.671875 -1.53125q-0.375 -0.6875 -0.8125 -1.234375q-0.421875 -0.546875 -0.859375 -0.921875q-0.4375 -0.390625 -0.828125 -0.609375l-0.3125 0.890625q0.265625 0.203125 0.53125 0.515625q0.28125 0.296875 0.53125 0.6875q0.34375 0.515625 0.65625 1.203125q0.328125 0.671875 0.546875 1.53125q0.15625 0.609375 0.28125 1.46875q0.140625 0.859375 0.140625 1.90625l0 0.109375q0 0.9375 -0.109375 1.75q-0.09375 0.8125 -0.265625 1.515625q-0.171875 0.765625 -0.453125 1.40625q-0.265625 0.640625 -0.546875 1.140625q-0.3125 0.5 -0.65625 0.875q-0.328125 0.390625 -0.65625 0.640625l0.3125 0.875q0.390625 -0.21875 0.8125 -0.59375q0.4375 -0.375 0.875 -0.921875q0.421875 -0.546875 0.796875 -1.234375q0.390625 -0.6875 0.6875 -1.546875q0.296875 -0.828125 0.46875 -1.8125q0.1875 -0.984375 0.1875 -2.109375z" fill-rule="nonzero"/><path fill="#000000" fill-opacity="0.0" d="m264.6929 5.711286l264.25198 0l0 38.771656l-264.25198 0z" fill-rule="evenodd"/><path fill="#000000" d="m282.22415 25.930662l0 -0.15625q0 -0.671875 -0.109375 -1.265625q-0.109375 -0.59375 -0.328125 -1.09375q-0.203125 -0.4375 -0.46875 -0.78125q-0.265625 -0.359375 -0.59375 -0.609375q-0.375 -0.265625 -0.84375 -0.40625q-0.453125 -0.15625 -1.0 -0.15625q-0.4375 0 -0.8125 0.09375q-0.375 0.078125 -0.6875 0.234375q-0.25 0.140625 -0.46875 0.328125q-0.21875 0.171875 -0.40625 0.40625l0 -4.453125l-1.4375 0l0 12.0l1.328125 0l0.0625 -0.96875q0.140625 0.1875 0.296875 0.34375q0.15625 0.140625 0.328125 0.265625q0.359375 0.25 0.8125 0.375q0.453125 0.140625 1.0 0.140625q0.46875 0 0.875 -0.125q0.421875 -0.109375 0.765625 -0.328125q0.46875 -0.296875 0.8125 -0.765625q0.34375 -0.46875 0.546875 -1.046875q0.15625 -0.453125 0.234375 -0.953125q0.09375 -0.515625 0.09375 -1.078125zm-1.453125 -0.15625l0 0.15625q0 0.375 -0.046875 0.734375q-0.046875 0.359375 -0.140625 0.671875q-0.125 0.421875 -0.34375 0.765625q-0.203125 0.328125 -0.515625 0.546875q-0.234375 0.171875 -0.53125 0.265625q-0.296875 0.078125 -0.65625 0.078125q-0.375 0 -0.6875 -0.09375q-0.3125 -0.09375 -0.5625 -0.28125q-0.25 -0.171875 -0.453125 -0.40625q-0.1875 -0.25 -0.328125 -0.53125l0 -3.6875q0.140625 -0.28125 0.328125 -0.515625q0.1875 -0.25 0.4375 -0.421875q0.25 -0.171875 0.5625 -0.265625q0.3125 -0.109375 0.6875 -0.109375q0.34375 0 0.625 0.078125q0.28125 0.078125 0.5 0.21875q0.328125 0.203125 0.546875 0.546875q0.234375 0.34375 0.375 0.75q0.109375 0.34375 0.15625 0.71875q0.046875 0.375 0.046875 0.78125zm7.6171875 4.453125q1.234375 0 2.078125 -0.5q0.84375 -0.5 1.265625 -1.140625l-0.890625 -0.6875q-0.390625 0.515625 -1.0 0.828125q-0.59375 0.3125 -1.375 0.3125q-0.578125 0 -1.0625 -0.21875q-0.484375 -0.21875 -0.828125 -0.59375q-0.34375 -0.359375 -0.53125 -0.828125q-0.1875 -0.46875 -0.25 -1.09375l0 -0.046875l6.046875 0l0 -0.65625q0 -0.875 -0.234375 -1.625q-0.21875 -0.765625 -0.671875 -1.328125q-0.453125 -0.5625 -1.140625 -0.875q-0.671875 -0.3125 -1.59375 -0.3125q-0.71875 0 -1.421875 0.296875q-0.6875 0.296875 -1.21875 0.84375q-0.546875 0.5625 -0.875 1.375q-0.328125 0.8125 -0.328125 1.828125l0 0.328125q0 0.890625 0.296875 1.640625q0.296875 0.75 0.828125 1.296875q0.53125 0.546875 1.265625 0.859375q0.75 0.296875 1.640625 0.296875zm-0.1875 -7.578125q0.5625 0 0.953125 0.203125q0.40625 0.203125 0.671875 0.53125q0.265625 0.328125 0.40625 0.78125q0.15625 0.4375 0.15625 0.828125l0 0.078125l-4.546875 0q0.09375 -0.59375 0.296875 -1.03125q0.21875 -0.453125 0.53125 -0.765625q0.3125 -0.3125 0.703125 -0.46875q0.390625 -0.15625 0.828125 -0.15625zm5.7890625 3.125l0 0.15625q0 0.90625 0.234375 1.703125q0.234375 0.78125 0.671875 1.359375q0.4375 0.578125 1.0625 0.90625q0.625 0.328125 1.390625 0.328125q0.46875 0 0.859375 -0.109375q0.40625 -0.09375 0.734375 -0.265625q0.203125 -0.125 0.390625 -0.28125q0.1875 -0.15625 0.34375 -0.34375l0 0.734375q0 0.546875 -0.15625 0.96875q-0.15625 0.421875 -0.4375 0.703125q-0.296875 0.296875 -0.71875 0.4374981q-0.40625 0.15625 -0.921875 0.15625q-0.296875 0 -0.59375 -0.0625q-0.28125 -0.0625 -0.5625 -0.1874981q-0.296875 -0.140625 -0.578125 -0.359375q-0.28125 -0.21875 -0.546875 -0.546875l-0.75 0.875q0.296875 0.4062481 0.6875 0.6874981q0.40625 0.28125 0.84375 0.453125q0.4375 0.171875 0.859375 0.234375q0.421875 0.078125 0.75 0.078125q0.796875 0 1.453125 -0.234375q0.65625 -0.234375 1.125 -0.6875q0.46875 -0.453125 0.734375 -1.1093731q0.265625 -0.640625 0.265625 -1.484375l0 -8.265625l-1.3125 0l-0.078125 0.921875q-0.140625 -0.1875 -0.3125 -0.34375q-0.171875 -0.15625 -0.359375 -0.28125q-0.34375 -0.21875 -0.765625 -0.328125q-0.421875 -0.125 -0.9375 -0.125q-0.78125 0 -1.40625 0.328125q-0.625 0.3125 -1.0625 0.875q-0.4375 0.578125 -0.671875 1.375q-0.234375 0.78125 -0.234375 1.734375zm1.453125 0.15625l0 -0.15625q0 -0.625 0.125 -1.171875q0.125 -0.5625 0.40625 -1.0q0.28125 -0.421875 0.703125 -0.671875q0.4375 -0.25 1.046875 -0.25q0.359375 0 0.65625 0.09375q0.296875 0.09375 0.546875 0.25q0.234375 0.15625 0.421875 0.375q0.1875 0.21875 0.328125 0.484375l0 3.875q-0.140625 0.28125 -0.328125 0.515625q-0.1875 0.21875 -0.421875 0.375q-0.234375 0.171875 -0.546875 0.265625q-0.296875 0.078125 -0.671875 0.078125q-0.59375 0 -1.03125 -0.234375q-0.421875 -0.25 -0.703125 -0.671875q-0.28125 -0.421875 -0.40625 -0.96875q-0.125 -0.5625 -0.125 -1.1875zm8.6484375 -4.3125l0 1.25l2.875 0l0 5.953125l-2.875 0l0 1.25l7.078125 0l0 -1.25l-2.765625 0l0 -7.203125l-4.3125 0zm2.6875 -2.21875q0 0.34375 0.203125 0.578125q0.21875 0.234375 0.65625 0.234375q0.4375 0 0.65625 -0.234375q0.21875 -0.234375 0.21875 -0.578125q0 -0.203125 -0.0625 -0.359375q-0.0625 -0.171875 -0.1875 -0.28125q-0.109375 -0.09375 -0.265625 -0.15625q-0.15625 -0.0625 -0.359375 -0.0625q-0.203125 0 -0.359375 0.0625q-0.15625 0.0625 -0.265625 0.15625q-0.125 0.125 -0.1875 0.296875q-0.046875 0.15625 -0.046875 0.34375zm6.6796875 10.671875l1.453125 0l0 -6.0625q0.140625 -0.28125 0.34375 -0.5q0.203125 -0.234375 0.4375 -0.40625q0.28125 -0.1875 0.625 -0.296875q0.34375 -0.125 0.75 -0.125q0.453125 0 0.8125 0.109375q0.359375 0.109375 0.609375 0.359375q0.234375 0.234375 0.359375 0.625q0.125 0.390625 0.125 0.953125l0 5.34375l1.453125 0l0 -5.375q0 -0.84375 -0.21875 -1.453125q-0.203125 -0.609375 -0.578125 -1.015625q-0.390625 -0.390625 -0.9375 -0.578125q-0.53125 -0.1875 -1.203125 -0.1875q-0.484375 0 -0.9375 0.140625q-0.4375 0.140625 -0.8125 0.390625q-0.25 0.15625 -0.46875 0.390625q-0.21875 0.21875 -0.40625 0.484375l-0.109375 -1.25l-1.296875 0l0 8.453125zm11.0390625 -4.625l0 0.078125q0 1.125 0.171875 2.109375q0.171875 0.984375 0.46875 1.8125q0.296875 0.859375 0.671875 1.546875q0.390625 0.6875 0.828125 1.2343731q0.421875 0.546875 0.84375 0.921875q0.4375 0.375 0.828125 0.59375l0.3125 -0.875q-0.328125 -0.265625 -0.640625 -0.625q-0.3125 -0.3593731 -0.609375 -0.8281231q-0.296875 -0.5 -0.5625 -1.125q-0.265625 -0.625 -0.46875 -1.34375q-0.1875 -0.71875 -0.296875 -1.5625q-0.109375 -0.859375 -0.109375 -1.84375l0 -0.109375q0 -1.015625 0.109375 -1.890625q0.125 -0.890625 0.34375 -1.625q0.21875 -0.8125 0.546875 -1.484375q0.328125 -0.6875 0.6875 -1.203125q0.234375 -0.328125 0.484375 -0.59375q0.265625 -0.265625 0.515625 -0.453125l-0.3125 -0.953125q-0.390625 0.21875 -0.828125 0.609375q-0.421875 0.375 -0.84375 0.921875q-0.421875 0.53125 -0.8125 1.234375q-0.390625 0.6875 -0.6875 1.53125q-0.296875 0.84375 -0.46875 1.828125q-0.171875 0.984375 -0.171875 2.09375zm13.4453125 0.078125l0 -0.078125q0 -1.1875 -0.1875 -2.140625q-0.1875 -0.96875 -0.46875 -1.78125q-0.28125 -0.859375 -0.671875 -1.53125q-0.375 -0.6875 -0.8125 -1.234375q-0.421875 -0.546875 -0.859375 -0.921875q-0.4375 -0.390625 -0.828125 -0.609375l-0.3125 0.890625q0.265625 0.203125 0.53125 0.515625q0.28125 0.296875 0.53125 0.6875q0.34375 0.515625 0.65625 1.203125q0.328125 0.671875 0.546875 1.53125q0.15625 0.609375 0.28125 1.46875q0.140625 0.859375 0.140625 1.90625l0 0.109375q0 0.9375 -0.109375 1.75q-0.09375 0.8125 -0.265625 1.515625q-0.171875 0.765625 -0.453125 1.40625q-0.265625 0.640625 -0.546875 1.140625q-0.3125 0.5 -0.65625 0.8749981q-0.328125 0.390625 -0.65625 0.640625l0.3125 0.875q0.390625 -0.21875 0.8125 -0.59375q0.4375 -0.375 0.875 -0.921875q0.421875 -0.5468731 0.796875 -1.2343731q0.390625 -0.6875 0.6875 -1.546875q0.296875 -0.828125 0.46875 -1.8125q0.1875 -0.984375 0.1875 -2.109375z" fill-rule="nonzero"/><path fill="#efefef" d="m189.10236 44.48294l37.795288 0l0 37.795273l-37.795288 0z" fill-rule="evenodd"/><path stroke="#000000" stroke-width="2.0" stroke-linejoin="round" stroke-linecap="butt" d="m189.10236 44.48294l37.795288 0l0 37.795273l-37.795288 0z" fill-rule="evenodd"/><path fill="#efefef" d="m151.30708 44.48294l37.795273 0l0 37.795273l-37.795273 0z" fill-rule="evenodd"/><path stroke="#000000" stroke-width="2.0" stroke-linejoin="round" stroke-linecap="butt" d="m151.30708 44.48294l37.795273 0l0 37.795273l-37.795273 0z" fill-rule="evenodd"/><path fill="#efefef" d="m226.89764 44.48294l37.795258 0l0 37.795273l-37.795258 0z" fill-rule="evenodd"/><path stroke="#000000" stroke-width="2.0" stroke-linejoin="round" stroke-linecap="butt" d="m226.89764 44.48294l37.795258 0l0 37.795273l-37.795258 0z" fill-rule="evenodd"/><path fill="#b6d7a8" d="m264.6929 44.48294l37.795288 0l0 37.795273l-37.795288 0z" fill-rule="evenodd"/><path stroke="#000000" stroke-width="2.0" stroke-linejoin="round" stroke-linecap="butt" d="m264.6929 44.48294l37.795288 0l0 37.795273l-37.795288 0z" fill-rule="evenodd"/><path fill="#b6d7a8" d="m340.28348 44.48294l37.795258 0l0 37.795273l-37.795258 0z" fill-rule="evenodd"/><path stroke="#000000" stroke-width="2.0" stroke-linejoin="round" stroke-linecap="butt" d="m340.28348 44.48294l37.795258 0l0 37.795273l-37.795258 0z" fill-rule="evenodd"/><path fill="#b6d7a8" d="m302.4882 44.48294l37.795288 0l0 37.795273l-37.795288 0z" fill-rule="evenodd"/><path stroke="#000000" stroke-width="2.0" stroke-linejoin="round" stroke-linecap="butt" d="m302.4882 44.48294l37.795288 0l0 37.795273l-37.795288 0z" fill-rule="evenodd"/><path fill="#b6d7a8" d="m415.87402 44.48294l37.795258 0l0 37.795273l-37.795258 0z" fill-rule="evenodd"/><path stroke="#000000" stroke-width="2.0" stroke-linejoin="round" stroke-linecap="butt" d="m415.87402 44.48294l37.795258 0l0 37.795273l-37.795258 0z" fill-rule="evenodd"/><path fill="#b6d7a8" d="m378.07874 44.48294l37.795288 0l0 37.795273l-37.795288 0z" fill-rule="evenodd"/><path stroke="#000000" stroke-width="2.0" stroke-linejoin="round" stroke-linecap="butt" d="m378.07874 44.48294l37.795288 0l0 37.795273l-37.795288 0z" fill-rule="evenodd"/><path fill="#b6d7a8" d="m491.46457 44.48294l37.795258 0l0 37.795273l-37.795258 0z" fill-rule="evenodd"/><path stroke="#000000" stroke-width="2.0" stroke-linejoin="round" stroke-linecap="butt" d="m491.46457 44.48294l37.795258 0l0 37.795273l-37.795258 0z" fill-rule="evenodd"/><path fill="#b6d7a8" d="m453.66928 44.48294l37.795288 0l0 37.795273l-37.795288 0z" fill-rule="evenodd"/><path stroke="#000000" stroke-width="2.0" stroke-linejoin="round" stroke-linecap="butt" d="m453.66928 44.48294l37.795288 0l0 37.795273l-37.795288 0z" fill-rule="evenodd"/><path fill="#b6d7a8" d="m113.51181 95.31759l37.795273 0l0 37.795265l-37.795273 0z" fill-rule="evenodd"/><path stroke="#000000" stroke-width="2.0" stroke-linejoin="round" stroke-linecap="butt" d="m113.51181 95.31759l37.795273 0l0 37.795265l-37.795273 0z" fill-rule="evenodd"/><path fill="#b6d7a8" d="m189.10236 95.31759l37.795288 0l0 37.795265l-37.795288 0z" fill-rule="evenodd"/><path stroke="#000000" stroke-width="2.0" stroke-linejoin="round" stroke-linecap="butt" d="m189.10236 95.31759l37.795288 0l0 37.795265l-37.795288 0z" fill-rule="evenodd"/><path fill="#b6d7a8" d="m151.30708 95.31759l37.795273 0l0 37.795265l-37.795273 0z" fill-rule="evenodd"/><path stroke="#000000" stroke-width="2.0" stroke-linejoin="round" stroke-linecap="butt" d="m151.30708 95.31759l37.795273 0l0 37.795265l-37.795273 0z" fill-rule="evenodd"/><path fill="#b6d7a8" d="m226.89764 95.31759l37.795258 0l0 37.795265l-37.795258 0z" fill-rule="evenodd"/><path stroke="#000000" stroke-width="2.0" stroke-linejoin="round" stroke-linecap="butt" d="m226.89764 95.31759l37.795258 0l0 37.795265l-37.795258 0z" fill-rule="evenodd"/><path fill="#b6d7a8" d="m264.6929 95.31759l37.795288 0l0 37.795265l-37.795288 0z" fill-rule="evenodd"/><path stroke="#000000" stroke-width="2.0" stroke-linejoin="round" stroke-linecap="butt" d="m264.6929 95.31759l37.795288 0l0 37.795265l-37.795288 0z" fill-rule="evenodd"/><path fill="#b6d7a8" d="m340.28348 95.31759l37.795258 0l0 37.795265l-37.795258 0z" fill-rule="evenodd"/><path stroke="#000000" stroke-width="2.0" stroke-linejoin="round" stroke-linecap="butt" d="m340.28348 95.31759l37.795258 0l0 37.795265l-37.795258 0z" fill-rule="evenodd"/><path fill="#b6d7a8" d="m302.4882 95.31759l37.795288 0l0 37.795265l-37.795288 0z" fill-rule="evenodd"/><path stroke="#000000" stroke-width="2.0" stroke-linejoin="round" stroke-linecap="butt" d="m302.4882 95.31759l37.795288 0l0 37.795265l-37.795288 0z" fill-rule="evenodd"/><path fill="#b6d7a8" d="m415.87402 95.31759l37.795258 0l0 37.795265l-37.795258 0z" fill-rule="evenodd"/><path stroke="#000000" stroke-width="2.0" stroke-linejoin="round" stroke-linecap="butt" d="m415.87402 95.31759l37.795258 0l0 37.795265l-37.795258 0z" fill-rule="evenodd"/><path fill="#b6d7a8" d="m378.07874 95.31759l37.795288 0l0 37.795265l-37.795288 0z" fill-rule="evenodd"/><path stroke="#000000" stroke-width="2.0" stroke-linejoin="round" stroke-linecap="butt" d="m378.07874 95.31759l37.795288 0l0 37.795265l-37.795288 0z" fill-rule="evenodd"/><path fill="#b6d7a8" d="m491.46457 95.31759l37.795258 0l0 37.795265l-37.795258 0z" fill-rule="evenodd"/><path stroke="#000000" stroke-width="2.0" stroke-linejoin="round" stroke-linecap="butt" d="m491.46457 95.31759l37.795258 0l0 37.795265l-37.795258 0z" fill-rule="evenodd"/><path fill="#b6d7a8" d="m453.66928 95.31759l37.795288 0l0 37.795265l-37.795288 0z" fill-rule="evenodd"/><path stroke="#000000" stroke-width="2.0" stroke-linejoin="round" stroke-linecap="butt" d="m453.66928 95.31759l37.795288 0l0 37.795265l-37.795288 0z" fill-rule="evenodd"/><path fill="#b6d7a8" d="m113.51181 146.15224l37.795273 0l0 37.795273l-37.795273 0z" fill-rule="evenodd"/><path stroke="#000000" stroke-width="2.0" stroke-linejoin="round" stroke-linecap="butt" d="m113.51181 146.15224l37.795273 0l0 37.795273l-37.795273 0z" fill-rule="evenodd"/><path fill="#b6d7a8" d="m189.10236 146.15224l37.795288 0l0 37.795273l-37.795288 0z" fill-rule="evenodd"/><path stroke="#000000" stroke-width="2.0" stroke-linejoin="round" stroke-linecap="butt" d="m189.10236 146.15224l37.795288 0l0 37.795273l-37.795288 0z" fill-rule="evenodd"/><path fill="#b6d7a8" d="m151.30708 146.15224l37.795273 0l0 37.795273l-37.795273 0z" fill-rule="evenodd"/><path stroke="#000000" stroke-width="2.0" stroke-linejoin="round" stroke-linecap="butt" d="m151.30708 146.15224l37.795273 0l0 37.795273l-37.795273 0z" fill-rule="evenodd"/><path fill="#b6d7a8" d="m226.89764 146.15224l37.795258 0l0 37.795273l-37.795258 0z" fill-rule="evenodd"/><path stroke="#000000" stroke-width="2.0" stroke-linejoin="round" stroke-linecap="butt" d="m226.89764 146.15224l37.795258 0l0 37.795273l-37.795258 0z" fill-rule="evenodd"/><path fill="#b6d7a8" d="m264.6929 146.15224l37.795288 0l0 37.795273l-37.795288 0z" fill-rule="evenodd"/><path stroke="#000000" stroke-width="2.0" stroke-linejoin="round" stroke-linecap="butt" d="m264.6929 146.15224l37.795288 0l0 37.795273l-37.795288 0z" fill-rule="evenodd"/><path fill="#b6d7a8" d="m340.28348 146.15224l37.795258 0l0 37.795273l-37.795258 0z" fill-rule="evenodd"/><path stroke="#000000" stroke-width="2.0" stroke-linejoin="round" stroke-linecap="butt" d="m340.28348 146.15224l37.795258 0l0 37.795273l-37.795258 0z" fill-rule="evenodd"/><path fill="#b6d7a8" d="m302.4882 146.15224l37.795288 0l0 37.795273l-37.795288 0z" fill-rule="evenodd"/><path stroke="#000000" stroke-width="2.0" stroke-linejoin="round" stroke-linecap="butt" d="m302.4882 146.15224l37.795288 0l0 37.795273l-37.795288 0z" fill-rule="evenodd"/><path fill="#b6d7a8" d="m415.87402 146.15224l37.795258 0l0 37.795273l-37.795258 0z" fill-rule="evenodd"/><path stroke="#000000" stroke-width="2.0" stroke-linejoin="round" stroke-linecap="butt" d="m415.87402 146.15224l37.795258 0l0 37.795273l-37.795258 0z" fill-rule="evenodd"/><path fill="#b6d7a8" d="m378.07874 146.15224l37.795288 0l0 37.795273l-37.795288 0z" fill-rule="evenodd"/><path stroke="#000000" stroke-width="2.0" stroke-linejoin="round" stroke-linecap="butt" d="m378.07874 146.15224l37.795288 0l0 37.795273l-37.795288 0z" fill-rule="evenodd"/><path fill="#b6d7a8" d="m491.46457 146.15224l37.795258 0l0 37.795273l-37.795258 0z" fill-rule="evenodd"/><path stroke="#000000" stroke-width="2.0" stroke-linejoin="round" stroke-linecap="butt" d="m491.46457 146.15224l37.795258 0l0 37.795273l-37.795258 0z" fill-rule="evenodd"/><path fill="#b6d7a8" d="m453.66928 146.15224l37.795288 0l0 37.795273l-37.795288 0z" fill-rule="evenodd"/><path stroke="#000000" stroke-width="2.0" stroke-linejoin="round" stroke-linecap="butt" d="m453.66928 146.15224l37.795288 0l0 37.795273l-37.795288 0z" fill-rule="evenodd"/><path fill="#b6d7a8" d="m113.51181 196.98557l37.795273 0l0 37.795273l-37.795273 0z" fill-rule="evenodd"/><path stroke="#000000" stroke-width="2.0" stroke-linejoin="round" stroke-linecap="butt" d="m113.51181 196.98557l37.795273 0l0 37.795273l-37.795273 0z" fill-rule="evenodd"/><path fill="#b6d7a8" d="m189.10236 196.98557l37.795288 0l0 37.795273l-37.795288 0z" fill-rule="evenodd"/><path stroke="#000000" stroke-width="2.0" stroke-linejoin="round" stroke-linecap="butt" d="m189.10236 196.98557l37.795288 0l0 37.795273l-37.795288 0z" fill-rule="evenodd"/><path fill="#b6d7a8" d="m151.30708 196.98557l37.795273 0l0 37.795273l-37.795273 0z" fill-rule="evenodd"/><path stroke="#000000" stroke-width="2.0" stroke-linejoin="round" stroke-linecap="butt" d="m151.30708 196.98557l37.795273 0l0 37.795273l-37.795273 0z" fill-rule="evenodd"/><path fill="#b6d7a8" d="m226.89764 196.98557l37.795258 0l0 37.795273l-37.795258 0z" fill-rule="evenodd"/><path stroke="#000000" stroke-width="2.0" stroke-linejoin="round" stroke-linecap="butt" d="m226.89764 196.98557l37.795258 0l0 37.795273l-37.795258 0z" fill-rule="evenodd"/><path fill="#b6d7a8" d="m264.6929 196.98557l37.795288 0l0 37.795273l-37.795288 0z" fill-rule="evenodd"/><path stroke="#000000" stroke-width="2.0" stroke-linejoin="round" stroke-linecap="butt" d="m264.6929 196.98557l37.795288 0l0 37.795273l-37.795288 0z" fill-rule="evenodd"/><path fill="#b6d7a8" d="m340.28348 196.98557l37.795258 0l0 37.795273l-37.795258 0z" fill-rule="evenodd"/><path stroke="#000000" stroke-width="2.0" stroke-linejoin="round" stroke-linecap="butt" d="m340.28348 196.98557l37.795258 0l0 37.795273l-37.795258 0z" fill-rule="evenodd"/><path fill="#b6d7a8" d="m302.4882 196.98557l37.795288 0l0 37.795273l-37.795288 0z" fill-rule="evenodd"/><path stroke="#000000" stroke-width="2.0" stroke-linejoin="round" stroke-linecap="butt" d="m302.4882 196.98557l37.795288 0l0 37.795273l-37.795288 0z" fill-rule="evenodd"/><path fill="#b6d7a8" d="m415.87402 196.98557l37.795258 0l0 37.795273l-37.795258 0z" fill-rule="evenodd"/><path stroke="#000000" stroke-width="2.0" stroke-linejoin="round" stroke-linecap="butt" d="m415.87402 196.98557l37.795258 0l0 37.795273l-37.795258 0z" fill-rule="evenodd"/><path fill="#b6d7a8" d="m378.07874 196.98557l37.795288 0l0 37.795273l-37.795288 0z" fill-rule="evenodd"/><path stroke="#000000" stroke-width="2.0" stroke-linejoin="round" stroke-linecap="butt" d="m378.07874 196.98557l37.795288 0l0 37.795273l-37.795288 0z" fill-rule="evenodd"/><path fill="#b6d7a8" d="m491.46457 196.98557l37.795258 0l0 37.795273l-37.795258 0z" fill-rule="evenodd"/><path stroke="#000000" stroke-width="2.0" stroke-linejoin="round" stroke-linecap="butt" d="m491.46457 196.98557l37.795258 0l0 37.795273l-37.795258 0z" fill-rule="evenodd"/><path fill="#b6d7a8" d="m453.66928 196.98557l37.795288 0l0 37.795273l-37.795288 0z" fill-rule="evenodd"/><path stroke="#000000" stroke-width="2.0" stroke-linejoin="round" stroke-linecap="butt" d="m453.66928 196.98557l37.795288 0l0 37.795273l-37.795288 0z" fill-rule="evenodd"/><path fill="#b6d7a8" d="m113.51181 247.82152l37.795273 0l0 37.795273l-37.795273 0z" fill-rule="evenodd"/><path stroke="#000000" stroke-width="2.0" stroke-linejoin="round" stroke-linecap="butt" d="m113.51181 247.82152l37.795273 0l0 37.795273l-37.795273 0z" fill-rule="evenodd"/><path fill="#b6d7a8" d="m189.10236 247.82152l37.795288 0l0 37.795273l-37.795288 0z" fill-rule="evenodd"/><path stroke="#000000" stroke-width="2.0" stroke-linejoin="round" stroke-linecap="butt" d="m189.10236 247.82152l37.795288 0l0 37.795273l-37.795288 0z" fill-rule="evenodd"/><path fill="#b6d7a8" d="m151.30708 247.82152l37.795273 0l0 37.795273l-37.795273 0z" fill-rule="evenodd"/><path stroke="#000000" stroke-width="2.0" stroke-linejoin="round" stroke-linecap="butt" d="m151.30708 247.82152l37.795273 0l0 37.795273l-37.795273 0z" fill-rule="evenodd"/><path fill="#b6d7a8" d="m226.89764 247.82152l37.795258 0l0 37.795273l-37.795258 0z" fill-rule="evenodd"/><path stroke="#000000" stroke-width="2.0" stroke-linejoin="round" stroke-linecap="butt" d="m226.89764 247.82152l37.795258 0l0 37.795273l-37.795258 0z" fill-rule="evenodd"/><path fill="#b6d7a8" d="m264.6929 247.82152l37.795288 0l0 37.795273l-37.795288 0z" fill-rule="evenodd"/><path stroke="#000000" stroke-width="2.0" stroke-linejoin="round" stroke-linecap="butt" d="m264.6929 247.82152l37.795288 0l0 37.795273l-37.795288 0z" fill-rule="evenodd"/><path fill="#efefef" d="m340.28348 247.82152l37.795258 0l0 37.795273l-37.795258 0z" fill-rule="evenodd"/><path stroke="#000000" stroke-width="2.0" stroke-linejoin="round" stroke-linecap="butt" d="m340.28348 247.82152l37.795258 0l0 37.795273l-37.795258 0z" fill-rule="evenodd"/><path fill="#b6d7a8" d="m302.4882 247.82152l37.795288 0l0 37.795273l-37.795288 0z" fill-rule="evenodd"/><path stroke="#000000" stroke-width="2.0" stroke-linejoin="round" stroke-linecap="butt" d="m302.4882 247.82152l37.795288 0l0 37.795273l-37.795288 0z" fill-rule="evenodd"/><path fill="#efefef" d="m415.87402 247.82152l37.795258 0l0 37.795273l-37.795258 0z" fill-rule="evenodd"/><path stroke="#000000" stroke-width="2.0" stroke-linejoin="round" stroke-linecap="butt" d="m415.87402 247.82152l37.795258 0l0 37.795273l-37.795258 0z" fill-rule="evenodd"/><path fill="#efefef" d="m378.07874 247.82152l37.795288 0l0 37.795273l-37.795288 0z" fill-rule="evenodd"/><path stroke="#000000" stroke-width="2.0" stroke-linejoin="round" stroke-linecap="butt" d="m378.07874 247.82152l37.795288 0l0 37.795273l-37.795288 0z" fill-rule="evenodd"/><path fill="#efefef" d="m491.46457 247.82152l37.795258 0l0 37.795273l-37.795258 0z" fill-rule="evenodd"/><path stroke="#000000" stroke-width="2.0" stroke-linejoin="round" stroke-linecap="butt" d="m491.46457 247.82152l37.795258 0l0 37.795273l-37.795258 0z" fill-rule="evenodd"/><path fill="#efefef" d="m453.66928 247.82152l37.795288 0l0 37.795273l-37.795288 0z" fill-rule="evenodd"/><path stroke="#000000" stroke-width="2.0" stroke-linejoin="round" stroke-linecap="butt" d="m453.66928 247.82152l37.795288 0l0 37.795273l-37.795288 0z" fill-rule="evenodd"/><path fill="#ffffff" d="m43.2021 8.010499l0 37.795277l-37.795273 0l0 -37.795277z" fill-rule="evenodd"/><path stroke="#000000" stroke-width="2.0" stroke-linejoin="round" stroke-linecap="butt" d="m43.2021 8.010499l0 37.795277l-37.795273 0l0 -37.795277z" fill-rule="evenodd"/><path fill="#ffffff" d="m43.2021 83.60105l0 37.795273l-37.795273 0l0 -37.795273z" fill-rule="evenodd"/><path stroke="#000000" stroke-width="2.0" stroke-linejoin="round" stroke-linecap="butt" d="m43.2021 83.60105l0 37.795273l-37.795273 0l0 -37.795273z" fill-rule="evenodd"/><path fill="#ffffff" d="m43.2021 45.805775l0 37.795277l-37.795273 0l0 -37.795277z" fill-rule="evenodd"/><path stroke="#000000" stroke-width="2.0" stroke-linejoin="round" stroke-linecap="butt" d="m43.2021 45.805775l0 37.795277l-37.795273 0l0 -37.795277z" fill-rule="evenodd"/><path fill="#ffffff" d="m43.2021 121.396324l0 37.79528l-37.795273 0l0 -37.79528z" fill-rule="evenodd"/><path stroke="#000000" stroke-width="2.0" stroke-linejoin="round" stroke-linecap="butt" d="m43.2021 121.396324l0 37.79528l-37.795273 0l0 -37.79528z" fill-rule="evenodd"/><path fill="#ffffff" d="m43.2021 159.1916l0 37.795273l-37.795273 0l0 -37.795273z" fill-rule="evenodd"/><path stroke="#000000" stroke-width="2.0" stroke-linejoin="round" stroke-linecap="butt" d="m43.2021 159.1916l0 37.795273l-37.795273 0l0 -37.795273z" fill-rule="evenodd"/><path fill="#ffffff" d="m43.2021 234.78215l0 37.795273l-37.795273 0l0 -37.795273z" fill-rule="evenodd"/><path stroke="#000000" stroke-width="2.0" stroke-linejoin="round" stroke-linecap="butt" d="m43.2021 234.78215l0 37.795273l-37.795273 0l0 -37.795273z" fill-rule="evenodd"/><path fill="#ffffff" d="m43.2021 196.98688l0 37.795273l-37.795273 0l0 -37.795273z" fill-rule="evenodd"/><path stroke="#000000" stroke-width="2.0" stroke-linejoin="round" stroke-linecap="butt" d="m43.2021 196.98688l0 37.795273l-37.795273 0l0 -37.795273z" fill-rule="evenodd"/><path fill="#ffffff" d="m43.2021 310.3727l0 37.795258l-37.795273 0l0 -37.795258z" fill-rule="evenodd"/><path stroke="#000000" stroke-width="2.0" stroke-linejoin="round" stroke-linecap="butt" d="m43.2021 310.3727l0 37.795258l-37.795273 0l0 -37.795258z" fill-rule="evenodd"/><path fill="#ffffff" d="m43.2021 272.57742l0 37.795288l-37.795273 0l0 -37.795288z" fill-rule="evenodd"/><path stroke="#000000" stroke-width="2.0" stroke-linejoin="round" stroke-linecap="butt" d="m43.2021 272.57742l0 37.795288l-37.795273 0l0 -37.795288z" fill-rule="evenodd"/><path fill="#000000" fill-opacity="0.0" d="m43.2021 102.49869l70.29921 -39.11811" fill-rule="evenodd"/><path stroke="#000000" stroke-width="2.0" stroke-linejoin="round" stroke-linecap="butt" d="m43.2021 102.49869l59.81332 -33.28322" fill-rule="evenodd"/><path fill="#000000" stroke="#000000" stroke-width="2.0" stroke-linecap="butt" d="m104.6217 72.10212l6.3247223 -7.2998657l-9.537285 1.5265656z" fill-rule="evenodd"/><path fill="#000000" fill-opacity="0.0" d="m43.2021 178.08923l70.29921 -13.039368" fill-rule="evenodd"/><path stroke="#000000" stroke-width="2.0" stroke-linejoin="round" stroke-linecap="butt" d="m43.2021 178.08923l58.50046 -10.850891" fill-rule="evenodd"/><path fill="#000000" stroke="#000000" stroke-width="2.0" stroke-linecap="butt" d="m102.30502 170.4864l8.321518 -4.903305l-9.5264435 -1.5928192z" fill-rule="evenodd"/><path fill="#000000" fill-opacity="0.0" d="m43.2021 140.29396l70.29921 -26.078735" fill-rule="evenodd"/><path stroke="#000000" stroke-width="2.0" stroke-linejoin="round" stroke-linecap="butt" d="m43.2021 140.29396l59.048428 -21.90506" fill-rule="evenodd"/><path fill="#000000" stroke="#000000" stroke-width="2.0" stroke-linecap="butt" d="m103.39948 121.48612l7.360573 -6.2539825l-9.658508 0.059547424z" fill-rule="evenodd"/><path fill="#000000" fill-opacity="0.0" d="m43.2021 253.6798l70.29921 13.039352" fill-rule="evenodd"/><path stroke="#000000" stroke-width="2.0" stroke-linejoin="round" stroke-linecap="butt" d="m43.2021 253.6798l58.50046 10.850876" fill-rule="evenodd"/><path fill="#000000" stroke="#000000" stroke-width="2.0" stroke-linecap="butt" d="m101.1001 267.77875l9.5264435 -1.592804l-8.321518 -4.9033203z" fill-rule="evenodd"/><path fill="#000000" fill-opacity="0.0" d="m43.2021 215.88452l70.29921 0" fill-rule="evenodd"/><path stroke="#000000" stroke-width="2.0" stroke-linejoin="round" stroke-linecap="butt" d="m43.2021 215.88452l58.299213 0" fill-rule="evenodd"/><path fill="#000000" stroke="#000000" stroke-width="2.0" stroke-linecap="butt" d="m101.50131 219.18797l9.076195 -3.3034515l-9.076195 -3.3034668z" fill-rule="evenodd"/></g></svg>