<svg version="1.1" viewBox="0.0 0.0 456.0 211.0" fill="none" stroke="none" stroke-linecap="square" stroke-miterlimit="10" xmlns:xlink="http://www.w3.org/1999/xlink" xmlns="http://www.w3.org/2000/svg"><clipPath id="p.0"><path d="m0 0l456.0 0l0 211.0l-456.0 0l0 -211.0z" clip-rule="nonzero"/></clipPath><g clip-path="url(#p.0)"><path fill="#000000" fill-opacity="0.0" d="m0 0l456.0 0l0 211.0l-456.0 0z" fill-rule="evenodd"/><path fill="#000000" fill-opacity="0.0" d="m377.25723 74.585304l84.85037 0l0 38.771652l-84.85037 0z" fill-rule="evenodd"/><path fill="#000000" d="m394.75723 98.945305l0 -11.375l-1.375 0l0 4.890625l-4.65625 0l0 -4.890625l-1.359375 0l0 11.375l1.359375 0l0 -5.265625l4.65625 0l0 5.265625l1.375 0zm6.1953125 0.15625q1.234375 0 2.078125 -0.5q0.84375 -0.5 1.265625 -1.140625l-0.890625 -0.6875q-0.390625 0.515625 -1.0 0.828125q-0.59375 0.3125 -1.375 0.3125q-0.578125 0 -1.0625 -0.21875q-0.484375 -0.21875 -0.828125 -0.59375q-0.34375 -0.359375 -0.53125 -0.828125q-0.1875 -0.46875 -0.25 -1.09375l0 -0.046875l6.046875 0l0 -0.65625q0 -0.875 -0.234375 -1.625q-0.21875 -0.765625 -0.671875 -1.328125q-0.453125 -0.5625 -1.140625 -0.875q-0.671875 -0.3125 -1.59375 -0.3125q-0.71875 0 -1.421875 0.296875q-0.6875 0.296875 -1.21875 0.84375q-0.546875 0.5625 -0.875 1.375q-0.328125 0.8125 -0.328125 1.828125l0 0.328125q0 0.890625 0.296875 1.640625q0.296875 0.75 0.828125 1.296875q0.53125 0.546875 1.265625 0.859375q0.75 0.296875 1.640625 0.296875zm-0.1875 -7.578125q0.5625 0 0.953125 0.203125q0.40625 0.203125 0.671875 0.53125q0.265625 0.328125 0.40625 0.78125q0.15625 0.4375 0.15625 0.828125l0 0.078125l-4.546875 0q0.09375 -0.59375 0.296875 -1.03125q0.21875 -0.453125 0.53125 -0.765625q0.3125 -0.3125 0.703125 -0.46875q0.390625 -0.15625 0.828125 -0.15625zm6.2890625 -1.03125l0 1.25l2.875 0l0 5.953125l-2.875 0l0 1.25l7.078125 0l0 -1.25l-2.765625 0l0 -7.203125l-4.3125 0zm2.6875 -2.21875q0 0.34375 0.203125 0.578125q0.21875 0.234375 0.65625 0.234375q0.4375 0 0.65625 -0.234375q0.21875 -0.234375 0.21875 -0.578125q0 -0.203125 -0.0625 -0.359375q-0.0625 -0.171875 -0.1875 -0.28125q-0.109375 -0.09375 -0.265625 -0.15625q-0.15625 -0.0625 -0.359375 -0.0625q-0.203125 0 -0.359375 0.0625q-0.15625 0.0625 -0.265625 0.15625q-0.125 0.125 -0.1875 0.296875q-0.046875 0.15625 -0.046875 0.34375zm6.4140625 6.375l0 0.15625q0 0.90625 0.234375 1.703125q0.234375 0.78125 0.671875 1.359375q0.4375 0.578125 1.0625 0.90625q0.625 0.328125 1.390625 0.328125q0.46875 0 0.859375 -0.109375q0.40625 -0.09375 0.734375 -0.265625q0.203125 -0.125 0.390625 -0.28125q0.1875 -0.15625 0.34375 -0.34375l0 0.734375q0 0.546875 -0.15625 0.96875q-0.15625 0.421875 -0.4375 0.703125q-0.296875 0.296875 -0.71875 0.4375q-0.40625 0.15625 -0.921875 0.15625q-0.296875 0 -0.59375 -0.0625q-0.28125 -0.0625 -0.5625 -0.1875q-0.296875 -0.140625 -0.578125 -0.359375q-0.28125 -0.21875 -0.546875 -0.546875l-0.75 0.875q0.296875 0.40625 0.6875 0.6875q0.40625 0.28125 0.84375 0.453125q0.4375 0.171875 0.859375 0.234375q0.421875 0.078125 0.75 0.078125q0.796875 0 1.453125 -0.234375q0.65625 -0.234375 1.125 -0.6875q0.46875 -0.453125 0.734375 -1.109375q0.265625 -0.640625 0.265625 -1.484375l0 -8.265625l-1.3125 0l-0.078125 0.921875q-0.140625 -0.1875 -0.3125 -0.34375q-0.171875 -0.15625 -0.359375 -0.28125q-0.34375 -0.21875 -0.765625 -0.328125q-0.421875 -0.125 -0.9375 -0.125q-0.78125 0 -1.40625 0.328125q-0.625 0.3125 -1.0625 0.875q-0.4375 0.578125 -0.671875 1.375q-0.234375 0.78125 -0.234375 1.734375zm1.453125 0.15625l0 -0.15625q0 -0.625 0.125 -1.171875q0.125 -0.5625 0.40625 -1.0q0.28125 -0.421875 0.703125 -0.671875q0.4375 -0.25 1.046875 -0.25q0.359375 0 0.65625 0.09375q0.296875 0.09375 0.546875 0.25q0.234375 0.15625 0.421875 0.375q0.1875 0.21875 0.328125 0.484375l0 3.875q-0.140625 0.28125 -0.328125 0.515625q-0.1875 0.21875 -0.421875 0.375q-0.234375 0.171875 -0.546875 0.265625q-0.296875 0.078125 -0.671875 0.078125q-0.59375 0 -1.03125 -0.234375q-0.421875 -0.25 -0.703125 -0.671875q-0.28125 -0.421875 -0.40625 -0.96875q-0.125 -0.5625 -0.125 -1.1875zm9.8671875 -3.0625l0 -4.796875l-1.453125 0l0 12.0l1.453125 0l0 -6.140625q0.15625 -0.25 0.34375 -0.453125q0.203125 -0.21875 0.4375 -0.375q0.296875 -0.203125 0.640625 -0.3125q0.359375 -0.109375 0.75 -0.109375q0.484375 0 0.84375 0.140625q0.375 0.125 0.609375 0.40625q0.234375 0.25 0.34375 0.625q0.125 0.375 0.125 0.875l0 5.34375l1.4375 0l0 -5.328125q0 -0.84375 -0.203125 -1.46875q-0.203125 -0.625 -0.59375 -1.03125q-0.375 -0.40625 -0.921875 -0.59375q-0.546875 -0.1875 -1.203125 -0.1875q-0.515625 0 -0.96875 0.140625q-0.4375 0.140625 -0.8125 0.421875q-0.234375 0.15625 -0.453125 0.375q-0.203125 0.21875 -0.375 0.46875zm11.5703125 -3.296875l-1.453125 0l0 2.046875l-2.21875 0l0 1.109375l2.21875 0l0 4.59375q0 0.78125 0.203125 1.34375q0.21875 0.546875 0.578125 0.890625q0.359375 0.34375 0.84375 0.515625q0.484375 0.15625 1.046875 0.15625q0.34375 0 0.671875 -0.03125q0.34375 -0.03125 0.65625 -0.09375q0.296875 -0.0625 0.546875 -0.140625q0.265625 -0.078125 0.453125 -0.1875l-0.203125 -1.03125q-0.140625 0.03125 -0.34375 0.078125q-0.203125 0.046875 -0.4375 0.078125q-0.25 0.046875 -0.5 0.078125q-0.25 0.015625 -0.484375 0.015625q-0.3125 0 -0.609375 -0.078125q-0.28125 -0.078125 -0.5 -0.265625q-0.21875 -0.1875 -0.34375 -0.5q-0.125 -0.328125 -0.125 -0.828125l0 -4.59375l3.21875 0l0 -1.109375l-3.21875 0l0 -2.046875z" fill-rule="nonzero"/><path fill="#b6d7a8" d="m156.85826 7.485564l37.795288 0l0 37.795273l-37.795288 0z" fill-rule="evenodd"/><path stroke="#000000" stroke-width="2.0" stroke-linejoin="round" stroke-linecap="butt" d="m156.85826 7.485564l37.795288 0l0 37.795273l-37.795288 0z" fill-rule="evenodd"/><path fill="#b6d7a8" d="m232.44882 83.07612l37.795258 0l0 37.795273l-37.795258 0z" fill-rule="evenodd"/><path stroke="#000000" stroke-width="2.0" stroke-linejoin="round" stroke-linecap="butt" d="m232.44882 83.07612l37.795258 0l0 37.795273l-37.795258 0z" fill-rule="evenodd"/><path fill="#b6d7a8" d="m81.267715 83.07612l37.79528 0l0 37.795273l-37.79528 0z" fill-rule="evenodd"/><path stroke="#000000" stroke-width="2.0" stroke-linejoin="round" stroke-linecap="butt" d="m81.267715 83.07612l37.79528 0l0 37.795273l-37.79528 0z" fill-rule="evenodd"/><path fill="#b6d7a8" d="m5.6771655 158.66667l37.795277 0l0 37.795273l-37.795277 0z" fill-rule="evenodd"/><path stroke="#000000" stroke-width="2.0" stroke-linejoin="round" stroke-linecap="butt" d="m5.6771655 158.66667l37.795277 0l0 37.795273l-37.795277 0z" fill-rule="evenodd"/><path fill="#b6d7a8" d="m308.03937 158.66667l37.795288 0l0 37.795273l-37.795288 0z" fill-rule="evenodd"/><path stroke="#000000" stroke-width="2.0" stroke-linejoin="round" stroke-linecap="butt" d="m308.03937 158.66667l37.795288 0l0 37.795273l-37.795288 0z" fill-rule="evenodd"/><path fill="#b6d7a8" d="m156.85826 158.66667l37.795288 0l0 37.795273l-37.795288 0z" fill-rule="evenodd"/><path stroke="#000000" stroke-width="2.0" stroke-linejoin="round" stroke-linecap="butt" d="m156.85826 158.66667l37.795288 0l0 37.795273l-37.795288 0z" fill-rule="evenodd"/><path fill="#000000" fill-opacity="0.0" d="m156.0 45.501312l-36.503937 37.007874" fill-rule="evenodd"/><path stroke="#000000" stroke-width="2.0" stroke-linejoin="round" stroke-linecap="butt" d="m147.57307 54.044563l-19.650093 19.921371" fill-rule="evenodd"/><path fill="#000000" stroke="#000000" stroke-width="2.0" stroke-linecap="butt" d="m149.92494 56.364395l4.0218353 -8.781517l-8.725555 4.1418495z" fill-rule="evenodd"/><path fill="#000000" stroke="#000000" stroke-width="2.0" stroke-linecap="butt" d="m125.57112 71.6461l-4.0218353 8.781517l8.725555 -4.1418457z" fill-rule="evenodd"/><path fill="#000000" fill-opacity="0.0" d="m231.66142 82.25722l-37.007874 -36.503937" fill-rule="evenodd"/><path stroke="#000000" stroke-width="2.0" stroke-linejoin="round" stroke-linecap="butt" d="m223.11818 73.83031l-19.921387 -19.650112" fill-rule="evenodd"/><path fill="#000000" stroke="#000000" stroke-width="2.0" stroke-linecap="butt" d="m220.79834 76.18216l8.781509 4.0218353l-4.1418457 -8.725555z" fill-rule="evenodd"/><path fill="#000000" stroke="#000000" stroke-width="2.0" stroke-linecap="butt" d="m205.51663 51.828335l-8.781525 -4.0218315l4.1418457 8.725552z" fill-rule="evenodd"/><path fill="#000000" fill-opacity="0.0" d="m79.97638 120.87139l-36.503937 37.00788" fill-rule="evenodd"/><path stroke="#000000" stroke-width="2.0" stroke-linejoin="round" stroke-linecap="butt" d="m71.54946 129.41464l-19.650105 19.921371" fill-rule="evenodd"/><path fill="#000000" stroke="#000000" stroke-width="2.0" stroke-linecap="butt" d="m73.90132 131.73448l4.0218353 -8.781525l-8.725555 4.1418457z" fill-rule="evenodd"/><path fill="#000000" stroke="#000000" stroke-width="2.0" stroke-linecap="butt" d="m49.547497 147.01617l-4.0218353 8.781525l8.725555 -4.1418457z" fill-rule="evenodd"/><path fill="#000000" fill-opacity="0.0" d="m307.25198 158.66667l-37.007904 -36.503944" fill-rule="evenodd"/><path stroke="#000000" stroke-width="2.0" stroke-linejoin="round" stroke-linecap="butt" d="m298.7087 150.23975l-19.921356 -19.6501" fill-rule="evenodd"/><path fill="#000000" stroke="#000000" stroke-width="2.0" stroke-linecap="butt" d="m296.3889 152.59161l8.781525 4.0218353l-4.1418457 -8.725555z" fill-rule="evenodd"/><path fill="#000000" stroke="#000000" stroke-width="2.0" stroke-linecap="butt" d="m281.10718 128.23778l-8.781525 -4.0218277l4.1418457 8.725548z" fill-rule="evenodd"/><path fill="#000000" fill-opacity="0.0" d="m231.40945 121.91076l-36.503937 37.00788" fill-rule="evenodd"/><path stroke="#000000" stroke-width="2.0" stroke-linejoin="round" stroke-linecap="butt" d="m222.98253 130.45401l-19.6501 19.921387" fill-rule="evenodd"/><path fill="#000000" stroke="#000000" stroke-width="2.0" stroke-linecap="butt" d="m225.3344 132.77385l4.0218353 -8.781525l-8.725555 4.1418457z" fill-rule="evenodd"/><path fill="#000000" stroke="#000000" stroke-width="2.0" stroke-linecap="butt" d="m200.98056 148.05556l-4.02182 8.781509l8.72554 -4.1418457z" fill-rule="evenodd"/><path fill="#000000" fill-opacity="0.0" d="m377.25723 7.485564l0 188.97638" fill-rule="evenodd"/><path stroke="#000000" stroke-width="2.0" stroke-linejoin="round" stroke-linecap="butt" d="m377.25723 19.485565l0 164.97638" fill-rule="evenodd"/><path fill="#000000" stroke="#000000" stroke-width="2.0" stroke-linecap="butt" d="m380.56067 19.485563l-3.3034363 -9.076195l-3.3034668 9.076195z" fill-rule="evenodd"/><path fill="#000000" stroke="#000000" stroke-width="2.0" stroke-linecap="butt" d="m373.95377 184.46194l3.3034668 9.076187l3.3034363 -9.076187z" fill-rule="evenodd"/></g></svg>