<svg version="1.1" viewBox="0.0 0.0 381.750656167979 207.0" fill="none" stroke="none" stroke-linecap="square" stroke-miterlimit="10" xmlns:xlink="http://www.w3.org/1999/xlink" xmlns="http://www.w3.org/2000/svg"><clipPath id="p.0"><path d="m0 0l381.75067 0l0 207.0l-381.75067 0l0 -207.0z" clip-rule="nonzero"/></clipPath><g clip-path="url(#p.0)"><path fill="#000000" fill-opacity="0.0" d="m0 0l381.75067 0l0 207.0l-381.75067 0z" fill-rule="evenodd"/><path fill="#b6d7a8" d="m113.291336 117.00787l37.795273 0l0 37.795273l-37.795273 0z" fill-rule="evenodd"/><path stroke="#000000" stroke-width="2.0" stroke-linejoin="round" stroke-linecap="butt" d="m113.291336 117.00787l37.795273 0l0 37.795273l-37.795273 0z" fill-rule="evenodd"/><path fill="#000000" fill-opacity="0.0" d="m113.44882 173.95276l264.25195 0l0 30.708664l-264.25195 0z" fill-rule="evenodd"/><path fill="#000000" d="m238.64484 190.24088q0 0.265625 -0.125 0.46875q-0.109375 0.203125 -0.296875 0.328125q-0.1875 0.125 -0.4375 0.1875q-0.234375 0.0625 -0.484375 0.0625q-0.296875 0 -0.5625 -0.078125q-0.265625 -0.09375 -0.46875 -0.265625q-0.203125 -0.15625 -0.328125 -0.390625q-0.125 -0.25 -0.171875 -0.546875l-0.859375 0q0.015625 0.421875 0.1875 0.78125q0.1875 0.34375 0.484375 0.59375q0.34375 0.296875 0.796875 0.46875q0.453125 0.15625 0.921875 0.15625q0.40625 0 0.796875 -0.109375q0.40625 -0.109375 0.71875 -0.34375q0.3125 -0.21875 0.5 -0.546875q0.203125 -0.328125 0.203125 -0.78125q0 -0.4375 -0.1875 -0.765625q-0.1875 -0.34375 -0.484375 -0.578125q-0.296875 -0.25 -0.671875 -0.40625q-0.359375 -0.171875 -0.734375 -0.28125q-0.21875 -0.078125 -0.484375 -0.15625q-0.25 -0.09375 -0.453125 -0.234375q-0.21875 -0.140625 -0.375 -0.328125q-0.140625 -0.203125 -0.140625 -0.484375q0 -0.265625 0.109375 -0.46875q0.109375 -0.203125 0.296875 -0.34375q0.171875 -0.125 0.390625 -0.1875q0.234375 -0.078125 0.484375 -0.078125q0.296875 0 0.53125 0.09375q0.25 0.09375 0.421875 0.265625q0.171875 0.15625 0.265625 0.390625q0.109375 0.234375 0.15625 0.53125l0.859375 0q-0.015625 -0.453125 -0.203125 -0.828125q-0.1875 -0.375 -0.484375 -0.625q-0.3125 -0.265625 -0.71875 -0.40625q-0.390625 -0.140625 -0.828125 -0.140625q-0.390625 0 -0.78125 0.125q-0.390625 0.109375 -0.6875 0.34375q-0.3125 0.234375 -0.5 0.578125q-0.1875 0.328125 -0.1875 0.75q0 0.4375 0.1875 0.75q0.1875 0.3125 0.484375 0.546875q0.296875 0.234375 0.65625 0.40625q0.375 0.15625 0.71875 0.265625q0.25 0.078125 0.5 0.171875q0.265625 0.09375 0.484375 0.234375q0.21875 0.140625 0.359375 0.359375q0.140625 0.203125 0.140625 0.515625zm2.2540436 -3.25l0 0.734375l1.6718903 0l0 3.453125l-1.6718903 0l0 0.734375l4.1250153 0l0 -0.734375l-1.609375 0l0 -4.1875l-2.5156403 0zm1.5625153 -1.296875q0 0.203125 0.125 0.34375q0.125 0.125 0.390625 0.125q0.25 0 0.375 -0.125q0.125 -0.140625 0.125 -0.34375q0 -0.109375 -0.03125 -0.203125q-0.03125 -0.109375 -0.109375 -0.171875q-0.0625 -0.0625 -0.15625 -0.09375q-0.09375 -0.03125 -0.203125 -0.03125q-0.125 0 -0.21875 0.03125q-0.09375 0.03125 -0.15625 0.09375q-0.0625 0.078125 -0.109375 0.171875q-0.03125 0.09375 -0.03125 0.203125zm4.9102783 5.53125l2.984375 -3.640625l0 -0.59375l-4.015625 0l0 0.6875l2.90625 0l-2.9375 3.609375l0 0.625l4.203125 0l0 -0.6875l-3.140625 0zm6.769684 0.78125q0.71875 0 1.203125 -0.28125q0.5 -0.296875 0.75 -0.671875l-0.515625 -0.40625q-0.234375 0.296875 -0.59375 0.484375q-0.34375 0.1875 -0.796875 0.1875q-0.34375 0 -0.625 -0.125q-0.28125 -0.140625 -0.484375 -0.359375q-0.1875 -0.203125 -0.3125 -0.46875q-0.109375 -0.28125 -0.140625 -0.640625l0 -0.03125l3.53125 0l0 -0.375q0 -0.515625 -0.140625 -0.953125q-0.125 -0.453125 -0.390625 -0.78125q-0.265625 -0.328125 -0.671875 -0.5q-0.390625 -0.1875 -0.921875 -0.1875q-0.421875 0 -0.828125 0.171875q-0.40625 0.171875 -0.71875 0.5q-0.3125 0.328125 -0.515625 0.796875q-0.1875 0.46875 -0.1875 1.0625l0 0.1875q0 0.515625 0.171875 0.953125q0.1875 0.4375 0.484375 0.765625q0.3125 0.3125 0.75 0.5q0.4375 0.171875 0.953125 0.171875zm-0.109375 -4.421875q0.328125 0 0.5625 0.125q0.234375 0.109375 0.390625 0.296875q0.15625 0.203125 0.234375 0.46875q0.09375 0.25 0.09375 0.484375l0 0.03125l-2.65625 0q0.046875 -0.328125 0.171875 -0.59375q0.125 -0.265625 0.3125 -0.453125q0.1875 -0.171875 0.40625 -0.265625q0.234375 -0.09375 0.484375 -0.09375z" fill-rule="nonzero"/><path fill="#b6d7a8" d="m188.8819 117.00787l37.795273 0l0 37.795273l-37.795273 0z" fill-rule="evenodd"/><path stroke="#000000" stroke-width="2.0" stroke-linejoin="round" stroke-linecap="butt" d="m188.8819 117.00787l37.795273 0l0 37.795273l-37.795273 0z" fill-rule="evenodd"/><path fill="#b6d7a8" d="m151.08661 117.00787l37.795288 0l0 37.795273l-37.795288 0z" fill-rule="evenodd"/><path stroke="#000000" stroke-width="2.0" stroke-linejoin="round" stroke-linecap="butt" d="m151.08661 117.00787l37.795288 0l0 37.795273l-37.795288 0z" fill-rule="evenodd"/><path fill="#b6d7a8" d="m226.67717 117.00787l37.795273 0l0 37.795273l-37.795273 0z" fill-rule="evenodd"/><path stroke="#000000" stroke-width="2.0" stroke-linejoin="round" stroke-linecap="butt" d="m226.67717 117.00787l37.795273 0l0 37.795273l-37.795273 0z" fill-rule="evenodd"/><path fill="#b6d7a8" d="m264.47244 117.00787l37.795288 0l0 37.795273l-37.795288 0z" fill-rule="evenodd"/><path stroke="#000000" stroke-width="2.0" stroke-linejoin="round" stroke-linecap="butt" d="m264.47244 117.00787l37.795288 0l0 37.795273l-37.795288 0z" fill-rule="evenodd"/><path fill="#b6d7a8" d="m340.063 117.00787l37.795288 0l0 37.795273l-37.795288 0z" fill-rule="evenodd"/><path stroke="#000000" stroke-width="2.0" stroke-linejoin="round" stroke-linecap="butt" d="m340.063 117.00787l37.795288 0l0 37.795273l-37.795288 0z" fill-rule="evenodd"/><path fill="#b6d7a8" d="m302.26773 117.00787l37.795258 0l0 37.795273l-37.795258 0z" fill-rule="evenodd"/><path stroke="#000000" stroke-width="2.0" stroke-linejoin="round" stroke-linecap="butt" d="m302.26773 117.00787l37.795258 0l0 37.795273l-37.795258 0z" fill-rule="evenodd"/><path fill="#000000" fill-opacity="0.0" d="m113.44882 173.95276l264.25195 0.37794495" fill-rule="evenodd"/><path stroke="#000000" stroke-width="2.0" stroke-linejoin="round" stroke-linecap="butt" d="m120.302986 173.96255l250.54364 0.35835266" fill-rule="evenodd"/><path fill="#000000" stroke="#000000" stroke-width="2.0" stroke-linecap="butt" d="m120.302986 173.96255l2.2523804 -2.2459412l-6.182747 2.240326l6.1763153 2.2579956z" fill-rule="evenodd"/><path fill="#000000" stroke="#000000" stroke-width="2.0" stroke-linecap="butt" d="m370.84662 174.3209l-2.2523804 2.2459412l6.1827393 -2.240326l-6.1763 -2.2579956z" fill-rule="evenodd"/><path fill="#b6d7a8" d="m113.291336 2.792651l37.795273 0l0 37.795273l-37.795273 0z" fill-rule="evenodd"/><path stroke="#000000" stroke-width="2.0" stroke-linejoin="round" stroke-linecap="butt" d="m113.291336 2.792651l37.795273 0l0 37.795273l-37.795273 0z" fill-rule="evenodd"/><path fill="#b6d7a8" d="m151.08661 2.792651l37.795288 0l0 37.795273l-37.795288 0z" fill-rule="evenodd"/><path stroke="#000000" stroke-width="2.0" stroke-linejoin="round" stroke-linecap="butt" d="m151.08661 2.792651l37.795288 0l0 37.795273l-37.795288 0z" fill-rule="evenodd"/><path fill="#000000" d="m161.33305 23.00966l0.828125 -0.078125q0.0625 0.5 0.28125 0.828125q0.21875 0.3125 0.671875 0.515625q0.453125 0.203125 1.015625 0.203125q0.515625 0 0.890625 -0.15625q0.390625 -0.15625 0.578125 -0.40625q0.1875 -0.265625 0.1875 -0.578125q0 -0.3125 -0.1875 -0.546875q-0.171875 -0.234375 -0.59375 -0.390625q-0.265625 -0.109375 -1.1875 -0.328125q-0.921875 -0.21875 -1.28125 -0.421875q-0.484375 -0.25 -0.71875 -0.609375q-0.234375 -0.375 -0.234375 -0.84375q0 -0.5 0.28125 -0.9375q0.296875 -0.4375 0.84375 -0.671875q0.546875 -0.234375 1.234375 -0.234375q0.734375 0 1.296875 0.25q0.578125 0.234375 0.875 0.703125q0.3125 0.453125 0.328125 1.046875l-0.84375 0.0625q-0.0625 -0.625 -0.46875 -0.953125q-0.390625 -0.328125 -1.15625 -0.328125q-0.796875 0 -1.171875 0.296875q-0.359375 0.296875 -0.359375 0.703125q0 0.359375 0.25 0.59375q0.265625 0.234375 1.328125 0.484375q1.078125 0.234375 1.484375 0.421875q0.578125 0.265625 0.859375 0.6875q0.28125 0.40625 0.28125 0.9375q0 0.53125 -0.3125 1.015625q-0.296875 0.46875 -0.875 0.734375q-0.5625 0.25 -1.28125 0.25q-0.90625 0 -1.515625 -0.265625q-0.609375 -0.265625 -0.96875 -0.78125q-0.34375 -0.53125 -0.359375 -1.203125zm6.4249115 -3.59375l0 -0.9375l0.8125 0l0 0.9375l-0.8125 0zm0 5.734375l0 -4.84375l0.8125 0l0 4.84375l-0.8125 0zm1.6349182 0l0 -0.671875l3.078125 -3.53125q-0.53125 0.03125 -0.921875 0.03125l-1.984375 0l0 -0.671875l3.953125 0l0 0.546875l-2.609375 3.078125l-0.515625 0.546875q0.5625 -0.03125 1.046875 -0.03125l2.234375 0l0 0.703125l-4.28125 0zm8.3984375 -1.5625l0.84375 0.109375q-0.1875 0.75 -0.734375 1.15625q-0.546875 0.40625 -1.390625 0.40625q-1.0625 0 -1.6875 -0.65625q-0.609375 -0.65625 -0.609375 -1.828125q0 -1.21875 0.625 -1.890625q0.625 -0.6875 1.625 -0.6875q0.984375 0 1.59375 0.671875q0.609375 0.65625 0.609375 1.859375q0 0.0625 0 0.21875l-3.609375 0q0.046875 0.796875 0.453125 1.21875q0.40625 0.421875 1.015625 0.421875q0.453125 0 0.765625 -0.234375q0.3125 -0.234375 0.5 -0.765625zm-2.6875 -1.328125l2.703125 0q-0.0625 -0.609375 -0.3125 -0.90625q-0.390625 -0.46875 -1.015625 -0.46875q-0.5625 0 -0.953125 0.375q-0.375 0.375 -0.421875 1.0z" fill-rule="nonzero"/><path fill="#000000" fill-opacity="0.0" d="m134.00262 18.498688l0 49.259842l-20.0 0l0 49.259842" fill-rule="evenodd"/><path stroke="#000000" stroke-width="2.0" stroke-linejoin="round" stroke-linecap="butt" d="m134.00262 26.078686l0 41.679844l-20.0 0l0 37.259842" fill-rule="evenodd"/><path fill="#000000" stroke="#000000" stroke-width="2.0" stroke-linecap="butt" d="m130.71263 26.078688l0 -6.58l6.5799866 0l0 6.58l-6.5799866 0z" fill-rule="nonzero"/><path fill="#000000" stroke="#000000" stroke-width="2.0" stroke-linecap="butt" d="m110.69916 105.01837l3.3034668 9.076195l3.3034668 -9.076195z" fill-rule="evenodd"/><path fill="#000000" fill-opacity="0.0" d="m2.488189 5.0288715l110.80315 0l0 35.55905l-110.80315 0z" fill-rule="evenodd"/><path fill="#000000" d="m17.30069 24.95387q0 0.171875 -0.0625 0.328125q-0.0625 0.140625 -0.1875 0.265625q-0.203125 0.203125 -0.5625 0.328125q-0.359375 0.109375 -0.84375095 0.109375q-0.296875 0 -0.609375 -0.0625q-0.3125 -0.0625 -0.578125 -0.21875q-0.25 -0.15625 -0.421875 -0.40625q-0.171875 -0.265625 -0.203125 -0.640625l-1.203125 0q0 0.453125 0.203125 0.875q0.203125 0.40625 0.59375 0.71875q0.390625 0.328125 0.9375 0.515625q0.5625 0.1875 1.28125 0.1875q0.62500095 0 1.156251 -0.140625q0.53125 -0.15625 0.90625 -0.421875q0.375 -0.28125 0.578125 -0.65625q0.21875 -0.390625 0.21875 -0.859375q0 -0.4375 -0.1875 -0.765625q-0.1875 -0.328125 -0.53125 -0.59375q-0.359375 -0.234375 -0.875 -0.40625q-0.515625 -0.1875 -1.156251 -0.328125q-0.5 -0.09375 -0.828125 -0.203125q-0.3125 -0.109375 -0.5 -0.234375q-0.203125 -0.125 -0.28125 -0.28125q-0.078125 -0.171875 -0.078125 -0.375q0 -0.203125 0.09375 -0.390625q0.109375 -0.203125 0.296875 -0.34375q0.1875 -0.140625 0.46875 -0.21875q0.296875 -0.09375 0.6875 -0.09375q0.375 0 0.67187595 0.109375q0.296875 0.109375 0.5 0.265625q0.203125 0.171875 0.3125 0.390625q0.125 0.21875 0.125 0.453125l1.203125 0q0 -0.46875 -0.203125 -0.859375q-0.1875 -0.40625 -0.546875 -0.703125q-0.375 -0.296875 -0.890625 -0.46875q-0.515625 -0.171875 -1.171876 -0.171875q-0.609375 0 -1.109375 0.171875q-0.5 0.15625 -0.875 0.4375q-0.359375 0.28125 -0.5625 0.65625q-0.203125 0.375 -0.203125 0.796875q0 0.4375 0.1875 0.765625q0.203125 0.328125 0.5625 0.5625q0.359375 0.25 0.84375 0.4375q0.5 0.171875 1.109375 0.296875q0.50000095 0.09375 0.82812595 0.21875q0.328125 0.109375 0.53125 0.25q0.203125 0.15625 0.28125 0.328125q0.09375 0.171875 0.09375 0.375zm6.170059 -6.875l-1.21875 0l0 1.703125l-1.84375 0l0 0.9375l1.84375 0l0 3.828125q0 0.640625 0.171875 1.109375q0.1875 0.453125 0.484375 0.75q0.296875 0.28125 0.703125 0.421875q0.40625 0.125 0.875 0.125q0.28125 0 0.5625 -0.03125q0.28125 -0.015625 0.53125 -0.0625q0.265625 -0.046875 0.46875 -0.109375q0.21875 -0.078125 0.375 -0.171875l-0.171875 -0.84375q-0.109375 0.015625 -0.28125 0.0625q-0.171875 0.03125 -0.375 0.0625q-0.203125 0.03125 -0.40625 0.0625q-0.203125 0.015625 -0.40625 0.015625q-0.265625 0 -0.5 -0.0625q-0.234375 -0.0625 -0.421875 -0.234375q-0.1875 -0.15625 -0.296875 -0.421875q-0.09375 -0.265625 -0.09375 -0.671875l0 -3.828125l2.6875 0l0 -0.9375l-2.6875 0l0 -1.703125zm4.920059 5.171875l0 0.140625q0 0.75 0.203125 1.40625q0.203125 0.65625 0.5625 1.140625q0.359375 0.46875 0.875 0.75q0.53125 0.265625 1.15625 0.265625q0.65625 0 1.140625 -0.21875q0.5 -0.21875 0.84375 -0.640625l0.046875 0.734375l1.109375 0l0 -10.0l-1.203125 0l0 3.65625q-0.34375 -0.40625 -0.8125 -0.609375q-0.46875 -0.21875 -1.109375 -0.21875q-0.640625 0 -1.171875 0.265625q-0.515625 0.265625 -0.875 0.75q-0.375 0.46875 -0.578125 1.140625q-0.1875 0.65625 -0.1875 1.4375zm1.203125 0.140625l0 -0.140625q0 -0.515625 0.109375 -0.984375q0.109375 -0.46875 0.34375 -0.8125q0.234375 -0.359375 0.59375 -0.5625q0.359375 -0.21875 0.859375 -0.21875q0.59375 0 0.984375 0.28125q0.40625 0.28125 0.640625 0.703125l0 3.265625q-0.234375 0.46875 -0.640625 0.75q-0.390625 0.265625 -0.984375 0.265625q-0.515625 0 -0.875 -0.203125q-0.34375 -0.203125 -0.578125 -0.5625q-0.234375 -0.34375 -0.34375 -0.796875q-0.109375 -0.46875 -0.109375 -0.984375zm9.451309 2.65625q0 0.375 0.234375 0.640625q0.234375 0.265625 0.703125 0.265625q0.46875 0 0.703125 -0.25q0.25 -0.265625 0.25 -0.65625q0 -0.390625 -0.25 -0.65625q-0.234375 -0.28125 -0.703125 -0.28125q-0.46875 0 -0.703125 0.28125q-0.234375 0.265625 -0.234375 0.65625zm0 -5.703125q0 0.375 0.234375 0.640625q0.234375 0.265625 0.703125 0.265625q0.46875 0 0.703125 -0.25q0.25 -0.265625 0.25 -0.65625q0 -0.390625 -0.25 -0.65625q-0.234375 -0.28125 -0.703125 -0.28125q-0.46875 0 -0.703125 0.28125q-0.234375 0.265625 -0.234375 0.65625zm7.998184 5.703125q0 0.375 0.234375 0.640625q0.234375 0.265625 0.703125 0.265625q0.46875 0 0.703125 -0.25q0.25 -0.265625 0.25 -0.65625q0 -0.390625 -0.25 -0.65625q-0.234375 -0.28125 -0.703125 -0.28125q-0.46875 0 -0.703125 0.28125q-0.234375 0.265625 -0.234375 0.65625zm0 -5.703125q0 0.375 0.234375 0.640625q0.234375 0.265625 0.703125 0.265625q0.46875 0 0.703125 -0.25q0.25 -0.265625 0.25 -0.65625q0 -0.390625 -0.25 -0.65625q-0.234375 -0.28125 -0.703125 -0.28125q-0.46875 0 -0.703125 0.28125q-0.234375 0.265625 -0.234375 0.65625zm10.248184 4.609375q0 0.171875 -0.0625 0.328125q-0.0625 0.140625 -0.1875 0.265625q-0.203125 0.203125 -0.5625 0.328125q-0.359375 0.109375 -0.84375 0.109375q-0.296875 0 -0.609375 -0.0625q-0.3125 -0.0625 -0.578125 -0.21875q-0.25 -0.15625 -0.421875 -0.40625q-0.171875 -0.265625 -0.203125 -0.640625l-1.203125 0q0 0.453125 0.203125 0.875q0.203125 0.40625 0.59375 0.71875q0.390625 0.328125 0.9375 0.515625q0.5625 0.1875 1.28125 0.1875q0.625 0 1.15625 -0.140625q0.53125 -0.15625 0.90625 -0.421875q0.375 -0.28125 0.578125 -0.65625q0.21875 -0.390625 0.21875 -0.859375q0 -0.4375 -0.1875 -0.765625q-0.1875 -0.328125 -0.53125 -0.59375q-0.359375 -0.234375 -0.875 -0.40625q-0.515625 -0.1875 -1.15625 -0.328125q-0.5 -0.09375 -0.828125 -0.203125q-0.3125 -0.109375 -0.5 -0.234375q-0.203125 -0.125 -0.28125 -0.28125q-0.078125 -0.171875 -0.078125 -0.375q0 -0.203125 0.09375 -0.390625q0.109375 -0.203125 0.296875 -0.34375q0.1875 -0.140625 0.46875 -0.21875q0.296875 -0.09375 0.6875 -0.09375q0.375 0 0.671875 0.109375q0.296875 0.109375 0.5 0.265625q0.203125 0.171875 0.3125 0.390625q0.125 0.21875 0.125 0.453125l1.203125 0q0 -0.46875 -0.203125 -0.859375q-0.1875 -0.40625 -0.546875 -0.703125q-0.375 -0.296875 -0.890625 -0.46875q-0.515625 -0.171875 -1.171875 -0.171875q-0.609375 0 -1.109375 0.171875q-0.5 0.15625 -0.875 0.4375q-0.359375 0.28125 -0.5625 0.65625q-0.203125 0.375 -0.203125 0.796875q0 0.4375 0.1875 0.765625q0.203125 0.328125 0.5625 0.5625q0.359375 0.25 0.84375 0.4375q0.5 0.171875 1.109375 0.296875q0.5 0.09375 0.828125 0.21875q0.328125 0.109375 0.53125 0.25q0.203125 0.15625 0.28125 0.328125q0.09375 0.171875 0.09375 0.375zm3.3106842 4.578125l1.203125 0l0 -3.375q0.125 0.140625 0.28125 0.265625q0.15625 0.109375 0.3125 0.21875q0.28125 0.15625 0.625 0.234375q0.359375 0.078125 0.765625 0.078125q0.65625 0 1.171875 -0.265625q0.515625 -0.28125 0.875 -0.75q0.34375 -0.484375 0.53125 -1.140625q0.1875 -0.65625 0.1875 -1.40625l0 -0.140625q0 -0.78125 -0.1875 -1.4375q-0.1875 -0.671875 -0.53125 -1.140625q-0.359375 -0.484375 -0.875 -0.75q-0.515625 -0.265625 -1.203125 -0.265625q-0.375 0 -0.71875 0.078125q-0.328125 0.078125 -0.59375 0.234375q-0.203125 0.109375 -0.375 0.265625q-0.171875 0.140625 -0.3125 0.3125l-0.0625 -0.765625l-1.09375 0l0 9.75zm4.75 -6.28125l0 0.140625q0 0.515625 -0.125 0.984375q-0.109375 0.46875 -0.34375 0.8125q-0.234375 0.359375 -0.609375 0.578125q-0.359375 0.203125 -0.859375 0.203125q-0.3125 0 -0.5625 -0.078125q-0.25 -0.078125 -0.46875 -0.203125q-0.171875 -0.125 -0.328125 -0.28125q-0.140625 -0.171875 -0.25 -0.375l0 -3.390625q0.125 -0.21875 0.28125 -0.390625q0.171875 -0.1875 0.375 -0.3125q0.1875 -0.125 0.421875 -0.1875q0.25 -0.078125 0.53125 -0.078125q0.5 0 0.859375 0.21875q0.375 0.203125 0.609375 0.5625q0.234375 0.34375 0.34375 0.8125q0.125 0.46875 0.125 0.984375zm7.888809 3.578125l1.25 0l0 -0.109375q-0.125 -0.28125 -0.1875 -0.671875q-0.0625 -0.40625 -0.0625 -0.75l0 -3.28125q0 -0.59375 -0.21875 -1.03125q-0.203125 -0.4375 -0.578125 -0.75q-0.375 -0.28125 -0.890625 -0.421875q-0.515625 -0.15625 -1.109375 -0.15625q-0.65625 0 -1.1875 0.1875q-0.515625 0.171875 -0.875 0.46875q-0.359375 0.296875 -0.546875 0.671875q-0.1875 0.375 -0.203125 0.75l1.21875 0q0 -0.21875 0.09375 -0.421875q0.109375 -0.203125 0.3125 -0.359375q0.1875 -0.140625 0.46875 -0.234375q0.296875 -0.09375 0.640625 -0.09375q0.390625 0 0.703125 0.109375q0.3125 0.09375 0.515625 0.265625q0.21875 0.171875 0.328125 0.4375q0.125 0.25 0.125 0.5625l0 0.5625l-1.3125 0q-0.734375 0 -1.328125 0.140625q-0.59375 0.140625 -1.015625 0.421875q-0.421875 0.296875 -0.65625 0.734375q-0.234375 0.4375 -0.234375 1.015625q0 0.4375 0.171875 0.828125q0.171875 0.375 0.484375 0.65625q0.3125 0.28125 0.765625 0.4375q0.453125 0.15625 1.015625 0.15625q0.34375 0 0.640625 -0.078125q0.3125 -0.0625 0.59375 -0.1875q0.265625 -0.125 0.484375 -0.28125q0.234375 -0.15625 0.40625 -0.34375q0.03125 0.21875 0.0625 0.421875q0.046875 0.203125 0.125 0.34375zm-2.140625 -0.921875q-0.34375 0 -0.609375 -0.078125q-0.265625 -0.09375 -0.4375 -0.265625q-0.1875 -0.15625 -0.28125 -0.375q-0.078125 -0.21875 -0.078125 -0.484375q0 -0.265625 0.09375 -0.484375q0.109375 -0.21875 0.296875 -0.375q0.28125 -0.21875 0.734375 -0.328125q0.46875 -0.109375 1.09375 -0.109375l1.125 0l0 1.4375q-0.109375 0.203125 -0.296875 0.390625q-0.171875 0.1875 -0.421875 0.34375q-0.25 0.15625 -0.5625 0.25q-0.296875 0.078125 -0.65625 0.078125zm5.498184 0.921875l1.21875 0l0 -5.046875q0.109375 -0.234375 0.28125 -0.421875q0.171875 -0.1875 0.359375 -0.328125q0.25 -0.171875 0.53125 -0.265625q0.28125 -0.09375 0.609375 -0.09375q0.390625 0 0.6875 0.09375q0.296875 0.09375 0.5 0.296875q0.203125 0.203125 0.3125 0.53125q0.109375 0.328125 0.109375 0.796875l0 4.4375l1.203125 0l0 -4.46875q0 -0.703125 -0.171875 -1.21875q-0.171875 -0.515625 -0.5 -0.84375q-0.3125 -0.328125 -0.765625 -0.484375q-0.453125 -0.15625 -1.015625 -0.15625q-0.40625 0 -0.78125 0.125q-0.359375 0.109375 -0.671875 0.3125q-0.203125 0.140625 -0.390625 0.328125q-0.1875 0.1875 -0.34375 0.40625l-0.078125 -1.046875l-1.09375 0l0 7.046875z" fill-rule="nonzero"/><path fill="#000000" fill-opacity="0.0" d="m2.5013123 118.125984l110.80315 0l0 35.55906l-110.80315 0z" fill-rule="evenodd"/><path fill="#000000" d="m17.313812 138.05098q0 0.171875 -0.0625 0.328125q-0.0625 0.140625 -0.1875 0.265625q-0.203125 0.203125 -0.5625 0.328125q-0.359375 0.109375 -0.84375 0.109375q-0.296875 0 -0.609375 -0.0625q-0.3125 -0.0625 -0.578125 -0.21875q-0.25 -0.15625 -0.421875 -0.40625q-0.171875 -0.265625 -0.203125 -0.640625l-1.203125 0q0 0.453125 0.203125 0.875q0.203125 0.40625 0.59375 0.71875q0.390625 0.328125 0.9375 0.515625q0.5625 0.1875 1.28125 0.1875q0.625 0 1.15625 -0.140625q0.53125 -0.15625 0.90625 -0.421875q0.375 -0.28125 0.578125 -0.65625q0.21875 -0.390625 0.21875 -0.859375q0 -0.4375 -0.1875 -0.765625q-0.1875 -0.328125 -0.53125 -0.59375q-0.359375 -0.234375 -0.875 -0.40625q-0.515625 -0.1875 -1.15625 -0.328125q-0.5 -0.09375 -0.828125 -0.203125q-0.3125 -0.109375 -0.5 -0.234375q-0.203125 -0.125 -0.28125 -0.28125q-0.078125 -0.171875 -0.078125 -0.375q0 -0.203125 0.09375 -0.390625q0.109375 -0.203125 0.296875 -0.34375q0.1875 -0.140625 0.46875 -0.21875q0.296875 -0.09375 0.6875 -0.09375q0.375 0 0.671875 0.109375q0.296875 0.109375 0.5 0.265625q0.203125 0.171875 0.3125 0.390625q0.125 0.21875 0.125 0.453125l1.203125 0q0 -0.46875 -0.203125 -0.859375q-0.1875 -0.40625 -0.546875 -0.703125q-0.375 -0.296875 -0.890625 -0.46875q-0.515625 -0.171875 -1.171875 -0.171875q-0.609375 0 -1.109375 0.171875q-0.5 0.15625 -0.875 0.4375q-0.359375 0.28125 -0.5625 0.65625q-0.203125 0.375 -0.203125 0.796875q0 0.4375 0.1875 0.765625q0.203125 0.328125 0.5625 0.5625q0.359375 0.25 0.84375 0.4375q0.5 0.171875 1.109375 0.296875q0.5 0.09375 0.828125 0.21875q0.328125 0.109375 0.53125 0.25q0.203125 0.15625 0.28125 0.328125q0.09375 0.171875 0.09375 0.375zm6.170059 -6.875l-1.21875 0l0 1.703125l-1.84375 0l0 0.9375l1.84375 0l0 3.828125q0 0.640625 0.171875 1.109375q0.1875 0.453125 0.484375 0.75q0.296875 0.28125 0.703125 0.421875q0.40625 0.125 0.875 0.125q0.28125 0 0.5625 -0.03125q0.28125 -0.015625 0.53125 -0.0625q0.265625 -0.046875 0.46875 -0.109375q0.21875 -0.078125 0.375 -0.171875l-0.171875 -0.84375q-0.109375 0.015625 -0.28125 0.0625q-0.171875 0.03125 -0.375 0.0625q-0.203125 0.03125 -0.40625 0.0625q-0.203125 0.015625 -0.40625 0.015625q-0.265625 0 -0.5 -0.0625q-0.234375 -0.0625 -0.421875 -0.234375q-0.1875 -0.15625 -0.296875 -0.421875q-0.09375 -0.265625 -0.09375 -0.671875l0 -3.828125l2.6875 0l0 -0.9375l-2.6875 0l0 -1.703125zm4.920059 5.171875l0 0.140625q0 0.75 0.203125 1.40625q0.203125 0.65625 0.5625 1.140625q0.359375 0.46875 0.875 0.75q0.53125 0.265625 1.15625 0.265625q0.65625 0 1.140625 -0.21875q0.5 -0.21875 0.84375 -0.640625l0.046875 0.734375l1.109375 0l0 -10.0l-1.203125 0l0 3.65625q-0.34375 -0.40625 -0.8125 -0.609375q-0.46875 -0.21875 -1.109375 -0.21875q-0.640625 0 -1.171875 0.265625q-0.515625 0.265625 -0.875 0.75q-0.375 0.46875 -0.578125 1.140625q-0.1875 0.65625 -0.1875 1.4375zm1.203125 0.140625l0 -0.140625q0 -0.515625 0.109375 -0.984375q0.109375 -0.46875 0.34375 -0.8125q0.234375 -0.359375 0.59375 -0.5625q0.359375 -0.21875 0.859375 -0.21875q0.59375 0 0.984375 0.28125q0.40625 0.28125 0.640625 0.703125l0 3.265625q-0.234375 0.46875 -0.640625 0.75q-0.390625 0.265625 -0.984375 0.265625q-0.515625 0 -0.875 -0.203125q-0.34375 -0.203125 -0.578125 -0.5625q-0.234375 -0.34375 -0.34375 -0.796875q-0.109375 -0.46875 -0.109375 -0.984375zm9.451309 2.65625q0 0.375 0.234375 0.640625q0.234375 0.265625 0.703125 0.265625q0.46875 0 0.703125 -0.25q0.25 -0.265625 0.25 -0.65625q0 -0.390625 -0.25 -0.65625q-0.234375 -0.28125 -0.703125 -0.28125q-0.46875 0 -0.703125 0.28125q-0.234375 0.265625 -0.234375 0.65625zm0 -5.703125q0 0.375 0.234375 0.640625q0.234375 0.265625 0.703125 0.265625q0.46875 0 0.703125 -0.25q0.25 -0.265625 0.25 -0.65625q0 -0.390625 -0.25 -0.65625q-0.234375 -0.28125 -0.703125 -0.28125q-0.46875 0 -0.703125 0.28125q-0.234375 0.265625 -0.234375 0.65625zm7.998184 5.703125q0 0.375 0.234375 0.640625q0.234375 0.265625 0.703125 0.265625q0.46875 0 0.703125 -0.25q0.25 -0.265625 0.25 -0.65625q0 -0.390625 -0.25 -0.65625q-0.234375 -0.28125 -0.703125 -0.28125q-0.46875 0 -0.703125 0.28125q-0.234375 0.265625 -0.234375 0.65625zm0 -5.703125q0 0.375 0.234375 0.640625q0.234375 0.265625 0.703125 0.265625q0.46875 0 0.703125 -0.25q0.25 -0.265625 0.25 -0.65625q0 -0.390625 -0.25 -0.65625q-0.234375 -0.28125 -0.703125 -0.28125q-0.46875 0 -0.703125 0.28125q-0.234375 0.265625 -0.234375 0.65625zm7.966934 6.484375l0.921875 0l2.875 -7.046875l-1.234375 0l-1.96875 5.3125l-0.125 0.4375l-0.109375 -0.4375l-2.015625 -5.3125l-1.234375 0l2.890625 7.046875zm8.716934 0.125q1.015625 0 1.71875 -0.40625q0.703125 -0.421875 1.046875 -0.953125l-0.734375 -0.5625q-0.328125 0.421875 -0.828125 0.6875q-0.5 0.25 -1.140625 0.25q-0.5 0 -0.90625 -0.171875q-0.390625 -0.1875 -0.671875 -0.5q-0.28125 -0.296875 -0.453125 -0.6875q-0.15625 -0.390625 -0.203125 -0.90625l0 -0.046875l5.03125 0l0 -0.546875q0 -0.734375 -0.1875 -1.359375q-0.1875 -0.640625 -0.5625 -1.109375q-0.375 -0.453125 -0.953125 -0.71875q-0.5625 -0.265625 -1.3125 -0.265625q-0.609375 0 -1.1875 0.25q-0.578125 0.25 -1.03125 0.703125q-0.453125 0.46875 -0.734375 1.140625q-0.265625 0.671875 -0.265625 1.53125l0 0.265625q0 0.75 0.25 1.375q0.25 0.625 0.6875 1.078125q0.453125 0.453125 1.0625 0.703125q0.625 0.25 1.375 0.25zm-0.15625 -6.3125q0.453125 0 0.78125 0.171875q0.34375 0.171875 0.5625 0.4375q0.21875 0.28125 0.34375 0.65625q0.125 0.375 0.125 0.703125l0 0.046875l-3.78125 0q0.0625 -0.484375 0.234375 -0.859375q0.1875 -0.375 0.453125 -0.625q0.265625 -0.265625 0.578125 -0.390625q0.328125 -0.140625 0.703125 -0.140625zm8.029434 5.34375q-0.5625 0 -0.9375 -0.21875q-0.375 -0.234375 -0.609375 -0.59375q-0.234375 -0.359375 -0.34375 -0.8125q-0.09375 -0.453125 -0.09375 -0.921875l0 -0.265625q0 -0.453125 0.09375 -0.90625q0.109375 -0.453125 0.34375 -0.8125q0.234375 -0.359375 0.609375 -0.578125q0.390625 -0.234375 0.9375 -0.234375q0.375 0 0.6875 0.125q0.3125 0.125 0.546875 0.34375q0.21875 0.21875 0.34375 0.5q0.140625 0.28125 0.15625 0.59375l1.140625 0q0 -0.53125 -0.21875 -1.0q-0.21875 -0.46875 -0.59375 -0.8125q-0.375 -0.34375 -0.90625 -0.53125q-0.53125 -0.203125 -1.15625 -0.203125q-0.796875 0 -1.390625 0.296875q-0.59375 0.28125 -1.0 0.75q-0.40625 0.5 -0.609375 1.140625q-0.1875 0.625 -0.1875 1.328125l0 0.265625q0 0.703125 0.1875 1.34375q0.203125 0.640625 0.609375 1.109375q0.40625 0.5 1.0 0.78125q0.59375 0.28125 1.390625 0.28125q0.5625 0 1.078125 -0.1875q0.515625 -0.1875 0.921875 -0.515625q0.390625 -0.3125 0.625 -0.734375q0.234375 -0.4375 0.25 -0.90625l-1.140625 0q-0.015625 0.296875 -0.15625 0.546875q-0.140625 0.25 -0.390625 0.421875q-0.234375 0.203125 -0.546875 0.3125q-0.3125 0.09375 -0.640625 0.09375zm7.857559 -7.90625l-1.21875 0l0 1.703125l-1.84375 0l0 0.9375l1.84375 0l0 3.828125q0 0.640625 0.171875 1.109375q0.1875 0.453125 0.484375 0.75q0.296875 0.28125 0.703125 0.421875q0.40625 0.125 0.875 0.125q0.28125 0 0.5625 -0.03125q0.28125 -0.015625 0.53125 -0.0625q0.265625 -0.046875 0.46875 -0.109375q0.21875 -0.078125 0.375 -0.171875l-0.171875 -0.84375q-0.109375 0.015625 -0.28125 0.0625q-0.171875 0.03125 -0.375 0.0625q-0.203125 0.03125 -0.40625 0.0625q-0.203125 0.015625 -0.40625 0.015625q-0.265625 0 -0.5 -0.0625q-0.234375 -0.0625 -0.421875 -0.234375q-0.1875 -0.15625 -0.296875 -0.421875q-0.09375 -0.265625 -0.09375 -0.671875l0 -3.828125l2.6875 0l0 -0.9375l-2.6875 0l0 -1.703125zm4.810684 5.171875l0 0.140625q0 0.75 0.21875 1.40625q0.21875 0.65625 0.640625 1.140625q0.40625 0.46875 1.0 0.75q0.59375 0.265625 1.34375 0.265625q0.75 0 1.328125 -0.265625q0.59375 -0.28125 1.015625 -0.75q0.40625 -0.484375 0.625 -1.140625q0.234375 -0.65625 0.234375 -1.40625l0 -0.140625q0 -0.765625 -0.234375 -1.421875q-0.21875 -0.65625 -0.625 -1.140625q-0.421875 -0.484375 -1.015625 -0.75q-0.59375 -0.28125 -1.34375 -0.28125q-0.734375 0 -1.328125 0.28125q-0.59375 0.265625 -1.0 0.75q-0.421875 0.484375 -0.640625 1.140625q-0.21875 0.65625 -0.21875 1.421875zm1.203125 0.140625l0 -0.140625q0 -0.515625 0.125 -0.984375q0.125 -0.484375 0.375 -0.84375q0.25 -0.359375 0.609375 -0.5625q0.375 -0.21875 0.875 -0.21875q0.5 0 0.875 0.21875q0.375 0.203125 0.640625 0.5625q0.234375 0.359375 0.359375 0.84375q0.140625 0.46875 0.140625 0.984375l0 0.140625q0 0.515625 -0.125 0.984375q-0.125 0.46875 -0.375 0.828125q-0.25 0.359375 -0.625 0.578125q-0.375 0.203125 -0.875 0.203125q-0.5 0 -0.875 -0.203125q-0.375 -0.21875 -0.625 -0.578125q-0.25 -0.359375 -0.375 -0.828125q-0.125 -0.46875 -0.125 -0.984375zm11.748184 -3.734375q-0.765625 0 -1.375 0.34375q-0.59375 0.328125 -1.03125 0.90625l0 -0.171875l-0.0625 -0.953125l-1.140625 0l0 7.046875l1.203125 0l0 -4.515625q0.125 -0.328125 0.296875 -0.59375q0.1875 -0.265625 0.421875 -0.4375q0.265625 -0.21875 0.625 -0.3125q0.359375 -0.109375 0.8125 -0.109375q0.34375 0 0.65625 0.03125q0.3125 0.03125 0.65625 0.109375l0.171875 -1.171875q-0.1875 -0.078125 -0.546875 -0.125q-0.359375 -0.046875 -0.6875 -0.046875z" fill-rule="nonzero"/></g></svg>