<svg version="1.1" viewBox="0.0 0.0 1222.0 498.0" fill="none" stroke="none" stroke-linecap="square" stroke-miterlimit="10" xmlns:xlink="http://www.w3.org/1999/xlink" xmlns="http://www.w3.org/2000/svg"><clipPath id="p.0"><path d="m0 0l1222.0 0l0 498.0l-1222.0 0l0 -498.0z" clip-rule="nonzero"/></clipPath><g clip-path="url(#p.0)"><path fill="#000000" fill-opacity="0.0" d="m0 0l1222.0 0l0 498.0l-1222.0 0z" fill-rule="evenodd"/><path fill="#ffffff" d="m235.43439 11.530184l121.165344 0l0 41.16535l-121.165344 0z" fill-rule="evenodd"/><path stroke="#000000" stroke-width="2.0" stroke-linejoin="round" stroke-linecap="butt" d="m235.43439 11.530184l121.165344 0l0 41.16535l-121.165344 0z" fill-rule="evenodd"/><path fill="#ffffff" d="m356.59973 11.530184l121.165375 0l0 41.16535l-121.165375 0z" fill-rule="evenodd"/><path stroke="#000000" stroke-width="2.0" stroke-linejoin="round" stroke-linecap="butt" d="m356.59973 11.530184l121.165375 0l0 41.16535l-121.165375 0z" fill-rule="evenodd"/><path fill="#ffffff" d="m477.7651 11.528872l121.16531 0l0 41.16535l-121.16531 0z" fill-rule="evenodd"/><path stroke="#000000" stroke-width="2.0" stroke-linejoin="round" stroke-linecap="butt" d="m477.7651 11.528872l121.16531 0l0 41.16535l-121.16531 0z" fill-rule="evenodd"/><path fill="#000000" fill-opacity="0.0" d="m95.379265 11.530184l42.267723 0l0 41.16535l-42.267723 0z" fill-rule="evenodd"/><path stroke="#000000" stroke-width="2.0" stroke-linejoin="round" stroke-linecap="butt" d="m95.379265 11.530184l42.267723 0l0 41.16535l-42.267723 0z" fill-rule="evenodd"/><path fill="#ffffff" d="m598.9304 11.530184l121.165405 0l0 41.16535l-121.165405 0z" fill-rule="evenodd"/><path stroke="#000000" stroke-width="2.0" stroke-linejoin="round" stroke-linecap="butt" d="m598.9304 11.530184l121.165405 0l0 41.16535l-121.165405 0z" fill-rule="evenodd"/><path fill="#000000" fill-opacity="0.0" d="m114.4895 32.490814l120.944885 -0.37795258" fill-rule="evenodd"/><path stroke="#000000" stroke-width="2.0" stroke-linejoin="round" stroke-linecap="butt" d="m122.06946 32.46713l101.36499 -0.31676865" fill-rule="evenodd"/><path fill="#000000" stroke="#000000" stroke-width="2.0" stroke-linecap="butt" d="m122.07974 35.75711l-6.5799637 0.020561218l-0.020561218 -6.5799675l6.5799637 -0.020561218l0.020561218 6.5799675z" fill-rule="nonzero"/><path fill="#000000" stroke="#000000" stroke-width="2.0" stroke-linecap="butt" d="m223.44476 35.453808l9.065826 -3.33181l-9.086472 -3.2750854z" fill-rule="evenodd"/><path fill="#000000" fill-opacity="0.0" d="m4.242782 11.104987l91.149605 0l0 42.015747l-91.149605 0z" fill-rule="evenodd"/><path fill="#000000" d="m15.602158 28.16561l-1.515625 0l0 9.859377l1.609375 0l0 -7.843752q0.046875 -0.140625 0.125 -0.265625q0.09375 -0.140625 0.21875 -0.234375q0.15625 -0.125 0.375 -0.1875q0.21875 -0.078125 0.53125 -0.078125q0.265625 0 0.46875 0.078125q0.203125 0.0625 0.34375 0.203125q0.15625 0.15625 0.21875 0.390625q0.0625 0.234375 0.0625 0.546875l0 7.390627l1.609375 0l0 -7.375002q0 -0.0625 0 -0.09375q0 -0.046875 0 -0.09375q0.03125 -0.21875 0.109375 -0.40625q0.078125 -0.1875 0.21875 -0.34375q0.15625 -0.125 0.375 -0.203125q0.21875 -0.09375 0.515625 -0.09375q0.28125 0 0.484375 0.078125q0.21875 0.0625 0.375 0.21875q0.140625 0.15625 0.203125 0.390625q0.078125 0.234375 0.078125 0.546875l0 7.375002l1.59375 0l0 -7.359377q0 -0.71875 -0.171875 -1.234375q-0.15625 -0.53125 -0.453125 -0.859375q-0.28125 -0.28125 -0.703125 -0.421875q-0.40625 -0.15625 -0.921875 -0.15625q-0.359375 0 -0.6875 0.09375q-0.3125 0.09375 -0.5625 0.25q-0.203125 0.125 -0.375 0.3125q-0.171875 0.1875 -0.296875 0.390625q-0.109375 -0.21875 -0.25 -0.40625q-0.140625 -0.1875 -0.3125 -0.3125q-0.234375 -0.15625 -0.546875 -0.234375q-0.3125 -0.09375 -0.703125 -0.09375q-0.6875 0 -1.1875 0.296875q-0.484375 0.28125 -0.78125 0.8125l-0.046875 -0.9375zm18.601822 11.234377l0 -1.375l-8.359375 0l0 1.375l8.359375 0zm3.008072 2.421875l1.6875 0l0 -4.75q0.171875 0.203125 0.375 0.375q0.21875 0.171875 0.453125 0.3125q0.390625 0.21875 0.875 0.328125q0.5 0.125 1.0625 0.125q0.921875 0 1.640625 -0.375q0.734375 -0.390625 1.234375 -1.0625q0.484375 -0.6875 0.734375 -1.59375q0.265625 -0.921875 0.265625 -1.96875l0 -0.203125q0 -1.0937519 -0.265625 -2.015627q-0.25 -0.9375 -0.734375 -1.59375q-0.5 -0.671875 -1.234375 -1.03125q-0.71875 -0.375 -1.671875 -0.375q-0.53125 0 -1.0 0.109375q-0.46875 0.109375 -0.859375 0.328125q-0.265625 0.140625 -0.515625 0.359375q-0.234375 0.203125 -0.421875 0.453125l-0.09375 -1.078125l-1.53125 0l0 13.656252zm6.640625 -8.8125l0 0.203125q0 0.71875 -0.171875 1.375q-0.15625 0.65625 -0.484375 1.15625q-0.328125 0.5 -0.84375 0.796875q-0.5 0.296875 -1.203125 0.296875q-0.4375 0 -0.796875 -0.109375q-0.359375 -0.109375 -0.640625 -0.3125q-0.265625 -0.15625 -0.46875 -0.390625q-0.1875 -0.234375 -0.34375 -0.515625l0 -4.750002q0.171875 -0.296875 0.390625 -0.546875q0.234375 -0.265625 0.53125 -0.4375q0.265625 -0.171875 0.59375 -0.265625q0.328125 -0.09375 0.71875 -0.09375q0.71875 0 1.21875 0.296875q0.515625 0.28125 0.84375 0.78125q0.328125 0.5 0.484375 1.15625q0.171875 0.6406269 0.171875 1.3593769zm4.086197 0l0 0.203125q0 1.0625 0.3125 1.96875q0.3125 0.90625 0.890625 1.59375q0.578125 0.671875 1.40625 1.0625q0.84375 0.375 1.890625 0.375q1.03125 0 1.859375 -0.375q0.828125 -0.390625 1.40625 -1.0625q0.578125 -0.6875 0.890625 -1.59375q0.3125 -0.90625 0.3125 -1.96875l0 -0.203125q0 -1.0625019 -0.3125 -1.9843769q-0.3125 -0.921875 -0.890625 -1.59375q-0.578125 -0.671875 -1.421875 -1.046875q-0.828125 -0.390625 -1.875 -0.390625q-1.03125 0 -1.859375 0.390625q-0.828125 0.375 -1.40625 1.046875q-0.578125 0.671875 -0.890625 1.59375q-0.3125 0.921875 -0.3125 1.9843769zm1.6875 0.203125l0 -0.203125q0 -0.71875 0.171875 -1.3750019q0.171875 -0.671875 0.53125 -1.171875q0.34375 -0.5 0.859375 -0.796875q0.515625 -0.296875 1.21875 -0.296875q0.703125 0 1.21875 0.296875q0.53125 0.296875 0.890625 0.796875q0.34375 0.5 0.515625 1.171875q0.1875 0.6562519 0.1875 1.3750019l0 0.203125q0 0.71875 -0.171875 1.390625q-0.171875 0.65625 -0.515625 1.15625q-0.359375 0.5 -0.890625 0.796875q-0.515625 0.28125 -1.203125 0.28125q-0.703125 0 -1.234375 -0.28125q-0.53125 -0.296875 -0.875 -0.796875q-0.359375 -0.5 -0.53125 -1.15625q-0.171875 -0.671875 -0.171875 -1.390625zm9.508072 -0.203125l0 0.203125q0 1.0625 0.3125 1.96875q0.3125 0.90625 0.890625 1.59375q0.578125 0.671875 1.40625 1.0625q0.84375 0.375 1.890625 0.375q1.03125 0 1.859375 -0.375q0.828125 -0.390625 1.40625 -1.0625q0.578125 -0.6875 0.890625 -1.59375q0.3125 -0.90625 0.3125 -1.96875l0 -0.203125q0 -1.0625019 -0.3125 -1.9843769q-0.3125 -0.921875 -0.890625 -1.59375q-0.578125 -0.671875 -1.421875 -1.046875q-0.828125 -0.390625 -1.875 -0.390625q-1.03125 0 -1.859375 0.390625q-0.828125 0.375 -1.40625 1.046875q-0.578125 0.671875 -0.890625 1.59375q-0.3125 0.921875 -0.3125 1.9843769zm1.6875 0.203125l0 -0.203125q0 -0.71875 0.171875 -1.3750019q0.171875 -0.671875 0.53125 -1.171875q0.34375 -0.5 0.859375 -0.796875q0.515625 -0.296875 1.21875 -0.296875q0.703125 0 1.21875 0.296875q0.53125 0.296875 0.890625 0.796875q0.34375 0.5 0.515625 1.171875q0.1875 0.6562519 0.1875 1.3750019l0 0.203125q0 0.71875 -0.171875 1.390625q-0.171875 0.65625 -0.515625 1.15625q-0.359375 0.5 -0.890625 0.796875q-0.515625 0.28125 -1.203125 0.28125q-0.703125 0 -1.234375 -0.28125q-0.53125 -0.296875 -0.875 -0.796875q-0.359375 -0.5 -0.53125 -1.15625q-0.171875 -0.671875 -0.171875 -1.390625zm10.242447 -9.187502l0 1.46875l3.359375 0l0 11.078127l-3.359375 0l0 1.453125l8.265625 0l0 -1.453125l-3.21875 0l0 -12.546877l-5.046875 0z" fill-rule="nonzero"/><path fill="#000000" fill-opacity="0.0" d="m95.379265 153.35695l42.267723 0l0 41.16536l-42.267723 0z" fill-rule="evenodd"/><path stroke="#000000" stroke-width="2.0" stroke-linejoin="round" stroke-linecap="butt" d="m95.379265 153.35695l42.267723 0l0 41.16536l-42.267723 0z" fill-rule="evenodd"/><path fill="#000000" fill-opacity="0.0" d="m4.242782 152.93176l91.149605 0l0 42.015747l-91.149605 0z" fill-rule="evenodd"/><path fill="#000000" d="m15.602158 169.99239l-1.515625 0l0 9.859375l1.609375 0l0 -7.84375q0.046875 -0.140625 0.125 -0.265625q0.09375 -0.140625 0.21875 -0.234375q0.15625 -0.125 0.375 -0.1875q0.21875 -0.078125 0.53125 -0.078125q0.265625 0 0.46875 0.078125q0.203125 0.0625 0.34375 0.203125q0.15625 0.15625 0.21875 0.390625q0.0625 0.234375 0.0625 0.546875l0 7.390625l1.609375 0l0 -7.375q0 -0.0625 0 -0.09375q0 -0.046875 0 -0.09375q0.03125 -0.21875 0.109375 -0.40625q0.078125 -0.1875 0.21875 -0.34375q0.15625 -0.125 0.375 -0.203125q0.21875 -0.09375 0.515625 -0.09375q0.28125 0 0.484375 0.078125q0.21875 0.0625 0.375 0.21875q0.140625 0.15625 0.203125 0.390625q0.078125 0.234375 0.078125 0.546875l0 7.375l1.59375 0l0 -7.359375q0 -0.71875 -0.171875 -1.234375q-0.15625 -0.53125 -0.453125 -0.859375q-0.28125 -0.28125 -0.703125 -0.421875q-0.40625 -0.15625 -0.921875 -0.15625q-0.359375 0 -0.6875 0.09375q-0.3125 0.09375 -0.5625 0.25q-0.203125 0.125 -0.375 0.3125q-0.171875 0.1875 -0.296875 0.390625q-0.109375 -0.21875 -0.25 -0.40625q-0.140625 -0.1875 -0.3125 -0.3125q-0.234375 -0.15625 -0.546875 -0.234375q-0.3125 -0.09375 -0.703125 -0.09375q-0.6875 0 -1.1875 0.296875q-0.484375 0.28125 -0.78125 0.8125l-0.046875 -0.9375zm18.601822 11.234375l0 -1.375l-8.359375 0l0 1.375l8.359375 0zm5.523697 -1.375l1.703125 0l0 -8.546875l3.796875 0l0 -1.3125l-3.796875 0l0 -0.6875q0 -0.625 0.15625 -1.078125q0.15625 -0.46875 0.46875 -0.765625q0.296875 -0.28125 0.734375 -0.421875q0.4375 -0.140625 1.015625 -0.140625q0.5625 0 1.0625 0.09375q0.5 0.09375 0.875 0.21875l0.1875 -1.390625q-0.234375 -0.0625 -0.46875 -0.109375q-0.21875 -0.046875 -0.453125 -0.09375q-0.34375 -0.0625 -0.703125 -0.109375q-0.34375 -0.046875 -0.703125 -0.046875q-0.875 0 -1.59375 0.25q-0.703125 0.25 -1.203125 0.734375q-0.515625 0.484375 -0.796875 1.203125q-0.28125 0.703125 -0.28125 1.65625l0 0.6875l-2.703125 0l0 1.3125l2.703125 0l0 8.546875zm15.148697 -10.03125q-1.078125 0 -1.921875 0.46875q-0.84375 0.46875 -1.4375 1.265625l-0.015625 -0.234375l-0.078125 -1.328125l-1.59375 0l0 9.859375l1.6875 0l0 -6.328125q0.171875 -0.453125 0.421875 -0.8125q0.25 -0.375 0.578125 -0.625q0.375 -0.296875 0.875 -0.4375q0.5 -0.15625 1.125 -0.15625q0.484375 0 0.921875 0.046875q0.453125 0.046875 0.9375 0.15625l0.234375 -1.640625q-0.265625 -0.109375 -0.765625 -0.171875q-0.5 -0.0625 -0.96875 -0.0625zm9.086197 10.21875q1.4375 0 2.421875 -0.578125q0.984375 -0.578125 1.46875 -1.328125l-1.03125 -0.796875q-0.46875 0.59375 -1.171875 0.96875q-0.6875 0.359375 -1.59375 0.359375q-0.6875 0 -1.25 -0.25q-0.5625 -0.265625 -0.96875 -0.71875q-0.390625 -0.40625 -0.609375 -0.953125q-0.21875 -0.546875 -0.28125 -1.265625l0 -0.078125l7.03125 0l0 -0.75q0 -1.03125 -0.265625 -1.90625q-0.25 -0.890625 -0.78125 -1.546875q-0.53125 -0.640625 -1.328125 -1.0q-0.796875 -0.375 -1.859375 -0.375q-0.84375 0 -1.65625 0.34375q-0.796875 0.34375 -1.4375 0.984375q-0.625 0.65625 -1.015625 1.609375q-0.375 0.9375 -0.375 2.125l0 0.390625q0 1.03125 0.34375 1.90625q0.34375 0.875 0.96875 1.5q0.609375 0.640625 1.484375 1.0q0.875 0.359375 1.90625 0.359375zm-0.21875 -8.84375q0.65625 0 1.125 0.234375q0.46875 0.234375 0.765625 0.625q0.3125 0.375 0.484375 0.90625q0.171875 0.515625 0.171875 0.984375l0 0.078125l-5.296875 0q0.09375 -0.6875 0.34375 -1.203125q0.265625 -0.53125 0.625 -0.890625q0.359375 -0.359375 0.8125 -0.546875q0.453125 -0.1875 0.96875 -0.1875zm11.414322 8.84375q1.4375 0 2.421875 -0.578125q0.984375 -0.578125 1.46875 -1.328125l-1.03125 -0.796875q-0.46875 0.59375 -1.171875 0.96875q-0.6875 0.359375 -1.59375 0.359375q-0.6875 0 -1.25 -0.25q-0.5625 -0.265625 -0.96875 -0.71875q-0.390625 -0.40625 -0.609375 -0.953125q-0.21875 -0.546875 -0.28125 -1.265625l0 -0.078125l7.03125 0l0 -0.75q0 -1.03125 -0.265625 -1.90625q-0.25 -0.890625 -0.78125 -1.546875q-0.53125 -0.640625 -1.328125 -1.0q-0.796875 -0.375 -1.859375 -0.375q-0.84375 0 -1.65625 0.34375q-0.796875 0.34375 -1.4375 0.984375q-0.625 0.65625 -1.015625 1.609375q-0.375 0.9375 -0.375 2.125l0 0.390625q0 1.03125 0.34375 1.90625q0.34375 0.875 0.96875 1.5q0.609375 0.640625 1.484375 1.0q0.875 0.359375 1.90625 0.359375zm-0.21875 -8.84375q0.65625 0 1.125 0.234375q0.46875 0.234375 0.765625 0.625q0.3125 0.375 0.484375 0.90625q0.171875 0.515625 0.171875 0.984375l0 0.078125l-5.296875 0q0.09375 -0.6875 0.34375 -1.203125q0.265625 -0.53125 0.625 -0.890625q0.359375 -0.359375 0.8125 -0.546875q0.453125 -0.1875 0.96875 -0.1875z" fill-rule="nonzero"/><path fill="#000000" fill-opacity="0.0" d="m95.379265 194.52231l42.267723 0l0 41.16536l-42.267723 0z" fill-rule="evenodd"/><path stroke="#000000" stroke-width="2.0" stroke-linejoin="round" stroke-linecap="butt" d="m95.379265 194.52231l42.267723 0l0 41.16536l-42.267723 0z" fill-rule="evenodd"/><path fill="#000000" fill-opacity="0.0" d="m95.379265 235.68767l42.267723 0l0 41.16536l-42.267723 0z" fill-rule="evenodd"/><path stroke="#000000" stroke-width="2.0" stroke-linejoin="round" stroke-linecap="butt" d="m95.379265 235.68767l42.267723 0l0 41.16536l-42.267723 0z" fill-rule="evenodd"/><path fill="#000000" fill-opacity="0.0" d="m95.379265 276.85303l42.267723 0l0 41.165344l-42.267723 0z" fill-rule="evenodd"/><path stroke="#000000" stroke-width="2.0" stroke-linejoin="round" stroke-linecap="butt" d="m95.379265 276.85303l42.267723 0l0 41.165344l-42.267723 0z" fill-rule="evenodd"/><path fill="#000000" fill-opacity="0.0" d="m114.4895 174.12862l120.944885 -0.3779602" fill-rule="evenodd"/><path stroke="#000000" stroke-width="2.0" stroke-linejoin="round" stroke-linecap="butt" d="m122.06946 174.10492l113.36493 -0.3542633" fill-rule="evenodd"/><path fill="#000000" stroke="#000000" stroke-width="2.0" stroke-linecap="butt" d="m122.07974 177.39491l-6.5799637 0.020553589l-0.020561218 -6.5799713l6.5799637 -0.020553589l0.020561218 6.5799713z" fill-rule="nonzero"/><path fill="#000000" fill-opacity="0.0" d="m114.4895 215.29396l241.51181 -0.9763794" fill-rule="evenodd"/><path stroke="#000000" stroke-width="2.0" stroke-linejoin="round" stroke-linecap="butt" d="m122.06944 215.26332l233.93187 -0.94573975" fill-rule="evenodd"/><path fill="#000000" stroke="#000000" stroke-width="2.0" stroke-linecap="butt" d="m122.08274 218.5533l-6.5799484 0.02659607l-0.02659607 -6.579941l6.579941 -0.026611328l0.026603699 6.579956z" fill-rule="nonzero"/><path fill="#000000" fill-opacity="0.0" d="m114.4895 256.45932l363.24408 -1.6378021" fill-rule="evenodd"/><path stroke="#000000" stroke-width="2.0" stroke-linejoin="round" stroke-linecap="butt" d="m122.06942 256.42514l355.66415 -1.6036224" fill-rule="evenodd"/><path fill="#000000" stroke="#000000" stroke-width="2.0" stroke-linecap="butt" d="m122.08426 259.71512l-6.579933 0.029663086l-0.029670715 -6.579941l6.579933 -0.029663086l0.029670715 6.579941z" fill-rule="nonzero"/><path fill="#000000" fill-opacity="0.0" d="m114.4895 297.62466l484.75592 -0.3779602" fill-rule="evenodd"/><path stroke="#000000" stroke-width="2.0" stroke-linejoin="round" stroke-linecap="butt" d="m122.0695 297.61877l477.1759 -0.3720703" fill-rule="evenodd"/><path fill="#000000" stroke="#000000" stroke-width="2.0" stroke-linecap="butt" d="m122.07207 300.90875l-6.580002 0.005126953l-0.005126953 -6.5799866l6.579994 -0.005126953l0.0051345825 6.5799866z" fill-rule="nonzero"/><path fill="#000000" fill-opacity="0.0" d="m235.99344 173.82939l-0.50393677 -52.50393" fill-rule="evenodd"/><path stroke="#000000" stroke-width="2.0" stroke-linejoin="round" stroke-linecap="butt" d="m235.99344 173.82939l-0.38876343 -40.504486" fill-rule="evenodd"/><path fill="#000000" stroke="#000000" stroke-width="2.0" stroke-linecap="butt" d="m238.90799 133.2932l-3.3904266 -9.044067l-3.2162018 9.107483z" fill-rule="evenodd"/><path fill="#000000" fill-opacity="0.0" d="m356.99344 214.32808l0 -92.97637" fill-rule="evenodd"/><path stroke="#000000" stroke-width="2.0" stroke-linejoin="round" stroke-linecap="butt" d="m356.99344 214.32808l0 -80.97638" fill-rule="evenodd"/><path fill="#000000" stroke="#000000" stroke-width="2.0" stroke-linecap="butt" d="m360.2969 133.3517l-3.3034668 -9.076187l-3.3034668 9.076187z" fill-rule="evenodd"/><path fill="#000000" fill-opacity="0.0" d="m477.99344 254.32808l0 -133.48032" fill-rule="evenodd"/><path stroke="#000000" stroke-width="2.0" stroke-linejoin="round" stroke-linecap="butt" d="m477.99344 254.32808l0 -121.480316" fill-rule="evenodd"/><path fill="#000000" stroke="#000000" stroke-width="2.0" stroke-linecap="butt" d="m481.2969 132.84776l-3.3034668 -9.076187l-3.3034668 9.076187z" fill-rule="evenodd"/><path fill="#000000" fill-opacity="0.0" d="m599.74146 297.3281l-0.4724121 -176.0" fill-rule="evenodd"/><path stroke="#000000" stroke-width="2.0" stroke-linejoin="round" stroke-linecap="butt" d="m599.74146 297.3281l-0.44024658 -164.00005" fill-rule="evenodd"/><path fill="#000000" stroke="#000000" stroke-width="2.0" stroke-linecap="butt" d="m602.6047 133.31917l-3.3278198 -9.067291l-3.2790527 9.085037z" fill-rule="evenodd"/><path fill="#cccccc" d="m720.0958 79.46457l121.165344 0l0 41.16535l-121.165344 0z" fill-rule="evenodd"/><path stroke="#000000" stroke-width="2.0" stroke-linejoin="round" stroke-linecap="butt" d="m720.0958 79.46457l121.165344 0l0 41.16535l-121.165344 0z" fill-rule="evenodd"/><path fill="#cccccc" d="m841.26117 79.46457l121.165344 0l0 41.16535l-121.165344 0z" fill-rule="evenodd"/><path stroke="#000000" stroke-width="2.0" stroke-linejoin="round" stroke-linecap="butt" d="m841.26117 79.46457l121.165344 0l0 41.16535l-121.165344 0z" fill-rule="evenodd"/><path fill="#cccccc" d="m962.4265 79.46326l121.165405 0l0 41.16535l-121.165405 0z" fill-rule="evenodd"/><path stroke="#000000" stroke-width="2.0" stroke-linejoin="round" stroke-linecap="butt" d="m962.4265 79.46326l121.165405 0l0 41.16535l-121.165405 0z" fill-rule="evenodd"/><path fill="#cccccc" d="m1083.5919 79.46457l121.16528 0l0 41.16535l-121.16528 0z" fill-rule="evenodd"/><path stroke="#000000" stroke-width="2.0" stroke-linejoin="round" stroke-linecap="butt" d="m1083.5919 79.46457l121.16528 0l0 41.16535l-121.16528 0z" fill-rule="evenodd"/><path fill="#cccccc" d="m235.43439 79.46457l121.165344 0l0 41.16535l-121.165344 0z" fill-rule="evenodd"/><path stroke="#000000" stroke-width="2.0" stroke-linejoin="round" stroke-linecap="butt" d="m235.43439 79.46457l121.165344 0l0 41.16535l-121.165344 0z" fill-rule="evenodd"/><path fill="#cccccc" d="m356.59973 79.46457l121.165375 0l0 41.16535l-121.165375 0z" fill-rule="evenodd"/><path stroke="#000000" stroke-width="2.0" stroke-linejoin="round" stroke-linecap="butt" d="m356.59973 79.46457l121.165375 0l0 41.16535l-121.165375 0z" fill-rule="evenodd"/><path fill="#cccccc" d="m477.7651 79.46326l121.16531 0l0 41.16535l-121.16531 0z" fill-rule="evenodd"/><path stroke="#000000" stroke-width="2.0" stroke-linejoin="round" stroke-linecap="butt" d="m477.7651 79.46326l121.16531 0l0 41.16535l-121.16531 0z" fill-rule="evenodd"/><path fill="#cccccc" d="m598.9304 79.46457l121.165405 0l0 41.16535l-121.165405 0z" fill-rule="evenodd"/><path stroke="#000000" stroke-width="2.0" stroke-linejoin="round" stroke-linecap="butt" d="m598.9304 79.46457l121.165405 0l0 41.16535l-121.165405 0z" fill-rule="evenodd"/><path fill="#000000" fill-opacity="0.0" d="m95.379265 53.120735l42.267723 0l0 41.16535l-42.267723 0z" fill-rule="evenodd"/><path stroke="#000000" stroke-width="2.0" stroke-linejoin="round" stroke-linecap="butt" d="m95.379265 53.120735l42.267723 0l0 41.16535l-42.267723 0z" fill-rule="evenodd"/><path fill="#000000" fill-opacity="0.0" d="m113.985565 73.49606l60.72441 0l0 26.551178l60.72441 0" fill-rule="evenodd"/><path stroke="#000000" stroke-width="2.0" stroke-linejoin="round" stroke-linecap="butt" d="m121.56557 73.49606l53.14441 0l0 26.551178l48.72441 0" fill-rule="evenodd"/><path fill="#000000" stroke="#000000" stroke-width="2.0" stroke-linecap="butt" d="m121.56557 76.786064l-6.580002 0l0 -6.580002l6.580002 0l0 6.580002z" fill-rule="nonzero"/><path fill="#000000" stroke="#000000" stroke-width="2.0" stroke-linecap="butt" d="m223.43439 103.35071l9.076187 -3.3034668l-9.076187 -3.3034592z" fill-rule="evenodd"/><path fill="#000000" fill-opacity="0.0" d="m95.379265 318.01837l42.267723 0l0 41.165344l-42.267723 0z" fill-rule="evenodd"/><path stroke="#000000" stroke-width="2.0" stroke-linejoin="round" stroke-linecap="butt" d="m95.379265 318.01837l42.267723 0l0 41.165344l-42.267723 0z" fill-rule="evenodd"/><path fill="#000000" fill-opacity="0.0" d="m95.379265 359.18372l42.267723 0l0 41.165375l-42.267723 0z" fill-rule="evenodd"/><path stroke="#000000" stroke-width="2.0" stroke-linejoin="round" stroke-linecap="butt" d="m95.379265 359.18372l42.267723 0l0 41.165375l-42.267723 0z" fill-rule="evenodd"/><path fill="#000000" fill-opacity="0.0" d="m95.379265 400.3491l42.267723 0l0 41.165344l-42.267723 0z" fill-rule="evenodd"/><path stroke="#000000" stroke-width="2.0" stroke-linejoin="round" stroke-linecap="butt" d="m95.379265 400.3491l42.267723 0l0 41.165344l-42.267723 0z" fill-rule="evenodd"/><path fill="#000000" fill-opacity="0.0" d="m95.379265 441.51443l42.267723 0l0 41.165344l-42.267723 0z" fill-rule="evenodd"/><path stroke="#000000" stroke-width="2.0" stroke-linejoin="round" stroke-linecap="butt" d="m95.379265 441.51443l42.267723 0l0 41.165344l-42.267723 0z" fill-rule="evenodd"/><path fill="#000000" fill-opacity="0.0" d="m114.4895 338.79004l607.49603 -3.779541" fill-rule="evenodd"/><path stroke="#000000" stroke-width="2.0" stroke-linejoin="round" stroke-linecap="butt" d="m122.06936 338.74286l599.9162 -3.7323608" fill-rule="evenodd"/><path fill="#000000" stroke="#000000" stroke-width="2.0" stroke-linecap="butt" d="m122.08982 342.0328l-6.579872 0.040924072l-0.0409317 -6.5798645l6.579872 -0.040924072l0.0409317 6.5798645z" fill-rule="nonzero"/><path fill="#000000" fill-opacity="0.0" d="m114.4895 379.95538l727.49603 -3.9685059" fill-rule="evenodd"/><path stroke="#000000" stroke-width="2.0" stroke-linejoin="round" stroke-linecap="butt" d="m122.06939 379.91403l719.91614 -3.9271545" fill-rule="evenodd"/><path fill="#000000" stroke="#000000" stroke-width="2.0" stroke-linecap="butt" d="m122.08733 383.20398l-6.5799026 0.035888672l-0.035888672 -6.579895l6.5799026 -0.035888672l0.035888672 6.579895z" fill-rule="nonzero"/><path fill="#000000" fill-opacity="0.0" d="m114.4895 421.12073l849.0079 -3.7795105" fill-rule="evenodd"/><path stroke="#000000" stroke-width="2.0" stroke-linejoin="round" stroke-linecap="butt" d="m122.06943 421.08698l841.428 -3.745758" fill-rule="evenodd"/><path fill="#000000" stroke="#000000" stroke-width="2.0" stroke-linecap="butt" d="m122.08407 424.37695l-6.579933 0.029296875l-0.029289246 -6.5799255l6.579933 -0.029296875l0.029289246 6.5799255z" fill-rule="nonzero"/><path fill="#000000" fill-opacity="0.0" d="m114.4895 462.2861l968.0 -3.779541" fill-rule="evenodd"/><path stroke="#000000" stroke-width="2.0" stroke-linejoin="round" stroke-linecap="butt" d="m122.06944 462.25647l960.42004 -3.7499084" fill-rule="evenodd"/><path fill="#000000" stroke="#000000" stroke-width="2.0" stroke-linecap="butt" d="m122.08229 465.54648l-6.5799484 0.0256958l-0.0256958 -6.579956l6.5799484 -0.0256958l0.0256958 6.579956z" fill-rule="nonzero"/><path fill="#000000" fill-opacity="0.0" d="m720.0 334.5013l0 -212.69292" fill-rule="evenodd"/><path stroke="#000000" stroke-width="2.0" stroke-linejoin="round" stroke-linecap="butt" d="m720.0 334.5013l0 -200.69292" fill-rule="evenodd"/><path fill="#000000" stroke="#000000" stroke-width="2.0" stroke-linecap="butt" d="m723.30347 133.8084l-3.3034668 -9.076195l-3.3034668 9.076195z" fill-rule="evenodd"/><path fill="#000000" fill-opacity="0.0" d="m841.50134 375.5013l-0.25201416 -253.70079" fill-rule="evenodd"/><path stroke="#000000" stroke-width="2.0" stroke-linejoin="round" stroke-linecap="butt" d="m841.50134 375.5013l-0.2401123 -241.70079" fill-rule="evenodd"/><path fill="#000000" stroke="#000000" stroke-width="2.0" stroke-linecap="butt" d="m844.5647 133.79724l-3.312439 -9.072914l-3.2944336 9.079475z" fill-rule="evenodd"/><path fill="#000000" fill-opacity="0.0" d="m962.50134 417.0l0.25195312 -295.2126" fill-rule="evenodd"/><path stroke="#000000" stroke-width="2.0" stroke-linejoin="round" stroke-linecap="butt" d="m962.50134 417.0l0.24169922 -283.2126" fill-rule="evenodd"/><path fill="#000000" stroke="#000000" stroke-width="2.0" stroke-linecap="butt" d="m966.0465 133.79022l-3.2957153 -9.079018l-3.3112183 9.073372z" fill-rule="evenodd"/><path fill="#000000" fill-opacity="0.0" d="m1083.5013 458.5013l0.03149414 -336.72443" fill-rule="evenodd"/><path stroke="#000000" stroke-width="2.0" stroke-linejoin="round" stroke-linecap="butt" d="m1083.5013 458.5013l0.030273438 -324.72443" fill-rule="evenodd"/><path fill="#000000" stroke="#000000" stroke-width="2.0" stroke-linecap="butt" d="m1086.8352 133.7772l-3.3026123 -9.0765l-3.3043213 9.07589z" fill-rule="evenodd"/></g></svg>