<svg version="1.1" viewBox="0.0 0.0 865.1601049868766 330.0" fill="none" stroke="none" stroke-linecap="square" stroke-miterlimit="10" xmlns:xlink="http://www.w3.org/1999/xlink" xmlns="http://www.w3.org/2000/svg"><clipPath id="p.0"><path d="m0 0l865.1601 0l0 330.0l-865.1601 0l0 -330.0z" clip-rule="nonzero"/></clipPath><g clip-path="url(#p.0)"><path fill="#000000" fill-opacity="0.0" d="m0 0l865.1601 0l0 330.0l-865.1601 0z" fill-rule="evenodd"/><path fill="#cccccc" d="m19.248032 70.519684l56.125984 0l0 20.440948l-56.125984 0z" fill-rule="evenodd"/><path stroke="#000000" stroke-width="2.0" stroke-linejoin="round" stroke-linecap="butt" d="m19.248032 70.519684l56.125984 0l0 20.440948l-56.125984 0z" fill-rule="evenodd"/><path fill="#ffffff" d="m95.80446 151.96063l151.11812 0l0 27.496063l-151.11812 0z" fill-rule="evenodd"/><path stroke="#000000" stroke-width="2.0" stroke-linejoin="round" stroke-linecap="butt" d="m95.80446 151.96063l151.11812 0l0 27.496063l-151.11812 0z" fill-rule="evenodd"/><path fill="#000000" fill-opacity="0.0" d="m13.85958 12.049869l201.98425 0l0 38.771652l-201.98425 0z" fill-rule="evenodd"/><path fill="#000000" d="m30.875206 31.56612l0 -1.546875l-4.8125 0l0 -3.4375l5.5 0l0 -1.546875l-7.390625 0l0 11.375l1.890625 0l0 -4.84375l4.8125 0zm3.2265625 -3.609375l0 1.546875l2.609375 0l0 5.359375l-2.609375 0l0 1.546875l6.96875 0l0 -1.546875l-2.484375 0l0 -6.90625l-4.484375 0zm2.4375 -2.1875q0 0.296875 0.140625 0.515625q0.140625 0.21875 0.421875 0.3125q0.28125 0.078125 0.5 0.03125q0.234375 -0.046875 0.390625 -0.1875q0.328125 -0.09375 0.5 -0.34375q0.171875 -0.25 0.125 -0.59375q-0.046875 -0.34375 -0.3125 -0.546875q-0.25 -0.21875 -0.671875 -0.21875q-0.25 0 -0.453125 0.078125q-0.203125 0.0625 -0.34375 0.203125q-0.140625 0.140625 -0.21875 0.328125q-0.078125 0.1875 -0.078125 0.421875zm10.4453125 5.03125l-2.0 -2.84375l-2.046875 0l2.953125 4.15625l-3.0625 4.296875l2.078125 0l2.09375 -2.953125l2.109375 2.953125l2.0625 0l-3.0625 -4.296875l2.96875 -4.15625l-2.0625 0l-2.03125 2.84375zm9.8359375 5.765625q1.234375 0 2.109375 -0.484375q0.875 -0.484375 1.296875 -1.09375l-1.0 -0.96875q-0.390625 0.5 -1.0 0.765625q-0.59375 0.265625 -1.296875 0.265625q-0.5 0 -0.9375 -0.171875q-0.421875 -0.171875 -0.734375 -0.484375q-0.3125 -0.296875 -0.5 -0.671875q-0.171875 -0.375 -0.25 -0.921875l0 -0.046875l5.859375 0l0 -0.796875q0 -0.90625 -0.25 -1.671875q-0.234375 -0.765625 -0.71875 -1.328125q-0.46875 -0.546875 -1.171875 -0.84375q-0.703125 -0.3125 -1.625 -0.3125q-0.8125 0 -1.546875 0.3125q-0.71875 0.296875 -1.265625 0.875q-0.546875 0.5625 -0.859375 1.375q-0.3125 0.796875 -0.3125 1.796875l0 0.3125q0 0.875 0.296875 1.625q0.3125 0.734375 0.859375 1.28125q0.5625 0.5625 1.328125 0.875q0.78125 0.3125 1.71875 0.3125zm-0.21875 -7.25q0.46875 0 0.8125 0.15625q0.359375 0.15625 0.59375 0.421875q0.25 0.28125 0.375 0.640625q0.140625 0.359375 0.140625 0.734375l0 0.125l-3.984375 0q0.09375 -0.484375 0.265625 -0.859375q0.1875 -0.390625 0.453125 -0.671875q0.265625 -0.265625 0.59375 -0.40625q0.34375 -0.140625 0.75 -0.140625zm5.6328125 2.796875l0 0.171875q0 0.90625 0.234375 1.703125q0.234375 0.78125 0.65625 1.34375q0.4375 0.578125 1.046875 0.90625q0.625 0.328125 1.390625 0.328125q0.734375 0 1.296875 -0.265625q0.5625 -0.28125 0.96875 -0.78125l0.09375 0.890625l1.6875 0l0 -12.0l-1.859375 0l0 4.328125q-0.40625 -0.453125 -0.9375 -0.6875q-0.53125 -0.25 -1.234375 -0.25q-0.78125 0 -1.40625 0.3125q-0.609375 0.3125 -1.046875 0.890625q-0.4375 0.5625 -0.671875 1.359375q-0.21875 0.796875 -0.21875 1.75zm1.859375 0.171875l0 -0.171875q0 -0.5625 0.109375 -1.0625q0.109375 -0.515625 0.359375 -0.890625q0.21875 -0.390625 0.59375 -0.609375q0.375 -0.21875 0.890625 -0.21875q0.625 0 1.03125 0.28125q0.421875 0.28125 0.671875 0.75l0 3.625q-0.25 0.484375 -0.671875 0.765625q-0.40625 0.265625 -1.046875 0.265625q-0.515625 0 -0.890625 -0.203125q-0.359375 -0.21875 -0.59375 -0.609375q-0.234375 -0.359375 -0.34375 -0.859375q-0.109375 -0.5 -0.109375 -1.0625zm13.8671875 1.1875q0 0.375 -0.15625 0.671875q-0.15625 0.28125 -0.421875 0.484375q-0.28125 0.203125 -0.65625 0.3125q-0.359375 0.09375 -0.796875 0.09375q-0.5 0 -0.9375 -0.125q-0.421875 -0.125 -0.734375 -0.390625q-0.3125 -0.25 -0.5 -0.625q-0.1875 -0.390625 -0.21875 -0.921875l-1.875 0q0 0.828125 0.328125 1.46875q0.328125 0.625 0.875 1.09375q0.609375 0.5 1.421875 0.765625q0.8125 0.265625 1.640625 0.265625q0.796875 0 1.5 -0.203125q0.71875 -0.203125 1.25 -0.609375q0.53125 -0.375 0.84375 -0.953125q0.328125 -0.578125 0.328125 -1.34375q0 -0.8125 -0.375 -1.4375q-0.359375 -0.640625 -0.953125 -1.09375q-0.484375 -0.359375 -1.0625 -0.609375q-0.578125 -0.25 -1.171875 -0.421875q-0.484375 -0.140625 -0.921875 -0.296875q-0.421875 -0.171875 -0.765625 -0.390625q-0.328125 -0.21875 -0.53125 -0.515625q-0.1875 -0.296875 -0.1875 -0.6875q0 -0.359375 0.140625 -0.65625q0.15625 -0.296875 0.421875 -0.515625q0.265625 -0.203125 0.625 -0.3125q0.359375 -0.109375 0.796875 -0.109375q0.484375 0 0.859375 0.140625q0.390625 0.140625 0.65625 0.390625q0.25 0.265625 0.390625 0.625q0.15625 0.34375 0.1875 0.78125l1.859375 0q0 -0.78125 -0.3125 -1.40625q-0.296875 -0.640625 -0.828125 -1.109375q-0.53125 -0.453125 -1.25 -0.703125q-0.71875 -0.25 -1.546875 -0.25q-0.78125 0 -1.484375 0.21875q-0.703125 0.203125 -1.234375 0.609375q-0.53125 0.421875 -0.84375 1.0q-0.3125 0.578125 -0.3125 1.3125q0 0.671875 0.265625 1.203125q0.265625 0.53125 0.75 0.953125q0.46875 0.421875 1.140625 0.75q0.6875 0.328125 1.484375 0.5625q0.53125 0.140625 0.953125 0.328125q0.421875 0.1875 0.734375 0.40625q0.296875 0.25 0.453125 0.5625q0.171875 0.296875 0.171875 0.6875zm4.1484375 -5.515625l0 1.546875l2.609375 0l0 5.359375l-2.609375 0l0 1.546875l6.96875 0l0 -1.546875l-2.484375 0l0 -6.90625l-4.484375 0zm2.4375 -2.1875q0 0.296875 0.140625 0.515625q0.140625 0.21875 0.421875 0.3125q0.28125 0.078125 0.5 0.03125q0.234375 -0.046875 0.390625 -0.1875q0.328125 -0.09375 0.5 -0.34375q0.171875 -0.25 0.125 -0.59375q-0.046875 -0.34375 -0.3125 -0.546875q-0.25 -0.21875 -0.671875 -0.21875q-0.25 0 -0.453125 0.078125q-0.203125 0.0625 -0.34375 0.203125q-0.140625 0.140625 -0.21875 0.328125q-0.078125 0.1875 -0.078125 0.421875zm9.0859375 9.125l4.90625 -5.75l0 -1.1875l-7.3125 0l0 1.515625l4.765625 0l-4.859375 5.703125l0 1.234375l7.640625 0l0 -1.515625l-5.140625 0zm11.1953125 1.671875q1.234375 0 2.109375 -0.484375q0.875 -0.484375 1.296875 -1.09375l-1.0 -0.96875q-0.390625 0.5 -1.0 0.765625q-0.59375 0.265625 -1.296875 0.265625q-0.5 0 -0.9375 -0.171875q-0.421875 -0.171875 -0.734375 -0.484375q-0.3125 -0.296875 -0.5 -0.671875q-0.171875 -0.375 -0.25 -0.921875l0 -0.046875l5.859375 0l0 -0.796875q0 -0.90625 -0.25 -1.671875q-0.234375 -0.765625 -0.71875 -1.328125q-0.46875 -0.546875 -1.171875 -0.84375q-0.703125 -0.3125 -1.625 -0.3125q-0.8125 0 -1.546875 0.3125q-0.71875 0.296875 -1.265625 0.875q-0.546875 0.5625 -0.859375 1.375q-0.3125 0.796875 -0.3125 1.796875l0 0.3125q0 0.875 0.296875 1.625q0.3125 0.734375 0.859375 1.28125q0.5625 0.5625 1.328125 0.875q0.78125 0.3125 1.71875 0.3125zm-0.21875 -7.25q0.46875 0 0.8125 0.15625q0.359375 0.15625 0.59375 0.421875q0.25 0.28125 0.375 0.640625q0.140625 0.359375 0.140625 0.734375l0 0.125l-3.984375 0q0.09375 -0.484375 0.265625 -0.859375q0.1875 -0.390625 0.453125 -0.671875q0.265625 -0.265625 0.59375 -0.40625q0.34375 -0.140625 0.75 -0.140625zm13.5390625 2.15625l0 -1.5q0 -0.703125 -0.125 -1.359375q-0.125 -0.671875 -0.375 -1.25q-0.21875 -0.53125 -0.5625 -0.984375q-0.328125 -0.453125 -0.78125 -0.796875q-0.453125 -0.328125 -1.03125 -0.515625q-0.5625 -0.1875 -1.25 -0.1875q-0.671875 0 -1.234375 0.1875q-0.546875 0.171875 -0.984375 0.515625q-0.453125 0.34375 -0.796875 0.8125q-0.328125 0.453125 -0.546875 1.015625q-0.234375 0.578125 -0.359375 1.234375q-0.109375 0.640625 -0.109375 1.328125l0 1.5q0 0.671875 0.109375 1.296875q0.109375 0.625 0.328125 1.1875q0.21875 0.578125 0.5625 1.0625q0.34375 0.484375 0.796875 0.828125q0.4375 0.328125 1.0 0.53125q0.578125 0.1875 1.25 0.1875q0.65625 0 1.203125 -0.171875q0.5625 -0.1875 1.015625 -0.5q0.46875 -0.34375 0.828125 -0.828125q0.359375 -0.484375 0.59375 -1.046875q0.234375 -0.578125 0.34375 -1.21875q0.125 -0.640625 0.125 -1.328125zm-1.890625 -1.515625l0 1.515625q0 0.421875 -0.046875 0.84375q-0.046875 0.40625 -0.140625 0.78125q-0.109375 0.421875 -0.296875 0.78125q-0.171875 0.359375 -0.453125 0.609375q-0.234375 0.234375 -0.5625 0.375q-0.3125 0.125 -0.71875 0.125q-0.40625 0 -0.734375 -0.140625q-0.3125 -0.140625 -0.546875 -0.375q-0.25 -0.25 -0.4375 -0.609375q-0.171875 -0.359375 -0.265625 -0.78125q-0.09375 -0.375 -0.140625 -0.78125q-0.03125 -0.40625 -0.03125 -0.828125l0 -1.515625q0 -0.421875 0.03125 -0.828125q0.046875 -0.421875 0.140625 -0.796875q0.109375 -0.4375 0.296875 -0.796875q0.1875 -0.359375 0.453125 -0.609375q0.234375 -0.21875 0.53125 -0.328125q0.3125 -0.125 0.6875 -0.125q0.40625 0 0.71875 0.125q0.3125 0.125 0.546875 0.34375q0.28125 0.25 0.46875 0.609375q0.1875 0.34375 0.3125 0.78125q0.09375 0.375 0.140625 0.796875q0.046875 0.40625 0.046875 0.828125zm11.2578125 2.3125l0 -0.171875q0 -0.71875 -0.125 -1.359375q-0.125 -0.640625 -0.375 -1.15625q-0.1875 -0.375 -0.4375 -0.6875q-0.25 -0.328125 -0.5625 -0.546875q-0.359375 -0.265625 -0.828125 -0.40625q-0.453125 -0.140625 -1.0 -0.140625q-0.40625 0 -0.765625 0.078125q-0.359375 0.078125 -0.65625 0.25q-0.21875 0.125 -0.421875 0.296875q-0.1875 0.15625 -0.359375 0.359375l0 -4.375l-1.859375 0l0 12.0l1.6875 0l0.078125 -0.921875q0.140625 0.171875 0.296875 0.3125q0.15625 0.140625 0.328125 0.265625q0.328125 0.25 0.75 0.375q0.421875 0.125 0.9375 0.125q0.515625 0 0.9375 -0.140625q0.4375 -0.125 0.796875 -0.359375q0.4375 -0.28125 0.75 -0.71875q0.3125 -0.4375 0.5 -0.984375q0.15625 -0.453125 0.234375 -0.984375q0.09375 -0.53125 0.09375 -1.109375zm-1.859375 -0.171875l0 0.171875q0 0.34375 -0.046875 0.671875q-0.03125 0.328125 -0.109375 0.609375q-0.09375 0.375 -0.28125 0.6875q-0.171875 0.296875 -0.4375 0.484375q-0.203125 0.140625 -0.46875 0.234375q-0.25 0.078125 -0.578125 0.078125q-0.34375 0 -0.640625 -0.09375q-0.28125 -0.09375 -0.5 -0.25q-0.1875 -0.140625 -0.34375 -0.328125q-0.15625 -0.203125 -0.265625 -0.4375l0 -3.5q0.09375 -0.203125 0.21875 -0.375q0.140625 -0.171875 0.296875 -0.3125q0.234375 -0.1875 0.53125 -0.296875q0.3125 -0.109375 0.6875 -0.109375q0.3125 0 0.5625 0.078125q0.25 0.0625 0.453125 0.203125q0.296875 0.203125 0.46875 0.5q0.171875 0.296875 0.28125 0.65625q0.078125 0.296875 0.125 0.640625q0.046875 0.328125 0.046875 0.6875zm5.195305 -4.140625l0 1.546875l2.421875 0l0 7.046875q0 0.484375 -0.140625 0.8125q-0.125 0.328125 -0.34375 0.53125q-0.234375 0.203125 -0.546875 0.28125q-0.3125 0.09375 -0.65625 0.09375q-0.09375 0 -0.265625 -0.015625q-0.171875 0 -0.359375 -0.015625q-0.203125 0 -0.390625 -0.03125q-0.171875 -0.015625 -0.28125 -0.03125l-0.109375 1.515625q0.171875 0.03125 0.328125 0.046875q0.15625 0.03125 0.3125 0.046875q0.21875 0.03125 0.421875 0.03125q0.21875 0.015625 0.4375 0.015625q0.828125 0 1.46875 -0.203125q0.640625 -0.203125 1.09375 -0.609375q0.4375 -0.40625 0.671875 -1.03125q0.234375 -0.609375 0.234375 -1.4375l0 -8.59375l-4.296875 0zm2.25 -2.1875q0 0.4375 0.28125 0.734375q0.296875 0.28125 0.796875 0.28125q0.53125 0 0.8125 -0.28125q0.296875 -0.296875 0.296875 -0.734375q0 -0.453125 -0.296875 -0.734375q-0.28125 -0.296875 -0.8125 -0.296875q-0.515625 0 -0.796875 0.296875q-0.28125 0.296875 -0.28125 0.734375zm10.1328125 10.796875q1.234375 0 2.109375 -0.484375q0.875 -0.484375 1.296875 -1.09375l-1.0 -0.96875q-0.390625 0.5 -1.0 0.765625q-0.59375 0.265625 -1.296875 0.265625q-0.5 0 -0.9375 -0.171875q-0.421875 -0.171875 -0.734375 -0.484375q-0.3125 -0.296875 -0.5 -0.671875q-0.171875 -0.375 -0.25 -0.921875l0 -0.046875l5.859375 0l0 -0.796875q0 -0.90625 -0.25 -1.671875q-0.234375 -0.765625 -0.71875 -1.328125q-0.46875 -0.546875 -1.171875 -0.84375q-0.703125 -0.3125 -1.625 -0.3125q-0.8125 0 -1.546875 0.3125q-0.71875 0.296875 -1.265625 0.875q-0.546875 0.5625 -0.859375 1.375q-0.3125 0.796875 -0.3125 1.796875l0 0.3125q0 0.875 0.296875 1.625q0.3125 0.734375 0.859375 1.28125q0.5625 0.5625 1.328125 0.875q0.78125 0.3125 1.71875 0.3125zm-0.21875 -7.25q0.46875 0 0.8125 0.15625q0.359375 0.15625 0.59375 0.421875q0.25 0.28125 0.375 0.640625q0.140625 0.359375 0.140625 0.734375l0 0.125l-3.984375 0q0.09375 -0.484375 0.265625 -0.859375q0.1875 -0.390625 0.453125 -0.671875q0.265625 -0.265625 0.59375 -0.40625q0.34375 -0.140625 0.75 -0.140625zm9.5546875 5.75q-0.578125 0 -0.96875 -0.234375q-0.390625 -0.234375 -0.625 -0.625q-0.234375 -0.375 -0.328125 -0.875q-0.09375 -0.5 -0.09375 -1.015625l0 -0.265625q0 -0.515625 0.09375 -1.0q0.09375 -0.5 0.34375 -0.875q0.21875 -0.390625 0.609375 -0.625q0.390625 -0.234375 0.96875 -0.234375q0.390625 0 0.71875 0.140625q0.328125 0.125 0.578125 0.34375q0.234375 0.234375 0.359375 0.546875q0.125 0.296875 0.125 0.640625l1.765625 0q0 -0.703125 -0.265625 -1.28125q-0.25 -0.59375 -0.71875 -1.015625q-0.46875 -0.421875 -1.125 -0.65625q-0.65625 -0.234375 -1.421875 -0.234375q-0.96875 0 -1.703125 0.34375q-0.71875 0.328125 -1.21875 0.90625q-0.484375 0.578125 -0.734375 1.359375q-0.25 0.765625 -0.25 1.640625l0 0.265625q0 0.875 0.25 1.65625q0.25 0.765625 0.75 1.34375q0.484375 0.578125 1.203125 0.921875q0.734375 0.34375 1.71875 0.34375q0.703125 0 1.328125 -0.234375q0.640625 -0.234375 1.140625 -0.640625q0.484375 -0.390625 0.765625 -0.9375q0.28125 -0.546875 0.28125 -1.15625l-1.765625 0q0 0.3125 -0.140625 0.578125q-0.140625 0.265625 -0.390625 0.46875q-0.25 0.1875 -0.578125 0.296875q-0.3125 0.109375 -0.671875 0.109375zm9.6796875 -9.171875l-1.875 0l0 2.0625l-2.046875 0l0 1.390625l2.046875 0l0 4.15625q0 0.8125 0.203125 1.390625q0.21875 0.578125 0.609375 0.953125q0.375 0.375 0.90625 0.5625q0.546875 0.171875 1.1875 0.171875q0.34375 0 0.703125 -0.046875q0.359375 -0.03125 0.6875 -0.09375q0.328125 -0.0625 0.609375 -0.15625q0.28125 -0.09375 0.484375 -0.21875l-0.203125 -1.28125q-0.140625 0.03125 -0.34375 0.078125q-0.203125 0.03125 -0.4375 0.0625q-0.25 0.046875 -0.515625 0.078125q-0.25 0.015625 -0.484375 0.015625q-0.34375 0 -0.625 -0.078125q-0.28125 -0.078125 -0.484375 -0.265625q-0.203125 -0.1875 -0.3125 -0.5q-0.109375 -0.3125 -0.109375 -0.78125l0 -4.046875l3.171875 0l0 -1.390625l-3.171875 0l0 -2.0625zm7.8203125 6.171875l1.921875 0q0.859375 0 1.578125 -0.25q0.734375 -0.25 1.25 -0.703125q0.53125 -0.453125 0.8125 -1.09375q0.296875 -0.640625 0.296875 -1.421875q0 -0.828125 -0.296875 -1.484375q-0.28125 -0.65625 -0.8125 -1.109375q-0.515625 -0.46875 -1.25 -0.71875q-0.71875 -0.25 -1.578125 -0.25l-3.796875 0l0 11.375l1.875 0l0 -4.34375zm0 -1.53125l0 -3.96875l1.921875 0q0.484375 0 0.859375 0.15625q0.375 0.140625 0.640625 0.421875q0.265625 0.265625 0.40625 0.640625q0.140625 0.375 0.140625 0.828125q0 0.40625 -0.140625 0.765625q-0.140625 0.34375 -0.40625 0.609375q-0.265625 0.25 -0.640625 0.40625q-0.375 0.140625 -0.859375 0.140625l-1.921875 0zm7.2890625 1.5625l0 0.171875q0 0.921875 0.265625 1.703125q0.265625 0.78125 0.765625 1.359375q0.5 0.578125 1.234375 0.921875q0.734375 0.328125 1.671875 0.328125q0.921875 0 1.640625 -0.328125q0.734375 -0.34375 1.234375 -0.921875q0.5 -0.578125 0.765625 -1.359375q0.265625 -0.78125 0.265625 -1.703125l0 -0.171875q0 -0.921875 -0.265625 -1.703125q-0.265625 -0.78125 -0.765625 -1.359375q-0.5 -0.578125 -1.234375 -0.90625q-0.734375 -0.328125 -1.65625 -0.328125q-0.9375 0 -1.671875 0.328125q-0.71875 0.328125 -1.21875 0.90625q-0.5 0.578125 -0.765625 1.359375q-0.265625 0.78125 -0.265625 1.703125zm1.859375 0.171875l0 -0.171875q0 -0.546875 0.125 -1.046875q0.125 -0.515625 0.375 -0.90625q0.25 -0.375 0.640625 -0.59375q0.390625 -0.234375 0.921875 -0.234375q0.53125 0 0.921875 0.234375q0.390625 0.21875 0.640625 0.59375q0.25 0.390625 0.375 0.90625q0.125 0.5 0.125 1.046875l0 0.171875q0 0.5625 -0.125 1.078125q-0.125 0.5 -0.375 0.890625q-0.25 0.375 -0.640625 0.609375q-0.390625 0.21875 -0.90625 0.21875q-0.546875 0 -0.9375 -0.21875q-0.390625 -0.234375 -0.640625 -0.609375q-0.25 -0.390625 -0.375 -0.890625q-0.125 -0.515625 -0.125 -1.078125zm7.7421875 -0.171875l0 0.171875q0 0.921875 0.265625 1.703125q0.265625 0.78125 0.765625 1.359375q0.5 0.578125 1.234375 0.921875q0.734375 0.328125 1.671875 0.328125q0.921875 0 1.640625 -0.328125q0.734375 -0.34375 1.234375 -0.921875q0.5 -0.578125 0.765625 -1.359375q0.265625 -0.78125 0.265625 -1.703125l0 -0.171875q0 -0.921875 -0.265625 -1.703125q-0.265625 -0.78125 -0.765625 -1.359375q-0.5 -0.578125 -1.234375 -0.90625q-0.734375 -0.328125 -1.65625 -0.328125q-0.9375 0 -1.671875 0.328125q-0.71875 0.328125 -1.21875 0.90625q-0.5 0.578125 -0.765625 1.359375q-0.265625 0.78125 -0.265625 1.703125zm1.859375 0.171875l0 -0.171875q0 -0.546875 0.125 -1.046875q0.125 -0.515625 0.375 -0.90625q0.25 -0.375 0.640625 -0.59375q0.390625 -0.234375 0.921875 -0.234375q0.53125 0 0.921875 0.234375q0.390625 0.21875 0.640625 0.59375q0.25 0.390625 0.375 0.90625q0.125 0.5 0.125 1.046875l0 0.171875q0 0.5625 -0.125 1.078125q-0.125 0.5 -0.375 0.890625q-0.25 0.375 -0.640625 0.609375q-0.390625 0.21875 -0.90625 0.21875q-0.546875 0 -0.9375 -0.21875q-0.390625 -0.234375 -0.640625 -0.609375q-0.25 -0.390625 -0.375 -0.890625q-0.125 -0.515625 -0.125 -1.078125zm8.4453125 -7.859375l0 1.546875l2.671875 0l0 8.90625l-2.671875 0l0 1.546875l7.109375 0l0 -1.546875l-2.5625 0l0 -10.453125l-4.546875 0z" fill-rule="nonzero"/><path fill="#ffffff" d="m246.92258 151.96063l151.1181 0l0 27.496063l-151.1181 0z" fill-rule="evenodd"/><path stroke="#000000" stroke-width="2.0" stroke-linejoin="round" stroke-linecap="butt" d="m246.92258 151.96063l151.1181 0l0 27.496063l-151.1181 0z" fill-rule="evenodd"/><path fill="#ffffff" d="m398.04068 151.96063l151.11813 0l0 27.496063l-151.11813 0z" fill-rule="evenodd"/><path stroke="#000000" stroke-width="2.0" stroke-linejoin="round" stroke-linecap="butt" d="m398.04068 151.96063l151.11813 0l0 27.496063l-151.11813 0z" fill-rule="evenodd"/><path fill="#cccccc" d="m398.04068 151.96063l56.125977 0l0 27.496063l-56.125977 0z" fill-rule="evenodd"/><path stroke="#000000" stroke-width="2.0" stroke-linejoin="round" stroke-linecap="butt" d="m398.04068 151.96063l56.125977 0l0 27.496063l-56.125977 0z" fill-rule="evenodd"/><path fill="#ffffff" d="m549.1588 151.96063l151.1181 0l0 27.496063l-151.1181 0z" fill-rule="evenodd"/><path stroke="#000000" stroke-width="2.0" stroke-linejoin="round" stroke-linecap="butt" d="m549.1588 151.96063l151.1181 0l0 27.496063l-151.1181 0z" fill-rule="evenodd"/><path fill="#cccccc" d="m549.1588 151.96063l56.125977 0l0 27.496063l-56.125977 0z" fill-rule="evenodd"/><path stroke="#000000" stroke-width="2.0" stroke-linejoin="round" stroke-linecap="butt" d="m549.1588 151.96063l56.125977 0l0 27.496063l-56.125977 0z" fill-rule="evenodd"/><path fill="#000000" fill-opacity="0.0" d="m700.65485 132.87401l-123.590515 0.3779602" fill-rule="evenodd"/><path stroke="#000000" stroke-width="2.0" stroke-linejoin="round" stroke-linecap="butt" d="m700.65485 132.87401l-123.590515 0.3779602" fill-rule="evenodd"/><path fill="#000000" fill-opacity="0.0" d="m577.06433 169.94489l0.3149414 -37.795273" fill-rule="evenodd"/><path stroke="#000000" stroke-width="2.0" stroke-linejoin="round" stroke-linecap="butt" d="m577.12744 162.36514l0.25183105 -30.21553" fill-rule="evenodd"/><path fill="#000000" stroke="#000000" stroke-width="2.0" stroke-linecap="butt" d="m577.07263 168.94492c-1.8169556 -0.015136719 -3.277588 -1.500351 -3.2624512 -3.3173065c0.015136719 -1.8169403 1.5003052 -3.2776031 3.3172607 -3.2624664c1.8169556 0.015136719 3.277649 1.500351 3.2625122 3.3173065c-0.015136719 1.8169556 -1.5003662 3.2776031 -3.3173218 3.2624664z" fill-rule="nonzero"/><path fill="#000000" fill-opacity="0.0" d="m700.3714 151.96063l-0.18896484 -18.897644" fill-rule="evenodd"/><path stroke="#000000" stroke-width="2.0" stroke-linejoin="round" stroke-linecap="butt" d="m700.2514 139.96123l-0.06896973 -6.898239" fill-rule="evenodd"/><path fill="#000000" stroke="#000000" stroke-width="2.0" stroke-linecap="butt" d="m696.9481 139.99426l3.394043 9.042709l3.2125244 -9.10878z" fill-rule="evenodd"/><path fill="#000000" fill-opacity="0.0" d="m73.5 62.96063l71.18111 0l0 35.559055l-71.18111 0z" fill-rule="evenodd"/><path fill="#000000" d="m84.390625 77.71375l-1.34375 0l0 7.046875l1.421875 0l0 -5.40625q0.046875 -0.09375 0.09375 -0.171875q0.046875 -0.078125 0.109375 -0.140625q0.09375 -0.09375 0.203125 -0.125q0.125 -0.046875 0.28125 -0.046875q0.140625 0 0.25 0.046875q0.125 0.03125 0.203125 0.109375q0.09375 0.09375 0.125 0.25q0.046875 0.140625 0.046875 0.34375l0 5.140625l1.40625 0l0 -5.21875q0 -0.078125 0 -0.109375q0 -0.03125 0 -0.0625q0.03125 -0.109375 0.078125 -0.1875q0.046875 -0.09375 0.125 -0.15625q0.09375 -0.078125 0.203125 -0.109375q0.109375 -0.046875 0.25 -0.046875q0.15625 0 0.265625 0.046875q0.125 0.03125 0.203125 0.109375q0.09375 0.09375 0.140625 0.25q0.046875 0.140625 0.046875 0.34375l0 5.140625l1.421875 0l0 -5.125q0 -0.546875 -0.109375 -0.9375q-0.109375 -0.40625 -0.328125 -0.640625q-0.203125 -0.234375 -0.484375 -0.34375q-0.28125 -0.125 -0.625 -0.125q-0.265625 0 -0.484375 0.0625q-0.203125 0.0625 -0.390625 0.1875q-0.125 0.09375 -0.25 0.21875q-0.109375 0.125 -0.203125 0.28125q-0.0625 -0.171875 -0.15625 -0.296875q-0.09375 -0.125 -0.21875 -0.21875q-0.140625 -0.109375 -0.359375 -0.171875q-0.203125 -0.0625 -0.46875 -0.0625q-0.5 0 -0.859375 0.25q-0.34375 0.234375 -0.546875 0.65625l-0.046875 -0.78125zm13.045059 8.28125l0 -1.234375l-5.953125 0l0 1.234375l5.953125 0zm3.8419342 -1.234375l1.5625 0l0 -5.875l2.609375 0l0 -1.171875l-2.609375 0l0 -0.421875q0 -0.375 0.09375 -0.65625q0.09375 -0.28125 0.28125 -0.46875q0.203125 -0.203125 0.515625 -0.296875q0.3125 -0.109375 0.75 -0.109375q0.421875 0 0.75 0.0625q0.328125 0.046875 0.59375 0.109375l0.109375 -1.234375q-0.1875 -0.046875 -0.375 -0.078125q-0.1875 -0.03125 -0.375 -0.0625q-0.21875 -0.03125 -0.453125 -0.046875q-0.234375 -0.03125 -0.46875 -0.03125q-0.6875 0 -1.234375 0.1875q-0.546875 0.171875 -0.9375 0.53125q-0.390625 0.359375 -0.609375 0.890625q-0.203125 0.515625 -0.203125 1.203125l0 0.421875l-1.890625 0l0 1.171875l1.890625 0l0 5.875zm11.091934 -7.171875q-0.734375 0 -1.34375 0.34375q-0.59375 0.328125 -1.015625 0.921875l-0.015625 -0.15625l-0.0625 -0.984375l-1.453125 0l0 7.046875l1.5625 0l0 -4.34375q0.109375 -0.3125 0.296875 -0.546875q0.1875 -0.25 0.4375 -0.40625q0.25 -0.15625 0.5625 -0.234375q0.3125 -0.078125 0.703125 -0.078125q0.34375 0 0.6875 0.046875q0.359375 0.03125 0.703125 0.109375l0.234375 -1.546875q-0.203125 -0.0625 -0.5625 -0.109375q-0.359375 -0.0625 -0.734375 -0.0625zm6.420059 7.296875q1.03125 0 1.75 -0.390625q0.734375 -0.40625 1.078125 -0.921875l-0.828125 -0.796875q-0.328125 0.40625 -0.828125 0.640625q-0.5 0.21875 -1.078125 0.21875q-0.421875 0 -0.78125 -0.140625q-0.359375 -0.140625 -0.609375 -0.40625q-0.265625 -0.25 -0.421875 -0.5625q-0.140625 -0.3125 -0.21875 -0.765625l0 -0.046875l4.890625 0l0 -0.65625q0 -0.765625 -0.203125 -1.390625q-0.203125 -0.640625 -0.609375 -1.109375q-0.390625 -0.453125 -0.984375 -0.703125q-0.578125 -0.265625 -1.34375 -0.265625q-0.6875 0 -1.296875 0.265625q-0.59375 0.25 -1.046875 0.71875q-0.453125 0.484375 -0.71875 1.15625q-0.25 0.671875 -0.25 1.484375l0 0.265625q0 0.734375 0.25 1.359375q0.25 0.609375 0.703125 1.0625q0.46875 0.46875 1.109375 0.734375q0.65625 0.25 1.4375 0.25zm-0.1875 -6.03125q0.390625 0 0.6875 0.140625q0.296875 0.125 0.484375 0.34375q0.203125 0.234375 0.3125 0.53125q0.109375 0.296875 0.109375 0.609375l0 0.109375l-3.3125 0q0.078125 -0.40625 0.21875 -0.71875q0.15625 -0.328125 0.375 -0.5625q0.21875 -0.21875 0.5 -0.328125q0.296875 -0.125 0.625 -0.125zm8.185684 6.03125q1.03125 0 1.75 -0.390625q0.734375 -0.40625 1.078125 -0.921875l-0.828125 -0.796875q-0.328125 0.40625 -0.828125 0.640625q-0.5 0.21875 -1.078125 0.21875q-0.421875 0 -0.78125 -0.140625q-0.359375 -0.140625 -0.609375 -0.40625q-0.265625 -0.25 -0.421875 -0.5625q-0.140625 -0.3125 -0.21875 -0.765625l0 -0.046875l4.890625 0l0 -0.65625q0 -0.765625 -0.203125 -1.390625q-0.203125 -0.640625 -0.609375 -1.109375q-0.390625 -0.453125 -0.984375 -0.703125q-0.578125 -0.265625 -1.34375 -0.265625q-0.6875 0 -1.296875 0.265625q-0.59375 0.25 -1.046875 0.71875q-0.453125 0.484375 -0.71875 1.15625q-0.25 0.671875 -0.25 1.484375l0 0.265625q0 0.734375 0.25 1.359375q0.25 0.609375 0.703125 1.0625q0.46875 0.46875 1.109375 0.734375q0.65625 0.25 1.4375 0.25zm-0.1875 -6.03125q0.390625 0 0.6875 0.140625q0.296875 0.125 0.484375 0.34375q0.203125 0.234375 0.3125 0.53125q0.109375 0.296875 0.109375 0.609375l0 0.109375l-3.3125 0q0.078125 -0.40625 0.21875 -0.71875q0.15625 -0.328125 0.375 -0.5625q0.21875 -0.21875 0.5 -0.328125q0.296875 -0.125 0.625 -0.125z" fill-rule="nonzero"/><path fill="#000000" fill-opacity="0.0" d="m117.38976 176.68898l71.1811 0l0 35.55905l-71.1811 0z" fill-rule="evenodd"/><path fill="#000000" d="m133.48352 194.87961l0 -2.25q0 -0.90625 -0.21875 -1.609375q-0.21875 -0.703125 -0.609375 -1.1875q-0.40625 -0.46875 -0.984375 -0.703125q-0.5625 -0.25 -1.28125 -0.25q-0.71875 0 -1.296875 0.25q-0.5625 0.234375 -0.953125 0.703125q-0.39063263 0.484375 -0.6093826 1.1875q-0.203125 0.703125 -0.203125 1.609375l0 2.25q0 0.90625 0.203125 1.609375q0.21875 0.703125 0.6093826 1.171875q0.40625 0.484375 0.96875 0.734375q0.578125 0.234375 1.296875 0.234375q0.71875 0 1.28125 -0.234375q0.578125 -0.25 0.96875 -0.734375q0.40625 -0.46875 0.609375 -1.171875q0.21875 -0.703125 0.21875 -1.609375zm-4.59375 -0.5625q0 -0.1875 0 -0.3125q0 -0.125 0 -0.375l0 -1.28125q0 -0.578125 0.09375 -1.015625q0.109375 -0.4375 0.328125 -0.703125q0.171875 -0.25 0.4375 -0.359375q0.28125 -0.125 0.640625 -0.125q0.328125 0 0.59375 0.109375q0.265625 0.09375 0.453125 0.296875q0.203125 0.234375 0.3125 0.609375q0.125 0.375 0.140625 0.875l-3.0 2.28125zm3.015625 0.828125q0 0.59375 -0.109375 1.03125q-0.109375 0.4375 -0.3125 0.71875q-0.1875 0.234375 -0.46875 0.359375q-0.265625 0.109375 -0.609375 0.109375q-0.359375 0 -0.625 -0.109375q-0.265625 -0.125 -0.453125 -0.375q-0.1875 -0.234375 -0.296875 -0.578125q-0.109375 -0.34375 -0.140625 -0.796875l3.015625 -2.265625q0 0.1875 0 0.359375q0 0.171875 0 0.34375l0 1.203125zm6.576309 -1.328125l-1.65625 -2.375l-1.71875 0l2.46875 3.46875l-2.546875 3.578125l1.71875 0l1.75 -2.453125l1.765625 2.453125l1.71875 0l-2.5625 -3.578125l2.484375 -3.46875l-1.734375 0l-1.6875 2.375zm9.123184 4.671875l0 -9.46875l-0.09375 0l-3.90625 1.4375l0 1.375l2.4375 -0.890625l0 7.546875l1.5625 0zm9.873184 -3.609375l0 -2.25q0 -0.90625 -0.21875 -1.609375q-0.21875 -0.703125 -0.609375 -1.1875q-0.40625 -0.46875 -0.984375 -0.703125q-0.5625 -0.25 -1.28125 -0.25q-0.71875 0 -1.296875 0.25q-0.5625 0.234375 -0.953125 0.703125q-0.390625 0.484375 -0.609375 1.1875q-0.203125 0.703125 -0.203125 1.609375l0 2.25q0 0.90625 0.203125 1.609375q0.21875 0.703125 0.609375 1.171875q0.40625 0.484375 0.96875 0.734375q0.578125 0.234375 1.296875 0.234375q0.71875 0 1.28125 -0.234375q0.578125 -0.25 0.96875 -0.734375q0.40625 -0.46875 0.609375 -1.171875q0.21875 -0.703125 0.21875 -1.609375zm-4.59375 -0.5625q0 -0.1875 0 -0.3125q0 -0.125 0 -0.375l0 -1.28125q0 -0.578125 0.09375 -1.015625q0.109375 -0.4375 0.328125 -0.703125q0.171875 -0.25 0.4375 -0.359375q0.28125 -0.125 0.640625 -0.125q0.328125 0 0.59375 0.109375q0.265625 0.09375 0.453125 0.296875q0.203125 0.234375 0.3125 0.609375q0.125 0.375 0.140625 0.875l-3.0 2.28125zm3.015625 0.828125q0 0.59375 -0.109375 1.03125q-0.109375 0.4375 -0.3125 0.71875q-0.1875 0.234375 -0.46875 0.359375q-0.265625 0.109375 -0.609375 0.109375q-0.359375 0 -0.625 -0.109375q-0.265625 -0.125 -0.453125 -0.375q-0.1875 -0.234375 -0.296875 -0.578125q-0.109375 -0.34375 -0.140625 -0.796875l3.015625 -2.265625q0 0.1875 0 0.359375q0 0.171875 0 0.34375l0 1.203125zm9.529434 3.34375l0 -1.25l-4.421875 0l2.109375 -2.25q0.421875 -0.453125 0.765625 -0.859375q0.359375 -0.421875 0.625 -0.828125q0.25 -0.421875 0.390625 -0.828125q0.15625 -0.421875 0.15625 -0.875q0 -0.59375 -0.203125 -1.09375q-0.1875 -0.5 -0.5625 -0.859375q-0.375 -0.359375 -0.921875 -0.5625q-0.546875 -0.203125 -1.25 -0.203125q-0.734375 0 -1.34375 0.25q-0.59375 0.234375 -1.015625 0.640625q-0.421875 0.421875 -0.65625 0.96875q-0.21875 0.546875 -0.21875 1.15625l1.5625 0q0 -0.40625 0.09375 -0.71875q0.109375 -0.328125 0.3125 -0.5625q0.203125 -0.203125 0.5 -0.3125q0.3125 -0.125 0.734375 -0.125q0.328125 0 0.59375 0.109375q0.265625 0.109375 0.453125 0.296875q0.1875 0.203125 0.28125 0.484375q0.09375 0.265625 0.09375 0.59375q0 0.25 -0.078125 0.5q-0.0625 0.234375 -0.21875 0.515625q-0.15625 0.28125 -0.421875 0.625q-0.25 0.328125 -0.640625 0.75l-3.078125 3.359375l0 1.078125l6.359375 0zm7.076309 -3.375l0 -6.09375l-1.609375 0l-4.09375 6.390625l0.046875 0.96875l4.09375 0l0 2.109375l1.5625 0l0 -2.109375l1.1875 0l0 -1.265625l-1.1875 0zm-4.109375 0l2.375 -3.671875l0.171875 -0.34375l0 4.015625l-2.546875 0z" fill-rule="nonzero"/><path fill="#000000" fill-opacity="0.0" d="m549.1588 133.06299l-123.590576 0.3779602" fill-rule="evenodd"/><path stroke="#000000" stroke-width="2.0" stroke-linejoin="round" stroke-linecap="butt" d="m549.1588 133.06299l-123.590576 0.3779602" fill-rule="evenodd"/><path fill="#000000" fill-opacity="0.0" d="m425.8517 169.94489l0.3149414 -37.795273" fill-rule="evenodd"/><path stroke="#000000" stroke-width="2.0" stroke-linejoin="round" stroke-linecap="butt" d="m425.91486 162.36514l0.25180054 -30.21553" fill-rule="evenodd"/><path fill="#000000" stroke="#000000" stroke-width="2.0" stroke-linecap="butt" d="m425.86005 168.94492c-1.8169556 -0.015136719 -3.2776184 -1.500351 -3.2624817 -3.3173065c0.015136719 -1.8169403 1.5003662 -3.2776031 3.3172913 -3.2624664c1.8169556 0.015136719 3.2776184 1.500351 3.2624817 3.3173065c-0.015136719 1.8169556 -1.5003357 3.2776031 -3.3172913 3.2624664z" fill-rule="nonzero"/><path fill="#000000" fill-opacity="0.0" d="m549.1588 151.96063l-0.18902588 -18.897644" fill-rule="evenodd"/><path stroke="#000000" stroke-width="2.0" stroke-linejoin="round" stroke-linecap="butt" d="m549.0388 139.96123l-0.06903076 -6.898239" fill-rule="evenodd"/><path fill="#000000" stroke="#000000" stroke-width="2.0" stroke-linecap="butt" d="m545.7355 139.99426l3.394104 9.042709l3.2125244 -9.10878z" fill-rule="evenodd"/><path fill="#000000" fill-opacity="0.0" d="m388.19815 176.68898l71.18112 0l0 35.55905l-71.18112 0z" fill-rule="evenodd"/><path fill="#000000" d="m404.2919 194.87961l0 -2.25q0 -0.90625 -0.21875 -1.609375q-0.21875 -0.703125 -0.609375 -1.1875q-0.40625 -0.46875 -0.984375 -0.703125q-0.5625 -0.25 -1.28125 -0.25q-0.71875 0 -1.296875 0.25q-0.5625 0.234375 -0.953125 0.703125q-0.390625 0.484375 -0.609375 1.1875q-0.203125 0.703125 -0.203125 1.609375l0 2.25q0 0.90625 0.203125 1.609375q0.21875 0.703125 0.609375 1.171875q0.40625 0.484375 0.96875 0.734375q0.578125 0.234375 1.296875 0.234375q0.71875 0 1.28125 -0.234375q0.578125 -0.25 0.96875 -0.734375q0.40625 -0.46875 0.609375 -1.171875q0.21875 -0.703125 0.21875 -1.609375zm-4.59375 -0.5625q0 -0.1875 0 -0.3125q0 -0.125 0 -0.375l0 -1.28125q0 -0.578125 0.09375 -1.015625q0.109375 -0.4375 0.328125 -0.703125q0.171875 -0.25 0.4375 -0.359375q0.28125 -0.125 0.640625 -0.125q0.328125 0 0.59375 0.109375q0.265625 0.09375 0.453125 0.296875q0.203125 0.234375 0.3125 0.609375q0.125 0.375 0.140625 0.875l-3.0 2.28125zm3.015625 0.828125q0 0.59375 -0.109375 1.03125q-0.109375 0.4375 -0.3125 0.71875q-0.1875 0.234375 -0.46875 0.359375q-0.265625 0.109375 -0.609375 0.109375q-0.359375 0 -0.625 -0.109375q-0.265625 -0.125 -0.453125 -0.375q-0.1875 -0.234375 -0.296875 -0.578125q-0.109375 -0.34375 -0.140625 -0.796875l3.015625 -2.265625q0 0.1875 0 0.359375q0 0.171875 0 0.34375l0 1.203125zm6.5763245 -1.328125l-1.65625 -2.375l-1.71875 0l2.46875 3.46875l-2.546875 3.578125l1.71875 0l1.75 -2.453125l1.765625 2.453125l1.71875 0l-2.5625 -3.578125l2.484375 -3.46875l-1.734375 0l-1.6875 2.375zm9.123169 4.671875l0 -9.46875l-0.09375 0l-3.90625 1.4375l0 1.375l2.4375 -0.890625l0 7.546875l1.5625 0zm9.873199 -3.609375l0 -2.25q0 -0.90625 -0.21875 -1.609375q-0.21875 -0.703125 -0.609375 -1.1875q-0.40625 -0.46875 -0.984375 -0.703125q-0.5625 -0.25 -1.28125 -0.25q-0.71875 0 -1.296875 0.25q-0.5625 0.234375 -0.953125 0.703125q-0.390625 0.484375 -0.609375 1.1875q-0.203125 0.703125 -0.203125 1.609375l0 2.25q0 0.90625 0.203125 1.609375q0.21875 0.703125 0.609375 1.171875q0.40625 0.484375 0.96875 0.734375q0.578125 0.234375 1.296875 0.234375q0.71875 0 1.28125 -0.234375q0.578125 -0.25 0.96875 -0.734375q0.40625 -0.46875 0.609375 -1.171875q0.21875 -0.703125 0.21875 -1.609375zm-4.59375 -0.5625q0 -0.1875 0 -0.3125q0 -0.125 0 -0.375l0 -1.28125q0 -0.578125 0.09375 -1.015625q0.109375 -0.4375 0.328125 -0.703125q0.171875 -0.25 0.4375 -0.359375q0.28125 -0.125 0.640625 -0.125q0.328125 0 0.59375 0.109375q0.265625 0.09375 0.453125 0.296875q0.203125 0.234375 0.3125 0.609375q0.125 0.375 0.140625 0.875l-3.0 2.28125zm3.015625 0.828125q0 0.59375 -0.109375 1.03125q-0.109375 0.4375 -0.3125 0.71875q-0.1875 0.234375 -0.46875 0.359375q-0.265625 0.109375 -0.609375 0.109375q-0.359375 0 -0.625 -0.109375q-0.265625 -0.125 -0.453125 -0.375q-0.1875 -0.234375 -0.296875 -0.578125q-0.109375 -0.34375 -0.140625 -0.796875l3.015625 -2.265625q0 0.1875 0 0.359375q0 0.171875 0 0.34375l0 1.203125zm8.138794 -6.171875l-0.1875 0q-1.109375 0 -1.96875 0.34375q-0.84375 0.34375 -1.4375 0.984375q-0.6875 0.75 -0.984375 1.796875q-0.296875 1.03125 -0.296875 2.171875l0 0.640625q0 0.765625 0.21875 1.453125q0.21875 0.6875 0.65625 1.1875q0.40625 0.5 0.984375 0.78125q0.59375 0.28125 1.328125 0.28125q0.734375 0 1.296875 -0.25q0.578125 -0.25 0.96875 -0.6875q0.390625 -0.4375 0.59375 -1.015625q0.21875 -0.59375 0.21875 -1.28125q0 -0.609375 -0.171875 -1.1875q-0.15625 -0.578125 -0.484375 -1.015625q-0.34375 -0.4375 -0.859375 -0.703125q-0.5 -0.265625 -1.1875 -0.265625q-0.328125 0 -0.625 0.078125q-0.296875 0.078125 -0.53125 0.203125q-0.25 0.125 -0.46875 0.296875q-0.203125 0.171875 -0.359375 0.34375q0.0625 -0.609375 0.265625 -1.125q0.21875 -0.53125 0.625 -0.921875q0.390625 -0.375 0.953125 -0.578125q0.578125 -0.21875 1.34375 -0.21875l0.109375 0l0 -1.3125zm-1.703125 4.5q0.375 0 0.65625 0.15625q0.296875 0.15625 0.5 0.421875q0.1875 0.265625 0.28125 0.625q0.109375 0.34375 0.109375 0.75q0 0.40625 -0.109375 0.765625q-0.09375 0.359375 -0.296875 0.625q-0.203125 0.25 -0.484375 0.40625q-0.28125 0.140625 -0.65625 0.140625q-0.328125 0 -0.625 -0.15625q-0.28125 -0.15625 -0.515625 -0.4375q-0.21875 -0.28125 -0.34375 -0.703125q-0.125 -0.4375 -0.125 -1.0l0 -0.484375q0.109375 -0.25 0.265625 -0.4375q0.15625 -0.203125 0.34375 -0.34375q0.21875 -0.15625 0.46875 -0.234375q0.25 -0.09375 0.53125 -0.09375zm10.170074 1.640625l0 -6.09375l-1.609375 0l-4.09375 6.390625l0.046875 0.96875l4.09375 0l0 2.109375l1.5625 0l0 -2.109375l1.1875 0l0 -1.265625l-1.1875 0zm-4.109375 0l2.375 -3.671875l0.171875 -0.34375l0 4.015625l-2.546875 0z" fill-rule="nonzero"/><path fill="#000000" fill-opacity="0.0" d="m540.16144 176.68898l71.18109 0l0 35.55905l-71.18109 0z" fill-rule="evenodd"/><path fill="#000000" d="m556.2552 194.87961l0 -2.25q0 -0.90625 -0.21875 -1.609375q-0.21875 -0.703125 -0.609375 -1.1875q-0.40625 -0.46875 -0.984375 -0.703125q-0.5625 -0.25 -1.28125 -0.25q-0.71875 0 -1.296875 0.25q-0.5625 0.234375 -0.953125 0.703125q-0.390625 0.484375 -0.609375 1.1875q-0.203125 0.703125 -0.203125 1.609375l0 2.25q0 0.90625 0.203125 1.609375q0.21875 0.703125 0.609375 1.171875q0.40625 0.484375 0.96875 0.734375q0.578125 0.234375 1.296875 0.234375q0.71875 0 1.28125 -0.234375q0.578125 -0.25 0.96875 -0.734375q0.40625 -0.46875 0.609375 -1.171875q0.21875 -0.703125 0.21875 -1.609375zm-4.59375 -0.5625q0 -0.1875 0 -0.3125q0 -0.125 0 -0.375l0 -1.28125q0 -0.578125 0.09375 -1.015625q0.109375 -0.4375 0.328125 -0.703125q0.171875 -0.25 0.4375 -0.359375q0.28125 -0.125 0.640625 -0.125q0.328125 0 0.59375 0.109375q0.265625 0.09375 0.453125 0.296875q0.203125 0.234375 0.3125 0.609375q0.125 0.375 0.140625 0.875l-3.0 2.28125zm3.015625 0.828125q0 0.59375 -0.109375 1.03125q-0.109375 0.4375 -0.3125 0.71875q-0.1875 0.234375 -0.46875 0.359375q-0.265625 0.109375 -0.609375 0.109375q-0.359375 0 -0.625 -0.109375q-0.265625 -0.125 -0.453125 -0.375q-0.1875 -0.234375 -0.296875 -0.578125q-0.109375 -0.34375 -0.140625 -0.796875l3.015625 -2.265625q0 0.1875 0 0.359375q0 0.171875 0 0.34375l0 1.203125zm6.576294 -1.328125l-1.65625 -2.375l-1.71875 0l2.46875 3.46875l-2.546875 3.578125l1.71875 0l1.75 -2.453125l1.765625 2.453125l1.71875 0l-2.5625 -3.578125l2.484375 -3.46875l-1.734375 0l-1.6875 2.375zm9.123169 4.671875l0 -9.46875l-0.09375 0l-3.90625 1.4375l0 1.375l2.4375 -0.890625l0 7.546875l1.5625 0zm9.873169 -3.609375l0 -2.25q0 -0.90625 -0.21875 -1.609375q-0.21875 -0.703125 -0.609375 -1.1875q-0.40625 -0.46875 -0.984375 -0.703125q-0.5625 -0.25 -1.28125 -0.25q-0.71875 0 -1.296875 0.25q-0.5625 0.234375 -0.953125 0.703125q-0.390625 0.484375 -0.609375 1.1875q-0.203125 0.703125 -0.203125 1.609375l0 2.25q0 0.90625 0.203125 1.609375q0.21875 0.703125 0.609375 1.171875q0.40625 0.484375 0.96875 0.734375q0.578125 0.234375 1.296875 0.234375q0.71875 0 1.28125 -0.234375q0.578125 -0.25 0.96875 -0.734375q0.40625 -0.46875 0.609375 -1.171875q0.21875 -0.703125 0.21875 -1.609375zm-4.59375 -0.5625q0 -0.1875 0 -0.3125q0 -0.125 0 -0.375l0 -1.28125q0 -0.578125 0.09375 -1.015625q0.109375 -0.4375 0.328125 -0.703125q0.171875 -0.25 0.4375 -0.359375q0.28125 -0.125 0.640625 -0.125q0.328125 0 0.59375 0.109375q0.265625 0.09375 0.453125 0.296875q0.203125 0.234375 0.3125 0.609375q0.125 0.375 0.140625 0.875l-3.0 2.28125zm3.015625 0.828125q0 0.59375 -0.109375 1.03125q-0.109375 0.4375 -0.3125 0.71875q-0.1875 0.234375 -0.46875 0.359375q-0.265625 0.109375 -0.609375 0.109375q-0.359375 0 -0.625 -0.109375q-0.265625 -0.125 -0.453125 -0.375q-0.1875 -0.234375 -0.296875 -0.578125q-0.109375 -0.34375 -0.140625 -0.796875l3.015625 -2.265625q0 0.1875 0 0.359375q0 0.171875 0 0.34375l0 1.203125zm9.388855 -3.625q0 -0.640625 -0.21875 -1.125q-0.21875 -0.5 -0.609375 -0.828125q-0.390625 -0.34375 -0.921875 -0.515625q-0.53125 -0.171875 -1.15625 -0.171875q-0.640625 0 -1.171875 0.171875q-0.53125 0.171875 -0.90625 0.515625q-0.375 0.34375 -0.59375 0.828125q-0.21875 0.484375 -0.21875 1.125q0 0.34375 0.09375 0.671875q0.09375 0.3125 0.28125 0.578125q0.15625 0.265625 0.40625 0.484375q0.25 0.203125 0.546875 0.359375q-0.359375 0.15625 -0.640625 0.390625q-0.28125 0.234375 -0.484375 0.515625q-0.203125 0.296875 -0.3125 0.65625q-0.109375 0.34375 -0.109375 0.734375q0 0.671875 0.234375 1.171875q0.25 0.5 0.671875 0.84375q0.421875 0.34375 0.984375 0.515625q0.5625 0.171875 1.234375 0.171875q0.65625 0 1.21875 -0.171875q0.5625 -0.171875 0.984375 -0.515625q0.40625 -0.34375 0.640625 -0.84375q0.25 -0.515625 0.25 -1.171875q0 -0.46875 -0.15625 -0.859375q-0.140625 -0.390625 -0.40625 -0.703125q-0.1875 -0.234375 -0.4375 -0.40625q-0.25 -0.1875 -0.546875 -0.328125q0.25 -0.125 0.453125 -0.28125q0.203125 -0.171875 0.359375 -0.359375q0.25 -0.296875 0.390625 -0.65625q0.140625 -0.375 0.140625 -0.796875zm-1.34375 4.3125q0 0.359375 -0.125 0.640625q-0.109375 0.28125 -0.3125 0.484375q-0.203125 0.203125 -0.484375 0.3125q-0.28125 0.09375 -0.625 0.09375q-0.359375 0 -0.640625 -0.09375q-0.28125 -0.109375 -0.484375 -0.296875q-0.203125 -0.203125 -0.328125 -0.484375q-0.109375 -0.296875 -0.109375 -0.65625q0 -0.359375 0.109375 -0.640625q0.109375 -0.296875 0.3125 -0.515625q0.203125 -0.203125 0.484375 -0.3125q0.28125 -0.109375 0.640625 -0.109375q0.34375 0 0.625 0.109375q0.296875 0.109375 0.5 0.3125q0.203125 0.21875 0.3125 0.515625q0.125 0.28125 0.125 0.640625zm-0.203125 -4.265625q0 0.328125 -0.109375 0.59375q-0.09375 0.25 -0.265625 0.4375q-0.171875 0.1875 -0.421875 0.296875q-0.25 0.09375 -0.546875 0.09375q-0.3125 0 -0.5625 -0.09375q-0.25 -0.109375 -0.421875 -0.296875q-0.1875 -0.1875 -0.28125 -0.4375q-0.078125 -0.265625 -0.078125 -0.59375q0 -0.328125 0.078125 -0.59375q0.09375 -0.265625 0.265625 -0.4375q0.1875 -0.1875 0.421875 -0.28125q0.25 -0.109375 0.546875 -0.109375q0.3125 0 0.5625 0.109375q0.25 0.09375 0.4375 0.28125q0.171875 0.203125 0.265625 0.46875q0.109375 0.25 0.109375 0.5625zm8.763794 3.546875l0 -6.09375l-1.609375 0l-4.09375 6.390625l0.046875 0.96875l4.09375 0l0 2.109375l1.5625 0l0 -2.109375l1.1875 0l0 -1.265625l-1.1875 0zm-4.109375 0l2.375 -3.671875l0.171875 -0.34375l0 4.015625l-2.546875 0z" fill-rule="nonzero"/><path fill="#ffffff" d="m700.18243 151.96063l151.1181 0l0 27.496063l-151.1181 0z" fill-rule="evenodd"/><path stroke="#000000" stroke-width="2.0" stroke-linejoin="round" stroke-linecap="butt" d="m700.18243 151.96063l151.1181 0l0 27.496063l-151.1181 0z" fill-rule="evenodd"/><path fill="#cccccc" d="m700.18243 151.96063l56.125977 0l0 27.496063l-56.125977 0z" fill-rule="evenodd"/><path stroke="#000000" stroke-width="2.0" stroke-linejoin="round" stroke-linecap="butt" d="m700.18243 151.96063l56.125977 0l0 27.496063l-56.125977 0z" fill-rule="evenodd"/><path fill="#000000" fill-opacity="0.0" d="m692.1247 176.68898l71.18109 0l0 35.55905l-71.18109 0z" fill-rule="evenodd"/><path fill="#000000" d="m708.21844 194.87961l0 -2.25q0 -0.90625 -0.21875 -1.609375q-0.21875 -0.703125 -0.609375 -1.1875q-0.40625 -0.46875 -0.984375 -0.703125q-0.5625 -0.25 -1.28125 -0.25q-0.71875 0 -1.296875 0.25q-0.5625 0.234375 -0.953125 0.703125q-0.390625 0.484375 -0.609375 1.1875q-0.203125 0.703125 -0.203125 1.609375l0 2.25q0 0.90625 0.203125 1.609375q0.21875 0.703125 0.609375 1.171875q0.40625 0.484375 0.96875 0.734375q0.578125 0.234375 1.296875 0.234375q0.71875 0 1.28125 -0.234375q0.578125 -0.25 0.96875 -0.734375q0.40625 -0.46875 0.609375 -1.171875q0.21875 -0.703125 0.21875 -1.609375zm-4.59375 -0.5625q0 -0.1875 0 -0.3125q0 -0.125 0 -0.375l0 -1.28125q0 -0.578125 0.09375 -1.015625q0.109375 -0.4375 0.328125 -0.703125q0.171875 -0.25 0.4375 -0.359375q0.28125 -0.125 0.640625 -0.125q0.328125 0 0.59375 0.109375q0.265625 0.09375 0.453125 0.296875q0.203125 0.234375 0.3125 0.609375q0.125 0.375 0.140625 0.875l-3.0 2.28125zm3.015625 0.828125q0 0.59375 -0.109375 1.03125q-0.109375 0.4375 -0.3125 0.71875q-0.1875 0.234375 -0.46875 0.359375q-0.265625 0.109375 -0.609375 0.109375q-0.359375 0 -0.625 -0.109375q-0.265625 -0.125 -0.453125 -0.375q-0.1875 -0.234375 -0.296875 -0.578125q-0.109375 -0.34375 -0.140625 -0.796875l3.015625 -2.265625q0 0.1875 0 0.359375q0 0.171875 0 0.34375l0 1.203125zm6.576294 -1.328125l-1.65625 -2.375l-1.71875 0l2.46875 3.46875l-2.546875 3.578125l1.71875 0l1.75 -2.453125l1.765625 2.453125l1.71875 0l-2.5625 -3.578125l2.484375 -3.46875l-1.734375 0l-1.6875 2.375zm9.123169 4.671875l0 -9.46875l-0.09375 0l-3.90625 1.4375l0 1.375l2.4375 -0.890625l0 7.546875l1.5625 0zm9.873169 -3.609375l0 -2.25q0 -0.90625 -0.21875 -1.609375q-0.21875 -0.703125 -0.609375 -1.1875q-0.40625 -0.46875 -0.984375 -0.703125q-0.5625 -0.25 -1.28125 -0.25q-0.71875 0 -1.296875 0.25q-0.5625 0.234375 -0.953125 0.703125q-0.390625 0.484375 -0.609375 1.1875q-0.203125 0.703125 -0.203125 1.609375l0 2.25q0 0.90625 0.203125 1.609375q0.21875 0.703125 0.609375 1.171875q0.40625 0.484375 0.96875 0.734375q0.578125 0.234375 1.296875 0.234375q0.71875 0 1.28125 -0.234375q0.578125 -0.25 0.96875 -0.734375q0.40625 -0.46875 0.609375 -1.171875q0.21875 -0.703125 0.21875 -1.609375zm-4.59375 -0.5625q0 -0.1875 0 -0.3125q0 -0.125 0 -0.375l0 -1.28125q0 -0.578125 0.09375 -1.015625q0.109375 -0.4375 0.328125 -0.703125q0.171875 -0.25 0.4375 -0.359375q0.28125 -0.125 0.640625 -0.125q0.328125 0 0.59375 0.109375q0.265625 0.09375 0.453125 0.296875q0.203125 0.234375 0.3125 0.609375q0.125 0.375 0.140625 0.875l-3.0 2.28125zm3.015625 0.828125q0 0.59375 -0.109375 1.03125q-0.109375 0.4375 -0.3125 0.71875q-0.1875 0.234375 -0.46875 0.359375q-0.265625 0.109375 -0.609375 0.109375q-0.359375 0 -0.625 -0.109375q-0.265625 -0.125 -0.453125 -0.375q-0.1875 -0.234375 -0.296875 -0.578125q-0.109375 -0.34375 -0.140625 -0.796875l3.015625 -2.265625q0 0.1875 0 0.359375q0 0.171875 0 0.34375l0 1.203125zm8.06073 1.15625l0.625 2.1875l1.625 0l-3.03125 -9.46875l-1.390625 0l-3.078125 9.46875l1.625 0l0.640625 -2.1875l2.984375 0zm-2.578125 -1.328125l1.09375 -3.75l1.09375 3.75l-2.1875 0zm11.123169 0.140625l0 -6.09375l-1.609375 0l-4.09375 6.390625l0.046875 0.96875l4.09375 0l0 2.109375l1.5625 0l0 -2.109375l1.1875 0l0 -1.265625l-1.1875 0zm-4.109375 0l2.375 -3.671875l0.171875 -0.34375l0 4.015625l-2.546875 0z" fill-rule="nonzero"/><path fill="#000000" d="m723.0066 160.70079l9.417297 0l0 10.015747l-9.417297 0z" fill-rule="evenodd"/><path stroke="#000000" stroke-width="1.0" stroke-linejoin="round" stroke-linecap="butt" d="m723.0066 160.70079l9.417297 0l0 10.015747l-9.417297 0z" fill-rule="evenodd"/><path fill="#cccccc" d="m19.248032 246.56299l56.125984 0l0 20.440948l-56.125984 0z" fill-rule="evenodd"/><path stroke="#000000" stroke-width="2.0" stroke-linejoin="round" stroke-linecap="butt" d="m19.248032 246.56299l56.125984 0l0 20.440948l-56.125984 0z" fill-rule="evenodd"/><path fill="#000000" fill-opacity="0.0" d="m73.5 239.00394l67.433075 0l0 35.55905l-67.433075 0z" fill-rule="evenodd"/><path fill="#000000" d="m84.390625 253.75706l-1.34375 0l0 7.0468597l1.421875 0l0 -5.4062347q0.046875 -0.09375 0.09375 -0.171875q0.046875 -0.078125 0.109375 -0.140625q0.09375 -0.09375 0.203125 -0.125q0.125 -0.046875 0.28125 -0.046875q0.140625 0 0.25 0.046875q0.125 0.03125 0.203125 0.109375q0.09375 0.09375 0.125 0.25q0.046875 0.140625 0.046875 0.34375l0 5.1406097l1.40625 0l0 -5.2187347q0 -0.078125 0 -0.109375q0 -0.03125 0 -0.0625q0.03125 -0.109375 0.078125 -0.1875q0.046875 -0.09375 0.125 -0.15625q0.09375 -0.078125 0.203125 -0.109375q0.109375 -0.046875 0.25 -0.046875q0.15625 0 0.265625 0.046875q0.125 0.03125 0.203125 0.109375q0.09375 0.09375 0.140625 0.25q0.046875 0.140625 0.046875 0.34375l0 5.1406097l1.421875 0l0 -5.1249847q0 -0.546875 -0.109375 -0.9375q-0.109375 -0.40625 -0.328125 -0.640625q-0.203125 -0.234375 -0.484375 -0.34375q-0.28125 -0.125 -0.625 -0.125q-0.265625 0 -0.484375 0.0625q-0.203125 0.0625 -0.390625 0.1875q-0.125 0.09375 -0.25 0.21875q-0.109375 0.125 -0.203125 0.28125q-0.0625 -0.171875 -0.15625 -0.296875q-0.09375 -0.125 -0.21875 -0.21875q-0.140625 -0.109375 -0.359375 -0.171875q-0.203125 -0.0625 -0.46875 -0.0625q-0.5 0 -0.859375 0.25q-0.34375 0.234375 -0.546875 0.65625l-0.046875 -0.78125zm13.045059 8.281235l0 -1.234375l-5.953125 0l0 1.234375l5.953125 0zm2.0763092 1.46875l1.5625 0l0 -3.34375q0.125 0.140625 0.265625 0.265625q0.140625 0.109375 0.296875 0.203125q0.265625 0.140625 0.578125 0.21875q0.328125 0.078125 0.703125 0.078125q0.65625 0 1.171875 -0.265625q0.515625 -0.28125 0.875 -0.75q0.34375 -0.484375 0.515625 -1.140625q0.1875 -0.65625 0.1875 -1.421875l0 -0.125q0 -0.796875 -0.1875 -1.4531097q-0.171875 -0.671875 -0.515625 -1.140625q-0.359375 -0.484375 -0.875 -0.734375q-0.515625 -0.265625 -1.1875 -0.265625q-0.359375 0 -0.671875 0.078125q-0.296875 0.078125 -0.546875 0.203125q-0.1875 0.109375 -0.359375 0.25q-0.171875 0.140625 -0.3125 0.328125l-0.0625 -0.734375l-1.4375 0l0 9.749985zm4.59375 -6.28125l0 0.125q0 0.46875 -0.09375 0.890625q-0.078125 0.421875 -0.28125 0.75q-0.203125 0.3125 -0.515625 0.5q-0.296875 0.1875 -0.734375 0.1875q-0.265625 0 -0.484375 -0.0625q-0.21875 -0.0625 -0.40625 -0.171875q-0.171875 -0.109375 -0.296875 -0.25q-0.125 -0.15625 -0.21875 -0.34375l0 -3.1249847q0.109375 -0.1875 0.25 -0.34375q0.140625 -0.15625 0.328125 -0.265625q0.15625 -0.09375 0.359375 -0.140625q0.21875 -0.0625 0.453125 -0.0625q0.4375 0 0.75 0.1875q0.3125 0.171875 0.515625 0.484375q0.1875 0.3125 0.28125 0.73435974q0.09375 0.421875 0.09375 0.90625zm3.1075592 0l0 0.125q0 0.78125 0.21875 1.4375q0.234375 0.640625 0.65625 1.125q0.40625 0.484375 1.015625 0.765625q0.625 0.265625 1.390625 0.265625q0.765625 0 1.375 -0.265625q0.609375 -0.28125 1.03125 -0.765625q0.40625 -0.484375 0.625 -1.125q0.234375 -0.65625 0.234375 -1.4375l0 -0.125q0 -0.78125 -0.234375 -1.4218597q-0.21875 -0.65625 -0.625 -1.140625q-0.421875 -0.484375 -1.03125 -0.75q-0.609375 -0.28125 -1.390625 -0.28125q-0.765625 0 -1.375 0.28125q-0.609375 0.265625 -1.015625 0.75q-0.421875 0.484375 -0.65625 1.140625q-0.21875 0.64060974 -0.21875 1.4218597zm1.5625 0.125l0 -0.125q0 -0.46875 0.09375 -0.890625q0.109375 -0.42185974 0.3125 -0.74998474q0.21875 -0.3125 0.53125 -0.5q0.328125 -0.1875 0.765625 -0.1875q0.453125 0 0.765625 0.1875q0.328125 0.1875 0.546875 0.5q0.203125 0.328125 0.296875 0.74998474q0.109375 0.421875 0.109375 0.890625l0 0.125q0 0.484375 -0.109375 0.90625q-0.09375 0.421875 -0.296875 0.734375q-0.203125 0.328125 -0.53125 0.515625q-0.328125 0.171875 -0.765625 0.171875q-0.453125 0 -0.78125 -0.171875q-0.3125 -0.1875 -0.53125 -0.515625q-0.203125 -0.3125 -0.3125 -0.734375q-0.09375 -0.421875 -0.09375 -0.90625zm6.435684 -0.125l0 0.125q0 0.78125 0.21875 1.4375q0.234375 0.640625 0.65625 1.125q0.40625 0.484375 1.015625 0.765625q0.625 0.265625 1.390625 0.265625q0.765625 0 1.375 -0.265625q0.609375 -0.28125 1.03125 -0.765625q0.40625 -0.484375 0.625 -1.125q0.234375 -0.65625 0.234375 -1.4375l0 -0.125q0 -0.78125 -0.234375 -1.4218597q-0.21875 -0.65625 -0.625 -1.140625q-0.421875 -0.484375 -1.03125 -0.75q-0.609375 -0.28125 -1.390625 -0.28125q-0.765625 0 -1.375 0.28125q-0.609375 0.265625 -1.015625 0.75q-0.421875 0.484375 -0.65625 1.140625q-0.21875 0.64060974 -0.21875 1.4218597zm1.5625 0.125l0 -0.125q0 -0.46875 0.09375 -0.890625q0.109375 -0.42185974 0.3125 -0.74998474q0.21875 -0.3125 0.53125 -0.5q0.328125 -0.1875 0.765625 -0.1875q0.453125 0 0.765625 0.1875q0.328125 0.1875 0.546875 0.5q0.203125 0.328125 0.296875 0.74998474q0.109375 0.421875 0.109375 0.890625l0 0.125q0 0.484375 -0.109375 0.90625q-0.09375 0.421875 -0.296875 0.734375q-0.203125 0.328125 -0.53125 0.515625q-0.328125 0.171875 -0.765625 0.171875q-0.453125 0 -0.78125 -0.171875q-0.3125 -0.1875 -0.53125 -0.515625q-0.203125 -0.3125 -0.3125 -0.734375q-0.09375 -0.421875 -0.09375 -0.90625zm7.029434 -6.5468597l0 1.296875l2.21875 0l0 7.4218597l-2.21875 0l0 1.28125l5.921875 0l0 -1.28125l-2.125 0l0 -8.718735l-3.796875 0z" fill-rule="nonzero"/><path fill="#ffffff" d="m19.248032 270.01605l56.125984 0l0 20.440948l-56.125984 0z" fill-rule="evenodd"/><path stroke="#000000" stroke-width="2.0" stroke-linejoin="round" stroke-linecap="butt" d="m19.248032 270.01605l56.125984 0l0 20.440948l-56.125984 0z" fill-rule="evenodd"/><path fill="#000000" d="m44.15166 282.53653l1.234375 -0.109375q0.140625 0.90625 0.640625 1.359375q0.5 0.453125 1.203125 0.453125q0.84375 0 1.421875 -0.640625q0.59375 -0.640625 0.59375 -1.6875q0 -1.0 -0.5625 -1.578125q-0.5625 -0.59375 -1.484375 -0.59375q-0.5625 0 -1.015625 0.265625q-0.453125 0.25 -0.71875 0.671875l-1.09375 -0.15625l0.921875 -4.890625l4.75 0l0 1.109375l-3.8125 0l-0.515625 2.5625q0.859375 -0.59375 1.796875 -0.59375q1.25 0 2.109375 0.875q0.859375 0.859375 0.859375 2.21875q0 1.296875 -0.75 2.234375q-0.921875 1.15625 -2.5 1.15625q-1.3125 0 -2.140625 -0.71875q-0.8125 -0.734375 -0.9375 -1.9375z" fill-rule="nonzero"/><path fill="#000000" fill-opacity="0.0" d="m73.5 262.458l71.18111 0l0 35.55905l-71.18111 0z" fill-rule="evenodd"/><path fill="#000000" d="m84.390625 277.21112l-1.34375 0l0 7.046875l1.421875 0l0 -5.40625q0.046875 -0.09375 0.09375 -0.171875q0.046875 -0.078125 0.109375 -0.140625q0.09375 -0.09375 0.203125 -0.125q0.125 -0.046875 0.28125 -0.046875q0.140625 0 0.25 0.046875q0.125 0.03125 0.203125 0.109375q0.09375 0.09375 0.125 0.25q0.046875 0.140625 0.046875 0.34375l0 5.140625l1.40625 0l0 -5.21875q0 -0.078125 0 -0.109375q0 -0.03125 0 -0.0625q0.03125 -0.109375 0.078125 -0.1875q0.046875 -0.09375 0.125 -0.15625q0.09375 -0.078125 0.203125 -0.109375q0.109375 -0.046875 0.25 -0.046875q0.15625 0 0.265625 0.046875q0.125 0.03125 0.203125 0.109375q0.09375 0.09375 0.140625 0.25q0.046875 0.140625 0.046875 0.34375l0 5.140625l1.421875 0l0 -5.125q0 -0.546875 -0.109375 -0.9375q-0.109375 -0.40625 -0.328125 -0.640625q-0.203125 -0.234375 -0.484375 -0.34375q-0.28125 -0.125 -0.625 -0.125q-0.265625 0 -0.484375 0.0625q-0.203125 0.0625 -0.390625 0.1875q-0.125 0.09375 -0.25 0.21875q-0.109375 0.125 -0.203125 0.28125q-0.0625 -0.171875 -0.15625 -0.296875q-0.09375 -0.125 -0.21875 -0.21875q-0.140625 -0.109375 -0.359375 -0.171875q-0.203125 -0.0625 -0.46875 -0.0625q-0.5 0 -0.859375 0.25q-0.34375 0.234375 -0.546875 0.65625l-0.046875 -0.78125zm13.045059 8.28125l0 -1.234375l-5.953125 0l0 1.234375l5.953125 0zm6.670059 -3.140625q0 0.171875 -0.078125 0.3125q-0.078125 0.140625 -0.21875 0.25q-0.1875 0.140625 -0.5 0.234375q-0.296875 0.078125 -0.6875 0.078125q-0.3125 0 -0.609375 -0.0625q-0.28125 -0.0625 -0.515625 -0.203125q-0.234375 -0.140625 -0.390625 -0.359375q-0.140625 -0.21875 -0.15625 -0.546875l-1.515625 0q0 0.4375 0.203125 0.859375q0.21875 0.421875 0.609375 0.75q0.40625 0.328125 0.984375 0.53125q0.59375 0.203125 1.359375 0.203125q0.6875 0 1.234375 -0.15625q0.5625 -0.15625 0.96875 -0.4375q0.40625 -0.28125 0.609375 -0.671875q0.21875 -0.390625 0.21875 -0.859375q0 -0.484375 -0.203125 -0.828125q-0.203125 -0.359375 -0.578125 -0.609375q-0.375 -0.25 -0.921875 -0.421875q-0.53125 -0.171875 -1.171875 -0.28125q-0.46875 -0.078125 -0.765625 -0.171875q-0.296875 -0.109375 -0.46875 -0.21875q-0.1875 -0.125 -0.265625 -0.265625q-0.0625 -0.140625 -0.0625 -0.328125q0 -0.171875 0.078125 -0.328125q0.09375 -0.171875 0.265625 -0.28125q0.171875 -0.125 0.421875 -0.203125q0.265625 -0.078125 0.625 -0.078125q0.375 0 0.65625 0.109375q0.296875 0.09375 0.484375 0.265625q0.15625 0.140625 0.234375 0.328125q0.078125 0.171875 0.078125 0.359375l1.5625 0q0 -0.46875 -0.21875 -0.875q-0.203125 -0.421875 -0.59375 -0.71875q-0.390625 -0.296875 -0.953125 -0.46875q-0.546875 -0.171875 -1.25 -0.171875q-0.65625 0 -1.203125 0.171875q-0.53125 0.171875 -0.90625 0.453125q-0.390625 0.296875 -0.59375 0.6875q-0.203125 0.390625 -0.203125 0.8125q0 0.453125 0.203125 0.796875q0.203125 0.328125 0.5625 0.578125q0.359375 0.265625 0.859375 0.453125q0.515625 0.171875 1.125 0.296875q0.484375 0.09375 0.8125 0.203125q0.328125 0.09375 0.53125 0.21875q0.1875 0.125 0.265625 0.265625q0.078125 0.140625 0.078125 0.328125zm3.7481842 -5.140625l0 1.296875l2.171875 0l0 4.46875l-2.171875 0l0 1.28125l5.8125 0l0 -1.28125l-2.0625 0l0 -5.765625l-3.75 0zm2.03125 -1.8125q0 0.25 0.109375 0.4375q0.125 0.171875 0.359375 0.25q0.234375 0.0625 0.421875 0.03125q0.1875 -0.046875 0.328125 -0.15625q0.265625 -0.078125 0.40625 -0.28125q0.15625 -0.21875 0.109375 -0.5q-0.03125 -0.28125 -0.25 -0.453125q-0.21875 -0.1875 -0.578125 -0.1875q-0.203125 0 -0.375 0.0625q-0.15625 0.0625 -0.28125 0.171875q-0.125 0.109375 -0.1875 0.28125q-0.0625 0.15625 -0.0625 0.34375zm7.576309 7.609375l4.078125 -4.796875l0 -1.0l-6.078125 0l0 1.28125l3.96875 0l-4.046875 4.75l0 1.015625l6.359375 0l0 -1.25l-4.28125 0zm9.326309 1.375q1.03125 0 1.75 -0.390625q0.734375 -0.40625 1.078125 -0.921875l-0.828125 -0.796875q-0.328125 0.40625 -0.828125 0.640625q-0.5 0.21875 -1.078125 0.21875q-0.421875 0 -0.78125 -0.140625q-0.359375 -0.140625 -0.609375 -0.40625q-0.265625 -0.25 -0.421875 -0.5625q-0.140625 -0.3125 -0.21875 -0.765625l0 -0.046875l4.890625 0l0 -0.65625q0 -0.765625 -0.203125 -1.390625q-0.203125 -0.640625 -0.609375 -1.109375q-0.390625 -0.453125 -0.984375 -0.703125q-0.578125 -0.265625 -1.34375 -0.265625q-0.6875 0 -1.296875 0.265625q-0.59375 0.25 -1.046875 0.71875q-0.453125 0.484375 -0.71875 1.15625q-0.25 0.671875 -0.25 1.484375l0 0.265625q0 0.734375 0.25 1.359375q0.25 0.609375 0.703125 1.0625q0.46875 0.46875 1.109375 0.734375q0.65625 0.25 1.4375 0.25zm-0.1875 -6.03125q0.390625 0 0.6875 0.140625q0.296875 0.125 0.484375 0.34375q0.203125 0.234375 0.3125 0.53125q0.109375 0.296875 0.109375 0.609375l0 0.109375l-3.3125 0q0.078125 -0.40625 0.21875 -0.71875q0.15625 -0.328125 0.375 -0.5625q0.21875 -0.21875 0.5 -0.328125q0.296875 -0.125 0.625 -0.125z" fill-rule="nonzero"/><path fill="#ffffff" d="m19.248032 293.46912l56.125984 0l0 20.440948l-56.125984 0z" fill-rule="evenodd"/><path stroke="#000000" stroke-width="2.0" stroke-linejoin="round" stroke-linecap="butt" d="m19.248032 293.46912l56.125984 0l0 20.440948l-56.125984 0z" fill-rule="evenodd"/><path fill="#000000" d="m44.15166 305.9896l1.234375 -0.109375q0.140625 0.90625 0.640625 1.359375q0.5 0.453125 1.203125 0.453125q0.84375 0 1.421875 -0.640625q0.59375 -0.640625 0.59375 -1.6875q0 -1.0 -0.5625 -1.578125q-0.5625 -0.59375 -1.484375 -0.59375q-0.5625 0 -1.015625 0.265625q-0.453125 0.25 -0.71875 0.671875l-1.09375 -0.15625l0.921875 -4.890625l4.75 0l0 1.109375l-3.8125 0l-0.515625 2.5625q0.859375 -0.59375 1.796875 -0.59375q1.25 0 2.109375 0.875q0.859375 0.859375 0.859375 2.21875q0 1.296875 -0.75 2.234375q-0.921875 1.15625 -2.5 1.15625q-1.3125 0 -2.140625 -0.71875q-0.8125 -0.734375 -0.9375 -1.9375z" fill-rule="nonzero"/><path fill="#000000" fill-opacity="0.0" d="m73.5 285.90945l103.33858 0l0 35.55905l-103.33858 0z" fill-rule="evenodd"/><path fill="#000000" d="m84.390625 300.66257l-1.34375 0l0 7.046875l1.421875 0l0 -5.40625q0.046875 -0.09375 0.09375 -0.171875q0.046875 -0.078125 0.109375 -0.140625q0.09375 -0.09375 0.203125 -0.125q0.125 -0.046875 0.28125 -0.046875q0.140625 0 0.25 0.046875q0.125 0.03125 0.203125 0.109375q0.09375 0.09375 0.125 0.25q0.046875 0.140625 0.046875 0.34375l0 5.140625l1.40625 0l0 -5.21875q0 -0.078125 0 -0.109375q0 -0.03125 0 -0.0625q0.03125 -0.109375 0.078125 -0.1875q0.046875 -0.09375 0.125 -0.15625q0.09375 -0.078125 0.203125 -0.109375q0.109375 -0.046875 0.25 -0.046875q0.15625 0 0.265625 0.046875q0.125 0.03125 0.203125 0.109375q0.09375 0.09375 0.140625 0.25q0.046875 0.140625 0.046875 0.34375l0 5.140625l1.421875 0l0 -5.125q0 -0.546875 -0.109375 -0.9375q-0.109375 -0.40625 -0.328125 -0.640625q-0.203125 -0.234375 -0.484375 -0.34375q-0.28125 -0.125 -0.625 -0.125q-0.265625 0 -0.484375 0.0625q-0.203125 0.0625 -0.390625 0.1875q-0.125 0.09375 -0.25 0.21875q-0.109375 0.125 -0.203125 0.28125q-0.0625 -0.171875 -0.15625 -0.296875q-0.09375 -0.125 -0.21875 -0.21875q-0.140625 -0.109375 -0.359375 -0.171875q-0.203125 -0.0625 -0.46875 -0.0625q-0.5 0 -0.859375 0.25q-0.34375 0.234375 -0.546875 0.65625l-0.046875 -0.78125zm13.045059 8.28125l0 -1.234375l-5.953125 0l0 1.234375l5.953125 0zm5.138809 -2.359375q-0.5 0 -0.828125 -0.1875q-0.3125 -0.203125 -0.5 -0.515625q-0.203125 -0.3125 -0.28125 -0.71875q-0.078125 -0.421875 -0.078125 -0.859375l0 -0.21875q0 -0.421875 0.078125 -0.828125q0.078125 -0.421875 0.28125 -0.734375q0.1875 -0.328125 0.5 -0.515625q0.328125 -0.203125 0.828125 -0.203125q0.3125 0 0.59375 0.109375q0.28125 0.109375 0.46875 0.296875q0.203125 0.1875 0.3125 0.453125q0.109375 0.25 0.109375 0.53125l1.453125 0q0.015625 -0.59375 -0.203125 -1.078125q-0.21875 -0.484375 -0.609375 -0.84375q-0.390625 -0.34375 -0.9375 -0.53125q-0.546875 -0.203125 -1.171875 -0.203125q-0.8125 0 -1.421875 0.28125q-0.609375 0.28125 -1.015625 0.765625q-0.40625 0.484375 -0.625 1.125q-0.203125 0.640625 -0.203125 1.375l0 0.21875q0 0.734375 0.203125 1.375q0.21875 0.640625 0.625 1.125q0.40625 0.484375 1.015625 0.765625q0.609375 0.28125 1.421875 0.28125q0.578125 0 1.109375 -0.1875q0.53125 -0.203125 0.953125 -0.53125q0.390625 -0.328125 0.625 -0.78125q0.25 -0.453125 0.234375 -0.96875l-1.453125 0q0 0.265625 -0.125 0.484375q-0.125 0.21875 -0.328125 0.390625q-0.203125 0.15625 -0.484375 0.25q-0.265625 0.078125 -0.546875 0.078125zm9.420059 1.125l1.59375 0l0 -0.109375q-0.125 -0.28125 -0.203125 -0.65625q-0.0625 -0.375 -0.0625 -0.859375l0 -3.125q0 -0.59375 -0.21875 -1.046875q-0.21875 -0.46875 -0.609375 -0.765625q-0.390625 -0.296875 -0.9375 -0.453125q-0.53125 -0.15625 -1.15625 -0.15625q-0.6875 0 -1.234375 0.1875q-0.53125 0.171875 -0.890625 0.46875q-0.375 0.3125 -0.578125 0.703125q-0.1875 0.390625 -0.1875 0.8125l1.5625 0q0 -0.203125 0.0625 -0.375q0.078125 -0.1875 0.234375 -0.3125q0.15625 -0.140625 0.390625 -0.21875q0.234375 -0.078125 0.5625 -0.078125q0.34375 0 0.609375 0.09375q0.28125 0.078125 0.46875 0.25q0.171875 0.15625 0.265625 0.390625q0.09375 0.21875 0.09375 0.484375l0 0.484375l-1.125 0q-0.765625 0 -1.375 0.140625q-0.59375 0.140625 -1.0 0.40625q-0.4375 0.296875 -0.671875 0.75q-0.234375 0.4375 -0.234375 1.015625q0 0.453125 0.171875 0.84375q0.1875 0.390625 0.515625 0.65625q0.3125 0.28125 0.765625 0.4375q0.453125 0.15625 1.0 0.15625q0.34375 0 0.625 -0.0625q0.296875 -0.0625 0.546875 -0.171875q0.265625 -0.125 0.46875 -0.265625q0.203125 -0.15625 0.359375 -0.328125q0.03125 0.203125 0.078125 0.390625q0.046875 0.1875 0.109375 0.3125zm-1.890625 -1.125q-0.296875 0 -0.515625 -0.0625q-0.21875 -0.078125 -0.375 -0.21875q-0.140625 -0.125 -0.21875 -0.3125q-0.078125 -0.1875 -0.078125 -0.390625q0 -0.265625 0.09375 -0.46875q0.09375 -0.21875 0.28125 -0.359375q0.21875 -0.1875 0.59375 -0.28125q0.375 -0.09375 0.875 -0.09375l1.0 0l0 1.3125q-0.078125 0.171875 -0.234375 0.328125q-0.15625 0.15625 -0.375 0.265625q-0.21875 0.125 -0.484375 0.203125q-0.25 0.078125 -0.5625 0.078125zm5.404434 3.828125l1.5625 0l0 -3.34375q0.125 0.140625 0.265625 0.265625q0.140625 0.109375 0.296875 0.203125q0.265625 0.140625 0.578125 0.21875q0.328125 0.078125 0.703125 0.078125q0.65625 0 1.171875 -0.265625q0.515625 -0.28125 0.875 -0.75q0.34375 -0.484375 0.515625 -1.140625q0.1875 -0.65625 0.1875 -1.421875l0 -0.125q0 -0.796875 -0.1875 -1.453125q-0.171875 -0.671875 -0.515625 -1.140625q-0.359375 -0.484375 -0.875 -0.734375q-0.515625 -0.265625 -1.1875 -0.265625q-0.359375 0 -0.671875 0.078125q-0.296875 0.078125 -0.546875 0.203125q-0.1875 0.109375 -0.359375 0.25q-0.171875 0.140625 -0.3125 0.328125l-0.0625 -0.734375l-1.4375 0l0 9.75zm4.59375 -6.28125l0 0.125q0 0.46875 -0.09375 0.890625q-0.078125 0.421875 -0.28125 0.75q-0.203125 0.3125 -0.515625 0.5q-0.296875 0.1875 -0.734375 0.1875q-0.265625 0 -0.484375 -0.0625q-0.21875 -0.0625 -0.40625 -0.171875q-0.171875 -0.109375 -0.296875 -0.25q-0.125 -0.15625 -0.21875 -0.34375l0 -3.125q0.109375 -0.1875 0.25 -0.34375q0.140625 -0.15625 0.328125 -0.265625q0.15625 -0.09375 0.359375 -0.140625q0.21875 -0.0625 0.453125 -0.0625q0.4375 0 0.75 0.1875q0.3125 0.171875 0.515625 0.484375q0.1875 0.3125 0.28125 0.734375q0.09375 0.421875 0.09375 0.90625zm7.888809 3.578125l1.59375 0l0 -0.109375q-0.125 -0.28125 -0.203125 -0.65625q-0.0625 -0.375 -0.0625 -0.859375l0 -3.125q0 -0.59375 -0.21875 -1.046875q-0.21875 -0.46875 -0.609375 -0.765625q-0.390625 -0.296875 -0.9375 -0.453125q-0.53125 -0.15625 -1.15625 -0.15625q-0.6875 0 -1.234375 0.1875q-0.53125 0.171875 -0.890625 0.46875q-0.375 0.3125 -0.578125 0.703125q-0.1875 0.390625 -0.1875 0.8125l1.5625 0q0 -0.203125 0.0625 -0.375q0.078125 -0.1875 0.234375 -0.3125q0.15625 -0.140625 0.390625 -0.21875q0.234375 -0.078125 0.5625 -0.078125q0.34375 0 0.609375 0.09375q0.28125 0.078125 0.46875 0.25q0.171875 0.15625 0.265625 0.390625q0.09375 0.21875 0.09375 0.484375l0 0.484375l-1.125 0q-0.765625 0 -1.375 0.140625q-0.59375 0.140625 -1.0 0.40625q-0.4375 0.296875 -0.671875 0.75q-0.234375 0.4375 -0.234375 1.015625q0 0.453125 0.171875 0.84375q0.1875 0.390625 0.515625 0.65625q0.3125 0.28125 0.765625 0.4375q0.453125 0.15625 1.0 0.15625q0.34375 0 0.625 -0.0625q0.296875 -0.0625 0.546875 -0.171875q0.265625 -0.125 0.46875 -0.265625q0.203125 -0.15625 0.359375 -0.328125q0.03125 0.203125 0.078125 0.390625q0.046875 0.1875 0.109375 0.3125zm-1.890625 -1.125q-0.296875 0 -0.515625 -0.0625q-0.21875 -0.078125 -0.375 -0.21875q-0.140625 -0.125 -0.21875 -0.3125q-0.078125 -0.1875 -0.078125 -0.390625q0 -0.265625 0.09375 -0.46875q0.09375 -0.21875 0.28125 -0.359375q0.21875 -0.1875 0.59375 -0.28125q0.375 -0.09375 0.875 -0.09375l1.0 0l0 1.3125q-0.078125 0.171875 -0.234375 0.328125q-0.15625 0.15625 -0.375 0.265625q-0.21875 0.125 -0.484375 0.203125q-0.25 0.078125 -0.5625 0.078125zm8.466934 0q-0.5 0 -0.828125 -0.1875q-0.3125 -0.203125 -0.5 -0.515625q-0.203125 -0.3125 -0.28125 -0.71875q-0.078125 -0.421875 -0.078125 -0.859375l0 -0.21875q0 -0.421875 0.078125 -0.828125q0.078125 -0.421875 0.28125 -0.734375q0.1875 -0.328125 0.5 -0.515625q0.328125 -0.203125 0.828125 -0.203125q0.3125 0 0.59375 0.109375q0.28125 0.109375 0.46875 0.296875q0.203125 0.1875 0.3125 0.453125q0.109375 0.25 0.109375 0.53125l1.453125 0q0.015625 -0.59375 -0.203125 -1.078125q-0.21875 -0.484375 -0.609375 -0.84375q-0.390625 -0.34375 -0.9375 -0.53125q-0.546875 -0.203125 -1.171875 -0.203125q-0.8125 0 -1.421875 0.28125q-0.609375 0.28125 -1.015625 0.765625q-0.40625 0.484375 -0.625 1.125q-0.203125 0.640625 -0.203125 1.375l0 0.21875q0 0.734375 0.203125 1.375q0.21875 0.640625 0.625 1.125q0.40625 0.484375 1.015625 0.765625q0.609375 0.28125 1.421875 0.28125q0.578125 0 1.109375 -0.1875q0.53125 -0.203125 0.953125 -0.53125q0.390625 -0.328125 0.625 -0.78125q0.25 -0.453125 0.234375 -0.96875l-1.453125 0q0 0.265625 -0.125 0.484375q-0.125 0.21875 -0.328125 0.390625q-0.203125 0.15625 -0.484375 0.25q-0.265625 0.078125 -0.546875 0.078125zm5.279434 -5.921875l0 1.296875l2.171875 0l0 4.46875l-2.171875 0l0 1.28125l5.8125 0l0 -1.28125l-2.0625 0l0 -5.765625l-3.75 0zm2.03125 -1.8125q0 0.25 0.109375 0.4375q0.125 0.171875 0.359375 0.25q0.234375 0.0625 0.421875 0.03125q0.1875 -0.046875 0.328125 -0.15625q0.265625 -0.078125 0.40625 -0.28125q0.15625 -0.21875 0.109375 -0.5q-0.03125 -0.28125 -0.25 -0.453125q-0.21875 -0.1875 -0.578125 -0.1875q-0.203125 0 -0.375 0.0625q-0.15625 0.0625 -0.28125 0.171875q-0.125 0.109375 -0.1875 0.28125q-0.0625 0.15625 -0.0625 0.34375zm8.732559 0.09375l-1.546875 0l0 1.71875l-1.71875 0l0 1.171875l1.71875 0l0 3.453125q0 0.6875 0.171875 1.171875q0.171875 0.46875 0.5 0.78125q0.3125 0.3125 0.75 0.46875q0.453125 0.140625 0.984375 0.140625q0.296875 0 0.59375 -0.03125q0.296875 -0.03125 0.578125 -0.078125q0.265625 -0.0625 0.5 -0.125q0.234375 -0.078125 0.40625 -0.1875l-0.171875 -1.078125q-0.109375 0.03125 -0.28125 0.078125q-0.171875 0.03125 -0.375 0.046875q-0.1875 0.03125 -0.40625 0.0625q-0.21875 0.015625 -0.421875 0.015625q-0.28125 0 -0.515625 -0.0625q-0.234375 -0.0625 -0.40625 -0.21875q-0.15625 -0.15625 -0.265625 -0.421875q-0.09375 -0.265625 -0.09375 -0.65625l0 -3.359375l2.65625 0l0 -1.171875l-2.65625 0l0 -1.71875zm5.763809 11.609375q0.515625 0 0.890625 -0.1875q0.390625 -0.171875 0.671875 -0.4375q0.28125 -0.265625 0.46875 -0.578125q0.1875 -0.296875 0.3125 -0.578125l3.5625 -8.109375l-1.71875 0l-1.703125 4.328125l-0.28125 0.75l-0.25 -0.765625l-1.75 -4.3125l-1.703125 0l3.0 6.734375l-0.453125 0.84375q-0.0625 0.140625 -0.15625 0.265625q-0.078125 0.140625 -0.203125 0.296875q-0.140625 0.171875 -0.328125 0.296875q-0.171875 0.140625 -0.40625 0.140625q-0.09375 0 -0.265625 -0.015625q-0.171875 0 -0.296875 0l-0.21875 1.21875q0.1875 0.03125 0.390625 0.0625q0.21875 0.046875 0.4375 0.046875z" fill-rule="nonzero"/><path fill="#000000" fill-opacity="0.0" d="m46.41601 260.0538l0 -109.027374l48.85039 0l0 -0.011993408" fill-rule="evenodd"/><path stroke="#000000" stroke-width="2.0" stroke-linejoin="round" stroke-linecap="butt" d="m46.41601 252.47382l0 -101.44739l36.8504 0" fill-rule="evenodd"/><path fill="#000000" stroke="#000000" stroke-width="2.0" stroke-linecap="butt" d="m46.41601 259.0538c-1.8170166 0 -3.290001 -1.472992 -3.290001 -3.2899933c0 -1.8170166 1.4729843 -3.2900085 3.290001 -3.2900085c1.8170166 0 3.289997 1.472992 3.289997 3.2900085c0 1.8170013 -1.4729805 3.2899933 -3.289997 3.2899933z" fill-rule="nonzero"/><path fill="#000000" stroke="#000000" stroke-width="2.0" stroke-linecap="butt" d="m83.269714 154.3299l9.072884 -3.3125305l-9.079491 -3.294403z" fill-rule="evenodd"/><path fill="#000000" fill-opacity="0.0" d="m248.13124 114.54199l-200.66142 -0.37795258" fill-rule="evenodd"/><path stroke="#000000" stroke-width="2.0" stroke-linejoin="round" stroke-linecap="butt" d="m248.13124 114.54199l-200.66142 -0.37795258" fill-rule="evenodd"/><path fill="#000000" fill-opacity="0.0" d="m47.311024 78.608925l0.34645844 35.90551" fill-rule="evenodd"/><path stroke="#000000" stroke-width="2.0" stroke-linejoin="round" stroke-linecap="butt" d="m47.38416 86.18857l0.27332306 28.325867" fill-rule="evenodd"/><path fill="#000000" stroke="#000000" stroke-width="2.0" stroke-linecap="butt" d="m47.32067 79.60888c1.8169327 -0.017532349 3.304062 1.4411697 3.3215904 3.2581024c0.017532349 1.8169327 -1.4411697 3.3040543 -3.2581024 3.3215866c-1.8169289 0.017532349 -3.304058 -1.4411697 -3.3215904 -3.2581024c-0.017532349 -1.8169327 1.4411697 -3.3040543 3.2581024 -3.3215866z" fill-rule="nonzero"/><path fill="#000000" fill-opacity="0.0" d="m247.46194 151.95932l0.37794495 -37.79528" fill-rule="evenodd"/><path stroke="#000000" stroke-width="2.0" stroke-linejoin="round" stroke-linecap="butt" d="m247.58194 139.95992l0.25794983 -25.795876" fill-rule="evenodd"/><path fill="#000000" stroke="#000000" stroke-width="2.0" stroke-linecap="butt" d="m244.27864 139.92688l3.2125397 9.10878l3.3940582 -9.042709z" fill-rule="evenodd"/><path fill="#cccccc" d="m95.70998 151.96063l56.125977 0l0 27.496063l-56.125977 0z" fill-rule="evenodd"/><path stroke="#000000" stroke-width="2.0" stroke-linejoin="round" stroke-linecap="butt" d="m95.70998 151.96063l56.125977 0l0 27.496063l-56.125977 0z" fill-rule="evenodd"/><path fill="#000000" fill-opacity="0.0" d="m260.6719 208.77428l-164.78738 0.28346252" fill-rule="evenodd"/><path stroke="#000000" stroke-width="2.0" stroke-linejoin="round" stroke-linecap="butt" d="m260.6719 208.77428l-164.78738 0.28346252" fill-rule="evenodd"/><path fill="#000000" fill-opacity="0.0" d="m95.80577 179.72966l0.1889801 29.480316" fill-rule="evenodd"/><path stroke="#000000" stroke-width="2.0" stroke-linejoin="round" stroke-linecap="butt" d="m95.8827 191.72942l0.11205292 17.48056" fill-rule="evenodd"/><path fill="#000000" stroke="#000000" stroke-width="2.0" stroke-linecap="butt" d="m99.1861 191.70824l-3.36158 -9.05484l-3.2452164 9.097183z" fill-rule="evenodd"/><path fill="#000000" fill-opacity="0.0" d="m273.34647 176.68898l71.18109 0l0 35.55905l-71.18109 0z" fill-rule="evenodd"/><path fill="#000000" d="m289.44022 194.87961l0 -2.25q0 -0.90625 -0.21875 -1.609375q-0.21875 -0.703125 -0.609375 -1.1875q-0.40625 -0.46875 -0.984375 -0.703125q-0.5625 -0.25 -1.28125 -0.25q-0.71875 0 -1.296875 0.25q-0.5625 0.234375 -0.953125 0.703125q-0.390625 0.484375 -0.609375 1.1875q-0.203125 0.703125 -0.203125 1.609375l0 2.25q0 0.90625 0.203125 1.609375q0.21875 0.703125 0.609375 1.171875q0.40625 0.484375 0.96875 0.734375q0.578125 0.234375 1.296875 0.234375q0.71875 0 1.28125 -0.234375q0.578125 -0.25 0.96875 -0.734375q0.40625 -0.46875 0.609375 -1.171875q0.21875 -0.703125 0.21875 -1.609375zm-4.59375 -0.5625q0 -0.1875 0 -0.3125q0 -0.125 0 -0.375l0 -1.28125q0 -0.578125 0.09375 -1.015625q0.109375 -0.4375 0.328125 -0.703125q0.171875 -0.25 0.4375 -0.359375q0.28125 -0.125 0.640625 -0.125q0.328125 0 0.59375 0.109375q0.265625 0.09375 0.453125 0.296875q0.203125 0.234375 0.3125 0.609375q0.125 0.375 0.140625 0.875l-3.0 2.28125zm3.015625 0.828125q0 0.59375 -0.109375 1.03125q-0.109375 0.4375 -0.3125 0.71875q-0.1875 0.234375 -0.46875 0.359375q-0.265625 0.109375 -0.609375 0.109375q-0.359375 0 -0.625 -0.109375q-0.265625 -0.125 -0.453125 -0.375q-0.1875 -0.234375 -0.296875 -0.578125q-0.109375 -0.34375 -0.140625 -0.796875l3.015625 -2.265625q0 0.1875 0 0.359375q0 0.171875 0 0.34375l0 1.203125zm6.576294 -1.328125l-1.65625 -2.375l-1.71875 0l2.46875 3.46875l-2.546875 3.578125l1.71875 0l1.75 -2.453125l1.765625 2.453125l1.71875 0l-2.5625 -3.578125l2.484375 -3.46875l-1.734375 0l-1.6875 2.375zm9.123199 4.671875l0 -9.46875l-0.09375 0l-3.90625 1.4375l0 1.375l2.4375 -0.890625l0 7.546875l1.5625 0zm9.873169 -3.609375l0 -2.25q0 -0.90625 -0.21875 -1.609375q-0.21875 -0.703125 -0.609375 -1.1875q-0.40625 -0.46875 -0.984375 -0.703125q-0.5625 -0.25 -1.28125 -0.25q-0.71875 0 -1.296875 0.25q-0.5625 0.234375 -0.953125 0.703125q-0.390625 0.484375 -0.609375 1.1875q-0.203125 0.703125 -0.203125 1.609375l0 2.25q0 0.90625 0.203125 1.609375q0.21875 0.703125 0.609375 1.171875q0.40625 0.484375 0.96875 0.734375q0.578125 0.234375 1.296875 0.234375q0.71875 0 1.28125 -0.234375q0.578125 -0.25 0.96875 -0.734375q0.40625 -0.46875 0.609375 -1.171875q0.21875 -0.703125 0.21875 -1.609375zm-4.59375 -0.5625q0 -0.1875 0 -0.3125q0 -0.125 0 -0.375l0 -1.28125q0 -0.578125 0.09375 -1.015625q0.109375 -0.4375 0.328125 -0.703125q0.171875 -0.25 0.4375 -0.359375q0.28125 -0.125 0.640625 -0.125q0.328125 0 0.59375 0.109375q0.265625 0.09375 0.453125 0.296875q0.203125 0.234375 0.3125 0.609375q0.125 0.375 0.140625 0.875l-3.0 2.28125zm3.015625 0.828125q0 0.59375 -0.109375 1.03125q-0.109375 0.4375 -0.3125 0.71875q-0.1875 0.234375 -0.46875 0.359375q-0.265625 0.109375 -0.609375 0.109375q-0.359375 0 -0.625 -0.109375q-0.265625 -0.125 -0.453125 -0.375q-0.1875 -0.234375 -0.296875 -0.578125q-0.109375 -0.34375 -0.140625 -0.796875l3.015625 -2.265625q0 0.1875 0 0.359375q0 0.171875 0 0.34375l0 1.203125zm8.607574 -0.03125l0 -6.09375l-1.609375 0l-4.09375 6.390625l0.046875 0.96875l4.09375 0l0 2.109375l1.5625 0l0 -2.109375l1.1875 0l0 -1.265625l-1.1875 0zm-4.109375 0l2.375 -3.671875l0.171875 -0.34375l0 4.015625l-2.546875 0zm12.107544 0l0 -6.09375l-1.609375 0l-4.09375 6.390625l0.046875 0.96875l4.09375 0l0 2.109375l1.5625 0l0 -2.109375l1.1875 0l0 -1.265625l-1.1875 0zm-4.109375 0l2.375 -3.671875l0.171875 -0.34375l0 4.015625l-2.546875 0z" fill-rule="nonzero"/><path fill="#cccccc" d="m246.87534 151.96063l56.125977 0l0 27.496063l-56.125977 0z" fill-rule="evenodd"/><path stroke="#000000" stroke-width="2.0" stroke-linejoin="round" stroke-linecap="butt" d="m246.87534 151.96063l56.125977 0l0 27.496063l-56.125977 0z" fill-rule="evenodd"/><path fill="#000000" fill-opacity="0.0" d="m260.71783 160.70079l-0.3149414 48.0" fill-rule="evenodd"/><path stroke="#000000" stroke-width="2.0" stroke-linejoin="round" stroke-linecap="butt" d="m260.6681 168.28062l-0.26519775 40.420166" fill-rule="evenodd"/><path fill="#000000" stroke="#000000" stroke-width="2.0" stroke-linecap="butt" d="m260.71127 161.70076c1.8169861 0.011932373 3.2802734 1.4945374 3.268341 3.3115234c-0.0119018555 1.8169708 -1.4945374 3.2802582 -3.311493 3.268341c-1.8169861 -0.011917114 -3.2802734 -1.4945374 -3.268341 -3.3115234c0.0119018555 -1.8169708 1.4945374 -3.2802582 3.311493 -3.268341z" fill-rule="nonzero"/><path fill="#000000" fill-opacity="0.0" d="m398.04068 133.42389l-289.5118 -0.34646606" fill-rule="evenodd"/><path stroke="#000000" stroke-width="2.0" stroke-linejoin="round" stroke-linecap="butt" d="m398.04068 133.42389l-289.5118 -0.34646606" fill-rule="evenodd"/><path fill="#000000" fill-opacity="0.0" d="m108.93307 166.87534l0.3149643 -34.015762" fill-rule="evenodd"/><path stroke="#000000" stroke-width="2.0" stroke-linejoin="round" stroke-linecap="butt" d="m109.00325 159.29565l0.2447815 -26.43608" fill-rule="evenodd"/><path fill="#000000" stroke="#000000" stroke-width="2.0" stroke-linecap="butt" d="m108.94233 165.87537c-1.8169403 -0.016815186 -3.2762222 -1.5033722 -3.2593994 -3.3203125c0.016822815 -1.8169403 1.5033875 -3.2762299 3.3203201 -3.2593994c1.8169403 0.016815186 3.2762222 1.5033875 3.2593994 3.3203125c-0.016822815 1.8169403 -1.5033798 3.2762299 -3.3203201 3.2593994z" fill-rule="nonzero"/><path fill="#000000" fill-opacity="0.0" d="m398.04068 151.96063l-0.18896484 -18.897644" fill-rule="evenodd"/><path stroke="#000000" stroke-width="2.0" stroke-linejoin="round" stroke-linecap="butt" d="m397.9207 139.96123l-0.06896973 -6.898239" fill-rule="evenodd"/><path fill="#000000" stroke="#000000" stroke-width="2.0" stroke-linecap="butt" d="m394.6174 139.99426l3.394043 9.042709l3.212555 -9.10878z" fill-rule="evenodd"/></g></svg>