<svg version="1.1" viewBox="0.0 0.0 407.31758530183725 228.58005249343833" fill="none" stroke="none" stroke-linecap="square" stroke-miterlimit="10" xmlns:xlink="http://www.w3.org/1999/xlink" xmlns="http://www.w3.org/2000/svg"><clipPath id="p.0"><path d="m0 0l407.3176 0l0 228.58005l-407.3176 0l0 -228.58005z" clip-rule="nonzero"/></clipPath><g clip-path="url(#p.0)"><path fill="#ffffff" d="m0 0l407.3176 0l0 228.58005l-407.3176 0z" fill-rule="evenodd"/><path fill="#000000" fill-opacity="0.0" d="m8.194225 6.454068l391.18112 0l0 42.01575l-391.18112 0z" fill-rule="evenodd"/><path stroke="#000000" stroke-width="3.0" stroke-linejoin="round" stroke-linecap="butt" d="m8.194225 6.454068l391.18112 0l0 42.01575l-391.18112 0z" fill-rule="evenodd"/><path fill="#000000" d="m150.0685 30.702192q0 0.234375 -0.109375 0.4375q-0.109375 0.1875 -0.3125 0.359375q-0.265625 0.203125 -0.6875 0.328125q-0.421875 0.109375 -0.984375 0.109375q-0.421875 0 -0.828125 -0.078125q-0.40625 -0.09375 -0.734375 -0.296875q-0.328125 -0.1875 -0.546875 -0.5q-0.203125 -0.3125 -0.234375 -0.78125l-2.109375 0q0 0.609375 0.28125 1.203125q0.296875 0.5937481 0.859375 1.0468731q0.5625 0.46875 1.390625 0.75q0.828125 0.28125 1.890625 0.28125q0.953125 0 1.734375 -0.21875q0.78125 -0.21875 1.34375 -0.609375q0.5625 -0.390625 0.859375 -0.9374981q0.3125 -0.546875 0.3125 -1.203125q0 -0.671875 -0.296875 -1.15625q-0.28125 -0.5 -0.8125 -0.859375q-0.53125 -0.34375 -1.28125 -0.578125q-0.75 -0.25 -1.640625 -0.40625q-0.65625 -0.109375 -1.078125 -0.25q-0.421875 -0.140625 -0.65625 -0.296875q-0.25 -0.15625 -0.359375 -0.359375q-0.09375 -0.203125 -0.09375 -0.46875q0 -0.234375 0.109375 -0.453125q0.125 -0.234375 0.359375 -0.390625q0.234375 -0.1875 0.59375 -0.296875q0.375 -0.109375 0.875 -0.109375q0.53125 0 0.9375 0.15625q0.40625 0.140625 0.65625 0.375q0.21875 0.203125 0.328125 0.453125q0.125 0.25 0.125 0.515625l2.171875 0q0 -0.65625 -0.296875 -1.234375q-0.28125 -0.578125 -0.828125 -1.0q-0.546875 -0.421875 -1.328125 -0.65625q-0.78125 -0.234375 -1.765625 -0.234375q-0.921875 0 -1.671875 0.234375q-0.75 0.234375 -1.28125 0.640625q-0.53125 0.40625 -0.828125 0.953125q-0.28125 0.546875 -0.28125 1.140625q0 0.625 0.28125 1.109375q0.28125 0.46875 0.78125 0.8125q0.515625 0.375 1.21875 0.625q0.703125 0.25 1.5625 0.421875q0.6875 0.125 1.140625 0.28125q0.453125 0.140625 0.734375 0.3125q0.265625 0.171875 0.375 0.375q0.125 0.203125 0.125 0.453125zm9.117447 -9.59375l-2.1875 0l0 2.40625l-2.375 0l0 1.640625l2.375 0l0 4.84375q0 0.9375 0.25 1.625q0.25 0.6718731 0.703125 1.0937481q0.4375 0.4375 1.0625 0.640625q0.625 0.203125 1.375 0.203125q0.40625 0 0.8125 -0.046875q0.421875 -0.03125 0.8125 -0.109375q0.375 -0.0625 0.703125 -0.171875q0.34375 -0.109375 0.578125 -0.25l-0.234375 -1.4999981q-0.171875 0.03125 -0.40625 0.078125q-0.234375 0.046875 -0.515625 0.09375q-0.28125 0.046875 -0.578125 0.078125q-0.296875 0.015625 -0.59375 0.015625q-0.390625 0 -0.71875 -0.078125q-0.328125 -0.09375 -0.5625 -0.3125q-0.234375 -0.21875 -0.375 -0.578125q-0.125 -0.375 -0.125 -0.921875l0 -4.703125l3.703125 0l0 -1.640625l-3.703125 0l0 -2.40625zm6.539322 7.265625l0 0.1875q0 1.0625 0.265625 1.984375q0.28125 0.921875 0.78125 1.5781231q0.5 0.671875 1.21875 1.0625q0.71875 0.375 1.625 0.375q0.84375 0 1.5 -0.3125q0.65625 -0.328125 1.140625 -0.90625l0.09375 1.03125l1.984375 0l0 -13.999998l-2.1875 0l0 5.0625q-0.46875 -0.53125 -1.09375 -0.8125q-0.609375 -0.28125 -1.421875 -0.28125q-0.90625 0 -1.640625 0.375q-0.71875 0.359375 -1.21875 1.015625q-0.515625 0.671875 -0.78125 1.59375q-0.265625 0.921875 -0.265625 2.046875zm2.171875 0.1875l0 -0.1875q0 -0.671875 0.125 -1.25q0.125 -0.59375 0.40625 -1.03125q0.265625 -0.453125 0.703125 -0.703125q0.4375 -0.265625 1.046875 -0.265625q0.71875 0 1.203125 0.328125q0.484375 0.328125 0.765625 0.875l0 4.234375q-0.28125 0.546875 -0.765625 0.875q-0.484375 0.328125 -1.21875 0.328125q-0.609375 0 -1.046875 -0.25q-0.421875 -0.25 -0.6875 -0.703125q-0.28125 -0.421875 -0.40625 -1.0q-0.125 -0.59375 -0.125 -1.25zm12.289322 3.499998q0 0.625 0.40625 1.0625q0.421875 0.4375 1.171875 0.4375q0.734375 0 1.15625 -0.421875q0.421875 -0.4375 0.421875 -1.078125q0 -0.6406231 -0.421875 -1.0781231q-0.40625 -0.4375 -1.15625 -0.4375q-0.765625 0 -1.171875 0.453125q-0.40625 0.4375 -0.40625 1.0624981zm0 -7.718748q0 0.625 0.40625 1.0625q0.421875 0.4375 1.171875 0.4375q0.734375 0 1.15625 -0.421875q0.421875 -0.4375 0.421875 -1.078125q0 -0.640625 -0.421875 -1.078125q-0.40625 -0.4375 -1.15625 -0.4375q-0.765625 0 -1.171875 0.453125q-0.40625 0.4375 -0.40625 1.0625zm11.195572 7.718748q0 0.625 0.40625 1.0625q0.421875 0.4375 1.171875 0.4375q0.734375 0 1.15625 -0.421875q0.421875 -0.4375 0.421875 -1.078125q0 -0.6406231 -0.421875 -1.0781231q-0.40625 -0.4375 -1.15625 -0.4375q-0.765625 0 -1.171875 0.453125q-0.40625 0.4375 -0.40625 1.0624981zm0 -7.718748q0 0.625 0.40625 1.0625q0.421875 0.4375 1.171875 0.4375q0.734375 0 1.15625 -0.421875q0.421875 -0.4375 0.421875 -1.078125q0 -0.640625 -0.421875 -1.078125q-0.40625 -0.4375 -1.15625 -0.4375q-0.765625 0 -1.171875 0.453125q-0.40625 0.4375 -0.40625 1.0625zm11.445572 9.031248l1.921875 0l3.859375 -9.859373l-2.265625 0l-2.40625 7.15625l-0.140625 0.65625l-0.15625 -0.65625l-2.4375 -7.15625l-2.265625 0l3.890625 9.859373zm12.570572 0.1875q1.4375 0 2.453125 -0.5625q1.015625 -0.578125 1.5 -1.2812481l-1.15625 -1.125q-0.453125 0.578125 -1.15625 0.890625q-0.703125 0.3125 -1.515625 0.3125q-0.59375 0 -1.09375 -0.203125q-0.484375 -0.203125 -0.859375 -0.5625q-0.359375 -0.34375 -0.578125 -0.78125q-0.203125 -0.4375 -0.296875 -1.078125l0 -0.046875l6.828125 0l0 -0.9375q0 -1.0625 -0.28125 -1.953125q-0.28125 -0.890625 -0.84375 -1.546875q-0.546875 -0.625 -1.375 -0.984375q-0.8125 -0.359375 -1.890625 -0.359375q-0.953125 0 -1.796875 0.359375q-0.84375 0.359375 -1.46875 1.015625q-0.640625 0.671875 -1.015625 1.609375q-0.359375 0.9375 -0.359375 2.09375l0 0.375q0 1.0 0.34375 1.875q0.359375 0.875 1.0 1.5156231q0.65625 0.640625 1.5625 1.015625q0.90625 0.359375 2.0 0.359375zm-0.265625 -8.453123q0.546875 0 0.953125 0.1875q0.421875 0.1875 0.6875 0.484375q0.28125 0.328125 0.4375 0.75q0.15625 0.421875 0.15625 0.84375l0 0.15625l-4.625 0q0.09375 -0.5625 0.296875 -1.015625q0.21875 -0.453125 0.53125 -0.765625q0.296875 -0.3125 0.6875 -0.46875q0.40625 -0.171875 0.875 -0.171875zm11.148697 6.703125q-0.6875 0 -1.140625 -0.265625q-0.453125 -0.28125 -0.71875 -0.734375q-0.265625 -0.4375 -0.390625 -1.015625q-0.109375 -0.578125 -0.109375 -1.1875l0 -0.3125q0 -0.59375 0.109375 -1.171875q0.125 -0.578125 0.40625 -1.015625q0.265625 -0.453125 0.703125 -0.71875q0.453125 -0.28125 1.140625 -0.28125q0.453125 0 0.828125 0.15625q0.390625 0.140625 0.671875 0.40625q0.28125 0.265625 0.421875 0.625q0.15625 0.359375 0.15625 0.75l2.046875 0q0.015625 -0.8125 -0.296875 -1.5q-0.296875 -0.6875 -0.84375 -1.171875q-0.546875 -0.484375 -1.3125 -0.75q-0.765625 -0.28125 -1.65625 -0.28125q-1.125 0 -1.984375 0.390625q-0.84375 0.390625 -1.421875 1.0625q-0.578125 0.6875 -0.859375 1.59375q-0.28125 0.890625 -0.28125 1.90625l0 0.3125q0 1.015625 0.28125 1.921875q0.296875 0.890625 0.875 1.5624981q0.5625 0.6875 1.40625 1.078125q0.859375 0.390625 2.0 0.390625q0.8125 0 1.546875 -0.265625q0.75 -0.265625 1.328125 -0.734375q0.5625 -0.46875 0.890625 -1.0937481q0.34375 -0.640625 0.328125 -1.359375l-2.046875 0q0 0.375 -0.171875 0.6875q-0.171875 0.3125 -0.453125 0.53125q-0.28125 0.234375 -0.671875 0.359375q-0.375 0.125 -0.78125 0.125zm11.273697 -10.703125l-2.1875 0l0 2.40625l-2.375 0l0 1.640625l2.375 0l0 4.84375q0 0.9375 0.25 1.625q0.25 0.6718731 0.703125 1.0937481q0.4375 0.4375 1.0625 0.640625q0.625 0.203125 1.375 0.203125q0.40625 0 0.8125 -0.046875q0.421875 -0.03125 0.8125 -0.109375q0.375 -0.0625 0.703125 -0.171875q0.34375 -0.109375 0.578125 -0.25l-0.234375 -1.4999981q-0.171875 0.03125 -0.40625 0.078125q-0.234375 0.046875 -0.515625 0.09375q-0.28125 0.046875 -0.578125 0.078125q-0.296875 0.015625 -0.59375 0.015625q-0.390625 0 -0.71875 -0.078125q-0.328125 -0.09375 -0.5625 -0.3125q-0.234375 -0.21875 -0.375 -0.578125q-0.125 -0.375 -0.125 -0.921875l0 -4.703125l3.703125 0l0 -1.640625l-3.703125 0l0 -2.40625zm6.429947 7.25l0 0.1875q0 1.078125 0.296875 2.0q0.3125 0.90625 0.90625 1.5781231q0.59375 0.671875 1.4375 1.0625q0.859375 0.375 1.953125 0.375q1.0625 0 1.90625 -0.375q0.859375 -0.390625 1.453125 -1.0625q0.578125 -0.6718731 0.890625 -1.5781231q0.3125 -0.921875 0.3125 -2.0l0 -0.1875q0 -1.078125 -0.3125 -1.984375q-0.3125 -0.921875 -0.890625 -1.59375q-0.59375 -0.6875 -1.453125 -1.0625q-0.84375 -0.375 -1.9375 -0.375q-1.078125 0 -1.921875 0.375q-0.84375 0.375 -1.4375 1.0625q-0.59375 0.671875 -0.90625 1.59375q-0.296875 0.90625 -0.296875 1.984375zm2.171875 0.1875l0 -0.1875q0 -0.65625 0.140625 -1.234375q0.140625 -0.59375 0.4375 -1.046875q0.296875 -0.453125 0.75 -0.703125q0.453125 -0.265625 1.0625 -0.265625q0.640625 0 1.078125 0.265625q0.453125 0.25 0.765625 0.703125q0.28125 0.453125 0.421875 1.046875q0.140625 0.578125 0.140625 1.234375l0 0.1875q0 0.671875 -0.140625 1.265625q-0.140625 0.578125 -0.421875 1.03125q-0.296875 0.4375 -0.75 0.703125q-0.453125 0.265625 -1.0625 0.265625q-0.640625 0 -1.09375 -0.265625q-0.453125 -0.265625 -0.75 -0.703125q-0.296875 -0.453125 -0.4375 -1.03125q-0.140625 -0.59375 -0.140625 -1.265625zm16.226807 -5.203125q-1.015625 0 -1.859375 0.46875q-0.84375 0.46875 -1.4375 1.296875l-0.015625 -0.21875l-0.09375 -1.375l-2.03125 0l0 9.859373l2.171875 0l0 -6.078123q0.171875 -0.4375 0.421875 -0.78125q0.265625 -0.34375 0.625 -0.5625q0.34375 -0.21875 0.78125 -0.328125q0.4375 -0.109375 0.984375 -0.109375q0.484375 0 0.96875 0.0625q0.484375 0.046875 0.984375 0.15625l0.3125 -2.15625q-0.28125 -0.09375 -0.78125 -0.15625q-0.5 -0.078125 -1.03125 -0.078125z" fill-rule="nonzero"/><path fill="#000000" fill-opacity="0.0" d="m8.194225 91.461945l391.18112 0l0 42.015747l-391.18112 0z" fill-rule="evenodd"/><path stroke="#000000" stroke-width="3.0" stroke-linejoin="round" stroke-linecap="butt" d="m8.194225 91.461945l391.18112 0l0 42.015747l-391.18112 0z" fill-rule="evenodd"/><path fill="#000000" d="m38.112835 115.71007q0 0.234375 -0.109375 0.4375q-0.109375 0.1875 -0.3125 0.359375q-0.265625 0.203125 -0.6875 0.328125q-0.421875 0.109375 -0.984375 0.109375q-0.421875 0 -0.828125 -0.078125q-0.40625 -0.09375 -0.734375 -0.296875q-0.328125 -0.1875 -0.546875 -0.5q-0.203125 -0.3125 -0.234375 -0.78125l-2.109375 0q0 0.609375 0.28125 1.203125q0.296875 0.59375 0.859375 1.046875q0.5625 0.46875 1.390625 0.75q0.828125 0.28125 1.890625 0.28125q0.953125 0 1.734375 -0.21875q0.78125 -0.21875 1.34375 -0.609375q0.5625 -0.390625 0.859375 -0.9375q0.3125 -0.546875 0.3125 -1.203125q0 -0.671875 -0.296875 -1.15625q-0.28125 -0.5 -0.8125 -0.859375q-0.53125 -0.34375 -1.28125 -0.578125q-0.75 -0.25 -1.640625 -0.40625q-0.65625 -0.109375 -1.078125 -0.25q-0.421875 -0.140625 -0.65625 -0.296875q-0.25 -0.15625 -0.359375 -0.359375q-0.09375 -0.203125 -0.09375 -0.46875q0 -0.234375 0.109375 -0.453125q0.125 -0.234375 0.359375 -0.390625q0.234375 -0.1875 0.59375 -0.296875q0.375 -0.109375 0.875 -0.109375q0.53125 0 0.9375 0.15625q0.40625 0.140625 0.65625 0.375q0.21875 0.203125 0.328125 0.453125q0.125 0.25 0.125 0.515625l2.171875 0q0 -0.65625 -0.296875 -1.234375q-0.28125 -0.578125 -0.828125 -1.0q-0.546875 -0.421875 -1.328125 -0.65625q-0.78125 -0.234375 -1.765625 -0.234375q-0.921875 0 -1.671875 0.234375q-0.75 0.234375 -1.28125 0.640625q-0.53125 0.40625 -0.828125 0.953125q-0.28125 0.546875 -0.28125 1.140625q0 0.625 0.28125 1.109375q0.28125 0.46875 0.78125 0.8125q0.515625 0.375 1.21875 0.625q0.703125 0.25 1.5625 0.421875q0.6875 0.125 1.140625 0.28125q0.453125 0.140625 0.734375 0.3125q0.265625 0.171875 0.375 0.375q0.125 0.203125 0.125 0.453125zm9.117447 -9.59375l-2.1875 0l0 2.40625l-2.375 0l0 1.640625l2.375 0l0 4.84375q0 0.9375 0.25 1.625q0.25 0.671875 0.703125 1.09375q0.4375 0.4375 1.0625 0.640625q0.625 0.203125 1.375 0.203125q0.40625 0 0.8125 -0.046875q0.421875 -0.03125 0.8125 -0.109375q0.375 -0.0625 0.703125 -0.171875q0.34375 -0.109375 0.578125 -0.25l-0.234375 -1.5q-0.171875 0.03125 -0.40625 0.078125q-0.234375 0.046875 -0.515625 0.09375q-0.28125 0.046875 -0.578125 0.078125q-0.296875 0.015625 -0.59375 0.015625q-0.390625 0 -0.71875 -0.078125q-0.328125 -0.09375 -0.5625 -0.3125q-0.234375 -0.21875 -0.375 -0.578125q-0.125 -0.375 -0.125 -0.921875l0 -4.703125l3.703125 0l0 -1.640625l-3.703125 0l0 -2.40625zm6.539322 7.265625l0 0.1875q0 1.0625 0.265625 1.984375q0.28125 0.921875 0.78125 1.578125q0.5 0.671875 1.21875 1.0625q0.71875 0.375 1.625 0.375q0.84375 0 1.5 -0.3125q0.65625 -0.328125 1.140625 -0.90625l0.09375 1.03125l1.984375 0l0 -14.0l-2.1875 0l0 5.0625q-0.46875 -0.53125 -1.09375 -0.8125q-0.609375 -0.28125 -1.421875 -0.28125q-0.90625 0 -1.640625 0.375q-0.71875 0.359375 -1.21875 1.015625q-0.515625 0.671875 -0.78125 1.59375q-0.265625 0.921875 -0.265625 2.046875zm2.171875 0.1875l0 -0.1875q0 -0.671875 0.125 -1.25q0.125 -0.59375 0.40625 -1.03125q0.265625 -0.453125 0.703125 -0.703125q0.4375 -0.265625 1.046875 -0.265625q0.71875 0 1.203125 0.328125q0.484375 0.328125 0.765625 0.875l0 4.234375q-0.28125 0.546875 -0.765625 0.875q-0.484375 0.328125 -1.21875 0.328125q-0.609375 0 -1.046875 -0.25q-0.421875 -0.25 -0.6875 -0.703125q-0.28125 -0.421875 -0.40625 -1.0q-0.125 -0.59375 -0.125 -1.25zm12.289326 3.5q0 0.625 0.40625 1.0625q0.421875 0.4375 1.171875 0.4375q0.734375 0 1.15625 -0.421875q0.421875 -0.4375 0.421875 -1.078125q0 -0.640625 -0.421875 -1.078125q-0.40625 -0.4375 -1.15625 -0.4375q-0.765625 0 -1.171875 0.453125q-0.40625 0.4375 -0.40625 1.0625zm0 -7.71875q0 0.625 0.40625 1.0625q0.421875 0.4375 1.171875 0.4375q0.734375 0 1.15625 -0.421875q0.421875 -0.4375 0.421875 -1.078125q0 -0.640625 -0.421875 -1.078125q-0.40625 -0.4375 -1.15625 -0.4375q-0.765625 0 -1.171875 0.453125q-0.40625 0.4375 -0.40625 1.0625zm11.195572 7.71875q0 0.625 0.40625 1.0625q0.421875 0.4375 1.171875 0.4375q0.734375 0 1.15625 -0.421875q0.421875 -0.4375 0.421875 -1.078125q0 -0.640625 -0.421875 -1.078125q-0.40625 -0.4375 -1.15625 -0.4375q-0.765625 0 -1.171875 0.453125q-0.40625 0.4375 -0.40625 1.0625zm0 -7.71875q0 0.625 0.40625 1.0625q0.421875 0.4375 1.171875 0.4375q0.734375 0 1.15625 -0.421875q0.421875 -0.4375 0.421875 -1.078125q0 -0.640625 -0.421875 -1.078125q-0.40625 -0.4375 -1.15625 -0.4375q-0.765625 0 -1.171875 0.453125q-0.40625 0.4375 -0.40625 1.0625zm8.242447 12.828125l2.171875 0l0 -4.6875q0.171875 0.1875 0.375 0.359375q0.203125 0.15625 0.421875 0.28125q0.359375 0.21875 0.796875 0.328125q0.453125 0.109375 0.984375 0.109375q0.921875 0 1.640625 -0.375q0.71875 -0.390625 1.21875 -1.0625q0.484375 -0.671875 0.734375 -1.59375q0.25 -0.921875 0.25 -1.984375l0 -0.1875q0 -1.109375 -0.25 -2.03125q-0.25 -0.9375 -0.734375 -1.59375q-0.5 -0.671875 -1.21875 -1.03125q-0.71875 -0.359375 -1.671875 -0.359375q-0.484375 0 -0.921875 0.109375q-0.421875 0.09375 -0.765625 0.28125q-0.28125 0.15625 -0.515625 0.359375q-0.234375 0.1875 -0.4375 0.4375l-0.078125 -1.015625l-2.0 0l0 13.65625zm6.421875 -8.8125l0 0.1875q0 0.65625 -0.125 1.25q-0.125 0.578125 -0.40625 1.03125q-0.28125 0.453125 -0.71875 0.71875q-0.421875 0.25 -1.03125 0.25q-0.375 0 -0.6875 -0.078125q-0.3125 -0.09375 -0.546875 -0.234375q-0.25 -0.15625 -0.4375 -0.359375q-0.171875 -0.21875 -0.296875 -0.46875l0 -4.390625q0.140625 -0.265625 0.328125 -0.484375q0.203125 -0.21875 0.46875 -0.375q0.234375 -0.125 0.515625 -0.203125q0.296875 -0.078125 0.640625 -0.078125q0.609375 0 1.046875 0.265625q0.4375 0.25 0.71875 0.6875q0.265625 0.4375 0.390625 1.03125q0.140625 0.578125 0.140625 1.25zm5.992447 -4.84375l-1.90625 0l0 9.859375l2.015625 0l0 -7.5625q0.046875 -0.140625 0.109375 -0.25q0.078125 -0.109375 0.171875 -0.1875q0.109375 -0.125 0.28125 -0.1875q0.171875 -0.0625 0.390625 -0.0625q0.203125 0 0.359375 0.0625q0.15625 0.046875 0.28125 0.171875q0.109375 0.125 0.171875 0.328125q0.0625 0.203125 0.0625 0.484375l0 7.203125l1.96875 0l0 -7.3125q0 -0.09375 0 -0.140625q0 -0.046875 0 -0.09375q0.03125 -0.15625 0.09375 -0.265625q0.078125 -0.125 0.1875 -0.21875q0.125 -0.109375 0.28125 -0.15625q0.15625 -0.0625 0.359375 -0.0625q0.203125 0 0.375 0.0625q0.171875 0.046875 0.28125 0.171875q0.125 0.125 0.1875 0.328125q0.0625 0.203125 0.0625 0.5l0 7.1875l2.0 0l0 -7.171875q0 -0.765625 -0.15625 -1.3125q-0.15625 -0.5625 -0.453125 -0.90625q-0.296875 -0.328125 -0.6875 -0.484375q-0.390625 -0.15625 -0.875 -0.15625q-0.359375 0 -0.671875 0.09375q-0.296875 0.078125 -0.546875 0.25q-0.1875 0.125 -0.359375 0.3125q-0.15625 0.171875 -0.28125 0.390625q-0.09375 -0.234375 -0.21875 -0.40625q-0.125 -0.1875 -0.296875 -0.3125q-0.203125 -0.171875 -0.5 -0.25q-0.28125 -0.078125 -0.65625 -0.078125q-0.703125 0 -1.203125 0.34375q-0.484375 0.328125 -0.765625 0.921875l-0.0625 -1.09375zm16.758072 -0.171875q-1.015625 0 -1.859375 0.46875q-0.84375 0.46875 -1.4375 1.296875l-0.015625 -0.21875l-0.09375 -1.375l-2.03125 0l0 9.859375l2.171875 0l0 -6.078125q0.171875 -0.4375 0.421875 -0.78125q0.265625 -0.34375 0.625 -0.5625q0.34375 -0.21875 0.78125 -0.328125q0.4375 -0.109375 0.984375 -0.109375q0.484375 0 0.96875 0.0625q0.484375 0.046875 0.984375 0.15625l0.3125 -2.15625q-0.28125 -0.09375 -0.78125 -0.15625q-0.5 -0.078125 -1.03125 -0.078125zm7.367447 8.71875q0 0.625 0.40625 1.0625q0.421875 0.4375 1.171875 0.4375q0.734375 0 1.15625 -0.421875q0.421875 -0.4375 0.421875 -1.078125q0 -0.640625 -0.421875 -1.078125q-0.40625 -0.4375 -1.15625 -0.4375q-0.765625 0 -1.171875 0.453125q-0.40625 0.4375 -0.40625 1.0625zm0 -7.71875q0 0.625 0.40625 1.0625q0.421875 0.4375 1.171875 0.4375q0.734375 0 1.15625 -0.421875q0.421875 -0.4375 0.421875 -1.078125q0 -0.640625 -0.421875 -1.078125q-0.40625 -0.4375 -1.15625 -0.4375q-0.765625 0 -1.171875 0.453125q-0.40625 0.4375 -0.40625 1.0625zm11.195572 7.71875q0 0.625 0.40625 1.0625q0.421875 0.4375 1.171875 0.4375q0.734375 0 1.15625 -0.421875q0.421875 -0.4375 0.421875 -1.078125q0 -0.640625 -0.421875 -1.078125q-0.40625 -0.4375 -1.15625 -0.4375q-0.765625 0 -1.171875 0.453125q-0.40625 0.4375 -0.40625 1.0625zm0 -7.71875q0 0.625 0.40625 1.0625q0.421875 0.4375 1.171875 0.4375q0.734375 0 1.15625 -0.421875q0.421875 -0.4375 0.421875 -1.078125q0 -0.640625 -0.421875 -1.078125q-0.40625 -0.4375 -1.15625 -0.4375q-0.765625 0 -1.171875 0.453125q-0.40625 0.4375 -0.40625 1.0625zm8.242447 12.828125l2.171875 0l0 -4.6875q0.171875 0.1875 0.375 0.359375q0.203125 0.15625 0.421875 0.28125q0.359375 0.21875 0.796875 0.328125q0.453125 0.109375 0.984375 0.109375q0.921875 0 1.640625 -0.375q0.71875 -0.390625 1.21875 -1.0625q0.484375 -0.671875 0.734375 -1.59375q0.25 -0.921875 0.25 -1.984375l0 -0.1875q0 -1.109375 -0.25 -2.03125q-0.25 -0.9375 -0.734375 -1.59375q-0.5 -0.671875 -1.21875 -1.03125q-0.71875 -0.359375 -1.671875 -0.359375q-0.484375 0 -0.921875 0.109375q-0.421875 0.09375 -0.765625 0.28125q-0.28125 0.15625 -0.515625 0.359375q-0.234375 0.1875 -0.4375 0.4375l-0.078125 -1.015625l-2.0 0l0 13.65625zm6.421875 -8.8125l0 0.1875q0 0.65625 -0.125 1.25q-0.125 0.578125 -0.40625 1.03125q-0.28125 0.453125 -0.71875 0.71875q-0.421875 0.25 -1.03125 0.25q-0.375 0 -0.6875 -0.078125q-0.3125 -0.09375 -0.546875 -0.234375q-0.25 -0.15625 -0.4375 -0.359375q-0.171875 -0.21875 -0.296875 -0.46875l0 -4.390625q0.140625 -0.265625 0.328125 -0.484375q0.203125 -0.21875 0.46875 -0.375q0.234375 -0.125 0.515625 -0.203125q0.296875 -0.078125 0.640625 -0.078125q0.609375 0 1.046875 0.265625q0.4375 0.25 0.71875 0.6875q0.265625 0.4375 0.390625 1.03125q0.140625 0.578125 0.140625 1.25zm4.351822 0l0 0.1875q0 1.078125 0.296875 2.0q0.3125 0.90625 0.90625 1.578125q0.59375 0.671875 1.4375 1.0625q0.859375 0.375 1.953125 0.375q1.0625 0 1.90625 -0.375q0.859375 -0.390625 1.453125 -1.0625q0.578125 -0.671875 0.890625 -1.578125q0.3125 -0.921875 0.3125 -2.0l0 -0.1875q0 -1.078125 -0.3125 -1.984375q-0.3125 -0.921875 -0.890625 -1.59375q-0.59375 -0.6875 -1.453125 -1.0625q-0.84375 -0.375 -1.9375 -0.375q-1.078125 0 -1.921875 0.375q-0.84375 0.375 -1.4375 1.0625q-0.59375 0.671875 -0.90625 1.59375q-0.296875 0.90625 -0.296875 1.984375zm2.171875 0.1875l0 -0.1875q0 -0.65625 0.140625 -1.234375q0.140625 -0.59375 0.4375 -1.046875q0.296875 -0.453125 0.75 -0.703125q0.453125 -0.265625 1.0625 -0.265625q0.640625 0 1.078125 0.265625q0.453125 0.25 0.765625 0.703125q0.28125 0.453125 0.421875 1.046875q0.140625 0.578125 0.140625 1.234375l0 0.1875q0 0.671875 -0.140625 1.265625q-0.140625 0.578125 -0.421875 1.03125q-0.296875 0.4375 -0.75 0.703125q-0.453125 0.265625 -1.0625 0.265625q-0.640625 0 -1.09375 -0.265625q-0.453125 -0.265625 -0.75 -0.703125q-0.296875 -0.453125 -0.4375 -1.03125q-0.140625 -0.59375 -0.140625 -1.265625zm9.836197 -9.171875l0 1.828125l3.125 0l0 10.375l-3.125 0l0 1.796875l8.296875 0l0 -1.796875l-2.984375 0l0 -12.203125l-5.3125 0zm12.023697 17.984375q0.71875 0 1.25 -0.25q0.546875 -0.25 0.9375 -0.625q0.390625 -0.375 0.640625 -0.8125q0.265625 -0.421875 0.4375 -0.796875l5.0 -11.359375l-2.40625 0l-2.390625 6.046875l-0.40625 1.0625l-0.328125 -1.078125l-2.453125 -6.03125l-2.40625 0l4.203125 9.421875l-0.609375 1.171875q-0.109375 0.203125 -0.21875 0.375q-0.109375 0.1875 -0.296875 0.4375q-0.1875 0.234375 -0.453125 0.421875q-0.25 0.1875 -0.5625 0.1875q-0.15625 0 -0.390625 -0.015625q-0.21875 -0.015625 -0.40625 -0.03125l-0.296875 1.703125q0.265625 0.0625 0.546875 0.109375q0.28125 0.0625 0.609375 0.0625zm11.195572 -13.84375l-1.90625 0l0 9.859375l2.015625 0l0 -7.5625q0.046875 -0.140625 0.109375 -0.25q0.078125 -0.109375 0.171875 -0.1875q0.109375 -0.125 0.28125 -0.1875q0.171875 -0.0625 0.390625 -0.0625q0.203125 0 0.359375 0.0625q0.15625 0.046875 0.28125 0.171875q0.109375 0.125 0.171875 0.328125q0.0625 0.203125 0.0625 0.484375l0 7.203125l1.96875 0l0 -7.3125q0 -0.09375 0 -0.140625q0 -0.046875 0 -0.09375q0.03125 -0.15625 0.09375 -0.265625q0.078125 -0.125 0.1875 -0.21875q0.125 -0.109375 0.28125 -0.15625q0.15625 -0.0625 0.359375 -0.0625q0.203125 0 0.375 0.0625q0.171875 0.046875 0.28125 0.171875q0.125 0.125 0.1875 0.328125q0.0625 0.203125 0.0625 0.5l0 7.1875l2.0 0l0 -7.171875q0 -0.765625 -0.15625 -1.3125q-0.15625 -0.5625 -0.453125 -0.90625q-0.296875 -0.328125 -0.6875 -0.484375q-0.390625 -0.15625 -0.875 -0.15625q-0.359375 0 -0.671875 0.09375q-0.296875 0.078125 -0.546875 0.25q-0.1875 0.125 -0.359375 0.3125q-0.15625 0.171875 -0.28125 0.390625q-0.09375 -0.234375 -0.21875 -0.40625q-0.125 -0.1875 -0.296875 -0.3125q-0.203125 -0.171875 -0.5 -0.25q-0.28125 -0.078125 -0.65625 -0.078125q-0.703125 0 -1.203125 0.34375q-0.484375 0.328125 -0.765625 0.921875l-0.0625 -1.09375zm9.554947 4.84375l0 0.1875q0 1.078125 0.296875 2.0q0.3125 0.90625 0.90625 1.578125q0.59375 0.671875 1.4375 1.0625q0.859375 0.375 1.953125 0.375q1.0625 0 1.90625 -0.375q0.859375 -0.390625 1.453125 -1.0625q0.578125 -0.671875 0.890625 -1.578125q0.3125 -0.921875 0.3125 -2.0l0 -0.1875q0 -1.078125 -0.3125 -1.984375q-0.3125 -0.921875 -0.890625 -1.59375q-0.59375 -0.6875 -1.453125 -1.0625q-0.84375 -0.375 -1.9375 -0.375q-1.078125 0 -1.921875 0.375q-0.84375 0.375 -1.4375 1.0625q-0.59375 0.671875 -0.90625 1.59375q-0.296875 0.90625 -0.296875 1.984375zm2.171875 0.1875l0 -0.1875q0 -0.65625 0.140625 -1.234375q0.140625 -0.59375 0.4375 -1.046875q0.296875 -0.453125 0.75 -0.703125q0.453125 -0.265625 1.0625 -0.265625q0.640625 0 1.078125 0.265625q0.453125 0.25 0.765625 0.703125q0.28125 0.453125 0.421875 1.046875q0.140625 0.578125 0.140625 1.234375l0 0.1875q0 0.671875 -0.140625 1.265625q-0.140625 0.578125 -0.421875 1.03125q-0.296875 0.4375 -0.75 0.703125q-0.453125 0.265625 -1.0625 0.265625q-0.640625 0 -1.09375 -0.265625q-0.453125 -0.265625 -0.75 -0.703125q-0.296875 -0.453125 -0.4375 -1.03125q-0.140625 -0.59375 -0.140625 -1.265625zm16.226822 -5.203125q-1.015625 0 -1.859375 0.46875q-0.84375 0.46875 -1.4375 1.296875l-0.015625 -0.21875l-0.09375 -1.375l-2.03125 0l0 9.859375l2.171875 0l0 -6.078125q0.171875 -0.4375 0.421875 -0.78125q0.265625 -0.34375 0.625 -0.5625q0.34375 -0.21875 0.78125 -0.328125q0.4375 -0.109375 0.984375 -0.109375q0.484375 0 0.96875 0.0625q0.484375 0.046875 0.984375 0.15625l0.3125 -2.15625q-0.28125 -0.09375 -0.78125 -0.15625q-0.5 -0.078125 -1.03125 -0.078125zm4.414322 13.828125l2.171875 0l0 -4.6875q0.171875 0.1875 0.375 0.359375q0.203125 0.15625 0.421875 0.28125q0.359375 0.21875 0.796875 0.328125q0.453125 0.109375 0.984375 0.109375q0.921875 0 1.640625 -0.375q0.71875 -0.390625 1.21875 -1.0625q0.484375 -0.671875 0.734375 -1.59375q0.25 -0.921875 0.25 -1.984375l0 -0.1875q0 -1.109375 -0.25 -2.03125q-0.25 -0.9375 -0.734375 -1.59375q-0.5 -0.671875 -1.21875 -1.03125q-0.71875 -0.359375 -1.671875 -0.359375q-0.484375 0 -0.921875 0.109375q-0.421875 0.09375 -0.765625 0.28125q-0.28125 0.15625 -0.515625 0.359375q-0.234375 0.1875 -0.4375 0.4375l-0.078125 -1.015625l-2.0 0l0 13.65625zm6.421875 -8.8125l0 0.1875q0 0.65625 -0.125 1.25q-0.125 0.578125 -0.40625 1.03125q-0.28125 0.453125 -0.71875 0.71875q-0.421875 0.25 -1.03125 0.25q-0.375 0 -0.6875 -0.078125q-0.3125 -0.09375 -0.546875 -0.234375q-0.25 -0.15625 -0.4375 -0.359375q-0.171875 -0.21875 -0.296875 -0.46875l0 -4.390625q0.140625 -0.265625 0.328125 -0.484375q0.203125 -0.21875 0.46875 -0.375q0.234375 -0.125 0.515625 -0.203125q0.296875 -0.078125 0.640625 -0.078125q0.609375 0 1.046875 0.265625q0.4375 0.25 0.71875 0.6875q0.265625 0.4375 0.390625 1.03125q0.140625 0.578125 0.140625 1.25zm6.929947 -3.4375l0 -5.546875l-2.1875 0l0 14.0l2.1875 0l0 -7.125q0.15625 -0.25 0.359375 -0.4375q0.203125 -0.1875 0.4375 -0.328125q0.28125 -0.171875 0.625 -0.265625q0.34375 -0.09375 0.71875 -0.09375q0.5 0 0.875 0.140625q0.375 0.125 0.640625 0.40625q0.25 0.25 0.375 0.671875q0.140625 0.40625 0.140625 0.953125l0 6.078125l2.1875 0l0 -6.0625q0 -1.046875 -0.25 -1.796875q-0.25 -0.765625 -0.71875 -1.234375q-0.453125 -0.484375 -1.09375 -0.703125q-0.640625 -0.234375 -1.40625 -0.234375q-0.5625 0 -1.0625 0.15625q-0.5 0.15625 -0.90625 0.453125q-0.265625 0.1875 -0.5 0.4375q-0.234375 0.234375 -0.421875 0.53125zm9.508072 -1.40625l0 1.8125l3.046875 0l0 6.25l-3.046875 0l0 1.796875l8.125 0l0 -1.796875l-2.890625 0l0 -8.0625l-5.234375 0zm2.84375 -2.546875q0 0.34375 0.15625 0.609375q0.171875 0.25 0.5 0.359375q0.328125 0.09375 0.59375 0.046875q0.265625 -0.0625 0.453125 -0.234375q0.375 -0.09375 0.578125 -0.390625q0.203125 -0.296875 0.140625 -0.703125q-0.046875 -0.390625 -0.359375 -0.640625q-0.296875 -0.25 -0.796875 -0.25q-0.28125 0 -0.515625 0.09375q-0.234375 0.078125 -0.40625 0.234375q-0.171875 0.15625 -0.265625 0.390625q-0.078125 0.21875 -0.078125 0.484375zm12.148682 10.84375q-0.6875 0 -1.140625 -0.265625q-0.453125 -0.28125 -0.71875 -0.734375q-0.265625 -0.4375 -0.390625 -1.015625q-0.109375 -0.578125 -0.109375 -1.1875l0 -0.3125q0 -0.59375 0.109375 -1.171875q0.125 -0.578125 0.40625 -1.015625q0.265625 -0.453125 0.703125 -0.71875q0.453125 -0.28125 1.140625 -0.28125q0.453125 0 0.828125 0.15625q0.390625 0.140625 0.671875 0.40625q0.28125 0.265625 0.421875 0.625q0.15625 0.359375 0.15625 0.75l2.046875 0q0.015625 -0.8125 -0.296875 -1.5q-0.296875 -0.6875 -0.84375 -1.171875q-0.546875 -0.484375 -1.3125 -0.75q-0.765625 -0.28125 -1.65625 -0.28125q-1.125 0 -1.984375 0.390625q-0.84375 0.390625 -1.421875 1.0625q-0.57810974 0.6875 -0.85935974 1.59375q-0.28125 0.890625 -0.28125 1.90625l0 0.3125q0 1.015625 0.28125 1.921875q0.296875 0.890625 0.87498474 1.5625q0.5625 0.6875 1.40625 1.078125q0.859375 0.390625 2.0 0.390625q0.8125 0 1.546875 -0.265625q0.75 -0.265625 1.328125 -0.734375q0.5625 -0.46875 0.890625 -1.09375q0.34375 -0.640625 0.328125 -1.359375l-2.046875 0q0 0.375 -0.171875 0.6875q-0.171875 0.3125 -0.453125 0.53125q-0.28125 0.234375 -0.671875 0.359375q-0.375 0.125 -0.78125 0.125zm15.195587 3.28125l0 -1.71875l-8.328125 0l0 1.71875l8.328125 0zm9.195557 -1.71875l2.21875 0l0 -0.15625q-0.171875 -0.375 -0.265625 -0.90625q-0.09375 -0.546875 -0.09375 -1.203125l0 -4.390625q0 -0.828125 -0.3125 -1.46875q-0.3125 -0.640625 -0.859375 -1.0625q-0.546875 -0.421875 -1.296875 -0.625q-0.75 -0.21875 -1.625 -0.21875q-0.953125 0 -1.71875 0.25q-0.75 0.25 -1.25 0.671875q-0.53125 0.421875 -0.8125 0.96875q-0.265625 0.546875 -0.28125 1.140625l2.1875 0q0 -0.28125 0.109375 -0.53125q0.109375 -0.25 0.328125 -0.4375q0.21875 -0.1875 0.546875 -0.296875q0.328125 -0.109375 0.78125 -0.109375q0.484375 0 0.859375 0.125q0.390625 0.125 0.65625 0.359375q0.234375 0.21875 0.359375 0.53125q0.140625 0.3125 0.140625 0.6875l0 0.671875l-1.578125 0q-1.0625 0 -1.90625 0.203125q-0.84375 0.1875 -1.421875 0.578125q-0.625 0.40625 -0.953125 1.03125q-0.3125 0.625 -0.3125 1.4375q0 0.625 0.25 1.171875q0.25 0.546875 0.703125 0.921875q0.453125 0.390625 1.078125 0.625q0.640625 0.21875 1.40625 0.21875q0.46875 0 0.875 -0.09375q0.421875 -0.09375 0.765625 -0.25q0.359375 -0.15625 0.640625 -0.375q0.296875 -0.21875 0.515625 -0.453125q0.046875 0.28125 0.109375 0.546875q0.0625 0.25 0.15625 0.4375zm-2.640625 -1.5625q-0.421875 0 -0.734375 -0.109375q-0.3125 -0.109375 -0.515625 -0.28125q-0.21875 -0.1875 -0.328125 -0.4375q-0.109375 -0.265625 -0.109375 -0.5625q0 -0.375 0.125 -0.65625q0.140625 -0.296875 0.421875 -0.515625q0.3125 -0.234375 0.828125 -0.359375q0.515625 -0.140625 1.21875 -0.140625l1.40625 0l0 1.8125q-0.109375 0.25 -0.328125 0.46875q-0.21875 0.21875 -0.53125 0.390625q-0.296875 0.171875 -0.671875 0.28125q-0.359375 0.109375 -0.78125 0.109375zm7.961212 -12.4375l0 1.828125l3.125 0l0 10.375l-3.125 0l0 1.796875l8.296875 0l0 -1.796875l-2.984375 0l0 -12.203125l-5.3125 0zm11.195557 0l0 1.828125l3.125 0l0 10.375l-3.125 0l0 1.796875l8.296875 0l0 -1.796875l-2.984375 0l0 -12.203125l-5.3125 0zm10.383057 8.984375l0 0.1875q0 1.078125 0.296875 2.0q0.3125 0.90625 0.90625 1.578125q0.59375 0.671875 1.4375 1.0625q0.859375 0.375 1.953125 0.375q1.0625 0 1.90625 -0.375q0.859375 -0.390625 1.453125 -1.0625q0.578125 -0.671875 0.890625 -1.578125q0.3125 -0.921875 0.3125 -2.0l0 -0.1875q0 -1.078125 -0.3125 -1.984375q-0.3125 -0.921875 -0.890625 -1.59375q-0.59375 -0.6875 -1.453125 -1.0625q-0.84375 -0.375 -1.9375 -0.375q-1.078125 0 -1.921875 0.375q-0.84375 0.375 -1.4375 1.0625q-0.59375 0.671875 -0.90625 1.59375q-0.296875 0.90625 -0.296875 1.984375zm2.171875 0.1875l0 -0.1875q0 -0.65625 0.140625 -1.234375q0.140625 -0.59375 0.4375 -1.046875q0.296875 -0.453125 0.75 -0.703125q0.453125 -0.265625 1.0625 -0.265625q0.640625 0 1.078125 0.265625q0.453125 0.25 0.765625 0.703125q0.28125 0.453125 0.421875 1.046875q0.140625 0.578125 0.140625 1.234375l0 0.1875q0 0.671875 -0.140625 1.265625q-0.140625 0.578125 -0.421875 1.03125q-0.296875 0.4375 -0.75 0.703125q-0.453125 0.265625 -1.0625 0.265625q-0.640625 0 -1.09375 -0.265625q-0.453125 -0.265625 -0.75 -0.703125q-0.296875 -0.453125 -0.4375 -1.03125q-0.140625 -0.59375 -0.140625 -1.265625zm13.711182 3.265625q-0.6875 0 -1.140625 -0.265625q-0.453125 -0.28125 -0.71875 -0.734375q-0.265625 -0.4375 -0.390625 -1.015625q-0.109375 -0.578125 -0.109375 -1.1875l0 -0.3125q0 -0.59375 0.109375 -1.171875q0.125 -0.578125 0.40625 -1.015625q0.265625 -0.453125 0.703125 -0.71875q0.453125 -0.28125 1.140625 -0.28125q0.453125 0 0.828125 0.15625q0.390625 0.140625 0.671875 0.40625q0.28125 0.265625 0.421875 0.625q0.15625 0.359375 0.15625 0.75l2.046875 0q0.015625 -0.8125 -0.296875 -1.5q-0.296875 -0.6875 -0.84375 -1.171875q-0.546875 -0.484375 -1.3125 -0.75q-0.765625 -0.28125 -1.65625 -0.28125q-1.125 0 -1.984375 0.390625q-0.84375 0.390625 -1.421875 1.0625q-0.578125 0.6875 -0.859375 1.59375q-0.28125 0.890625 -0.28125 1.90625l0 0.3125q0 1.015625 0.28125 1.921875q0.296875 0.890625 0.875 1.5625q0.5625 0.6875 1.40625 1.078125q0.859375 0.390625 2.0 0.390625q0.8125 0 1.546875 -0.265625q0.75 -0.265625 1.328125 -0.734375q0.5625 -0.46875 0.890625 -1.09375q0.34375 -0.640625 0.328125 -1.359375l-2.046875 0q0 0.375 -0.171875 0.6875q-0.171875 0.3125 -0.453125 0.53125q-0.28125 0.234375 -0.671875 0.359375q-0.375 0.125 -0.78125 0.125zm13.195557 1.5625l2.21875 0l0 -0.15625q-0.171875 -0.375 -0.265625 -0.90625q-0.09375 -0.546875 -0.09375 -1.203125l0 -4.390625q0 -0.828125 -0.3125 -1.46875q-0.3125 -0.640625 -0.859375 -1.0625q-0.546875 -0.421875 -1.296875 -0.625q-0.75 -0.21875 -1.625 -0.21875q-0.953125 0 -1.71875 0.25q-0.75 0.25 -1.25 0.671875q-0.53125 0.421875 -0.8125 0.96875q-0.265625 0.546875 -0.28125 1.140625l2.1875 0q0 -0.28125 0.109375 -0.53125q0.109375 -0.25 0.328125 -0.4375q0.21875 -0.1875 0.546875 -0.296875q0.328125 -0.109375 0.78125 -0.109375q0.484375 0 0.859375 0.125q0.390625 0.125 0.65625 0.359375q0.234375 0.21875 0.359375 0.53125q0.140625 0.3125 0.140625 0.6875l0 0.671875l-1.578125 0q-1.0625 0 -1.90625 0.203125q-0.84375 0.1875 -1.421875 0.578125q-0.625 0.40625 -0.953125 1.03125q-0.3125 0.625 -0.3125 1.4375q0 0.625 0.25 1.171875q0.25 0.546875 0.703125 0.921875q0.453125 0.390625 1.078125 0.625q0.640625 0.21875 1.40625 0.21875q0.46875 0 0.875 -0.09375q0.421875 -0.09375 0.765625 -0.25q0.359375 -0.15625 0.640625 -0.375q0.296875 -0.21875 0.515625 -0.453125q0.046875 0.28125 0.109375 0.546875q0.0625 0.25 0.15625 0.4375zm-2.640625 -1.5625q-0.421875 0 -0.734375 -0.109375q-0.3125 -0.109375 -0.515625 -0.28125q-0.21875 -0.1875 -0.328125 -0.4375q-0.109375 -0.265625 -0.109375 -0.5625q0 -0.375 0.125 -0.65625q0.140625 -0.296875 0.421875 -0.515625q0.3125 -0.234375 0.828125 -0.359375q0.515625 -0.140625 1.21875 -0.140625l1.40625 0l0 1.8125q-0.109375 0.25 -0.328125 0.46875q-0.21875 0.21875 -0.53125 0.390625q-0.296875 0.171875 -0.671875 0.28125q-0.359375 0.109375 -0.78125 0.109375zm11.914307 -10.703125l-2.1875 0l0 2.40625l-2.375 0l0 1.640625l2.375 0l0 4.84375q0 0.9375 0.25 1.625q0.25 0.671875 0.703125 1.09375q0.4375 0.4375 1.0625 0.640625q0.625 0.203125 1.375 0.203125q0.40625 0 0.8125 -0.046875q0.421875 -0.03125 0.8125 -0.109375q0.375 -0.0625 0.703125 -0.171875q0.34375 -0.109375 0.578125 -0.25l-0.234375 -1.5q-0.171875 0.03125 -0.40625 0.078125q-0.234375 0.046875 -0.515625 0.09375q-0.28125 0.046875 -0.578125 0.078125q-0.296875 0.015625 -0.59375 0.015625q-0.390625 0 -0.71875 -0.078125q-0.328125 -0.09375 -0.5625 -0.3125q-0.234375 -0.21875 -0.375 -0.578125q-0.125 -0.375 -0.125 -0.921875l0 -4.703125l3.703125 0l0 -1.640625l-3.703125 0l0 -2.40625zm6.4299316 7.25l0 0.1875q0 1.078125 0.296875 2.0q0.3125 0.90625 0.90625 1.578125q0.59375 0.671875 1.4375 1.0625q0.859375 0.375 1.953125 0.375q1.0625 0 1.90625 -0.375q0.859375 -0.390625 1.453125 -1.0625q0.578125 -0.671875 0.890625 -1.578125q0.3125 -0.921875 0.3125 -2.0l0 -0.1875q0 -1.078125 -0.3125 -1.984375q-0.3125 -0.921875 -0.890625 -1.59375q-0.59375 -0.6875 -1.453125 -1.0625q-0.84375 -0.375 -1.9375 -0.375q-1.078125 0 -1.921875 0.375q-0.84375 0.375 -1.4375 1.0625q-0.59375 0.671875 -0.90625 1.59375q-0.296875 0.90625 -0.296875 1.984375zm2.171875 0.1875l0 -0.1875q0 -0.65625 0.140625 -1.234375q0.140625 -0.59375 0.4375 -1.046875q0.296875 -0.453125 0.75 -0.703125q0.453125 -0.265625 1.0625 -0.265625q0.640625 0 1.078125 0.265625q0.453125 0.25 0.765625 0.703125q0.28125 0.453125 0.421875 1.046875q0.140625 0.578125 0.140625 1.234375l0 0.1875q0 0.671875 -0.140625 1.265625q-0.140625 0.578125 -0.421875 1.03125q-0.296875 0.4375 -0.75 0.703125q-0.453125 0.265625 -1.0625 0.265625q-0.640625 0 -1.09375 -0.265625q-0.453125 -0.265625 -0.75 -0.703125q-0.296875 -0.453125 -0.4375 -1.03125q-0.140625 -0.59375 -0.140625 -1.265625zm16.226807 -5.203125q-1.015625 0 -1.859375 0.46875q-0.84375 0.46875 -1.4375 1.296875l-0.015625 -0.21875l-0.09375 -1.375l-2.03125 0l0 9.859375l2.171875 0l0 -6.078125q0.171875 -0.4375 0.421875 -0.78125q0.265625 -0.34375 0.625 -0.5625q0.34375 -0.21875 0.78125 -0.328125q0.4375 -0.109375 0.984375 -0.109375q0.484375 0 0.96875 0.0625q0.484375 0.046875 0.984375 0.15625l0.3125 -2.15625q-0.28125 -0.09375 -0.78125 -0.15625q-0.5 -0.078125 -1.03125 -0.078125z" fill-rule="nonzero"/><path fill="#000000" fill-opacity="0.0" d="m8.194225 176.46982l391.18112 0l0 42.015747l-391.18112 0z" fill-rule="evenodd"/><path stroke="#000000" stroke-width="3.0" stroke-linejoin="round" stroke-linecap="butt" d="m8.194225 176.46982l391.18112 0l0 42.015747l-391.18112 0z" fill-rule="evenodd"/><path fill="#000000" d="m71.69951 200.71794q0 0.234375 -0.109375 0.4375q-0.109375 0.1875 -0.3125 0.359375q-0.265625 0.203125 -0.6875 0.328125q-0.421875 0.109375 -0.984375 0.109375q-0.421875 0 -0.828125 -0.078125q-0.40625 -0.09375 -0.734375 -0.296875q-0.328125 -0.1875 -0.546875 -0.5q-0.203125 -0.3125 -0.234375 -0.78125l-2.109375 0q0 0.609375 0.28125 1.203125q0.296875 0.59375 0.859375 1.046875q0.5625 0.46875 1.390625 0.75q0.828125 0.28125 1.890625 0.28125q0.953125 0 1.734375 -0.21875q0.78125 -0.21875 1.34375 -0.609375q0.5625 -0.390625 0.859375 -0.9375q0.3125 -0.546875 0.3125 -1.203125q0 -0.671875 -0.296875 -1.15625q-0.28125 -0.5 -0.8125 -0.859375q-0.53125 -0.34375 -1.28125 -0.578125q-0.75 -0.25 -1.640625 -0.40625q-0.65625 -0.109375 -1.078125 -0.25q-0.421875 -0.140625 -0.65625 -0.296875q-0.25 -0.15625 -0.359375 -0.359375q-0.09375 -0.203125 -0.09375 -0.46875q0 -0.234375 0.109375 -0.453125q0.125 -0.234375 0.359375 -0.390625q0.234375 -0.1875 0.59375 -0.296875q0.375 -0.109375 0.875 -0.109375q0.53125 0 0.9375 0.15625q0.40625 0.140625 0.65625 0.375q0.21875 0.203125 0.328125 0.453125q0.125 0.25 0.125 0.515625l2.171875 0q0 -0.65625 -0.296875 -1.234375q-0.28125 -0.578125 -0.828125 -1.0q-0.546875 -0.421875 -1.328125 -0.65625q-0.78125 -0.234375 -1.765625 -0.234375q-0.921875 0 -1.671875 0.234375q-0.75 0.234375 -1.28125 0.640625q-0.53125 0.40625 -0.828125 0.953125q-0.28125 0.546875 -0.28125 1.140625q0 0.625 0.28125 1.109375q0.28125 0.46875 0.78125 0.8125q0.515625 0.375 1.21875 0.625q0.703125 0.25 1.5625 0.421875q0.6875 0.125 1.140625 0.28125q0.453125 0.140625 0.734375 0.3125q0.265625 0.171875 0.375 0.375q0.125 0.203125 0.125 0.453125zm9.117447 -9.59375l-2.1875 0l0 2.40625l-2.375 0l0 1.640625l2.375 0l0 4.84375q0 0.9375 0.25 1.625q0.25 0.671875 0.703125 1.09375q0.4375 0.4375 1.0625 0.640625q0.625 0.203125 1.375 0.203125q0.40625 0 0.8125 -0.046875q0.421875 -0.03125 0.8125 -0.109375q0.375 -0.0625 0.703125 -0.171875q0.34375 -0.109375 0.578125 -0.25l-0.234375 -1.5q-0.171875 0.03125 -0.40625 0.078125q-0.234375 0.046875 -0.515625 0.09375q-0.28125 0.046875 -0.578125 0.078125q-0.296875 0.015625 -0.59375 0.015625q-0.390625 0 -0.71875 -0.078125q-0.328125 -0.09375 -0.5625 -0.3125q-0.234375 -0.21875 -0.375 -0.578125q-0.125 -0.375 -0.125 -0.921875l0 -4.703125l3.703125 0l0 -1.640625l-3.703125 0l0 -2.40625zm6.539322 7.265625l0 0.1875q0 1.0625 0.265625 1.984375q0.28125 0.921875 0.78125 1.578125q0.5 0.671875 1.21875 1.0625q0.71875 0.375 1.625 0.375q0.84375 0 1.5 -0.3125q0.65625 -0.328125 1.140625 -0.90625l0.09375 1.03125l1.984375 0l0 -14.0l-2.1875 0l0 5.0625q-0.46875 -0.53125 -1.09375 -0.8125q-0.609375 -0.28125 -1.421875 -0.28125q-0.90625 0 -1.640625 0.375q-0.71875 0.359375 -1.21875 1.015625q-0.515625 0.671875 -0.78125 1.59375q-0.265625 0.921875 -0.265625 2.046875zm2.171875 0.1875l0 -0.1875q0 -0.671875 0.125 -1.25q0.125 -0.59375 0.40625 -1.03125q0.265625 -0.453125 0.703125 -0.703125q0.4375 -0.265625 1.046875 -0.265625q0.71875 0 1.203125 0.328125q0.484375 0.328125 0.765625 0.875l0 4.234375q-0.28125 0.546875 -0.765625 0.875q-0.484375 0.328125 -1.21875 0.328125q-0.609375 0 -1.046875 -0.25q-0.421875 -0.25 -0.6875 -0.703125q-0.28125 -0.421875 -0.40625 -1.0q-0.125 -0.59375 -0.125 -1.25zm12.289322 3.5q0 0.625 0.40625 1.0625q0.421875 0.4375 1.171875 0.4375q0.734375 0 1.15625 -0.421875q0.421875 -0.4375 0.421875 -1.078125q0 -0.640625 -0.421875 -1.078125q-0.40625 -0.4375 -1.15625 -0.4375q-0.765625 0 -1.171875 0.453125q-0.40625 0.4375 -0.40625 1.0625zm0 -7.71875q0 0.625 0.40625 1.0625q0.421875 0.4375 1.171875 0.4375q0.734375 0 1.15625 -0.421875q0.421875 -0.4375 0.421875 -1.078125q0 -0.640625 -0.421875 -1.078125q-0.40625 -0.4375 -1.15625 -0.4375q-0.765625 0 -1.171875 0.453125q-0.40625 0.4375 -0.40625 1.0625zm11.195572 7.71875q0 0.625 0.40625 1.0625q0.421875 0.4375 1.171875 0.4375q0.734375 0 1.15625 -0.421875q0.421875 -0.4375 0.421875 -1.078125q0 -0.640625 -0.421875 -1.078125q-0.40625 -0.4375 -1.15625 -0.4375q-0.765625 0 -1.171875 0.453125q-0.40625 0.4375 -0.40625 1.0625zm0 -7.71875q0 0.625 0.40625 1.0625q0.421875 0.4375 1.171875 0.4375q0.734375 0 1.15625 -0.421875q0.421875 -0.4375 0.421875 -1.078125q0 -0.640625 -0.421875 -1.078125q-0.40625 -0.4375 -1.15625 -0.4375q-0.765625 0 -1.171875 0.453125q-0.40625 0.4375 -0.40625 1.0625zm8.242447 12.828125l2.171875 0l0 -4.6875q0.171875 0.1875 0.375 0.359375q0.203125 0.15625 0.421875 0.28125q0.359375 0.21875 0.796875 0.328125q0.453125 0.109375 0.984375 0.109375q0.921875 0 1.640625 -0.375q0.71875 -0.390625 1.21875 -1.0625q0.484375 -0.671875 0.734375 -1.59375q0.25 -0.921875 0.25 -1.984375l0 -0.1875q0 -1.109375 -0.25 -2.03125q-0.25 -0.9375 -0.734375 -1.59375q-0.5 -0.671875 -1.21875 -1.03125q-0.71875 -0.359375 -1.671875 -0.359375q-0.484375 0 -0.921875 0.109375q-0.421875 0.09375 -0.765625 0.28125q-0.28125 0.15625 -0.515625 0.359375q-0.234375 0.1875 -0.4375 0.4375l-0.078125 -1.015625l-2.0 0l0 13.65625zm6.421875 -8.8125l0 0.1875q0 0.65625 -0.125 1.25q-0.125 0.578125 -0.40625 1.03125q-0.28125 0.453125 -0.71875 0.71875q-0.421875 0.25 -1.03125 0.25q-0.375 0 -0.6875 -0.078125q-0.3125 -0.09375 -0.546875 -0.234375q-0.25 -0.15625 -0.4375 -0.359375q-0.171875 -0.21875 -0.296875 -0.46875l0 -4.390625q0.140625 -0.265625 0.328125 -0.484375q0.203125 -0.21875 0.46875 -0.375q0.234375 -0.125 0.515625 -0.203125q0.296875 -0.078125 0.640625 -0.078125q0.609375 0 1.046875 0.265625q0.4375 0.25 0.71875 0.6875q0.265625 0.4375 0.390625 1.03125q0.140625 0.578125 0.140625 1.25zm5.992447 -4.84375l-1.90625 0l0 9.859375l2.015625 0l0 -7.5625q0.046875 -0.140625 0.109375 -0.25q0.078125 -0.109375 0.171875 -0.1875q0.109375 -0.125 0.28125 -0.1875q0.171875 -0.0625 0.390625 -0.0625q0.203125 0 0.359375 0.0625q0.15625 0.046875 0.28125 0.171875q0.109375 0.125 0.171875 0.328125q0.0625 0.203125 0.0625 0.484375l0 7.203125l1.96875 0l0 -7.3125q0 -0.09375 0 -0.140625q0 -0.046875 0 -0.09375q0.03125 -0.15625 0.09375 -0.265625q0.078125 -0.125 0.1875 -0.21875q0.125 -0.109375 0.28125 -0.15625q0.15625 -0.0625 0.359375 -0.0625q0.203125 0 0.375 0.0625q0.171875 0.046875 0.28125 0.171875q0.125 0.125 0.1875 0.328125q0.0625 0.203125 0.0625 0.5l0 7.1875l2.0 0l0 -7.171875q0 -0.765625 -0.15625 -1.3125q-0.15625 -0.5625 -0.453125 -0.90625q-0.296875 -0.328125 -0.6875 -0.484375q-0.390625 -0.15625 -0.875 -0.15625q-0.359375 0 -0.671875 0.09375q-0.296875 0.078125 -0.546875 0.25q-0.1875 0.125 -0.359375 0.3125q-0.15625 0.171875 -0.28125 0.390625q-0.09375 -0.234375 -0.21875 -0.40625q-0.125 -0.1875 -0.296875 -0.3125q-0.203125 -0.171875 -0.5 -0.25q-0.28125 -0.078125 -0.65625 -0.078125q-0.703125 0 -1.203125 0.34375q-0.484375 0.328125 -0.765625 0.921875l-0.0625 -1.09375zm16.758072 -0.171875q-1.015625 0 -1.859375 0.46875q-0.84375 0.46875 -1.4375 1.296875l-0.015625 -0.21875l-0.09375 -1.375l-2.03125 0l0 9.859375l2.171875 0l0 -6.078125q0.171875 -0.4375 0.421875 -0.78125q0.265625 -0.34375 0.625 -0.5625q0.34375 -0.21875 0.78125 -0.328125q0.4375 -0.109375 0.984375 -0.109375q0.484375 0 0.96875 0.0625q0.484375 0.046875 0.984375 0.15625l0.3125 -2.15625q-0.28125 -0.09375 -0.78125 -0.15625q-0.5 -0.078125 -1.03125 -0.078125zm7.367447 8.71875q0 0.625 0.40625 1.0625q0.421875 0.4375 1.171875 0.4375q0.734375 0 1.15625 -0.421875q0.421875 -0.4375 0.421875 -1.078125q0 -0.640625 -0.421875 -1.078125q-0.40625 -0.4375 -1.15625 -0.4375q-0.765625 0 -1.171875 0.453125q-0.40625 0.4375 -0.40625 1.0625zm0 -7.71875q0 0.625 0.40625 1.0625q0.421875 0.4375 1.171875 0.4375q0.734375 0 1.15625 -0.421875q0.421875 -0.4375 0.421875 -1.078125q0 -0.640625 -0.421875 -1.078125q-0.40625 -0.4375 -1.15625 -0.4375q-0.765625 0 -1.171875 0.453125q-0.40625 0.4375 -0.40625 1.0625zm11.195572 7.71875q0 0.625 0.40625 1.0625q0.421875 0.4375 1.171875 0.4375q0.734375 0 1.15625 -0.421875q0.421875 -0.4375 0.421875 -1.078125q0 -0.640625 -0.421875 -1.078125q-0.40625 -0.4375 -1.15625 -0.4375q-0.765625 0 -1.171875 0.453125q-0.40625 0.4375 -0.40625 1.0625zm0 -7.71875q0 0.625 0.40625 1.0625q0.421875 0.4375 1.171875 0.4375q0.734375 0 1.15625 -0.421875q0.421875 -0.4375 0.421875 -1.078125q0 -0.640625 -0.421875 -1.078125q-0.40625 -0.4375 -1.15625 -0.4375q-0.765625 0 -1.171875 0.453125q-0.40625 0.4375 -0.40625 1.0625zm9.461197 -0.828125l-1.90625 0l0 9.859375l2.015625 0l0 -7.5625q0.046875 -0.140625 0.109375 -0.25q0.078125 -0.109375 0.171875 -0.1875q0.109375 -0.125 0.28125 -0.1875q0.171875 -0.0625 0.390625 -0.0625q0.203125 0 0.359375 0.0625q0.15625 0.046875 0.28125 0.171875q0.109375 0.125 0.171875 0.328125q0.0625 0.203125 0.0625 0.484375l0 7.203125l1.96875 0l0 -7.3125q0 -0.09375 0 -0.140625q0 -0.046875 0 -0.09375q0.03125 -0.15625 0.09375 -0.265625q0.078125 -0.125 0.1875 -0.21875q0.125 -0.109375 0.28125 -0.15625q0.15625 -0.0625 0.359375 -0.0625q0.203125 0 0.375 0.0625q0.171875 0.046875 0.28125 0.171875q0.125 0.125 0.1875 0.328125q0.0625 0.203125 0.0625 0.5l0 7.1875l2.0 0l0 -7.171875q0 -0.765625 -0.15625 -1.3125q-0.15625 -0.5625 -0.453125 -0.90625q-0.296875 -0.328125 -0.6875 -0.484375q-0.390625 -0.15625 -0.875 -0.15625q-0.359375 0 -0.671875 0.09375q-0.296875 0.078125 -0.546875 0.25q-0.1875 0.125 -0.359375 0.3125q-0.15625 0.171875 -0.28125 0.390625q-0.09375 -0.234375 -0.21875 -0.40625q-0.125 -0.1875 -0.296875 -0.3125q-0.203125 -0.171875 -0.5 -0.25q-0.28125 -0.078125 -0.65625 -0.078125q-0.703125 0 -1.203125 0.34375q-0.484375 0.328125 -0.765625 0.921875l-0.0625 -1.09375zm14.554947 10.046875q1.4375 0 2.453125 -0.5625q1.015625 -0.578125 1.5 -1.28125l-1.15625 -1.125q-0.453125 0.578125 -1.15625 0.890625q-0.703125 0.3125 -1.515625 0.3125q-0.59375 0 -1.09375 -0.203125q-0.484375 -0.203125 -0.859375 -0.5625q-0.359375 -0.34375 -0.578125 -0.78125q-0.203125 -0.4375 -0.296875 -1.078125l0 -0.046875l6.828125 0l0 -0.9375q0 -1.0625 -0.28125 -1.953125q-0.28125 -0.890625 -0.84375 -1.546875q-0.546875 -0.625 -1.375 -0.984375q-0.8125 -0.359375 -1.890625 -0.359375q-0.953125 0 -1.796875 0.359375q-0.84375 0.359375 -1.46875 1.015625q-0.640625 0.671875 -1.015625 1.609375q-0.359375 0.9375 -0.359375 2.09375l0 0.375q0 1.0 0.34375 1.875q0.359375 0.875 1.0 1.515625q0.65625 0.640625 1.5625 1.015625q0.90625 0.359375 2.0 0.359375zm-0.265625 -8.453125q0.546875 0 0.953125 0.1875q0.421875 0.1875 0.6875 0.484375q0.28125 0.328125 0.4375 0.75q0.15625 0.421875 0.15625 0.84375l0 0.15625l-4.625 0q0.09375 -0.5625 0.296875 -1.015625q0.21875 -0.453125 0.53125 -0.765625q0.296875 -0.3125 0.6875 -0.46875q0.40625 -0.171875 0.875 -0.171875zm8.101822 -1.59375l-1.90625 0l0 9.859375l2.015625 0l0 -7.5625q0.046875 -0.140625 0.109375 -0.25q0.078125 -0.109375 0.171875 -0.1875q0.109375 -0.125 0.28125 -0.1875q0.171875 -0.0625 0.390625 -0.0625q0.203125 0 0.359375 0.0625q0.15625 0.046875 0.28125 0.171875q0.109375 0.125 0.171875 0.328125q0.0625 0.203125 0.0625 0.484375l0 7.203125l1.96875 0l0 -7.3125q0 -0.09375 0 -0.140625q0 -0.046875 0 -0.09375q0.03125 -0.15625 0.09375 -0.265625q0.078125 -0.125 0.1875 -0.21875q0.125 -0.109375 0.28125 -0.15625q0.15625 -0.0625 0.359375 -0.0625q0.203125 0 0.375 0.0625q0.171875 0.046875 0.28125 0.171875q0.125 0.125 0.1875 0.328125q0.0625 0.203125 0.0625 0.5l0 7.1875l2.0 0l0 -7.171875q0 -0.765625 -0.15625 -1.3125q-0.15625 -0.5625 -0.453125 -0.90625q-0.296875 -0.328125 -0.6875 -0.484375q-0.390625 -0.15625 -0.875 -0.15625q-0.359375 0 -0.671875 0.09375q-0.296875 0.078125 -0.546875 0.25q-0.1875 0.125 -0.359375 0.3125q-0.15625 0.171875 -0.28125 0.390625q-0.09375 -0.234375 -0.21875 -0.40625q-0.125 -0.1875 -0.296875 -0.3125q-0.203125 -0.171875 -0.5 -0.25q-0.28125 -0.078125 -0.65625 -0.078125q-0.703125 0 -1.203125 0.34375q-0.484375 0.328125 -0.765625 0.921875l-0.0625 -1.09375zm9.554947 4.84375l0 0.1875q0 1.078125 0.296875 2.0q0.3125 0.90625 0.90625 1.578125q0.59375 0.671875 1.4375 1.0625q0.859375 0.375 1.953125 0.375q1.0625 0 1.90625 -0.375q0.859375 -0.390625 1.453125 -1.0625q0.578125 -0.671875 0.890625 -1.578125q0.3125 -0.921875 0.3125 -2.0l0 -0.1875q0 -1.078125 -0.3125 -1.984375q-0.3125 -0.921875 -0.890625 -1.59375q-0.59375 -0.6875 -1.453125 -1.0625q-0.84375 -0.375 -1.9375 -0.375q-1.078125 0 -1.921875 0.375q-0.84375 0.375 -1.4375 1.0625q-0.59375 0.671875 -0.90625 1.59375q-0.296875 0.90625 -0.296875 1.984375zm2.171875 0.1875l0 -0.1875q0 -0.65625 0.140625 -1.234375q0.140625 -0.59375 0.4375 -1.046875q0.296875 -0.453125 0.75 -0.703125q0.453125 -0.265625 1.0625 -0.265625q0.640625 0 1.078125 0.265625q0.453125 0.25 0.765625 0.703125q0.28125 0.453125 0.421875 1.046875q0.140625 0.578125 0.140625 1.234375l0 0.1875q0 0.671875 -0.140625 1.265625q-0.140625 0.578125 -0.421875 1.03125q-0.296875 0.4375 -0.75 0.703125q-0.453125 0.265625 -1.0625 0.265625q-0.640625 0 -1.09375 -0.265625q-0.453125 -0.265625 -0.75 -0.703125q-0.296875 -0.453125 -0.4375 -1.03125q-0.140625 -0.59375 -0.140625 -1.265625zm16.226822 -5.203125q-1.015625 0 -1.859375 0.46875q-0.84375 0.46875 -1.4375 1.296875l-0.015625 -0.21875l-0.09375 -1.375l-2.03125 0l0 9.859375l2.171875 0l0 -6.078125q0.171875 -0.4375 0.421875 -0.78125q0.265625 -0.34375 0.625 -0.5625q0.34375 -0.21875 0.78125 -0.328125q0.4375 -0.109375 0.984375 -0.109375q0.484375 0 0.96875 0.0625q0.484375 0.046875 0.984375 0.15625l0.3125 -2.15625q-0.28125 -0.09375 -0.78125 -0.15625q-0.5 -0.078125 -1.03125 -0.078125zm5.633072 14.015625q0.71875 0 1.25 -0.25q0.546875 -0.25 0.9375 -0.625q0.390625 -0.375 0.640625 -0.8125q0.265625 -0.421875 0.4375 -0.796875l5.0 -11.359375l-2.40625 0l-2.390625 6.046875l-0.40625 1.0625l-0.328125 -1.078125l-2.453125 -6.03125l-2.40625 0l4.203125 9.421875l-0.609375 1.171875q-0.109375 0.203125 -0.21875 0.375q-0.109375 0.1875 -0.296875 0.4375q-0.1875 0.234375 -0.453125 0.421875q-0.25 0.1875 -0.5625 0.1875q-0.15625 0 -0.390625 -0.015625q-0.21875 -0.015625 -0.40625 -0.03125l-0.296875 1.703125q0.265625 0.0625 0.546875 0.109375q0.28125 0.0625 0.609375 0.0625zm18.242447 -2.265625l0 -1.71875l-8.328125 0l0 1.71875l8.328125 0zm9.711197 -11.75q-1.015625 0 -1.859375 0.46875q-0.84375 0.46875 -1.4375 1.296875l-0.015625 -0.21875l-0.09375 -1.375l-2.03125 0l0 9.859375l2.171875 0l0 -6.078125q0.171875 -0.4375 0.421875 -0.78125q0.265625 -0.34375 0.625 -0.5625q0.34375 -0.21875 0.78125 -0.328125q0.4375 -0.109375 0.984375 -0.109375q0.484375 0 0.96875 0.0625q0.484375 0.046875 0.984375 0.15625l0.3125 -2.15625q-0.28125 -0.09375 -0.78125 -0.15625q-0.5 -0.078125 -1.03125 -0.078125zm8.992432 10.21875q1.4375 0 2.453125 -0.5625q1.015625 -0.578125 1.5 -1.28125l-1.15625 -1.125q-0.453125 0.578125 -1.15625 0.890625q-0.703125 0.3125 -1.515625 0.3125q-0.59375 0 -1.09375 -0.203125q-0.484375 -0.203125 -0.859375 -0.5625q-0.359375 -0.34375 -0.578125 -0.78125q-0.203125 -0.4375 -0.296875 -1.078125l0 -0.046875l6.828125 0l0 -0.9375q0 -1.0625 -0.28125 -1.953125q-0.28125 -0.890625 -0.84375 -1.546875q-0.546875 -0.625 -1.375 -0.984375q-0.8125 -0.359375 -1.890625 -0.359375q-0.953125 0 -1.796875 0.359375q-0.84375 0.359375 -1.46875 1.015625q-0.640625 0.671875 -1.015625 1.609375q-0.359375 0.9375 -0.359375 2.09375l0 0.375q0 1.0 0.34375 1.875q0.359375 0.875 1.0 1.515625q0.65625 0.640625 1.5625 1.015625q0.90625 0.359375 2.0 0.359375zm-0.265625 -8.453125q0.546875 0 0.953125 0.1875q0.421875 0.1875 0.6875 0.484375q0.28125 0.328125 0.4375 0.75q0.15625 0.421875 0.15625 0.84375l0 0.15625l-4.625 0q0.09375 -0.5625 0.296875 -1.015625q0.21875 -0.453125 0.53125 -0.765625q0.296875 -0.3125 0.6875 -0.46875q0.40625 -0.171875 0.875 -0.171875zm13.304932 5.59375q0 0.234375 -0.109375 0.4375q-0.109375 0.1875 -0.3125 0.359375q-0.265625 0.203125 -0.6875 0.328125q-0.421875 0.109375 -0.984375 0.109375q-0.421875 0 -0.828125 -0.078125q-0.40625 -0.09375 -0.734375 -0.296875q-0.328125 -0.1875 -0.546875 -0.5q-0.203125 -0.3125 -0.234375 -0.78125l-2.109375 0q0 0.609375 0.28125 1.203125q0.296875 0.59375 0.859375 1.046875q0.5625 0.46875 1.390625 0.75q0.828125 0.28125 1.890625 0.28125q0.953125 0 1.734375 -0.21875q0.78125 -0.21875 1.34375 -0.609375q0.5625 -0.390625 0.859375 -0.9375q0.3125 -0.546875 0.3125 -1.203125q0 -0.671875 -0.296875 -1.15625q-0.28125 -0.5 -0.8125 -0.859375q-0.53125 -0.34375 -1.28125 -0.578125q-0.75 -0.25 -1.640625 -0.40625q-0.65625 -0.109375 -1.078125 -0.25q-0.421875 -0.140625 -0.65625 -0.296875q-0.25 -0.15625 -0.359375 -0.359375q-0.09375 -0.203125 -0.09375 -0.46875q0 -0.234375 0.109375 -0.453125q0.125 -0.234375 0.359375 -0.390625q0.234375 -0.1875 0.59375 -0.296875q0.375 -0.109375 0.875 -0.109375q0.53125 0 0.9375 0.15625q0.40625 0.140625 0.65625 0.375q0.21875 0.203125 0.328125 0.453125q0.125 0.25 0.125 0.515625l2.171875 0q0 -0.65625 -0.296875 -1.234375q-0.28125 -0.578125 -0.828125 -1.0q-0.546875 -0.421875 -1.328125 -0.65625q-0.78125 -0.234375 -1.765625 -0.234375q-0.921875 0 -1.671875 0.234375q-0.75 0.234375 -1.28125 0.640625q-0.53125 0.40625 -0.828125 0.953125q-0.28125 0.546875 -0.28125 1.140625q0 0.625 0.28125 1.109375q0.28125 0.46875 0.78125 0.8125q0.515625 0.375 1.21875 0.625q0.703125 0.25 1.5625 0.421875q0.6875 0.125 1.140625 0.28125q0.453125 0.140625 0.734375 0.3125q0.265625 0.171875 0.375 0.375q0.125 0.203125 0.125 0.453125zm4.351837 -2.34375l0 0.1875q0 1.078125 0.296875 2.0q0.3125 0.90625 0.90625 1.578125q0.59375 0.671875 1.4375 1.0625q0.859375 0.375 1.953125 0.375q1.0625 0 1.90625 -0.375q0.859375 -0.390625 1.453125 -1.0625q0.578125 -0.671875 0.890625 -1.578125q0.3125 -0.921875 0.3125 -2.0l0 -0.1875q0 -1.078125 -0.3125 -1.984375q-0.3125 -0.921875 -0.890625 -1.59375q-0.59375 -0.6875 -1.453125 -1.0625q-0.84375 -0.375 -1.9375 -0.375q-1.078125 0 -1.921875 0.375q-0.84375 0.375 -1.4375 1.0625q-0.59375 0.671875 -0.90625 1.59375q-0.296875 0.90625 -0.296875 1.984375zm2.171875 0.1875l0 -0.1875q0 -0.65625 0.140625 -1.234375q0.140625 -0.59375 0.4375 -1.046875q0.296875 -0.453125 0.75 -0.703125q0.453125 -0.265625 1.0625 -0.265625q0.640625 0 1.078125 0.265625q0.453125 0.25 0.765625 0.703125q0.28125 0.453125 0.421875 1.046875q0.140625 0.578125 0.140625 1.234375l0 0.1875q0 0.671875 -0.140625 1.265625q-0.140625 0.578125 -0.421875 1.03125q-0.296875 0.4375 -0.75 0.703125q-0.453125 0.265625 -1.0625 0.265625q-0.640625 0 -1.09375 -0.265625q-0.453125 -0.265625 -0.75 -0.703125q-0.296875 -0.453125 -0.4375 -1.03125q-0.140625 -0.59375 -0.140625 -1.265625zm15.883087 4.828125l1.96875 0l0 -9.859375l-2.1875 0l0 6.984375q-0.125 0.265625 -0.3125 0.5q-0.171875 0.21875 -0.40625 0.375q-0.28125 0.1875 -0.65625 0.296875q-0.375 0.09375 -0.859375 0.09375q-0.453125 0 -0.796875 -0.109375q-0.328125 -0.125 -0.546875 -0.40625q-0.21875 -0.265625 -0.328125 -0.71875q-0.09375 -0.46875 -0.09375 -1.15625l0 -5.859375l-2.171875 0l0 5.84375q0 1.109375 0.25 1.90625q0.25 0.796875 0.6875 1.3125q0.453125 0.5 1.078125 0.75q0.640625 0.234375 1.40625 0.234375q0.890625 0 1.609375 -0.40625q0.71875 -0.421875 1.234375 -1.15625l0.125 1.375zm11.539307 -10.03125q-1.015625 0 -1.859375 0.46875q-0.84375 0.46875 -1.4375 1.296875l-0.015625 -0.21875l-0.09375 -1.375l-2.03125 0l0 9.859375l2.171875 0l0 -6.078125q0.171875 -0.4375 0.421875 -0.78125q0.265625 -0.34375 0.625 -0.5625q0.34375 -0.21875 0.78125 -0.328125q0.4375 -0.109375 0.984375 -0.109375q0.484375 0 0.96875 0.0625q0.484375 0.046875 0.984375 0.15625l0.3125 -2.15625q-0.28125 -0.09375 -0.78125 -0.15625q-0.5 -0.078125 -1.03125 -0.078125zm8.679962 8.46875q-0.6875 0 -1.140625 -0.265625q-0.453125 -0.28125 -0.71875 -0.734375q-0.265625 -0.4375 -0.390625 -1.015625q-0.109375 -0.578125 -0.109375 -1.1875l0 -0.3125q0 -0.59375 0.109375 -1.171875q0.125 -0.578125 0.40625 -1.015625q0.265625 -0.453125 0.703125 -0.71875q0.453125 -0.28125 1.140625 -0.28125q0.453125 0 0.828125 0.15625q0.390625 0.140625 0.671875 0.40625q0.28125 0.265625 0.421875 0.625q0.15625 0.359375 0.15625 0.75l2.046875 0q0.015625 -0.8125 -0.296875 -1.5q-0.296875 -0.6875 -0.84375 -1.171875q-0.546875 -0.484375 -1.3125 -0.75q-0.765625 -0.28125 -1.65625 -0.28125q-1.125 0 -1.984375 0.390625q-0.84375 0.390625 -1.421875 1.0625q-0.578125 0.6875 -0.859375 1.59375q-0.28125 0.890625 -0.28125 1.90625l0 0.3125q0 1.015625 0.28125 1.921875q0.296875 0.890625 0.875 1.5625q0.5625 0.6875 1.40625 1.078125q0.859375 0.390625 2.0 0.390625q0.8125 0 1.546875 -0.265625q0.75 -0.265625 1.328125 -0.734375q0.5625 -0.46875 0.890625 -1.09375q0.34375 -0.640625 0.328125 -1.359375l-2.046875 0q0 0.375 -0.171875 0.6875q-0.171875 0.3125 -0.453125 0.53125q-0.28125 0.234375 -0.671875 0.359375q-0.375 0.125 -0.78125 0.125zm11.508057 1.75q1.4375 0 2.453125 -0.5625q1.015625 -0.578125 1.5 -1.28125l-1.15625 -1.125q-0.453125 0.578125 -1.15625 0.890625q-0.703125 0.3125 -1.515625 0.3125q-0.59375 0 -1.09375 -0.203125q-0.484375 -0.203125 -0.859375 -0.5625q-0.359375 -0.34375 -0.578125 -0.78125q-0.203125 -0.4375 -0.296875 -1.078125l0 -0.046875l6.828125 0l0 -0.9375q0 -1.0625 -0.28125 -1.953125q-0.28125 -0.890625 -0.84375 -1.546875q-0.546875 -0.625 -1.375 -0.984375q-0.8125 -0.359375 -1.890625 -0.359375q-0.953125 0 -1.796875 0.359375q-0.84375 0.359375 -1.46875 1.015625q-0.640625 0.671875 -1.015625 1.609375q-0.359375 0.9375 -0.359375 2.09375l0 0.375q0 1.0 0.34375 1.875q0.359375 0.875 1.0 1.515625q0.65625 0.640625 1.5625 1.015625q0.90625 0.359375 2.0 0.359375zm-0.265625 -8.453125q0.546875 0 0.953125 0.1875q0.421875 0.1875 0.6875 0.484375q0.28125 0.328125 0.4375 0.75q0.15625 0.421875 0.15625 0.84375l0 0.15625l-4.625 0q0.09375 -0.5625 0.296875 -1.015625q0.21875 -0.453125 0.53125 -0.765625q0.296875 -0.3125 0.6875 -0.46875q0.40625 -0.171875 0.875 -0.171875z" fill-rule="nonzero"/><path fill="#000000" fill-opacity="0.0" d="m203.78477 133.47769l0 42.992126" fill-rule="evenodd"/><path stroke="#000000" stroke-width="2.0" stroke-linejoin="round" stroke-linecap="butt" d="m203.78477 133.47769l0 30.992126" fill-rule="evenodd"/><path fill="#000000" stroke="#000000" stroke-width="2.0" stroke-linecap="butt" d="m200.48131 164.46982l3.3034668 9.076187l3.3034668 -9.076187z" fill-rule="evenodd"/><path fill="#000000" fill-opacity="0.0" d="m203.78477 48.46982l0 42.992126" fill-rule="evenodd"/><path stroke="#000000" stroke-width="2.0" stroke-linejoin="round" stroke-linecap="butt" d="m203.78477 48.46982l0 30.992126" fill-rule="evenodd"/><path fill="#000000" stroke="#000000" stroke-width="2.0" stroke-linecap="butt" d="m200.48131 79.461945l3.3034668 9.076195l3.3034668 -9.076195z" fill-rule="evenodd"/></g></svg>