<svg version="1.1" viewBox="0.0 0.0 853.1994750656168 343.6010498687664" fill="none" stroke="none" stroke-linecap="square" stroke-miterlimit="10" xmlns:xlink="http://www.w3.org/1999/xlink" xmlns="http://www.w3.org/2000/svg"><clipPath id="p.0"><path d="m0 0l853.19946 0l0 343.60104l-853.19946 0l0 -343.60104z" clip-rule="nonzero"/></clipPath><g clip-path="url(#p.0)"><path fill="#000000" fill-opacity="0.0" d="m0 0l853.19946 0l0 343.60104l-853.19946 0z" fill-rule="evenodd"/><path fill="#000000" fill-opacity="0.0" d="m75.49344 11.228347l247.9685 0l0 38.771652l-247.9685 0z" fill-rule="evenodd"/><path fill="#000000" d="m92.50906 30.744596l0 -1.546875l-4.8125 0l0 -3.4375l5.5 0l0 -1.546875l-7.390625 0l0 11.375002l1.890625 0l0 -4.843752l4.8125 0zm3.2265625 -3.609375l0 1.546875l2.609375 0l0 5.359377l-2.609375 0l0 1.546875l6.96875 0l0 -1.546875l-2.484375 0l0 -6.906252l-4.484375 0zm2.4375 -2.1875q0 0.296875 0.140625 0.515625q0.140625 0.21875 0.421875 0.3125q0.28125 0.078125 0.5 0.03125q0.234375 -0.046875 0.390625 -0.1875q0.328125 -0.09375 0.5 -0.34375q0.171875 -0.25 0.125 -0.59375q-0.046875 -0.34375 -0.3125 -0.546875q-0.25 -0.21875 -0.671875 -0.21875q-0.25 0 -0.453125 0.078125q-0.203125 0.0625 -0.34375 0.203125q-0.140625 0.140625 -0.21875 0.328125q-0.078125 0.1875 -0.078125 0.421875zm10.4453125 5.03125l-2.0 -2.84375l-2.046875 0l2.953125 4.15625l-3.0625 4.296877l2.078125 0l2.09375 -2.953125l2.109375 2.953125l2.0625 0l-3.0625 -4.296877l2.96875 -4.15625l-2.0625 0l-2.03125 2.84375zm9.8359375 5.765627q1.234375 0 2.109375 -0.484375q0.875 -0.484375 1.296875 -1.09375l-1.0 -0.96875q-0.390625 0.5 -1.0 0.765625q-0.59375 0.265625 -1.296875 0.265625q-0.5 0 -0.9375 -0.171875q-0.421875 -0.171875 -0.734375 -0.484375q-0.3125 -0.296875 -0.5 -0.671875q-0.171875 -0.375 -0.25 -0.9218769l0 -0.046875l5.859375 0l0 -0.796875q0 -0.90625 -0.25 -1.671875q-0.234375 -0.765625 -0.71875 -1.328125q-0.46875 -0.546875 -1.171875 -0.84375q-0.703125 -0.3125 -1.625 -0.3125q-0.8125 0 -1.546875 0.3125q-0.71875 0.296875 -1.265625 0.875q-0.546875 0.5625 -0.859375 1.375q-0.3125 0.796875 -0.3125 1.796875l0 0.3125q0 0.8750019 0.296875 1.6250019q0.3125 0.734375 0.859375 1.28125q0.5625 0.5625 1.328125 0.875q0.78125 0.3125 1.71875 0.3125zm-0.21875 -7.250002q0.46875 0 0.8125 0.15625q0.359375 0.15625 0.59375 0.421875q0.25 0.28125 0.375 0.640625q0.140625 0.359375 0.140625 0.734375l0 0.125l-3.984375 0q0.09375 -0.484375 0.265625 -0.859375q0.1875 -0.390625 0.453125 -0.671875q0.265625 -0.265625 0.59375 -0.40625q0.34375 -0.140625 0.75 -0.140625zm5.6328125 2.796875l0 0.171875q0 0.9062519 0.234375 1.7031269q0.234375 0.78125 0.65625 1.34375q0.4375 0.578125 1.046875 0.90625q0.625 0.328125 1.390625 0.328125q0.734375 0 1.296875 -0.265625q0.5625 -0.28125 0.96875 -0.78125l0.09375 0.890625l1.6875 0l0 -12.000002l-1.859375 0l0 4.328125q-0.40625 -0.453125 -0.9375 -0.6875q-0.53125 -0.25 -1.234375 -0.25q-0.78125 0 -1.40625 0.3125q-0.609375 0.3125 -1.046875 0.890625q-0.4375 0.5625 -0.671875 1.359375q-0.21875 0.796875 -0.21875 1.75zm1.859375 0.171875l0 -0.171875q0 -0.5625 0.109375 -1.0625q0.109375 -0.515625 0.359375 -0.890625q0.21875 -0.390625 0.59375 -0.609375q0.375 -0.21875 0.890625 -0.21875q0.625 0 1.03125 0.28125q0.421875 0.28125 0.671875 0.75l0 3.625002q-0.25 0.484375 -0.671875 0.765625q-0.40625 0.265625 -1.046875 0.265625q-0.515625 0 -0.890625 -0.203125q-0.359375 -0.21875 -0.59375 -0.609375q-0.234375 -0.359375 -0.34375 -0.859375q-0.109375 -0.5 -0.109375 -1.0625019zm7.9296875 4.125002l3.9375 0q0.84375 0 1.5625 -0.21875q0.71875 -0.21875 1.25 -0.640625q0.515625 -0.40625 0.8125 -1.015625q0.296875 -0.625 0.296875 -1.4375q0 -0.4687519 -0.140625 -0.8750019q-0.125 -0.421875 -0.375 -0.765625q-0.234375 -0.328125 -0.59375 -0.578125q-0.359375 -0.25 -0.875 -0.390625l0 -0.015625q0.34375 -0.140625 0.609375 -0.3125q0.265625 -0.171875 0.46875 -0.40625q0.296875 -0.328125 0.453125 -0.734375q0.171875 -0.421875 0.171875 -0.90625q0 -0.796875 -0.296875 -1.375q-0.296875 -0.59375 -0.828125 -0.96875q-0.53125 -0.375 -1.265625 -0.546875q-0.71875 -0.1875 -1.546875 -0.1875l-3.640625 0l0 11.375002zm1.890625 -5.140627l2.15625 0q0.453125 0 0.8125 0.140625q0.359375 0.125 0.609375 0.359375q0.25 0.234375 0.375 0.5625q0.125 0.328125 0.125 0.7656269q0 0.40625 -0.15625 0.734375q-0.140625 0.328125 -0.421875 0.5625q-0.265625 0.21875 -0.640625 0.34375q-0.359375 0.125 -0.796875 0.125l-2.0625 0l0 -3.593752zm0 -1.4375l0 -3.25l1.765625 0q0.484375 0.015625 0.875 0.125q0.40625 0.09375 0.671875 0.328125q0.234375 0.1875 0.359375 0.484375q0.140625 0.296875 0.140625 0.6875q0 0.375 -0.140625 0.671875q-0.140625 0.28125 -0.390625 0.484375q-0.265625 0.234375 -0.65625 0.359375q-0.375 0.109375 -0.84375 0.109375l-1.78125 0zm8.1328125 -5.421875l0 1.546875l2.671875 0l0 8.906252l-2.671875 0l0 1.546875l7.109375 0l0 -1.546875l-2.5625 0l0 -10.453127l-4.546875 0zm8.8984375 7.6875l0 0.171875q0 0.9218769 0.265625 1.7031269q0.265625 0.78125 0.765625 1.359375q0.5 0.578125 1.234375 0.921875q0.734375 0.328125 1.671875 0.328125q0.921875 0 1.640625 -0.328125q0.734375 -0.34375 1.234375 -0.921875q0.5 -0.578125 0.765625 -1.359375q0.265625 -0.78125 0.265625 -1.7031269l0 -0.171875q0 -0.921875 -0.265625 -1.703125q-0.265625 -0.78125 -0.765625 -1.359375q-0.5 -0.578125 -1.234375 -0.90625q-0.734375 -0.328125 -1.65625 -0.328125q-0.9375 0 -1.671875 0.328125q-0.71875 0.328125 -1.21875 0.90625q-0.5 0.578125 -0.765625 1.359375q-0.265625 0.78125 -0.265625 1.703125zm1.859375 0.171875l0 -0.171875q0 -0.546875 0.125 -1.046875q0.125 -0.515625 0.375 -0.90625q0.25 -0.375 0.640625 -0.59375q0.390625 -0.234375 0.921875 -0.234375q0.53125 0 0.921875 0.234375q0.390625 0.21875 0.640625 0.59375q0.25 0.390625 0.375 0.90625q0.125 0.5 0.125 1.046875l0 0.171875q0 0.5625019 -0.125 1.0781269q-0.125 0.5 -0.375 0.890625q-0.25 0.375 -0.640625 0.609375q-0.390625 0.21875 -0.90625 0.21875q-0.546875 0 -0.9375 -0.21875q-0.390625 -0.234375 -0.640625 -0.609375q-0.25 -0.390625 -0.375 -0.890625q-0.125 -0.515625 -0.125 -1.0781269zm11.7578125 2.796877q-0.578125 0 -0.96875 -0.234375q-0.390625 -0.234375 -0.625 -0.625q-0.234375 -0.375 -0.328125 -0.875q-0.09375 -0.5 -0.09375 -1.0156269l0 -0.265625q0 -0.515625 0.09375 -1.0q0.09375 -0.5 0.34375 -0.875q0.21875 -0.390625 0.609375 -0.625q0.390625 -0.234375 0.96875 -0.234375q0.390625 0 0.71875 0.140625q0.328125 0.125 0.578125 0.34375q0.234375 0.234375 0.359375 0.546875q0.125 0.296875 0.125 0.640625l1.765625 0q0 -0.703125 -0.265625 -1.28125q-0.25 -0.59375 -0.71875 -1.015625q-0.46875 -0.421875 -1.125 -0.65625q-0.65625 -0.234375 -1.421875 -0.234375q-0.96875 0 -1.703125 0.34375q-0.71875 0.328125 -1.21875 0.90625q-0.484375 0.578125 -0.734375 1.359375q-0.25 0.765625 -0.25 1.640625l0 0.265625q0 0.8750019 0.25 1.6562519q0.25 0.765625 0.75 1.34375q0.484375 0.578125 1.203125 0.921875q0.734375 0.34375 1.71875 0.34375q0.703125 0 1.328125 -0.234375q0.640625 -0.234375 1.140625 -0.640625q0.484375 -0.390625 0.765625 -0.9375q0.28125 -0.546875 0.28125 -1.15625l-1.765625 0q0 0.3125 -0.140625 0.578125q-0.140625 0.265625 -0.390625 0.46875q-0.25 0.1875 -0.578125 0.296875q-0.3125 0.109375 -0.671875 0.109375zm8.8359375 -2.343752l2.6875 3.687502l2.3125 0l-3.765625 -4.937502l3.296875 -3.515625l-2.25 0l-2.53125 2.65625l-0.765625 0.859375l0 -7.0625l-1.875 0l0 12.000002l1.875 0l0 -2.71875l1.015625 -0.9687519zm8.8671875 -7.6875l-2.328125 0l0 11.375002l1.765625 0l0 -3.859377l-0.109375 -4.890625l1.59375 5.234377l0.96875 0l1.75 -5.421877l-0.109375 5.078125l0 3.859377l1.765625 0l0 -11.375002l-2.328125 0l-1.5625 4.859375l-1.40625 -4.859375zm11.3671875 11.531252q1.234375 0 2.109375 -0.484375q0.875 -0.484375 1.296875 -1.09375l-1.0 -0.96875q-0.390625 0.5 -1.0 0.765625q-0.59375 0.265625 -1.296875 0.265625q-0.5 0 -0.9375 -0.171875q-0.421875 -0.171875 -0.734375 -0.484375q-0.3125 -0.296875 -0.5 -0.671875q-0.171875 -0.375 -0.25 -0.9218769l0 -0.046875l5.859375 0l0 -0.796875q0 -0.90625 -0.25 -1.671875q-0.234375 -0.765625 -0.71875 -1.328125q-0.46875 -0.546875 -1.171875 -0.84375q-0.703125 -0.3125 -1.625 -0.3125q-0.8125 0 -1.546875 0.3125q-0.71875 0.296875 -1.265625 0.875q-0.546875 0.5625 -0.859375 1.375q-0.3125 0.796875 -0.3125 1.796875l0 0.3125q0 0.8750019 0.296875 1.6250019q0.3125 0.734375 0.859375 1.28125q0.5625 0.5625 1.328125 0.875q0.78125 0.3125 1.71875 0.3125zm-0.21875 -7.250002q0.46875 0 0.8125 0.15625q0.359375 0.15625 0.59375 0.421875q0.25 0.28125 0.375 0.640625q0.140625 0.359375 0.140625 0.734375l0 0.125l-3.984375 0q0.09375 -0.484375 0.265625 -0.859375q0.1875 -0.390625 0.453125 -0.671875q0.265625 -0.265625 0.59375 -0.40625q0.34375 -0.140625 0.75 -0.140625zm6.9453125 -1.359375l-1.625 0l0 8.453127l1.71875 0l0 -6.500002q0.046875 -0.109375 0.09375 -0.203125q0.0625 -0.09375 0.140625 -0.171875q0.109375 -0.09375 0.25 -0.140625q0.140625 -0.0625 0.328125 -0.0625q0.171875 0 0.3125 0.046875q0.140625 0.046875 0.234375 0.15625q0.109375 0.09375 0.15625 0.28125q0.046875 0.171875 0.046875 0.421875l0 6.171877l1.6875 0l0 -6.281252q0 -0.078125 0 -0.109375q0 -0.046875 0 -0.078125q0.03125 -0.140625 0.09375 -0.234375q0.0625 -0.109375 0.15625 -0.1875q0.109375 -0.09375 0.234375 -0.140625q0.140625 -0.046875 0.3125 -0.046875q0.171875 0 0.3125 0.046875q0.15625 0.046875 0.25 0.15625q0.109375 0.109375 0.15625 0.28125q0.0625 0.171875 0.0625 0.421875l0 6.171877l1.71875 0l0 -6.156252q0 -0.65625 -0.140625 -1.125q-0.140625 -0.484375 -0.390625 -0.78125q-0.25 -0.28125 -0.59375 -0.40625q-0.328125 -0.140625 -0.734375 -0.140625q-0.3125 0 -0.578125 0.078125q-0.265625 0.078125 -0.46875 0.21875q-0.171875 0.109375 -0.3125 0.265625q-0.140625 0.15625 -0.25 0.328125q-0.078125 -0.1875 -0.1875 -0.34375q-0.109375 -0.15625 -0.25 -0.265625q-0.171875 -0.140625 -0.421875 -0.203125q-0.25 -0.078125 -0.5625 -0.078125q-0.609375 0 -1.03125 0.296875q-0.421875 0.28125 -0.671875 0.78125l-0.046875 -0.921875zm8.1953125 4.140625l0 0.171875q0 0.9218769 0.265625 1.7031269q0.265625 0.78125 0.765625 1.359375q0.5 0.578125 1.234375 0.921875q0.734375 0.328125 1.671875 0.328125q0.921875 0 1.640625 -0.328125q0.734375 -0.34375 1.234375 -0.921875q0.5 -0.578125 0.765625 -1.359375q0.265625 -0.78125 0.265625 -1.7031269l0 -0.171875q0 -0.921875 -0.265625 -1.703125q-0.265625 -0.78125 -0.765625 -1.359375q-0.5 -0.578125 -1.234375 -0.90625q-0.734375 -0.328125 -1.65625 -0.328125q-0.9375 0 -1.671875 0.328125q-0.71875 0.328125 -1.21875 0.90625q-0.5 0.578125 -0.765625 1.359375q-0.265625 0.78125 -0.265625 1.703125zm1.859375 0.171875l0 -0.171875q0 -0.546875 0.125 -1.046875q0.125 -0.515625 0.375 -0.90625q0.25 -0.375 0.640625 -0.59375q0.390625 -0.234375 0.921875 -0.234375q0.53125 0 0.921875 0.234375q0.390625 0.21875 0.640625 0.59375q0.25 0.390625 0.375 0.90625q0.125 0.5 0.125 1.046875l0 0.171875q0 0.5625019 -0.125 1.0781269q-0.125 0.5 -0.375 0.890625q-0.25 0.375 -0.640625 0.609375q-0.390625 0.21875 -0.90625 0.21875q-0.546875 0 -0.9375 -0.21875q-0.390625 -0.234375 -0.640625 -0.609375q-0.25 -0.390625 -0.375 -0.890625q-0.125 -0.515625 -0.125 -1.0781269zm13.9296875 -4.46875q-0.875 0 -1.609375 0.40625q-0.71875 0.40625 -1.234375 1.109375l0 -0.1875l-0.078125 -1.171875l-1.75 0l0 8.453127l1.859375 0l0 -5.218752q0.15625 -0.375 0.375 -0.65625q0.21875 -0.296875 0.53125 -0.484375q0.28125 -0.203125 0.65625 -0.296875q0.375 -0.09375 0.84375 -0.09375q0.421875 0 0.828125 0.046875q0.421875 0.046875 0.859375 0.140625l0.265625 -1.84375q-0.25 -0.078125 -0.671875 -0.140625q-0.421875 -0.0625 -0.875 -0.0625zm4.8203125 12.031252q0.609375 0 1.0625 -0.21875q0.46875 -0.21875 0.8125 -0.53125q0.328125 -0.3125 0.546875 -0.6875q0.234375 -0.375 0.375 -0.703125l4.296875 -9.734377l-2.078125 0l-2.03125 5.187502l-0.359375 0.90625l-0.28125 -0.9375l-2.109375 -5.156252l-2.046875 0l3.59375 8.078127l-0.53125 1.015625q-0.078125 0.171875 -0.1875 0.328125q-0.09375 0.15625 -0.25 0.359375q-0.15625 0.203125 -0.375 0.359375q-0.21875 0.15625 -0.5 0.15625q-0.125 0 -0.328125 -0.015625q-0.1875 0 -0.34375 -0.015625l-0.265625 1.46875q0.234375 0.046875 0.46875 0.09375q0.25 0.046875 0.53125 0.046875zm10.7109375 -14.796877l-2.328125 0l0 11.375002l1.765625 0l0 -3.859377l-0.109375 -4.890625l1.59375 5.234377l0.96875 0l1.75 -5.421877l-0.109375 5.078125l0 3.859377l1.765625 0l0 -11.375002l-2.328125 0l-1.5625 4.859375l-1.40625 -4.859375zm12.8203125 11.375002l1.90625 0l0 -0.140625q-0.15625 -0.328125 -0.234375 -0.78125q-0.078125 -0.453125 -0.078125 -1.03125l0 -3.750002q0 -0.71875 -0.265625 -1.265625q-0.265625 -0.5625 -0.734375 -0.921875q-0.46875 -0.359375 -1.125 -0.53125q-0.640625 -0.1875 -1.375 -0.1875q-0.828125 0 -1.484375 0.21875q-0.640625 0.203125 -1.078125 0.578125q-0.453125 0.359375 -0.6875 0.828125q-0.234375 0.46875 -0.234375 0.96875l1.875 0q0 -0.234375 0.078125 -0.453125q0.09375 -0.21875 0.28125 -0.359375q0.1875 -0.171875 0.46875 -0.265625q0.296875 -0.09375 0.671875 -0.09375q0.421875 0 0.75 0.109375q0.328125 0.109375 0.546875 0.296875q0.21875 0.203125 0.328125 0.46875q0.109375 0.265625 0.109375 0.59375l0 0.5625l-1.359375 0q-0.90625 0 -1.640625 0.171875q-0.71875 0.171875 -1.203125 0.5q-0.53125 0.359375 -0.8125 0.890625q-0.28125 0.5312519 -0.28125 1.2343769q0 0.53125 0.21875 1.0q0.21875 0.46875 0.609375 0.796875q0.375 0.328125 0.921875 0.53125q0.546875 0.1875 1.203125 0.1875q0.40625 0 0.75 -0.078125q0.359375 -0.078125 0.65625 -0.21875q0.3125 -0.140625 0.546875 -0.3125q0.25 -0.1875 0.453125 -0.390625q0.03125 0.234375 0.078125 0.46875q0.0625 0.21875 0.140625 0.375zm-2.265625 -1.34375q-0.359375 0 -0.625 -0.09375q-0.265625 -0.09375 -0.453125 -0.25q-0.171875 -0.15625 -0.265625 -0.375q-0.09375 -0.21875 -0.09375 -0.484375q0 -0.3125 0.109375 -0.5625q0.109375 -0.25 0.34375 -0.421875q0.265625 -0.2187519 0.703125 -0.3281269q0.453125 -0.109375 1.0625 -0.109375l1.203125 0l0 1.5625019q-0.09375 0.203125 -0.28125 0.390625q-0.1875 0.1875 -0.453125 0.328125q-0.25 0.15625 -0.578125 0.25q-0.3125 0.09375 -0.671875 0.09375zm6.4765625 1.34375l1.859375 0l0 -6.031252q0.125 -0.21875 0.28125 -0.390625q0.171875 -0.1875 0.359375 -0.3125q0.25 -0.15625 0.546875 -0.25q0.296875 -0.09375 0.640625 -0.09375q0.40625 0 0.71875 0.09375q0.328125 0.09375 0.5625 0.296875q0.21875 0.21875 0.328125 0.578125q0.125 0.34375 0.125 0.859375l0 5.250002l1.875 0l0 -5.281252q0 -0.890625 -0.21875 -1.515625q-0.203125 -0.625 -0.59375 -1.03125q-0.375 -0.40625 -0.921875 -0.59375q-0.53125 -0.1875 -1.1875 -0.1875q-0.484375 0 -0.9375 0.140625q-0.4375 0.140625 -0.8125 0.390625q-0.234375 0.171875 -0.453125 0.375q-0.203125 0.203125 -0.375 0.453125l-0.109375 -1.203125l-1.6875 0l0 8.453127zm14.9921875 0l1.90625 0l0 -0.140625q-0.15625 -0.328125 -0.234375 -0.78125q-0.078125 -0.453125 -0.078125 -1.03125l0 -3.750002q0 -0.71875 -0.265625 -1.265625q-0.265625 -0.5625 -0.734375 -0.921875q-0.46875 -0.359375 -1.125 -0.53125q-0.640625 -0.1875 -1.375 -0.1875q-0.828125 0 -1.484375 0.21875q-0.640625 0.203125 -1.078125 0.578125q-0.453125 0.359375 -0.6875 0.828125q-0.234375 0.46875 -0.234375 0.96875l1.875 0q0 -0.234375 0.078125 -0.453125q0.09375 -0.21875 0.28125 -0.359375q0.1875 -0.171875 0.46875 -0.265625q0.296875 -0.09375 0.671875 -0.09375q0.421875 0 0.75 0.109375q0.328125 0.109375 0.546875 0.296875q0.21875 0.203125 0.328125 0.46875q0.109375 0.265625 0.109375 0.59375l0 0.5625l-1.359375 0q-0.90625 0 -1.640625 0.171875q-0.71875 0.171875 -1.203125 0.5q-0.53125 0.359375 -0.8125 0.890625q-0.28125 0.5312519 -0.28125 1.2343769q0 0.53125 0.21875 1.0q0.21875 0.46875 0.609375 0.796875q0.375 0.328125 0.921875 0.53125q0.546875 0.1875 1.203125 0.1875q0.40625 0 0.75 -0.078125q0.359375 -0.078125 0.65625 -0.21875q0.3125 -0.140625 0.546875 -0.3125q0.25 -0.1875 0.453125 -0.390625q0.03125 0.234375 0.078125 0.46875q0.0625 0.21875 0.140625 0.375zm-2.265625 -1.34375q-0.359375 0 -0.625 -0.09375q-0.265625 -0.09375 -0.453125 -0.25q-0.171875 -0.15625 -0.265625 -0.375q-0.09375 -0.21875 -0.09375 -0.484375q0 -0.3125 0.109375 -0.5625q0.109375 -0.25 0.34375 -0.421875q0.265625 -0.2187519 0.703125 -0.3281269q0.453125 -0.109375 1.0625 -0.109375l1.203125 0l0 1.5625019q-0.09375 0.203125 -0.28125 0.390625q-0.1875 0.1875 -0.453125 0.328125q-0.25 0.15625 -0.578125 0.25q-0.3125 0.09375 -0.671875 0.09375zm6.2265625 -2.953127l0 0.171875q0 0.9062519 0.234375 1.7031269q0.25 0.78125 0.6875 1.34375q0.4375 0.578125 1.0625 0.90625q0.625 0.328125 1.40625 0.328125q0.4375 0 0.796875 -0.09375q0.375 -0.09375 0.671875 -0.265625q0.203125 -0.109375 0.375 -0.25q0.1875 -0.15625 0.34375 -0.328125l0 0.59375q0 0.484375 -0.140625 0.859375q-0.125 0.375 -0.375 0.625q-0.28125 0.265625 -0.671875 0.40625q-0.375 0.140625 -0.875 0.140625q-0.296875 0 -0.578125 -0.0625q-0.28125 -0.046875 -0.546875 -0.171875q-0.28125 -0.125 -0.546875 -0.328125q-0.25 -0.203125 -0.484375 -0.46875l-0.875 1.125q0.28125 0.375 0.671875 0.640625q0.390625 0.265625 0.8125 0.4375q0.4375 0.15625 0.859375 0.234375q0.4375 0.078125 0.796875 0.078125q0.84375 0 1.546875 -0.234375q0.71875 -0.234375 1.21875 -0.6875q0.5 -0.46875 0.78125 -1.125q0.28125 -0.65625 0.28125 -1.515625l0 -8.218752l-1.703125 0l-0.078125 0.84375q-0.15625 -0.1875 -0.34375 -0.34375q-0.171875 -0.15625 -0.375 -0.28125q-0.3125 -0.1875 -0.703125 -0.28125q-0.375 -0.09375 -0.84375 -0.09375q-0.78125 0 -1.421875 0.3125q-0.625 0.3125 -1.0625 0.890625q-0.453125 0.5625 -0.6875 1.359375q-0.234375 0.796875 -0.234375 1.75zm1.875 0.171875l0 -0.171875q0 -0.5625 0.109375 -1.0625q0.125 -0.515625 0.375 -0.890625q0.25 -0.390625 0.625 -0.609375q0.375 -0.21875 0.890625 -0.21875q0.296875 0 0.546875 0.078125q0.25 0.0625 0.453125 0.171875q0.234375 0.125 0.40625 0.3125q0.171875 0.1875 0.296875 0.421875l0 3.703127q-0.125 0.234375 -0.296875 0.421875q-0.15625 0.1875 -0.359375 0.3125q-0.21875 0.125 -0.484375 0.203125q-0.25 0.0625 -0.578125 0.0625q-0.515625 0 -0.890625 -0.203125q-0.375 -0.21875 -0.609375 -0.609375q-0.25 -0.359375 -0.375 -0.859375q-0.109375 -0.5 -0.109375 -1.0625019zm11.9140625 4.281252q1.234375 0 2.109375 -0.484375q0.875 -0.484375 1.296875 -1.09375l-1.0 -0.96875q-0.390625 0.5 -1.0 0.765625q-0.59375 0.265625 -1.296875 0.265625q-0.5 0 -0.9375 -0.171875q-0.421875 -0.171875 -0.734375 -0.484375q-0.3125 -0.296875 -0.5 -0.671875q-0.171875 -0.375 -0.25 -0.9218769l0 -0.046875l5.859375 0l0 -0.796875q0 -0.90625 -0.25 -1.671875q-0.234375 -0.765625 -0.71875 -1.328125q-0.46875 -0.546875 -1.171875 -0.84375q-0.703125 -0.3125 -1.625 -0.3125q-0.8125 0 -1.546875 0.3125q-0.71875 0.296875 -1.265625 0.875q-0.546875 0.5625 -0.859375 1.375q-0.3125 0.796875 -0.3125 1.796875l0 0.3125q0 0.8750019 0.296875 1.6250019q0.3125 0.734375 0.859375 1.28125q0.5625 0.5625 1.328125 0.875q0.78125 0.3125 1.71875 0.3125zm-0.21875 -7.250002q0.46875 0 0.8125 0.15625q0.359375 0.15625 0.59375 0.421875q0.25 0.28125 0.375 0.640625q0.140625 0.359375 0.140625 0.734375l0 0.125l-3.984375 0q0.09375 -0.484375 0.265625 -0.859375q0.1875 -0.390625 0.453125 -0.671875q0.265625 -0.265625 0.59375 -0.40625q0.34375 -0.140625 0.75 -0.140625zm11.7265625 -1.515625q-0.875 0 -1.609375 0.40625q-0.71875 0.40625 -1.234375 1.109375l0 -0.1875l-0.078125 -1.171875l-1.75 0l0 8.453127l1.859375 0l0 -5.218752q0.15625 -0.375 0.375 -0.65625q0.21875 -0.296875 0.53125 -0.484375q0.28125 -0.203125 0.65625 -0.296875q0.375 -0.09375 0.84375 -0.09375q0.421875 0 0.828125 0.046875q0.421875 0.046875 0.859375 0.140625l0.265625 -1.84375q-0.25 -0.078125 -0.671875 -0.140625q-0.421875 -0.0625 -0.875 -0.0625z" fill-rule="nonzero"/><path fill="#ffffff" d="m81.99213 187.49344l151.1181 0l0 27.496063l-151.1181 0z" fill-rule="evenodd"/><path stroke="#000000" stroke-width="2.0" stroke-linejoin="round" stroke-linecap="butt" d="m81.99213 187.49344l151.1181 0l0 27.496063l-151.1181 0z" fill-rule="evenodd"/><path fill="#cccccc" d="m81.99213 187.49344l56.125977 0l0 27.496063l-56.125977 0z" fill-rule="evenodd"/><path stroke="#000000" stroke-width="2.0" stroke-linejoin="round" stroke-linecap="butt" d="m81.99213 187.49344l56.125977 0l0 27.496063l-56.125977 0z" fill-rule="evenodd"/><path fill="#cccccc" d="m81.99213 98.49344l56.125977 0l0 27.496063l-56.125977 0z" fill-rule="evenodd"/><path stroke="#000000" stroke-width="2.0" stroke-linejoin="round" stroke-linecap="butt" d="m81.99213 98.49344l56.125977 0l0 27.496063l-56.125977 0z" fill-rule="evenodd"/><path fill="#ffffff" d="m233.11023 187.49344l151.1181 0l0 27.496063l-151.1181 0z" fill-rule="evenodd"/><path stroke="#000000" stroke-width="2.0" stroke-linejoin="round" stroke-linecap="butt" d="m233.11023 187.49344l151.1181 0l0 27.496063l-151.1181 0z" fill-rule="evenodd"/><path fill="#cccccc" d="m233.11023 187.49344l56.125977 0l0 27.496063l-56.125977 0z" fill-rule="evenodd"/><path stroke="#000000" stroke-width="2.0" stroke-linejoin="round" stroke-linecap="butt" d="m233.11023 187.49344l56.125977 0l0 27.496063l-56.125977 0z" fill-rule="evenodd"/><path fill="#ffffff" d="m384.22833 187.49344l151.1181 0l0 27.496063l-151.1181 0z" fill-rule="evenodd"/><path stroke="#000000" stroke-width="2.0" stroke-linejoin="round" stroke-linecap="butt" d="m384.22833 187.49344l151.1181 0l0 27.496063l-151.1181 0z" fill-rule="evenodd"/><path fill="#cccccc" d="m384.22833 187.49344l56.126007 0l0 27.496063l-56.126007 0z" fill-rule="evenodd"/><path stroke="#000000" stroke-width="2.0" stroke-linejoin="round" stroke-linecap="butt" d="m384.22833 187.49344l56.126007 0l0 27.496063l-56.126007 0z" fill-rule="evenodd"/><path fill="#ffffff" d="m535.34644 187.49344l151.1181 0l0 27.496063l-151.1181 0z" fill-rule="evenodd"/><path stroke="#000000" stroke-width="2.0" stroke-linejoin="round" stroke-linecap="butt" d="m535.34644 187.49344l151.1181 0l0 27.496063l-151.1181 0z" fill-rule="evenodd"/><path fill="#cccccc" d="m535.34644 187.49344l56.125977 0l0 27.496063l-56.125977 0z" fill-rule="evenodd"/><path stroke="#000000" stroke-width="2.0" stroke-linejoin="round" stroke-linecap="butt" d="m535.34644 187.49344l56.125977 0l0 27.496063l-56.125977 0z" fill-rule="evenodd"/><path fill="#000000" fill-opacity="0.0" d="m114.39895 108.70079l0 38.755905l-31.968506 0l0 38.755905" fill-rule="evenodd"/><path stroke="#000000" stroke-width="2.0" stroke-linejoin="round" stroke-linecap="butt" d="m114.39895 116.28079l0 31.175903l-31.968506 0l0 26.755905" fill-rule="evenodd"/><path fill="#000000" stroke="#000000" stroke-width="2.0" stroke-linecap="butt" d="m114.39895 109.70079c1.8170166 0 3.290001 1.4729767 3.290001 3.2899933c0 1.8170166 -1.4729843 3.290001 -3.290001 3.290001c-1.8170166 0 -3.290001 -1.4729843 -3.290001 -3.290001c0 -1.8170166 1.4729843 -3.2899933 3.290001 -3.2899933z" fill-rule="nonzero"/><path fill="#000000" stroke="#000000" stroke-width="2.0" stroke-linecap="butt" d="m79.12698 174.2126l3.3034592 9.076187l3.3034668 -9.076187z" fill-rule="evenodd"/><path fill="#000000" fill-opacity="0.0" d="m686.37006 157.47769l-122.2677 0.37794495" fill-rule="evenodd"/><path stroke="#000000" stroke-width="2.0" stroke-linejoin="round" stroke-linecap="butt" d="m686.37006 157.47769l-122.2677 0.37794495" fill-rule="evenodd"/><path fill="#000000" fill-opacity="0.0" d="m563.25195 205.47769l0.31500244 -48.0" fill-rule="evenodd"/><path stroke="#000000" stroke-width="2.0" stroke-linejoin="round" stroke-linecap="butt" d="m563.3017 197.89786l0.2652588 -40.420166" fill-rule="evenodd"/><path fill="#000000" stroke="#000000" stroke-width="2.0" stroke-linecap="butt" d="m563.25854 204.4777c-1.8170166 -0.011917114 -3.2802734 -1.4945374 -3.2683716 -3.3115082c0.011962891 -1.8169861 1.4945679 -3.2802734 3.3115234 -3.268341c1.8169556 0.011917114 3.2802734 1.4945374 3.2683716 3.3115082c-0.011962891 1.8169861 -1.4945679 3.2802734 -3.3115234 3.268341z" fill-rule="nonzero"/><path fill="#000000" fill-opacity="0.0" d="m686.5591 187.49344l-0.18902588 -30.015747" fill-rule="evenodd"/><path stroke="#000000" stroke-width="2.0" stroke-linejoin="round" stroke-linecap="butt" d="m686.4835 175.49368l-0.113464355 -18.015991" fill-rule="evenodd"/><path fill="#000000" stroke="#000000" stroke-width="2.0" stroke-linecap="butt" d="m683.1801 175.51448l3.3605347 9.055206l3.2462769 -9.096802z" fill-rule="evenodd"/><path fill="#000000" fill-opacity="0.0" d="m12.889764 93.49344l71.18111 0l0 35.55905l-71.18111 0z" fill-rule="evenodd"/><path fill="#000000" d="m23.780388 108.24656l-1.34375 0l0 7.046875l1.421875 0l0 -5.40625q0.046875 -0.09375 0.09375 -0.171875q0.046875 -0.078125 0.109375 -0.140625q0.09375 -0.09375 0.203125 -0.125q0.125 -0.046875 0.28125 -0.046875q0.140625 0 0.25 0.046875q0.125 0.03125 0.203125 0.109375q0.09375 0.09375 0.125 0.25q0.046875 0.140625 0.046875 0.34375l0 5.140625l1.40625 0l0 -5.21875q0 -0.078125 0 -0.109375q0 -0.03125 0 -0.0625q0.03125 -0.109375 0.078125 -0.1875q0.046875 -0.09375 0.125 -0.15625q0.09375 -0.078125 0.203125 -0.109375q0.109375 -0.046875 0.25 -0.046875q0.15625 0 0.265625 0.046875q0.125 0.03125 0.203125 0.109375q0.09375 0.09375 0.140625 0.25q0.046875 0.140625 0.046875 0.34375l0 5.140625l1.421875 0l0 -5.125q0 -0.546875 -0.109375 -0.9375q-0.109375 -0.40625 -0.328125 -0.640625q-0.203125 -0.234375 -0.484375 -0.34375q-0.28125 -0.125 -0.625 -0.125q-0.265625 0 -0.484375 0.0625q-0.203125 0.0625 -0.390625 0.1875q-0.125 0.09375 -0.25 0.21875q-0.109375 0.125 -0.203125 0.28125q-0.0625 -0.171875 -0.15625 -0.296875q-0.09375 -0.125 -0.21875 -0.21875q-0.140625 -0.109375 -0.359375 -0.171875q-0.203125 -0.0625 -0.46875 -0.0625q-0.5 0 -0.859375 0.25q-0.34375 0.234375 -0.546875 0.65625l-0.046875 -0.78125zm13.045059 8.28125l0 -1.234375l-5.953125 0l0 1.234375l5.953125 0zm3.8419342 -1.234375l1.5625 0l0 -5.875l2.609375 0l0 -1.171875l-2.609375 0l0 -0.421875q0 -0.375 0.09375 -0.65625q0.09375 -0.28125 0.28125 -0.46875q0.203125 -0.203125 0.515625 -0.296875q0.3125 -0.109375 0.75 -0.109375q0.421875 0 0.75 0.0625q0.328125 0.046875 0.59375 0.109375l0.109375 -1.234375q-0.1875 -0.046875 -0.375 -0.078125q-0.1875 -0.03125 -0.375 -0.0625q-0.21875 -0.03125 -0.453125 -0.046875q-0.234375 -0.03125 -0.46875 -0.03125q-0.6875 0 -1.234375 0.1875q-0.546875 0.171875 -0.9375 0.53125q-0.390625 0.359375 -0.609375 0.890625q-0.203125 0.515625 -0.203125 1.203125l0 0.421875l-1.890625 0l0 1.171875l1.890625 0l0 5.875zm11.091934 -7.171875q-0.734375 0 -1.34375 0.34375q-0.59375 0.328125 -1.015625 0.921875l-0.015625 -0.15625l-0.0625 -0.984375l-1.453125 0l0 7.046875l1.5625 0l0 -4.34375q0.109375 -0.3125 0.296875 -0.546875q0.1875 -0.25 0.4375 -0.40625q0.25 -0.15625 0.5625 -0.234375q0.3125 -0.078125 0.703125 -0.078125q0.34375 0 0.6875 0.046875q0.359375 0.03125 0.703125 0.109375l0.234375 -1.546875q-0.203125 -0.0625 -0.5625 -0.109375q-0.359375 -0.0625 -0.734375 -0.0625zm6.420059 7.296875q1.03125 0 1.75 -0.390625q0.734375 -0.40625 1.078125 -0.921875l-0.828125 -0.796875q-0.328125 0.40625 -0.828125 0.640625q-0.5 0.21875 -1.078125 0.21875q-0.421875 0 -0.78125 -0.140625q-0.359375 -0.140625 -0.609375 -0.40625q-0.265625 -0.25 -0.421875 -0.5625q-0.140625 -0.3125 -0.21875 -0.765625l0 -0.046875l4.890625 0l0 -0.65625q0 -0.765625 -0.203125 -1.390625q-0.203125 -0.640625 -0.609375 -1.109375q-0.390625 -0.453125 -0.984375 -0.703125q-0.578125 -0.265625 -1.34375 -0.265625q-0.6875 0 -1.296875 0.265625q-0.59375 0.25 -1.046875 0.71875q-0.453125 0.484375 -0.71875 1.15625q-0.25 0.671875 -0.25 1.484375l0 0.265625q0 0.734375 0.25 1.359375q0.25 0.609375 0.703125 1.0625q0.46875 0.46875 1.109375 0.734375q0.65625 0.25 1.4375 0.25zm-0.1875 -6.03125q0.390625 0 0.6875 0.140625q0.296875 0.125 0.484375 0.34375q0.203125 0.234375 0.3125 0.53125q0.109375 0.296875 0.109375 0.609375l0 0.109375l-3.3125 0q0.078125 -0.40625 0.21875 -0.71875q0.15625 -0.328125 0.375 -0.5625q0.21875 -0.21875 0.5 -0.328125q0.296875 -0.125 0.625 -0.125zm8.185684 6.03125q1.03125 0 1.75 -0.390625q0.734375 -0.40625 1.078125 -0.921875l-0.828125 -0.796875q-0.328125 0.40625 -0.828125 0.640625q-0.5 0.21875 -1.078125 0.21875q-0.421875 0 -0.78125 -0.140625q-0.359375 -0.140625 -0.609375 -0.40625q-0.265625 -0.25 -0.421875 -0.5625q-0.140625 -0.3125 -0.21875 -0.765625l0 -0.046875l4.890625 0l0 -0.65625q0 -0.765625 -0.203125 -1.390625q-0.203125 -0.640625 -0.609375 -1.109375q-0.390625 -0.453125 -0.984375 -0.703125q-0.578125 -0.265625 -1.34375 -0.265625q-0.6875 0 -1.296875 0.265625q-0.59375 0.25 -1.046875 0.71875q-0.453125 0.484375 -0.71875 1.15625q-0.25 0.671875 -0.25 1.484375l0 0.265625q0 0.734375 0.25 1.359375q0.25 0.609375 0.703125 1.0625q0.46875 0.46875 1.109375 0.734375q0.65625 0.25 1.4375 0.25zm-0.1875 -6.03125q0.390625 0 0.6875 0.140625q0.296875 0.125 0.484375 0.34375q0.203125 0.234375 0.3125 0.53125q0.109375 0.296875 0.109375 0.609375l0 0.109375l-3.3125 0q0.078125 -0.40625 0.21875 -0.71875q0.15625 -0.328125 0.375 -0.5625q0.21875 -0.21875 0.5 -0.328125q0.296875 -0.125 0.625 -0.125z" fill-rule="nonzero"/><path fill="#000000" fill-opacity="0.0" d="m73.91863 212.22179l71.1811 0l0 35.55905l-71.1811 0z" fill-rule="evenodd"/><path fill="#000000" d="m90.01238 230.41241l0 -2.25q0 -0.90625 -0.21875 -1.609375q-0.21875 -0.703125 -0.609375 -1.1875q-0.40625 -0.46875 -0.984375 -0.703125q-0.5625 -0.25 -1.28125 -0.25q-0.71875 0 -1.296875 0.25q-0.5625 0.234375 -0.953125 0.703125q-0.390625 0.484375 -0.609375 1.1875q-0.203125 0.703125 -0.203125 1.609375l0 2.25q0 0.90625 0.203125 1.609375q0.21875 0.703125 0.609375 1.171875q0.40625 0.484375 0.96875 0.734375q0.578125 0.234375 1.296875 0.234375q0.71875 0 1.28125 -0.234375q0.578125 -0.25 0.96875 -0.734375q0.40625 -0.46875 0.609375 -1.171875q0.21875 -0.703125 0.21875 -1.609375zm-4.59375 -0.5625q0 -0.1875 0 -0.3125q0 -0.125 0 -0.375l0 -1.28125q0 -0.578125 0.09375 -1.015625q0.109375 -0.4375 0.328125 -0.703125q0.171875 -0.25 0.4375 -0.359375q0.28125 -0.125 0.640625 -0.125q0.328125 0 0.59375 0.109375q0.265625 0.09375 0.453125 0.296875q0.203125 0.234375 0.3125 0.609375q0.125 0.375 0.140625 0.875l-3.0 2.28125zm3.015625 0.828125q0 0.59375 -0.109375 1.03125q-0.109375 0.4375 -0.3125 0.71875q-0.1875 0.234375 -0.46875 0.359375q-0.265625 0.109375 -0.609375 0.109375q-0.359375 0 -0.625 -0.109375q-0.265625 -0.125 -0.453125 -0.375q-0.1875 -0.234375 -0.296875 -0.578125q-0.109375 -0.34375 -0.140625 -0.796875l3.015625 -2.265625q0 0.1875 0 0.359375q0 0.171875 0 0.34375l0 1.203125zm6.576309 -1.328125l-1.65625 -2.375l-1.71875 0l2.46875 3.46875l-2.546875 3.578125l1.71875 0l1.75 -2.453125l1.765625 2.453125l1.71875 0l-2.5625 -3.578125l2.484375 -3.46875l-1.734375 0l-1.6875 2.375zm9.123184 4.671875l0 -9.46875l-0.09375 0l-3.90625 1.4375l0 1.375l2.4375 -0.890625l0 7.546875l1.5625 0zm9.873184 -3.609375l0 -2.25q0 -0.90625 -0.21875 -1.609375q-0.21875 -0.703125 -0.609375 -1.1875q-0.40625 -0.46875 -0.984375 -0.703125q-0.5625 -0.25 -1.28125 -0.25q-0.71875 0 -1.296875 0.25q-0.5625 0.234375 -0.953125 0.703125q-0.390625 0.484375 -0.609375 1.1875q-0.203125 0.703125 -0.203125 1.609375l0 2.25q0 0.90625 0.203125 1.609375q0.21875 0.703125 0.609375 1.171875q0.40625 0.484375 0.96875 0.734375q0.578125 0.234375 1.296875 0.234375q0.71875 0 1.28125 -0.234375q0.578125 -0.25 0.96875 -0.734375q0.40625 -0.46875 0.609375 -1.171875q0.21875 -0.703125 0.21875 -1.609375zm-4.59375 -0.5625q0 -0.1875 0 -0.3125q0 -0.125 0 -0.375l0 -1.28125q0 -0.578125 0.09375 -1.015625q0.109375 -0.4375 0.328125 -0.703125q0.171875 -0.25 0.4375 -0.359375q0.28125 -0.125 0.640625 -0.125q0.328125 0 0.59375 0.109375q0.265625 0.09375 0.453125 0.296875q0.203125 0.234375 0.3125 0.609375q0.125 0.375 0.140625 0.875l-3.0 2.28125zm3.015625 0.828125q0 0.59375 -0.109375 1.03125q-0.109375 0.4375 -0.3125 0.71875q-0.1875 0.234375 -0.46875 0.359375q-0.265625 0.109375 -0.609375 0.109375q-0.359375 0 -0.625 -0.109375q-0.265625 -0.125 -0.453125 -0.375q-0.1875 -0.234375 -0.296875 -0.578125q-0.109375 -0.34375 -0.140625 -0.796875l3.015625 -2.265625q0 0.1875 0 0.359375q0 0.171875 0 0.34375l0 1.203125zm9.529434 3.34375l0 -1.25l-4.421875 0l2.109375 -2.25q0.421875 -0.453125 0.765625 -0.859375q0.359375 -0.421875 0.625 -0.828125q0.25 -0.421875 0.390625 -0.828125q0.15625 -0.421875 0.15625 -0.875q0 -0.59375 -0.203125 -1.09375q-0.1875 -0.5 -0.5625 -0.859375q-0.375 -0.359375 -0.921875 -0.5625q-0.546875 -0.203125 -1.25 -0.203125q-0.734375 0 -1.34375 0.25q-0.59375 0.234375 -1.015625 0.640625q-0.421875 0.421875 -0.65625 0.96875q-0.21875 0.546875 -0.21875 1.15625l1.5625 0q0 -0.40625 0.09375 -0.71875q0.109375 -0.328125 0.3125 -0.5625q0.203125 -0.203125 0.5 -0.3125q0.3125 -0.125 0.734375 -0.125q0.328125 0 0.59375 0.109375q0.265625 0.109375 0.453125 0.296875q0.1875 0.203125 0.28125 0.484375q0.09375 0.265625 0.09375 0.59375q0 0.25 -0.078125 0.5q-0.0625 0.234375 -0.21875 0.515625q-0.15625 0.28125 -0.421875 0.625q-0.25 0.328125 -0.640625 0.75l-3.078125 3.359375l0 1.078125l6.359375 0zm7.076317 -3.375l0 -6.09375l-1.6093826 0l-4.09375 6.390625l0.046875 0.96875l4.09375 0l0 2.109375l1.5625076 0l0 -2.109375l1.1875 0l0 -1.265625l-1.1875 0zm-4.1093826 0l2.375 -3.671875l0.171875 -0.34375l0 4.015625l-2.546875 0z" fill-rule="nonzero"/><path fill="#000000" fill-opacity="0.0" d="m535.1575 157.47769l-122.2677 0.37794495" fill-rule="evenodd"/><path stroke="#000000" stroke-width="2.0" stroke-linejoin="round" stroke-linecap="butt" d="m535.1575 157.47769l-122.2677 0.37794495" fill-rule="evenodd"/><path fill="#000000" fill-opacity="0.0" d="m412.03937 205.47769l0.31497192 -48.0" fill-rule="evenodd"/><path stroke="#000000" stroke-width="2.0" stroke-linejoin="round" stroke-linecap="butt" d="m412.0891 197.89786l0.26522827 -40.420166" fill-rule="evenodd"/><path fill="#000000" stroke="#000000" stroke-width="2.0" stroke-linecap="butt" d="m412.04593 204.4777c-1.8169861 -0.011917114 -3.2802734 -1.4945374 -3.268341 -3.3115082c0.011932373 -1.8169861 1.4945374 -3.2802734 3.3115234 -3.268341c1.8169861 0.011917114 3.2802734 1.4945374 3.268341 3.3115082c-0.011932373 1.8169861 -1.4945374 3.2802734 -3.3115234 3.268341z" fill-rule="nonzero"/><path fill="#000000" fill-opacity="0.0" d="m535.34644 187.49344l-0.18896484 -30.015747" fill-rule="evenodd"/><path stroke="#000000" stroke-width="2.0" stroke-linejoin="round" stroke-linecap="butt" d="m535.27094 175.49368l-0.113464355 -18.015991" fill-rule="evenodd"/><path fill="#000000" stroke="#000000" stroke-width="2.0" stroke-linecap="butt" d="m531.9675 175.51448l3.3605347 9.055206l3.2462158 -9.096802z" fill-rule="evenodd"/><path fill="#000000" fill-opacity="0.0" d="m374.38583 212.22179l71.18109 0l0 35.55905l-71.18109 0z" fill-rule="evenodd"/><path fill="#000000" d="m390.47958 230.41241l0 -2.25q0 -0.90625 -0.21875 -1.609375q-0.21875 -0.703125 -0.609375 -1.1875q-0.40625 -0.46875 -0.984375 -0.703125q-0.5625 -0.25 -1.28125 -0.25q-0.71875 0 -1.296875 0.25q-0.5625 0.234375 -0.953125 0.703125q-0.390625 0.484375 -0.609375 1.1875q-0.203125 0.703125 -0.203125 1.609375l0 2.25q0 0.90625 0.203125 1.609375q0.21875 0.703125 0.609375 1.171875q0.40625 0.484375 0.96875 0.734375q0.578125 0.234375 1.296875 0.234375q0.71875 0 1.28125 -0.234375q0.578125 -0.25 0.96875 -0.734375q0.40625 -0.46875 0.609375 -1.171875q0.21875 -0.703125 0.21875 -1.609375zm-4.59375 -0.5625q0 -0.1875 0 -0.3125q0 -0.125 0 -0.375l0 -1.28125q0 -0.578125 0.09375 -1.015625q0.109375 -0.4375 0.328125 -0.703125q0.171875 -0.25 0.4375 -0.359375q0.28125 -0.125 0.640625 -0.125q0.328125 0 0.59375 0.109375q0.265625 0.09375 0.453125 0.296875q0.203125 0.234375 0.3125 0.609375q0.125 0.375 0.140625 0.875l-3.0 2.28125zm3.015625 0.828125q0 0.59375 -0.109375 1.03125q-0.109375 0.4375 -0.3125 0.71875q-0.1875 0.234375 -0.46875 0.359375q-0.265625 0.109375 -0.609375 0.109375q-0.359375 0 -0.625 -0.109375q-0.265625 -0.125 -0.453125 -0.375q-0.1875 -0.234375 -0.296875 -0.578125q-0.109375 -0.34375 -0.140625 -0.796875l3.015625 -2.265625q0 0.1875 0 0.359375q0 0.171875 0 0.34375l0 1.203125zm6.576294 -1.328125l-1.65625 -2.375l-1.71875 0l2.46875 3.46875l-2.546875 3.578125l1.71875 0l1.75 -2.453125l1.765625 2.453125l1.71875 0l-2.5625 -3.578125l2.484375 -3.46875l-1.734375 0l-1.6875 2.375zm9.123199 4.671875l0 -9.46875l-0.09375 0l-3.90625 1.4375l0 1.375l2.4375 -0.890625l0 7.546875l1.5625 0zm9.873169 -3.609375l0 -2.25q0 -0.90625 -0.21875 -1.609375q-0.21875 -0.703125 -0.609375 -1.1875q-0.40625 -0.46875 -0.984375 -0.703125q-0.5625 -0.25 -1.28125 -0.25q-0.71875 0 -1.296875 0.25q-0.5625 0.234375 -0.953125 0.703125q-0.390625 0.484375 -0.609375 1.1875q-0.203125 0.703125 -0.203125 1.609375l0 2.25q0 0.90625 0.203125 1.609375q0.21875 0.703125 0.609375 1.171875q0.40625 0.484375 0.96875 0.734375q0.578125 0.234375 1.296875 0.234375q0.71875 0 1.28125 -0.234375q0.578125 -0.25 0.96875 -0.734375q0.40625 -0.46875 0.609375 -1.171875q0.21875 -0.703125 0.21875 -1.609375zm-4.59375 -0.5625q0 -0.1875 0 -0.3125q0 -0.125 0 -0.375l0 -1.28125q0 -0.578125 0.09375 -1.015625q0.109375 -0.4375 0.328125 -0.703125q0.171875 -0.25 0.4375 -0.359375q0.28125 -0.125 0.640625 -0.125q0.328125 0 0.59375 0.109375q0.265625 0.09375 0.453125 0.296875q0.203125 0.234375 0.3125 0.609375q0.125 0.375 0.140625 0.875l-3.0 2.28125zm3.015625 0.828125q0 0.59375 -0.109375 1.03125q-0.109375 0.4375 -0.3125 0.71875q-0.1875 0.234375 -0.46875 0.359375q-0.265625 0.109375 -0.609375 0.109375q-0.359375 0 -0.625 -0.109375q-0.265625 -0.125 -0.453125 -0.375q-0.1875 -0.234375 -0.296875 -0.578125q-0.109375 -0.34375 -0.140625 -0.796875l3.015625 -2.265625q0 0.1875 0 0.359375q0 0.171875 0 0.34375l0 1.203125zm8.138824 -6.171875l-0.1875 0q-1.109375 0 -1.96875 0.34375q-0.84375 0.34375 -1.4375 0.984375q-0.6875 0.75 -0.984375 1.796875q-0.296875 1.03125 -0.296875 2.171875l0 0.640625q0 0.765625 0.21875 1.453125q0.21875 0.6875 0.65625 1.1875q0.40625 0.5 0.984375 0.78125q0.59375 0.28125 1.328125 0.28125q0.734375 0 1.296875 -0.25q0.578125 -0.25 0.96875 -0.6875q0.390625 -0.4375 0.59375 -1.015625q0.21875 -0.59375 0.21875 -1.28125q0 -0.609375 -0.171875 -1.1875q-0.15625 -0.578125 -0.484375 -1.015625q-0.34375 -0.4375 -0.859375 -0.703125q-0.5 -0.265625 -1.1875 -0.265625q-0.328125 0 -0.625 0.078125q-0.296875 0.078125 -0.53125 0.203125q-0.25 0.125 -0.46875 0.296875q-0.203125 0.171875 -0.359375 0.34375q0.0625 -0.609375 0.265625 -1.125q0.21875 -0.53125 0.625 -0.921875q0.390625 -0.375 0.953125 -0.578125q0.578125 -0.21875 1.34375 -0.21875l0.109375 0l0 -1.3125zm-1.703125 4.5q0.375 0 0.65625 0.15625q0.296875 0.15625 0.5 0.421875q0.1875 0.265625 0.28125 0.625q0.109375 0.34375 0.109375 0.75q0 0.40625 -0.109375 0.765625q-0.09375 0.359375 -0.296875 0.625q-0.203125 0.25 -0.484375 0.40625q-0.28125 0.140625 -0.65625 0.140625q-0.328125 0 -0.625 -0.15625q-0.28125 -0.15625 -0.515625 -0.4375q-0.21875 -0.28125 -0.34375 -0.703125q-0.125 -0.4375 -0.125 -1.0l0 -0.484375q0.109375 -0.25 0.265625 -0.4375q0.15625 -0.203125 0.34375 -0.34375q0.21875 -0.15625 0.46875 -0.234375q0.25 -0.09375 0.53125 -0.09375zm10.170044 1.640625l0 -6.09375l-1.609375 0l-4.09375 6.390625l0.046875 0.96875l4.09375 0l0 2.109375l1.5625 0l0 -2.109375l1.1875 0l0 -1.265625l-1.1875 0zm-4.109375 0l2.375 -3.671875l0.171875 -0.34375l0 4.015625l-2.546875 0z" fill-rule="nonzero"/><path fill="#000000" fill-opacity="0.0" d="m526.34906 212.22179l71.18115 0l0 35.55905l-71.18115 0z" fill-rule="evenodd"/><path fill="#000000" d="m542.4428 230.41241l0 -2.25q0 -0.90625 -0.21875 -1.609375q-0.21875 -0.703125 -0.609375 -1.1875q-0.40625 -0.46875 -0.984375 -0.703125q-0.5625 -0.25 -1.28125 -0.25q-0.71875 0 -1.296875 0.25q-0.5625 0.234375 -0.953125 0.703125q-0.390625 0.484375 -0.609375 1.1875q-0.203125 0.703125 -0.203125 1.609375l0 2.25q0 0.90625 0.203125 1.609375q0.21875 0.703125 0.609375 1.171875q0.40625 0.484375 0.96875 0.734375q0.578125 0.234375 1.296875 0.234375q0.71875 0 1.28125 -0.234375q0.578125 -0.25 0.96875 -0.734375q0.40625 -0.46875 0.609375 -1.171875q0.21875 -0.703125 0.21875 -1.609375zm-4.59375 -0.5625q0 -0.1875 0 -0.3125q0 -0.125 0 -0.375l0 -1.28125q0 -0.578125 0.09375 -1.015625q0.109375 -0.4375 0.328125 -0.703125q0.171875 -0.25 0.4375 -0.359375q0.28125 -0.125 0.640625 -0.125q0.328125 0 0.59375 0.109375q0.265625 0.09375 0.453125 0.296875q0.203125 0.234375 0.3125 0.609375q0.125 0.375 0.140625 0.875l-3.0 2.28125zm3.015625 0.828125q0 0.59375 -0.109375 1.03125q-0.109375 0.4375 -0.3125 0.71875q-0.1875 0.234375 -0.46875 0.359375q-0.265625 0.109375 -0.609375 0.109375q-0.359375 0 -0.625 -0.109375q-0.265625 -0.125 -0.453125 -0.375q-0.1875 -0.234375 -0.296875 -0.578125q-0.109375 -0.34375 -0.140625 -0.796875l3.015625 -2.265625q0 0.1875 0 0.359375q0 0.171875 0 0.34375l0 1.203125zm6.576355 -1.328125l-1.65625 -2.375l-1.71875 0l2.46875 3.46875l-2.546875 3.578125l1.71875 0l1.75 -2.453125l1.765625 2.453125l1.71875 0l-2.5625 -3.578125l2.484375 -3.46875l-1.734375 0l-1.6875 2.375zm9.123169 4.671875l0 -9.46875l-0.09375 0l-3.90625 1.4375l0 1.375l2.4375 -0.890625l0 7.546875l1.5625 0zm9.873169 -3.609375l0 -2.25q0 -0.90625 -0.21875 -1.609375q-0.21875 -0.703125 -0.609375 -1.1875q-0.40625 -0.46875 -0.984375 -0.703125q-0.5625 -0.25 -1.28125 -0.25q-0.71875 0 -1.296875 0.25q-0.5625 0.234375 -0.953125 0.703125q-0.390625 0.484375 -0.609375 1.1875q-0.203125 0.703125 -0.203125 1.609375l0 2.25q0 0.90625 0.203125 1.609375q0.21875 0.703125 0.609375 1.171875q0.40625 0.484375 0.96875 0.734375q0.578125 0.234375 1.296875 0.234375q0.71875 0 1.28125 -0.234375q0.578125 -0.25 0.96875 -0.734375q0.40625 -0.46875 0.609375 -1.171875q0.21875 -0.703125 0.21875 -1.609375zm-4.59375 -0.5625q0 -0.1875 0 -0.3125q0 -0.125 0 -0.375l0 -1.28125q0 -0.578125 0.09375 -1.015625q0.109375 -0.4375 0.328125 -0.703125q0.171875 -0.25 0.4375 -0.359375q0.28125 -0.125 0.640625 -0.125q0.328125 0 0.59375 0.109375q0.265625 0.09375 0.453125 0.296875q0.203125 0.234375 0.3125 0.609375q0.125 0.375 0.140625 0.875l-3.0 2.28125zm3.015625 0.828125q0 0.59375 -0.109375 1.03125q-0.109375 0.4375 -0.3125 0.71875q-0.1875 0.234375 -0.46875 0.359375q-0.265625 0.109375 -0.609375 0.109375q-0.359375 0 -0.625 -0.109375q-0.265625 -0.125 -0.453125 -0.375q-0.1875 -0.234375 -0.296875 -0.578125q-0.109375 -0.34375 -0.140625 -0.796875l3.015625 -2.265625q0 0.1875 0 0.359375q0 0.171875 0 0.34375l0 1.203125zm9.388794 -3.625q0 -0.640625 -0.21875 -1.125q-0.21875 -0.5 -0.609375 -0.828125q-0.390625 -0.34375 -0.921875 -0.515625q-0.53125 -0.171875 -1.15625 -0.171875q-0.640625 0 -1.171875 0.171875q-0.53125 0.171875 -0.90625 0.515625q-0.375 0.34375 -0.59375 0.828125q-0.21875 0.484375 -0.21875 1.125q0 0.34375 0.09375 0.671875q0.09375 0.3125 0.28125 0.578125q0.15625 0.265625 0.40625 0.484375q0.25 0.203125 0.546875 0.359375q-0.359375 0.15625 -0.640625 0.390625q-0.28125 0.234375 -0.484375 0.515625q-0.203125 0.296875 -0.3125 0.65625q-0.109375 0.34375 -0.109375 0.734375q0 0.671875 0.234375 1.171875q0.25 0.5 0.671875 0.84375q0.421875 0.34375 0.984375 0.515625q0.5625 0.171875 1.234375 0.171875q0.65625 0 1.21875 -0.171875q0.5625 -0.171875 0.984375 -0.515625q0.40625 -0.34375 0.640625 -0.84375q0.25 -0.515625 0.25 -1.171875q0 -0.46875 -0.15625 -0.859375q-0.140625 -0.390625 -0.40625 -0.703125q-0.1875 -0.234375 -0.4375 -0.40625q-0.25 -0.1875 -0.546875 -0.328125q0.25 -0.125 0.453125 -0.28125q0.203125 -0.171875 0.359375 -0.359375q0.25 -0.296875 0.390625 -0.65625q0.140625 -0.375 0.140625 -0.796875zm-1.34375 4.3125q0 0.359375 -0.125 0.640625q-0.109375 0.28125 -0.3125 0.484375q-0.203125 0.203125 -0.484375 0.3125q-0.28125 0.09375 -0.625 0.09375q-0.359375 0 -0.640625 -0.09375q-0.28125 -0.109375 -0.484375 -0.296875q-0.203125 -0.203125 -0.328125 -0.484375q-0.109375 -0.296875 -0.109375 -0.65625q0 -0.359375 0.109375 -0.640625q0.109375 -0.296875 0.3125 -0.515625q0.203125 -0.203125 0.484375 -0.3125q0.28125 -0.109375 0.640625 -0.109375q0.34375 0 0.625 0.109375q0.296875 0.109375 0.5 0.3125q0.203125 0.21875 0.3125 0.515625q0.125 0.28125 0.125 0.640625zm-0.203125 -4.265625q0 0.328125 -0.109375 0.59375q-0.09375 0.25 -0.265625 0.4375q-0.171875 0.1875 -0.421875 0.296875q-0.25 0.09375 -0.546875 0.09375q-0.3125 0 -0.5625 -0.09375q-0.25 -0.109375 -0.421875 -0.296875q-0.1875 -0.1875 -0.28125 -0.4375q-0.078125 -0.265625 -0.078125 -0.59375q0 -0.328125 0.078125 -0.59375q0.09375 -0.265625 0.265625 -0.4375q0.1875 -0.1875 0.421875 -0.28125q0.25 -0.109375 0.546875 -0.109375q0.3125 0 0.5625 0.109375q0.25 0.09375 0.4375 0.28125q0.171875 0.203125 0.265625 0.46875q0.109375 0.25 0.109375 0.5625zm8.763855 3.546875l0 -6.09375l-1.609375 0l-4.09375 6.390625l0.046875 0.96875l4.09375 0l0 2.109375l1.5625 0l0 -2.109375l1.1875 0l0 -1.265625l-1.1875 0zm-4.109375 0l2.375 -3.671875l0.171875 -0.34375l0 4.015625l-2.546875 0z" fill-rule="nonzero"/><path fill="#ffffff" d="m686.37006 187.49344l151.1181 0l0 27.496063l-151.1181 0z" fill-rule="evenodd"/><path stroke="#000000" stroke-width="2.0" stroke-linejoin="round" stroke-linecap="butt" d="m686.37006 187.49344l151.1181 0l0 27.496063l-151.1181 0z" fill-rule="evenodd"/><path fill="#cccccc" d="m686.37006 187.49344l56.125977 0l0 27.496063l-56.125977 0z" fill-rule="evenodd"/><path stroke="#000000" stroke-width="2.0" stroke-linejoin="round" stroke-linecap="butt" d="m686.37006 187.49344l56.125977 0l0 27.496063l-56.125977 0z" fill-rule="evenodd"/><path fill="#000000" fill-opacity="0.0" d="m678.3123 212.22179l71.18109 0l0 35.55905l-71.18109 0z" fill-rule="evenodd"/><path fill="#000000" d="m694.40607 230.41241l0 -2.25q0 -0.90625 -0.21875 -1.609375q-0.21875 -0.703125 -0.609375 -1.1875q-0.40625 -0.46875 -0.984375 -0.703125q-0.5625 -0.25 -1.28125 -0.25q-0.71875 0 -1.296875 0.25q-0.5625 0.234375 -0.953125 0.703125q-0.390625 0.484375 -0.609375 1.1875q-0.203125 0.703125 -0.203125 1.609375l0 2.25q0 0.90625 0.203125 1.609375q0.21875 0.703125 0.609375 1.171875q0.40625 0.484375 0.96875 0.734375q0.578125 0.234375 1.296875 0.234375q0.71875 0 1.28125 -0.234375q0.578125 -0.25 0.96875 -0.734375q0.40625 -0.46875 0.609375 -1.171875q0.21875 -0.703125 0.21875 -1.609375zm-4.59375 -0.5625q0 -0.1875 0 -0.3125q0 -0.125 0 -0.375l0 -1.28125q0 -0.578125 0.09375 -1.015625q0.109375 -0.4375 0.328125 -0.703125q0.171875 -0.25 0.4375 -0.359375q0.28125 -0.125 0.640625 -0.125q0.328125 0 0.59375 0.109375q0.265625 0.09375 0.453125 0.296875q0.203125 0.234375 0.3125 0.609375q0.125 0.375 0.140625 0.875l-3.0 2.28125zm3.015625 0.828125q0 0.59375 -0.109375 1.03125q-0.109375 0.4375 -0.3125 0.71875q-0.1875 0.234375 -0.46875 0.359375q-0.265625 0.109375 -0.609375 0.109375q-0.359375 0 -0.625 -0.109375q-0.265625 -0.125 -0.453125 -0.375q-0.1875 -0.234375 -0.296875 -0.578125q-0.109375 -0.34375 -0.140625 -0.796875l3.015625 -2.265625q0 0.1875 0 0.359375q0 0.171875 0 0.34375l0 1.203125zm6.576355 -1.328125l-1.65625 -2.375l-1.71875 0l2.46875 3.46875l-2.546875 3.578125l1.71875 0l1.75 -2.453125l1.765625 2.453125l1.71875 0l-2.5625 -3.578125l2.484375 -3.46875l-1.734375 0l-1.6875 2.375zm9.123169 4.671875l0 -9.46875l-0.09375 0l-3.90625 1.4375l0 1.375l2.4375 -0.890625l0 7.546875l1.5625 0zm9.873169 -3.609375l0 -2.25q0 -0.90625 -0.21875 -1.609375q-0.21875 -0.703125 -0.609375 -1.1875q-0.40625 -0.46875 -0.984375 -0.703125q-0.5625 -0.25 -1.28125 -0.25q-0.71875 0 -1.296875 0.25q-0.5625 0.234375 -0.953125 0.703125q-0.390625 0.484375 -0.609375 1.1875q-0.203125 0.703125 -0.203125 1.609375l0 2.25q0 0.90625 0.203125 1.609375q0.21875 0.703125 0.609375 1.171875q0.40625 0.484375 0.96875 0.734375q0.578125 0.234375 1.296875 0.234375q0.71875 0 1.28125 -0.234375q0.578125 -0.25 0.96875 -0.734375q0.40625 -0.46875 0.609375 -1.171875q0.21875 -0.703125 0.21875 -1.609375zm-4.59375 -0.5625q0 -0.1875 0 -0.3125q0 -0.125 0 -0.375l0 -1.28125q0 -0.578125 0.09375 -1.015625q0.109375 -0.4375 0.328125 -0.703125q0.171875 -0.25 0.4375 -0.359375q0.28125 -0.125 0.640625 -0.125q0.328125 0 0.59375 0.109375q0.265625 0.09375 0.453125 0.296875q0.203125 0.234375 0.3125 0.609375q0.125 0.375 0.140625 0.875l-3.0 2.28125zm3.015625 0.828125q0 0.59375 -0.109375 1.03125q-0.109375 0.4375 -0.3125 0.71875q-0.1875 0.234375 -0.46875 0.359375q-0.265625 0.109375 -0.609375 0.109375q-0.359375 0 -0.625 -0.109375q-0.265625 -0.125 -0.453125 -0.375q-0.1875 -0.234375 -0.296875 -0.578125q-0.109375 -0.34375 -0.140625 -0.796875l3.015625 -2.265625q0 0.1875 0 0.359375q0 0.171875 0 0.34375l0 1.203125zm8.060669 1.15625l0.625 2.1875l1.625 0l-3.03125 -9.46875l-1.390625 0l-3.078125 9.46875l1.625 0l0.640625 -2.1875l2.984375 0zm-2.578125 -1.328125l1.09375 -3.75l1.09375 3.75l-2.1875 0zm11.12323 0.140625l0 -6.09375l-1.609375 0l-4.09375 6.390625l0.046875 0.96875l4.09375 0l0 2.109375l1.5625 0l0 -2.109375l1.1875 0l0 -1.265625l-1.1875 0zm-4.109375 0l2.375 -3.671875l0.171875 -0.34375l0 4.015625l-2.546875 0z" fill-rule="nonzero"/><path fill="#000000" fill-opacity="0.0" d="m137.07874 295.35565l71.18111 0l0 35.55905l-71.18111 0z" fill-rule="evenodd"/><path fill="#000000" d="m153.17249 313.54626l0 -2.25q0 -0.90625 -0.21875 -1.609375q-0.21875 -0.703125 -0.609375 -1.1875q-0.40625 -0.46875 -0.984375 -0.703125q-0.5625 -0.25 -1.28125 -0.25q-0.71875 0 -1.296875 0.25q-0.5625 0.234375 -0.953125 0.703125q-0.390625 0.484375 -0.609375 1.1875q-0.203125 0.703125 -0.203125 1.609375l0 2.25q0 0.90625 0.203125 1.609375q0.21875 0.703125 0.609375 1.171875q0.40625 0.484375 0.96875 0.734375q0.578125 0.234375 1.296875 0.234375q0.71875 0 1.28125 -0.234375q0.578125 -0.25 0.96875 -0.734375q0.40625 -0.46875 0.609375 -1.171875q0.21875 -0.703125 0.21875 -1.609375zm-4.59375 -0.5625q0 -0.1875 0 -0.3125q0 -0.125 0 -0.375l0 -1.28125q0 -0.578125 0.09375 -1.015625q0.109375 -0.4375 0.328125 -0.703125q0.171875 -0.25 0.4375 -0.359375q0.28125 -0.125 0.640625 -0.125q0.328125 0 0.59375 0.109375q0.265625 0.09375 0.453125 0.296875q0.203125 0.234375 0.3125 0.609375q0.125 0.375 0.140625 0.875l-3.0 2.28125zm3.015625 0.828125q0 0.59375 -0.109375 1.03125q-0.109375 0.4375 -0.3125 0.71875q-0.1875 0.234375 -0.46875 0.359375q-0.265625 0.109375 -0.609375 0.109375q-0.359375 0 -0.625 -0.109375q-0.265625 -0.125 -0.453125 -0.375q-0.1875 -0.234375 -0.296875 -0.578125q-0.109375 -0.34375 -0.140625 -0.796875l3.015625 -2.265625q0 0.1875 0 0.359375q0 0.171875 0 0.34375l0 1.203125zm6.576309 -1.328125l-1.65625 -2.375l-1.71875 0l2.46875 3.46875l-2.546875 3.578125l1.71875 0l1.75 -2.453125l1.765625 2.453125l1.71875 0l-2.5625 -3.578125l2.484375 -3.46875l-1.734375 0l-1.6875 2.375zm9.123184 4.671875l0 -9.46875l-0.09375 0l-3.90625 1.4375l0 1.375l2.4375 -0.890625l0 7.546875l1.5625 0zm9.873184 -3.609375l0 -2.25q0 -0.90625 -0.21875 -1.609375q-0.21875 -0.703125 -0.609375 -1.1875q-0.40625 -0.46875 -0.984375 -0.703125q-0.5625 -0.25 -1.28125 -0.25q-0.71875 0 -1.296875 0.25q-0.5625 0.234375 -0.953125 0.703125q-0.390625 0.484375 -0.609375 1.1875q-0.203125 0.703125 -0.203125 1.609375l0 2.25q0 0.90625 0.203125 1.609375q0.21875 0.703125 0.609375 1.171875q0.40625 0.484375 0.96875 0.734375q0.578125 0.234375 1.296875 0.234375q0.71875 0 1.28125 -0.234375q0.578125 -0.25 0.96875 -0.734375q0.40625 -0.46875 0.609375 -1.171875q0.21875 -0.703125 0.21875 -1.609375zm-4.59375 -0.5625q0 -0.1875 0 -0.3125q0 -0.125 0 -0.375l0 -1.28125q0 -0.578125 0.09375 -1.015625q0.109375 -0.4375 0.328125 -0.703125q0.171875 -0.25 0.4375 -0.359375q0.28125 -0.125 0.640625 -0.125q0.328125 0 0.59375 0.109375q0.265625 0.09375 0.453125 0.296875q0.203125 0.234375 0.3125 0.609375q0.125 0.375 0.140625 0.875l-3.0 2.28125zm3.015625 0.828125q0 0.59375 -0.109375 1.03125q-0.109375 0.4375 -0.3125 0.71875q-0.1875 0.234375 -0.46875 0.359375q-0.265625 0.109375 -0.609375 0.109375q-0.359375 0 -0.625 -0.109375q-0.265625 -0.125 -0.453125 -0.375q-0.1875 -0.234375 -0.296875 -0.578125q-0.109375 -0.34375 -0.140625 -0.796875l3.015625 -2.265625q0 0.1875 0 0.359375q0 0.171875 0 0.34375l0 1.203125zm8.607559 -0.03125l0 -6.09375l-1.609375 0l-4.09375 6.390625l0.046875 0.96875l4.09375 0l0 2.109375l1.5625 0l0 -2.109375l1.1875 0l0 -1.265625l-1.1875 0zm-4.109375 0l2.375 -3.671875l0.171875 -0.34375l0 4.015625l-2.546875 0zm12.107559 0l0 -6.09375l-1.609375 0l-4.09375 6.390625l0.046875 0.96875l4.09375 0l0 2.109375l1.5625 0l0 -2.109375l1.1875 0l0 -1.265625l-1.1875 0zm-4.109375 0l2.375 -3.671875l0.171875 -0.34375l0 4.015625l-2.546875 0z" fill-rule="nonzero"/><path fill="#cccccc" d="m80.95276 299.38846l56.125977 0l0 27.496063l-56.125977 0z" fill-rule="evenodd"/><path stroke="#000000" stroke-width="2.0" stroke-linejoin="round" stroke-linecap="butt" d="m80.95276 299.38846l56.125977 0l0 27.496063l-56.125977 0z" fill-rule="evenodd"/><path fill="#000000" fill-opacity="0.0" d="m11.850393 295.35696l80.44094 0l0 35.55905l-80.44094 0z" fill-rule="evenodd"/><path fill="#000000" d="m22.741018 310.11008l-1.34375 0l0 7.046875l1.421875 0l0 -5.40625q0.046875 -0.09375 0.09375 -0.171875q0.046875 -0.078125 0.109375 -0.140625q0.09375 -0.09375 0.203125 -0.125q0.125 -0.046875 0.28125 -0.046875q0.140625 0 0.25 0.046875q0.125 0.03125 0.203125 0.109375q0.09375 0.09375 0.125 0.25q0.046875 0.140625 0.046875 0.34375l0 5.140625l1.40625 0l0 -5.21875q0 -0.078125 0 -0.109375q0 -0.03125 0 -0.0625q0.03125 -0.109375 0.078125 -0.1875q0.046875 -0.09375 0.125 -0.15625q0.09375 -0.078125 0.203125 -0.109375q0.109375 -0.046875 0.25 -0.046875q0.15625 0 0.265625 0.046875q0.125 0.03125 0.203125 0.109375q0.09375 0.09375 0.140625 0.25q0.046875 0.140625 0.046875 0.34375l0 5.140625l1.421875 0l0 -5.125q0 -0.546875 -0.109375 -0.9375q-0.109375 -0.40625 -0.328125 -0.640625q-0.203125 -0.234375 -0.484375 -0.34375q-0.28125 -0.125 -0.625 -0.125q-0.265625 0 -0.484375 0.0625q-0.203125 0.0625 -0.390625 0.1875q-0.125 0.09375 -0.25 0.21875q-0.109375 0.125 -0.203125 0.28125q-0.0625 -0.171875 -0.15625 -0.296875q-0.09375 -0.125 -0.21875 -0.21875q-0.140625 -0.109375 -0.359375 -0.171875q-0.203125 -0.0625 -0.46875 -0.0625q-0.5 0 -0.859375 0.25q-0.34375 0.234375 -0.546875 0.65625l-0.046875 -0.78125zm13.045061 8.28125l0 -1.234375l-5.953127 0l0 1.234375l5.953127 0zm2.0763092 1.46875l1.5625 0l0 -3.34375q0.125 0.140625 0.265625 0.265625q0.140625 0.109375 0.296875 0.203125q0.265625 0.140625 0.578125 0.21875q0.328125 0.078125 0.703125 0.078125q0.65625 0 1.171875 -0.265625q0.515625 -0.28125 0.875 -0.75q0.34375 -0.484375 0.515625 -1.140625q0.1875 -0.65625 0.1875 -1.421875l0 -0.125q0 -0.796875 -0.1875 -1.453125q-0.171875 -0.671875 -0.515625 -1.140625q-0.359375 -0.484375 -0.875 -0.734375q-0.515625 -0.265625 -1.1875 -0.265625q-0.359375 0 -0.671875 0.078125q-0.296875 0.078125 -0.546875 0.203125q-0.1875 0.109375 -0.359375 0.25q-0.171875 0.140625 -0.3125 0.328125l-0.0625 -0.734375l-1.4375 0l0 9.75zm4.59375 -6.28125l0 0.125q0 0.46875 -0.09375 0.890625q-0.078125 0.421875 -0.28125 0.75q-0.203125 0.3125 -0.515625 0.5q-0.296875 0.1875 -0.734375 0.1875q-0.265625 0 -0.484375 -0.0625q-0.21875 -0.0625 -0.40625 -0.171875q-0.171875 -0.109375 -0.296875 -0.25q-0.125 -0.15625 -0.21875 -0.34375l0 -3.125q0.109375 -0.1875 0.25 -0.34375q0.140625 -0.15625 0.328125 -0.265625q0.15625 -0.09375 0.359375 -0.140625q0.21875 -0.0625 0.453125 -0.0625q0.4375 0 0.75 0.1875q0.3125 0.171875 0.515625 0.484375q0.1875 0.3125 0.28125 0.734375q0.09375 0.421875 0.09375 0.90625zm6.513809 -5.1875l-1.546875 0l0 1.71875l-1.71875 0l0 1.171875l1.71875 0l0 3.453125q0 0.6875 0.171875 1.171875q0.171875 0.46875 0.5 0.78125q0.3125 0.3125 0.75 0.46875q0.453125 0.140625 0.984375 0.140625q0.296875 0 0.59375 -0.03125q0.296875 -0.03125 0.578125 -0.078125q0.265625 -0.0625 0.5 -0.125q0.234375 -0.078125 0.40625 -0.1875l-0.171875 -1.078125q-0.109375 0.03125 -0.28125 0.078125q-0.171875 0.03125 -0.375 0.046875q-0.1875 0.03125 -0.40625 0.0625q-0.21875 0.015625 -0.421875 0.015625q-0.28125 0 -0.515625 -0.0625q-0.234375 -0.0625 -0.40625 -0.21875q-0.15625 -0.15625 -0.265625 -0.421875q-0.09375 -0.265625 -0.09375 -0.65625l0 -3.359375l2.65625 0l0 -1.171875l-2.65625 0l0 -1.71875zm9.748184 1.59375q-0.734375 0 -1.34375 0.34375q-0.59375 0.328125 -1.015625 0.921875l-0.015625 -0.15625l-0.0625 -0.984375l-1.453125 0l0 7.046875l1.5625 0l0 -4.34375q0.109375 -0.3125 0.296875 -0.546875q0.1875 -0.25 0.4375 -0.40625q0.25 -0.15625 0.5625 -0.234375q0.3125 -0.078125 0.703125 -0.078125q0.34375 0 0.6875 0.046875q0.359375 0.03125 0.703125 0.109375l0.234375 -1.546875q-0.203125 -0.0625 -0.5625 -0.109375q-0.359375 -0.0625 -0.734375 -0.0625zm9.170059 7.171875l0 -1.25l-4.421875 0l2.109375 -2.25q0.421875 -0.453125 0.765625 -0.859375q0.359375 -0.421875 0.625 -0.828125q0.25 -0.421875 0.390625 -0.828125q0.15625 -0.421875 0.15625 -0.875q0 -0.59375 -0.203125 -1.09375q-0.1875 -0.5 -0.5625 -0.859375q-0.375 -0.359375 -0.921875 -0.5625q-0.546875 -0.203125 -1.25 -0.203125q-0.734375 0 -1.34375 0.25q-0.59375 0.234375 -1.015625 0.640625q-0.421875 0.421875 -0.65625 0.96875q-0.21875 0.546875 -0.21875 1.15625l1.5625 0q0 -0.40625 0.09375 -0.71875q0.109375 -0.328125 0.3125 -0.5625q0.203125 -0.203125 0.5 -0.3125q0.3125 -0.125 0.734375 -0.125q0.328125 0 0.59375 0.109375q0.265625 0.109375 0.453125 0.296875q0.1875 0.203125 0.28125 0.484375q0.09375 0.265625 0.09375 0.59375q0 0.25 -0.078125 0.5q-0.0625 0.234375 -0.21875 0.515625q-0.15625 0.28125 -0.421875 0.625q-0.25 0.328125 -0.640625 0.75l-3.078125 3.359375l0 1.078125l6.359375 0z" fill-rule="nonzero"/><path fill="#000000" fill-opacity="0.0" d="m75.49344 50.0l247.9685 0l0 35.55905l-247.9685 0z" fill-rule="evenodd"/><path fill="#000000" d="m85.29031 68.22188l0 0.140625q0 0.765625 0.1875 1.421875q0.203125 0.65625 0.5625 1.125q0.359375 0.484375 0.875 0.75q0.515625 0.265625 1.15625 0.265625q0.609375 0 1.078125 -0.21875q0.46875 -0.21875 0.8125 -0.640625l0.0625 0.734375l1.421875 0l0 -10.000004l-1.5625 0l0 3.6093788q-0.328125 -0.375 -0.78125 -0.578125q-0.4375 -0.203125 -1.015625 -0.203125q-0.65625 0 -1.171875 0.265625q-0.515625 0.265625 -0.875 0.734375q-0.359375 0.484375 -0.5625 1.140625q-0.1875 0.65625 -0.1875 1.453125zm1.5625 0.140625l0 -0.140625q0 -0.46875 0.078125 -0.890625q0.09375 -0.421875 0.296875 -0.734375q0.1875 -0.328125 0.5 -0.5q0.3125 -0.1875 0.75 -0.1875q0.515625 0 0.859375 0.234375q0.34375 0.234375 0.546875 0.625l0 3.015625q-0.203125 0.40625 -0.546875 0.640625q-0.34375 0.21875 -0.875 0.21875q-0.421875 0 -0.734375 -0.171875q-0.3125 -0.1875 -0.5 -0.5q-0.203125 -0.3125 -0.296875 -0.71875q-0.078125 -0.421875 -0.078125 -0.890625zm9.935684 3.5625q1.03125 0 1.75 -0.390625q0.734375 -0.40625 1.078125 -0.921875l-0.828125 -0.796875q-0.328125 0.40625 -0.828125 0.640625q-0.5 0.21875 -1.078125 0.21875q-0.421875 0 -0.78125 -0.140625q-0.359375 -0.140625 -0.609375 -0.40625q-0.265625 -0.25 -0.421875 -0.5625q-0.140625 -0.3125 -0.21875 -0.765625l0 -0.046875l4.890625 0l0 -0.65625q0 -0.765625 -0.203125 -1.390625q-0.203125 -0.640625 -0.609375 -1.109375q-0.390625 -0.453125 -0.984375 -0.703125q-0.578125 -0.265625 -1.34375 -0.265625q-0.6875 0 -1.296875 0.265625q-0.59375 0.25 -1.046875 0.71875q-0.453125 0.484375 -0.71875 1.15625q-0.25 0.671875 -0.25 1.484375l0 0.265625q0 0.734375 0.25 1.359375q0.25 0.609375 0.703125 1.0625q0.46875 0.46875 1.109375 0.734375q0.65625 0.25 1.4375 0.25zm-0.1875 -6.03125q0.390625 0 0.6875 0.140625q0.296875 0.125 0.484375 0.34375q0.203125 0.234375 0.3125 0.53125q0.109375 0.296875 0.109375 0.609375l0 0.109375l-3.3125 0q0.078125 -0.40625 0.21875 -0.71875q0.15625 -0.328125 0.375 -0.5625q0.21875 -0.21875 0.5 -0.328125q0.296875 -0.125 0.625 -0.125zm9.388809 5.90625l1.59375 0l0 -0.109375q-0.125 -0.28125 -0.203125 -0.65625q-0.0625 -0.375 -0.0625 -0.859375l0 -3.125q0 -0.59375 -0.21875 -1.046875q-0.21875 -0.46875 -0.609375 -0.765625q-0.390625 -0.296875 -0.9375 -0.453125q-0.53125 -0.15625 -1.15625 -0.15625q-0.6875 0 -1.234375 0.1875q-0.53125 0.171875 -0.890625 0.46875q-0.375 0.3125 -0.578125 0.703125q-0.1875 0.390625 -0.1875 0.8125l1.5625 0q0 -0.203125 0.0625 -0.375q0.078125 -0.1875 0.234375 -0.3125q0.15625 -0.140625 0.390625 -0.21875q0.234375 -0.078125 0.5625 -0.078125q0.34375 0 0.609375 0.09375q0.28125 0.078125 0.46875 0.25q0.171875 0.15625 0.265625 0.390625q0.09375 0.21875 0.09375 0.484375l0 0.484375l-1.125 0q-0.765625 0 -1.375 0.140625q-0.59375 0.140625 -1.0 0.40625q-0.4375 0.296875 -0.671875 0.75q-0.234375 0.4375 -0.234375 1.015625q0 0.453125 0.171875 0.84375q0.1875 0.390625 0.515625 0.65625q0.3125 0.28125 0.765625 0.4375q0.453125 0.15625 1.0 0.15625q0.34375 0 0.625 -0.0625q0.296875 -0.0625 0.546875 -0.171875q0.265625 -0.125 0.46875 -0.265625q0.203125 -0.15625 0.359375 -0.328125q0.03125 0.203125 0.078125 0.390625q0.046875 0.1875 0.109375 0.3125zm-1.890625 -1.125q-0.296875 0 -0.515625 -0.0625q-0.21875 -0.078125 -0.375 -0.21875q-0.140625 -0.125 -0.21875 -0.3125q-0.078125 -0.1875 -0.078125 -0.390625q0 -0.265625 0.09375 -0.46875q0.09375 -0.21875 0.28125 -0.359375q0.21875 -0.1875 0.59375 -0.28125q0.375 -0.09375 0.875 -0.09375l1.0 0l0 1.3125q-0.078125 0.171875 -0.234375 0.328125q-0.15625 0.15625 -0.375 0.265625q-0.21875 0.125 -0.484375 0.203125q-0.25 0.078125 -0.5625 0.078125zm5.701309 -8.875004l0 1.296875l2.21875 0l0 7.421879l-2.21875 0l0 1.28125l5.921875 0l0 -1.28125l-2.125 0l0 -8.718754l-3.796875 0zm7.998184 0l0 1.296875l2.21875 0l0 7.421879l-2.21875 0l0 1.28125l5.921875 0l0 -1.28125l-2.125 0l0 -8.718754l-3.796875 0zm7.404434 6.421879l0 0.125q0 0.78125 0.21875 1.4375q0.234375 0.640625 0.65625 1.125q0.40625 0.484375 1.015625 0.765625q0.625 0.265625 1.390625 0.265625q0.765625 0 1.375 -0.265625q0.609375 -0.28125 1.03125 -0.765625q0.40625 -0.484375 0.625 -1.125q0.234375 -0.65625 0.234375 -1.4375l0 -0.125q0 -0.78125 -0.234375 -1.421875q-0.21875 -0.65625 -0.625 -1.140625q-0.421875 -0.484375 -1.03125 -0.75q-0.609375 -0.28125 -1.390625 -0.28125q-0.765625 0 -1.375 0.28125q-0.609375 0.265625 -1.015625 0.75q-0.421875 0.484375 -0.65625 1.140625q-0.21875 0.640625 -0.21875 1.421875zm1.5625 0.125l0 -0.125q0 -0.46875 0.09375 -0.890625q0.109375 -0.421875 0.3125 -0.75q0.21875 -0.3125 0.53125 -0.5q0.328125 -0.1875 0.765625 -0.1875q0.453125 0 0.765625 0.1875q0.328125 0.1875 0.546875 0.5q0.203125 0.328125 0.296875 0.75q0.109375 0.421875 0.109375 0.890625l0 0.125q0 0.484375 -0.109375 0.90625q-0.09375 0.421875 -0.296875 0.734375q-0.203125 0.328125 -0.53125 0.515625q-0.328125 0.171875 -0.765625 0.171875q-0.453125 0 -0.78125 -0.171875q-0.3125 -0.1875 -0.53125 -0.515625q-0.203125 -0.3125 -0.3125 -0.734375q-0.09375 -0.421875 -0.09375 -0.90625zm9.795059 2.328125q-0.5 0 -0.828125 -0.1875q-0.3125 -0.203125 -0.5 -0.515625q-0.203125 -0.3125 -0.28125 -0.71875q-0.078125 -0.421875 -0.078125 -0.859375l0 -0.21875q0 -0.421875 0.078125 -0.828125q0.078125 -0.421875 0.28125 -0.734375q0.1875 -0.328125 0.5 -0.515625q0.328125 -0.203125 0.828125 -0.203125q0.3125 0 0.59375 0.109375q0.28125 0.109375 0.46875 0.296875q0.203125 0.1875 0.3125 0.453125q0.109375 0.25 0.109375 0.53125l1.453125 0q0.015625 -0.59375 -0.203125 -1.078125q-0.21875 -0.484375 -0.609375 -0.84375q-0.390625 -0.34375 -0.9375 -0.53125q-0.546875 -0.203125 -1.171875 -0.203125q-0.8125 0 -1.421875 0.28125q-0.609375 0.28125 -1.015625 0.765625q-0.40625 0.484375 -0.625 1.125q-0.203125 0.640625 -0.203125 1.375l0 0.21875q0 0.734375 0.203125 1.375q0.21875 0.640625 0.625 1.125q0.40625 0.484375 1.015625 0.765625q0.609375 0.28125 1.421875 0.28125q0.578125 0 1.109375 -0.1875q0.53125 -0.203125 0.953125 -0.53125q0.390625 -0.328125 0.625 -0.78125q0.25 -0.453125 0.234375 -0.96875l-1.453125 0q0 0.265625 -0.125 0.484375q-0.125 0.21875 -0.328125 0.390625q-0.203125 0.15625 -0.484375 0.25q-0.265625 0.078125 -0.546875 0.078125zm9.420059 1.125l1.59375 0l0 -0.109375q-0.125 -0.28125 -0.203125 -0.65625q-0.0625 -0.375 -0.0625 -0.859375l0 -3.125q0 -0.59375 -0.21875 -1.046875q-0.21875 -0.46875 -0.609375 -0.765625q-0.390625 -0.296875 -0.9375 -0.453125q-0.53125 -0.15625 -1.15625 -0.15625q-0.6875 0 -1.234375 0.1875q-0.53125 0.171875 -0.890625 0.46875q-0.375 0.3125 -0.578125 0.703125q-0.1875 0.390625 -0.1875 0.8125l1.5625 0q0 -0.203125 0.0625 -0.375q0.078125 -0.1875 0.234375 -0.3125q0.15625 -0.140625 0.390625 -0.21875q0.234375 -0.078125 0.5625 -0.078125q0.34375 0 0.609375 0.09375q0.28125 0.078125 0.46875 0.25q0.171875 0.15625 0.265625 0.390625q0.09375 0.21875 0.09375 0.484375l0 0.484375l-1.125 0q-0.765625 0 -1.375 0.140625q-0.59375 0.140625 -1.0 0.40625q-0.4375 0.296875 -0.671875 0.75q-0.234375 0.4375 -0.234375 1.015625q0 0.453125 0.171875 0.84375q0.1875 0.390625 0.515625 0.65625q0.3125 0.28125 0.765625 0.4375q0.453125 0.15625 1.0 0.15625q0.34375 0 0.625 -0.0625q0.296875 -0.0625 0.546875 -0.171875q0.265625 -0.125 0.46875 -0.265625q0.203125 -0.15625 0.359375 -0.328125q0.03125 0.203125 0.078125 0.390625q0.046875 0.1875 0.109375 0.3125zm-1.890625 -1.125q-0.296875 0 -0.515625 -0.0625q-0.21875 -0.078125 -0.375 -0.21875q-0.140625 -0.125 -0.21875 -0.3125q-0.078125 -0.1875 -0.078125 -0.390625q0 -0.265625 0.09375 -0.46875q0.09375 -0.21875 0.28125 -0.359375q0.21875 -0.1875 0.59375 -0.28125q0.375 -0.09375 0.875 -0.09375l1.0 0l0 1.3125q-0.078125 0.171875 -0.234375 0.328125q-0.15625 0.15625 -0.375 0.265625q-0.21875 0.125 -0.484375 0.203125q-0.25 0.078125 -0.5625 0.078125zm8.513809 -7.640629l-1.546875 0l0 1.7187538l-1.71875 0l0 1.171875l1.71875 0l0 3.453125q0 0.6875 0.171875 1.171875q0.171875 0.46875 0.5 0.78125q0.3125 0.3125 0.75 0.46875q0.453125 0.140625 0.984375 0.140625q0.296875 0 0.59375 -0.03125q0.296875 -0.03125 0.578125 -0.078125q0.265625 -0.0625 0.5 -0.125q0.234375 -0.078125 0.40625 -0.1875l-0.171875 -1.078125q-0.109375 0.03125 -0.28125 0.078125q-0.171875 0.03125 -0.375 0.046875q-0.1875 0.03125 -0.40625 0.0625q-0.21875 0.015625 -0.421875 0.015625q-0.28125 0 -0.515625 -0.0625q-0.234375 -0.0625 -0.40625 -0.21875q-0.15625 -0.15625 -0.265625 -0.421875q-0.09375 -0.265625 -0.09375 -0.65625l0 -3.359375l2.65625 0l0 -1.171875l-2.65625 0l0 -1.7187538zm8.170059 8.890629q1.03125 0 1.75 -0.390625q0.734375 -0.40625 1.078125 -0.921875l-0.828125 -0.796875q-0.328125 0.40625 -0.828125 0.640625q-0.5 0.21875 -1.078125 0.21875q-0.421875 0 -0.78125 -0.140625q-0.359375 -0.140625 -0.609375 -0.40625q-0.265625 -0.25 -0.421875 -0.5625q-0.140625 -0.3125 -0.21875 -0.765625l0 -0.046875l4.890625 0l0 -0.65625q0 -0.765625 -0.203125 -1.390625q-0.203125 -0.640625 -0.609375 -1.109375q-0.390625 -0.453125 -0.984375 -0.703125q-0.578125 -0.265625 -1.34375 -0.265625q-0.6875 0 -1.296875 0.265625q-0.59375 0.25 -1.046875 0.71875q-0.453125 0.484375 -0.71875 1.15625q-0.25 0.671875 -0.25 1.484375l0 0.265625q0 0.734375 0.25 1.359375q0.25 0.609375 0.703125 1.0625q0.46875 0.46875 1.109375 0.734375q0.65625 0.25 1.4375 0.25zm-0.1875 -6.03125q0.390625 0 0.6875 0.140625q0.296875 0.125 0.484375 0.34375q0.203125 0.234375 0.3125 0.53125q0.109375 0.296875 0.109375 0.609375l0 0.109375l-3.3125 0q0.078125 -0.40625 0.21875 -0.71875q0.15625 -0.328125 0.375 -0.5625q0.21875 -0.21875 0.5 -0.328125q0.296875 -0.125 0.625 -0.125zm6.170059 2.046875l0 0.125q0 0.921875 0.140625 1.734375q0.140625 0.8125 0.390625 1.5q0.234375 0.6875 0.546875 1.25q0.328125 0.578125 0.6875 1.03125q0.359375 0.4375 0.71875 0.75q0.375 0.3125 0.734375 0.46875l0.3125 -0.859375q-0.265625 -0.203125 -0.53125 -0.515625q-0.25 -0.296875 -0.5 -0.6875q-0.21875 -0.375 -0.4375 -0.875q-0.203125 -0.5 -0.359375 -1.09375q-0.125 -0.484375 -0.21875 -1.1875q-0.078125 -0.703125 -0.078125 -1.515625l0 -0.125q0 -0.84375 0.09375 -1.546875q0.09375 -0.71875 0.25 -1.3125q0.171875 -0.640625 0.421875 -1.1718788q0.25 -0.53125 0.53125 -0.921875q0.203125 -0.28125 0.40625 -0.5q0.203125 -0.234375 0.421875 -0.390625l-0.3125 -0.890625q-0.359375 0.15625 -0.734375 0.46875q-0.359375 0.3125 -0.71875 0.75q-0.34375 0.453125 -0.671875 1.03125q-0.328125 0.5625038 -0.5625 1.2500038q-0.25 0.6875 -0.390625 1.515625q-0.140625 0.8125 -0.140625 1.71875zm12.810684 0.25l0 -2.25q0 -0.90625 -0.21875 -1.609375q-0.21875 -0.7031288 -0.609375 -1.1875038q-0.40625 -0.46875 -0.984375 -0.703125q-0.5625 -0.25 -1.28125 -0.25q-0.71875 0 -1.296875 0.25q-0.5625 0.234375 -0.953125 0.703125q-0.390625 0.484375 -0.609375 1.1875038q-0.203125 0.703125 -0.203125 1.609375l0 2.25q0 0.90625 0.203125 1.609375q0.21875 0.703125 0.609375 1.171875q0.40625 0.484375 0.96875 0.734375q0.578125 0.234375 1.296875 0.234375q0.71875 0 1.28125 -0.234375q0.578125 -0.25 0.96875 -0.734375q0.40625 -0.46875 0.609375 -1.171875q0.21875 -0.703125 0.21875 -1.609375zm-4.59375 -0.5625q0 -0.1875 0 -0.3125q0 -0.125 0 -0.375l0 -1.28125q0 -0.578125 0.09375 -1.015625q0.109375 -0.4375 0.328125 -0.7031288q0.171875 -0.25 0.4375 -0.359375q0.28125 -0.125 0.640625 -0.125q0.328125 0 0.59375 0.109375q0.265625 0.09375 0.453125 0.296875q0.203125 0.23437881 0.3125 0.6093788q0.125 0.375 0.140625 0.875l-3.0 2.28125zm3.015625 0.828125q0 0.59375 -0.109375 1.03125q-0.109375 0.4375 -0.3125 0.71875q-0.1875 0.234375 -0.46875 0.359375q-0.265625 0.109375 -0.609375 0.109375q-0.359375 0 -0.625 -0.109375q-0.265625 -0.125 -0.453125 -0.375q-0.1875 -0.234375 -0.296875 -0.578125q-0.109375 -0.34375 -0.140625 -0.796875l3.015625 -2.265625q0 0.1875 0 0.359375q0 0.171875 0 0.34375l0 1.203125zm6.576309 -1.328125l-1.65625 -2.375l-1.71875 0l2.46875 3.46875l-2.546875 3.578125l1.71875 0l1.75 -2.453125l1.765625 2.453125l1.71875 0l-2.5625 -3.578125l2.484375 -3.46875l-1.734375 0l-1.6875 2.375zm9.123184 4.671875l0 -9.468754l-0.09375 0l-3.90625 1.4375l0 1.3750038l2.4375 -0.890625l0 7.546875l1.5625 0zm9.873184 -3.609375l0 -2.25q0 -0.90625 -0.21875 -1.609375q-0.21875 -0.7031288 -0.609375 -1.1875038q-0.40625 -0.46875 -0.984375 -0.703125q-0.5625 -0.25 -1.28125 -0.25q-0.71875 0 -1.296875 0.25q-0.5625 0.234375 -0.953125 0.703125q-0.390625 0.484375 -0.609375 1.1875038q-0.203125 0.703125 -0.203125 1.609375l0 2.25q0 0.90625 0.203125 1.609375q0.21875 0.703125 0.609375 1.171875q0.40625 0.484375 0.96875 0.734375q0.578125 0.234375 1.296875 0.234375q0.71875 0 1.28125 -0.234375q0.578125 -0.25 0.96875 -0.734375q0.40625 -0.46875 0.609375 -1.171875q0.21875 -0.703125 0.21875 -1.609375zm-4.59375 -0.5625q0 -0.1875 0 -0.3125q0 -0.125 0 -0.375l0 -1.28125q0 -0.578125 0.09375 -1.015625q0.109375 -0.4375 0.328125 -0.7031288q0.171875 -0.25 0.4375 -0.359375q0.28125 -0.125 0.640625 -0.125q0.328125 0 0.59375 0.109375q0.265625 0.09375 0.453125 0.296875q0.203125 0.23437881 0.3125 0.6093788q0.125 0.375 0.140625 0.875l-3.0 2.28125zm3.015625 0.828125q0 0.59375 -0.109375 1.03125q-0.109375 0.4375 -0.3125 0.71875q-0.1875 0.234375 -0.46875 0.359375q-0.265625 0.109375 -0.609375 0.109375q-0.359375 0 -0.625 -0.109375q-0.265625 -0.125 -0.453125 -0.375q-0.1875 -0.234375 -0.296875 -0.578125q-0.109375 -0.34375 -0.140625 -0.796875l3.015625 -2.265625q0 0.1875 0 0.359375q0 0.171875 0 0.34375l0 1.203125zm9.529434 3.34375l0 -1.25l-4.421875 0l2.109375 -2.25q0.421875 -0.453125 0.765625 -0.859375q0.359375 -0.421875 0.625 -0.828125q0.25 -0.421875 0.390625 -0.828125q0.15625 -0.421875 0.15625 -0.875q0 -0.59375 -0.203125 -1.0937538q-0.1875 -0.5 -0.5625 -0.859375q-0.375 -0.359375 -0.921875 -0.5625q-0.546875 -0.203125 -1.25 -0.203125q-0.734375 0 -1.34375 0.25q-0.59375 0.234375 -1.015625 0.640625q-0.421875 0.421875 -0.65625 0.9687538q-0.21875 0.546875 -0.21875 1.15625l1.5625 0q0 -0.40625 0.09375 -0.71875q0.109375 -0.328125 0.3125 -0.5625038q0.203125 -0.203125 0.5 -0.3125q0.3125 -0.125 0.734375 -0.125q0.328125 0 0.59375 0.109375q0.265625 0.109375 0.453125 0.296875q0.1875 0.20312881 0.28125 0.4843788q0.09375 0.265625 0.09375 0.59375q0 0.25 -0.078125 0.5q-0.0625 0.234375 -0.21875 0.515625q-0.15625 0.28125 -0.421875 0.625q-0.25 0.328125 -0.640625 0.75l-3.078125 3.359375l0 1.078125l6.359375 0zm7.076309 -3.375l0 -6.093754l-1.609375 0l-4.09375 6.390629l0.046875 0.96875l4.09375 0l0 2.109375l1.5625 0l0 -2.109375l1.1875 0l0 -1.265625l-1.1875 0zm-4.109375 0l2.375 -3.671875l0.171875 -0.34375l0 4.015625l-2.546875 0zm11.638809 -0.359375l0 -0.125q0 -0.921875 -0.15625 -1.71875q-0.15625 -0.796875 -0.390625 -1.484375q-0.234375 -0.703125 -0.5625 -1.2656288q-0.328125 -0.578125 -0.703125 -1.03125q-0.359375 -0.4375 -0.734375 -0.75q-0.375 -0.328125 -0.734375 -0.484375l-0.3125 0.859375q0.203125 0.15625 0.40625 0.390625q0.21875 0.234375 0.421875 0.53125q0.28125 0.40625 0.53125 0.96875q0.265625 0.5625038 0.4375 1.2500038q0.140625 0.546875 0.234375 1.234375q0.09375 0.6875 0.09375 1.5l0 0.125q0 0.796875 -0.09375 1.46875q-0.078125 0.671875 -0.21875 1.25q-0.140625 0.625 -0.359375 1.125q-0.21875 0.515625 -0.46875 0.921875q-0.234375 0.359375 -0.484375 0.640625q-0.25 0.28125 -0.5 0.46875l0.3125 0.859375q0.359375 -0.15625 0.734375 -0.46875q0.375 -0.3125 0.734375 -0.78125q0.359375 -0.4375 0.6875 -1.015625q0.328125 -0.5625 0.578125 -1.265625q0.25 -0.6875 0.390625 -1.484375q0.15625 -0.8125 0.15625 -1.71875zm5.607559 -2.71875q0 0.453125 0.296875 0.765625q0.296875 0.296875 0.828125 0.296875q0.515625 0 0.8125 -0.296875q0.3125 -0.3125 0.3125 -0.765625q0 -0.453125 -0.296875 -0.765625q-0.296875 -0.328125 -0.828125 -0.328125q-0.546875 0 -0.84375 0.328125q-0.28125 0.3125 -0.28125 0.765625zm1.828125 6.25l0 -1.3125l-1.53125 0l0 1.375q0 0.640625 -0.15625 1.15625q-0.140625 0.515625 -0.421875 0.96875l0.875 0.46875q0.546875 -0.5 0.890625 -1.234375q0.34375 -0.71875 0.34375 -1.421875z" fill-rule="nonzero"/><path fill="#000000" fill-opacity="0.0" d="m384.19946 157.19948l-267.0866 1.0393677" fill-rule="evenodd"/><path stroke="#000000" stroke-width="2.0" stroke-linejoin="round" stroke-linecap="butt" d="m384.19946 157.19948l-267.0866 1.0393677" fill-rule="evenodd"/><path fill="#000000" fill-opacity="0.0" d="m117.09974 205.47769l0.31495667 -48.0" fill-rule="evenodd"/><path stroke="#000000" stroke-width="2.0" stroke-linejoin="round" stroke-linecap="butt" d="m117.149475 197.89786l0.26522064 -40.420166" fill-rule="evenodd"/><path fill="#000000" stroke="#000000" stroke-width="2.0" stroke-linecap="butt" d="m117.1063 204.4777c-1.8169785 -0.011917114 -3.2802658 -1.4945374 -3.268341 -3.3115082c0.011917114 -1.8169861 1.4945374 -3.2802734 3.3115158 -3.268341c1.8169785 0.011917114 3.2802658 1.4945374 3.268341 3.3115082c-0.011924744 1.8169861 -1.4945374 3.2802734 -3.3115158 3.268341z" fill-rule="nonzero"/><path fill="#000000" fill-opacity="0.0" d="m383.9449 186.2126l-0.18896484 -30.015747" fill-rule="evenodd"/><path stroke="#000000" stroke-width="2.0" stroke-linejoin="round" stroke-linecap="butt" d="m383.86935 174.21284l-0.11343384 -18.015991" fill-rule="evenodd"/><path fill="#000000" stroke="#000000" stroke-width="2.0" stroke-linecap="butt" d="m380.56592 174.23363l3.3605652 9.055222l3.2462463 -9.096817z" fill-rule="evenodd"/><path fill="#000000" fill-opacity="0.0" d="m234.19948 269.70078l-0.3779602 -54.740143" fill-rule="evenodd"/><path stroke="#000000" stroke-width="2.0" stroke-linejoin="round" stroke-linecap="butt" d="m234.19948 269.70078l-0.29508972 -42.740433" fill-rule="evenodd"/><path fill="#000000" stroke="#000000" stroke-width="2.0" stroke-linecap="butt" d="m237.20776 226.93753l-3.3660583 -9.053162l-3.2407227 9.098785z" fill-rule="evenodd"/><path fill="#000000" fill-opacity="0.0" d="m233.19948 269.70078l-122.803154 1.0078735" fill-rule="evenodd"/><path stroke="#000000" stroke-width="2.0" stroke-linejoin="round" stroke-linecap="butt" d="m233.19948 269.70078l-122.803154 1.0078735" fill-rule="evenodd"/><path fill="#000000" fill-opacity="0.0" d="m109.86614 315.88715l-0.47244263 -45.19687" fill-rule="evenodd"/><path stroke="#000000" stroke-width="2.0" stroke-linejoin="round" stroke-linecap="butt" d="m109.78691 308.30756l-0.39321136 -37.61728" fill-rule="evenodd"/><path fill="#000000" stroke="#000000" stroke-width="2.0" stroke-linecap="butt" d="m109.85569 314.8872c-1.8169174 0.018981934 -3.305214 -1.4385376 -3.3242111 -3.2554321c-0.018989563 -1.816925 1.4385147 -3.3052368 3.2554321 -3.3242188c1.8169174 -0.018981934 3.3052216 1.4385071 3.3242111 3.2554321c0.018989563 1.816925 -1.4385147 3.3052063 -3.2554321 3.3242188z" fill-rule="nonzero"/><path fill="#000000" d="m709.7244 196.2336l9.417297 0l0 10.015747l-9.417297 0z" fill-rule="evenodd"/><path stroke="#000000" stroke-width="1.0" stroke-linejoin="round" stroke-linecap="butt" d="m709.7244 196.2336l9.417297 0l0 10.015747l-9.417297 0z" fill-rule="evenodd"/></g></svg>