<svg version="1.1" viewBox="0.0 0.0 865.1601049868766 322.257217847769" fill="none" stroke="none" stroke-linecap="square" stroke-miterlimit="10" xmlns:xlink="http://www.w3.org/1999/xlink" xmlns="http://www.w3.org/2000/svg"><clipPath id="p.0"><path d="m0 0l865.1601 0l0 322.25723l-865.1601 0l0 -322.25723z" clip-rule="nonzero"/></clipPath><g clip-path="url(#p.0)"><path fill="#000000" fill-opacity="0.0" d="m0 0l865.1601 0l0 322.25723l-865.1601 0z" fill-rule="evenodd"/><path fill="#cccccc" d="m14.3359585 66.543304l56.125984 0l0 20.440948l-56.125984 0z" fill-rule="evenodd"/><path stroke="#000000" stroke-width="2.0" stroke-linejoin="round" stroke-linecap="butt" d="m14.3359585 66.543304l56.125984 0l0 20.440948l-56.125984 0z" fill-rule="evenodd"/><path fill="#ffffff" d="m90.89239 147.98425l151.1181 0l0 27.496063l-151.1181 0z" fill-rule="evenodd"/><path stroke="#000000" stroke-width="2.0" stroke-linejoin="round" stroke-linecap="butt" d="m90.89239 147.98425l151.1181 0l0 27.496063l-151.1181 0z" fill-rule="evenodd"/><path fill="#000000" fill-opacity="0.0" d="m8.947507 8.073491l201.98425 0l0 38.771656l-201.98425 0z" fill-rule="evenodd"/><path fill="#000000" d="m25.96313 27.58974l0 -1.546875l-4.8125 0l0 -3.4375l5.5 0l0 -1.546875l-7.390625 0l0 11.375l1.890625 0l0 -4.84375l4.8125 0zm3.2265625 -3.609375l0 1.546875l2.609375 0l0 5.359375l-2.609375 0l0 1.546875l6.96875 0l0 -1.546875l-2.484375 0l0 -6.90625l-4.484375 0zm2.4375 -2.1875q0 0.296875 0.140625 0.515625q0.140625 0.21875 0.421875 0.3125q0.28125 0.078125 0.5 0.03125q0.234375 -0.046875 0.390625 -0.1875q0.328125 -0.09375 0.5 -0.34375q0.171875 -0.25 0.125 -0.59375q-0.046875 -0.34375 -0.3125 -0.546875q-0.25 -0.21875 -0.671875 -0.21875q-0.25 0 -0.453125 0.078125q-0.203125 0.0625 -0.34375 0.203125q-0.140625 0.140625 -0.21875 0.328125q-0.078125 0.1875 -0.078125 0.421875zm10.4453125 5.03125l-2.0 -2.84375l-2.046875 0l2.953125 4.15625l-3.0625 4.296875l2.078125 0l2.09375 -2.953125l2.109375 2.953125l2.0625 0l-3.0625 -4.296875l2.96875 -4.15625l-2.0625 0l-2.03125 2.84375zm9.8359375 5.765625q1.234375 0 2.109375 -0.484375q0.875 -0.484375 1.296875 -1.09375l-1.0 -0.96875q-0.390625 0.5 -1.0 0.765625q-0.59375 0.265625 -1.296875 0.265625q-0.5 0 -0.9375 -0.171875q-0.421875 -0.171875 -0.734375 -0.484375q-0.3125 -0.296875 -0.5 -0.671875q-0.171875 -0.375 -0.25 -0.921875l0 -0.046875l5.859375 0l0 -0.796875q0 -0.90625 -0.25 -1.671875q-0.234375 -0.765625 -0.71875 -1.328125q-0.46875 -0.546875 -1.171875 -0.84375q-0.703125 -0.3125 -1.625 -0.3125q-0.8125 0 -1.546875 0.3125q-0.71875 0.296875 -1.265625 0.875q-0.546875 0.5625 -0.859375 1.375q-0.3125 0.796875 -0.3125 1.796875l0 0.3125q0 0.875 0.296875 1.625q0.3125 0.734375 0.859375 1.28125q0.5625 0.5625 1.328125 0.875q0.78125 0.3125 1.71875 0.3125zm-0.21875 -7.25q0.46875 0 0.8125 0.15625q0.359375 0.15625 0.59375 0.421875q0.25 0.28125 0.375 0.640625q0.140625 0.359375 0.140625 0.734375l0 0.125l-3.984375 0q0.09375 -0.484375 0.265625 -0.859375q0.1875 -0.390625 0.453125 -0.671875q0.265625 -0.265625 0.59375 -0.40625q0.34375 -0.140625 0.75 -0.140625zm5.6328125 2.796875l0 0.171875q0 0.90625 0.234375 1.703125q0.234375 0.78125 0.65625 1.34375q0.4375 0.578125 1.046875 0.90625q0.625 0.328125 1.390625 0.328125q0.734375 0 1.296875 -0.265625q0.5625 -0.28125 0.96875 -0.78125l0.09375 0.890625l1.6875038 0l0 -12.0l-1.8593788 0l0 4.328125q-0.40625 -0.453125 -0.9375 -0.6875q-0.53125 -0.25 -1.234375 -0.25q-0.78125 0 -1.40625 0.3125q-0.609375 0.3125 -1.046875 0.890625q-0.4375 0.5625 -0.671875 1.359375q-0.21875 0.796875 -0.21875 1.75zm1.859375 0.171875l0 -0.171875q0 -0.5625 0.109375 -1.0625q0.109375 -0.515625 0.359375 -0.890625q0.21875 -0.390625 0.59375 -0.609375q0.375 -0.21875 0.890625 -0.21875q0.625 0 1.03125 0.28125q0.421875 0.28125 0.671875 0.75l0 3.625q-0.25 0.484375 -0.671875 0.765625q-0.40625 0.265625 -1.046875 0.265625q-0.515625 0 -0.890625 -0.203125q-0.359375 -0.21875 -0.59375 -0.609375q-0.234375 -0.359375 -0.34375 -0.859375q-0.109375 -0.5 -0.109375 -1.0625zm13.867191 1.1875q0 0.375 -0.15625 0.671875q-0.15625 0.28125 -0.421875 0.484375q-0.28125 0.203125 -0.65625 0.3125q-0.359375 0.09375 -0.796875 0.09375q-0.5 0 -0.9375 -0.125q-0.421875 -0.125 -0.734375 -0.390625q-0.3125 -0.25 -0.5 -0.625q-0.1875 -0.390625 -0.21875 -0.921875l-1.875 0q0 0.828125 0.328125 1.46875q0.328125 0.625 0.875 1.09375q0.609375 0.5 1.421875 0.765625q0.8125 0.265625 1.640625 0.265625q0.796875 0 1.5 -0.203125q0.71875 -0.203125 1.25 -0.609375q0.53125 -0.375 0.84375 -0.953125q0.328125 -0.578125 0.328125 -1.34375q0 -0.8125 -0.375 -1.4375q-0.359375 -0.640625 -0.953125 -1.09375q-0.484375 -0.359375 -1.0625 -0.609375q-0.578125 -0.25 -1.171875 -0.421875q-0.484375 -0.140625 -0.921875 -0.296875q-0.421875 -0.171875 -0.765625 -0.390625q-0.328125 -0.21875 -0.53125 -0.515625q-0.1875 -0.296875 -0.1875 -0.6875q0 -0.359375 0.140625 -0.65625q0.15625 -0.296875 0.421875 -0.515625q0.265625 -0.203125 0.625 -0.3125q0.359375 -0.109375 0.796875 -0.109375q0.484375 0 0.859375 0.140625q0.390625 0.140625 0.65625 0.390625q0.25 0.265625 0.390625 0.625q0.15625 0.34375 0.1875 0.78125l1.859375 0q0 -0.78125 -0.3125 -1.40625q-0.296875 -0.640625 -0.828125 -1.109375q-0.53125 -0.453125 -1.25 -0.703125q-0.71875 -0.25 -1.546875 -0.25q-0.78125 0 -1.484375 0.21875q-0.703125 0.203125 -1.234375 0.609375q-0.53125 0.421875 -0.84375 1.0q-0.3125 0.578125 -0.3125 1.3125q0 0.671875 0.265625 1.203125q0.265625 0.53125 0.75 0.953125q0.46875 0.421875 1.140625 0.75q0.6875 0.328125 1.484375 0.5625q0.53125 0.140625 0.953125 0.328125q0.421875 0.1875 0.734375 0.40625q0.296875 0.25 0.453125 0.5625q0.171875 0.296875 0.171875 0.6875zm4.1484375 -5.515625l0 1.546875l2.609375 0l0 5.359375l-2.609375 0l0 1.546875l6.96875 0l0 -1.546875l-2.484375 0l0 -6.90625l-4.484375 0zm2.4375 -2.1875q0 0.296875 0.140625 0.515625q0.140625 0.21875 0.421875 0.3125q0.28125 0.078125 0.5 0.03125q0.234375 -0.046875 0.390625 -0.1875q0.328125 -0.09375 0.5 -0.34375q0.171875 -0.25 0.125 -0.59375q-0.046875 -0.34375 -0.3125 -0.546875q-0.25 -0.21875 -0.671875 -0.21875q-0.25 0 -0.453125 0.078125q-0.203125 0.0625 -0.34375 0.203125q-0.140625 0.140625 -0.21875 0.328125q-0.078125 0.1875 -0.078125 0.421875zm9.0859375 9.125l4.90625 -5.75l0 -1.1875l-7.3125 0l0 1.515625l4.765625 0l-4.859375 5.703125l0 1.234375l7.640625 0l0 -1.515625l-5.140625 0zm11.1953125 1.671875q1.234375 0 2.109375 -0.484375q0.875 -0.484375 1.296875 -1.09375l-1.0 -0.96875q-0.390625 0.5 -1.0 0.765625q-0.59375 0.265625 -1.296875 0.265625q-0.5 0 -0.9375 -0.171875q-0.421875 -0.171875 -0.734375 -0.484375q-0.3125 -0.296875 -0.5 -0.671875q-0.171875 -0.375 -0.25 -0.921875l0 -0.046875l5.859375 0l0 -0.796875q0 -0.90625 -0.25 -1.671875q-0.234375 -0.765625 -0.71875 -1.328125q-0.46875 -0.546875 -1.171875 -0.84375q-0.703125 -0.3125 -1.625 -0.3125q-0.8125 0 -1.546875 0.3125q-0.71875 0.296875 -1.265625 0.875q-0.546875 0.5625 -0.859375 1.375q-0.3125 0.796875 -0.3125 1.796875l0 0.3125q0 0.875 0.296875 1.625q0.3125 0.734375 0.859375 1.28125q0.5625 0.5625 1.328125 0.875q0.78125 0.3125 1.71875 0.3125zm-0.21875 -7.25q0.46875 0 0.8125 0.15625q0.359375 0.15625 0.59375 0.421875q0.25 0.28125 0.375 0.640625q0.140625 0.359375 0.140625 0.734375l0 0.125l-3.984375 0q0.09375 -0.484375 0.265625 -0.859375q0.1875 -0.390625 0.453125 -0.671875q0.265625 -0.265625 0.59375 -0.40625q0.34375 -0.140625 0.75 -0.140625zm13.5390625 2.15625l0 -1.5q0 -0.703125 -0.125 -1.359375q-0.125 -0.671875 -0.375 -1.25q-0.21875 -0.53125 -0.5625 -0.984375q-0.328125 -0.453125 -0.78125 -0.796875q-0.453125 -0.328125 -1.03125 -0.515625q-0.5625 -0.1875 -1.25 -0.1875q-0.671875 0 -1.234375 0.1875q-0.546875 0.171875 -0.984375 0.515625q-0.453125 0.34375 -0.796875 0.8125q-0.328125 0.453125 -0.546875 1.015625q-0.234375 0.578125 -0.359375 1.234375q-0.109375 0.640625 -0.109375 1.328125l0 1.5q0 0.671875 0.109375 1.296875q0.109375 0.625 0.328125 1.1875q0.21875 0.578125 0.5625 1.0625q0.34375 0.484375 0.796875 0.828125q0.4375 0.328125 1.0 0.53125q0.578125 0.1875 1.25 0.1875q0.65625 0 1.203125 -0.171875q0.5625 -0.1875 1.015625 -0.5q0.46875 -0.34375 0.828125 -0.828125q0.359375 -0.484375 0.59375 -1.046875q0.234375 -0.578125 0.34375 -1.21875q0.125 -0.640625 0.125 -1.328125zm-1.890625 -1.515625l0 1.515625q0 0.421875 -0.046875 0.84375q-0.046875 0.40625 -0.140625 0.78125q-0.109375 0.421875 -0.296875 0.78125q-0.171875 0.359375 -0.453125 0.609375q-0.234375 0.234375 -0.5625 0.375q-0.3125 0.125 -0.71875 0.125q-0.40625 0 -0.734375 -0.140625q-0.3125 -0.140625 -0.546875 -0.375q-0.25 -0.25 -0.4375 -0.609375q-0.171875 -0.359375 -0.265625 -0.78125q-0.09375 -0.375 -0.140625 -0.78125q-0.03125 -0.40625 -0.03125 -0.828125l0 -1.515625q0 -0.421875 0.03125 -0.828125q0.046875 -0.421875 0.140625 -0.796875q0.109375 -0.4375 0.296875 -0.796875q0.1875 -0.359375 0.453125 -0.609375q0.234375 -0.21875 0.53125 -0.328125q0.3125 -0.125 0.6875 -0.125q0.40625 0 0.71875 0.125q0.3125 0.125 0.546875 0.34375q0.28125 0.25 0.46875 0.609375q0.1875 0.34375 0.3125 0.78125q0.09375 0.375 0.140625 0.796875q0.046875 0.40625 0.046875 0.828125zm11.2578125 2.3125l0 -0.171875q0 -0.71875 -0.125 -1.359375q-0.125 -0.640625 -0.375 -1.15625q-0.1875 -0.375 -0.4375 -0.6875q-0.25 -0.328125 -0.5625 -0.546875q-0.359375 -0.265625 -0.828125 -0.40625q-0.453125 -0.140625 -1.0 -0.140625q-0.40625 0 -0.765625 0.078125q-0.359375 0.078125 -0.65625 0.25q-0.21875 0.125 -0.421875 0.296875q-0.1875 0.15625 -0.359375 0.359375l0 -4.375l-1.859375 0l0 12.0l1.6875 0l0.078125 -0.921875q0.140625 0.171875 0.296875 0.3125q0.15625 0.140625 0.328125 0.265625q0.328125 0.25 0.75 0.375q0.421875 0.125 0.9375 0.125q0.515625 0 0.9375 -0.140625q0.4375 -0.125 0.796875 -0.359375q0.4375 -0.28125 0.75 -0.71875q0.3125 -0.4375 0.5 -0.984375q0.15625 -0.453125 0.234375 -0.984375q0.09375 -0.53125 0.09375 -1.109375zm-1.859375 -0.171875l0 0.171875q0 0.34375 -0.046875 0.671875q-0.03125 0.328125 -0.109375 0.609375q-0.09375 0.375 -0.28125 0.6875q-0.171875 0.296875 -0.4375 0.484375q-0.203125 0.140625 -0.46875 0.234375q-0.25 0.078125 -0.578125 0.078125q-0.34375 0 -0.640625 -0.09375q-0.28125 -0.09375 -0.5 -0.25q-0.1875 -0.140625 -0.34375 -0.328125q-0.15625 -0.203125 -0.265625 -0.4375l0 -3.5q0.09375 -0.203125 0.21875 -0.375q0.140625 -0.171875 0.296875 -0.3125q0.234375 -0.1875 0.53125 -0.296875q0.3125 -0.109375 0.6875 -0.109375q0.3125 0 0.5625 0.078125q0.25 0.0625 0.453125 0.203125q0.296875 0.203125 0.46875 0.5q0.171875 0.296875 0.28125 0.65625q0.078125 0.296875 0.125 0.640625q0.046875 0.328125 0.046875 0.6875zm5.1953125 -4.140625l0 1.546875l2.421875 0l0 7.046875q0 0.484375 -0.140625 0.8125q-0.125 0.328125 -0.34375 0.53125q-0.234375 0.203125 -0.546875 0.28125q-0.3125 0.09375 -0.65625 0.09375q-0.09375 0 -0.265625 -0.015625q-0.171875 0 -0.359375 -0.015625q-0.203125 0 -0.390625 -0.03125q-0.171875 -0.015625 -0.28125 -0.03125l-0.109375 1.515625q0.171875 0.03125 0.328125 0.046875q0.15625 0.03125 0.3125 0.046875q0.21875 0.03125 0.421875 0.03125q0.21875 0.015625 0.4375 0.015625q0.828125 0 1.46875 -0.203125q0.640625 -0.203125 1.09375 -0.609375q0.4375 -0.40625 0.671875 -1.03125q0.234375 -0.609375 0.234375 -1.4375l0 -8.59375l-4.296875 0zm2.25 -2.1875q0 0.4375 0.28125 0.734375q0.296875 0.28125 0.796875 0.28125q0.53125 0 0.8125 -0.28125q0.296875 -0.296875 0.296875 -0.734375q0 -0.453125 -0.296875 -0.734375q-0.28125 -0.296875 -0.8125 -0.296875q-0.515625 0 -0.796875 0.296875q-0.28125 0.296875 -0.28125 0.734375zm10.1328125 10.796875q1.234375 0 2.109375 -0.484375q0.875 -0.484375 1.296875 -1.09375l-1.0 -0.96875q-0.390625 0.5 -1.0 0.765625q-0.59375 0.265625 -1.296875 0.265625q-0.5 0 -0.9375 -0.171875q-0.421875 -0.171875 -0.734375 -0.484375q-0.3125 -0.296875 -0.5 -0.671875q-0.171875 -0.375 -0.25 -0.921875l0 -0.046875l5.859375 0l0 -0.796875q0 -0.90625 -0.25 -1.671875q-0.234375 -0.765625 -0.71875 -1.328125q-0.46875 -0.546875 -1.171875 -0.84375q-0.703125 -0.3125 -1.625 -0.3125q-0.8125 0 -1.546875 0.3125q-0.71875 0.296875 -1.265625 0.875q-0.546875 0.5625 -0.859375 1.375q-0.3125 0.796875 -0.3125 1.796875l0 0.3125q0 0.875 0.296875 1.625q0.3125 0.734375 0.859375 1.28125q0.5625 0.5625 1.328125 0.875q0.78125 0.3125 1.71875 0.3125zm-0.21875 -7.25q0.46875 0 0.8125 0.15625q0.359375 0.15625 0.59375 0.421875q0.25 0.28125 0.375 0.640625q0.140625 0.359375 0.140625 0.734375l0 0.125l-3.984375 0q0.09375 -0.484375 0.265625 -0.859375q0.1875 -0.390625 0.453125 -0.671875q0.265625 -0.265625 0.59375 -0.40625q0.34375 -0.140625 0.75 -0.140625zm9.5546875 5.75q-0.578125 0 -0.96875 -0.234375q-0.390625 -0.234375 -0.625 -0.625q-0.234375 -0.375 -0.328125 -0.875q-0.09375 -0.5 -0.09375 -1.015625l0 -0.265625q0 -0.515625 0.09375 -1.0q0.09375 -0.5 0.34375 -0.875q0.21875 -0.390625 0.609375 -0.625q0.390625 -0.234375 0.96875 -0.234375q0.390625 0 0.71875 0.140625q0.328125 0.125 0.578125 0.34375q0.234375 0.234375 0.359375 0.546875q0.125 0.296875 0.125 0.640625l1.765625 0q0 -0.703125 -0.265625 -1.28125q-0.25 -0.59375 -0.71875 -1.015625q-0.46875 -0.421875 -1.125 -0.65625q-0.65625 -0.234375 -1.421875 -0.234375q-0.96875 0 -1.703125 0.34375q-0.71875 0.328125 -1.21875 0.90625q-0.484375 0.578125 -0.734375 1.359375q-0.25 0.765625 -0.25 1.640625l0 0.265625q0 0.875 0.25 1.65625q0.25 0.765625 0.75 1.34375q0.484375 0.578125 1.203125 0.921875q0.734375 0.34375 1.71875 0.34375q0.703125 0 1.328125 -0.234375q0.640625 -0.234375 1.140625 -0.640625q0.484375 -0.390625 0.765625 -0.9375q0.28125 -0.546875 0.28125 -1.15625l-1.765625 0q0 0.3125 -0.140625 0.578125q-0.140625 0.265625 -0.390625 0.46875q-0.25 0.1875 -0.578125 0.296875q-0.3125 0.109375 -0.671875 0.109375zm9.6796875 -9.171875l-1.875 0l0 2.0625l-2.046875 0l0 1.390625l2.046875 0l0 4.15625q0 0.8125 0.203125 1.390625q0.21875 0.578125 0.609375 0.953125q0.375 0.375 0.90625 0.5625q0.546875 0.171875 1.1875 0.171875q0.34375 0 0.703125 -0.046875q0.359375 -0.03125 0.6875 -0.09375q0.328125 -0.0625 0.609375 -0.15625q0.28125 -0.09375 0.484375 -0.21875l-0.203125 -1.28125q-0.140625 0.03125 -0.34375 0.078125q-0.203125 0.03125 -0.4375 0.0625q-0.25 0.046875 -0.515625 0.078125q-0.25 0.015625 -0.484375 0.015625q-0.34375 0 -0.625 -0.078125q-0.28125 -0.078125 -0.484375 -0.265625q-0.203125 -0.1875 -0.3125 -0.5q-0.109375 -0.3125 -0.109375 -0.78125l0 -4.046875l3.171875 0l0 -1.390625l-3.171875 0l0 -2.0625zm7.8203125 6.171875l1.921875 0q0.859375 0 1.578125 -0.25q0.734375 -0.25 1.25 -0.703125q0.53125 -0.453125 0.8125 -1.09375q0.296875 -0.640625 0.296875 -1.421875q0 -0.828125 -0.296875 -1.484375q-0.28125 -0.65625 -0.8125 -1.109375q-0.515625 -0.46875 -1.25 -0.71875q-0.71875 -0.25 -1.578125 -0.25l-3.796875 0l0 11.375l1.875 0l0 -4.34375zm0 -1.53125l0 -3.96875l1.921875 0q0.484375 0 0.859375 0.15625q0.375 0.140625 0.640625 0.421875q0.265625 0.265625 0.40625 0.640625q0.140625 0.375 0.140625 0.828125q0 0.40625 -0.140625 0.765625q-0.140625 0.34375 -0.40625 0.609375q-0.265625 0.25 -0.640625 0.40625q-0.375 0.140625 -0.859375 0.140625l-1.921875 0zm7.2890625 1.5625l0 0.171875q0 0.921875 0.265625 1.703125q0.265625 0.78125 0.765625 1.359375q0.5 0.578125 1.234375 0.921875q0.734375 0.328125 1.671875 0.328125q0.921875 0 1.640625 -0.328125q0.734375 -0.34375 1.234375 -0.921875q0.5 -0.578125 0.765625 -1.359375q0.265625 -0.78125 0.265625 -1.703125l0 -0.171875q0 -0.921875 -0.265625 -1.703125q-0.265625 -0.78125 -0.765625 -1.359375q-0.5 -0.578125 -1.234375 -0.90625q-0.734375 -0.328125 -1.65625 -0.328125q-0.9375 0 -1.671875 0.328125q-0.71875 0.328125 -1.21875 0.90625q-0.5 0.578125 -0.765625 1.359375q-0.265625 0.78125 -0.265625 1.703125zm1.859375 0.171875l0 -0.171875q0 -0.546875 0.125 -1.046875q0.125 -0.515625 0.375 -0.90625q0.25 -0.375 0.640625 -0.59375q0.390625 -0.234375 0.921875 -0.234375q0.53125 0 0.921875 0.234375q0.390625 0.21875 0.640625 0.59375q0.25 0.390625 0.375 0.90625q0.125 0.5 0.125 1.046875l0 0.171875q0 0.5625 -0.125 1.078125q-0.125 0.5 -0.375 0.890625q-0.25 0.375 -0.640625 0.609375q-0.390625 0.21875 -0.90625 0.21875q-0.546875 0 -0.9375 -0.21875q-0.390625 -0.234375 -0.640625 -0.609375q-0.25 -0.390625 -0.375 -0.890625q-0.125 -0.515625 -0.125 -1.078125zm7.7421875 -0.171875l0 0.171875q0 0.921875 0.265625 1.703125q0.265625 0.78125 0.765625 1.359375q0.5 0.578125 1.234375 0.921875q0.734375 0.328125 1.671875 0.328125q0.921875 0 1.640625 -0.328125q0.734375 -0.34375 1.234375 -0.921875q0.5 -0.578125 0.765625 -1.359375q0.265625 -0.78125 0.265625 -1.703125l0 -0.171875q0 -0.921875 -0.265625 -1.703125q-0.265625 -0.78125 -0.765625 -1.359375q-0.5 -0.578125 -1.234375 -0.90625q-0.734375 -0.328125 -1.65625 -0.328125q-0.9375 0 -1.671875 0.328125q-0.71875 0.328125 -1.21875 0.90625q-0.5 0.578125 -0.765625 1.359375q-0.265625 0.78125 -0.265625 1.703125zm1.859375 0.171875l0 -0.171875q0 -0.546875 0.125 -1.046875q0.125 -0.515625 0.375 -0.90625q0.25 -0.375 0.640625 -0.59375q0.390625 -0.234375 0.921875 -0.234375q0.53125 0 0.921875 0.234375q0.390625 0.21875 0.640625 0.59375q0.25 0.390625 0.375 0.90625q0.125 0.5 0.125 1.046875l0 0.171875q0 0.5625 -0.125 1.078125q-0.125 0.5 -0.375 0.890625q-0.25 0.375 -0.640625 0.609375q-0.390625 0.21875 -0.90625 0.21875q-0.546875 0 -0.9375 -0.21875q-0.390625 -0.234375 -0.640625 -0.609375q-0.25 -0.390625 -0.375 -0.890625q-0.125 -0.515625 -0.125 -1.078125zm8.4453125 -7.859375l0 1.546875l2.671875 0l0 8.90625l-2.671875 0l0 1.546875l7.109375 0l0 -1.546875l-2.5625 0l0 -10.453125l-4.546875 0z" fill-rule="nonzero"/><path fill="#ffffff" d="m242.0105 147.98425l151.1181 0l0 27.496063l-151.1181 0z" fill-rule="evenodd"/><path stroke="#000000" stroke-width="2.0" stroke-linejoin="round" stroke-linecap="butt" d="m242.0105 147.98425l151.1181 0l0 27.496063l-151.1181 0z" fill-rule="evenodd"/><path fill="#ffffff" d="m393.1286 147.98425l151.1181 0l0 27.496063l-151.1181 0z" fill-rule="evenodd"/><path stroke="#000000" stroke-width="2.0" stroke-linejoin="round" stroke-linecap="butt" d="m393.1286 147.98425l151.1181 0l0 27.496063l-151.1181 0z" fill-rule="evenodd"/><path fill="#cccccc" d="m393.1286 147.98425l56.126007 0l0 27.496063l-56.126007 0z" fill-rule="evenodd"/><path stroke="#000000" stroke-width="2.0" stroke-linejoin="round" stroke-linecap="butt" d="m393.1286 147.98425l56.126007 0l0 27.496063l-56.126007 0z" fill-rule="evenodd"/><path fill="#ffffff" d="m544.2467 147.98425l151.1181 0l0 27.496063l-151.1181 0z" fill-rule="evenodd"/><path stroke="#000000" stroke-width="2.0" stroke-linejoin="round" stroke-linecap="butt" d="m544.2467 147.98425l151.1181 0l0 27.496063l-151.1181 0z" fill-rule="evenodd"/><path fill="#cccccc" d="m544.2467 147.98425l56.125977 0l0 27.496063l-56.125977 0z" fill-rule="evenodd"/><path stroke="#000000" stroke-width="2.0" stroke-linejoin="round" stroke-linecap="butt" d="m544.2467 147.98425l56.125977 0l0 27.496063l-56.125977 0z" fill-rule="evenodd"/><path fill="#000000" fill-opacity="0.0" d="m695.2703 117.968506l-122.2677 0.37795258" fill-rule="evenodd"/><path stroke="#000000" stroke-width="2.0" stroke-linejoin="round" stroke-linecap="butt" d="m695.2703 117.968506l-122.2677 0.37795258" fill-rule="evenodd"/><path fill="#000000" fill-opacity="0.0" d="m572.1522 165.9685l0.3149414 -48.0" fill-rule="evenodd"/><path stroke="#000000" stroke-width="2.0" stroke-linejoin="round" stroke-linecap="butt" d="m572.20197 158.38867l0.26519775 -40.420166" fill-rule="evenodd"/><path fill="#000000" stroke="#000000" stroke-width="2.0" stroke-linecap="butt" d="m572.1588 164.96852c-1.8170166 -0.011917114 -3.2802734 -1.4945374 -3.2683716 -3.3115082c0.0119018555 -1.8169861 1.4945679 -3.2802734 3.3115234 -3.268341c1.8169556 0.011917114 3.2802734 1.4945374 3.2683716 3.3115082c-0.011962891 1.8169861 -1.4945679 3.2802734 -3.3115234 3.268341z" fill-rule="nonzero"/><path fill="#000000" fill-opacity="0.0" d="m695.4593 147.98425l-0.18896484 -30.015747" fill-rule="evenodd"/><path stroke="#000000" stroke-width="2.0" stroke-linejoin="round" stroke-linecap="butt" d="m695.3838 135.98448l-0.113464355 -18.015976" fill-rule="evenodd"/><path fill="#000000" stroke="#000000" stroke-width="2.0" stroke-linecap="butt" d="m692.0804 136.0053l3.3605347 9.055206l3.2462769 -9.096802z" fill-rule="evenodd"/><path fill="#000000" fill-opacity="0.0" d="m68.58793 58.984253l71.1811 0l0 35.55905l-71.1811 0z" fill-rule="evenodd"/><path fill="#000000" d="m79.47855 73.73737l-1.34375 0l0 7.046875l1.421875 0l0 -5.40625q0.046875 -0.09375 0.09375 -0.171875q0.046875 -0.078125 0.109375 -0.140625q0.09375 -0.09375 0.203125 -0.125q0.125 -0.046875 0.28125 -0.046875q0.140625 0 0.25 0.046875q0.125 0.03125 0.203125 0.109375q0.09375 0.09375 0.125 0.25q0.046875 0.140625 0.046875 0.34375l0 5.140625l1.40625 0l0 -5.21875q0 -0.078125 0 -0.109375q0 -0.03125 0 -0.0625q0.03125 -0.109375 0.078125 -0.1875q0.046875 -0.09375 0.125 -0.15625q0.09375 -0.078125 0.203125 -0.109375q0.109375 -0.046875 0.25 -0.046875q0.15625 0 0.265625 0.046875q0.125 0.03125 0.203125 0.109375q0.09375 0.09375 0.140625 0.25q0.046875 0.140625 0.046875 0.34375l0 5.140625l1.421875 0l0 -5.125q0 -0.546875 -0.109375 -0.9375q-0.109375 -0.40625 -0.328125 -0.640625q-0.203125 -0.234375 -0.484375 -0.34375q-0.28125 -0.125 -0.625 -0.125q-0.265625 0 -0.484375 0.0625q-0.203125 0.0625 -0.390625 0.1875q-0.125 0.09375 -0.25 0.21875q-0.109375 0.125 -0.203125 0.28125q-0.0625 -0.171875 -0.15625 -0.296875q-0.09375 -0.125 -0.21875 -0.21875q-0.140625 -0.109375 -0.359375 -0.171875q-0.203125 -0.0625 -0.46875 -0.0625q-0.5 0 -0.859375 0.25q-0.34375 0.234375 -0.546875 0.65625l-0.046875 -0.78125zm13.045059 8.28125l0 -1.234375l-5.953125 0l0 1.234375l5.953125 0zm3.8419342 -1.234375l1.5625 0l0 -5.875l2.609375 0l0 -1.171875l-2.609375 0l0 -0.421875q0 -0.375 0.09375 -0.65625q0.09375 -0.28125 0.28125 -0.46875q0.203125 -0.203125 0.515625 -0.296875q0.3125 -0.109375 0.75 -0.109375q0.421875 0 0.75 0.0625q0.328125 0.046875 0.59375 0.109375l0.109375 -1.234375q-0.1875 -0.046875 -0.375 -0.078125q-0.1875 -0.03125 -0.375 -0.0625q-0.21875 -0.03125 -0.453125 -0.046875q-0.234375 -0.03125 -0.46875 -0.03125q-0.6875 0 -1.234375 0.1875q-0.546875 0.171875 -0.9375 0.53125q-0.390625 0.359375 -0.609375 0.890625q-0.203125 0.515625 -0.203125 1.203125l0 0.421875l-1.890625 0l0 1.171875l1.890625 0l0 5.875zm11.091934 -7.171875q-0.734375 0 -1.34375 0.34375q-0.59375 0.328125 -1.015625 0.921875l-0.015625 -0.15625l-0.0625 -0.984375l-1.453125 0l0 7.046875l1.5625 0l0 -4.34375q0.109375 -0.3125 0.296875 -0.546875q0.1875 -0.25 0.4375 -0.40625q0.25 -0.15625 0.5625 -0.234375q0.3125 -0.078125 0.703125 -0.078125q0.34375 0 0.6875 0.046875q0.359375 0.03125 0.703125 0.109375l0.234375 -1.546875q-0.203125 -0.0625 -0.5625 -0.109375q-0.359375 -0.0625 -0.734375 -0.0625zm6.420059 7.296875q1.03125 0 1.75 -0.390625q0.734375 -0.40625 1.078125 -0.921875l-0.828125 -0.796875q-0.328125 0.40625 -0.828125 0.640625q-0.5 0.21875 -1.078125 0.21875q-0.421875 0 -0.78125 -0.140625q-0.359375 -0.140625 -0.609375 -0.40625q-0.265625 -0.25 -0.421875 -0.5625q-0.140625 -0.3125 -0.21875 -0.765625l0 -0.046875l4.890625 0l0 -0.65625q0 -0.765625 -0.203125 -1.390625q-0.203125 -0.640625 -0.609375 -1.109375q-0.390625 -0.453125 -0.984375 -0.703125q-0.578125 -0.265625 -1.34375 -0.265625q-0.6875 0 -1.296875 0.265625q-0.59375 0.25 -1.046875 0.71875q-0.453125 0.484375 -0.71875 1.15625q-0.25 0.671875 -0.25 1.484375l0 0.265625q0 0.734375 0.25 1.359375q0.25 0.609375 0.703125 1.0625q0.46875 0.46875 1.109375 0.734375q0.65625 0.25 1.4375 0.25zm-0.1875 -6.03125q0.390625 0 0.6875 0.140625q0.296875 0.125 0.484375 0.34375q0.203125 0.234375 0.3125 0.53125q0.109375 0.296875 0.109375 0.609375l0 0.109375l-3.3125 0q0.078125 -0.40625 0.21875 -0.71875q0.15625 -0.328125 0.375 -0.5625q0.21875 -0.21875 0.5 -0.328125q0.296875 -0.125 0.625 -0.125zm8.185684 6.03125q1.03125 0 1.75 -0.390625q0.734375 -0.40625 1.078125 -0.921875l-0.828125 -0.796875q-0.328125 0.40625 -0.828125 0.640625q-0.5 0.21875 -1.078125 0.21875q-0.421875 0 -0.78125 -0.140625q-0.359375 -0.140625 -0.609375 -0.40625q-0.265625 -0.25 -0.421875 -0.5625q-0.140625 -0.3125 -0.21875 -0.765625l0 -0.046875l4.890625 0l0 -0.65625q0 -0.765625 -0.203125 -1.390625q-0.203125 -0.640625 -0.609375 -1.109375q-0.390625 -0.453125 -0.984375 -0.703125q-0.578125 -0.265625 -1.34375 -0.265625q-0.6875 0 -1.296875 0.265625q-0.59375 0.25 -1.046875 0.71875q-0.453125 0.484375 -0.71875 1.15625q-0.25 0.671875 -0.25 1.484375l0 0.265625q0 0.734375 0.25 1.359375q0.25 0.609375 0.703125 1.0625q0.46875 0.46875 1.109375 0.734375q0.65625 0.25 1.4375 0.25zm-0.1875 -6.03125q0.390625 0 0.6875 0.140625q0.296875 0.125 0.484375 0.34375q0.203125 0.234375 0.3125 0.53125q0.109375 0.296875 0.109375 0.609375l0 0.109375l-3.3125 0q0.078125 -0.40625 0.21875 -0.71875q0.15625 -0.328125 0.375 -0.5625q0.21875 -0.21875 0.5 -0.328125q0.296875 -0.125 0.625 -0.125z" fill-rule="nonzero"/><path fill="#000000" fill-opacity="0.0" d="m544.05774 117.968506l-122.2677 0.37795258" fill-rule="evenodd"/><path stroke="#000000" stroke-width="2.0" stroke-linejoin="round" stroke-linecap="butt" d="m544.05774 117.968506l-122.2677 0.37795258" fill-rule="evenodd"/><path fill="#000000" fill-opacity="0.0" d="m420.93964 165.9685l0.31497192 -48.0" fill-rule="evenodd"/><path stroke="#000000" stroke-width="2.0" stroke-linejoin="round" stroke-linecap="butt" d="m420.98938 158.38867l0.26522827 -40.420166" fill-rule="evenodd"/><path fill="#000000" stroke="#000000" stroke-width="2.0" stroke-linecap="butt" d="m420.9462 164.96852c-1.8169861 -0.011917114 -3.2802734 -1.4945374 -3.268341 -3.3115082c0.011932373 -1.8169861 1.4945374 -3.2802734 3.3115234 -3.268341c1.8169556 0.011917114 3.280243 1.4945374 3.268341 3.3115082c-0.011932373 1.8169861 -1.4945374 3.2802734 -3.3115234 3.268341z" fill-rule="nonzero"/><path fill="#000000" fill-opacity="0.0" d="m544.2467 147.98425l-0.18896484 -30.015747" fill-rule="evenodd"/><path stroke="#000000" stroke-width="2.0" stroke-linejoin="round" stroke-linecap="butt" d="m544.1712 135.98448l-0.113464355 -18.015976" fill-rule="evenodd"/><path fill="#000000" stroke="#000000" stroke-width="2.0" stroke-linecap="butt" d="m540.8678 136.0053l3.3605347 9.055206l3.2462158 -9.096802z" fill-rule="evenodd"/><path fill="#000000" fill-opacity="0.0" d="m383.2861 172.7126l71.18109 0l0 35.55905l-71.18109 0z" fill-rule="evenodd"/><path fill="#000000" d="m399.37985 190.90323l0 -2.25q0 -0.90625 -0.21875 -1.609375q-0.21875 -0.703125 -0.609375 -1.1875q-0.40625 -0.46875 -0.984375 -0.703125q-0.5625 -0.25 -1.28125 -0.25q-0.71875 0 -1.296875 0.25q-0.5625 0.234375 -0.953125 0.703125q-0.390625 0.484375 -0.609375 1.1875q-0.203125 0.703125 -0.203125 1.609375l0 2.25q0 0.90625 0.203125 1.609375q0.21875 0.703125 0.609375 1.171875q0.40625 0.484375 0.96875 0.734375q0.578125 0.234375 1.296875 0.234375q0.71875 0 1.28125 -0.234375q0.578125 -0.25 0.96875 -0.734375q0.40625 -0.46875 0.609375 -1.171875q0.21875 -0.703125 0.21875 -1.609375zm-4.59375 -0.5625q0 -0.1875 0 -0.3125q0 -0.125 0 -0.375l0 -1.28125q0 -0.578125 0.09375 -1.015625q0.109375 -0.4375 0.328125 -0.703125q0.171875 -0.25 0.4375 -0.359375q0.28125 -0.125 0.640625 -0.125q0.328125 0 0.59375 0.109375q0.265625 0.09375 0.453125 0.296875q0.203125 0.234375 0.3125 0.609375q0.125 0.375 0.140625 0.875l-3.0 2.28125zm3.015625 0.828125q0 0.59375 -0.109375 1.03125q-0.109375 0.4375 -0.3125 0.71875q-0.1875 0.234375 -0.46875 0.359375q-0.265625 0.109375 -0.609375 0.109375q-0.359375 0 -0.625 -0.109375q-0.265625 -0.125 -0.453125 -0.375q-0.1875 -0.234375 -0.296875 -0.578125q-0.109375 -0.34375 -0.140625 -0.796875l3.015625 -2.265625q0 0.1875 0 0.359375q0 0.171875 0 0.34375l0 1.203125zm6.576294 -1.328125l-1.65625 -2.375l-1.71875 0l2.46875 3.46875l-2.546875 3.578125l1.71875 0l1.75 -2.453125l1.765625 2.453125l1.71875 0l-2.5625 -3.578125l2.484375 -3.46875l-1.734375 0l-1.6875 2.375zm9.123199 4.671875l0 -9.46875l-0.09375 0l-3.90625 1.4375l0 1.375l2.4375 -0.890625l0 7.546875l1.5625 0zm9.873169 -3.609375l0 -2.25q0 -0.90625 -0.21875 -1.609375q-0.21875 -0.703125 -0.609375 -1.1875q-0.40625 -0.46875 -0.984375 -0.703125q-0.5625 -0.25 -1.28125 -0.25q-0.71875 0 -1.296875 0.25q-0.5625 0.234375 -0.953125 0.703125q-0.390625 0.484375 -0.609375 1.1875q-0.203125 0.703125 -0.203125 1.609375l0 2.25q0 0.90625 0.203125 1.609375q0.21875 0.703125 0.609375 1.171875q0.40625 0.484375 0.96875 0.734375q0.578125 0.234375 1.296875 0.234375q0.71875 0 1.28125 -0.234375q0.578125 -0.25 0.96875 -0.734375q0.40625 -0.46875 0.609375 -1.171875q0.21875 -0.703125 0.21875 -1.609375zm-4.59375 -0.5625q0 -0.1875 0 -0.3125q0 -0.125 0 -0.375l0 -1.28125q0 -0.578125 0.09375 -1.015625q0.109375 -0.4375 0.328125 -0.703125q0.171875 -0.25 0.4375 -0.359375q0.28125 -0.125 0.640625 -0.125q0.328125 0 0.59375 0.109375q0.265625 0.09375 0.453125 0.296875q0.203125 0.234375 0.3125 0.609375q0.125 0.375 0.140625 0.875l-3.0 2.28125zm3.015625 0.828125q0 0.59375 -0.109375 1.03125q-0.109375 0.4375 -0.3125 0.71875q-0.1875 0.234375 -0.46875 0.359375q-0.265625 0.109375 -0.609375 0.109375q-0.359375 0 -0.625 -0.109375q-0.265625 -0.125 -0.453125 -0.375q-0.1875 -0.234375 -0.296875 -0.578125q-0.109375 -0.34375 -0.140625 -0.796875l3.015625 -2.265625q0 0.1875 0 0.359375q0 0.171875 0 0.34375l0 1.203125zm8.138824 -6.171875l-0.1875 0q-1.109375 0 -1.96875 0.34375q-0.84375 0.34375 -1.4375 0.984375q-0.6875 0.75 -0.984375 1.796875q-0.296875 1.03125 -0.296875 2.171875l0 0.640625q0 0.765625 0.21875 1.453125q0.21875 0.6875 0.65625 1.1875q0.40625 0.5 0.984375 0.78125q0.59375 0.28125 1.328125 0.28125q0.734375 0 1.296875 -0.25q0.578125 -0.25 0.96875 -0.6875q0.390625 -0.4375 0.59375 -1.015625q0.21875 -0.59375 0.21875 -1.28125q0 -0.609375 -0.171875 -1.1875q-0.15625 -0.578125 -0.484375 -1.015625q-0.34375 -0.4375 -0.859375 -0.703125q-0.5 -0.265625 -1.1875 -0.265625q-0.328125 0 -0.625 0.078125q-0.296875 0.078125 -0.53125 0.203125q-0.25 0.125 -0.46875 0.296875q-0.203125 0.171875 -0.359375 0.34375q0.0625 -0.609375 0.265625 -1.125q0.21875 -0.53125 0.625 -0.921875q0.390625 -0.375 0.953125 -0.578125q0.578125 -0.21875 1.34375 -0.21875l0.109375 0l0 -1.3125zm-1.703125 4.5q0.375 0 0.65625 0.15625q0.296875 0.15625 0.5 0.421875q0.1875 0.265625 0.28125 0.625q0.109375 0.34375 0.109375 0.75q0 0.40625 -0.109375 0.765625q-0.09375 0.359375 -0.296875 0.625q-0.203125 0.25 -0.484375 0.40625q-0.28125 0.140625 -0.65625 0.140625q-0.328125 0 -0.625 -0.15625q-0.28125 -0.15625 -0.515625 -0.4375q-0.21875 -0.28125 -0.34375 -0.703125q-0.125 -0.4375 -0.125 -1.0l0 -0.484375q0.109375 -0.25 0.265625 -0.4375q0.15625 -0.203125 0.34375 -0.34375q0.21875 -0.15625 0.46875 -0.234375q0.25 -0.09375 0.53125 -0.09375zm10.170044 1.640625l0 -6.09375l-1.609375 0l-4.09375 6.390625l0.046875 0.96875l4.09375 0l0 2.109375l1.5625 0l0 -2.109375l1.1875 0l0 -1.265625l-1.1875 0zm-4.109375 0l2.375 -3.671875l0.171875 -0.34375l0 4.015625l-2.546875 0z" fill-rule="nonzero"/><path fill="#000000" fill-opacity="0.0" d="m535.2493 172.7126l71.18109 0l0 35.55905l-71.18109 0z" fill-rule="evenodd"/><path fill="#000000" d="m551.3431 190.90323l0 -2.25q0 -0.90625 -0.21875 -1.609375q-0.21875 -0.703125 -0.609375 -1.1875q-0.40625 -0.46875 -0.984375 -0.703125q-0.5625 -0.25 -1.28125 -0.25q-0.71875 0 -1.296875 0.25q-0.5625 0.234375 -0.953125 0.703125q-0.390625 0.484375 -0.609375 1.1875q-0.203125 0.703125 -0.203125 1.609375l0 2.25q0 0.90625 0.203125 1.609375q0.21875 0.703125 0.609375 1.171875q0.40625 0.484375 0.96875 0.734375q0.578125 0.234375 1.296875 0.234375q0.71875 0 1.28125 -0.234375q0.578125 -0.25 0.96875 -0.734375q0.40625 -0.46875 0.609375 -1.171875q0.21875 -0.703125 0.21875 -1.609375zm-4.59375 -0.5625q0 -0.1875 0 -0.3125q0 -0.125 0 -0.375l0 -1.28125q0 -0.578125 0.09375 -1.015625q0.109375 -0.4375 0.328125 -0.703125q0.171875 -0.25 0.4375 -0.359375q0.28125 -0.125 0.640625 -0.125q0.328125 0 0.59375 0.109375q0.265625 0.09375 0.453125 0.296875q0.203125 0.234375 0.3125 0.609375q0.125 0.375 0.140625 0.875l-3.0 2.28125zm3.015625 0.828125q0 0.59375 -0.109375 1.03125q-0.109375 0.4375 -0.3125 0.71875q-0.1875 0.234375 -0.46875 0.359375q-0.265625 0.109375 -0.609375 0.109375q-0.359375 0 -0.625 -0.109375q-0.265625 -0.125 -0.453125 -0.375q-0.1875 -0.234375 -0.296875 -0.578125q-0.109375 -0.34375 -0.140625 -0.796875l3.015625 -2.265625q0 0.1875 0 0.359375q0 0.171875 0 0.34375l0 1.203125zm6.576294 -1.328125l-1.65625 -2.375l-1.71875 0l2.46875 3.46875l-2.546875 3.578125l1.71875 0l1.75 -2.453125l1.765625 2.453125l1.71875 0l-2.5625 -3.578125l2.484375 -3.46875l-1.734375 0l-1.6875 2.375zm9.12323 4.671875l0 -9.46875l-0.09375 0l-3.90625 1.4375l0 1.375l2.4375 -0.890625l0 7.546875l1.5625 0zm9.873169 -3.609375l0 -2.25q0 -0.90625 -0.21875 -1.609375q-0.21875 -0.703125 -0.609375 -1.1875q-0.40625 -0.46875 -0.984375 -0.703125q-0.5625 -0.25 -1.28125 -0.25q-0.71875 0 -1.296875 0.25q-0.5625 0.234375 -0.953125 0.703125q-0.390625 0.484375 -0.609375 1.1875q-0.203125 0.703125 -0.203125 1.609375l0 2.25q0 0.90625 0.203125 1.609375q0.21875 0.703125 0.609375 1.171875q0.40625 0.484375 0.96875 0.734375q0.578125 0.234375 1.296875 0.234375q0.71875 0 1.28125 -0.234375q0.578125 -0.25 0.96875 -0.734375q0.40625 -0.46875 0.609375 -1.171875q0.21875 -0.703125 0.21875 -1.609375zm-4.59375 -0.5625q0 -0.1875 0 -0.3125q0 -0.125 0 -0.375l0 -1.28125q0 -0.578125 0.09375 -1.015625q0.109375 -0.4375 0.328125 -0.703125q0.171875 -0.25 0.4375 -0.359375q0.28125 -0.125 0.640625 -0.125q0.328125 0 0.59375 0.109375q0.265625 0.09375 0.453125 0.296875q0.203125 0.234375 0.3125 0.609375q0.125 0.375 0.140625 0.875l-3.0 2.28125zm3.015625 0.828125q0 0.59375 -0.109375 1.03125q-0.109375 0.4375 -0.3125 0.71875q-0.1875 0.234375 -0.46875 0.359375q-0.265625 0.109375 -0.609375 0.109375q-0.359375 0 -0.625 -0.109375q-0.265625 -0.125 -0.453125 -0.375q-0.1875 -0.234375 -0.296875 -0.578125q-0.109375 -0.34375 -0.140625 -0.796875l3.015625 -2.265625q0 0.1875 0 0.359375q0 0.171875 0 0.34375l0 1.203125zm9.388794 -3.625q0 -0.640625 -0.21875 -1.125q-0.21875 -0.5 -0.609375 -0.828125q-0.390625 -0.34375 -0.921875 -0.515625q-0.53125 -0.171875 -1.15625 -0.171875q-0.640625 0 -1.171875 0.171875q-0.53125 0.171875 -0.90625 0.515625q-0.375 0.34375 -0.59375 0.828125q-0.21875 0.484375 -0.21875 1.125q0 0.34375 0.09375 0.671875q0.09375 0.3125 0.28125 0.578125q0.15625 0.265625 0.40625 0.484375q0.25 0.203125 0.546875 0.359375q-0.359375 0.15625 -0.640625 0.390625q-0.28125 0.234375 -0.484375 0.515625q-0.203125 0.296875 -0.3125 0.65625q-0.109375 0.34375 -0.109375 0.734375q0 0.671875 0.234375 1.171875q0.25 0.5 0.671875 0.84375q0.421875 0.34375 0.984375 0.515625q0.5625 0.171875 1.234375 0.171875q0.65625 0 1.21875 -0.171875q0.5625 -0.171875 0.984375 -0.515625q0.40625 -0.34375 0.640625 -0.84375q0.25 -0.515625 0.25 -1.171875q0 -0.46875 -0.15625 -0.859375q-0.140625 -0.390625 -0.40625 -0.703125q-0.1875 -0.234375 -0.4375 -0.40625q-0.25 -0.1875 -0.546875 -0.328125q0.25 -0.125 0.453125 -0.28125q0.203125 -0.171875 0.359375 -0.359375q0.25 -0.296875 0.390625 -0.65625q0.140625 -0.375 0.140625 -0.796875zm-1.34375 4.3125q0 0.359375 -0.125 0.640625q-0.109375 0.28125 -0.3125 0.484375q-0.203125 0.203125 -0.484375 0.3125q-0.28125 0.09375 -0.625 0.09375q-0.359375 0 -0.640625 -0.09375q-0.28125 -0.109375 -0.484375 -0.296875q-0.203125 -0.203125 -0.328125 -0.484375q-0.109375 -0.296875 -0.109375 -0.65625q0 -0.359375 0.109375 -0.640625q0.109375 -0.296875 0.3125 -0.515625q0.203125 -0.203125 0.484375 -0.3125q0.28125 -0.109375 0.640625 -0.109375q0.34375 0 0.625 0.109375q0.296875 0.109375 0.5 0.3125q0.203125 0.21875 0.3125 0.515625q0.125 0.28125 0.125 0.640625zm-0.203125 -4.265625q0 0.328125 -0.109375 0.59375q-0.09375 0.25 -0.265625 0.4375q-0.171875 0.1875 -0.421875 0.296875q-0.25 0.09375 -0.546875 0.09375q-0.3125 0 -0.5625 -0.09375q-0.25 -0.109375 -0.421875 -0.296875q-0.1875 -0.1875 -0.28125 -0.4375q-0.078125 -0.265625 -0.078125 -0.59375q0 -0.328125 0.078125 -0.59375q0.09375 -0.265625 0.265625 -0.4375q0.1875 -0.1875 0.421875 -0.28125q0.25 -0.109375 0.546875 -0.109375q0.3125 0 0.5625 0.109375q0.25 0.09375 0.4375 0.28125q0.171875 0.203125 0.265625 0.46875q0.109375 0.25 0.109375 0.5625zm8.763794 3.546875l0 -6.09375l-1.609375 0l-4.09375 6.390625l0.046875 0.96875l4.09375 0l0 2.109375l1.5625 0l0 -2.109375l1.1875 0l0 -1.265625l-1.1875 0zm-4.109375 0l2.375 -3.671875l0.171875 -0.34375l0 4.015625l-2.546875 0z" fill-rule="nonzero"/><path fill="#ffffff" d="m695.2703 147.98425l151.1181 0l0 27.496063l-151.1181 0z" fill-rule="evenodd"/><path stroke="#000000" stroke-width="2.0" stroke-linejoin="round" stroke-linecap="butt" d="m695.2703 147.98425l151.1181 0l0 27.496063l-151.1181 0z" fill-rule="evenodd"/><path fill="#cccccc" d="m695.2703 147.98425l56.125977 0l0 27.496063l-56.125977 0z" fill-rule="evenodd"/><path stroke="#000000" stroke-width="2.0" stroke-linejoin="round" stroke-linecap="butt" d="m695.2703 147.98425l56.125977 0l0 27.496063l-56.125977 0z" fill-rule="evenodd"/><path fill="#000000" fill-opacity="0.0" d="m687.2126 172.7126l71.18109 0l0 35.55905l-71.18109 0z" fill-rule="evenodd"/><path fill="#000000" d="m703.30634 190.90323l0 -2.25q0 -0.90625 -0.21875 -1.609375q-0.21875 -0.703125 -0.609375 -1.1875q-0.40625 -0.46875 -0.984375 -0.703125q-0.5625 -0.25 -1.28125 -0.25q-0.71875 0 -1.296875 0.25q-0.5625 0.234375 -0.953125 0.703125q-0.390625 0.484375 -0.609375 1.1875q-0.203125 0.703125 -0.203125 1.609375l0 2.25q0 0.90625 0.203125 1.609375q0.21875 0.703125 0.609375 1.171875q0.40625 0.484375 0.96875 0.734375q0.578125 0.234375 1.296875 0.234375q0.71875 0 1.28125 -0.234375q0.578125 -0.25 0.96875 -0.734375q0.40625 -0.46875 0.609375 -1.171875q0.21875 -0.703125 0.21875 -1.609375zm-4.59375 -0.5625q0 -0.1875 0 -0.3125q0 -0.125 0 -0.375l0 -1.28125q0 -0.578125 0.09375 -1.015625q0.109375 -0.4375 0.328125 -0.703125q0.171875 -0.25 0.4375 -0.359375q0.28125 -0.125 0.640625 -0.125q0.328125 0 0.59375 0.109375q0.265625 0.09375 0.453125 0.296875q0.203125 0.234375 0.3125 0.609375q0.125 0.375 0.140625 0.875l-3.0 2.28125zm3.015625 0.828125q0 0.59375 -0.109375 1.03125q-0.109375 0.4375 -0.3125 0.71875q-0.1875 0.234375 -0.46875 0.359375q-0.265625 0.109375 -0.609375 0.109375q-0.359375 0 -0.625 -0.109375q-0.265625 -0.125 -0.453125 -0.375q-0.1875 -0.234375 -0.296875 -0.578125q-0.109375 -0.34375 -0.140625 -0.796875l3.015625 -2.265625q0 0.1875 0 0.359375q0 0.171875 0 0.34375l0 1.203125zm6.576294 -1.328125l-1.65625 -2.375l-1.71875 0l2.46875 3.46875l-2.546875 3.578125l1.71875 0l1.75 -2.453125l1.765625 2.453125l1.71875 0l-2.5625 -3.578125l2.484375 -3.46875l-1.734375 0l-1.6875 2.375zm9.12323 4.671875l0 -9.46875l-0.09375 0l-3.90625 1.4375l0 1.375l2.4375 -0.890625l0 7.546875l1.5625 0zm9.873169 -3.609375l0 -2.25q0 -0.90625 -0.21875 -1.609375q-0.21875 -0.703125 -0.609375 -1.1875q-0.40625 -0.46875 -0.984375 -0.703125q-0.5625 -0.25 -1.28125 -0.25q-0.71875 0 -1.296875 0.25q-0.5625 0.234375 -0.953125 0.703125q-0.390625 0.484375 -0.609375 1.1875q-0.203125 0.703125 -0.203125 1.609375l0 2.25q0 0.90625 0.203125 1.609375q0.21875 0.703125 0.609375 1.171875q0.40625 0.484375 0.96875 0.734375q0.578125 0.234375 1.296875 0.234375q0.71875 0 1.28125 -0.234375q0.578125 -0.25 0.96875 -0.734375q0.40625 -0.46875 0.609375 -1.171875q0.21875 -0.703125 0.21875 -1.609375zm-4.59375 -0.5625q0 -0.1875 0 -0.3125q0 -0.125 0 -0.375l0 -1.28125q0 -0.578125 0.09375 -1.015625q0.109375 -0.4375 0.328125 -0.703125q0.171875 -0.25 0.4375 -0.359375q0.28125 -0.125 0.640625 -0.125q0.328125 0 0.59375 0.109375q0.265625 0.09375 0.453125 0.296875q0.203125 0.234375 0.3125 0.609375q0.125 0.375 0.140625 0.875l-3.0 2.28125zm3.015625 0.828125q0 0.59375 -0.109375 1.03125q-0.109375 0.4375 -0.3125 0.71875q-0.1875 0.234375 -0.46875 0.359375q-0.265625 0.109375 -0.609375 0.109375q-0.359375 0 -0.625 -0.109375q-0.265625 -0.125 -0.453125 -0.375q-0.1875 -0.234375 -0.296875 -0.578125q-0.109375 -0.34375 -0.140625 -0.796875l3.015625 -2.265625q0 0.1875 0 0.359375q0 0.171875 0 0.34375l0 1.203125zm8.060669 1.15625l0.625 2.1875l1.625 0l-3.03125 -9.46875l-1.390625 0l-3.078125 9.46875l1.625 0l0.640625 -2.1875l2.984375 0zm-2.578125 -1.328125l1.09375 -3.75l1.09375 3.75l-2.1875 0zm11.123169 0.140625l0 -6.09375l-1.609375 0l-4.09375 6.390625l0.046875 0.96875l4.09375 0l0 2.109375l1.5625 0l0 -2.109375l1.1875 0l0 -1.265625l-1.1875 0zm-4.109375 0l2.375 -3.671875l0.171875 -0.34375l0 4.015625l-2.546875 0z" fill-rule="nonzero"/><path fill="#000000" d="m718.0945 156.72441l9.417358 0l0 10.015747l-9.417358 0z" fill-rule="evenodd"/><path stroke="#000000" stroke-width="1.0" stroke-linejoin="round" stroke-linecap="butt" d="m718.0945 156.72441l9.417358 0l0 10.015747l-9.417358 0z" fill-rule="evenodd"/><path fill="#cccccc" d="m14.3359585 242.58661l56.125984 0l0 20.440948l-56.125984 0z" fill-rule="evenodd"/><path stroke="#000000" stroke-width="2.0" stroke-linejoin="round" stroke-linecap="butt" d="m14.3359585 242.58661l56.125984 0l0 20.440948l-56.125984 0z" fill-rule="evenodd"/><path fill="#000000" fill-opacity="0.0" d="m68.58793 235.02756l67.43307 0l0 35.55905l-67.43307 0z" fill-rule="evenodd"/><path fill="#000000" d="m79.47855 249.78069l-1.34375 0l0 7.0468597l1.421875 0l0 -5.4062347q0.046875 -0.09375 0.09375 -0.171875q0.046875 -0.078125 0.109375 -0.140625q0.09375 -0.09375 0.203125 -0.125q0.125 -0.046875 0.28125 -0.046875q0.140625 0 0.25 0.046875q0.125 0.03125 0.203125 0.109375q0.09375 0.09375 0.125 0.25q0.046875 0.140625 0.046875 0.34375l0 5.1406097l1.40625 0l0 -5.2187347q0 -0.078125 0 -0.109375q0 -0.03125 0 -0.0625q0.03125 -0.109375 0.078125 -0.1875q0.046875 -0.09375 0.125 -0.15625q0.09375 -0.078125 0.203125 -0.109375q0.109375 -0.046875 0.25 -0.046875q0.15625 0 0.265625 0.046875q0.125 0.03125 0.203125 0.109375q0.09375 0.09375 0.140625 0.25q0.046875 0.140625 0.046875 0.34375l0 5.1406097l1.421875 0l0 -5.1249847q0 -0.546875 -0.109375 -0.9375q-0.109375 -0.40625 -0.328125 -0.640625q-0.203125 -0.234375 -0.484375 -0.34375q-0.28125 -0.125 -0.625 -0.125q-0.265625 0 -0.484375 0.0625q-0.203125 0.0625 -0.390625 0.1875q-0.125 0.09375 -0.25 0.21875q-0.109375 0.125 -0.203125 0.28125q-0.0625 -0.171875 -0.15625 -0.296875q-0.09375 -0.125 -0.21875 -0.21875q-0.140625 -0.109375 -0.359375 -0.171875q-0.203125 -0.0625 -0.46875 -0.0625q-0.5 0 -0.859375 0.25q-0.34375 0.234375 -0.546875 0.65625l-0.046875 -0.78125zm13.045059 8.281235l0 -1.234375l-5.953125 0l0 1.234375l5.953125 0zm2.0763092 1.46875l1.5625 0l0 -3.34375q0.125 0.140625 0.265625 0.265625q0.140625 0.109375 0.296875 0.203125q0.265625 0.140625 0.578125 0.21875q0.328125 0.078125 0.703125 0.078125q0.65625 0 1.171875 -0.265625q0.515625 -0.28125 0.875 -0.74998474q0.34375 -0.484375 0.515625 -1.140625q0.1875 -0.65625 0.1875 -1.421875l0 -0.125q0 -0.796875 -0.1875 -1.453125q-0.171875 -0.671875 -0.515625 -1.140625q-0.359375 -0.484375 -0.875 -0.734375q-0.515625 -0.265625 -1.1875 -0.265625q-0.359375 0 -0.671875 0.078125q-0.296875 0.078125 -0.546875 0.203125q-0.1875 0.109375 -0.359375 0.25q-0.171875 0.140625 -0.3125 0.328125l-0.0625 -0.734375l-1.4375 0l0 9.749985zm4.59375 -6.2812347l0 0.125q0 0.46875 -0.09375 0.890625q-0.078125 0.421875 -0.28125 0.75q-0.203125 0.3125 -0.515625 0.5q-0.296875 0.1875 -0.734375 0.1875q-0.265625 0 -0.484375 -0.0625q-0.21875 -0.0625 -0.40625 -0.171875q-0.171875 -0.109375 -0.296875 -0.25q-0.125 -0.15625 -0.21875 -0.34375l0 -3.125q0.109375 -0.1875 0.25 -0.34375q0.140625 -0.15625 0.328125 -0.265625q0.15625 -0.09375 0.359375 -0.140625q0.21875 -0.0625 0.453125 -0.0625q0.4375 0 0.75 0.1875q0.3125 0.171875 0.515625 0.484375q0.1875 0.3125 0.28125 0.734375q0.09375 0.421875 0.09375 0.90625zm3.1075592 0l0 0.125q0 0.78125 0.21875 1.4375q0.234375 0.640625 0.65625 1.125q0.40625 0.48435974 1.015625 0.76560974q0.625 0.265625 1.390625 0.265625q0.765625 0 1.375 -0.265625q0.609375 -0.28125 1.03125 -0.76560974q0.40625 -0.484375 0.625 -1.125q0.234375 -0.65625 0.234375 -1.4375l0 -0.125q0 -0.78125 -0.234375 -1.421875q-0.21875 -0.65625 -0.625 -1.140625q-0.421875 -0.484375 -1.03125 -0.75q-0.609375 -0.28125 -1.390625 -0.28125q-0.765625 0 -1.375 0.28125q-0.609375 0.265625 -1.015625 0.75q-0.421875 0.484375 -0.65625 1.140625q-0.21875 0.640625 -0.21875 1.421875zm1.5625 0.125l0 -0.125q0 -0.46875 0.09375 -0.890625q0.109375 -0.421875 0.3125 -0.75q0.21875 -0.3125 0.53125 -0.5q0.328125 -0.1875 0.765625 -0.1875q0.453125 0 0.765625 0.1875q0.328125 0.1875 0.546875 0.5q0.203125 0.328125 0.296875 0.75q0.109375 0.421875 0.109375 0.890625l0 0.125q0 0.484375 -0.109375 0.90625q-0.09375 0.421875 -0.296875 0.734375q-0.203125 0.328125 -0.53125 0.515625q-0.328125 0.171875 -0.765625 0.171875q-0.453125 0 -0.78125 -0.171875q-0.3125 -0.1875 -0.53125 -0.515625q-0.203125 -0.3125 -0.3125 -0.734375q-0.09375 -0.421875 -0.09375 -0.90625zm6.435684 -0.125l0 0.125q0 0.78125 0.21875 1.4375q0.234375 0.640625 0.65625 1.125q0.40625 0.48435974 1.015625 0.76560974q0.625 0.265625 1.390625 0.265625q0.765625 0 1.375 -0.265625q0.609375 -0.28125 1.03125 -0.76560974q0.40625 -0.484375 0.625 -1.125q0.234375 -0.65625 0.234375 -1.4375l0 -0.125q0 -0.78125 -0.234375 -1.421875q-0.21875 -0.65625 -0.625 -1.140625q-0.421875 -0.484375 -1.03125 -0.75q-0.609375 -0.28125 -1.390625 -0.28125q-0.765625 0 -1.375 0.28125q-0.609375 0.265625 -1.015625 0.75q-0.421875 0.484375 -0.65625 1.140625q-0.21875 0.640625 -0.21875 1.421875zm1.5625 0.125l0 -0.125q0 -0.46875 0.09375 -0.890625q0.109375 -0.421875 0.3125 -0.75q0.21875 -0.3125 0.53125 -0.5q0.328125 -0.1875 0.765625 -0.1875q0.453125 0 0.765625 0.1875q0.328125 0.1875 0.546875 0.5q0.203125 0.328125 0.296875 0.75q0.109375 0.421875 0.109375 0.890625l0 0.125q0 0.484375 -0.109375 0.90625q-0.09375 0.421875 -0.296875 0.734375q-0.203125 0.328125 -0.53125 0.515625q-0.328125 0.171875 -0.765625 0.171875q-0.453125 0 -0.78125 -0.171875q-0.3125 -0.1875 -0.53125 -0.515625q-0.203125 -0.3125 -0.3125 -0.734375q-0.09375 -0.421875 -0.09375 -0.90625zm7.029434 -6.546875l0 1.296875l2.21875 0l0 7.421875l-2.21875 0l0 1.2812347l5.921875 0l0 -1.2812347l-2.125 0l0 -8.71875l-3.796875 0z" fill-rule="nonzero"/><path fill="#ffffff" d="m14.3359585 266.03967l56.125984 0l0 20.440948l-56.125984 0z" fill-rule="evenodd"/><path stroke="#000000" stroke-width="2.0" stroke-linejoin="round" stroke-linecap="butt" d="m14.3359585 266.03967l56.125984 0l0 20.440948l-56.125984 0z" fill-rule="evenodd"/><path fill="#000000" d="m39.239586 278.56015l1.234375 -0.109375q0.140625 0.90625 0.640625 1.359375q0.5 0.453125 1.203125 0.453125q0.84375 0 1.421875 -0.640625q0.59375 -0.640625 0.59375 -1.6875q0 -1.0 -0.5625 -1.578125q-0.5625 -0.59375 -1.484375 -0.59375q-0.5625 0 -1.015625 0.265625q-0.453125 0.25 -0.71875 0.671875l-1.09375 -0.15625l0.921875 -4.890625l4.75 0l0 1.109375l-3.8125 0l-0.515625 2.5625q0.859375 -0.59375 1.796875 -0.59375q1.25 0 2.109375 0.875q0.859375 0.859375 0.859375 2.21875q0 1.296875 -0.75 2.234375q-0.921875 1.15625 -2.5 1.15625q-1.3125 0 -2.140625 -0.71875q-0.8125 -0.734375 -0.9375 -1.9375z" fill-rule="nonzero"/><path fill="#000000" fill-opacity="0.0" d="m68.58793 258.48163l71.1811 0l0 35.55905l-71.1811 0z" fill-rule="evenodd"/><path fill="#000000" d="m79.47855 273.23474l-1.34375 0l0 7.046875l1.421875 0l0 -5.40625q0.046875 -0.09375 0.09375 -0.171875q0.046875 -0.078125 0.109375 -0.140625q0.09375 -0.09375 0.203125 -0.125q0.125 -0.046875 0.28125 -0.046875q0.140625 0 0.25 0.046875q0.125 0.03125 0.203125 0.109375q0.09375 0.09375 0.125 0.25q0.046875 0.140625 0.046875 0.34375l0 5.140625l1.40625 0l0 -5.21875q0 -0.078125 0 -0.109375q0 -0.03125 0 -0.0625q0.03125 -0.109375 0.078125 -0.1875q0.046875 -0.09375 0.125 -0.15625q0.09375 -0.078125 0.203125 -0.109375q0.109375 -0.046875 0.25 -0.046875q0.15625 0 0.265625 0.046875q0.125 0.03125 0.203125 0.109375q0.09375 0.09375 0.140625 0.25q0.046875 0.140625 0.046875 0.34375l0 5.140625l1.421875 0l0 -5.125q0 -0.546875 -0.109375 -0.9375q-0.109375 -0.40625 -0.328125 -0.640625q-0.203125 -0.234375 -0.484375 -0.34375q-0.28125 -0.125 -0.625 -0.125q-0.265625 0 -0.484375 0.0625q-0.203125 0.0625 -0.390625 0.1875q-0.125 0.09375 -0.25 0.21875q-0.109375 0.125 -0.203125 0.28125q-0.0625 -0.171875 -0.15625 -0.296875q-0.09375 -0.125 -0.21875 -0.21875q-0.140625 -0.109375 -0.359375 -0.171875q-0.203125 -0.0625 -0.46875 -0.0625q-0.5 0 -0.859375 0.25q-0.34375 0.234375 -0.546875 0.65625l-0.046875 -0.78125zm13.045059 8.28125l0 -1.234375l-5.953125 0l0 1.234375l5.953125 0zm6.670059 -3.140625q0 0.171875 -0.078125 0.3125q-0.078125 0.140625 -0.21875 0.25q-0.1875 0.140625 -0.5 0.234375q-0.296875 0.078125 -0.6875 0.078125q-0.3125 0 -0.609375 -0.0625q-0.28125 -0.0625 -0.515625 -0.203125q-0.234375 -0.140625 -0.390625 -0.359375q-0.140625 -0.21875 -0.15625 -0.546875l-1.515625 0q0 0.4375 0.203125 0.859375q0.21875 0.421875 0.609375 0.75q0.40625 0.328125 0.984375 0.53125q0.59375 0.203125 1.359375 0.203125q0.6875 0 1.234375 -0.15625q0.5625 -0.15625 0.96875 -0.4375q0.40625 -0.28125 0.609375 -0.671875q0.21875 -0.390625 0.21875 -0.859375q0 -0.484375 -0.203125 -0.828125q-0.203125 -0.359375 -0.578125 -0.609375q-0.375 -0.25 -0.921875 -0.421875q-0.53125 -0.171875 -1.171875 -0.28125q-0.46875 -0.078125 -0.765625 -0.171875q-0.296875 -0.109375 -0.46875 -0.21875q-0.1875 -0.125 -0.265625 -0.265625q-0.0625 -0.140625 -0.0625 -0.328125q0 -0.171875 0.078125 -0.328125q0.09375 -0.171875 0.265625 -0.28125q0.171875 -0.125 0.421875 -0.203125q0.265625 -0.078125 0.625 -0.078125q0.375 0 0.65625 0.109375q0.296875 0.09375 0.484375 0.265625q0.15625 0.140625 0.234375 0.328125q0.078125 0.171875 0.078125 0.359375l1.5625 0q0 -0.46875 -0.21875 -0.875q-0.203125 -0.421875 -0.59375 -0.71875q-0.390625 -0.296875 -0.953125 -0.46875q-0.546875 -0.171875 -1.25 -0.171875q-0.65625 0 -1.203125 0.171875q-0.53125 0.171875 -0.90625 0.453125q-0.390625 0.296875 -0.59375 0.6875q-0.203125 0.390625 -0.203125 0.8125q0 0.453125 0.203125 0.796875q0.203125 0.328125 0.5625 0.578125q0.359375 0.265625 0.859375 0.453125q0.515625 0.171875 1.125 0.296875q0.484375 0.09375 0.8125 0.203125q0.328125 0.09375 0.53125 0.21875q0.1875 0.125 0.265625 0.265625q0.078125 0.140625 0.078125 0.328125zm3.7481842 -5.140625l0 1.296875l2.171875 0l0 4.46875l-2.171875 0l0 1.28125l5.8125 0l0 -1.28125l-2.0625 0l0 -5.765625l-3.75 0zm2.03125 -1.8125q0 0.25 0.109375 0.4375q0.125 0.171875 0.359375 0.25q0.234375 0.0625 0.421875 0.03125q0.1875 -0.046875 0.328125 -0.15625q0.265625 -0.078125 0.40625 -0.28125q0.15625 -0.21875 0.109375 -0.5q-0.03125 -0.28125 -0.25 -0.453125q-0.21875 -0.1875 -0.578125 -0.1875q-0.203125 0 -0.375 0.0625q-0.15625 0.0625 -0.28125 0.171875q-0.125 0.109375 -0.1875 0.28125q-0.0625 0.15625 -0.0625 0.34375zm7.576309 7.609375l4.078125 -4.796875l0 -1.0l-6.078125 0l0 1.28125l3.96875 0l-4.046875 4.75l0 1.015625l6.359375 0l0 -1.25l-4.28125 0zm9.326309 1.375q1.03125 0 1.75 -0.390625q0.734375 -0.40625 1.078125 -0.921875l-0.828125 -0.796875q-0.328125 0.40625 -0.828125 0.640625q-0.5 0.21875 -1.078125 0.21875q-0.421875 0 -0.78125 -0.140625q-0.359375 -0.140625 -0.609375 -0.40625q-0.265625 -0.25 -0.421875 -0.5625q-0.140625 -0.3125 -0.21875 -0.765625l0 -0.046875l4.890625 0l0 -0.65625q0 -0.765625 -0.203125 -1.390625q-0.203125 -0.640625 -0.609375 -1.109375q-0.390625 -0.453125 -0.984375 -0.703125q-0.578125 -0.265625 -1.34375 -0.265625q-0.6875 0 -1.296875 0.265625q-0.59375 0.25 -1.046875 0.71875q-0.453125 0.484375 -0.71875 1.15625q-0.25 0.671875 -0.25 1.484375l0 0.265625q0 0.734375 0.25 1.359375q0.25 0.609375 0.703125 1.0625q0.46875 0.46875 1.109375 0.734375q0.65625 0.25 1.4375 0.25zm-0.1875 -6.03125q0.390625 0 0.6875 0.140625q0.296875 0.125 0.484375 0.34375q0.203125 0.234375 0.3125 0.53125q0.109375 0.296875 0.109375 0.609375l0 0.109375l-3.3125 0q0.078125 -0.40625 0.21875 -0.71875q0.15625 -0.328125 0.375 -0.5625q0.21875 -0.21875 0.5 -0.328125q0.296875 -0.125 0.625 -0.125z" fill-rule="nonzero"/><path fill="#ffffff" d="m14.3359585 289.49274l56.125984 0l0 20.440948l-56.125984 0z" fill-rule="evenodd"/><path stroke="#000000" stroke-width="2.0" stroke-linejoin="round" stroke-linecap="butt" d="m14.3359585 289.49274l56.125984 0l0 20.440948l-56.125984 0z" fill-rule="evenodd"/><path fill="#000000" d="m39.25521 301.9976l1.171875 -0.15625q0.203125 1.0 0.6875 1.4375q0.484375 0.4375 1.171875 0.4375q0.828125 0 1.390625 -0.578125q0.578125 -0.578125 0.578125 -1.421875q0 -0.796875 -0.53125 -1.3125q-0.515625 -0.53125 -1.328125 -0.53125q-0.34375 0 -0.828125 0.125l0.125 -1.03125q0.125 0.015625 0.1875 0.015625q0.75 0 1.34375 -0.390625q0.609375 -0.390625 0.609375 -1.203125q0 -0.640625 -0.4375 -1.0625q-0.4375 -0.421875 -1.125 -0.421875q-0.6875 0 -1.140625 0.4375q-0.453125 0.421875 -0.59375 1.28125l-1.171875 -0.21875q0.21875 -1.171875 0.984375 -1.8125q0.765625 -0.65625 1.890625 -0.65625q0.78125 0 1.4375 0.34375q0.65625 0.328125 1.0 0.90625q0.359375 0.578125 0.359375 1.234375q0 0.609375 -0.34375 1.125q-0.328125 0.5 -0.96875 0.796875q0.84375 0.203125 1.3125 0.828125q0.46875 0.609375 0.46875 1.53125q0 1.25 -0.921875 2.125q-0.90625 0.859375 -2.296875 0.859375q-1.25 0 -2.09375 -0.75q-0.828125 -0.75 -0.9375 -1.9375z" fill-rule="nonzero"/><path fill="#000000" fill-opacity="0.0" d="m68.58793 281.93307l103.338585 0l0 35.55905l-103.338585 0z" fill-rule="evenodd"/><path fill="#000000" d="m79.47855 296.6862l-1.34375 0l0 7.046875l1.421875 0l0 -5.40625q0.046875 -0.09375 0.09375 -0.171875q0.046875 -0.078125 0.109375 -0.140625q0.09375 -0.09375 0.203125 -0.125q0.125 -0.046875 0.28125 -0.046875q0.140625 0 0.25 0.046875q0.125 0.03125 0.203125 0.109375q0.09375 0.09375 0.125 0.25q0.046875 0.140625 0.046875 0.34375l0 5.140625l1.40625 0l0 -5.21875q0 -0.078125 0 -0.109375q0 -0.03125 0 -0.0625q0.03125 -0.109375 0.078125 -0.1875q0.046875 -0.09375 0.125 -0.15625q0.09375 -0.078125 0.203125 -0.109375q0.109375 -0.046875 0.25 -0.046875q0.15625 0 0.265625 0.046875q0.125 0.03125 0.203125 0.109375q0.09375 0.09375 0.140625 0.25q0.046875 0.140625 0.046875 0.34375l0 5.140625l1.421875 0l0 -5.125q0 -0.546875 -0.109375 -0.9375q-0.109375 -0.40625 -0.328125 -0.640625q-0.203125 -0.234375 -0.484375 -0.34375q-0.28125 -0.125 -0.625 -0.125q-0.265625 0 -0.484375 0.0625q-0.203125 0.0625 -0.390625 0.1875q-0.125 0.09375 -0.25 0.21875q-0.109375 0.125 -0.203125 0.28125q-0.0625 -0.171875 -0.15625 -0.296875q-0.09375 -0.125 -0.21875 -0.21875q-0.140625 -0.109375 -0.359375 -0.171875q-0.203125 -0.0625 -0.46875 -0.0625q-0.5 0 -0.859375 0.25q-0.34375 0.234375 -0.546875 0.65625l-0.046875 -0.78125zm13.045059 8.28125l0 -1.234375l-5.953125 0l0 1.234375l5.953125 0zm5.138809 -2.359375q-0.5 0 -0.828125 -0.1875q-0.3125 -0.203125 -0.5 -0.515625q-0.203125 -0.3125 -0.28125 -0.71875q-0.078125 -0.421875 -0.078125 -0.859375l0 -0.21875q0 -0.421875 0.078125 -0.828125q0.078125 -0.421875 0.28125 -0.734375q0.1875 -0.328125 0.5 -0.515625q0.328125 -0.203125 0.828125 -0.203125q0.3125 0 0.59375 0.109375q0.28125 0.109375 0.46875 0.296875q0.203125 0.1875 0.3125 0.453125q0.109375 0.25 0.109375 0.53125l1.453125 0q0.015625 -0.59375 -0.203125 -1.078125q-0.21875 -0.484375 -0.609375 -0.84375q-0.390625 -0.34375 -0.9375 -0.53125q-0.546875 -0.203125 -1.171875 -0.203125q-0.8125 0 -1.421875 0.28125q-0.609375 0.28125 -1.015625 0.765625q-0.40625 0.484375 -0.625 1.125q-0.203125 0.640625 -0.203125 1.375l0 0.21875q0 0.734375 0.203125 1.375q0.21875 0.640625 0.625 1.125q0.40625 0.484375 1.015625 0.765625q0.609375 0.28125 1.421875 0.28125q0.578125 0 1.109375 -0.1875q0.53125 -0.203125 0.953125 -0.53125q0.390625 -0.328125 0.625 -0.78125q0.25 -0.453125 0.234375 -0.96875l-1.453125 0q0 0.265625 -0.125 0.484375q-0.125 0.21875 -0.328125 0.390625q-0.203125 0.15625 -0.484375 0.25q-0.265625 0.078125 -0.546875 0.078125zm9.420059 1.125l1.59375 0l0 -0.109375q-0.125 -0.28125 -0.203125 -0.65625q-0.0625 -0.375 -0.0625 -0.859375l0 -3.125q0 -0.59375 -0.21875 -1.046875q-0.21875 -0.46875 -0.609375 -0.765625q-0.390625 -0.296875 -0.9375 -0.453125q-0.53125 -0.15625 -1.15625 -0.15625q-0.6875 0 -1.234375 0.1875q-0.53125 0.171875 -0.890625 0.46875q-0.375 0.3125 -0.578125 0.703125q-0.1875 0.390625 -0.1875 0.8125l1.5625 0q0 -0.203125 0.0625 -0.375q0.078125 -0.1875 0.234375 -0.3125q0.15625 -0.140625 0.390625 -0.21875q0.234375 -0.078125 0.5625 -0.078125q0.34375 0 0.609375 0.09375q0.28125 0.078125 0.46875 0.25q0.171875 0.15625 0.265625 0.390625q0.09375 0.21875 0.09375 0.484375l0 0.484375l-1.125 0q-0.765625 0 -1.375 0.140625q-0.59375 0.140625 -1.0 0.40625q-0.4375 0.296875 -0.671875 0.75q-0.234375 0.4375 -0.234375 1.015625q0 0.453125 0.171875 0.84375q0.1875 0.390625 0.515625 0.65625q0.3125 0.28125 0.765625 0.4375q0.453125 0.15625 1.0 0.15625q0.34375 0 0.625 -0.0625q0.296875 -0.0625 0.546875 -0.171875q0.265625 -0.125 0.46875 -0.265625q0.203125 -0.15625 0.359375 -0.328125q0.03125 0.203125 0.078125 0.390625q0.046875 0.1875 0.109375 0.3125zm-1.890625 -1.125q-0.296875 0 -0.515625 -0.0625q-0.21875 -0.078125 -0.375 -0.21875q-0.140625 -0.125 -0.21875 -0.3125q-0.078125 -0.1875 -0.078125 -0.390625q0 -0.265625 0.09375 -0.46875q0.09375 -0.21875 0.28125 -0.359375q0.21875 -0.1875 0.59375 -0.28125q0.375 -0.09375 0.875 -0.09375l1.0 0l0 1.3125q-0.078125 0.171875 -0.234375 0.328125q-0.15625 0.15625 -0.375 0.265625q-0.21875 0.125 -0.484375 0.203125q-0.25 0.078125 -0.5625 0.078125zm5.404434 3.828125l1.5625 0l0 -3.34375q0.125 0.140625 0.265625 0.265625q0.140625 0.109375 0.296875 0.203125q0.265625 0.140625 0.578125 0.21875q0.328125 0.078125 0.703125 0.078125q0.65625 0 1.171875 -0.265625q0.515625 -0.28125 0.875 -0.75q0.34375 -0.484375 0.515625 -1.140625q0.1875 -0.65625 0.1875 -1.421875l0 -0.125q0 -0.796875 -0.1875 -1.453125q-0.171875 -0.671875 -0.515625 -1.140625q-0.359375 -0.484375 -0.875 -0.734375q-0.515625 -0.265625 -1.1875 -0.265625q-0.359375 0 -0.671875 0.078125q-0.296875 0.078125 -0.546875 0.203125q-0.1875 0.109375 -0.359375 0.25q-0.171875 0.140625 -0.3125 0.328125l-0.0625 -0.734375l-1.4375 0l0 9.75zm4.59375 -6.28125l0 0.125q0 0.46875 -0.09375 0.890625q-0.078125 0.421875 -0.28125 0.75q-0.203125 0.3125 -0.515625 0.5q-0.296875 0.1875 -0.734375 0.1875q-0.265625 0 -0.484375 -0.0625q-0.21875 -0.0625 -0.40625 -0.171875q-0.171875 -0.109375 -0.296875 -0.25q-0.125 -0.15625 -0.21875 -0.34375l0 -3.125q0.109375 -0.1875 0.25 -0.34375q0.140625 -0.15625 0.328125 -0.265625q0.15625 -0.09375 0.359375 -0.140625q0.21875 -0.0625 0.453125 -0.0625q0.4375 0 0.75 0.1875q0.3125 0.171875 0.515625 0.484375q0.1875 0.3125 0.28125 0.734375q0.09375 0.421875 0.09375 0.90625zm7.888809 3.578125l1.59375 0l0 -0.109375q-0.125 -0.28125 -0.203125 -0.65625q-0.0625 -0.375 -0.0625 -0.859375l0 -3.125q0 -0.59375 -0.21875 -1.046875q-0.21875 -0.46875 -0.609375 -0.765625q-0.390625 -0.296875 -0.9375 -0.453125q-0.53125 -0.15625 -1.15625 -0.15625q-0.6875 0 -1.234375 0.1875q-0.53125 0.171875 -0.890625 0.46875q-0.375 0.3125 -0.578125 0.703125q-0.1875 0.390625 -0.1875 0.8125l1.5625 0q0 -0.203125 0.0625 -0.375q0.078125 -0.1875 0.234375 -0.3125q0.15625 -0.140625 0.390625 -0.21875q0.234375 -0.078125 0.5625 -0.078125q0.34375 0 0.609375 0.09375q0.28125 0.078125 0.46875 0.25q0.171875 0.15625 0.265625 0.390625q0.09375 0.21875 0.09375 0.484375l0 0.484375l-1.125 0q-0.765625 0 -1.375 0.140625q-0.59375 0.140625 -1.0 0.40625q-0.4375 0.296875 -0.671875 0.75q-0.234375 0.4375 -0.234375 1.015625q0 0.453125 0.171875 0.84375q0.1875 0.390625 0.515625 0.65625q0.3125 0.28125 0.765625 0.4375q0.453125 0.15625 1.0 0.15625q0.34375 0 0.625 -0.0625q0.296875 -0.0625 0.546875 -0.171875q0.265625 -0.125 0.46875 -0.265625q0.203125 -0.15625 0.359375 -0.328125q0.03125 0.203125 0.078125 0.390625q0.046875 0.1875 0.109375 0.3125zm-1.890625 -1.125q-0.296875 0 -0.515625 -0.0625q-0.21875 -0.078125 -0.375 -0.21875q-0.140625 -0.125 -0.21875 -0.3125q-0.078125 -0.1875 -0.078125 -0.390625q0 -0.265625 0.09375 -0.46875q0.09375 -0.21875 0.28125 -0.359375q0.21875 -0.1875 0.59375 -0.28125q0.375 -0.09375 0.875 -0.09375l1.0 0l0 1.3125q-0.078125 0.171875 -0.234375 0.328125q-0.15625 0.15625 -0.375 0.265625q-0.21875 0.125 -0.484375 0.203125q-0.25 0.078125 -0.5625 0.078125zm8.466927 0q-0.5 0 -0.828125 -0.1875q-0.3125 -0.203125 -0.5 -0.515625q-0.203125 -0.3125 -0.28125 -0.71875q-0.07811737 -0.421875 -0.07811737 -0.859375l0 -0.21875q0 -0.421875 0.07811737 -0.828125q0.078125 -0.421875 0.28125 -0.734375q0.1875 -0.328125 0.5 -0.515625q0.328125 -0.203125 0.828125 -0.203125q0.3125 0 0.59375 0.109375q0.28125 0.109375 0.46875 0.296875q0.203125 0.1875 0.3125 0.453125q0.109375 0.25 0.109375 0.53125l1.453125 0q0.015625 -0.59375 -0.203125 -1.078125q-0.21875 -0.484375 -0.609375 -0.84375q-0.390625 -0.34375 -0.9375 -0.53125q-0.546875 -0.203125 -1.171875 -0.203125q-0.8125 0 -1.421875 0.28125q-0.6093674 0.28125 -1.0156174 0.765625q-0.40625 0.484375 -0.625 1.125q-0.203125 0.640625 -0.203125 1.375l0 0.21875q0 0.734375 0.203125 1.375q0.21875 0.640625 0.625 1.125q0.40625 0.484375 1.0156174 0.765625q0.609375 0.28125 1.421875 0.28125q0.578125 0 1.109375 -0.1875q0.53125 -0.203125 0.953125 -0.53125q0.390625 -0.328125 0.625 -0.78125q0.25 -0.453125 0.234375 -0.96875l-1.453125 0q0 0.265625 -0.125 0.484375q-0.125 0.21875 -0.328125 0.390625q-0.203125 0.15625 -0.484375 0.25q-0.265625 0.078125 -0.546875 0.078125zm5.279434 -5.921875l0 1.296875l2.171875 0l0 4.46875l-2.171875 0l0 1.28125l5.8125 0l0 -1.28125l-2.0625 0l0 -5.765625l-3.75 0zm2.03125 -1.8125q0 0.25 0.109375 0.4375q0.125 0.171875 0.359375 0.25q0.234375 0.0625 0.421875 0.03125q0.1875 -0.046875 0.328125 -0.15625q0.265625 -0.078125 0.40625 -0.28125q0.15625 -0.21875 0.109375 -0.5q-0.03125 -0.28125 -0.25 -0.453125q-0.21875 -0.1875 -0.578125 -0.1875q-0.203125 0 -0.375 0.0625q-0.15625 0.0625 -0.28125 0.171875q-0.125 0.109375 -0.1875 0.28125q-0.0625 0.15625 -0.0625 0.34375zm8.732559 0.09375l-1.546875 0l0 1.71875l-1.71875 0l0 1.171875l1.71875 0l0 3.453125q0 0.6875 0.171875 1.171875q0.171875 0.46875 0.5 0.78125q0.3125 0.3125 0.75 0.46875q0.453125 0.140625 0.984375 0.140625q0.296875 0 0.59375 -0.03125q0.296875 -0.03125 0.578125 -0.078125q0.265625 -0.0625 0.5 -0.125q0.234375 -0.078125 0.40625 -0.1875l-0.171875 -1.078125q-0.109375 0.03125 -0.28125 0.078125q-0.171875 0.03125 -0.375 0.046875q-0.1875 0.03125 -0.40625 0.0625q-0.21875 0.015625 -0.421875 0.015625q-0.28125 0 -0.515625 -0.0625q-0.234375 -0.0625 -0.40625 -0.21875q-0.15625 -0.15625 -0.265625 -0.421875q-0.09375 -0.265625 -0.09375 -0.65625l0 -3.359375l2.65625 0l0 -1.171875l-2.65625 0l0 -1.71875zm5.763809 11.609375q0.515625 0 0.890625 -0.1875q0.390625 -0.171875 0.671875 -0.4375q0.28125 -0.265625 0.46875 -0.578125q0.1875 -0.296875 0.3125 -0.578125l3.5625 -8.109375l-1.71875 0l-1.703125 4.328125l-0.28125 0.75l-0.25 -0.765625l-1.75 -4.3125l-1.703125 0l3.0 6.734375l-0.453125 0.84375q-0.0625 0.140625 -0.15625 0.265625q-0.078125 0.140625 -0.203125 0.296875q-0.140625 0.171875 -0.328125 0.296875q-0.171875 0.140625 -0.40625 0.140625q-0.09375 0 -0.265625 -0.015625q-0.171875 0 -0.296875 0l-0.21875 1.21875q0.1875 0.03125 0.390625 0.0625q0.21875 0.046875 0.4375 0.046875z" fill-rule="nonzero"/><path fill="#000000" fill-opacity="0.0" d="m41.503937 256.07742l0 -109.027374l48.850395 0l0 -0.011993408" fill-rule="evenodd"/><path stroke="#000000" stroke-width="2.0" stroke-linejoin="round" stroke-linecap="butt" d="m41.503937 248.49744l0 -101.44739l36.850403 0" fill-rule="evenodd"/><path fill="#000000" stroke="#000000" stroke-width="2.0" stroke-linecap="butt" d="m41.503937 255.07742c-1.8170166 0 -3.290001 -1.4729767 -3.290001 -3.2899933c0 -1.8170166 1.4729843 -3.2900085 3.290001 -3.2900085c1.8170166 0 3.290001 1.472992 3.290001 3.2900085c0 1.8170166 -1.4729843 3.2899933 -3.290001 3.2899933z" fill-rule="nonzero"/><path fill="#000000" stroke="#000000" stroke-width="2.0" stroke-linecap="butt" d="m78.35764 150.35352l9.072884 -3.3125305l-9.079491 -3.2943878z" fill-rule="evenodd"/><path fill="#000000" fill-opacity="0.0" d="m392.90814 117.968506l-350.33072 -0.5669327" fill-rule="evenodd"/><path stroke="#000000" stroke-width="2.0" stroke-linejoin="round" stroke-linecap="butt" d="m392.90814 117.968506l-350.33072 -0.5669327" fill-rule="evenodd"/><path fill="#000000" fill-opacity="0.0" d="m42.39895 74.632545l0.15748215 42.771652" fill-rule="evenodd"/><path stroke="#000000" stroke-width="2.0" stroke-linejoin="round" stroke-linecap="butt" d="m42.426857 82.212494l0.12957382 35.191704" fill-rule="evenodd"/><path fill="#000000" stroke="#000000" stroke-width="2.0" stroke-linecap="butt" d="m42.402634 75.63254c1.8170013 -0.006690979 3.2953987 1.4608612 3.3020897 3.2778625c0.006690979 1.817009 -1.4608612 3.2954025 -3.2778664 3.3020935c-1.8170013 0.006690979 -3.2953987 -1.4608612 -3.3020897 -3.2778625c-0.006690979 -1.817009 1.4608612 -3.2954025 3.2778664 -3.3020935z" fill-rule="nonzero"/><path fill="#000000" fill-opacity="0.0" d="m392.90683 147.98425l-0.18899536 -30.015747" fill-rule="evenodd"/><path stroke="#000000" stroke-width="2.0" stroke-linejoin="round" stroke-linecap="butt" d="m392.83127 135.98448l-0.11343384 -18.015976" fill-rule="evenodd"/><path fill="#000000" stroke="#000000" stroke-width="2.0" stroke-linecap="butt" d="m389.52786 136.0053l3.3605652 9.055206l3.2462463 -9.096802z" fill-rule="evenodd"/></g></svg>