<svg version="1.1" viewBox="0.0 0.0 855.1994750656168 320.3989501312336" fill="none" stroke="none" stroke-linecap="square" stroke-miterlimit="10" xmlns:xlink="http://www.w3.org/1999/xlink" xmlns="http://www.w3.org/2000/svg"><clipPath id="p.0"><path d="m0 0l855.19946 0l0 320.39896l-855.19946 0l0 -320.39896z" clip-rule="nonzero"/></clipPath><g clip-path="url(#p.0)"><path fill="#000000" fill-opacity="0.0" d="m0 0l855.19946 0l0 320.39896l-855.19946 0z" fill-rule="evenodd"/><path fill="#ffffff" d="m77.35958 191.76115l151.1181 0l0 27.496063l-151.1181 0z" fill-rule="evenodd"/><path stroke="#000000" stroke-width="2.0" stroke-linejoin="round" stroke-linecap="butt" d="m77.35958 191.76115l151.1181 0l0 27.496063l-151.1181 0z" fill-rule="evenodd"/><path fill="#cccccc" d="m77.35958 191.76115l56.125984 0l0 27.496063l-56.125984 0z" fill-rule="evenodd"/><path stroke="#000000" stroke-width="2.0" stroke-linejoin="round" stroke-linecap="butt" d="m77.35958 191.76115l56.125984 0l0 27.496063l-56.125984 0z" fill-rule="evenodd"/><path fill="#000000" fill-opacity="0.0" d="m69.4462 10.154856l247.9685 0l0 38.771652l-247.9685 0z" fill-rule="evenodd"/><path fill="#000000" d="m86.46182 29.671106l0 -1.546875l-4.8125 0l0 -3.4375l5.5 0l0 -1.546875l-7.390625 0l0 11.374998l1.890625 0l0 -4.843748l4.8125 0zm3.2265625 -3.609375l0 1.546875l2.609375 0l0 5.359373l-2.609375 0l0 1.546875l6.96875 0l0 -1.546875l-2.484375 0l0 -6.906248l-4.484375 0zm2.4375 -2.1875q0 0.296875 0.140625 0.515625q0.140625 0.21875 0.421875 0.3125q0.28125 0.078125 0.5 0.03125q0.234375 -0.046875 0.390625 -0.1875q0.328125 -0.09375 0.5 -0.34375q0.171875 -0.25 0.125 -0.59375q-0.046875 -0.34375 -0.3125 -0.546875q-0.25 -0.21875 -0.671875 -0.21875q-0.25 0 -0.453125 0.078125q-0.203125 0.0625 -0.34375 0.203125q-0.140625 0.140625 -0.21875 0.328125q-0.078125 0.1875 -0.078125 0.421875zm10.4453125 5.03125l-2.0 -2.84375l-2.046875 0l2.953125 4.15625l-3.0625 4.296873l2.078125 0l2.09375 -2.953123l2.109375 2.953123l2.0625 0l-3.0625 -4.296873l2.96875 -4.15625l-2.0625 0l-2.03125 2.84375zm9.8359375 5.765623q1.234375 0 2.109375 -0.484375q0.875 -0.484375 1.296875 -1.09375l-1.0 -0.96875q-0.390625 0.5 -1.0 0.765625q-0.59375 0.265625 -1.296875 0.265625q-0.5 0 -0.9375 -0.171875q-0.421875 -0.171875 -0.734375 -0.484375q-0.3125 -0.296875 -0.5 -0.6718731q-0.171875 -0.375 -0.25 -0.921875l0 -0.046875l5.859375 0l0 -0.796875q0 -0.90625 -0.25 -1.671875q-0.234375 -0.765625 -0.71875 -1.328125q-0.46875 -0.546875 -1.171875 -0.84375q-0.703125 -0.3125 -1.625 -0.3125q-0.8125 0 -1.546875 0.3125q-0.71875 0.296875 -1.265625 0.875q-0.546875 0.5625 -0.859375 1.375q-0.3125 0.796875 -0.3125 1.796875l0 0.3125q0 0.875 0.296875 1.6249981q0.3125 0.734375 0.859375 1.28125q0.5625 0.5625 1.328125 0.875q0.78125 0.3125 1.71875 0.3125zm-0.21875 -7.249998q0.46875 0 0.8125 0.15625q0.359375 0.15625 0.59375 0.421875q0.25 0.28125 0.375 0.640625q0.140625 0.359375 0.140625 0.734375l0 0.125l-3.984375 0q0.09375 -0.484375 0.265625 -0.859375q0.1875 -0.390625 0.453125 -0.671875q0.265625 -0.265625 0.59375 -0.40625q0.34375 -0.140625 0.75 -0.140625zm5.6328125 2.796875l0 0.171875q0 0.90625 0.234375 1.7031231q0.234375 0.78125 0.65625 1.34375q0.4375 0.578125 1.046875 0.90625q0.625 0.328125 1.390625 0.328125q0.734375 0 1.296875 -0.265625q0.5625 -0.28125 0.96875 -0.78125l0.09375 0.890625l1.6875 0l0 -11.999998l-1.859375 0l0 4.328125q-0.40625 -0.453125 -0.9375 -0.6875q-0.53125 -0.25 -1.234375 -0.25q-0.78125 0 -1.40625 0.3125q-0.609375 0.3125 -1.046875 0.890625q-0.4375 0.5625 -0.671875 1.359375q-0.21875 0.796875 -0.21875 1.75zm1.859375 0.171875l0 -0.171875q0 -0.5625 0.109375 -1.0625q0.109375 -0.515625 0.359375 -0.890625q0.21875 -0.390625 0.59375 -0.609375q0.375 -0.21875 0.890625 -0.21875q0.625 0 1.03125 0.28125q0.421875 0.28125 0.671875 0.75l0 3.624998q-0.25 0.484375 -0.671875 0.765625q-0.40625 0.265625 -1.046875 0.265625q-0.515625 0 -0.890625 -0.203125q-0.359375 -0.21875 -0.59375 -0.609375q-0.234375 -0.3593731 -0.34375 -0.8593731q-0.109375 -0.5 -0.109375 -1.0625zm7.9296875 4.124998l3.9375 0q0.84375 0 1.5625 -0.21875q0.71875 -0.21875 1.25 -0.640625q0.515625 -0.40625 0.8125 -1.015625q0.296875 -0.625 0.296875 -1.4374981q0 -0.46875 -0.140625 -0.875q-0.125 -0.421875 -0.375 -0.765625q-0.234375 -0.328125 -0.59375 -0.578125q-0.359375 -0.25 -0.875 -0.390625l0 -0.015625q0.34375 -0.140625 0.609375 -0.3125q0.265625 -0.171875 0.46875 -0.40625q0.296875 -0.328125 0.453125 -0.734375q0.171875 -0.421875 0.171875 -0.90625q0 -0.796875 -0.296875 -1.375q-0.296875 -0.59375 -0.828125 -0.96875q-0.53125 -0.375 -1.265625 -0.546875q-0.71875 -0.1875 -1.546875 -0.1875l-3.640625 0l0 11.374998zm1.890625 -5.140623l2.15625 0q0.453125 0 0.8125 0.140625q0.359375 0.125 0.609375 0.359375q0.25 0.234375 0.375 0.5625q0.125 0.328125 0.125 0.765625q0 0.40625 -0.15625 0.734375q-0.140625 0.3281231 -0.421875 0.5624981q-0.265625 0.21875 -0.640625 0.34375q-0.359375 0.125 -0.796875 0.125l-2.0625 0l0 -3.593748zm0 -1.4375l0 -3.25l1.765625 0q0.484375 0.015625 0.875 0.125q0.40625 0.09375 0.671875 0.328125q0.234375 0.1875 0.359375 0.484375q0.140625 0.296875 0.140625 0.6875q0 0.375 -0.140625 0.671875q-0.140625 0.28125 -0.390625 0.484375q-0.265625 0.234375 -0.65625 0.359375q-0.375 0.109375 -0.84375 0.109375l-1.78125 0zm8.1328125 -5.421875l0 1.546875l2.671875 0l0 8.906248l-2.671875 0l0 1.546875l7.109375 0l0 -1.546875l-2.5625 0l0 -10.453123l-4.546875 0zm8.8984375 7.6875l0 0.171875q0 0.921875 0.265625 1.7031231q0.265625 0.78125 0.765625 1.359375q0.5 0.578125 1.234375 0.921875q0.734375 0.328125 1.671875 0.328125q0.921875 0 1.640625 -0.328125q0.734375 -0.34375 1.234375 -0.921875q0.5 -0.578125 0.765625 -1.359375q0.265625 -0.7812481 0.265625 -1.7031231l0 -0.171875q0 -0.921875 -0.265625 -1.703125q-0.265625 -0.78125 -0.765625 -1.359375q-0.5 -0.578125 -1.234375 -0.90625q-0.734375 -0.328125 -1.65625 -0.328125q-0.9375 0 -1.671875 0.328125q-0.71875 0.328125 -1.21875 0.90625q-0.5 0.578125 -0.765625 1.359375q-0.265625 0.78125 -0.265625 1.703125zm1.859375 0.171875l0 -0.171875q0 -0.546875 0.125 -1.046875q0.125 -0.515625 0.375 -0.90625q0.25 -0.375 0.640625 -0.59375q0.390625 -0.234375 0.921875 -0.234375q0.53125 0 0.921875 0.234375q0.390625 0.21875 0.640625 0.59375q0.25 0.390625 0.375 0.90625q0.125 0.5 0.125 1.046875l0 0.171875q0 0.5625 -0.125 1.078125q-0.125 0.5 -0.375 0.8906231q-0.25 0.375 -0.640625 0.609375q-0.390625 0.21875 -0.90625 0.21875q-0.546875 0 -0.9375 -0.21875q-0.390625 -0.234375 -0.640625 -0.609375q-0.25 -0.3906231 -0.375 -0.8906231q-0.125 -0.515625 -0.125 -1.078125zm11.7578125 2.796873q-0.578125 0 -0.96875 -0.234375q-0.390625 -0.234375 -0.625 -0.625q-0.234375 -0.3749981 -0.328125 -0.8749981q-0.09375 -0.5 -0.09375 -1.015625l0 -0.265625q0 -0.515625 0.09375 -1.0q0.09375 -0.5 0.34375 -0.875q0.21875 -0.390625 0.609375 -0.625q0.390625 -0.234375 0.96875 -0.234375q0.390625 0 0.71875 0.140625q0.328125 0.125 0.578125 0.34375q0.234375 0.234375 0.359375 0.546875q0.125 0.296875 0.125 0.640625l1.765625 0q0 -0.703125 -0.265625 -1.28125q-0.25 -0.59375 -0.71875 -1.015625q-0.46875 -0.421875 -1.125 -0.65625q-0.65625 -0.234375 -1.421875 -0.234375q-0.96875 0 -1.703125 0.34375q-0.71875 0.328125 -1.21875 0.90625q-0.484375 0.578125 -0.734375 1.359375q-0.25 0.765625 -0.25 1.640625l0 0.265625q0 0.875 0.25 1.6562481q0.25 0.765625 0.75 1.34375q0.484375 0.578125 1.203125 0.921875q0.734375 0.34375 1.71875 0.34375q0.703125 0 1.328125 -0.234375q0.640625 -0.234375 1.140625 -0.640625q0.484375 -0.390625 0.765625 -0.9375q0.28125 -0.546875 0.28125 -1.1562481l-1.765625 0q0 0.3124981 -0.140625 0.5781231q-0.140625 0.265625 -0.390625 0.46875q-0.25 0.1875 -0.578125 0.296875q-0.3125 0.109375 -0.671875 0.109375zm8.8359375 -2.343748l2.6875 3.687498l2.3125 0l-3.765625 -4.937498l3.296875 -3.515625l-2.25 0l-2.53125 2.65625l-0.765625 0.859375l0 -7.0625l-1.875 0l0 11.999998l1.875 0l0 -2.718748l1.015625 -0.96875zm8.8671875 -7.6875l-2.328125 0l0 11.374998l1.765625 0l0 -3.859373l-0.109375 -4.890625l1.59375 5.234375l0.96875 0l1.75 -5.421875l-0.109375 5.078125l0 3.859373l1.765625 0l0 -11.374998l-2.328125 0l-1.5625 4.859375l-1.40625 -4.859375zm11.3671875 11.531248q1.234375 0 2.109375 -0.484375q0.875 -0.484375 1.296875 -1.09375l-1.0 -0.96875q-0.390625 0.5 -1.0 0.765625q-0.59375 0.265625 -1.296875 0.265625q-0.5 0 -0.9375 -0.171875q-0.421875 -0.171875 -0.734375 -0.484375q-0.3125 -0.296875 -0.5 -0.6718731q-0.171875 -0.375 -0.25 -0.921875l0 -0.046875l5.859375 0l0 -0.796875q0 -0.90625 -0.25 -1.671875q-0.234375 -0.765625 -0.71875 -1.328125q-0.46875 -0.546875 -1.171875 -0.84375q-0.703125 -0.3125 -1.625 -0.3125q-0.8125 0 -1.546875 0.3125q-0.71875 0.296875 -1.265625 0.875q-0.546875 0.5625 -0.859375 1.375q-0.3125 0.796875 -0.3125 1.796875l0 0.3125q0 0.875 0.296875 1.6249981q0.3125 0.734375 0.859375 1.28125q0.5625 0.5625 1.328125 0.875q0.78125 0.3125 1.71875 0.3125zm-0.21875 -7.249998q0.46875 0 0.8125 0.15625q0.359375 0.15625 0.59375 0.421875q0.25 0.28125 0.375 0.640625q0.140625 0.359375 0.140625 0.734375l0 0.125l-3.984375 0q0.09375 -0.484375 0.265625 -0.859375q0.1875 -0.390625 0.453125 -0.671875q0.265625 -0.265625 0.59375 -0.40625q0.34375 -0.140625 0.75 -0.140625zm6.9453125 -1.359375l-1.625 0l0 8.453123l1.71875 0l0 -6.499998q0.046875 -0.109375 0.09375 -0.203125q0.0625 -0.09375 0.140625 -0.171875q0.109375 -0.09375 0.25 -0.140625q0.140625 -0.0625 0.328125 -0.0625q0.171875 0 0.3125 0.046875q0.140625 0.046875 0.234375 0.15625q0.109375 0.09375 0.15625 0.28125q0.046875 0.171875 0.046875 0.421875l0 6.171873l1.6875 0l0 -6.281248q0 -0.078125 0 -0.109375q0 -0.046875 0 -0.078125q0.03125 -0.140625 0.09375 -0.234375q0.0625 -0.109375 0.15625 -0.1875q0.109375 -0.09375 0.234375 -0.140625q0.140625 -0.046875 0.3125 -0.046875q0.171875 0 0.3125 0.046875q0.15625 0.046875 0.25 0.15625q0.109375 0.109375 0.15625 0.28125q0.0625 0.171875 0.0625 0.421875l0 6.171873l1.71875 0l0 -6.156248q0 -0.65625 -0.140625 -1.125q-0.140625 -0.484375 -0.390625 -0.78125q-0.25 -0.28125 -0.59375 -0.40625q-0.328125 -0.140625 -0.734375 -0.140625q-0.3125 0 -0.578125 0.078125q-0.265625 0.078125 -0.46875 0.21875q-0.171875 0.109375 -0.3125 0.265625q-0.140625 0.15625 -0.25 0.328125q-0.078125 -0.1875 -0.1875 -0.34375q-0.109375 -0.15625 -0.25 -0.265625q-0.171875 -0.140625 -0.421875 -0.203125q-0.25 -0.078125 -0.5625 -0.078125q-0.609375 0 -1.03125 0.296875q-0.421875 0.28125 -0.671875 0.78125l-0.046875 -0.921875zm8.1953125 4.140625l0 0.171875q0 0.921875 0.265625 1.7031231q0.265625 0.78125 0.765625 1.359375q0.5 0.578125 1.234375 0.921875q0.734375 0.328125 1.671875 0.328125q0.921875 0 1.640625 -0.328125q0.734375 -0.34375 1.234375 -0.921875q0.5 -0.578125 0.765625 -1.359375q0.265625 -0.7812481 0.265625 -1.7031231l0 -0.171875q0 -0.921875 -0.265625 -1.703125q-0.265625 -0.78125 -0.765625 -1.359375q-0.5 -0.578125 -1.234375 -0.90625q-0.734375 -0.328125 -1.65625 -0.328125q-0.9375 0 -1.671875 0.328125q-0.71875 0.328125 -1.21875 0.90625q-0.5 0.578125 -0.765625 1.359375q-0.265625 0.78125 -0.265625 1.703125zm1.859375 0.171875l0 -0.171875q0 -0.546875 0.125 -1.046875q0.125 -0.515625 0.375 -0.90625q0.25 -0.375 0.640625 -0.59375q0.390625 -0.234375 0.921875 -0.234375q0.53125 0 0.921875 0.234375q0.390625 0.21875 0.640625 0.59375q0.25 0.390625 0.375 0.90625q0.125 0.5 0.125 1.046875l0 0.171875q0 0.5625 -0.125 1.078125q-0.125 0.5 -0.375 0.8906231q-0.25 0.375 -0.640625 0.609375q-0.390625 0.21875 -0.90625 0.21875q-0.546875 0 -0.9375 -0.21875q-0.390625 -0.234375 -0.640625 -0.609375q-0.25 -0.3906231 -0.375 -0.8906231q-0.125 -0.515625 -0.125 -1.078125zm13.9296875 -4.46875q-0.875 0 -1.609375 0.40625q-0.71875 0.40625 -1.234375 1.109375l0 -0.1875l-0.078125 -1.171875l-1.75 0l0 8.453123l1.859375 0l0 -5.218748q0.15625 -0.375 0.375 -0.65625q0.21875 -0.296875 0.53125 -0.484375q0.28125 -0.203125 0.65625 -0.296875q0.375 -0.09375 0.84375 -0.09375q0.421875 0 0.828125 0.046875q0.421875 0.046875 0.859375 0.140625l0.265625 -1.84375q-0.25 -0.078125 -0.671875 -0.140625q-0.421875 -0.0625 -0.875 -0.0625zm4.8203125 12.031248q0.609375 0 1.0625 -0.21875q0.46875 -0.21875 0.8125 -0.53125q0.328125 -0.3125 0.546875 -0.6875q0.234375 -0.375 0.375 -0.703125l4.296875 -9.734373l-2.078125 0l-2.03125 5.1875l-0.359375 0.9062481l-0.28125 -0.9374981l-2.109375 -5.15625l-2.046875 0l3.59375 8.078123l-0.53125 1.015625q-0.078125 0.171875 -0.1875 0.328125q-0.09375 0.15625 -0.25 0.359375q-0.15625 0.203125 -0.375 0.359375q-0.21875 0.15625 -0.5 0.15625q-0.125 0 -0.328125 -0.015625q-0.1875 0 -0.34375 -0.015625l-0.265625 1.46875q0.234375 0.046875 0.46875 0.09375q0.25 0.046875 0.53125 0.046875zm10.7109375 -14.796873l-2.328125 0l0 11.374998l1.765625 0l0 -3.859373l-0.109375 -4.890625l1.59375 5.234375l0.96875 0l1.75 -5.421875l-0.109375 5.078125l0 3.859373l1.765625 0l0 -11.374998l-2.328125 0l-1.5625 4.859375l-1.40625 -4.859375zm12.8203125 11.374998l1.90625 0l0 -0.140625q-0.15625 -0.328125 -0.234375 -0.78125q-0.078125 -0.453125 -0.078125 -1.03125l0 -3.749998q0 -0.71875 -0.265625 -1.265625q-0.265625 -0.5625 -0.734375 -0.921875q-0.46875 -0.359375 -1.125 -0.53125q-0.640625 -0.1875 -1.375 -0.1875q-0.828125 0 -1.484375 0.21875q-0.640625 0.203125 -1.078125 0.578125q-0.453125 0.359375 -0.6875 0.828125q-0.234375 0.46875 -0.234375 0.96875l1.875 0q0 -0.234375 0.078125 -0.453125q0.09375 -0.21875 0.28125 -0.359375q0.1875 -0.171875 0.46875 -0.265625q0.296875 -0.09375 0.671875 -0.09375q0.421875 0 0.75 0.109375q0.328125 0.109375 0.546875 0.296875q0.21875 0.203125 0.328125 0.46875q0.109375 0.265625 0.109375 0.59375l0 0.5625l-1.359375 0q-0.90625 0 -1.640625 0.171875q-0.71875 0.171875 -1.203125 0.5q-0.53125 0.359375 -0.8125 0.890625q-0.28125 0.53125 -0.28125 1.2343731q0 0.53125 0.21875 1.0q0.21875 0.46875 0.609375 0.796875q0.375 0.328125 0.921875 0.53125q0.546875 0.1875 1.203125 0.1875q0.40625 0 0.75 -0.078125q0.359375 -0.078125 0.65625 -0.21875q0.3125 -0.140625 0.546875 -0.3125q0.25 -0.1875 0.453125 -0.390625q0.03125 0.234375 0.078125 0.46875q0.0625 0.21875 0.140625 0.375zm-2.265625 -1.34375q-0.359375 0 -0.625 -0.09375q-0.265625 -0.09375 -0.453125 -0.25q-0.171875 -0.15625 -0.265625 -0.375q-0.09375 -0.21875 -0.09375 -0.4843731q0 -0.3125 0.109375 -0.5625q0.109375 -0.25 0.34375 -0.421875q0.265625 -0.21875 0.703125 -0.328125q0.453125 -0.109375 1.0625 -0.109375l1.203125 0l0 1.5624981q-0.09375 0.203125 -0.28125 0.390625q-0.1875 0.1875 -0.453125 0.328125q-0.25 0.15625 -0.578125 0.25q-0.3125 0.09375 -0.671875 0.09375zm6.4765625 1.34375l1.859375 0l0 -6.031248q0.125 -0.21875 0.28125 -0.390625q0.171875 -0.1875 0.359375 -0.3125q0.25 -0.15625 0.546875 -0.25q0.296875 -0.09375 0.640625 -0.09375q0.40625 0 0.71875 0.09375q0.328125 0.09375 0.5625 0.296875q0.21875 0.21875 0.328125 0.578125q0.125 0.34375 0.125 0.859375l0 5.249998l1.875 0l0 -5.281248q0 -0.890625 -0.21875 -1.515625q-0.203125 -0.625 -0.59375 -1.03125q-0.375 -0.40625 -0.921875 -0.59375q-0.53125 -0.1875 -1.1875 -0.1875q-0.484375 0 -0.9375 0.140625q-0.4375 0.140625 -0.8125 0.390625q-0.234375 0.171875 -0.453125 0.375q-0.203125 0.203125 -0.375 0.453125l-0.109375 -1.203125l-1.6875 0l0 8.453123zm14.9921875 0l1.90625 0l0 -0.140625q-0.15625 -0.328125 -0.234375 -0.78125q-0.078125 -0.453125 -0.078125 -1.03125l0 -3.749998q0 -0.71875 -0.265625 -1.265625q-0.265625 -0.5625 -0.734375 -0.921875q-0.46875 -0.359375 -1.125 -0.53125q-0.640625 -0.1875 -1.375 -0.1875q-0.828125 0 -1.484375 0.21875q-0.640625 0.203125 -1.078125 0.578125q-0.453125 0.359375 -0.6875 0.828125q-0.234375 0.46875 -0.234375 0.96875l1.875 0q0 -0.234375 0.078125 -0.453125q0.09375 -0.21875 0.28125 -0.359375q0.1875 -0.171875 0.46875 -0.265625q0.296875 -0.09375 0.671875 -0.09375q0.421875 0 0.75 0.109375q0.328125 0.109375 0.546875 0.296875q0.21875 0.203125 0.328125 0.46875q0.109375 0.265625 0.109375 0.59375l0 0.5625l-1.359375 0q-0.90625 0 -1.640625 0.171875q-0.71875 0.171875 -1.203125 0.5q-0.53125 0.359375 -0.8125 0.890625q-0.28125 0.53125 -0.28125 1.2343731q0 0.53125 0.21875 1.0q0.21875 0.46875 0.609375 0.796875q0.375 0.328125 0.921875 0.53125q0.546875 0.1875 1.203125 0.1875q0.40625 0 0.75 -0.078125q0.359375 -0.078125 0.65625 -0.21875q0.3125 -0.140625 0.546875 -0.3125q0.25 -0.1875 0.453125 -0.390625q0.03125 0.234375 0.078125 0.46875q0.0625 0.21875 0.140625 0.375zm-2.265625 -1.34375q-0.359375 0 -0.625 -0.09375q-0.265625 -0.09375 -0.453125 -0.25q-0.171875 -0.15625 -0.265625 -0.375q-0.09375 -0.21875 -0.09375 -0.4843731q0 -0.3125 0.109375 -0.5625q0.109375 -0.25 0.34375 -0.421875q0.265625 -0.21875 0.703125 -0.328125q0.453125 -0.109375 1.0625 -0.109375l1.203125 0l0 1.5624981q-0.09375 0.203125 -0.28125 0.390625q-0.1875 0.1875 -0.453125 0.328125q-0.25 0.15625 -0.578125 0.25q-0.3125 0.09375 -0.671875 0.09375zm6.2265625 -2.953123l0 0.171875q0 0.90625 0.234375 1.7031231q0.25 0.78125 0.6875 1.34375q0.4375 0.578125 1.0625 0.90625q0.625 0.328125 1.40625 0.328125q0.4375 0 0.796875 -0.09375q0.375 -0.09375 0.671875 -0.265625q0.203125 -0.109375 0.375 -0.25q0.1875 -0.15625 0.34375 -0.328125l0 0.59375q0 0.484375 -0.140625 0.859375q-0.125 0.375 -0.375 0.625q-0.28125 0.265625 -0.671875 0.40625q-0.375 0.140625 -0.875 0.140625q-0.296875 0 -0.578125 -0.0625q-0.28125 -0.046875 -0.546875 -0.171875q-0.28125 -0.125 -0.546875 -0.328125q-0.25 -0.203125 -0.484375 -0.46875l-0.875 1.125q0.28125 0.375 0.671875 0.640625q0.390625 0.265625 0.8125 0.4375q0.4375 0.15625 0.859375 0.234375q0.4375 0.078125 0.796875 0.078125q0.84375 0 1.546875 -0.234375q0.71875 -0.234375 1.21875 -0.6875q0.5 -0.46875 0.78125 -1.125q0.28125 -0.65625 0.28125 -1.515625l0 -8.218748l-1.703125 0l-0.078125 0.84375q-0.15625 -0.1875 -0.34375 -0.34375q-0.171875 -0.15625 -0.375 -0.28125q-0.3125 -0.1875 -0.703125 -0.28125q-0.375 -0.09375 -0.84375 -0.09375q-0.78125 0 -1.421875 0.3125q-0.625 0.3125 -1.0625 0.890625q-0.453125 0.5625 -0.6875 1.359375q-0.234375 0.796875 -0.234375 1.75zm1.875 0.171875l0 -0.171875q0 -0.5625 0.109375 -1.0625q0.125 -0.515625 0.375 -0.890625q0.25 -0.390625 0.625 -0.609375q0.375 -0.21875 0.890625 -0.21875q0.296875 0 0.546875 0.078125q0.25 0.0625 0.453125 0.171875q0.234375 0.125 0.40625 0.3125q0.171875 0.1875 0.296875 0.421875l0 3.703123q-0.125 0.234375 -0.296875 0.421875q-0.15625 0.1875 -0.359375 0.3125q-0.21875 0.125 -0.484375 0.203125q-0.25 0.0625 -0.578125 0.0625q-0.515625 0 -0.890625 -0.203125q-0.375 -0.21875 -0.609375 -0.609375q-0.25 -0.3593731 -0.375 -0.8593731q-0.109375 -0.5 -0.109375 -1.0625zm11.9140625 4.281248q1.234375 0 2.109375 -0.484375q0.875 -0.484375 1.296875 -1.09375l-1.0 -0.96875q-0.390625 0.5 -1.0 0.765625q-0.59375 0.265625 -1.296875 0.265625q-0.5 0 -0.9375 -0.171875q-0.421875 -0.171875 -0.734375 -0.484375q-0.3125 -0.296875 -0.5 -0.6718731q-0.171875 -0.375 -0.25 -0.921875l0 -0.046875l5.859375 0l0 -0.796875q0 -0.90625 -0.25 -1.671875q-0.234375 -0.765625 -0.71875 -1.328125q-0.46875 -0.546875 -1.171875 -0.84375q-0.703125 -0.3125 -1.625 -0.3125q-0.8125 0 -1.546875 0.3125q-0.71875 0.296875 -1.265625 0.875q-0.546875 0.5625 -0.859375 1.375q-0.3125 0.796875 -0.3125 1.796875l0 0.3125q0 0.875 0.296875 1.6249981q0.3125 0.734375 0.859375 1.28125q0.5625 0.5625 1.328125 0.875q0.78125 0.3125 1.71875 0.3125zm-0.21875 -7.249998q0.46875 0 0.8125 0.15625q0.359375 0.15625 0.59375 0.421875q0.25 0.28125 0.375 0.640625q0.140625 0.359375 0.140625 0.734375l0 0.125l-3.984375 0q0.09375 -0.484375 0.265625 -0.859375q0.1875 -0.390625 0.453125 -0.671875q0.265625 -0.265625 0.59375 -0.40625q0.34375 -0.140625 0.75 -0.140625zm11.7265625 -1.515625q-0.875 0 -1.609375 0.40625q-0.71875 0.40625 -1.234375 1.109375l0 -0.1875l-0.078125 -1.171875l-1.75 0l0 8.453123l1.859375 0l0 -5.218748q0.15625 -0.375 0.375 -0.65625q0.21875 -0.296875 0.53125 -0.484375q0.28125 -0.203125 0.65625 -0.296875q0.375 -0.09375 0.84375 -0.09375q0.421875 0 0.828125 0.046875q0.421875 0.046875 0.859375 0.140625l0.265625 -1.84375q-0.25 -0.078125 -0.671875 -0.140625q-0.421875 -0.0625 -0.875 -0.0625z" fill-rule="nonzero"/><path fill="#cccccc" d="m77.35958 102.761154l56.125984 0l0 27.496063l-56.125984 0z" fill-rule="evenodd"/><path stroke="#000000" stroke-width="2.0" stroke-linejoin="round" stroke-linecap="butt" d="m77.35958 102.761154l56.125984 0l0 27.496063l-56.125984 0z" fill-rule="evenodd"/><path fill="#ffffff" d="m228.47769 191.76115l151.1181 0l0 27.496063l-151.1181 0z" fill-rule="evenodd"/><path stroke="#000000" stroke-width="2.0" stroke-linejoin="round" stroke-linecap="butt" d="m228.47769 191.76115l151.1181 0l0 27.496063l-151.1181 0z" fill-rule="evenodd"/><path fill="#cccccc" d="m228.47769 191.76115l56.125977 0l0 27.496063l-56.125977 0z" fill-rule="evenodd"/><path stroke="#000000" stroke-width="2.0" stroke-linejoin="round" stroke-linecap="butt" d="m228.47769 191.76115l56.125977 0l0 27.496063l-56.125977 0z" fill-rule="evenodd"/><path fill="#ffffff" d="m379.5958 191.76115l151.11813 0l0 27.496063l-151.11813 0z" fill-rule="evenodd"/><path stroke="#000000" stroke-width="2.0" stroke-linejoin="round" stroke-linecap="butt" d="m379.5958 191.76115l151.11813 0l0 27.496063l-151.11813 0z" fill-rule="evenodd"/><path fill="#cccccc" d="m379.5958 191.76115l56.125977 0l0 27.496063l-56.125977 0z" fill-rule="evenodd"/><path stroke="#000000" stroke-width="2.0" stroke-linejoin="round" stroke-linecap="butt" d="m379.5958 191.76115l56.125977 0l0 27.496063l-56.125977 0z" fill-rule="evenodd"/><path fill="#ffffff" d="m530.7139 191.76115l151.1181 0l0 27.496063l-151.1181 0z" fill-rule="evenodd"/><path stroke="#000000" stroke-width="2.0" stroke-linejoin="round" stroke-linecap="butt" d="m530.7139 191.76115l151.1181 0l0 27.496063l-151.1181 0z" fill-rule="evenodd"/><path fill="#cccccc" d="m530.7139 191.76115l56.125977 0l0 27.496063l-56.125977 0z" fill-rule="evenodd"/><path stroke="#000000" stroke-width="2.0" stroke-linejoin="round" stroke-linecap="butt" d="m530.7139 191.76115l56.125977 0l0 27.496063l-56.125977 0z" fill-rule="evenodd"/><path fill="#000000" fill-opacity="0.0" d="m109.19948 117.19948l119.50084 0l0 74.67717l-0.004776001 0" fill-rule="evenodd"/><path stroke="#000000" stroke-width="2.0" stroke-linejoin="round" stroke-linecap="butt" d="m116.77948 117.19948l111.92084 0l0 62.67717" fill-rule="evenodd"/><path fill="#000000" stroke="#000000" stroke-width="2.0" stroke-linecap="butt" d="m110.19948 117.19948c0 -1.8170166 1.4729767 -3.290001 3.2899933 -3.290001c1.8170166 0 3.290001 1.4729843 3.290001 3.290001c0 1.8170166 -1.4729843 3.2899933 -3.290001 3.2899933c-1.8170166 0 -3.2899933 -1.4729767 -3.2899933 -3.2899933z" fill-rule="nonzero"/><path fill="#000000" stroke="#000000" stroke-width="2.0" stroke-linecap="butt" d="m225.39685 179.87532l3.2998505 9.077515l3.3070831 -9.074875z" fill-rule="evenodd"/><path fill="#000000" fill-opacity="0.0" d="m379.5013 161.7454l-122.26773 0.37794495" fill-rule="evenodd"/><path stroke="#000000" stroke-width="2.0" stroke-linejoin="round" stroke-linecap="butt" d="m379.5013 161.7454l-122.26773 0.37794495" fill-rule="evenodd"/><path fill="#000000" fill-opacity="0.0" d="m256.3832 209.7454l0.3149414 -48.0" fill-rule="evenodd"/><path stroke="#000000" stroke-width="2.0" stroke-linejoin="round" stroke-linecap="butt" d="m256.43295 202.16557l0.26519775 -40.420166" fill-rule="evenodd"/><path fill="#000000" stroke="#000000" stroke-width="2.0" stroke-linecap="butt" d="m256.38977 208.74542c-1.8169861 -0.011917114 -3.2802734 -1.4945374 -3.268341 -3.3115082c0.011917114 -1.8169861 1.4945374 -3.2802734 3.3115234 -3.268341c1.8169556 0.011917114 3.280243 1.4945374 3.268341 3.3115082c-0.011932373 1.8169861 -1.4945679 3.2802734 -3.3115234 3.268341z" fill-rule="nonzero"/><path fill="#000000" fill-opacity="0.0" d="m379.69028 191.76115l-0.18896484 -30.015747" fill-rule="evenodd"/><path stroke="#000000" stroke-width="2.0" stroke-linejoin="round" stroke-linecap="butt" d="m379.61475 179.7614l-0.11343384 -18.015991" fill-rule="evenodd"/><path fill="#000000" stroke="#000000" stroke-width="2.0" stroke-linecap="butt" d="m376.31134 179.7822l3.3605347 9.055206l3.2462769 -9.096802z" fill-rule="evenodd"/><path fill="#000000" fill-opacity="0.0" d="m681.73755 161.7454l-122.26776 0.37794495" fill-rule="evenodd"/><path stroke="#000000" stroke-width="2.0" stroke-linejoin="round" stroke-linecap="butt" d="m681.73755 161.7454l-122.26776 0.37794495" fill-rule="evenodd"/><path fill="#000000" fill-opacity="0.0" d="m558.61945 209.7454l0.3149414 -48.0" fill-rule="evenodd"/><path stroke="#000000" stroke-width="2.0" stroke-linejoin="round" stroke-linecap="butt" d="m558.6692 202.16557l0.26519775 -40.420166" fill-rule="evenodd"/><path fill="#000000" stroke="#000000" stroke-width="2.0" stroke-linecap="butt" d="m558.626 208.74542c-1.8169556 -0.011917114 -3.2802734 -1.4945374 -3.2683105 -3.3115082c0.0119018555 -1.8169861 1.4945068 -3.2802734 3.3115234 -3.268341c1.8169556 0.011917114 3.2802124 1.4945374 3.2683105 3.3115082c-0.0119018555 1.8169861 -1.4945679 3.2802734 -3.3115234 3.268341z" fill-rule="nonzero"/><path fill="#000000" fill-opacity="0.0" d="m681.9265 191.76115l-0.18896484 -30.015747" fill-rule="evenodd"/><path stroke="#000000" stroke-width="2.0" stroke-linejoin="round" stroke-linecap="butt" d="m681.85095 179.7614l-0.11340332 -18.015991" fill-rule="evenodd"/><path fill="#000000" stroke="#000000" stroke-width="2.0" stroke-linecap="butt" d="m678.54755 179.7822l3.3605347 9.055206l3.2462769 -9.096802z" fill-rule="evenodd"/><path fill="#000000" fill-opacity="0.0" d="m12.887139 98.72966l71.18111 0l0 35.55905l-71.18111 0z" fill-rule="evenodd"/><path fill="#000000" d="m23.777763 113.48278l-1.34375 0l0 7.046875l1.421875 0l0 -5.40625q0.046875 -0.09375 0.09375 -0.171875q0.046875 -0.078125 0.109375 -0.140625q0.09375 -0.09375 0.203125 -0.125q0.125 -0.046875 0.28125 -0.046875q0.140625 0 0.25 0.046875q0.125 0.03125 0.203125 0.109375q0.09375 0.09375 0.125 0.25q0.046875 0.140625 0.046875 0.34375l0 5.140625l1.40625 0l0 -5.21875q0 -0.078125 0 -0.109375q0 -0.03125 0 -0.0625q0.03125 -0.109375 0.078125 -0.1875q0.046875 -0.09375 0.125 -0.15625q0.09375 -0.078125 0.203125 -0.109375q0.109375 -0.046875 0.25 -0.046875q0.15625 0 0.265625 0.046875q0.125 0.03125 0.203125 0.109375q0.09375 0.09375 0.140625 0.25q0.046875 0.140625 0.046875 0.34375l0 5.140625l1.421875 0l0 -5.125q0 -0.546875 -0.109375 -0.9375q-0.109375 -0.40625 -0.328125 -0.640625q-0.203125 -0.234375 -0.484375 -0.34375q-0.28125 -0.125 -0.625 -0.125q-0.265625 0 -0.484375 0.0625q-0.203125 0.0625 -0.390625 0.1875q-0.125 0.09375 -0.25 0.21875q-0.109375 0.125 -0.203125 0.28125q-0.0625 -0.171875 -0.15625 -0.296875q-0.09375 -0.125 -0.21875 -0.21875q-0.140625 -0.109375 -0.359375 -0.171875q-0.203125 -0.0625 -0.46875 -0.0625q-0.5 0 -0.859375 0.25q-0.34375 0.234375 -0.546875 0.65625l-0.046875 -0.78125zm13.045059 8.28125l0 -1.234375l-5.953125 0l0 1.234375l5.953125 0zm3.8419342 -1.234375l1.5625 0l0 -5.875l2.609375 0l0 -1.171875l-2.609375 0l0 -0.421875q0 -0.375 0.09375 -0.65625q0.09375 -0.28125 0.28125 -0.46875q0.203125 -0.203125 0.515625 -0.296875q0.3125 -0.109375 0.75 -0.109375q0.421875 0 0.75 0.0625q0.328125 0.046875 0.59375 0.109375l0.109375 -1.234375q-0.1875 -0.046875 -0.375 -0.078125q-0.1875 -0.03125 -0.375 -0.0625q-0.21875 -0.03125 -0.453125 -0.046875q-0.234375 -0.03125 -0.46875 -0.03125q-0.6875 0 -1.234375 0.1875q-0.546875 0.171875 -0.9375 0.53125q-0.390625 0.359375 -0.609375 0.890625q-0.203125 0.515625 -0.203125 1.203125l0 0.421875l-1.890625 0l0 1.171875l1.890625 0l0 5.875zm11.091934 -7.171875q-0.734375 0 -1.34375 0.34375q-0.59375 0.328125 -1.015625 0.921875l-0.015625 -0.15625l-0.0625 -0.984375l-1.453125 0l0 7.046875l1.5625 0l0 -4.34375q0.109375 -0.3125 0.296875 -0.546875q0.1875 -0.25 0.4375 -0.40625q0.25 -0.15625 0.5625 -0.234375q0.3125 -0.078125 0.703125 -0.078125q0.34375 0 0.6875 0.046875q0.359375 0.03125 0.703125 0.109375l0.234375 -1.546875q-0.203125 -0.0625 -0.5625 -0.109375q-0.359375 -0.0625 -0.734375 -0.0625zm6.420059 7.296875q1.03125 0 1.75 -0.390625q0.734375 -0.40625 1.078125 -0.921875l-0.828125 -0.796875q-0.328125 0.40625 -0.828125 0.640625q-0.5 0.21875 -1.078125 0.21875q-0.421875 0 -0.78125 -0.140625q-0.359375 -0.140625 -0.609375 -0.40625q-0.265625 -0.25 -0.421875 -0.5625q-0.140625 -0.3125 -0.21875 -0.765625l0 -0.046875l4.890625 0l0 -0.65625q0 -0.765625 -0.203125 -1.390625q-0.203125 -0.640625 -0.609375 -1.109375q-0.390625 -0.453125 -0.984375 -0.703125q-0.578125 -0.265625 -1.34375 -0.265625q-0.6875 0 -1.296875 0.265625q-0.59375 0.25 -1.046875 0.71875q-0.453125 0.484375 -0.71875 1.15625q-0.25 0.671875 -0.25 1.484375l0 0.265625q0 0.734375 0.25 1.359375q0.25 0.609375 0.703125 1.0625q0.46875 0.46875 1.109375 0.734375q0.65625 0.25 1.4375 0.25zm-0.1875 -6.03125q0.390625 0 0.6875 0.140625q0.296875 0.125 0.484375 0.34375q0.203125 0.234375 0.3125 0.53125q0.109375 0.296875 0.109375 0.609375l0 0.109375l-3.3125 0q0.078125 -0.40625 0.21875 -0.71875q0.15625 -0.328125 0.375 -0.5625q0.21875 -0.21875 0.5 -0.328125q0.296875 -0.125 0.625 -0.125zm8.185684 6.03125q1.03125 0 1.75 -0.390625q0.734375 -0.40625 1.078125 -0.921875l-0.828125 -0.796875q-0.328125 0.40625 -0.828125 0.640625q-0.5 0.21875 -1.078125 0.21875q-0.421875 0 -0.78125 -0.140625q-0.359375 -0.140625 -0.609375 -0.40625q-0.265625 -0.25 -0.421875 -0.5625q-0.140625 -0.3125 -0.21875 -0.765625l0 -0.046875l4.890625 0l0 -0.65625q0 -0.765625 -0.203125 -1.390625q-0.203125 -0.640625 -0.609375 -1.109375q-0.390625 -0.453125 -0.984375 -0.703125q-0.578125 -0.265625 -1.34375 -0.265625q-0.6875 0 -1.296875 0.265625q-0.59375 0.25 -1.046875 0.71875q-0.453125 0.484375 -0.71875 1.15625q-0.25 0.671875 -0.25 1.484375l0 0.265625q0 0.734375 0.25 1.359375q0.25 0.609375 0.703125 1.0625q0.46875 0.46875 1.109375 0.734375q0.65625 0.25 1.4375 0.25zm-0.1875 -6.03125q0.390625 0 0.6875 0.140625q0.296875 0.125 0.484375 0.34375q0.203125 0.234375 0.3125 0.53125q0.109375 0.296875 0.109375 0.609375l0 0.109375l-3.3125 0q0.078125 -0.40625 0.21875 -0.71875q0.15625 -0.328125 0.375 -0.5625q0.21875 -0.21875 0.5 -0.328125q0.296875 -0.125 0.625 -0.125z" fill-rule="nonzero"/><path fill="#000000" fill-opacity="0.0" d="m130.13124 272.6181l71.18109 0l0 35.55905l-71.18109 0z" fill-rule="evenodd"/><path fill="#000000" d="m146.22499 290.80875l0 -2.25q0 -0.90625 -0.21875 -1.609375q-0.21875 -0.703125 -0.609375 -1.1875q-0.40625 -0.46875 -0.984375 -0.703125q-0.5625 -0.25 -1.28125 -0.25q-0.71875 0 -1.296875 0.25q-0.5625 0.234375 -0.953125 0.703125q-0.390625 0.484375 -0.609375 1.1875q-0.203125 0.703125 -0.203125 1.609375l0 2.25q0 0.90625 0.203125 1.609375q0.21875 0.703125 0.609375 1.171875q0.40625 0.484375 0.96875 0.734375q0.578125 0.234375 1.296875 0.234375q0.71875 0 1.28125 -0.234375q0.578125 -0.25 0.96875 -0.734375q0.40625 -0.46875 0.609375 -1.171875q0.21875 -0.703125 0.21875 -1.609375zm-4.59375 -0.5625q0 -0.1875 0 -0.3125q0 -0.125 0 -0.375l0 -1.28125q0 -0.578125 0.09375 -1.015625q0.109375 -0.4375 0.328125 -0.703125q0.171875 -0.25 0.4375 -0.359375q0.28125 -0.125 0.640625 -0.125q0.328125 0 0.59375 0.109375q0.265625 0.09375 0.453125 0.296875q0.203125 0.234375 0.3125 0.609375q0.125 0.375 0.140625 0.875l-3.0 2.28125zm3.015625 0.828125q0 0.59375 -0.109375 1.03125q-0.109375 0.4375 -0.3125 0.71875q-0.1875 0.234375 -0.46875 0.359375q-0.265625 0.109375 -0.609375 0.109375q-0.359375 0 -0.625 -0.109375q-0.265625 -0.125 -0.453125 -0.375q-0.1875 -0.234375 -0.296875 -0.578125q-0.109375 -0.34375 -0.140625 -0.796875l3.015625 -2.265625q0 0.1875 0 0.359375q0 0.171875 0 0.34375l0 1.203125zm6.576309 -1.328125l-1.65625 -2.375l-1.71875 0l2.46875 3.46875l-2.546875 3.578125l1.71875 0l1.75 -2.453125l1.765625 2.453125l1.71875 0l-2.5625 -3.578125l2.484375 -3.46875l-1.734375 0l-1.6875 2.375zm9.123184 4.671875l0 -9.46875l-0.09375 0l-3.90625 1.4375l0 1.375l2.4375 -0.890625l0 7.546875l1.5625 0zm9.873184 -3.609375l0 -2.25q0 -0.90625 -0.21875 -1.609375q-0.21875 -0.703125 -0.609375 -1.1875q-0.40625 -0.46875 -0.984375 -0.703125q-0.5625 -0.25 -1.28125 -0.25q-0.71875 0 -1.296875 0.25q-0.5625 0.234375 -0.953125 0.703125q-0.390625 0.484375 -0.609375 1.1875q-0.203125 0.703125 -0.203125 1.609375l0 2.25q0 0.90625 0.203125 1.609375q0.21875 0.703125 0.609375 1.171875q0.40625 0.484375 0.96875 0.734375q0.578125 0.234375 1.296875 0.234375q0.71875 0 1.28125 -0.234375q0.578125 -0.25 0.96875 -0.734375q0.40625 -0.46875 0.609375 -1.171875q0.21875 -0.703125 0.21875 -1.609375zm-4.59375 -0.5625q0 -0.1875 0 -0.3125q0 -0.125 0 -0.375l0 -1.28125q0 -0.578125 0.09375 -1.015625q0.109375 -0.4375 0.328125 -0.703125q0.171875 -0.25 0.4375 -0.359375q0.28125 -0.125 0.640625 -0.125q0.328125 0 0.59375 0.109375q0.265625 0.09375 0.453125 0.296875q0.203125 0.234375 0.3125 0.609375q0.125 0.375 0.140625 0.875l-3.0 2.28125zm3.015625 0.828125q0 0.59375 -0.109375 1.03125q-0.109375 0.4375 -0.3125 0.71875q-0.1875 0.234375 -0.46875 0.359375q-0.265625 0.109375 -0.609375 0.109375q-0.359375 0 -0.625 -0.109375q-0.265625 -0.125 -0.453125 -0.375q-0.1875 -0.234375 -0.296875 -0.578125q-0.109375 -0.34375 -0.140625 -0.796875l3.015625 -2.265625q0 0.1875 0 0.359375q0 0.171875 0 0.34375l0 1.203125zm9.529434 3.34375l0 -1.25l-4.421875 0l2.109375 -2.25q0.421875 -0.453125 0.765625 -0.859375q0.359375 -0.421875 0.625 -0.828125q0.25 -0.421875 0.390625 -0.828125q0.15625 -0.421875 0.15625 -0.875q0 -0.59375 -0.203125 -1.09375q-0.1875 -0.5 -0.5625 -0.859375q-0.375 -0.359375 -0.921875 -0.5625q-0.546875 -0.203125 -1.25 -0.203125q-0.734375 0 -1.34375 0.25q-0.59375 0.234375 -1.015625 0.640625q-0.421875 0.421875 -0.65625 0.96875q-0.21875 0.546875 -0.21875 1.15625l1.5625 0q0 -0.40625 0.09375 -0.71875q0.109375 -0.328125 0.3125 -0.5625q0.203125 -0.203125 0.5 -0.3125q0.3125 -0.125 0.734375 -0.125q0.328125 0 0.59375 0.109375q0.265625 0.109375 0.453125 0.296875q0.1875 0.203125 0.28125 0.484375q0.09375 0.265625 0.09375 0.59375q0 0.25 -0.078125 0.5q-0.0625 0.234375 -0.21875 0.515625q-0.15625 0.28125 -0.421875 0.625q-0.25 0.328125 -0.640625 0.75l-3.078125 3.359375l0 1.078125l6.359375 0zm7.076309 -3.375l0 -6.09375l-1.609375 0l-4.09375 6.390625l0.046875 0.96875l4.09375 0l0 2.109375l1.5625 0l0 -2.109375l1.1875 0l0 -1.265625l-1.1875 0zm-4.109375 0l2.375 -3.671875l0.171875 -0.34375l0 4.015625l-2.546875 0z" fill-rule="nonzero"/><path fill="#000000" fill-opacity="0.0" d="m217.79002 216.4895l71.18111 0l0 35.55905l-71.18111 0z" fill-rule="evenodd"/><path fill="#000000" d="m233.88377 234.68013l0 -2.25q0 -0.90625 -0.21875 -1.609375q-0.21875 -0.703125 -0.609375 -1.1875q-0.40625 -0.46875 -0.984375 -0.703125q-0.5625 -0.25 -1.28125 -0.25q-0.71875 0 -1.296875 0.25q-0.5625 0.234375 -0.953125 0.703125q-0.390625 0.484375 -0.609375 1.1875q-0.203125 0.703125 -0.203125 1.609375l0 2.25q0 0.90625 0.203125 1.609375q0.21875 0.703125 0.609375 1.171875q0.40625 0.484375 0.96875 0.734375q0.578125 0.234375 1.296875 0.234375q0.71875 0 1.28125 -0.234375q0.578125 -0.25 0.96875 -0.734375q0.40625 -0.46875 0.609375 -1.171875q0.21875 -0.703125 0.21875 -1.609375zm-4.59375 -0.5625q0 -0.1875 0 -0.3125q0 -0.125 0 -0.375l0 -1.28125q0 -0.578125 0.09375 -1.015625q0.109375 -0.4375 0.328125 -0.703125q0.171875 -0.25 0.4375 -0.359375q0.28125 -0.125 0.640625 -0.125q0.328125 0 0.59375 0.109375q0.265625 0.09375 0.453125 0.296875q0.203125 0.234375 0.3125 0.609375q0.125 0.375 0.140625 0.875l-3.0 2.28125zm3.015625 0.828125q0 0.59375 -0.109375 1.03125q-0.109375 0.4375 -0.3125 0.71875q-0.1875 0.234375 -0.46875 0.359375q-0.265625 0.109375 -0.609375 0.109375q-0.359375 0 -0.625 -0.109375q-0.265625 -0.125 -0.453125 -0.375q-0.1875 -0.234375 -0.296875 -0.578125q-0.109375 -0.34375 -0.140625 -0.796875l3.015625 -2.265625q0 0.1875 0 0.359375q0 0.171875 0 0.34375l0 1.203125zm6.576309 -1.328125l-1.65625 -2.375l-1.71875 0l2.46875 3.46875l-2.546875 3.578125l1.71875 0l1.75 -2.453125l1.765625 2.453125l1.71875 0l-2.5625 -3.578125l2.484375 -3.46875l-1.734375 0l-1.6875 2.375zm9.123184 4.671875l0 -9.46875l-0.09375 0l-3.90625 1.4375l0 1.375l2.4375 -0.890625l0 7.546875l1.5625 0zm9.873184 -3.609375l0 -2.25q0 -0.90625 -0.21875 -1.609375q-0.21875 -0.703125 -0.609375 -1.1875q-0.40625 -0.46875 -0.984375 -0.703125q-0.5625 -0.25 -1.28125 -0.25q-0.71875 0 -1.296875 0.25q-0.5625 0.234375 -0.953125 0.703125q-0.390625 0.484375 -0.609375 1.1875q-0.203125 0.703125 -0.203125 1.609375l0 2.25q0 0.90625 0.203125 1.609375q0.21875 0.703125 0.609375 1.171875q0.40625 0.484375 0.96875 0.734375q0.578125 0.234375 1.296875 0.234375q0.71875 0 1.28125 -0.234375q0.578125 -0.25 0.96875 -0.734375q0.40625 -0.46875 0.609375 -1.171875q0.21875 -0.703125 0.21875 -1.609375zm-4.59375 -0.5625q0 -0.1875 0 -0.3125q0 -0.125 0 -0.375l0 -1.28125q0 -0.578125 0.09375 -1.015625q0.109375 -0.4375 0.328125 -0.703125q0.171875 -0.25 0.4375 -0.359375q0.28125 -0.125 0.640625 -0.125q0.328125 0 0.59375 0.109375q0.265625 0.09375 0.453125 0.296875q0.203125 0.234375 0.3125 0.609375q0.125 0.375 0.140625 0.875l-3.0 2.28125zm3.015625 0.828125q0 0.59375 -0.109375 1.03125q-0.109375 0.4375 -0.3125 0.71875q-0.1875 0.234375 -0.46875 0.359375q-0.265625 0.109375 -0.609375 0.109375q-0.359375 0 -0.625 -0.109375q-0.265625 -0.125 -0.453125 -0.375q-0.1875 -0.234375 -0.296875 -0.578125q-0.109375 -0.34375 -0.140625 -0.796875l3.015625 -2.265625q0 0.1875 0 0.359375q0 0.171875 0 0.34375l0 1.203125zm8.607574 -0.03125l0 -6.09375l-1.609375 0l-4.09375 6.390625l0.046875 0.96875l4.09375 0l0 2.109375l1.5625 0l0 -2.109375l1.1875 0l0 -1.265625l-1.1875 0zm-4.109375 0l2.375 -3.671875l0.171875 -0.34375l0 4.015625l-2.546875 0zm12.107544 0l0 -6.09375l-1.609375 0l-4.09375 6.390625l0.046875 0.96875l4.09375 0l0 2.109375l1.5625 0l0 -2.109375l1.1875 0l0 -1.265625l-1.1875 0zm-4.109375 0l2.375 -3.671875l0.171875 -0.34375l0 4.015625l-2.546875 0z" fill-rule="nonzero"/><path fill="#000000" fill-opacity="0.0" d="m530.52496 161.7454l-122.26773 0.37794495" fill-rule="evenodd"/><path stroke="#000000" stroke-width="2.0" stroke-linejoin="round" stroke-linecap="butt" d="m530.52496 161.7454l-122.26773 0.37794495" fill-rule="evenodd"/><path fill="#000000" fill-opacity="0.0" d="m407.40683 209.7454l0.3149414 -48.0" fill-rule="evenodd"/><path stroke="#000000" stroke-width="2.0" stroke-linejoin="round" stroke-linecap="butt" d="m407.45657 202.16557l0.26519775 -40.420166" fill-rule="evenodd"/><path fill="#000000" stroke="#000000" stroke-width="2.0" stroke-linecap="butt" d="m407.4134 208.74542c-1.8169861 -0.011917114 -3.2802734 -1.4945374 -3.268341 -3.3115082c0.0119018555 -1.8169861 1.4945374 -3.2802734 3.3115234 -3.268341c1.8169556 0.011917114 3.280243 1.4945374 3.268341 3.3115082c-0.011932373 1.8169861 -1.4945374 3.2802734 -3.3115234 3.268341z" fill-rule="nonzero"/><path fill="#000000" fill-opacity="0.0" d="m530.7139 191.76115l-0.18896484 -30.015747" fill-rule="evenodd"/><path stroke="#000000" stroke-width="2.0" stroke-linejoin="round" stroke-linecap="butt" d="m530.63837 179.7614l-0.11340332 -18.015991" fill-rule="evenodd"/><path fill="#000000" stroke="#000000" stroke-width="2.0" stroke-linecap="butt" d="m527.33496 179.7822l3.3605347 9.055206l3.2462769 -9.096802z" fill-rule="evenodd"/><path fill="#000000" fill-opacity="0.0" d="m369.7533 216.4895l71.18109 0l0 35.55905l-71.18109 0z" fill-rule="evenodd"/><path fill="#000000" d="m385.84705 234.68013l0 -2.25q0 -0.90625 -0.21875 -1.609375q-0.21875 -0.703125 -0.609375 -1.1875q-0.40625 -0.46875 -0.984375 -0.703125q-0.5625 -0.25 -1.28125 -0.25q-0.71875 0 -1.296875 0.25q-0.5625 0.234375 -0.953125 0.703125q-0.390625 0.484375 -0.609375 1.1875q-0.203125 0.703125 -0.203125 1.609375l0 2.25q0 0.90625 0.203125 1.609375q0.21875 0.703125 0.609375 1.171875q0.40625 0.484375 0.96875 0.734375q0.578125 0.234375 1.296875 0.234375q0.71875 0 1.28125 -0.234375q0.578125 -0.25 0.96875 -0.734375q0.40625 -0.46875 0.609375 -1.171875q0.21875 -0.703125 0.21875 -1.609375zm-4.59375 -0.5625q0 -0.1875 0 -0.3125q0 -0.125 0 -0.375l0 -1.28125q0 -0.578125 0.09375 -1.015625q0.109375 -0.4375 0.328125 -0.703125q0.171875 -0.25 0.4375 -0.359375q0.28125 -0.125 0.640625 -0.125q0.328125 0 0.59375 0.109375q0.265625 0.09375 0.453125 0.296875q0.203125 0.234375 0.3125 0.609375q0.125 0.375 0.140625 0.875l-3.0 2.28125zm3.015625 0.828125q0 0.59375 -0.109375 1.03125q-0.109375 0.4375 -0.3125 0.71875q-0.1875 0.234375 -0.46875 0.359375q-0.265625 0.109375 -0.609375 0.109375q-0.359375 0 -0.625 -0.109375q-0.265625 -0.125 -0.453125 -0.375q-0.1875 -0.234375 -0.296875 -0.578125q-0.109375 -0.34375 -0.140625 -0.796875l3.015625 -2.265625q0 0.1875 0 0.359375q0 0.171875 0 0.34375l0 1.203125zm6.576294 -1.328125l-1.65625 -2.375l-1.71875 0l2.46875 3.46875l-2.546875 3.578125l1.71875 0l1.75 -2.453125l1.765625 2.453125l1.71875 0l-2.5625 -3.578125l2.484375 -3.46875l-1.734375 0l-1.6875 2.375zm9.123199 4.671875l0 -9.46875l-0.09375 0l-3.90625 1.4375l0 1.375l2.4375 -0.890625l0 7.546875l1.5625 0zm9.873169 -3.609375l0 -2.25q0 -0.90625 -0.21875 -1.609375q-0.21875 -0.703125 -0.609375 -1.1875q-0.40625 -0.46875 -0.984375 -0.703125q-0.5625 -0.25 -1.28125 -0.25q-0.71875 0 -1.296875 0.25q-0.5625 0.234375 -0.953125 0.703125q-0.390625 0.484375 -0.609375 1.1875q-0.203125 0.703125 -0.203125 1.609375l0 2.25q0 0.90625 0.203125 1.609375q0.21875 0.703125 0.609375 1.171875q0.40625 0.484375 0.96875 0.734375q0.578125 0.234375 1.296875 0.234375q0.71875 0 1.28125 -0.234375q0.578125 -0.25 0.96875 -0.734375q0.40625 -0.46875 0.609375 -1.171875q0.21875 -0.703125 0.21875 -1.609375zm-4.59375 -0.5625q0 -0.1875 0 -0.3125q0 -0.125 0 -0.375l0 -1.28125q0 -0.578125 0.09375 -1.015625q0.109375 -0.4375 0.328125 -0.703125q0.171875 -0.25 0.4375 -0.359375q0.28125 -0.125 0.640625 -0.125q0.328125 0 0.59375 0.109375q0.265625 0.09375 0.453125 0.296875q0.203125 0.234375 0.3125 0.609375q0.125 0.375 0.140625 0.875l-3.0 2.28125zm3.015625 0.828125q0 0.59375 -0.109375 1.03125q-0.109375 0.4375 -0.3125 0.71875q-0.1875 0.234375 -0.46875 0.359375q-0.265625 0.109375 -0.609375 0.109375q-0.359375 0 -0.625 -0.109375q-0.265625 -0.125 -0.453125 -0.375q-0.1875 -0.234375 -0.296875 -0.578125q-0.109375 -0.34375 -0.140625 -0.796875l3.015625 -2.265625q0 0.1875 0 0.359375q0 0.171875 0 0.34375l0 1.203125zm8.138824 -6.171875l-0.1875 0q-1.109375 0 -1.96875 0.34375q-0.84375 0.34375 -1.4375 0.984375q-0.6875 0.75 -0.984375 1.796875q-0.296875 1.03125 -0.296875 2.171875l0 0.640625q0 0.765625 0.21875 1.453125q0.21875 0.6875 0.65625 1.1875q0.40625 0.5 0.984375 0.78125q0.59375 0.28125 1.328125 0.28125q0.734375 0 1.296875 -0.25q0.578125 -0.25 0.96875 -0.6875q0.390625 -0.4375 0.59375 -1.015625q0.21875 -0.59375 0.21875 -1.28125q0 -0.609375 -0.171875 -1.1875q-0.15625 -0.578125 -0.484375 -1.015625q-0.34375 -0.4375 -0.859375 -0.703125q-0.5 -0.265625 -1.1875 -0.265625q-0.328125 0 -0.625 0.078125q-0.296875 0.078125 -0.53125 0.203125q-0.25 0.125 -0.46875 0.296875q-0.203125 0.171875 -0.359375 0.34375q0.0625 -0.609375 0.265625 -1.125q0.21875 -0.53125 0.625 -0.921875q0.390625 -0.375 0.953125 -0.578125q0.578125 -0.21875 1.34375 -0.21875l0.109375 0l0 -1.3125zm-1.703125 4.5q0.375 0 0.65625 0.15625q0.296875 0.15625 0.5 0.421875q0.1875 0.265625 0.28125 0.625q0.109375 0.34375 0.109375 0.75q0 0.40625 -0.109375 0.765625q-0.09375 0.359375 -0.296875 0.625q-0.203125 0.25 -0.484375 0.40625q-0.28125 0.140625 -0.65625 0.140625q-0.328125 0 -0.625 -0.15625q-0.28125 -0.15625 -0.515625 -0.4375q-0.21875 -0.28125 -0.34375 -0.703125q-0.125 -0.4375 -0.125 -1.0l0 -0.484375q0.109375 -0.25 0.265625 -0.4375q0.15625 -0.203125 0.34375 -0.34375q0.21875 -0.15625 0.46875 -0.234375q0.25 -0.09375 0.53125 -0.09375zm10.170044 1.640625l0 -6.09375l-1.609375 0l-4.09375 6.390625l0.046875 0.96875l4.09375 0l0 2.109375l1.5625 0l0 -2.109375l1.1875 0l0 -1.265625l-1.1875 0zm-4.109375 0l2.375 -3.671875l0.171875 -0.34375l0 4.015625l-2.546875 0z" fill-rule="nonzero"/><path fill="#000000" fill-opacity="0.0" d="m521.71655 216.4895l71.18109 0l0 35.55905l-71.18109 0z" fill-rule="evenodd"/><path fill="#000000" d="m537.8103 234.68013l0 -2.25q0 -0.90625 -0.21875 -1.609375q-0.21875 -0.703125 -0.609375 -1.1875q-0.40625 -0.46875 -0.984375 -0.703125q-0.5625 -0.25 -1.28125 -0.25q-0.71875 0 -1.296875 0.25q-0.5625 0.234375 -0.953125 0.703125q-0.390625 0.484375 -0.609375 1.1875q-0.203125 0.703125 -0.203125 1.609375l0 2.25q0 0.90625 0.203125 1.609375q0.21875 0.703125 0.609375 1.171875q0.40625 0.484375 0.96875 0.734375q0.578125 0.234375 1.296875 0.234375q0.71875 0 1.28125 -0.234375q0.578125 -0.25 0.96875 -0.734375q0.40625 -0.46875 0.609375 -1.171875q0.21875 -0.703125 0.21875 -1.609375zm-4.59375 -0.5625q0 -0.1875 0 -0.3125q0 -0.125 0 -0.375l0 -1.28125q0 -0.578125 0.09375 -1.015625q0.109375 -0.4375 0.328125 -0.703125q0.171875 -0.25 0.4375 -0.359375q0.28125 -0.125 0.640625 -0.125q0.328125 0 0.59375 0.109375q0.265625 0.09375 0.453125 0.296875q0.203125 0.234375 0.3125 0.609375q0.125 0.375 0.140625 0.875l-3.0 2.28125zm3.015625 0.828125q0 0.59375 -0.109375 1.03125q-0.109375 0.4375 -0.3125 0.71875q-0.1875 0.234375 -0.46875 0.359375q-0.265625 0.109375 -0.609375 0.109375q-0.359375 0 -0.625 -0.109375q-0.265625 -0.125 -0.453125 -0.375q-0.1875 -0.234375 -0.296875 -0.578125q-0.109375 -0.34375 -0.140625 -0.796875l3.015625 -2.265625q0 0.1875 0 0.359375q0 0.171875 0 0.34375l0 1.203125zm6.576294 -1.328125l-1.65625 -2.375l-1.71875 0l2.46875 3.46875l-2.546875 3.578125l1.71875 0l1.75 -2.453125l1.765625 2.453125l1.71875 0l-2.5625 -3.578125l2.484375 -3.46875l-1.734375 0l-1.6875 2.375zm9.123169 4.671875l0 -9.46875l-0.09375 0l-3.90625 1.4375l0 1.375l2.4375 -0.890625l0 7.546875l1.5625 0zm9.873169 -3.609375l0 -2.25q0 -0.90625 -0.21875 -1.609375q-0.21875 -0.703125 -0.609375 -1.1875q-0.40625 -0.46875 -0.984375 -0.703125q-0.5625 -0.25 -1.28125 -0.25q-0.71875 0 -1.296875 0.25q-0.5625 0.234375 -0.953125 0.703125q-0.390625 0.484375 -0.609375 1.1875q-0.203125 0.703125 -0.203125 1.609375l0 2.25q0 0.90625 0.203125 1.609375q0.21875 0.703125 0.609375 1.171875q0.40625 0.484375 0.96875 0.734375q0.578125 0.234375 1.296875 0.234375q0.71875 0 1.28125 -0.234375q0.578125 -0.25 0.96875 -0.734375q0.40625 -0.46875 0.609375 -1.171875q0.21875 -0.703125 0.21875 -1.609375zm-4.59375 -0.5625q0 -0.1875 0 -0.3125q0 -0.125 0 -0.375l0 -1.28125q0 -0.578125 0.09375 -1.015625q0.109375 -0.4375 0.328125 -0.703125q0.171875 -0.25 0.4375 -0.359375q0.28125 -0.125 0.640625 -0.125q0.328125 0 0.59375 0.109375q0.265625 0.09375 0.453125 0.296875q0.203125 0.234375 0.3125 0.609375q0.125 0.375 0.140625 0.875l-3.0 2.28125zm3.015625 0.828125q0 0.59375 -0.109375 1.03125q-0.109375 0.4375 -0.3125 0.71875q-0.1875 0.234375 -0.46875 0.359375q-0.265625 0.109375 -0.609375 0.109375q-0.359375 0 -0.625 -0.109375q-0.265625 -0.125 -0.453125 -0.375q-0.1875 -0.234375 -0.296875 -0.578125q-0.109375 -0.34375 -0.140625 -0.796875l3.015625 -2.265625q0 0.1875 0 0.359375q0 0.171875 0 0.34375l0 1.203125zm9.388855 -3.625q0 -0.640625 -0.21875 -1.125q-0.21875 -0.5 -0.609375 -0.828125q-0.390625 -0.34375 -0.921875 -0.515625q-0.53125 -0.171875 -1.15625 -0.171875q-0.640625 0 -1.171875 0.171875q-0.53125 0.171875 -0.90625 0.515625q-0.375 0.34375 -0.59375 0.828125q-0.21875 0.484375 -0.21875 1.125q0 0.34375 0.09375 0.671875q0.09375 0.3125 0.28125 0.578125q0.15625 0.265625 0.40625 0.484375q0.25 0.203125 0.546875 0.359375q-0.359375 0.15625 -0.640625 0.390625q-0.28125 0.234375 -0.484375 0.515625q-0.203125 0.296875 -0.3125 0.65625q-0.109375 0.34375 -0.109375 0.734375q0 0.671875 0.234375 1.171875q0.25 0.5 0.671875 0.84375q0.421875 0.34375 0.984375 0.515625q0.5625 0.171875 1.234375 0.171875q0.65625 0 1.21875 -0.171875q0.5625 -0.171875 0.984375 -0.515625q0.40625 -0.34375 0.640625 -0.84375q0.25 -0.515625 0.25 -1.171875q0 -0.46875 -0.15625 -0.859375q-0.140625 -0.390625 -0.40625 -0.703125q-0.1875 -0.234375 -0.4375 -0.40625q-0.25 -0.1875 -0.546875 -0.328125q0.25 -0.125 0.453125 -0.28125q0.203125 -0.171875 0.359375 -0.359375q0.25 -0.296875 0.390625 -0.65625q0.140625 -0.375 0.140625 -0.796875zm-1.34375 4.3125q0 0.359375 -0.125 0.640625q-0.109375 0.28125 -0.3125 0.484375q-0.203125 0.203125 -0.484375 0.3125q-0.28125 0.09375 -0.625 0.09375q-0.359375 0 -0.640625 -0.09375q-0.28125 -0.109375 -0.484375 -0.296875q-0.203125 -0.203125 -0.328125 -0.484375q-0.109375 -0.296875 -0.109375 -0.65625q0 -0.359375 0.109375 -0.640625q0.109375 -0.296875 0.3125 -0.515625q0.203125 -0.203125 0.484375 -0.3125q0.28125 -0.109375 0.640625 -0.109375q0.34375 0 0.625 0.109375q0.296875 0.109375 0.5 0.3125q0.203125 0.21875 0.3125 0.515625q0.125 0.28125 0.125 0.640625zm-0.203125 -4.265625q0 0.328125 -0.109375 0.59375q-0.09375 0.25 -0.265625 0.4375q-0.171875 0.1875 -0.421875 0.296875q-0.25 0.09375 -0.546875 0.09375q-0.3125 0 -0.5625 -0.09375q-0.25 -0.109375 -0.421875 -0.296875q-0.1875 -0.1875 -0.28125 -0.4375q-0.078125 -0.265625 -0.078125 -0.59375q0 -0.328125 0.078125 -0.59375q0.09375 -0.265625 0.265625 -0.4375q0.1875 -0.1875 0.421875 -0.28125q0.25 -0.109375 0.546875 -0.109375q0.3125 0 0.5625 0.109375q0.25 0.09375 0.4375 0.28125q0.171875 0.203125 0.265625 0.46875q0.109375 0.25 0.109375 0.5625zm8.763794 3.546875l0 -6.09375l-1.609375 0l-4.09375 6.390625l0.046875 0.96875l4.09375 0l0 2.109375l1.5625 0l0 -2.109375l1.1875 0l0 -1.265625l-1.1875 0zm-4.109375 0l2.375 -3.671875l0.171875 -0.34375l0 4.015625l-2.546875 0z" fill-rule="nonzero"/><path fill="#ffffff" d="m681.73755 191.76115l151.1181 0l0 27.496063l-151.1181 0z" fill-rule="evenodd"/><path stroke="#000000" stroke-width="2.0" stroke-linejoin="round" stroke-linecap="butt" d="m681.73755 191.76115l151.1181 0l0 27.496063l-151.1181 0z" fill-rule="evenodd"/><path fill="#cccccc" d="m681.73755 191.76115l56.125977 0l0 27.496063l-56.125977 0z" fill-rule="evenodd"/><path stroke="#000000" stroke-width="2.0" stroke-linejoin="round" stroke-linecap="butt" d="m681.73755 191.76115l56.125977 0l0 27.496063l-56.125977 0z" fill-rule="evenodd"/><path fill="#000000" fill-opacity="0.0" d="m673.6798 216.4895l71.18109 0l0 35.55905l-71.18109 0z" fill-rule="evenodd"/><path fill="#000000" d="m689.77356 234.68013l0 -2.25q0 -0.90625 -0.21875 -1.609375q-0.21875 -0.703125 -0.609375 -1.1875q-0.40625 -0.46875 -0.984375 -0.703125q-0.5625 -0.25 -1.28125 -0.25q-0.71875 0 -1.296875 0.25q-0.5625 0.234375 -0.953125 0.703125q-0.390625 0.484375 -0.609375 1.1875q-0.203125 0.703125 -0.203125 1.609375l0 2.25q0 0.90625 0.203125 1.609375q0.21875 0.703125 0.609375 1.171875q0.40625 0.484375 0.96875 0.734375q0.578125 0.234375 1.296875 0.234375q0.71875 0 1.28125 -0.234375q0.578125 -0.25 0.96875 -0.734375q0.40625 -0.46875 0.609375 -1.171875q0.21875 -0.703125 0.21875 -1.609375zm-4.59375 -0.5625q0 -0.1875 0 -0.3125q0 -0.125 0 -0.375l0 -1.28125q0 -0.578125 0.09375 -1.015625q0.109375 -0.4375 0.328125 -0.703125q0.171875 -0.25 0.4375 -0.359375q0.28125 -0.125 0.640625 -0.125q0.328125 0 0.59375 0.109375q0.265625 0.09375 0.453125 0.296875q0.203125 0.234375 0.3125 0.609375q0.125 0.375 0.140625 0.875l-3.0 2.28125zm3.015625 0.828125q0 0.59375 -0.109375 1.03125q-0.109375 0.4375 -0.3125 0.71875q-0.1875 0.234375 -0.46875 0.359375q-0.265625 0.109375 -0.609375 0.109375q-0.359375 0 -0.625 -0.109375q-0.265625 -0.125 -0.453125 -0.375q-0.1875 -0.234375 -0.296875 -0.578125q-0.109375 -0.34375 -0.140625 -0.796875l3.015625 -2.265625q0 0.1875 0 0.359375q0 0.171875 0 0.34375l0 1.203125zm6.576294 -1.328125l-1.65625 -2.375l-1.71875 0l2.46875 3.46875l-2.546875 3.578125l1.71875 0l1.75 -2.453125l1.765625 2.453125l1.71875 0l-2.5625 -3.578125l2.484375 -3.46875l-1.734375 0l-1.6875 2.375zm9.123169 4.671875l0 -9.46875l-0.09375 0l-3.90625 1.4375l0 1.375l2.4375 -0.890625l0 7.546875l1.5625 0zm9.873169 -3.609375l0 -2.25q0 -0.90625 -0.21875 -1.609375q-0.21875 -0.703125 -0.609375 -1.1875q-0.40625 -0.46875 -0.984375 -0.703125q-0.5625 -0.25 -1.28125 -0.25q-0.71875 0 -1.296875 0.25q-0.5625 0.234375 -0.953125 0.703125q-0.390625 0.484375 -0.609375 1.1875q-0.203125 0.703125 -0.203125 1.609375l0 2.25q0 0.90625 0.203125 1.609375q0.21875 0.703125 0.609375 1.171875q0.40625 0.484375 0.96875 0.734375q0.578125 0.234375 1.296875 0.234375q0.71875 0 1.28125 -0.234375q0.578125 -0.25 0.96875 -0.734375q0.40625 -0.46875 0.609375 -1.171875q0.21875 -0.703125 0.21875 -1.609375zm-4.59375 -0.5625q0 -0.1875 0 -0.3125q0 -0.125 0 -0.375l0 -1.28125q0 -0.578125 0.09375 -1.015625q0.109375 -0.4375 0.328125 -0.703125q0.171875 -0.25 0.4375 -0.359375q0.28125 -0.125 0.640625 -0.125q0.328125 0 0.59375 0.109375q0.265625 0.09375 0.453125 0.296875q0.203125 0.234375 0.3125 0.609375q0.125 0.375 0.140625 0.875l-3.0 2.28125zm3.015625 0.828125q0 0.59375 -0.109375 1.03125q-0.109375 0.4375 -0.3125 0.71875q-0.1875 0.234375 -0.46875 0.359375q-0.265625 0.109375 -0.609375 0.109375q-0.359375 0 -0.625 -0.109375q-0.265625 -0.125 -0.453125 -0.375q-0.1875 -0.234375 -0.296875 -0.578125q-0.109375 -0.34375 -0.140625 -0.796875l3.015625 -2.265625q0 0.1875 0 0.359375q0 0.171875 0 0.34375l0 1.203125zm8.06073 1.15625l0.625 2.1875l1.625 0l-3.03125 -9.46875l-1.390625 0l-3.078125 9.46875l1.625 0l0.640625 -2.1875l2.984375 0zm-2.578125 -1.328125l1.09375 -3.75l1.09375 3.75l-2.1875 0zm11.123169 0.140625l0 -6.09375l-1.609375 0l-4.09375 6.390625l0.046875 0.96875l4.09375 0l0 2.109375l1.5625 0l0 -2.109375l1.1875 0l0 -1.265625l-1.1875 0zm-4.109375 0l2.375 -3.671875l0.171875 -0.34375l0 4.015625l-2.546875 0z" fill-rule="nonzero"/><path fill="#cccccc" d="m77.35958 276.6509l56.125984 0l0 27.496063l-56.125984 0z" fill-rule="evenodd"/><path stroke="#000000" stroke-width="2.0" stroke-linejoin="round" stroke-linecap="butt" d="m77.35958 276.6509l56.125984 0l0 27.496063l-56.125984 0z" fill-rule="evenodd"/><path fill="#000000" fill-opacity="0.0" d="m7.5485563 272.61942l80.157486 0l0 35.55905l-80.157486 0z" fill-rule="evenodd"/><path fill="#000000" d="m18.439182 287.37256l-1.34375 0l0 7.046875l1.421875 0l0 -5.40625q0.046875 -0.09375 0.09375 -0.171875q0.046875 -0.078125 0.109375 -0.140625q0.09375 -0.09375 0.203125 -0.125q0.125 -0.046875 0.28125 -0.046875q0.140625 0 0.25 0.046875q0.125 0.03125 0.203125 0.109375q0.09375 0.09375 0.125 0.25q0.046875 0.140625 0.046875 0.34375l0 5.140625l1.40625 0l0 -5.21875q0 -0.078125 0 -0.109375q0 -0.03125 0 -0.0625q0.03125 -0.109375 0.078125 -0.1875q0.046875 -0.09375 0.125 -0.15625q0.09375 -0.078125 0.203125 -0.109375q0.109375 -0.046875 0.25 -0.046875q0.15625 0 0.265625 0.046875q0.125 0.03125 0.203125 0.109375q0.09375 0.09375 0.140625 0.25q0.046875 0.140625 0.046875 0.34375l0 5.140625l1.421875 0l0 -5.125q0 -0.546875 -0.109375 -0.9375q-0.109375 -0.40625 -0.328125 -0.640625q-0.203125 -0.234375 -0.484375 -0.34375q-0.28125 -0.125 -0.625 -0.125q-0.265625 0 -0.484375 0.0625q-0.203125 0.0625 -0.390625 0.1875q-0.125 0.09375 -0.25 0.21875q-0.109375 0.125 -0.203125 0.28125q-0.0625 -0.171875 -0.15625 -0.296875q-0.09375 -0.125 -0.21875 -0.21875q-0.140625 -0.109375 -0.359375 -0.171875q-0.203125 -0.0625 -0.46875 -0.0625q-0.5 0 -0.859375 0.25q-0.34375 0.234375 -0.546875 0.65625l-0.046875 -0.78125zm13.045059 8.28125l0 -1.234375l-5.953125 0l0 1.234375l5.953125 0zm2.0763092 1.46875l1.5625 0l0 -3.34375q0.125 0.140625 0.265625 0.265625q0.140625 0.109375 0.296875 0.203125q0.265625 0.140625 0.578125 0.21875q0.328125 0.078125 0.703125 0.078125q0.65625 0 1.171875 -0.265625q0.515625 -0.28125 0.875 -0.75q0.34375 -0.484375 0.515625 -1.140625q0.1875 -0.65625 0.1875 -1.421875l0 -0.125q0 -0.796875 -0.1875 -1.453125q-0.171875 -0.671875 -0.515625 -1.140625q-0.359375 -0.484375 -0.875 -0.734375q-0.515625 -0.265625 -1.1875 -0.265625q-0.359375 0 -0.671875 0.078125q-0.296875 0.078125 -0.546875 0.203125q-0.1875 0.109375 -0.359375 0.25q-0.171875 0.140625 -0.3125 0.328125l-0.0625 -0.734375l-1.4375 0l0 9.75zm4.59375 -6.28125l0 0.125q0 0.46875 -0.09375 0.890625q-0.078125 0.421875 -0.28125 0.75q-0.203125 0.3125 -0.515625 0.5q-0.296875 0.1875 -0.734375 0.1875q-0.265625 0 -0.484375 -0.0625q-0.21875 -0.0625 -0.40625 -0.171875q-0.171875 -0.109375 -0.296875 -0.25q-0.125 -0.15625 -0.21875 -0.34375l0 -3.125q0.109375 -0.1875 0.25 -0.34375q0.140625 -0.15625 0.328125 -0.265625q0.15625 -0.09375 0.359375 -0.140625q0.21875 -0.0625 0.453125 -0.0625q0.4375 0 0.75 0.1875q0.3125 0.171875 0.515625 0.484375q0.1875 0.3125 0.28125 0.734375q0.09375 0.421875 0.09375 0.90625zm6.513809 -5.1875l-1.546875 0l0 1.71875l-1.71875 0l0 1.171875l1.71875 0l0 3.453125q0 0.6875 0.171875 1.171875q0.171875 0.46875 0.5 0.78125q0.3125 0.3125 0.75 0.46875q0.453125 0.140625 0.984375 0.140625q0.296875 0 0.59375 -0.03125q0.296875 -0.03125 0.578125 -0.078125q0.265625 -0.0625 0.5 -0.125q0.234375 -0.078125 0.40625 -0.1875l-0.171875 -1.078125q-0.109375 0.03125 -0.28125 0.078125q-0.171875 0.03125 -0.375 0.046875q-0.1875 0.03125 -0.40625 0.0625q-0.21875 0.015625 -0.421875 0.015625q-0.28125 0 -0.515625 -0.0625q-0.234375 -0.0625 -0.40625 -0.21875q-0.15625 -0.15625 -0.265625 -0.421875q-0.09375 -0.265625 -0.09375 -0.65625l0 -3.359375l2.65625 0l0 -1.171875l-2.65625 0l0 -1.71875zm9.748184 1.59375q-0.734375 0 -1.34375 0.34375q-0.59375 0.328125 -1.015625 0.921875l-0.015625 -0.15625l-0.0625 -0.984375l-1.453125 0l0 7.046875l1.5625 0l0 -4.34375q0.109375 -0.3125 0.296875 -0.546875q0.1875 -0.25 0.4375 -0.40625q0.25 -0.15625 0.5625 -0.234375q0.3125 -0.078125 0.703125 -0.078125q0.34375 0 0.6875 0.046875q0.359375 0.03125 0.703125 0.109375l0.234375 -1.546875q-0.203125 -0.0625 -0.5625 -0.109375q-0.359375 -0.0625 -0.734375 -0.0625zm7.341934 7.171875l0 -9.46875l-0.09375 0l-3.90625 1.4375l0 1.375l2.4375 -0.890625l0 7.546875l1.5625 0z" fill-rule="nonzero"/><path fill="#000000" fill-opacity="0.0" d="m112.19948 293.70078l0 -42.99974l-34.48819 0l0 -31.078995" fill-rule="evenodd"/><path stroke="#000000" stroke-width="2.0" stroke-linejoin="round" stroke-linecap="butt" d="m112.19948 286.1208l0 -35.419754l-34.48819 0l0 -19.078995" fill-rule="evenodd"/><path fill="#000000" stroke="#000000" stroke-width="2.0" stroke-linecap="butt" d="m112.19948 292.70078c-1.8170166 0 -3.290001 -1.4729614 -3.290001 -3.289978c0 -1.8170166 1.4729843 -3.2900085 3.290001 -3.2900085c1.8170166 0 3.2899933 1.472992 3.2899933 3.2900085c0 1.8170166 -1.4729767 3.289978 -3.2899933 3.289978z" fill-rule="nonzero"/><path fill="#000000" stroke="#000000" stroke-width="2.0" stroke-linecap="butt" d="m81.01475 231.62204l-3.3034592 -9.076187l-3.3034668 9.076187z" fill-rule="evenodd"/><path fill="#000000" fill-opacity="0.0" d="m69.4462 48.92651l247.9685 0l0 35.559055l-247.9685 0z" fill-rule="evenodd"/><path fill="#000000" d="m80.33682 63.679634l-1.34375 0l0 7.046875l1.421875 0l0 -5.40625q0.046875 -0.09375 0.09375 -0.171875q0.046875 -0.078125 0.109375 -0.140625q0.09375 -0.09375 0.203125 -0.125q0.125 -0.046875 0.28125 -0.046875q0.140625 0 0.25 0.046875q0.125 0.03125 0.203125 0.109375q0.09375 0.09375 0.125 0.25q0.046875 0.140625 0.046875 0.34375l0 5.140625l1.40625 0l0 -5.21875q0 -0.078125 0 -0.109375q0 -0.03125 0 -0.0625q0.03125 -0.109375 0.078125 -0.1875q0.046875 -0.09375 0.125 -0.15625q0.09375 -0.078125 0.203125 -0.109375q0.109375 -0.046875 0.25 -0.046875q0.15625 0 0.265625 0.046875q0.125 0.03125 0.203125 0.109375q0.09375 0.09375 0.140625 0.25q0.046875 0.140625 0.046875 0.34375l0 5.140625l1.421875 0l0 -5.125q0 -0.546875 -0.109375 -0.9375q-0.109375 -0.40625 -0.328125 -0.640625q-0.203125 -0.234375 -0.484375 -0.34375q-0.28125 -0.125 -0.625 -0.125q-0.265625 0 -0.484375 0.0625q-0.203125 0.0625 -0.390625 0.1875q-0.125 0.09375 -0.25 0.21875q-0.109375 0.125 -0.203125 0.28125q-0.0625 -0.171875 -0.15625 -0.296875q-0.09375 -0.125 -0.21875 -0.21875q-0.140625 -0.109375 -0.359375 -0.171875q-0.203125 -0.0625 -0.46875 -0.0625q-0.5 0 -0.859375 0.25q-0.34375 0.234375 -0.546875 0.65625l-0.046875 -0.78125zm13.045059 8.28125l0 -1.234375l-5.953125 0l0 1.234375l5.953125 0zm2.0763092 1.46875l1.5625 0l0 -3.34375q0.125 0.140625 0.265625 0.265625q0.140625 0.109375 0.296875 0.203125q0.265625 0.140625 0.578125 0.21875q0.328125 0.078125 0.703125 0.078125q0.65625 0 1.171875 -0.265625q0.515625 -0.28125 0.875 -0.75q0.34375 -0.484375 0.515625 -1.140625q0.1875 -0.65625 0.1875 -1.421875l0 -0.125q0 -0.796875 -0.1875 -1.453125q-0.171875 -0.671875 -0.515625 -1.140625q-0.359375 -0.484375 -0.875 -0.734375q-0.515625 -0.265625 -1.1875 -0.265625q-0.359375 0 -0.671875 0.078125q-0.296875 0.078125 -0.546875 0.203125q-0.1875 0.109375 -0.359375 0.25q-0.171875 0.140625 -0.3125 0.328125l-0.0625 -0.734375l-1.4375 0l0 9.75zm4.59375 -6.28125l0 0.125q0 0.46875 -0.09375 0.890625q-0.078125 0.421875 -0.28125 0.75q-0.203125 0.3125 -0.515625 0.5q-0.296875 0.1875 -0.734375 0.1875q-0.265625 0 -0.484375 -0.0625q-0.21875 -0.0625 -0.40625 -0.171875q-0.171875 -0.109375 -0.296875 -0.25q-0.125 -0.15625 -0.21875 -0.34375l0 -3.125q0.109375 -0.1875 0.25 -0.34375q0.140625 -0.15625 0.328125 -0.265625q0.15625 -0.09375 0.359375 -0.140625q0.21875 -0.0625 0.453125 -0.0625q0.4375 0 0.75 0.1875q0.3125 0.171875 0.515625 0.484375q0.1875 0.3125 0.28125 0.734375q0.09375 0.421875 0.09375 0.90625zm6.513809 -5.1875l-1.546875 0l0 1.71875l-1.71875 0l0 1.171875l1.71875 0l0 3.453125q0 0.6875 0.171875 1.171875q0.171875 0.46875 0.5 0.78125q0.3125 0.3125 0.75 0.46875q0.453125 0.140625 0.984375 0.140625q0.296875 0 0.59375 -0.03125q0.296875 -0.03125 0.578125 -0.078125q0.265625 -0.0625 0.5 -0.125q0.234375 -0.078125 0.40625 -0.1875l-0.171875 -1.078125q-0.109375 0.03125 -0.28125 0.078125q-0.171875 0.03125 -0.375 0.046875q-0.1875 0.03125 -0.40625 0.0625q-0.21875 0.015625 -0.421875 0.015625q-0.28125 0 -0.515625 -0.0625q-0.234375 -0.0625 -0.40625 -0.21875q-0.15625 -0.15625 -0.265625 -0.421875q-0.09375 -0.265625 -0.09375 -0.65625l0 -3.359375l2.65625 0l0 -1.171875l-2.65625 0l0 -1.71875zm9.748184 1.59375q-0.734375 0 -1.34375 0.34375q-0.59375 0.328125 -1.015625 0.921875l-0.015625 -0.15625l-0.0625 -0.984375l-1.453125 0l0 7.046875l1.5625 0l0 -4.34375q0.109375 -0.3125 0.296875 -0.546875q0.1875 -0.25 0.4375 -0.40625q0.25 -0.15625 0.5625 -0.234375q0.3125 -0.078125 0.703125 -0.078125q0.34375 0 0.6875 0.046875q0.359375 0.03125 0.703125 0.109375l0.234375 -1.546875q-0.203125 -0.0625 -0.5625 -0.109375q-0.359375 -0.0625 -0.734375 -0.0625zm7.341934 7.171875l0 -9.46875l-0.09375 0l-3.90625 1.4375l0 1.375l2.4375 -0.890625l0 7.546875l1.5625 0zm17.855743 -4.828125l0 -1.3125l-6.015625 0l0 1.3125l6.015625 0zm0 2.75l0 -1.296875l-6.015625 0l0 1.296875l6.015625 0zm14.418243 2.078125l1.59375 0l0 -0.109375q-0.125 -0.28125 -0.203125 -0.65625q-0.0625 -0.375 -0.0625 -0.859375l0 -3.125q0 -0.59375 -0.21875 -1.046875q-0.21875 -0.46875 -0.609375 -0.765625q-0.390625 -0.296875 -0.9375 -0.453125q-0.53125 -0.15625 -1.15625 -0.15625q-0.6875 0 -1.234375 0.1875q-0.53125 0.171875 -0.890625 0.46875q-0.375 0.3125 -0.578125 0.703125q-0.1875 0.390625 -0.1875 0.8125l1.5625 0q0 -0.203125 0.0625 -0.375q0.078125 -0.1875 0.234375 -0.3125q0.15625 -0.140625 0.390625 -0.21875q0.234375 -0.078125 0.5625 -0.078125q0.34375 0 0.609375 0.09375q0.28125 0.078125 0.46875 0.25q0.171875 0.15625 0.265625 0.390625q0.09375 0.21875 0.09375 0.484375l0 0.484375l-1.125 0q-0.765625 0 -1.375 0.140625q-0.59375 0.140625 -1.0 0.40625q-0.4375 0.296875 -0.671875 0.75q-0.234375 0.4375 -0.234375 1.015625q0 0.453125 0.171875 0.84375q0.1875 0.390625 0.515625 0.65625q0.3125 0.28125 0.765625 0.4375q0.453125 0.15625 1.0 0.15625q0.34375 0 0.625 -0.0625q0.296875 -0.0625 0.546875 -0.171875q0.265625 -0.125 0.46875 -0.265625q0.203125 -0.15625 0.359375 -0.328125q0.03125 0.203125 0.078125 0.390625q0.046875 0.1875 0.109375 0.3125zm-1.890625 -1.125q-0.296875 0 -0.515625 -0.0625q-0.21875 -0.078125 -0.375 -0.21875q-0.140625 -0.125 -0.21875 -0.3125q-0.078125 -0.1875 -0.078125 -0.390625q0 -0.265625 0.09375 -0.46875q0.09375 -0.21875 0.28125 -0.359375q0.21875 -0.1875 0.59375 -0.28125q0.375 -0.09375 0.875 -0.09375l1.0 0l0 1.3125q-0.078125 0.171875 -0.234375 0.328125q-0.15625 0.15625 -0.375 0.265625q-0.21875 0.125 -0.484375 0.203125q-0.25 0.078125 -0.5625 0.078125zm5.701309 -8.875l0 1.296875l2.21875 0l0 7.421875l-2.21875 0l0 1.28125l5.921875 0l0 -1.28125l-2.125 0l0 -8.71875l-3.796875 0zm7.998184 0l0 1.296875l2.21875 0l0 7.421875l-2.21875 0l0 1.28125l5.921875 0l0 -1.28125l-2.125 0l0 -8.71875l-3.796875 0zm7.404434 6.421875l0 0.125q0 0.78125 0.21875 1.4375q0.234375 0.640625 0.65625 1.125q0.40625 0.484375 1.015625 0.765625q0.625 0.265625 1.390625 0.265625q0.765625 0 1.375 -0.265625q0.609375 -0.28125 1.03125 -0.765625q0.40625 -0.484375 0.625 -1.125q0.234375 -0.65625 0.234375 -1.4375l0 -0.125q0 -0.78125 -0.234375 -1.421875q-0.21875 -0.65625 -0.625 -1.140625q-0.421875 -0.484375 -1.03125 -0.75q-0.609375 -0.28125 -1.390625 -0.28125q-0.765625 0 -1.375 0.28125q-0.609375 0.265625 -1.015625 0.75q-0.421875 0.484375 -0.65625 1.140625q-0.21875 0.640625 -0.21875 1.421875zm1.5625 0.125l0 -0.125q0 -0.46875 0.09375 -0.890625q0.109375 -0.421875 0.3125 -0.75q0.21875 -0.3125 0.53125 -0.5q0.328125 -0.1875 0.765625 -0.1875q0.453125 0 0.765625 0.1875q0.328125 0.1875 0.546875 0.5q0.203125 0.328125 0.296875 0.75q0.109375 0.421875 0.109375 0.890625l0 0.125q0 0.484375 -0.109375 0.90625q-0.09375 0.421875 -0.296875 0.734375q-0.203125 0.328125 -0.53125 0.515625q-0.328125 0.171875 -0.765625 0.171875q-0.453125 0 -0.78125 -0.171875q-0.3125 -0.1875 -0.53125 -0.515625q-0.203125 -0.3125 -0.3125 -0.734375q-0.09375 -0.421875 -0.09375 -0.90625zm9.795059 2.328125q-0.5 0 -0.828125 -0.1875q-0.3125 -0.203125 -0.5 -0.515625q-0.203125 -0.3125 -0.28125 -0.71875q-0.078125 -0.421875 -0.078125 -0.859375l0 -0.21875q0 -0.421875 0.078125 -0.828125q0.078125 -0.421875 0.28125 -0.734375q0.1875 -0.328125 0.5 -0.515625q0.328125 -0.203125 0.828125 -0.203125q0.3125 0 0.59375 0.109375q0.28125 0.109375 0.46875 0.296875q0.203125 0.1875 0.3125 0.453125q0.109375 0.25 0.109375 0.53125l1.453125 0q0.015625 -0.59375 -0.203125 -1.078125q-0.21875 -0.484375 -0.609375 -0.84375q-0.390625 -0.34375 -0.9375 -0.53125q-0.546875 -0.203125 -1.171875 -0.203125q-0.8125 0 -1.421875 0.28125q-0.609375 0.28125 -1.015625 0.765625q-0.40625 0.484375 -0.625 1.125q-0.203125 0.640625 -0.203125 1.375l0 0.21875q0 0.734375 0.203125 1.375q0.21875 0.640625 0.625 1.125q0.40625 0.484375 1.015625 0.765625q0.609375 0.28125 1.421875 0.28125q0.578125 0 1.109375 -0.1875q0.53125 -0.203125 0.953125 -0.53125q0.390625 -0.328125 0.625 -0.78125q0.25 -0.453125 0.234375 -0.96875l-1.453125 0q0 0.265625 -0.125 0.484375q-0.125 0.21875 -0.328125 0.390625q-0.203125 0.15625 -0.484375 0.25q-0.265625 0.078125 -0.546875 0.078125zm9.420059 1.125l1.59375 0l0 -0.109375q-0.125 -0.28125 -0.203125 -0.65625q-0.0625 -0.375 -0.0625 -0.859375l0 -3.125q0 -0.59375 -0.21875 -1.046875q-0.21875 -0.46875 -0.609375 -0.765625q-0.390625 -0.296875 -0.9375 -0.453125q-0.53125 -0.15625 -1.15625 -0.15625q-0.6875 0 -1.234375 0.1875q-0.53125 0.171875 -0.890625 0.46875q-0.375 0.3125 -0.578125 0.703125q-0.1875 0.390625 -0.1875 0.8125l1.5625 0q0 -0.203125 0.0625 -0.375q0.078125 -0.1875 0.234375 -0.3125q0.15625 -0.140625 0.390625 -0.21875q0.234375 -0.078125 0.5625 -0.078125q0.34375 0 0.609375 0.09375q0.28125 0.078125 0.46875 0.25q0.171875 0.15625 0.265625 0.390625q0.09375 0.21875 0.09375 0.484375l0 0.484375l-1.125 0q-0.765625 0 -1.375 0.140625q-0.59375 0.140625 -1.0 0.40625q-0.4375 0.296875 -0.671875 0.75q-0.234375 0.4375 -0.234375 1.015625q0 0.453125 0.171875 0.84375q0.1875 0.390625 0.515625 0.65625q0.3125 0.28125 0.765625 0.4375q0.453125 0.15625 1.0 0.15625q0.34375 0 0.625 -0.0625q0.296875 -0.0625 0.546875 -0.171875q0.265625 -0.125 0.46875 -0.265625q0.203125 -0.15625 0.359375 -0.328125q0.03125 0.203125 0.078125 0.390625q0.046875 0.1875 0.109375 0.3125zm-1.890625 -1.125q-0.296875 0 -0.515625 -0.0625q-0.21875 -0.078125 -0.375 -0.21875q-0.140625 -0.125 -0.21875 -0.3125q-0.078125 -0.1875 -0.078125 -0.390625q0 -0.265625 0.09375 -0.46875q0.09375 -0.21875 0.28125 -0.359375q0.21875 -0.1875 0.59375 -0.28125q0.375 -0.09375 0.875 -0.09375l1.0 0l0 1.3125q-0.078125 0.171875 -0.234375 0.328125q-0.15625 0.15625 -0.375 0.265625q-0.21875 0.125 -0.484375 0.203125q-0.25 0.078125 -0.5625 0.078125zm8.513809 -7.640625l-1.546875 0l0 1.71875l-1.71875 0l0 1.171875l1.71875 0l0 3.453125q0 0.6875 0.171875 1.171875q0.171875 0.46875 0.5 0.78125q0.3125 0.3125 0.75 0.46875q0.453125 0.140625 0.984375 0.140625q0.296875 0 0.59375 -0.03125q0.296875 -0.03125 0.578125 -0.078125q0.265625 -0.0625 0.5 -0.125q0.234375 -0.078125 0.40625 -0.1875l-0.171875 -1.078125q-0.109375 0.03125 -0.28125 0.078125q-0.171875 0.03125 -0.375 0.046875q-0.1875 0.03125 -0.40625 0.0625q-0.21875 0.015625 -0.421875 0.015625q-0.28125 0 -0.515625 -0.0625q-0.234375 -0.0625 -0.40625 -0.21875q-0.15625 -0.15625 -0.265625 -0.421875q-0.09375 -0.265625 -0.09375 -0.65625l0 -3.359375l2.65625 0l0 -1.171875l-2.65625 0l0 -1.71875zm8.170059 8.890625q1.03125 0 1.75 -0.390625q0.734375 -0.40625 1.078125 -0.921875l-0.828125 -0.796875q-0.328125 0.40625 -0.828125 0.640625q-0.5 0.21875 -1.078125 0.21875q-0.421875 0 -0.78125 -0.140625q-0.359375 -0.140625 -0.609375 -0.40625q-0.265625 -0.25 -0.421875 -0.5625q-0.140625 -0.3125 -0.21875 -0.765625l0 -0.046875l4.890625 0l0 -0.65625q0 -0.765625 -0.203125 -1.390625q-0.203125 -0.640625 -0.609375 -1.109375q-0.390625 -0.453125 -0.984375 -0.703125q-0.578125 -0.265625 -1.34375 -0.265625q-0.6875 0 -1.296875 0.265625q-0.59375 0.25 -1.046875 0.71875q-0.453125 0.484375 -0.71875 1.15625q-0.25 0.671875 -0.25 1.484375l0 0.265625q0 0.734375 0.25 1.359375q0.25 0.609375 0.703125 1.0625q0.46875 0.46875 1.109375 0.734375q0.65625 0.25 1.4375 0.25zm-0.1875 -6.03125q0.390625 0 0.6875 0.140625q0.296875 0.125 0.484375 0.34375q0.203125 0.234375 0.3125 0.53125q0.109375 0.296875 0.109375 0.609375l0 0.109375l-3.3125 0q0.078125 -0.40625 0.21875 -0.71875q0.15625 -0.328125 0.375 -0.5625q0.21875 -0.21875 0.5 -0.328125q0.296875 -0.125 0.625 -0.125zm6.170059 2.046875l0 0.125q0 0.921875 0.140625 1.734375q0.140625 0.8125 0.390625 1.5q0.234375 0.6875 0.546875 1.25q0.328125 0.578125 0.6875 1.03125q0.359375 0.4375 0.71875 0.75q0.375 0.3125 0.734375 0.46875l0.3125 -0.859375q-0.265625 -0.203125 -0.53125 -0.515625q-0.25 -0.296875 -0.5 -0.6875q-0.21875 -0.375 -0.4375 -0.875q-0.203125 -0.5 -0.359375 -1.09375q-0.125 -0.484375 -0.21875 -1.1875q-0.078125 -0.703125 -0.078125 -1.515625l0 -0.125q0 -0.84375 0.09375 -1.546875q0.09375 -0.71875 0.25 -1.3125q0.171875 -0.640625 0.421875 -1.171875q0.25 -0.53125 0.53125 -0.921875q0.203125 -0.28125 0.40625 -0.5q0.203125 -0.234375 0.421875 -0.390625l-0.3125 -0.890625q-0.359375 0.15625 -0.734375 0.46875q-0.359375 0.3125 -0.71875 0.75q-0.34375 0.453125 -0.671875 1.03125q-0.328125 0.5625 -0.5625 1.25q-0.25 0.6875 -0.390625 1.515625q-0.140625 0.8125 -0.140625 1.71875zm8.373184 -1.578125l0 1.21875l0.921875 0q0.40625 0 0.734375 0.09375q0.328125 0.09375 0.5625 0.28125q0.234375 0.203125 0.359375 0.5q0.125 0.28125 0.125 0.6875q0 0.375 -0.109375 0.65625q-0.109375 0.28125 -0.296875 0.46875q-0.21875 0.203125 -0.53125 0.3125q-0.296875 0.09375 -0.671875 0.09375q-0.34375 0 -0.640625 -0.09375q-0.28125 -0.109375 -0.5 -0.296875q-0.203125 -0.1875 -0.328125 -0.453125q-0.109375 -0.265625 -0.109375 -0.578125l-1.546875 0q0 0.671875 0.25 1.171875q0.25 0.484375 0.6875 0.828125q0.421875 0.34375 0.984375 0.515625q0.578125 0.15625 1.1875 0.15625q0.671875 0 1.25 -0.171875q0.59375 -0.1875 1.015625 -0.546875q0.4375 -0.359375 0.671875 -0.875q0.25 -0.515625 0.25 -1.1875q0 -0.34375 -0.09375 -0.671875q-0.078125 -0.34375 -0.265625 -0.640625q-0.1875 -0.28125 -0.484375 -0.515625q-0.296875 -0.234375 -0.71875 -0.375q0.359375 -0.171875 0.625 -0.40625q0.265625 -0.234375 0.4375 -0.5q0.171875 -0.265625 0.265625 -0.5625q0.09375 -0.296875 0.09375 -0.578125q0 -0.671875 -0.234375 -1.171875q-0.21875 -0.5 -0.625 -0.84375q-0.390625 -0.34375 -0.953125 -0.515625q-0.5625 -0.171875 -1.234375 -0.171875q-0.65625 0 -1.203125 0.203125q-0.546875 0.1875 -0.953125 0.53125q-0.40625 0.359375 -0.640625 0.84375q-0.21875 0.46875 -0.21875 1.03125l1.546875 0q0 -0.3125 0.109375 -0.546875q0.125 -0.25 0.328125 -0.4375q0.1875 -0.171875 0.453125 -0.265625q0.28125 -0.09375 0.59375 -0.09375q0.359375 0 0.640625 0.109375q0.28125 0.09375 0.453125 0.265625q0.1875 0.1875 0.28125 0.453125q0.09375 0.265625 0.09375 0.609375q0 0.3125 -0.109375 0.578125q-0.09375 0.265625 -0.28125 0.453125q-0.203125 0.203125 -0.515625 0.328125q-0.3125 0.109375 -0.734375 0.109375l-0.921875 0zm12.388809 5.4375l0 -1.25l-4.421875 0l2.109375 -2.25q0.421875 -0.453125 0.765625 -0.859375q0.359375 -0.421875 0.625 -0.828125q0.25 -0.421875 0.390625 -0.828125q0.15625 -0.421875 0.15625 -0.875q0 -0.59375 -0.203125 -1.09375q-0.1875 -0.5 -0.5625 -0.859375q-0.375 -0.359375 -0.921875 -0.5625q-0.546875 -0.203125 -1.25 -0.203125q-0.734375 0 -1.34375 0.25q-0.59375 0.234375 -1.015625 0.640625q-0.421875 0.421875 -0.65625 0.96875q-0.21875 0.546875 -0.21875 1.15625l1.5625 0q0 -0.40625 0.09375 -0.71875q0.109375 -0.328125 0.3125 -0.5625q0.203125 -0.203125 0.5 -0.3125q0.3125 -0.125 0.734375 -0.125q0.328125 0 0.59375 0.109375q0.265625 0.109375 0.453125 0.296875q0.1875 0.203125 0.28125 0.484375q0.09375 0.265625 0.09375 0.59375q0 0.25 -0.078125 0.5q-0.0625 0.234375 -0.21875 0.515625q-0.15625 0.28125 -0.421875 0.625q-0.25 0.328125 -0.640625 0.75l-3.078125 3.359375l0 1.078125l6.359375 0zm6.607559 -3.734375l0 -0.125q0 -0.921875 -0.15625 -1.71875q-0.15625 -0.796875 -0.390625 -1.484375q-0.234375 -0.703125 -0.5625 -1.265625q-0.328125 -0.578125 -0.703125 -1.03125q-0.359375 -0.4375 -0.734375 -0.75q-0.375 -0.328125 -0.734375 -0.484375l-0.3125 0.859375q0.203125 0.15625 0.40625 0.390625q0.21875 0.234375 0.421875 0.53125q0.28125 0.40625 0.53125 0.96875q0.265625 0.5625 0.4375 1.25q0.140625 0.546875 0.234375 1.234375q0.09375 0.6875 0.09375 1.5l0 0.125q0 0.796875 -0.09375 1.46875q-0.078125 0.671875 -0.21875 1.25q-0.140625 0.625 -0.359375 1.125q-0.21875 0.515625 -0.46875 0.921875q-0.234375 0.359375 -0.484375 0.640625q-0.25 0.28125 -0.5 0.46875l0.3125 0.859375q0.359375 -0.15625 0.734375 -0.46875q0.375 -0.3125 0.734375 -0.78125q0.359375 -0.4375 0.6875 -1.015625q0.328125 -0.5625 0.578125 -1.265625q0.25 -0.6875 0.390625 -1.484375q0.15625 -0.8125 0.15625 -1.71875zm5.607559 -2.71875q0 0.453125 0.296875 0.765625q0.296875 0.296875 0.828125 0.296875q0.515625 0 0.8125 -0.296875q0.3125 -0.3125 0.3125 -0.765625q0 -0.453125 -0.296875 -0.765625q-0.296875 -0.328125 -0.828125 -0.328125q-0.546875 0 -0.84375 0.328125q-0.28125 0.3125 -0.28125 0.765625zm1.828125 6.25l0 -1.3125l-1.53125 0l0 1.375q0 0.640625 -0.15625 1.15625q-0.140625 0.515625 -0.421875 0.96875l0.875 0.46875q0.546875 -0.5 0.890625 -1.234375q0.34375 -0.71875 0.34375 -1.421875z" fill-rule="nonzero"/><path fill="#000000" d="m705.09186 200.50131l9.417358 0l0 10.015747l-9.417358 0z" fill-rule="evenodd"/><path stroke="#000000" stroke-width="1.0" stroke-linejoin="round" stroke-linecap="butt" d="m705.09186 200.50131l9.417358 0l0 10.015747l-9.417358 0z" fill-rule="evenodd"/></g></svg>