<svg version="1.1" viewBox="0.0 0.0 409.78740157480314 250.8503937007874" fill="none" stroke="none" stroke-linecap="square" stroke-miterlimit="10" xmlns:xlink="http://www.w3.org/1999/xlink" xmlns="http://www.w3.org/2000/svg"><clipPath id="p.0"><path d="m0 0l409.7874 0l0 250.85039l-409.7874 0l0 -250.85039z" clip-rule="nonzero"/></clipPath><g clip-path="url(#p.0)"><path fill="#000000" fill-opacity="0.0" d="m0 0l409.7874 0l0 250.85039l-409.7874 0z" fill-rule="evenodd"/><path fill="#000000" fill-opacity="0.0" d="m7.6587925 10.530184l404.0315 0l0 237.44882l-404.0315 0z" fill-rule="evenodd"/><path fill="#000000" d="m22.190042 31.68706l-0.625 3.203123l1.109375 0l0.625 -3.203123l1.96875 0l0 -1.078125l-1.765625 0l0.546875 -2.765625l1.8125 0l0 -1.078125l-1.609375 0l0.640625 -3.25l-1.109375 0l-0.640625 3.25l-2.0625 0l0.640625 -3.25l-1.125 0l-0.640625 3.25l-2.21875 0l0 1.078125l2.015625 0l-0.546875 2.765625l-2.0625 0l0 1.078125l1.859375 0l-0.625 3.203123l1.125 0l0.625 -3.203123l2.0625 0zm-1.859375 -1.078125l0.53125 -2.765625l2.0625 0l-0.53125 2.765625l-2.0625 0zm7.5234375 -4.171875l0 1.25l2.875 0l0 5.953123l-2.875 0l0 1.25l7.078127 0l0 -1.25l-2.765625 0l0 -7.203123l-4.312502 0zm2.6875 -2.21875q0 0.34375 0.203125 0.578125q0.21875 0.234375 0.65625 0.234375q0.4375 0 0.6562519 -0.234375q0.21875 -0.234375 0.21875 -0.578125q0 -0.203125 -0.0625 -0.359375q-0.0625 -0.171875 -0.1875 -0.28125q-0.10937691 -0.09375 -0.2656269 -0.15625q-0.15625 -0.0625 -0.359375 -0.0625q-0.203125 0 -0.359375 0.0625q-0.15625 0.0625 -0.265625 0.15625q-0.125 0.125 -0.1875 0.296875q-0.046875 0.15625 -0.046875 0.34375zm6.6796894 10.671873l1.453125 0l0 -6.062498q0.140625 -0.28125 0.34375 -0.5q0.203125 -0.234375 0.4375 -0.40625q0.28125 -0.1875 0.625 -0.296875q0.34375 -0.125 0.75 -0.125q0.453125 0 0.8125 0.109375q0.359375 0.109375 0.609375 0.359375q0.234375 0.234375 0.359375 0.625q0.125 0.390625 0.125 0.953125l0 5.343748l1.453125 0l0 -5.374998q0 -0.84375 -0.21875 -1.453125q-0.203125 -0.609375 -0.578125 -1.015625q-0.390625 -0.390625 -0.9375 -0.578125q-0.53125 -0.1875 -1.203125 -0.1875q-0.484375 0 -0.9375 0.140625q-0.4375 0.140625 -0.8125 0.390625q-0.25 0.15625 -0.46875 0.390625q-0.21875 0.21875 -0.40625 0.484375l-0.109375 -1.25l-1.296875 0l0 8.453123zm13.2109375 -1.015625q-0.6875 0 -1.140625 -0.265625q-0.453125 -0.28125 -0.734375 -0.71875q-0.28125 -0.421875 -0.40625 -0.9687481q-0.109375 -0.546875 -0.109375 -1.09375l0 -0.328125q0 -0.546875 0.109375 -1.078125q0.125 -0.546875 0.40625 -0.984375q0.28125 -0.4375 0.734375 -0.703125q0.46875 -0.265625 1.140625 -0.265625q0.4375 0 0.8125 0.15625q0.375 0.140625 0.65625 0.390625q0.265625 0.265625 0.421875 0.609375q0.171875 0.328125 0.171875 0.71875l1.375 0q0 -0.640625 -0.265625 -1.203125q-0.25 -0.5625 -0.703125 -0.984375q-0.46875 -0.40625 -1.09375 -0.640625q-0.625 -0.234375 -1.375 -0.234375q-0.96875 0 -1.6875 0.34375q-0.71875 0.34375 -1.1875 0.921875q-0.484375 0.578125 -0.734375 1.34375q-0.234375 0.765625 -0.234375 1.609375l0 0.328125q0 0.84375 0.234375 1.6093731q0.25 0.75 0.734375 1.328125q0.46875 0.59375 1.1875 0.9375q0.71875 0.34375 1.6875 0.34375q0.671875 0 1.28125 -0.234375q0.625 -0.234375 1.09375 -0.625q0.484375 -0.375 0.765625 -0.890625q0.28125 -0.515625 0.296875 -1.078125l-1.375 0q0 0.359375 -0.1875 0.65625q-0.171875 0.296875 -0.453125 0.515625q-0.296875 0.234375 -0.671875 0.359375q-0.359375 0.125 -0.75 0.125zm6.2265625 -10.984373l0 1.25l2.875 0l0 9.499998l-2.875 0l0 1.25l7.078125 0l0 -1.25l-2.765625 0l0 -10.749998l-4.3125 0zm14.945309 11.999998l1.3125 0l0 -8.453123l-1.453125 0l0 6.062498q-0.125 0.265625 -0.296875 0.5q-0.171875 0.234375 -0.40625 0.390625q-0.28125 0.203125 -0.671875 0.328125q-0.375 0.109375 -0.859375 0.109375q-0.421875 0 -0.734375 -0.109375q-0.3125 -0.109375 -0.53125 -0.390625q-0.21875 -0.265625 -0.328125 -0.71875q-0.109375 -0.453125 -0.109375 -1.1406231l0 -5.03125l-1.453125 0l0 5.015625q0 0.9531231 0.203125 1.6249981q0.21875 0.671875 0.59375 1.109375q0.390625 0.4375 0.921875 0.65625q0.546875 0.203125 1.203125 0.203125q0.828125 0 1.453125 -0.34375q0.640625 -0.359375 1.0625 -0.984375l0.09375 1.171875zm3.7578125 -4.296873l0 0.15625q0 0.90625 0.234375 1.7031231q0.25 0.78125 0.6875 1.359375q0.4375 0.578125 1.046875 0.90625q0.625 0.328125 1.390625 0.328125q0.78125 0 1.359375 -0.265625q0.59375 -0.265625 1.015625 -0.78125l0.0625 0.890625l1.328125 0l0 -11.999998l-1.4375 0l0 4.375q-0.421875 -0.484375 -0.984375 -0.734375q-0.5625 -0.25 -1.328125 -0.25q-0.765625 0 -1.390625 0.328125q-0.625 0.3125 -1.0625 0.875q-0.453125 0.578125 -0.6875 1.375q-0.234375 0.78125 -0.234375 1.734375zm1.4375 0.15625l0 -0.15625q0 -0.625 0.125 -1.171875q0.140625 -0.5625 0.421875 -1.0q0.28125 -0.421875 0.703125 -0.671875q0.4375 -0.25 1.046875 -0.25q0.71875 0 1.1875 0.34375q0.484375 0.328125 0.765625 0.84375l0 3.921873q-0.28125 0.546875 -0.765625 0.875q-0.46875 0.328125 -1.203125 0.328125q-0.59375 0 -1.03125 -0.234375q-0.421875 -0.25 -0.703125 -0.671875q-0.28125 -0.421875 -0.421875 -0.9687481q-0.125 -0.5625 -0.125 -1.1875zm12.1640625 4.296873q1.234375 0 2.078125 -0.5q0.84375 -0.5 1.265625 -1.140625l-0.890625 -0.6875q-0.390625 0.515625 -1.0 0.828125q-0.59375 0.3125 -1.375 0.3125q-0.578125 0 -1.0625 -0.21875q-0.484375 -0.21875 -0.828125 -0.59375q-0.34375 -0.359375 -0.53125 -0.828125q-0.1875 -0.4687481 -0.25 -1.0937481l0 -0.046875l6.046875 0l0 -0.65625q0 -0.875 -0.234375 -1.625q-0.21875 -0.765625 -0.671875 -1.328125q-0.453125 -0.5625 -1.140625 -0.875q-0.671875 -0.3125 -1.59375 -0.3125q-0.71875 0 -1.421875 0.296875q-0.6875 0.296875 -1.21875 0.84375q-0.546875 0.5625 -0.875 1.375q-0.328125 0.8125 -0.328125 1.828125l0 0.328125q0 0.890625 0.296875 1.6406231q0.296875 0.75 0.828125 1.296875q0.53125 0.546875 1.265625 0.859375q0.75 0.296875 1.640625 0.296875zm-0.1875 -7.578123q0.5625 0 0.953125 0.203125q0.40625 0.203125 0.671875 0.53125q0.265625 0.328125 0.40625 0.78125q0.15625 0.4375 0.15625 0.828125l0 0.078125l-4.546875 0q0.09375 -0.59375 0.296875 -1.03125q0.21875 -0.453125 0.53125 -0.765625q0.3125 -0.3125 0.703125 -0.46875q0.390625 -0.15625 0.828125 -0.15625zm22.25 5.890623l0 -1.5312481l-4.78125 -1.84375l-0.40625 -0.140625l0.40625 -0.140625l4.78125 -1.875l0 -1.53125l-6.625 2.953125l0 1.140625l6.625 2.968748zm3.0078125 4.78125l1.4375 0l0 -4.0625q0.15625 0.171875 0.328125 0.3125q0.1875 0.140625 0.390625 0.265625q0.34375 0.1875 0.75 0.28125q0.421875 0.109375 0.90625 0.109375q0.796875 0 1.421875 -0.328125q0.625 -0.328125 1.046875 -0.90625q0.421875 -0.578125 0.640625 -1.359375q0.21875 -0.7968731 0.21875 -1.7031231l0 -0.15625q0 -0.953125 -0.21875 -1.734375q-0.21875 -0.796875 -0.640625 -1.375q-0.421875 -0.5625 -1.046875 -0.875q-0.625 -0.328125 -1.4375 -0.328125q-0.46875 0 -0.875 0.09375q-0.390625 0.09375 -0.71875 0.28125q-0.234375 0.125 -0.4375 0.3125q-0.203125 0.171875 -0.375 0.390625l-0.078125 -0.921875l-1.3125 0l0 11.703123zm5.6875 -7.546873l0 0.15625q0 0.625 -0.140625 1.1875q-0.125 0.5624981 -0.40625 0.9843731q-0.28125 0.4375 -0.71875 0.6875q-0.4375 0.25 -1.046875 0.25q-0.375 0 -0.6875 -0.09375q-0.296875 -0.09375 -0.546875 -0.25q-0.21875 -0.140625 -0.390625 -0.34375q-0.171875 -0.203125 -0.3125 -0.4375l0 -4.078123q0.15625 -0.265625 0.34375 -0.484375q0.203125 -0.21875 0.453125 -0.359375q0.21875 -0.15625 0.5 -0.234375q0.296875 -0.078125 0.625 -0.078125q0.609375 0 1.046875 0.25q0.4375 0.25 0.734375 0.671875q0.28125 0.4375 0.40625 1.0q0.140625 0.546875 0.140625 1.171875zm9.460945 -4.3125q-0.921875 0 -1.6562576 0.40625q-0.71875 0.390625 -1.234375 1.09375l0 -0.21875l-0.0625 -1.125l-1.375 0l0 8.453123l1.453125 0l0 -5.421873q0.140625 -0.390625 0.34375 -0.703125q0.21875 -0.328125 0.515625 -0.546875q0.3125 -0.25 0.734375 -0.375q0.43750763 -0.125 0.9687576 -0.125q0.421875 0 0.796875 0.046875q0.375 0.03125 0.796875 0.125l0.203125 -1.40625q-0.21875 -0.09375 -0.65625 -0.140625q-0.4375 -0.0625 -0.828125 -0.0625zm4.2890625 0.15625l0 1.25l2.875 0l0 5.953123l-2.875 0l0 1.25l7.078125 0l0 -1.25l-2.765625 0l0 -7.203123l-4.3125 0zm2.6875 -2.21875q0 0.34375 0.203125 0.578125q0.21875 0.234375 0.65625 0.234375q0.4375 0 0.65625 -0.234375q0.21875 -0.234375 0.21875 -0.578125q0 -0.203125 -0.0625 -0.359375q-0.0625 -0.171875 -0.1875 -0.28125q-0.109375 -0.09375 -0.265625 -0.15625q-0.15625 -0.0625 -0.359375 -0.0625q-0.203125 0 -0.359375 0.0625q-0.15625 0.0625 -0.265625 0.15625q-0.125 0.125 -0.1875 0.296875q-0.046875 0.15625 -0.046875 0.34375zm6.6796875 10.671873l1.453125 0l0 -6.062498q0.140625 -0.28125 0.34375 -0.5q0.203125 -0.234375 0.4375 -0.40625q0.28125 -0.1875 0.625 -0.296875q0.34375 -0.125 0.75 -0.125q0.453125 0 0.8125 0.109375q0.359375 0.109375 0.609375 0.359375q0.234375 0.234375 0.359375 0.625q0.125 0.390625 0.125 0.953125l0 5.343748l1.453125 0l0 -5.374998q0 -0.84375 -0.21875 -1.453125q-0.203125 -0.609375 -0.578125 -1.015625q-0.390625 -0.390625 -0.9375 -0.578125q-0.53125 -0.1875 -1.203125 -0.1875q-0.484375 0 -0.9375 0.140625q-0.4375 0.140625 -0.8125 0.390625q-0.25 0.15625 -0.46875 0.390625q-0.21875 0.21875 -0.40625 0.484375l-0.109375 -1.25l-1.296875 0l0 8.453123zm13.0234375 -10.499998l-1.453125 0l0 2.046875l-2.21875 0l0 1.109375l2.21875 0l0 4.593748q0 0.78125 0.203125 1.34375q0.21875 0.546875 0.578125 0.890625q0.359375 0.34375 0.84375 0.515625q0.484375 0.15625 1.046875 0.15625q0.34375 0 0.671875 -0.03125q0.34375 -0.03125 0.65625 -0.09375q0.296875 -0.0625 0.546875 -0.140625q0.265625 -0.078125 0.453125 -0.1875l-0.203125 -1.03125q-0.140625 0.03125 -0.34375 0.078125q-0.203125 0.046875 -0.4375 0.078125q-0.25 0.046875 -0.5 0.078125q-0.25 0.015625 -0.484375 0.015625q-0.3125 0 -0.609375 -0.078125q-0.28125 -0.078125 -0.5 -0.265625q-0.21875 -0.1875 -0.34375 -0.5q-0.125 -0.328125 -0.125 -0.828125l0 -4.593748l3.21875 0l0 -1.109375l-3.21875 0l0 -2.046875zm6.2109375 8.953123l6.90625 -2.953123l0 -1.140625l-6.90625 -2.953125l0 1.484375l5.0625 1.875l0.46875 0.15625l-0.46875 0.125l-5.0625 1.90625l0 1.4999981z" fill-rule="nonzero"/><path fill="#000000" d="m22.190042 50.88706l-0.625 3.203125l1.109375 0l0.625 -3.203125l1.96875 0l0 -1.078125l-1.765625 0l0.546875 -2.765625l1.8125 0l0 -1.078125l-1.609375 0l0.640625 -3.25l-1.109375 0l-0.640625 3.25l-2.0625 0l0.640625 -3.25l-1.125 0l-0.640625 3.25l-2.21875 0l0 1.078125l2.015625 0l-0.546875 2.765625l-2.0625 0l0 1.078125l1.859375 0l-0.625 3.203125l1.125 0l0.625 -3.203125l2.0625 0zm-1.859375 -1.078125l0.53125 -2.765625l2.0625 0l-0.53125 2.765625l-2.0625 0zm7.5234375 -4.171875l0 1.25l2.875 0l0 5.953125l-2.875 0l0 1.25l7.078127 0l0 -1.25l-2.765625 0l0 -7.203125l-4.312502 0zm2.6875 -2.21875q0 0.34375 0.203125 0.578125q0.21875 0.234375 0.65625 0.234375q0.4375 0 0.6562519 -0.234375q0.21875 -0.234375 0.21875 -0.578125q0 -0.203125 -0.0625 -0.359375q-0.0625 -0.171875 -0.1875 -0.28125q-0.10937691 -0.09375 -0.2656269 -0.15625q-0.15625 -0.0625 -0.359375 -0.0625q-0.203125 0 -0.359375 0.0625q-0.15625 0.0625 -0.265625 0.15625q-0.125 0.125 -0.1875 0.296875q-0.046875 0.15625 -0.046875 0.34375zm6.6796894 10.671875l1.453125 0l0 -6.0625q0.140625 -0.28125 0.34375 -0.5q0.203125 -0.234375 0.4375 -0.40625q0.28125 -0.1875 0.625 -0.296875q0.34375 -0.125 0.75 -0.125q0.453125 0 0.8125 0.109375q0.359375 0.109375 0.609375 0.359375q0.234375 0.234375 0.359375 0.625q0.125 0.390625 0.125 0.953125l0 5.34375l1.453125 0l0 -5.375q0 -0.84375 -0.21875 -1.453125q-0.203125 -0.609375 -0.578125 -1.015625q-0.390625 -0.390625 -0.9375 -0.578125q-0.53125 -0.1875 -1.203125 -0.1875q-0.484375 0 -0.9375 0.140625q-0.4375 0.140625 -0.8125 0.390625q-0.25 0.15625 -0.46875 0.390625q-0.21875 0.21875 -0.40625 0.484375l-0.109375 -1.25l-1.296875 0l0 8.453125zm13.2109375 -1.015625q-0.6875 0 -1.140625 -0.265625q-0.453125 -0.28125 -0.734375 -0.71875q-0.28125 -0.421875 -0.40625 -0.96875q-0.109375 -0.546875 -0.109375 -1.09375l0 -0.328125q0 -0.546875 0.109375 -1.078125q0.125 -0.546875 0.40625 -0.984375q0.28125 -0.4375 0.734375 -0.703125q0.46875 -0.265625 1.140625 -0.265625q0.4375 0 0.8125 0.15625q0.375 0.140625 0.65625 0.390625q0.265625 0.265625 0.421875 0.609375q0.171875 0.328125 0.171875 0.71875l1.375 0q0 -0.640625 -0.265625 -1.203125q-0.25 -0.5625 -0.703125 -0.984375q-0.46875 -0.40625 -1.09375 -0.640625q-0.625 -0.234375 -1.375 -0.234375q-0.96875 0 -1.6875 0.34375q-0.71875 0.34375 -1.1875 0.921875q-0.484375 0.578125 -0.734375 1.34375q-0.234375 0.765625 -0.234375 1.609375l0 0.328125q0 0.84375 0.234375 1.609375q0.25 0.75 0.734375 1.328125q0.46875 0.59375 1.1875 0.9375q0.71875 0.34375 1.6875 0.34375q0.671875 0 1.28125 -0.234375q0.625 -0.234375 1.09375 -0.625q0.484375 -0.375 0.765625 -0.890625q0.28125 -0.515625 0.296875 -1.078125l-1.375 0q0 0.359375 -0.1875 0.65625q-0.171875 0.296875 -0.453125 0.515625q-0.296875 0.234375 -0.671875 0.359375q-0.359375 0.125 -0.75 0.125zm6.2265625 -10.984375l0 1.25l2.875 0l0 9.5l-2.875 0l0 1.25l7.078125 0l0 -1.25l-2.765625 0l0 -10.75l-4.3125 0zm14.945309 12.0l1.3125 0l0 -8.453125l-1.453125 0l0 6.0625q-0.125 0.265625 -0.296875 0.5q-0.171875 0.234375 -0.40625 0.390625q-0.28125 0.203125 -0.671875 0.328125q-0.375 0.109375 -0.859375 0.109375q-0.421875 0 -0.734375 -0.109375q-0.3125 -0.109375 -0.53125 -0.390625q-0.21875 -0.265625 -0.328125 -0.71875q-0.109375 -0.453125 -0.109375 -1.140625l0 -5.03125l-1.453125 0l0 5.015625q0 0.953125 0.203125 1.625q0.21875 0.671875 0.59375 1.109375q0.390625 0.4375 0.921875 0.65625q0.546875 0.203125 1.203125 0.203125q0.828125 0 1.453125 -0.34375q0.640625 -0.359375 1.0625 -0.984375l0.09375 1.171875zm3.7578125 -4.296875l0 0.15625q0 0.90625 0.234375 1.703125q0.25 0.78125 0.6875 1.359375q0.4375 0.578125 1.046875 0.90625q0.625 0.328125 1.390625 0.328125q0.78125 0 1.359375 -0.265625q0.59375 -0.265625 1.015625 -0.78125l0.0625 0.890625l1.328125 0l0 -12.0l-1.4375 0l0 4.375q-0.421875 -0.484375 -0.984375 -0.734375q-0.5625 -0.25 -1.328125 -0.25q-0.765625 0 -1.390625 0.328125q-0.625 0.3125 -1.0625 0.875q-0.453125 0.578125 -0.6875 1.375q-0.234375 0.78125 -0.234375 1.734375zm1.4375 0.15625l0 -0.15625q0 -0.625 0.125 -1.171875q0.140625 -0.5625 0.421875 -1.0q0.28125 -0.421875 0.703125 -0.671875q0.4375 -0.25 1.046875 -0.25q0.71875 0 1.1875 0.34375q0.484375 0.328125 0.765625 0.84375l0 3.921875q-0.28125 0.546875 -0.765625 0.875q-0.46875 0.328125 -1.203125 0.328125q-0.59375 0 -1.03125 -0.234375q-0.421875 -0.25 -0.703125 -0.671875q-0.28125 -0.421875 -0.421875 -0.96875q-0.125 -0.5625 -0.125 -1.1875zm12.1640625 4.296875q1.234375 0 2.078125 -0.5q0.84375 -0.5 1.265625 -1.140625l-0.890625 -0.6875q-0.390625 0.515625 -1.0 0.828125q-0.59375 0.3125 -1.375 0.3125q-0.578125 0 -1.0625 -0.21875q-0.484375 -0.21875 -0.828125 -0.59375q-0.34375 -0.359375 -0.53125 -0.828125q-0.1875 -0.46875 -0.25 -1.09375l0 -0.046875l6.046875 0l0 -0.65625q0 -0.875 -0.234375 -1.625q-0.21875 -0.765625 -0.671875 -1.328125q-0.453125 -0.5625 -1.140625 -0.875q-0.671875 -0.3125 -1.59375 -0.3125q-0.71875 0 -1.421875 0.296875q-0.6875 0.296875 -1.21875 0.84375q-0.546875 0.5625 -0.875 1.375q-0.328125 0.8125 -0.328125 1.828125l0 0.328125q0 0.890625 0.296875 1.640625q0.296875 0.75 0.828125 1.296875q0.53125 0.546875 1.265625 0.859375q0.75 0.296875 1.640625 0.296875zm-0.1875 -7.578125q0.5625 0 0.953125 0.203125q0.40625 0.203125 0.671875 0.53125q0.265625 0.328125 0.40625 0.78125q0.15625 0.4375 0.15625 0.828125l0 0.078125l-4.546875 0q0.09375 -0.59375 0.296875 -1.03125q0.21875 -0.453125 0.53125 -0.765625q0.3125 -0.3125 0.703125 -0.46875q0.390625 -0.15625 0.828125 -0.15625zm22.25 5.890625l0 -1.53125l-4.78125 -1.84375l-0.40625 -0.140625l0.40625 -0.140625l4.78125 -1.875l0 -1.53125l-6.625 2.953125l0 1.140625l6.625 2.96875zm8.6328125 -0.71875q0 0.203125 -0.078125 0.390625q-0.078125 0.171875 -0.234375 0.328125q-0.234375 0.234375 -0.671875 0.375q-0.421875 0.140625 -1.0 0.140625q-0.375 0 -0.75 -0.078125q-0.375 -0.078125 -0.671875 -0.265625q-0.3125 -0.1875 -0.53125 -0.484375q-0.203125 -0.3125 -0.234375 -0.765625l-1.4375 0q0 0.546875 0.234375 1.046875q0.25 0.5 0.71875 0.875q0.46875 0.375 1.140625 0.609375q0.671875 0.234375 1.53125 0.234375q0.75 0 1.375 -0.171875q0.640625 -0.1875 1.09375 -0.515625q0.453125 -0.328125 0.703125 -0.78125q0.25 -0.46875 0.25 -1.03125q0 -0.53125 -0.21875 -0.921875q-0.21875 -0.40625 -0.640625 -0.703125q-0.421875 -0.296875 -1.046875 -0.515625q-0.609375 -0.21875 -1.390625 -0.375q-0.59375 -0.125 -0.984375 -0.25q-0.390625 -0.125 -0.609375 -0.28125q-0.234375 -0.15625 -0.328125 -0.34375q-0.09375 -0.203125 -0.09375 -0.453125q0 -0.234375 0.109375 -0.453125q0.125 -0.234375 0.359375 -0.40625q0.21875 -0.171875 0.5625 -0.265625q0.359375 -0.109375 0.8125 -0.109375q0.453125 0 0.796875 0.125q0.359375 0.125 0.609375 0.328125q0.25 0.203125 0.390625 0.46875q0.140625 0.25 0.140625 0.53125l1.453125 0q0 -0.5625 -0.25 -1.03125q-0.234375 -0.484375 -0.671875 -0.84375q-0.4375 -0.359375 -1.0625 -0.5625q-0.625 -0.203125 -1.40625 -0.203125q-0.71875 0 -1.328125 0.203125q-0.609375 0.1875 -1.046875 0.515625q-0.4375 0.34375 -0.6875 0.796875q-0.234375 0.4375 -0.234375 0.953125q0 0.53125 0.234375 0.921875q0.234375 0.390625 0.671875 0.6875q0.421875 0.296875 1.015625 0.515625q0.59375 0.203125 1.328125 0.34375q0.59375 0.125 0.984375 0.265625q0.40625 0.140625 0.640625 0.3125q0.25 0.171875 0.34375 0.390625q0.109375 0.203125 0.109375 0.453125zm7.3984375 -8.25l-1.453125 0l0 2.046875l-2.21875 0l0 1.109375l2.21875 0l0 4.59375q0 0.78125 0.203125 1.34375q0.21875 0.546875 0.578125 0.890625q0.359375 0.34375 0.84375 0.515625q0.484375 0.15625 1.0468826 0.15625q0.34375 0 0.671875 -0.03125q0.34375 -0.03125 0.65625 -0.09375q0.296875 -0.0625 0.546875 -0.140625q0.265625 -0.078125 0.453125 -0.1875l-0.203125 -1.03125q-0.140625 0.03125 -0.34375 0.078125q-0.203125 0.046875 -0.4375 0.078125q-0.25 0.046875 -0.5 0.078125q-0.25 0.015625 -0.484375 0.015625q-0.3125 0 -0.609375 -0.078125q-0.28125763 -0.078125 -0.5000076 -0.265625q-0.21875 -0.1875 -0.34375 -0.5q-0.125 -0.328125 -0.125 -0.828125l0 -4.59375l3.2187576 0l0 -1.109375l-3.2187576 0l0 -2.046875zm11.72657 1.890625q-0.921875 0 -1.65625 0.40625q-0.71875 0.390625 -1.234375 1.09375l0 -0.21875l-0.0625 -1.125l-1.375 0l0 8.453125l1.453125 0l0 -5.421875q0.140625 -0.390625 0.34375 -0.703125q0.21875 -0.328125 0.515625 -0.546875q0.3125 -0.25 0.734375 -0.375q0.4375 -0.125 0.96875 -0.125q0.421875 0 0.796875 0.046875q0.375 0.03125 0.796875 0.125l0.203125 -1.40625q-0.21875 -0.09375 -0.65625 -0.140625q-0.4375 -0.0625 -0.828125 -0.0625zm4.2890625 0.15625l0 1.25l2.875 0l0 5.953125l-2.875 0l0 1.25l7.078125 0l0 -1.25l-2.765625 0l0 -7.203125l-4.3125 0zm2.6875 -2.21875q0 0.34375 0.203125 0.578125q0.21875 0.234375 0.65625 0.234375q0.4375 0 0.65625 -0.234375q0.21875 -0.234375 0.21875 -0.578125q0 -0.203125 -0.0625 -0.359375q-0.0625 -0.171875 -0.1875 -0.28125q-0.109375 -0.09375 -0.265625 -0.15625q-0.15625 -0.0625 -0.359375 -0.0625q-0.203125 0 -0.359375 0.0625q-0.15625 0.0625 -0.265625 0.15625q-0.125 0.125 -0.1875 0.296875q-0.046875 0.15625 -0.046875 0.34375zm6.6796875 10.671875l1.453125 0l0 -6.0625q0.140625 -0.28125 0.34375 -0.5q0.203125 -0.234375 0.4375 -0.40625q0.28125 -0.1875 0.625 -0.296875q0.34375 -0.125 0.75 -0.125q0.453125 0 0.8125 0.109375q0.359375 0.109375 0.609375 0.359375q0.234375 0.234375 0.359375 0.625q0.125 0.390625 0.125 0.953125l0 5.34375l1.453125 0l0 -5.375q0 -0.84375 -0.21875 -1.453125q-0.203125 -0.609375 -0.578125 -1.015625q-0.390625 -0.390625 -0.9375 -0.578125q-0.53125 -0.1875 -1.203125 -0.1875q-0.484375 0 -0.9375 0.140625q-0.4375 0.140625 -0.8125 0.390625q-0.25 0.15625 -0.46875 0.390625q-0.21875 0.21875 -0.40625 0.484375l-0.109375 -1.25l-1.296875 0l0 8.453125zm9.3359375 -4.296875l0 0.15625q0 0.90625 0.234375 1.703125q0.234375 0.78125 0.671875 1.359375q0.4375 0.578125 1.0625 0.90625q0.625 0.328125 1.390625 0.328125q0.46875 0 0.859375 -0.109375q0.40625 -0.09375 0.734375 -0.265625q0.203125 -0.125 0.390625 -0.28125q0.1875 -0.15625 0.34375 -0.34375l0 0.734375q0 0.546875 -0.15625 0.96875q-0.15625 0.421875 -0.4375 0.703125q-0.296875 0.296875 -0.71875 0.4375q-0.40625 0.15625 -0.921875 0.15625q-0.296875 0 -0.59375 -0.0625q-0.28125 -0.0625 -0.5625 -0.1875q-0.296875 -0.140625 -0.578125 -0.359375q-0.28125 -0.21875 -0.546875 -0.546875l-0.75 0.875q0.296875 0.40625 0.6875 0.6875q0.40625 0.28125 0.84375 0.453125q0.4375 0.171875 0.859375 0.234375q0.421875 0.078125 0.75 0.078125q0.796875 0 1.453125 -0.234375q0.65625 -0.234375 1.125 -0.6875q0.46875 -0.453125 0.734375 -1.109375q0.265625 -0.640625 0.265625 -1.484375l0 -8.265625l-1.3125 0l-0.078125 0.921875q-0.140625 -0.1875 -0.3125 -0.34375q-0.171875 -0.15625 -0.359375 -0.28125q-0.34375 -0.21875 -0.765625 -0.328125q-0.421875 -0.125 -0.9375 -0.125q-0.78125 0 -1.40625 0.328125q-0.625 0.3125 -1.0625 0.875q-0.4375 0.578125 -0.671875 1.375q-0.234375 0.78125 -0.234375 1.734375zm1.453125 0.15625l0 -0.15625q0 -0.625 0.125 -1.171875q0.125 -0.5625 0.40625 -1.0q0.28125 -0.421875 0.703125 -0.671875q0.4375 -0.25 1.046875 -0.25q0.359375 0 0.65625 0.09375q0.296875 0.09375 0.546875 0.25q0.234375 0.15625 0.421875 0.375q0.1875 0.21875 0.328125 0.484375l0 3.875q-0.140625 0.28125 -0.328125 0.515625q-0.1875 0.21875 -0.421875 0.375q-0.234375 0.171875 -0.546875 0.265625q-0.296875 0.078125 -0.671875 0.078125q-0.59375 0 -1.03125 -0.234375q-0.421875 -0.25 -0.703125 -0.671875q-0.28125 -0.421875 -0.40625 -0.96875q-0.125 -0.5625 -0.125 -1.1875zm8.4453125 2.59375l6.90625 -2.953125l0 -1.140625l-6.90625 -2.953125l0 1.484375l5.0625 1.875l0.46875 0.15625l-0.46875 0.125l-5.0625 1.90625l0 1.5z" fill-rule="nonzero"/><path fill="#000000" d="m20.908792 92.49018l1.09375 0l3.453125 -8.453125l-1.484375 0l-2.359375 6.375l-0.140625 0.515625l-0.140625 -0.515625l-2.421875 -6.375l-1.484375 0l3.484375 8.453125zm6.3046875 -4.3125l0 0.171875q0 0.921875 0.265625 1.703125q0.265625 0.78125 0.765625 1.359375q0.5 0.578125 1.203125 0.90625q0.71875 0.328125 1.625 0.328125q0.890625 0 1.5937519 -0.328125q0.71875 -0.328125 1.21875 -0.90625q0.484375 -0.578125 0.75 -1.359375q0.265625 -0.78125 0.265625 -1.703125l0 -0.171875q0 -0.90625 -0.265625 -1.6875q-0.265625 -0.796875 -0.75 -1.375q-0.5 -0.578125 -1.21875 -0.90625q-0.7187519 -0.328125 -1.6093769 -0.328125q-0.890625 0 -1.609375 0.328125q-0.703125 0.328125 -1.203125 0.90625q-0.5 0.578125 -0.765625 1.375q-0.265625 0.78125 -0.265625 1.6875zm1.453125 0.171875l0 -0.171875q0 -0.609375 0.140625 -1.171875q0.15625 -0.578125 0.453125 -1.0q0.296875 -0.4375 0.734375 -0.6875q0.453125 -0.25 1.0625 -0.25q0.59375 0 1.0468769 0.25q0.453125 0.25 0.75 0.6875q0.296875 0.421875 0.453125 1.0q0.15625 0.5625 0.15625 1.171875l0 0.171875q0 0.625 -0.15625 1.203125q-0.140625 0.5625 -0.4375 0.984375q-0.3125 0.4375 -0.765625 0.6875q-0.4375019 0.25 -1.0312519 0.25q-0.609375 0 -1.0625 -0.25q-0.453125 -0.25 -0.75 -0.6875q-0.296875 -0.421875 -0.453125 -0.984375q-0.140625 -0.578125 -0.140625 -1.203125zm8.789064 -4.3125l0 1.25l2.875 0l0 5.953125l-2.875 0l0 1.25l7.078125 0l0 -1.25l-2.765625 0l0 -7.203125l-4.3125 0zm2.6875 -2.21875q0 0.34375 0.203125 0.578125q0.21875 0.234375 0.65625 0.234375q0.4375 0 0.65625 -0.234375q0.21875 -0.234375 0.21875 -0.578125q0 -0.203125 -0.0625 -0.359375q-0.0625 -0.171875 -0.1875 -0.28125q-0.109375 -0.09375 -0.265625 -0.15625q-0.15625 -0.0625 -0.359375 -0.0625q-0.203125 0 -0.359375 0.0625q-0.15625 0.0625 -0.265625 0.15625q-0.125 0.125 -0.1875 0.296875q-0.046875 0.15625 -0.046875 0.34375zm6.4140625 6.375l0 0.15625q0 0.90625 0.234375 1.703125q0.25 0.78125 0.6875 1.359375q0.4375 0.578125 1.046875 0.90625q0.625 0.328125 1.390625 0.328125q0.78125 0 1.359375 -0.265625q0.59375 -0.265625 1.015625 -0.78125l0.0625 0.890625l1.328125 0l0 -12.0l-1.4375 0l0 4.375q-0.421875 -0.484375 -0.984375 -0.734375q-0.5625 -0.25 -1.328125 -0.25q-0.765625 0 -1.390625 0.328125q-0.625 0.3125 -1.0625 0.875q-0.453125 0.578125 -0.6875 1.375q-0.234375 0.78125 -0.234375 1.734375zm1.4375 0.15625l0 -0.15625q0 -0.625 0.125 -1.171875q0.140625 -0.5625 0.421875 -1.0q0.28125 -0.421875 0.703125 -0.671875q0.4375 -0.25 1.046875 -0.25q0.71875 0 1.1875 0.34375q0.484375 0.328125 0.765625 0.84375l0 3.921875q-0.28125 0.546875 -0.765625 0.875q-0.46875 0.328125 -1.203125 0.328125q-0.59375 0 -1.03125 -0.234375q-0.421875 -0.25 -0.703125 -0.671875q-0.28125 -0.421875 -0.421875 -0.96875q-0.125 -0.5625 -0.125 -1.1875zm21.453121 -6.359375l-1.453125 0l0 2.046875l-2.21875 0l0 1.109375l2.21875 0l0 4.59375q0 0.78125 0.203125 1.34375q0.21875 0.546875 0.578125 0.890625q0.359375 0.34375 0.84375 0.515625q0.484375 0.15625 1.046875 0.15625q0.34375 0 0.671875 -0.03125q0.34375 -0.03125 0.65625 -0.09375q0.296875 -0.0625 0.546875 -0.140625q0.265625 -0.078125 0.453125 -0.1875l-0.203125 -1.03125q-0.140625 0.03125 -0.34375 0.078125q-0.203125 0.046875 -0.4375 0.078125q-0.25 0.046875 -0.5 0.078125q-0.25 0.015625 -0.484375 0.015625q-0.3125 0 -0.609375 -0.078125q-0.28125 -0.078125 -0.5 -0.265625q-0.21875 -0.1875 -0.34375 -0.5q-0.125 -0.328125 -0.125 -0.828125l0 -4.59375l3.21875 0l0 -1.109375l-3.21875 0l0 -2.046875zm9.9140625 10.65625q1.234375 0 2.078125 -0.5q0.84375 -0.5 1.265625 -1.140625l-0.890625 -0.6875q-0.390625 0.515625 -1.0 0.828125q-0.59375 0.3125 -1.375 0.3125q-0.578125 0 -1.0625 -0.21875q-0.484375 -0.21875 -0.828125 -0.59375q-0.34375 -0.359375 -0.53125 -0.828125q-0.1875 -0.46875 -0.25 -1.09375l0 -0.046875l6.046875 0l0 -0.65625q0 -0.875 -0.234375 -1.625q-0.21875 -0.765625 -0.671875 -1.328125q-0.453125 -0.5625 -1.140625 -0.875q-0.671875 -0.3125 -1.59375 -0.3125q-0.71875 0 -1.421875 0.296875q-0.6875 0.296875 -1.21875 0.84375q-0.546875 0.5625 -0.875 1.375q-0.328125 0.8125 -0.328125 1.828125l0 0.328125q0 0.890625 0.296875 1.640625q0.296875 0.75 0.828125 1.296875q0.53125 0.546875 1.265625 0.859375q0.75 0.296875 1.640625 0.296875zm-0.1875 -7.578125q0.5625 0 0.953125 0.203125q0.40625 0.203125 0.671875 0.53125q0.265625 0.328125 0.40625 0.78125q0.15625 0.4375 0.15625 0.828125l0 0.078125l-4.546875 0q0.09375 -0.59375 0.296875 -1.03125q0.21875 -0.453125 0.53125 -0.765625q0.3125 -0.3125 0.703125 -0.46875q0.390625 -0.15625 0.828125 -0.15625zm11.6796875 5.171875q0 0.203125 -0.078125 0.390625q-0.078125 0.171875 -0.234375 0.328125q-0.234375 0.234375 -0.671875 0.375q-0.421875 0.140625 -1.0 0.140625q-0.375 0 -0.75 -0.078125q-0.375 -0.078125 -0.671875 -0.265625q-0.3125 -0.1875 -0.53125 -0.484375q-0.203125 -0.3125 -0.234375 -0.765625l-1.4375 0q0 0.546875 0.234375 1.046875q0.25 0.5 0.71875 0.875q0.46875 0.375 1.140625 0.609375q0.671875 0.234375 1.53125 0.234375q0.75 0 1.375 -0.171875q0.640625 -0.1875 1.09375 -0.515625q0.453125 -0.328125 0.703125 -0.78125q0.25 -0.46875 0.25 -1.03125q0 -0.53125 -0.21875 -0.921875q-0.21875 -0.40625 -0.640625 -0.703125q-0.421875 -0.296875 -1.046875 -0.515625q-0.609375 -0.21875 -1.390625 -0.375q-0.59375 -0.125 -0.984375 -0.25q-0.390625 -0.125 -0.609375 -0.28125q-0.234375 -0.15625 -0.328125 -0.34375q-0.09375 -0.203125 -0.09375 -0.453125q0 -0.234375 0.109375 -0.453125q0.125 -0.234375 0.359375 -0.40625q0.21875 -0.171875 0.5625 -0.265625q0.359375 -0.109375 0.8125 -0.109375q0.453125 0 0.796875 0.125q0.359375 0.125 0.609375 0.328125q0.25 0.203125 0.390625 0.46875q0.140625 0.25 0.140625 0.53125l1.453125 0q0 -0.5625 -0.25 -1.03125q-0.234375 -0.484375 -0.671875 -0.84375q-0.4375 -0.359375 -1.0625 -0.5625q-0.625 -0.203125 -1.40625 -0.203125q-0.71875 0 -1.328125 0.203125q-0.609375 0.1875 -1.046875 0.515625q-0.4375 0.34375 -0.6875 0.796875q-0.234375 0.4375 -0.234375 0.953125q0 0.53125 0.234375 0.921875q0.234375 0.390625 0.671875 0.6875q0.421875 0.296875 1.015625 0.515625q0.59375 0.203125 1.328125 0.34375q0.59375 0.125 0.984375 0.265625q0.40625 0.140625 0.640625 0.3125q0.25 0.171875 0.34375 0.390625q0.109375 0.203125 0.109375 0.453125zm7.3984375 -8.25l-1.453125 0l0 2.046875l-2.21875 0l0 1.109375l2.21875 0l0 4.59375q0 0.78125 0.203125 1.34375q0.21875 0.546875 0.578125 0.890625q0.359375 0.34375 0.84375 0.515625q0.484375 0.15625 1.046875 0.15625q0.34375 0 0.671875 -0.03125q0.34375 -0.03125 0.65625 -0.09375q0.296875 -0.0625 0.546875 -0.140625q0.265625 -0.078125 0.453125 -0.1875l-0.203125 -1.03125q-0.140625 0.03125 -0.34375 0.078125q-0.203125 0.046875 -0.4375 0.078125q-0.25 0.046875 -0.5 0.078125q-0.25 0.015625 -0.484375 0.015625q-0.3125 0 -0.609375 -0.078125q-0.28125 -0.078125 -0.5 -0.265625q-0.21875 -0.1875 -0.34375 -0.5q-0.125 -0.328125 -0.125 -0.828125l0 -4.59375l3.21875 0l0 -1.109375l-3.21875 0l0 -2.046875zm7.6171875 5.875l0 0.078125q0 1.125 0.171875 2.109375q0.171875 0.984375 0.46875 1.8125q0.296875 0.859375 0.671875 1.546875q0.390625 0.6875 0.828125 1.234375q0.421875 0.546875 0.84375 0.921875q0.4375 0.375 0.828125 0.59375l0.3125 -0.875q-0.328125 -0.265625 -0.640625 -0.625q-0.3125 -0.359375 -0.609375 -0.828125q-0.296875 -0.5 -0.5625 -1.125q-0.265625 -0.625 -0.46875 -1.34375q-0.1875 -0.71875 -0.296875 -1.5625q-0.109375 -0.859375 -0.109375 -1.84375l0 -0.109375q0 -1.015625 0.109375 -1.890625q0.125 -0.890625 0.34375 -1.625q0.21875 -0.8125 0.546875 -1.484375q0.328125 -0.6875 0.6875 -1.203125q0.234375 -0.328125 0.484375 -0.59375q0.265625 -0.265625 0.515625 -0.453125l-0.3125 -0.953125q-0.390625 0.21875 -0.828125 0.609375q-0.421875 0.375 -0.84375 0.921875q-0.421875 0.53125 -0.8125 1.234375q-0.390625 0.6875 -0.6875 1.53125q-0.296875 0.84375 -0.46875 1.828125q-0.171875 0.984375 -0.171875 2.09375zm13.4453125 0.078125l0 -0.078125q0 -1.1875 -0.1875 -2.140625q-0.1875 -0.96875 -0.46875 -1.78125q-0.28125 -0.859375 -0.671875 -1.53125q-0.375 -0.6875 -0.8125 -1.234375q-0.421875 -0.546875 -0.859375 -0.921875q-0.4375 -0.390625 -0.828125 -0.609375l-0.3125 0.890625q0.265625 0.203125 0.53125 0.515625q0.28125 0.296875 0.53125 0.6875q0.34375 0.515625 0.65625 1.203125q0.328125 0.671875 0.546875 1.53125q0.15625 0.609375 0.28125 1.46875q0.140625 0.859375 0.140625 1.90625l0 0.109375q0 0.9375 -0.109375 1.75q-0.09375 0.8125 -0.265625 1.515625q-0.171875 0.765625 -0.453125 1.40625q-0.265625 0.640625 -0.546875 1.140625q-0.3125 0.5 -0.65625 0.875q-0.328125 0.390625 -0.65625 0.640625l0.3125 0.875q0.390625 -0.21875 0.8125 -0.59375q0.4375 -0.375 0.875 -0.921875q0.421875 -0.546875 0.796875 -1.234375q0.390625 -0.6875 0.6875 -1.546875q0.296875 -0.828125 0.46875 -1.8125q0.1875 -0.984375 0.1875 -2.109375zm20.203133 7.40625l0.171875 -0.890625q-0.484375 -0.015625 -0.8125 -0.265625q-0.3125 -0.25 -0.5 -0.640625q-0.1875 -0.390625 -0.265625 -0.875q-0.078125 -0.484375 -0.078125 -0.96875l0 -1.3125q-0.015625 -0.9375 -0.453125 -1.640625q-0.421875 -0.703125 -1.328125 -1.0625q0.90625 -0.375 1.34375 -1.078125q0.4375 -0.703125 0.4375 -1.640625l0 -1.328125q0 -0.484375 0.046875 -0.96875q0.046875 -0.484375 0.21875 -0.875q0.15625 -0.375 0.484375 -0.625q0.34375 -0.25 0.90625 -0.265625l-0.171875 -0.90625q-0.78125 0.03125 -1.34375 0.34375q-0.546875 0.3125 -0.890625 0.8125q-0.375 0.53125 -0.546875 1.1875q-0.15625 0.65625 -0.15625 1.296875l0 1.328125q0 1.125 -0.546875 1.640625q-0.53125 0.5 -1.625 0.5l0 1.125q1.09375 0.015625 1.625 0.53125q0.546875 0.5 0.546875 1.625l0 1.3125q0 0.625 0.171875 1.265625q0.1875 0.640625 0.53125 1.15625q0.375 0.546875 0.921875 0.875q0.5625 0.328125 1.3125 0.34375z" fill-rule="nonzero"/><path fill="#000000" d="m62.70567 133.74956l0.171875 -0.890625q-0.484375 -0.015625 -0.8125 -0.265625q-0.3125 -0.25 -0.5 -0.640625q-0.1875 -0.390625 -0.265625 -0.875q-0.078125 -0.484375 -0.078125 -0.96875l0 -1.3125q-0.015625 -0.9375076 -0.453125 -1.6406326q-0.421875 -0.703125 -1.328125 -1.0625q0.90625 -0.375 1.34375 -1.078125q0.4375 -0.703125 0.4375 -1.640625l0 -1.328125q0 -0.484375 0.046875 -0.96875q0.046875 -0.484375 0.21875 -0.875q0.15625 -0.375 0.484375 -0.625q0.34375 -0.25 0.90625 -0.265625l-0.171875 -0.90625q-0.78125 0.03125 -1.34375 0.34375q-0.546875 0.3125 -0.890625 0.8125q-0.375 0.53125 -0.546875 1.1875q-0.15625 0.65625 -0.15625 1.296875l0 1.328125q0 1.125 -0.546875 1.640625q-0.53125 0.5 -1.625 0.5l0 1.125q1.09375 0.015625 1.625 0.53125q0.546875 0.5 0.546875 1.6250076l0 1.3125q0 0.625 0.171875 1.265625q0.1875 0.640625 0.53125 1.15625q0.375 0.546875 0.921875 0.875q0.5625 0.328125 1.3125 0.34375z" fill-rule="nonzero"/><path fill="#000000" d="m100.455666 147.84016q0 0.203125 -0.078125 0.390625q-0.078125 0.171875 -0.234375 0.328125q-0.234375 0.234375 -0.671875 0.375q-0.421875 0.140625 -1.0 0.140625q-0.375 0 -0.75 -0.078125q-0.375 -0.078125 -0.671875 -0.265625q-0.3125 -0.1875 -0.53125 -0.484375q-0.203125 -0.3125 -0.234375 -0.765625l-1.4375 0q0 0.546875 0.234375 1.046875q0.25 0.5 0.71875 0.875q0.46875 0.375 1.140625 0.609375q0.671875 0.234375 1.53125 0.234375q0.75 0 1.375 -0.171875q0.640625 -0.1875 1.09375 -0.515625q0.453125 -0.328125 0.703125 -0.78125q0.25 -0.46875 0.25 -1.03125q0 -0.53125 -0.21875 -0.921875q-0.21875 -0.40625 -0.640625 -0.703125q-0.421875 -0.296875 -1.046875 -0.515625q-0.609375 -0.21875 -1.390625 -0.375q-0.59375 -0.125 -0.984375 -0.25q-0.390625 -0.125 -0.609375 -0.28125q-0.234375 -0.15625 -0.328125 -0.34375q-0.09375 -0.203125 -0.09375 -0.453125q0 -0.234375 0.109375 -0.453125q0.125 -0.234375 0.359375 -0.40625q0.21875 -0.171875 0.5625 -0.265625q0.359375 -0.109375 0.8125 -0.109375q0.453125 0 0.796875 0.125q0.359375 0.125 0.609375 0.328125q0.25 0.203125 0.390625 0.46875q0.140625 0.25 0.140625 0.53125l1.453125 0q0 -0.5625 -0.25 -1.03125q-0.234375 -0.484375 -0.671875 -0.84375q-0.4375 -0.359375 -1.0625 -0.5625q-0.625 -0.203125 -1.40625 -0.203125q-0.71875 0 -1.328125 0.203125q-0.609375 0.1875 -1.046875 0.515625q-0.4375 0.34375 -0.6875 0.796875q-0.234375 0.4375 -0.234375 0.953125q0 0.53125 0.234375 0.921875q0.234375 0.390625 0.671875 0.6875q0.421875 0.296875 1.015625 0.515625q0.59375 0.203125 1.328125 0.34375q0.59375 0.125 0.984375 0.265625q0.40625 0.140625 0.640625 0.3125q0.25 0.171875 0.34375 0.390625q0.109375 0.203125 0.109375 0.453125zm7.3984375 -8.25l-1.453125 0l0 2.046875l-2.21875 0l0 1.109375l2.21875 0l0 4.59375q0 0.78125 0.203125 1.34375q0.21875 0.546875 0.578125 0.890625q0.359375 0.34375 0.84375 0.515625q0.484375 0.15625 1.046875 0.15625q0.34375 0 0.671875 -0.03125q0.34375 -0.03125 0.65625 -0.09375q0.296875 -0.0625 0.546875 -0.140625q0.265625 -0.078125 0.453125 -0.1875l-0.203125 -1.03125q-0.140625 0.03125 -0.34375 0.078125q-0.203125 0.046875 -0.4375 0.078125q-0.25 0.046875 -0.5 0.078125q-0.25 0.015625 -0.484375 0.015625q-0.3125 0 -0.609375 -0.078125q-0.28125 -0.078125 -0.5 -0.265625q-0.21875 -0.1875 -0.34375 -0.5q-0.125 -0.328125 -0.125 -0.828125l0 -4.59375l3.21875 0l0 -1.109375l-3.21875 0l0 -2.046875zm5.9140625 6.203125l0 0.15625q0 0.90625 0.234375 1.703125q0.25 0.78125 0.6875 1.359375q0.4375 0.578125 1.046875 0.90625q0.625 0.328125 1.390625 0.328125q0.78125 0 1.359375 -0.265625q0.59375 -0.265625 1.015625 -0.78125l0.0625 0.890625l1.328125 0l0 -12.0l-1.4375 0l0 4.375q-0.421875 -0.484375 -0.984375 -0.734375q-0.5625 -0.25 -1.328125 -0.25q-0.765625 0 -1.390625 0.328125q-0.625 0.3125 -1.0625 0.875q-0.453125 0.578125 -0.6875 1.375q-0.234375 0.78125 -0.234375 1.734375zm1.4375 0.15625l0 -0.15625q0 -0.625 0.125 -1.171875q0.140625 -0.5625 0.421875 -1.0q0.28125 -0.421875 0.703125 -0.671875q0.4375 -0.25 1.046875 -0.25q0.71875 0 1.1875 0.34375q0.484375 0.328125 0.765625 0.84375l0 3.921875q-0.28125 0.546875 -0.765625 0.875q-0.46875 0.328125 -1.203125 0.328125q-0.59375 0 -1.03125 -0.234375q-0.421875 -0.25 -0.703125 -0.671875q-0.28125 -0.421875 -0.421875 -0.96875q-0.125 -0.5625 -0.125 -1.1875zm11.3359375 3.203125q0 0.453125 0.28125 0.78125q0.296875 0.3125 0.859375 0.3125q0.5468826 0 0.8437576 -0.3125q0.296875 -0.328125 0.296875 -0.78125q0 -0.46875 -0.296875 -0.796875q-0.28125 -0.328125 -0.8437576 -0.328125q-0.578125 0 -0.859375 0.328125q-0.28125 0.328125 -0.28125 0.796875zm0 -6.84375q0 0.453125 0.28125 0.78125q0.296875 0.3125 0.859375 0.3125q0.5468826 0 0.8437576 -0.3125q0.296875 -0.328125 0.296875 -0.78125q0 -0.46875 -0.296875 -0.796875q-0.28125 -0.328125 -0.8437576 -0.328125q-0.578125 0 -0.859375 0.328125q-0.28125 0.328125 -0.28125 0.796875zm9.60157 6.84375q0 0.453125 0.28125 0.78125q0.296875 0.3125 0.859375 0.3125q0.546875 0 0.84375 -0.3125q0.296875 -0.328125 0.296875 -0.78125q0 -0.46875 -0.296875 -0.796875q-0.28125 -0.328125 -0.84375 -0.328125q-0.578125 0 -0.859375 0.328125q-0.28125 0.328125 -0.28125 0.796875zm0 -6.84375q0 0.453125 0.28125 0.78125q0.296875 0.3125 0.859375 0.3125q0.546875 0 0.84375 -0.3125q0.296875 -0.328125 0.296875 -0.78125q0 -0.46875 -0.296875 -0.796875q-0.28125 -0.328125 -0.84375 -0.328125q-0.578125 0 -0.859375 0.328125q-0.28125 0.328125 -0.28125 0.796875zm12.3203125 5.53125q0 0.203125 -0.078125 0.390625q-0.078125 0.171875 -0.234375 0.328125q-0.234375 0.234375 -0.671875 0.375q-0.421875 0.140625 -1.0 0.140625q-0.375 0 -0.75 -0.078125q-0.375 -0.078125 -0.671875 -0.265625q-0.3125 -0.1875 -0.53125 -0.484375q-0.203125 -0.3125 -0.234375 -0.765625l-1.4375 0q0 0.546875 0.234375 1.046875q0.25 0.5 0.71875 0.875q0.46875 0.375 1.140625 0.609375q0.671875 0.234375 1.53125 0.234375q0.75 0 1.375 -0.171875q0.640625 -0.1875 1.09375 -0.515625q0.453125 -0.328125 0.703125 -0.78125q0.25 -0.46875 0.25 -1.03125q0 -0.53125 -0.21875 -0.921875q-0.21875 -0.40625 -0.640625 -0.703125q-0.421875 -0.296875 -1.046875 -0.515625q-0.609375 -0.21875 -1.390625 -0.375q-0.59375 -0.125 -0.984375 -0.25q-0.390625 -0.125 -0.609375 -0.28125q-0.234375 -0.15625 -0.328125 -0.34375q-0.09375 -0.203125 -0.09375 -0.453125q0 -0.234375 0.109375 -0.453125q0.125 -0.234375 0.359375 -0.40625q0.21875 -0.171875 0.5625 -0.265625q0.359375 -0.109375 0.8125 -0.109375q0.453125 0 0.796875 0.125q0.359375 0.125 0.609375 0.328125q0.25 0.203125 0.390625 0.46875q0.140625 0.25 0.140625 0.53125l1.453125 0q0 -0.5625 -0.25 -1.03125q-0.234375 -0.484375 -0.671875 -0.84375q-0.4375 -0.359375 -1.0625 -0.5625q-0.625 -0.203125 -1.40625 -0.203125q-0.71875 0 -1.328125 0.203125q-0.609375 0.1875 -1.046875 0.515625q-0.4375 0.34375 -0.6875 0.796875q-0.234375 0.4375 -0.234375 0.953125q0 0.53125 0.234375 0.921875q0.234375 0.390625 0.671875 0.6875q0.421875 0.296875 1.015625 0.515625q0.59375 0.203125 1.328125 0.34375q0.59375 0.125 0.984375 0.265625q0.40625 0.140625 0.640625 0.3125q0.25 0.171875 0.34375 0.390625q0.109375 0.203125 0.109375 0.453125zm7.3984375 -8.25l-1.453125 0l0 2.046875l-2.21875 0l0 1.109375l2.21875 0l0 4.59375q0 0.78125 0.203125 1.34375q0.21875 0.546875 0.578125 0.890625q0.359375 0.34375 0.84375 0.515625q0.484375 0.15625 1.046875 0.15625q0.34375 0 0.671875 -0.03125q0.34375 -0.03125 0.65625 -0.09375q0.296875 -0.0625 0.546875 -0.140625q0.265625 -0.078125 0.453125 -0.1875l-0.203125 -1.03125q-0.140625 0.03125 -0.34375 0.078125q-0.203125 0.046875 -0.4375 0.078125q-0.25 0.046875 -0.5 0.078125q-0.25 0.015625 -0.484375 0.015625q-0.3125 0 -0.609375 -0.078125q-0.28125 -0.078125 -0.5 -0.265625q-0.21875 -0.1875 -0.34375 -0.5q-0.125 -0.328125 -0.125 -0.828125l0 -4.59375l3.21875 0l0 -1.109375l-3.21875 0l0 -2.046875zm11.7265625 1.890625q-0.921875 0 -1.65625 0.40625q-0.71875 0.390625 -1.234375 1.09375l0 -0.21875l-0.0625 -1.125l-1.375 0l0 8.453125l1.453125 0l0 -5.421875q0.140625 -0.390625 0.34375 -0.703125q0.21875 -0.328125 0.515625 -0.546875q0.3125 -0.25 0.734375 -0.375q0.4375 -0.125 0.96875 -0.125q0.421875 0 0.796875 0.046875q0.375 0.03125 0.796875 0.125l0.203125 -1.40625q-0.21875 -0.09375 -0.65625 -0.140625q-0.4375 -0.0625 -0.828125 -0.0625zm4.2890625 0.15625l0 1.25l2.875 0l0 5.953125l-2.875 0l0 1.25l7.078125 0l0 -1.25l-2.765625 0l0 -7.203125l-4.3125 0zm2.6875 -2.21875q0 0.34375 0.203125 0.578125q0.21875 0.234375 0.65625 0.234375q0.4375 0 0.65625 -0.234375q0.21875 -0.234375 0.21875 -0.578125q0 -0.203125 -0.0625 -0.359375q-0.0625 -0.171875 -0.1875 -0.28125q-0.109375 -0.09375 -0.265625 -0.15625q-0.15625 -0.0625 -0.359375 -0.0625q-0.203125 0 -0.359375 0.0625q-0.15625 0.0625 -0.265625 0.15625q-0.125 0.125 -0.1875 0.296875q-0.046875 0.15625 -0.046875 0.34375zm6.6796875 10.671875l1.453125 0l0 -6.0625q0.140625 -0.28125 0.34375 -0.5q0.203125 -0.234375 0.4375 -0.40625q0.28125 -0.1875 0.625 -0.296875q0.34375 -0.125 0.75 -0.125q0.453125 0 0.8125 0.109375q0.359375 0.109375 0.609375 0.359375q0.234375 0.234375 0.359375 0.625q0.125 0.390625 0.125 0.953125l0 5.34375l1.453125 0l0 -5.375q0 -0.84375 -0.21875 -1.453125q-0.203125 -0.609375 -0.578125 -1.015625q-0.390625 -0.390625 -0.9375 -0.578125q-0.53125 -0.1875 -1.203125 -0.1875q-0.484375 0 -0.9375 0.140625q-0.4375 0.140625 -0.8125 0.390625q-0.25 0.15625 -0.46875 0.390625q-0.21875 0.21875 -0.40625 0.484375l-0.109375 -1.25l-1.296875 0l0 8.453125zm9.3359375 -4.296875l0 0.15625q0 0.90625 0.234375 1.703125q0.234375 0.78125 0.671875 1.359375q0.4375 0.578125 1.0625 0.90625q0.625 0.328125 1.390625 0.328125q0.46875 0 0.859375 -0.109375q0.40625 -0.09375 0.734375 -0.265625q0.203125 -0.125 0.390625 -0.28125q0.1875 -0.15625 0.34375 -0.34375l0 0.734375q0 0.546875 -0.15625 0.96875q-0.15625 0.421875 -0.4375 0.703125q-0.296875 0.296875 -0.71875 0.4375q-0.40625 0.15625 -0.921875 0.15625q-0.296875 0 -0.59375 -0.0625q-0.28125 -0.0625 -0.5625 -0.1875q-0.296875 -0.140625 -0.578125 -0.359375q-0.28125 -0.21875 -0.546875 -0.546875l-0.75 0.875q0.296875 0.40625 0.6875 0.6875q0.40625 0.28125 0.84375 0.453125q0.4375 0.171875 0.859375 0.234375q0.421875 0.078125 0.75 0.078125q0.796875 0 1.453125 -0.234375q0.65625 -0.234375 1.125 -0.6875q0.46875 -0.453125 0.734375 -1.109375q0.265625 -0.640625 0.265625 -1.484375l0 -8.265625l-1.3125 0l-0.078125 0.921875q-0.140625 -0.1875 -0.3125 -0.34375q-0.171875 -0.15625 -0.359375 -0.28125q-0.34375 -0.21875 -0.765625 -0.328125q-0.421875 -0.125 -0.9375 -0.125q-0.78125 0 -1.40625 0.328125q-0.625 0.3125 -1.0625 0.875q-0.4375 0.578125 -0.671875 1.375q-0.234375 0.78125 -0.234375 1.734375zm1.453125 0.15625l0 -0.15625q0 -0.625 0.125 -1.171875q0.125 -0.5625 0.40625 -1.0q0.28125 -0.421875 0.703125 -0.671875q0.4375 -0.25 1.046875 -0.25q0.359375 0 0.65625 0.09375q0.296875 0.09375 0.546875 0.25q0.234375 0.15625 0.421875 0.375q0.1875 0.21875 0.328125 0.484375l0 3.875q-0.140625 0.28125 -0.328125 0.515625q-0.1875 0.21875 -0.421875 0.375q-0.234375 0.171875 -0.546875 0.265625q-0.296875 0.078125 -0.671875 0.078125q-0.59375 0 -1.03125 -0.234375q-0.421875 -0.25 -0.703125 -0.671875q-0.28125 -0.421875 -0.40625 -0.96875q-0.125 -0.5625 -0.125 -1.1875zm23.640625 1.890625q0 0.203125 -0.078125 0.390625q-0.078125 0.171875 -0.234375 0.328125q-0.234375 0.234375 -0.671875 0.375q-0.421875 0.140625 -1.0 0.140625q-0.375 0 -0.75 -0.078125q-0.375 -0.078125 -0.671875 -0.265625q-0.3125 -0.1875 -0.53125 -0.484375q-0.203125 -0.3125 -0.234375 -0.765625l-1.4375 0q0 0.546875 0.234375 1.046875q0.25 0.5 0.71875 0.875q0.46875 0.375 1.140625 0.609375q0.671875 0.234375 1.53125 0.234375q0.75 0 1.375 -0.171875q0.640625 -0.1875 1.09375 -0.515625q0.453125 -0.328125 0.703125 -0.78125q0.25 -0.46875 0.25 -1.03125q0 -0.53125 -0.21875 -0.921875q-0.21875 -0.40625 -0.640625 -0.703125q-0.421875 -0.296875 -1.046875 -0.515625q-0.609375 -0.21875 -1.390625 -0.375q-0.59375 -0.125 -0.984375 -0.25q-0.390625 -0.125 -0.609375 -0.28125q-0.234375 -0.15625 -0.328125 -0.34375q-0.09375 -0.203125 -0.09375 -0.453125q0 -0.234375 0.109375 -0.453125q0.125 -0.234375 0.359375 -0.40625q0.21875 -0.171875 0.5625 -0.265625q0.359375 -0.109375 0.8125 -0.109375q0.453125 0 0.796875 0.125q0.359375 0.125 0.609375 0.328125q0.25 0.203125 0.390625 0.46875q0.140625 0.25 0.140625 0.53125l1.453125 0q0 -0.5625 -0.25 -1.03125q-0.234375 -0.484375 -0.671875 -0.84375q-0.4375 -0.359375 -1.0625 -0.5625q-0.625 -0.203125 -1.40625 -0.203125q-0.71875 0 -1.328125 0.203125q-0.609375 0.1875 -1.046875 0.515625q-0.4375 0.34375 -0.6875 0.796875q-0.234375 0.4375 -0.234375 0.953125q0 0.53125 0.234375 0.921875q0.234375 0.390625 0.671875 0.6875q0.421875 0.296875 1.015625 0.515625q0.59375 0.203125 1.328125 0.34375q0.59375 0.125 0.984375 0.265625q0.40625 0.140625 0.640625 0.3125q0.25 0.171875 0.34375 0.390625q0.109375 0.203125 0.109375 0.453125zm10.2578125 5.109375l0.171875 -0.890625q-0.484375 -0.015625 -0.8125 -0.265625q-0.3125 -0.25 -0.5 -0.640625q-0.1875 -0.390625 -0.265625 -0.875q-0.078125 -0.484375 -0.078125 -0.96875l0 -1.3125q-0.015625 -0.9375 -0.453125 -1.640625q-0.421875 -0.703125 -1.328125 -1.0625q0.90625 -0.375 1.34375 -1.078125q0.4375 -0.703125 0.4375 -1.640625l0 -1.328125q0 -0.484375 0.046875 -0.96875q0.046875 -0.484375 0.21875 -0.875q0.15625 -0.375 0.484375 -0.625q0.34375 -0.25 0.90625 -0.265625l-0.171875 -0.90625q-0.78125 0.03125 -1.34375 0.34375q-0.546875 0.3125 -0.890625 0.8125q-0.375 0.53125 -0.546875 1.1875q-0.15625 0.65625 -0.15625 1.296875l0 1.328125q0 1.125 -0.546875 1.640625q-0.53125 0.5 -1.625 0.5l0 1.125q1.09375 0.015625 1.625 0.53125q0.546875 0.5 0.546875 1.625l0 1.3125q0 0.625 0.171875 1.265625q0.1875 0.640625 0.53125 1.15625q0.375 0.546875 0.921875 0.875q0.5625 0.328125 1.3125 0.34375zm15.515625 -14.015625l0 -0.84375l-1.171875 0l0 0.96875l-0.015625 2.765625l1.015625 0l0.171875 -2.890625zm2.78125 0l0.015625 -0.84375l-1.171875 0l0 0.96875l-0.015625 2.765625l1.015625 0l0.15625 -2.890625zm11.3671875 11.15625l0 -11.375l-1.375 0l0 4.890625l-4.65625 0l0 -4.890625l-1.359375 0l0 11.375l1.359375 0l0 -5.265625l4.65625 0l0 5.265625l1.375 0zm6.1952972 0.15625q1.234375 0 2.078125 -0.5q0.84375 -0.5 1.265625 -1.140625l-0.890625 -0.6875q-0.390625 0.515625 -1.0 0.828125q-0.59375 0.3125 -1.375 0.3125q-0.578125 0 -1.0625 -0.21875q-0.484375 -0.21875 -0.828125 -0.59375q-0.34375 -0.359375 -0.53125 -0.828125q-0.1875 -0.46875 -0.25 -1.09375l0 -0.046875l6.046875 0l0 -0.65625q0 -0.875 -0.234375 -1.625q-0.21875 -0.765625 -0.671875 -1.328125q-0.453125 -0.5625 -1.140625 -0.875q-0.671875 -0.3125 -1.59375 -0.3125q-0.71875 0 -1.421875 0.296875q-0.6875 0.296875 -1.21875 0.84375q-0.546875 0.5625 -0.875 1.375q-0.328125 0.8125 -0.328125 1.828125l0 0.328125q0 0.890625 0.296875 1.640625q0.296875 0.75 0.828125 1.296875q0.53125 0.546875 1.265625 0.859375q0.75 0.296875 1.640625 0.296875zm-0.1875 -7.578125q0.5625 0 0.953125 0.203125q0.40625 0.203125 0.671875 0.53125q0.265625 0.328125 0.40625 0.78125q0.15625 0.4375 0.15625 0.828125l0 0.078125l-4.546875 0q0.09375 -0.59375 0.296875 -1.03125q0.21875 -0.453125 0.53125 -0.765625q0.3125 -0.3125 0.703125 -0.46875q0.390625 -0.15625 0.828125 -0.15625zm6.2890625 -4.578125l0 1.25l2.875 0l0 9.5l-2.875 0l0 1.25l7.078125 0l0 -1.25l-2.765625 0l0 -10.75l-4.3125 0zm9.6015625 0l0 1.25l2.875 0l0 9.5l-2.875 0l0 1.25l7.078125 0l0 -1.25l-2.765625 0l0 -10.75l-4.3125 0zm8.9609375 7.6875l0 0.171875q0 0.921875 0.265625 1.703125q0.265625 0.78125 0.765625 1.359375q0.5 0.578125 1.203125 0.90625q0.71875 0.328125 1.625 0.328125q0.890625 0 1.59375 -0.328125q0.71875 -0.328125 1.21875 -0.90625q0.484375 -0.578125 0.75 -1.359375q0.265625 -0.78125 0.265625 -1.703125l0 -0.171875q0 -0.90625 -0.265625 -1.6875q-0.265625 -0.796875 -0.75 -1.375q-0.5 -0.578125 -1.21875 -0.90625q-0.71875 -0.328125 -1.609375 -0.328125q-0.890625 0 -1.609375 0.328125q-0.703125 0.328125 -1.203125 0.90625q-0.5 0.578125 -0.765625 1.375q-0.265625 0.78125 -0.265625 1.6875zm1.453125 0.171875l0 -0.171875q0 -0.609375 0.140625 -1.171875q0.15625 -0.578125 0.453125 -1.0q0.296875 -0.4375 0.734375 -0.6875q0.453125 -0.25 1.0625 -0.25q0.59375 0 1.046875 0.25q0.453125 0.25 0.75 0.6875q0.296875 0.421875 0.453125 1.0q0.15625 0.5625 0.15625 1.171875l0 0.171875q0 0.625 -0.15625 1.203125q-0.140625 0.5625 -0.4375 0.984375q-0.3125 0.4375 -0.765625 0.6875q-0.4375 0.25 -1.03125 0.25q-0.609375 0 -1.0625 -0.25q-0.453125 -0.25 -0.75 -0.6875q-0.296875 -0.421875 -0.453125 -0.984375q-0.140625 -0.578125 -0.140625 -1.203125zm18.75 4.140625l1.484375 0l1.390625 -8.09375l0.09375 -0.484375l0.078125 0.484375l1.375 8.09375l1.484375 0l1.375 -11.375l-1.359375 0l-0.828125 7.828125l-0.046875 0.46875l-0.078125 -0.46875l-1.390625 -7.828125l-1.25 0l-1.375 7.828125l-0.09375 0.46875l-0.046875 -0.453125l-0.8125 -7.84375l-1.375 0l1.375 11.375zm8.6015625 -4.3125l0 0.171875q0 0.921875 0.265625 1.703125q0.265625 0.78125 0.765625 1.359375q0.5 0.578125 1.203125 0.90625q0.71875 0.328125 1.625 0.328125q0.890625 0 1.59375 -0.328125q0.71875 -0.328125 1.21875 -0.90625q0.484375 -0.578125 0.75 -1.359375q0.265625 -0.78125 0.265625 -1.703125l0 -0.171875q0 -0.90625 -0.265625 -1.6875q-0.265625 -0.796875 -0.75 -1.375q-0.5 -0.578125 -1.21875 -0.90625q-0.71875 -0.328125 -1.609375 -0.328125q-0.890625 0 -1.609375 0.328125q-0.703125 0.328125 -1.203125 0.90625q-0.5 0.578125 -0.765625 1.375q-0.265625 0.78125 -0.265625 1.6875zm1.453125 0.171875l0 -0.171875q0 -0.609375 0.140625 -1.171875q0.15625 -0.578125 0.453125 -1.0q0.296875 -0.4375 0.734375 -0.6875q0.453125 -0.25 1.0625 -0.25q0.59375 0 1.046875 0.25q0.453125 0.25 0.75 0.6875q0.296875 0.421875 0.453125 1.0q0.15625 0.5625 0.15625 1.171875l0 0.171875q0 0.625 -0.15625 1.203125q-0.140625 0.5625 -0.4375 0.984375q-0.3125 0.4375 -0.765625 0.6875q-0.4375 0.25 -1.03125 0.25q-0.609375 0 -1.0625 -0.25q-0.453125 -0.25 -0.75 -0.6875q-0.296875 -0.421875 -0.453125 -0.984375q-0.140625 -0.578125 -0.140625 -1.203125zm14.1015625 -4.46875q-0.921875 0 -1.65625 0.40625q-0.71875 0.390625 -1.234375 1.09375l0 -0.21875l-0.0625 -1.125l-1.375 0l0 8.453125l1.453125 0l0 -5.421875q0.140625 -0.390625 0.34375 -0.703125q0.21875 -0.328125 0.515625 -0.546875q0.3125 -0.25 0.734375 -0.375q0.4375 -0.125 0.96875 -0.125q0.421875 0 0.796875 0.046875q0.375 0.03125 0.796875 0.125l0.203125 -1.40625q-0.21875 -0.09375 -0.65625 -0.140625q-0.4375 -0.0625 -0.828125 -0.0625zm4.2890625 -3.390625l0 1.25l2.875 0l0 9.5l-2.875 0l0 1.25l7.078125 0l0 -1.25l-2.765625 0l0 -10.75l-4.3125 0zm9.1015625 7.703125l0 0.15625q0 0.90625 0.234375 1.703125q0.25 0.78125 0.6875 1.359375q0.4375 0.578125 1.046875 0.90625q0.625 0.328125 1.390625 0.328125q0.78125 0 1.359375 -0.265625q0.59375 -0.265625 1.015625 -0.78125l0.0625 0.890625l1.328125 0l0 -12.0l-1.4375 0l0 4.375q-0.421875 -0.484375 -0.984375 -0.734375q-0.5625 -0.25 -1.328125 -0.25q-0.765625 0 -1.390625 0.328125q-0.625 0.3125 -1.0625 0.875q-0.453125 0.578125 -0.6875 1.375q-0.234375 0.78125 -0.234375 1.734375zm1.4375 0.15625l0 -0.15625q0 -0.625 0.125 -1.171875q0.140625 -0.5625 0.421875 -1.0q0.28125 -0.421875 0.703125 -0.671875q0.4375 -0.25 1.046875 -0.25q0.71875 0 1.1875 0.34375q0.484375 0.328125 0.765625 0.84375l0 3.921875q-0.28125 0.546875 -0.765625 0.875q-0.46875 0.328125 -1.203125 0.328125q-0.59375 0 -1.03125 -0.234375q-0.421875 -0.25 -0.703125 -0.671875q-0.28125 -0.421875 -0.421875 -0.96875q-0.125 -0.5625 -0.125 -1.1875zm11.0234375 -7.015625l0 -0.84375l-1.171875 0l0 0.96875l-0.015625 2.765625l1.015625 0l0.171875 -2.890625zm2.78125 0l0.015625 -0.84375l-1.171875 0l0 0.96875l-0.015625 2.765625l1.015625 0l0.15625 -2.890625zm15.0 13.125l0.15625 0.890625q0.765625 -0.015625 1.3125 -0.359375q0.5625 -0.328125 0.9375 -0.84375q0.359375 -0.53125 0.53125 -1.171875q0.171875 -0.640625 0.171875 -1.265625l0 -1.3125q0 -0.546875 0.125 -0.9375q0.125 -0.40625 0.375 -0.671875q0.265625 -0.28125 0.6875 -0.40625q0.421875 -0.125 0.984375 -0.140625l0 -1.125q-0.640625 0 -1.109375 -0.171875q-0.453125 -0.171875 -0.703125 -0.53125q-0.1875 -0.265625 -0.28125 -0.609375q-0.078125 -0.359375 -0.078125 -0.828125l0 -1.328125q0 -0.65625 -0.1875 -1.328125q-0.171875 -0.671875 -0.5625 -1.21875q-0.359375 -0.46875 -0.90625 -0.765625q-0.53125 -0.296875 -1.296875 -0.328125l-0.15625 0.90625q0.5625 0.015625 0.890625 0.265625q0.328125 0.25 0.5 0.625q0.171875 0.390625 0.21875 0.875q0.046875 0.484375 0.046875 0.96875l0 1.328125q0 0.609375 0.171875 1.125q0.1875 0.515625 0.5625 0.90625q0.203125 0.21875 0.453125 0.390625q0.265625 0.171875 0.578125 0.296875q-0.296875 0.125 -0.5625 0.296875q-0.25 0.15625 -0.453125 0.359375q-0.375 0.375 -0.5625 0.90625q-0.1875 0.515625 -0.1875 1.140625l0 1.3125q0 0.484375 -0.078125 0.96875q-0.078125 0.484375 -0.265625 0.875q-0.203125 0.390625 -0.53125 0.640625q-0.3125 0.25 -0.78125 0.265625zm11.2734375 -9.75q0 0.453125 0.28125 0.78125q0.296875 0.3125 0.859375 0.3125q0.546875 0 0.84375 -0.3125q0.296875 -0.328125 0.296875 -0.78125q0 -0.46875 -0.296875 -0.796875q-0.28125 -0.328125 -0.84375 -0.328125q-0.578125 0 -0.859375 0.328125q-0.28125 0.328125 -0.28125 0.796875zm1.859375 7.4375l0 -1.375l-1.578125 0l0 1.40625q0 0.671875 -0.15625 1.28125q-0.15625 0.625 -0.53125 1.171875l0.90625 0.484375q0.625 -0.546875 0.984375 -1.359375q0.375 -0.8125 0.375 -1.609375z" fill-rule="nonzero"/><path fill="#000000" d="m100.455666 167.04016q0 0.203125 -0.078125 0.390625q-0.078125 0.171875 -0.234375 0.328125q-0.234375 0.234375 -0.671875 0.375q-0.421875 0.140625 -1.0 0.140625q-0.375 0 -0.75 -0.078125q-0.375 -0.078125 -0.671875 -0.265625q-0.3125 -0.1875 -0.53125 -0.484375q-0.203125 -0.3125 -0.234375 -0.765625l-1.4375 0q0 0.546875 0.234375 1.046875q0.25 0.5 0.71875 0.875q0.46875 0.375 1.140625 0.609375q0.671875 0.234375 1.53125 0.234375q0.75 0 1.375 -0.171875q0.640625 -0.1875 1.09375 -0.515625q0.453125 -0.328125 0.703125 -0.78125q0.25 -0.46875 0.25 -1.03125q0 -0.53125 -0.21875 -0.921875q-0.21875 -0.40625 -0.640625 -0.703125q-0.421875 -0.296875 -1.046875 -0.515625q-0.609375 -0.21875 -1.390625 -0.375q-0.59375 -0.125 -0.984375 -0.25q-0.390625 -0.125 -0.609375 -0.28125q-0.234375 -0.15625 -0.328125 -0.34375q-0.09375 -0.203125 -0.09375 -0.453125q0 -0.234375 0.109375 -0.453125q0.125 -0.234375 0.359375 -0.40625q0.21875 -0.171875 0.5625 -0.265625q0.359375 -0.109375 0.8125 -0.109375q0.453125 0 0.796875 0.125q0.359375 0.125 0.609375 0.328125q0.25 0.203125 0.390625 0.46875q0.140625 0.25 0.140625 0.53125l1.453125 0q0 -0.5625 -0.25 -1.03125q-0.234375 -0.484375 -0.671875 -0.84375q-0.4375 -0.359375 -1.0625 -0.5625q-0.625 -0.203125 -1.40625 -0.203125q-0.71875 0 -1.328125 0.203125q-0.609375 0.1875 -1.046875 0.515625q-0.4375 0.34375 -0.6875 0.796875q-0.234375 0.4375 -0.234375 0.953125q0 0.53125 0.234375 0.921875q0.234375 0.390625 0.671875 0.6875q0.421875 0.296875 1.015625 0.515625q0.59375 0.203125 1.328125 0.34375q0.59375 0.125 0.984375 0.265625q0.40625 0.140625 0.640625 0.3125q0.25 0.171875 0.34375 0.390625q0.109375 0.203125 0.109375 0.453125zm7.3984375 -8.25l-1.453125 0l0 2.046875l-2.21875 0l0 1.109375l2.21875 0l0 4.59375q0 0.78125 0.203125 1.34375q0.21875 0.546875 0.578125 0.890625q0.359375 0.34375 0.84375 0.515625q0.484375 0.15625 1.046875 0.15625q0.34375 0 0.671875 -0.03125q0.34375 -0.03125 0.65625 -0.09375q0.296875 -0.0625 0.546875 -0.140625q0.265625 -0.078125 0.453125 -0.1875l-0.203125 -1.03125q-0.140625 0.03125 -0.34375 0.078125q-0.203125 0.046875 -0.4375 0.078125q-0.25 0.046875 -0.5 0.078125q-0.25 0.015625 -0.484375 0.015625q-0.3125 0 -0.609375 -0.078125q-0.28125 -0.078125 -0.5 -0.265625q-0.21875 -0.1875 -0.34375 -0.5q-0.125 -0.328125 -0.125 -0.828125l0 -4.59375l3.21875 0l0 -1.109375l-3.21875 0l0 -2.046875zm5.9140625 6.203125l0 0.15625q0 0.90625 0.234375 1.703125q0.25 0.78125 0.6875 1.359375q0.4375 0.578125 1.046875 0.90625q0.625 0.328125 1.390625 0.328125q0.78125 0 1.359375 -0.265625q0.59375 -0.265625 1.015625 -0.78125l0.0625 0.890625l1.328125 0l0 -12.0l-1.4375 0l0 4.375q-0.421875 -0.484375 -0.984375 -0.734375q-0.5625 -0.25 -1.328125 -0.25q-0.765625 0 -1.390625 0.328125q-0.625 0.3125 -1.0625 0.875q-0.453125 0.578125 -0.6875 1.375q-0.234375 0.78125 -0.234375 1.734375zm1.4375 0.15625l0 -0.15625q0 -0.625 0.125 -1.171875q0.140625 -0.5625 0.421875 -1.0q0.28125 -0.421875 0.703125 -0.671875q0.4375 -0.25 1.046875 -0.25q0.71875 0 1.1875 0.34375q0.484375 0.328125 0.765625 0.84375l0 3.921875q-0.28125 0.546875 -0.765625 0.875q-0.46875 0.328125 -1.203125 0.328125q-0.59375 0 -1.03125 -0.234375q-0.421875 -0.25 -0.703125 -0.671875q-0.28125 -0.421875 -0.421875 -0.96875q-0.125 -0.5625 -0.125 -1.1875zm11.3359375 3.203125q0 0.453125 0.28125 0.78125q0.296875 0.3125 0.859375 0.3125q0.5468826 0 0.8437576 -0.3125q0.296875 -0.328125 0.296875 -0.78125q0 -0.46875 -0.296875 -0.796875q-0.28125 -0.328125 -0.8437576 -0.328125q-0.578125 0 -0.859375 0.328125q-0.28125 0.328125 -0.28125 0.796875zm0 -6.84375q0 0.453125 0.28125 0.78125q0.296875 0.3125 0.859375 0.3125q0.5468826 0 0.8437576 -0.3125q0.296875 -0.328125 0.296875 -0.78125q0 -0.46875 -0.296875 -0.796875q-0.28125 -0.328125 -0.8437576 -0.328125q-0.578125 0 -0.859375 0.328125q-0.28125 0.328125 -0.28125 0.796875zm9.60157 6.84375q0 0.453125 0.28125 0.78125q0.296875 0.3125 0.859375 0.3125q0.546875 0 0.84375 -0.3125q0.296875 -0.328125 0.296875 -0.78125q0 -0.46875 -0.296875 -0.796875q-0.28125 -0.328125 -0.84375 -0.328125q-0.578125 0 -0.859375 0.328125q-0.28125 0.328125 -0.28125 0.796875zm0 -6.84375q0 0.453125 0.28125 0.78125q0.296875 0.3125 0.859375 0.3125q0.546875 0 0.84375 -0.3125q0.296875 -0.328125 0.296875 -0.78125q0 -0.46875 -0.296875 -0.796875q-0.28125 -0.328125 -0.84375 -0.328125q-0.578125 0 -0.859375 0.328125q-0.28125 0.328125 -0.28125 0.796875zm6.6953125 11.03125l1.4375 0l0 -4.0625q0.15625 0.171875 0.328125 0.3125q0.1875 0.140625 0.390625 0.265625q0.34375 0.1875 0.75 0.28125q0.421875 0.109375 0.90625 0.109375q0.796875 0 1.421875 -0.328125q0.625 -0.328125 1.046875 -0.90625q0.421875 -0.578125 0.640625 -1.359375q0.21875 -0.796875 0.21875 -1.703125l0 -0.15625q0 -0.953125 -0.21875 -1.734375q-0.21875 -0.796875 -0.640625 -1.375q-0.421875 -0.5625 -1.046875 -0.875q-0.625 -0.328125 -1.4375 -0.328125q-0.46875 0 -0.875 0.09375q-0.390625 0.09375 -0.71875 0.28125q-0.234375 0.125 -0.4375 0.3125q-0.203125 0.171875 -0.375 0.390625l-0.078125 -0.921875l-1.3125 0l0 11.703125zm5.6875 -7.546875l0 0.15625q0 0.625 -0.140625 1.1875q-0.125 0.5625 -0.40625 0.984375q-0.28125 0.4375 -0.71875 0.6875q-0.4375 0.25 -1.046875 0.25q-0.375 0 -0.6875 -0.09375q-0.296875 -0.09375 -0.546875 -0.25q-0.21875 -0.140625 -0.390625 -0.34375q-0.171875 -0.203125 -0.3125 -0.4375l0 -4.078125q0.15625 -0.265625 0.34375 -0.484375q0.203125 -0.21875 0.453125 -0.359375q0.21875 -0.15625 0.5 -0.234375q0.296875 -0.078125 0.625 -0.078125q0.609375 0 1.046875 0.25q0.4375 0.25 0.734375 0.671875q0.28125 0.4375 0.40625 1.0q0.140625 0.546875 0.140625 1.171875zm9.4609375 -4.3125q-0.921875 0 -1.65625 0.40625q-0.71875 0.390625 -1.234375 1.09375l0 -0.21875l-0.0625 -1.125l-1.375 0l0 8.453125l1.453125 0l0 -5.421875q0.140625 -0.390625 0.34375 -0.703125q0.21875 -0.328125 0.515625 -0.546875q0.3125 -0.25 0.734375 -0.375q0.4375 -0.125 0.96875 -0.125q0.421875 0 0.796875 0.046875q0.375 0.03125 0.796875 0.125l0.203125 -1.40625q-0.21875 -0.09375 -0.65625 -0.140625q-0.4375 -0.0625 -0.828125 -0.0625zm4.2890625 0.15625l0 1.25l2.875 0l0 5.953125l-2.875 0l0 1.25l7.078125 0l0 -1.25l-2.765625 0l0 -7.203125l-4.3125 0zm2.6875 -2.21875q0 0.34375 0.203125 0.578125q0.21875 0.234375 0.65625 0.234375q0.4375 0 0.65625 -0.234375q0.21875 -0.234375 0.21875 -0.578125q0 -0.203125 -0.0625 -0.359375q-0.0625 -0.171875 -0.1875 -0.28125q-0.109375 -0.09375 -0.265625 -0.15625q-0.15625 -0.0625 -0.359375 -0.0625q-0.203125 0 -0.359375 0.0625q-0.15625 0.0625 -0.265625 0.15625q-0.125 0.125 -0.1875 0.296875q-0.046875 0.15625 -0.046875 0.34375zm6.6796875 10.671875l1.453125 0l0 -6.0625q0.140625 -0.28125 0.34375 -0.5q0.203125 -0.234375 0.4375 -0.40625q0.28125 -0.1875 0.625 -0.296875q0.34375 -0.125 0.75 -0.125q0.453125 0 0.8125 0.109375q0.359375 0.109375 0.609375 0.359375q0.234375 0.234375 0.359375 0.625q0.125 0.390625 0.125 0.953125l0 5.34375l1.453125 0l0 -5.375q0 -0.84375 -0.21875 -1.453125q-0.203125 -0.609375 -0.578125 -1.015625q-0.390625 -0.390625 -0.9375 -0.578125q-0.53125 -0.1875 -1.203125 -0.1875q-0.484375 0 -0.9375 0.140625q-0.4375 0.140625 -0.8125 0.390625q-0.25 0.15625 -0.46875 0.390625q-0.21875 0.21875 -0.40625 0.484375l-0.109375 -1.25l-1.296875 0l0 8.453125zm13.0234375 -10.5l-1.453125 0l0 2.046875l-2.21875 0l0 1.109375l2.21875 0l0 4.59375q0 0.78125 0.203125 1.34375q0.21875 0.546875 0.578125 0.890625q0.359375 0.34375 0.84375 0.515625q0.484375 0.15625 1.046875 0.15625q0.34375 0 0.671875 -0.03125q0.34375 -0.03125 0.65625 -0.09375q0.296875 -0.0625 0.546875 -0.140625q0.265625 -0.078125 0.453125 -0.1875l-0.203125 -1.03125q-0.140625 0.03125 -0.34375 0.078125q-0.203125 0.046875 -0.4375 0.078125q-0.25 0.046875 -0.5 0.078125q-0.25 0.015625 -0.484375 0.015625q-0.3125 0 -0.609375 -0.078125q-0.28125 -0.078125 -0.5 -0.265625q-0.21875 -0.1875 -0.34375 -0.5q-0.125 -0.328125 -0.125 -0.828125l0 -4.59375l3.21875 0l0 -1.109375l-3.21875 0l0 -2.046875zm6.4140625 -1.5l0 1.25l2.875 0l0 9.5l-2.875 0l0 1.25l7.078125 0l0 -1.25l-2.765625 0l0 -10.75l-4.3125 0zm9.3671875 12.0l1.453125 0l0 -6.0625q0.140625 -0.28125 0.34375 -0.5q0.203125 -0.234375 0.4375 -0.40625q0.28125 -0.1875 0.625 -0.296875q0.34375 -0.125 0.75 -0.125q0.453125 0 0.8125 0.109375q0.359375 0.109375 0.609375 0.359375q0.234375 0.234375 0.359375 0.625q0.125 0.390625 0.125 0.953125l0 5.34375l1.453125 0l0 -5.375q0 -0.84375 -0.21875 -1.453125q-0.203125 -0.609375 -0.578125 -1.015625q-0.390625 -0.390625 -0.9375 -0.578125q-0.53125 -0.1875 -1.203125 -0.1875q-0.484375 0 -0.9375 0.140625q-0.4375 0.140625 -0.8125 0.390625q-0.25 0.15625 -0.46875 0.390625q-0.21875 0.21875 -0.40625 0.484375l-0.109375 -1.25l-1.296875 0l0 8.453125zm11.0390625 -4.625l0 0.078125q0 1.125 0.171875 2.109375q0.171875 0.984375 0.46875 1.8125q0.296875 0.859375 0.671875 1.546875q0.390625 0.6875 0.828125 1.234375q0.421875 0.546875 0.84375 0.921875q0.4375 0.375 0.828125 0.59375l0.3125 -0.875q-0.328125 -0.265625 -0.640625 -0.625q-0.3125 -0.359375 -0.609375 -0.828125q-0.296875 -0.5 -0.5625 -1.125q-0.265625 -0.625 -0.46875 -1.34375q-0.1875 -0.71875 -0.296875 -1.5625q-0.109375 -0.859375 -0.109375 -1.84375l0 -0.109375q0 -1.015625 0.109375 -1.890625q0.125 -0.890625 0.34375 -1.625q0.21875 -0.8125 0.546875 -1.484375q0.328125 -0.6875 0.6875 -1.203125q0.234375 -0.328125 0.484375 -0.59375q0.265625 -0.265625 0.515625 -0.453125l-0.3125 -0.953125q-0.390625 0.21875 -0.828125 0.609375q-0.421875 0.375 -0.84375 0.921875q-0.421875 0.53125 -0.8125 1.234375q-0.390625 0.6875 -0.6875 1.53125q-0.296875 0.84375 -0.46875 1.828125q-0.171875 0.984375 -0.171875 2.09375zm10.7578125 -6.53125l0 -0.84375l-1.171875 0l0 0.96875l-0.015625 2.765625l1.015625 0l0.171875 -2.890625zm2.78125 0l0.015625 -0.84375l-1.171875 0l0 0.96875l-0.015625 2.765625l1.015625 0l0.15625 -2.890625zm10.5078125 14.015625l0.171875 -0.890625q-0.484375 -0.015625 -0.8125 -0.265625q-0.3125 -0.25 -0.5 -0.640625q-0.1875 -0.390625 -0.265625 -0.875q-0.078125 -0.484375 -0.078125 -0.96875l0 -1.3125q-0.015625 -0.9375 -0.453125 -1.640625q-0.421875 -0.703125 -1.328125 -1.0625q0.90625 -0.375 1.34375 -1.078125q0.4375 -0.703125 0.4375 -1.640625l0 -1.328125q0 -0.484375 0.046875 -0.96875q0.046875 -0.484375 0.21875 -0.875q0.15625 -0.375 0.484375 -0.625q0.34375 -0.25 0.90625 -0.265625l-0.171875 -0.90625q-0.78125 0.03125 -1.34375 0.34375q-0.546875 0.3125 -0.890625 0.8125q-0.375 0.53125 -0.546875 1.1875q-0.15625 0.65625 -0.15625 1.296875l0 1.328125q0 1.125 -0.546875 1.640625q-0.53125 0.5 -1.625 0.5l0 1.125q1.09375 0.015625 1.625 0.53125q0.546875 0.5 0.546875 1.625l0 1.3125q0 0.625 0.171875 1.265625q0.1875 0.640625 0.53125 1.15625q0.375 0.546875 0.921875 0.875q0.5625 0.328125 1.3125 0.34375zm4.4921875 -0.890625l0.15625 0.890625q0.765625 -0.015625 1.3125 -0.359375q0.5625 -0.328125 0.9375 -0.84375q0.359375 -0.53125 0.53125 -1.171875q0.171875 -0.640625 0.171875 -1.265625l0 -1.3125q0 -0.546875 0.125 -0.9375q0.125 -0.40625 0.375 -0.671875q0.265625 -0.28125 0.6875 -0.40625q0.421875 -0.125 0.984375 -0.140625l0 -1.125q-0.640625 0 -1.109375 -0.171875q-0.453125 -0.171875 -0.703125 -0.53125q-0.1875 -0.265625 -0.28125 -0.609375q-0.078125 -0.359375 -0.078125 -0.828125l0 -1.328125q0 -0.65625 -0.1875 -1.328125q-0.171875 -0.671875 -0.5625 -1.21875q-0.359375 -0.46875 -0.90625 -0.765625q-0.53125 -0.296875 -1.296875 -0.328125l-0.15625 0.90625q0.5625 0.015625 0.890625 0.265625q0.328125 0.25 0.5 0.625q0.171875 0.390625 0.21875 0.875q0.046875 0.484375 0.046875 0.96875l0 1.328125q0 0.609375 0.171875 1.125q0.1875 0.515625 0.5625 0.90625q0.203125 0.21875 0.453125 0.390625q0.265625 0.171875 0.578125 0.296875q-0.296875 0.125 -0.5625 0.296875q-0.25 0.15625 -0.453125 0.359375q-0.375 0.375 -0.5625 0.90625q-0.1875 0.515625 -0.1875 1.140625l0 1.3125q0 0.484375 -0.078125 0.96875q-0.078125 0.484375 -0.265625 0.875q-0.203125 0.390625 -0.53125 0.640625q-0.3125 0.25 -0.78125 0.265625zm11.0234375 -13.125l0 -0.84375l-1.171875 0l0 0.96875l-0.015625 2.765625l1.015625 0l0.171875 -2.890625zm2.78125 0l0.015625 -0.84375l-1.171875 0l0 0.96875l-0.015625 2.765625l1.015625 0l0.15625 -2.890625zm7.8984222 10.8125l0 -1.375l-1.578125 0l0 1.40625q0 0.671875 -0.15625 1.28125q-0.15625 0.625 -0.53125 1.171875l0.90625 0.484375q0.625 -0.546875 0.984375 -1.359375q0.375 -0.8125 0.375 -1.609375zm21.15625 -1.90625q0 0.203125 -0.078125 0.390625q-0.078125 0.171875 -0.234375 0.328125q-0.234375 0.234375 -0.671875 0.375q-0.421875 0.140625 -1.0 0.140625q-0.375 0 -0.75 -0.078125q-0.375 -0.078125 -0.671875 -0.265625q-0.3125 -0.1875 -0.53125 -0.484375q-0.203125 -0.3125 -0.234375 -0.765625l-1.4375 0q0 0.546875 0.234375 1.046875q0.25 0.5 0.71875 0.875q0.46875 0.375 1.140625 0.609375q0.671875 0.234375 1.53125 0.234375q0.75 0 1.375 -0.171875q0.640625 -0.1875 1.09375 -0.515625q0.453125 -0.328125 0.703125 -0.78125q0.25 -0.46875 0.25 -1.03125q0 -0.53125 -0.21875 -0.921875q-0.21875 -0.40625 -0.640625 -0.703125q-0.421875 -0.296875 -1.046875 -0.515625q-0.609375 -0.21875 -1.390625 -0.375q-0.59375 -0.125 -0.984375 -0.25q-0.390625 -0.125 -0.609375 -0.28125q-0.234375 -0.15625 -0.328125 -0.34375q-0.09375 -0.203125 -0.09375 -0.453125q0 -0.234375 0.109375 -0.453125q0.125 -0.234375 0.359375 -0.40625q0.21875 -0.171875 0.5625 -0.265625q0.359375 -0.109375 0.8125 -0.109375q0.453125 0 0.796875 0.125q0.359375 0.125 0.609375 0.328125q0.25 0.203125 0.390625 0.46875q0.140625 0.25 0.140625 0.53125l1.453125 0q0 -0.5625 -0.25 -1.03125q-0.234375 -0.484375 -0.671875 -0.84375q-0.4375 -0.359375 -1.0625 -0.5625q-0.625 -0.203125 -1.40625 -0.203125q-0.71875 0 -1.328125 0.203125q-0.609375 0.1875 -1.046875 0.515625q-0.4375 0.34375 -0.6875 0.796875q-0.234375 0.4375 -0.234375 0.953125q0 0.53125 0.234375 0.921875q0.234375 0.390625 0.671875 0.6875q0.421875 0.296875 1.015625 0.515625q0.59375 0.203125 1.328125 0.34375q0.59375 0.125 0.984375 0.265625q0.40625 0.140625 0.640625 0.3125q0.25 0.171875 0.34375 0.390625q0.109375 0.203125 0.109375 0.453125zm9.2578125 -2.296875l0 -0.078125q0 -1.1875 -0.1875 -2.140625q-0.1875 -0.96875 -0.46875 -1.78125q-0.28125 -0.859375 -0.671875 -1.53125q-0.375 -0.6875 -0.8125 -1.234375q-0.421875 -0.546875 -0.859375 -0.921875q-0.4375 -0.390625 -0.828125 -0.609375l-0.3125 0.890625q0.265625 0.203125 0.53125 0.515625q0.28125 0.296875 0.53125 0.6875q0.34375 0.515625 0.65625 1.203125q0.328125 0.671875 0.546875 1.53125q0.15625 0.609375 0.28125 1.46875q0.140625 0.859375 0.140625 1.90625l0 0.109375q0 0.9375 -0.109375 1.75q-0.09375 0.8125 -0.265625 1.515625q-0.171875 0.765625 -0.453125 1.40625q-0.265625 0.640625 -0.546875 1.140625q-0.3125 0.5 -0.65625 0.875q-0.328125 0.390625 -0.65625 0.640625l0.3125 0.875q0.390625 -0.21875 0.8125 -0.59375q0.4375 -0.375 0.875 -0.921875q0.421875 -0.546875 0.796875 -1.234375q0.390625 -0.6875 0.6875 -1.546875q0.296875 -0.828125 0.46875 -1.8125q0.1875 -0.984375 0.1875 -2.109375zm7.1640625 -3.234375q0 0.453125 0.28125 0.78125q0.296875 0.3125 0.859375 0.3125q0.546875 0 0.84375 -0.3125q0.296875 -0.328125 0.296875 -0.78125q0 -0.46875 -0.296875 -0.796875q-0.28125 -0.328125 -0.84375 -0.328125q-0.578125 0 -0.859375 0.328125q-0.28125 0.328125 -0.28125 0.796875zm1.859375 7.4375l0 -1.375l-1.578125 0l0 1.40625q0 0.671875 -0.15625 1.28125q-0.15625 0.625 -0.53125 1.171875l0.90625 0.484375q0.625 -0.546875 0.984375 -1.359375q0.375 -0.8125 0.375 -1.609375z" fill-rule="nonzero"/><path fill="#000000" d="m57.596294 190.45891l0.15625 0.890625q0.765625 -0.015625 1.3125 -0.359375q0.5625 -0.328125 0.9375 -0.84375q0.359375 -0.53125 0.53125 -1.171875q0.171875 -0.640625 0.171875 -1.265625l0 -1.3125q0 -0.546875 0.125 -0.9375q0.125 -0.40625 0.375 -0.671875q0.265625 -0.28125 0.6875 -0.40625q0.421875 -0.125 0.984375 -0.140625l0 -1.125q-0.640625 0 -1.109375 -0.171875q-0.453125 -0.171875 -0.703125 -0.53125q-0.1875 -0.265625 -0.28125 -0.609375q-0.078125 -0.359375 -0.078125 -0.828125l0 -1.328125q0 -0.65625 -0.1875 -1.328125q-0.171875 -0.671875 -0.5625 -1.21875q-0.359375 -0.46875 -0.90625 -0.765625q-0.53125 -0.296875 -1.296875 -0.328125l-0.15625 0.90625q0.5625 0.015625 0.890625 0.265625q0.328125 0.25 0.5 0.625q0.171875 0.390625 0.21875 0.875q0.046875 0.484375 0.046875 0.96875l0 1.328125q0 0.609375 0.171875 1.125q0.1875 0.515625 0.5625 0.90625q0.203125 0.21875 0.453125 0.390625q0.265625 0.171875 0.578125 0.296875q-0.296875 0.125 -0.5625 0.296875q-0.25 0.15625 -0.453125 0.359375q-0.375 0.375 -0.5625 0.90625q-0.1875 0.515625 -0.1875 1.140625l0 1.3125q0 0.484375 -0.078125 0.96875q-0.078125 0.484375 -0.265625 0.875q-0.203125 0.390625 -0.53125 0.640625q-0.3125 0.25 -0.78125 0.265625z" fill-rule="nonzero"/><path fill="#000000" d="m58.33067 208.67453l4.75 -12.359375l-1.296875 0l-4.75 12.359375l1.296875 0zm9.601559 0l4.75 -12.359375l-1.296875 0l-4.75 12.359375l1.296875 0z" fill-rule="nonzero"/><path fill="#000000" d="m101.611916 206.56516l0 -2.125l-4.28125 -1.421875l-0.53125 -0.1875l0.53125 -0.203125l4.28125 -1.453125l0 -2.109375l-6.921875 2.875l0 1.75l6.921875 2.875zm10.0859375 -4.484375l0 -1.78125l-7.390625 0l0 1.78125l7.390625 0zm0 3.375l0 -1.78125l-7.390625 0l0 1.78125l7.390625 0zm9.6015625 -3.375l0 -1.78125l-7.390625 0l0 1.78125l7.390625 0zm0 3.375l0 -1.78125l-7.390625 0l0 1.78125l7.390625 0zm19.421883 0.90625l0 -4.484375l-4.078125 0l0 1.640625l1.890625 0l-0.015625 2.0625q-0.078125 0.09375 -0.25 0.1875q-0.171875 0.09375 -0.390625 0.15625q-0.21875 0.078125 -0.46875 0.125q-0.25 0.03125 -0.5 0.03125q-0.421875 -0.015625 -0.765625 -0.140625q-0.328125 -0.125 -0.578125 -0.375q-0.140625 -0.15625 -0.265625 -0.34375q-0.125 -0.1875 -0.21875 -0.421875q-0.140625 -0.390625 -0.234375 -0.890625q-0.078125 -0.515625 -0.078125 -1.125l0 -1.5625q0 -0.5 0.0625 -0.921875q0.0625 -0.421875 0.171875 -0.765625q0.140625 -0.4375 0.34375 -0.765625q0.21875 -0.328125 0.484375 -0.53125q0.203125 -0.15625 0.4375 -0.234375q0.234375 -0.078125 0.484375 -0.078125q0.46875 0 0.796875 0.125q0.328125 0.125 0.546875 0.359375q0.203125 0.21875 0.3125 0.546875q0.109375 0.3125 0.171875 0.734375l2.140625 0q-0.09375 -0.828125 -0.375 -1.484375q-0.265625 -0.65625 -0.765625 -1.109375q-0.484375 -0.453125 -1.203125 -0.6875q-0.71875 -0.25 -1.671875 -0.25q-0.625 0 -1.1875 0.171875q-0.5625 0.171875 -1.046875 0.5q-0.40625 0.296875 -0.75 0.703125q-0.328125 0.40625 -0.59375 0.921875q-0.265625 0.5625 -0.421875 1.265625q-0.140625 0.703125 -0.140625 1.515625l0 1.546875q0 0.84375 0.140625 1.578125q0.15625 0.71875 0.453125 1.296875q0.265625 0.53125 0.625 0.9375q0.375 0.40625 0.828125 0.6875q0.46875 0.265625 1.015625 0.40625q0.546875 0.15625 1.171875 0.15625q0.71875 0 1.34375 -0.140625q0.625 -0.125 1.140625 -0.34375q0.5 -0.21875 0.859375 -0.484375q0.375 -0.265625 0.578125 -0.515625zm9.6796875 -2.234375l-2.1875 0q-0.03125 0.515625 -0.171875 0.890625q-0.140625 0.359375 -0.390625 0.59375q-0.234375 0.234375 -0.578125 0.34375q-0.34375 0.109375 -0.78125 0.109375q-0.3125 0 -0.578125 -0.078125q-0.265625 -0.078125 -0.46875 -0.234375q-0.203125 -0.140625 -0.359375 -0.34375q-0.140625 -0.21875 -0.25 -0.484375q-0.15625 -0.40625 -0.234375 -0.9375q-0.078125 -0.53125 -0.078125 -1.21875l0 -1.546875q0 -0.5 0.046875 -0.921875q0.046875 -0.4375 0.15625 -0.796875q0.125 -0.46875 0.34375 -0.8125q0.234375 -0.34375 0.546875 -0.53125q0.1875 -0.109375 0.40625 -0.15625q0.234375 -0.0625 0.484375 -0.0625q0.484375 0 0.828125 0.125q0.359375 0.125 0.59375 0.375q0.21875 0.265625 0.34375 0.65625q0.125 0.375 0.15625 0.875l2.1875 0q-0.078125 -0.890625 -0.375 -1.59375q-0.296875 -0.71875 -0.8125 -1.203125q-0.515625 -0.5 -1.25 -0.765625q-0.734375 -0.265625 -1.671875 -0.265625q-0.625 0 -1.1875 0.171875q-0.546875 0.15625 -1.0 0.453125q-0.515625 0.34375 -0.921875 0.859375q-0.40625 0.5 -0.65625 1.15625q-0.21875 0.53125 -0.328125 1.15625q-0.109375 0.609375 -0.109375 1.296875l0 1.53125q0 0.734375 0.109375 1.390625q0.125 0.65625 0.359375 1.203125q0.234375 0.546875 0.5625 1.0q0.34375 0.453125 0.78125 0.78125q0.484375 0.34375 1.078125 0.53125q0.59375 0.1875 1.296875 0.1875q0.890625 0 1.625 -0.265625q0.734375 -0.265625 1.265625 -0.75q0.53125 -0.484375 0.84375 -1.171875q0.328125 -0.6875 0.375 -1.546875zm13.5625 -3.734375l0 -4.703125l-2.171875 0l0 12.0l2.171875 0l0 -6.109375q0.125 -0.15625 0.265625 -0.28125q0.15625 -0.140625 0.34375 -0.234375q0.203125 -0.109375 0.453125 -0.15625q0.25 -0.0625 0.546875 -0.0625q0.375 0 0.671875 0.09375q0.296875 0.09375 0.5 0.296875q0.21875 0.203125 0.328125 0.53125q0.109375 0.328125 0.109375 0.78125l0 5.140625l2.171875 0l0 -5.125q0 -0.921875 -0.21875 -1.578125q-0.21875 -0.671875 -0.625 -1.09375q-0.390625 -0.421875 -0.953125 -0.609375q-0.546875 -0.203125 -1.21875 -0.203125q-0.453125 0 -0.859375 0.140625q-0.40625 0.125 -0.734375 0.359375q-0.21875 0.15625 -0.421875 0.375q-0.203125 0.203125 -0.359375 0.4375zm12.7109375 7.296875l2.203125 0l0 -0.140625q-0.171875 -0.3125 -0.265625 -0.75q-0.078125 -0.453125 -0.078125 -1.140625l0 -3.625q0 -0.734375 -0.28125 -1.28125q-0.265625 -0.5625 -0.75 -0.9375q-0.484375 -0.359375 -1.140625 -0.546875q-0.65625 -0.1875 -1.421875 -0.1875q-0.859375 0 -1.515625 0.21875q-0.65625 0.203125 -1.109375 0.578125q-0.46875 0.359375 -0.703125 0.84375q-0.234375 0.484375 -0.234375 1.03125l2.171875 0q0 -0.234375 0.0625 -0.421875q0.0625 -0.1875 0.203125 -0.3125q0.15625 -0.15625 0.40625 -0.234375q0.25 -0.078125 0.59375 -0.078125q0.390625 0 0.6875 0.09375q0.296875 0.09375 0.484375 0.28125q0.1875 0.171875 0.28125 0.40625q0.09375 0.234375 0.09375 0.53125l0 0.5l-1.203125 0q-0.9375 0 -1.671875 0.171875q-0.71875 0.171875 -1.203125 0.484375q-0.546875 0.359375 -0.828125 0.90625q-0.265625 0.53125 -0.265625 1.234375q0 0.546875 0.21875 1.015625q0.21875 0.46875 0.609375 0.796875q0.390625 0.34375 0.921875 0.53125q0.546875 0.1875 1.203125 0.1875q0.390625 0 0.734375 -0.078125q0.34375 -0.0625 0.640625 -0.203125q0.28125 -0.125 0.515625 -0.296875q0.234375 -0.171875 0.40625 -0.375q0.046875 0.234375 0.09375 0.4375q0.0625 0.203125 0.140625 0.359375zm-2.078125 -1.53125q-0.296875 0 -0.53125 -0.0625q-0.234375 -0.078125 -0.390625 -0.203125q-0.15625 -0.140625 -0.234375 -0.328125q-0.078125 -0.1875 -0.078125 -0.421875q0 -0.28125 0.109375 -0.53125q0.109375 -0.25 0.328125 -0.421875q0.234375 -0.171875 0.59375 -0.265625q0.359375 -0.109375 0.859375 -0.109375l1.109375 0l0 1.453125q-0.09375 0.171875 -0.265625 0.328125q-0.15625 0.15625 -0.375 0.28125q-0.234375 0.125 -0.515625 0.203125q-0.28125 0.078125 -0.609375 0.078125zm6.4296875 4.78125l2.171875 0l0 -3.984375q0.140625 0.15625 0.296875 0.296875q0.171875 0.125 0.359375 0.234375q0.296875 0.171875 0.65625 0.265625q0.359375 0.09375 0.78125 0.09375q0.796875 0 1.40625 -0.328125q0.625 -0.328125 1.046875 -0.90625q0.40625 -0.578125 0.625 -1.359375q0.21875 -0.796875 0.21875 -1.71875l0 -0.15625q0 -0.96875 -0.21875 -1.75q-0.21875 -0.796875 -0.640625 -1.375q-0.421875 -0.5625 -1.046875 -0.859375q-0.609375 -0.3125 -1.40625 -0.3125q-0.390625 0 -0.734375 0.078125q-0.34375 0.078125 -0.625 0.234375q-0.234375 0.125 -0.4375 0.296875q-0.203125 0.15625 -0.375 0.375l-0.078125 -0.828125l-2.0 0l0 11.703125zm5.390625 -7.5625l0 0.15625q0 0.53125 -0.09375 1.0q-0.09375 0.453125 -0.296875 0.8125q-0.203125 0.34375 -0.53125 0.546875q-0.328125 0.203125 -0.78125 0.203125q-0.296875 0 -0.53125 -0.046875q-0.234375 -0.0625 -0.40625 -0.171875q-0.1875 -0.125 -0.34375 -0.28125q-0.140625 -0.171875 -0.234375 -0.375l0 -3.53125q0.109375 -0.21875 0.25 -0.375q0.15625 -0.171875 0.359375 -0.28125q0.1875 -0.09375 0.40625 -0.140625q0.21875 -0.046875 0.484375 -0.046875q0.453125 0 0.78125 0.203125q0.328125 0.1875 0.53125 0.515625q0.203125 0.34375 0.296875 0.8125q0.109375 0.46875 0.109375 1.0zm4.2109375 7.5625l2.171875 0l0 -3.984375q0.140625 0.15625 0.296875 0.296875q0.171875 0.125 0.359375 0.234375q0.296875 0.171875 0.65625 0.265625q0.359375 0.09375 0.78125 0.09375q0.796875 0 1.40625 -0.328125q0.625 -0.328125 1.046875 -0.90625q0.40625 -0.578125 0.625 -1.359375q0.21875 -0.796875 0.21875 -1.71875l0 -0.15625q0 -0.96875 -0.21875 -1.75q-0.21875 -0.796875 -0.640625 -1.375q-0.421875 -0.5625 -1.046875 -0.859375q-0.609375 -0.3125 -1.40625 -0.3125q-0.390625 0 -0.734375 0.078125q-0.34375 0.078125 -0.625 0.234375q-0.234375 0.125 -0.4375 0.296875q-0.203125 0.15625 -0.375 0.375l-0.078125 -0.828125l-2.0 0l0 11.703125zm5.390625 -7.5625l0 0.15625q0 0.53125 -0.09375 1.0q-0.09375 0.453125 -0.296875 0.8125q-0.203125 0.34375 -0.53125 0.546875q-0.328125 0.203125 -0.78125 0.203125q-0.296875 0 -0.53125 -0.046875q-0.234375 -0.0625 -0.40625 -0.171875q-0.1875 -0.125 -0.34375 -0.28125q-0.140625 -0.171875 -0.234375 -0.375l0 -3.53125q0.109375 -0.21875 0.25 -0.375q0.15625 -0.171875 0.359375 -0.28125q0.1875 -0.09375 0.40625 -0.140625q0.21875 -0.046875 0.484375 -0.046875q0.453125 0 0.78125 0.203125q0.328125 0.1875 0.53125 0.515625q0.203125 0.34375 0.296875 0.8125q0.109375 0.46875 0.109375 1.0zm8.2734375 4.46875q1.234375 0 2.125 -0.46875q0.90625 -0.484375 1.3125 -1.078125l-1.078125 -1.171875q-0.375 0.484375 -0.984375 0.734375q-0.59375 0.234375 -1.234375 0.234375q-0.453125 0 -0.84375 -0.140625q-0.375 -0.140625 -0.671875 -0.390625q-0.296875 -0.25 -0.46875 -0.5625q-0.171875 -0.3125 -0.28125 -0.8125l0 -0.03125l5.734375 0l0 -0.921875q0 -0.921875 -0.265625 -1.6875q-0.25 -0.78125 -0.734375 -1.328125q-0.5 -0.546875 -1.21875 -0.84375q-0.71875 -0.296875 -1.625 -0.296875q-0.890625 0 -1.640625 0.328125q-0.75 0.3125 -1.296875 0.890625q-0.546875 0.578125 -0.859375 1.375q-0.296875 0.796875 -0.296875 1.765625l0 0.3125q0 0.859375 0.3125 1.609375q0.3125 0.734375 0.875 1.28125q0.578125 0.5625 1.375 0.890625q0.796875 0.3125 1.765625 0.3125zm-0.25 -7.015625q0.40625 0 0.71875 0.140625q0.328125 0.125 0.546875 0.34375q0.21875 0.21875 0.34375 0.53125q0.125 0.296875 0.125 0.640625l0 0.171875l-3.5625 0q0.078125 -0.40625 0.234375 -0.734375q0.15625 -0.34375 0.390625 -0.59375q0.21875 -0.234375 0.515625 -0.359375q0.3125 -0.140625 0.6875 -0.140625zm5.7578125 6.859375l2.171875 0l0 -6.015625q0.109375 -0.171875 0.234375 -0.3125q0.140625 -0.140625 0.3125 -0.234375q0.203125 -0.140625 0.453125 -0.203125q0.265625 -0.078125 0.578125 -0.078125q0.375 0 0.671875 0.078125q0.296875 0.0625 0.515625 0.25q0.203125 0.1875 0.3125 0.515625q0.125 0.328125 0.125 0.828125l0 5.171875l2.171875 0l0 -5.203125q0 -0.921875 -0.21875 -1.5625q-0.21875 -0.65625 -0.59375 -1.0625q-0.390625 -0.40625 -0.921875 -0.59375q-0.53125 -0.1875 -1.171875 -0.1875q-0.5 0 -0.953125 0.140625q-0.4375 0.140625 -0.8125 0.40625q-0.21875 0.15625 -0.421875 0.359375q-0.1875 0.1875 -0.359375 0.421875l-0.125 -1.171875l-1.96875 0l0 8.453125zm15.0546875 -2.328125q0 0.203125 -0.109375 0.375q-0.09375 0.15625 -0.28125 0.28125q-0.203125 0.125 -0.53125 0.203125q-0.3125 0.0625 -0.734375 0.0625q-0.34375 0 -0.6875 -0.0625q-0.328125 -0.078125 -0.578125 -0.234375q-0.265625 -0.140625 -0.4375 -0.390625q-0.15625 -0.25 -0.171875 -0.59375l-2.078125 0q0 0.515625 0.25 1.03125q0.265625 0.515625 0.75 0.90625q0.5 0.40625 1.21875 0.671875q0.734375 0.25 1.6875 0.25q0.875 0 1.578125 -0.1875q0.703125 -0.203125 1.203125 -0.546875q0.484375 -0.34375 0.75 -0.8125q0.28125 -0.484375 0.28125 -1.046875q0 -0.609375 -0.28125 -1.046875q-0.265625 -0.4375 -0.734375 -0.75q-0.484375 -0.3125 -1.140625 -0.5q-0.65625 -0.203125 -1.421875 -0.328125q-0.53125 -0.078125 -0.875 -0.171875q-0.34375 -0.109375 -0.53125 -0.25q-0.203125 -0.125 -0.28125 -0.28125q-0.078125 -0.15625 -0.078125 -0.34375q0 -0.1875 0.078125 -0.359375q0.09375 -0.171875 0.265625 -0.296875q0.1875 -0.140625 0.484375 -0.21875q0.296875 -0.078125 0.703125 -0.078125q0.46875 0 0.796875 0.125q0.328125 0.109375 0.53125 0.3125q0.140625 0.140625 0.203125 0.328125q0.078125 0.1875 0.078125 0.390625l2.171875 0q0 -0.578125 -0.265625 -1.078125q-0.25 -0.5 -0.734375 -0.875q-0.5 -0.359375 -1.203125 -0.5625q-0.703125 -0.203125 -1.578125 -0.203125q-0.84375 0 -1.515625 0.21875q-0.671875 0.203125 -1.140625 0.5625q-0.46875 0.359375 -0.71875 0.84375q-0.25 0.46875 -0.25 0.984375q0 0.546875 0.234375 0.96875q0.25 0.40625 0.6875 0.71875q0.4375 0.3125 1.046875 0.546875q0.625 0.21875 1.359375 0.359375q0.59375 0.109375 0.96875 0.21875q0.390625 0.109375 0.625 0.234375q0.21875 0.140625 0.3125 0.296875q0.09375 0.140625 0.09375 0.328125zm15.921875 -4.96875l0 -4.703125l-2.171875 0l0 12.0l2.171875 0l0 -6.109375q0.125 -0.15625 0.265625 -0.28125q0.15625 -0.140625 0.34375 -0.234375q0.203125 -0.109375 0.453125 -0.15625q0.25 -0.0625 0.546875 -0.0625q0.375 0 0.671875 0.09375q0.296875 0.09375 0.5 0.296875q0.21875 0.203125 0.328125 0.53125q0.109375 0.328125 0.109375 0.78125l0 5.140625l2.171875 0l0 -5.125q0 -0.921875 -0.21875 -1.578125q-0.21875 -0.671875 -0.625 -1.09375q-0.390625 -0.421875 -0.953125 -0.609375q-0.546875 -0.203125 -1.21875 -0.203125q-0.453125 0 -0.859375 0.140625q-0.40625 0.125 -0.734375 0.359375q-0.21875 0.15625 -0.421875 0.375q-0.203125 0.203125 -0.359375 0.4375zm11.5234375 7.453125q1.234375 0 2.125 -0.46875q0.90625 -0.484375 1.3125 -1.078125l-1.078125 -1.171875q-0.375 0.484375 -0.984375 0.734375q-0.59375 0.234375 -1.234375 0.234375q-0.453125 0 -0.84375 -0.140625q-0.375 -0.140625 -0.671875 -0.390625q-0.296875 -0.25 -0.46875 -0.5625q-0.171875 -0.3125 -0.28125 -0.8125l0 -0.03125l5.734375 0l0 -0.921875q0 -0.921875 -0.265625 -1.6875q-0.25 -0.78125 -0.734375 -1.328125q-0.5 -0.546875 -1.21875 -0.84375q-0.71875 -0.296875 -1.625 -0.296875q-0.890625 0 -1.640625 0.328125q-0.75 0.3125 -1.296875 0.890625q-0.546875 0.578125 -0.859375 1.375q-0.296875 0.796875 -0.296875 1.765625l0 0.3125q0 0.859375 0.3125 1.609375q0.3125 0.734375 0.875 1.28125q0.578125 0.5625 1.375 0.890625q0.796875 0.3125 1.765625 0.3125zm-0.25 -7.015625q0.40625 0 0.71875 0.140625q0.328125 0.125 0.546875 0.34375q0.21875 0.21875 0.34375 0.53125q0.125 0.296875 0.125 0.640625l0 0.171875l-3.5625 0q0.078125 -0.40625 0.234375 -0.734375q0.15625 -0.34375 0.390625 -0.59375q0.21875 -0.234375 0.515625 -0.359375q0.3125 -0.140625 0.6875 -0.140625zm11.820297 -1.75q-0.84375 0 -1.5625 0.40625q-0.71875 0.40625 -1.234375 1.125l-0.015625 -0.1875l-0.09375 -1.1875l-2.015625 0l0 8.453125l2.171875 0l0 -5.078125q0.140625 -0.359375 0.359375 -0.625q0.234375 -0.265625 0.5625 -0.4375q0.265625 -0.15625 0.59375 -0.21875q0.34375 -0.078125 0.765625 -0.078125q0.40625 0 0.859375 0.046875q0.453125 0.046875 0.875 0.15625l0.328125 -2.171875q-0.265625 -0.078125 -0.6875 -0.140625q-0.40625 -0.0625 -0.90625 -0.0625zm7.6328125 8.765625q1.234375 0 2.125 -0.46875q0.90625 -0.484375 1.3125 -1.078125l-1.078125 -1.171875q-0.375 0.484375 -0.984375 0.734375q-0.59375 0.234375 -1.234375 0.234375q-0.453125 0 -0.84375 -0.140625q-0.375 -0.140625 -0.671875 -0.390625q-0.296875 -0.25 -0.46875 -0.5625q-0.171875 -0.3125 -0.28125 -0.8125l0 -0.03125l5.734375 0l0 -0.921875q0 -0.921875 -0.265625 -1.6875q-0.25 -0.78125 -0.734375 -1.328125q-0.5 -0.546875 -1.21875 -0.84375q-0.71875 -0.296875 -1.625 -0.296875q-0.890625 0 -1.640625 0.328125q-0.75 0.3125 -1.296875 0.890625q-0.546875 0.578125 -0.859375 1.375q-0.296875 0.796875 -0.296875 1.765625l0 0.3125q0 0.859375 0.3125 1.609375q0.3125 0.734375 0.875 1.28125q0.578125 0.5625 1.375 0.890625q0.796875 0.3125 1.765625 0.3125zm-0.25 -7.015625q0.40625 0 0.71875 0.140625q0.328125 0.125 0.546875 0.34375q0.21875 0.21875 0.34375 0.53125q0.125 0.296875 0.125 0.640625l0 0.171875l-3.5625 0q0.078125 -0.40625 0.234375 -0.734375q0.15625 -0.34375 0.390625 -0.59375q0.21875 -0.234375 0.515625 -0.359375q0.3125 -0.140625 0.6875 -0.140625z" fill-rule="nonzero"/><path fill="#000000" d="m19.190042 228.8589l0.15625 0.890625q0.765625 -0.015625 1.3125 -0.359375q0.5625 -0.328125 0.9375 -0.84375q0.359375 -0.53125 0.53125 -1.171875q0.171875 -0.640625 0.171875 -1.265625l0 -1.3125q0 -0.546875 0.125 -0.9375q0.125 -0.40625 0.375 -0.671875q0.265625 -0.28125 0.6875 -0.40625q0.421875 -0.125 0.984375 -0.140625l0 -1.125q-0.640625 0 -1.109375 -0.171875q-0.453125 -0.171875 -0.703125 -0.53125q-0.1875 -0.265625 -0.28125 -0.609375q-0.078125 -0.359375 -0.078125 -0.828125l0 -1.328125q0 -0.65625 -0.1875 -1.328125q-0.171875 -0.671875 -0.5625 -1.21875q-0.359375 -0.46875 -0.90625 -0.765625q-0.53125 -0.296875 -1.296875 -0.328125l-0.15625 0.90625q0.5625 0.015625 0.890625 0.265625q0.328125 0.25 0.5 0.625q0.171875 0.390625 0.21875 0.875q0.046875 0.484375 0.046875 0.96875l0 1.328125q0 0.609375 0.171875 1.125q0.1875 0.515625 0.5625 0.90625q0.203125 0.21875 0.453125 0.390625q0.265625 0.171875 0.578125 0.296875q-0.296875 0.125 -0.5625 0.296875q-0.25 0.15625 -0.453125 0.359375q-0.375 0.375 -0.5625 0.90625q-0.1875 0.515625 -0.1875 1.140625l0 1.3125q0 0.484375 -0.078125 0.96875q-0.078125 0.484375 -0.265625 0.875q-0.203125 0.390625 -0.53125 0.640625q-0.3125 0.25 -0.78125 0.265625z" fill-rule="nonzero"/></g></svg>